<?xml version="1.0" encoding="UTF-8" standalone="no"?><svg xmlns="http://www.w3.org/2000/svg" xmlns:xlink="http://www.w3.org/1999/xlink" contentStyleType="text/css" height="905px" preserveAspectRatio="none" style="width:1466px;height:905px;background:#FFFFFF;" version="1.1" viewBox="0 0 1466 905" width="1466px" zoomAndPan="magnify"><defs/><g><rect fill="#FFFFFF" height="710.0938" style="stroke:#181818;stroke-width:1.0;" width="10" x="31" y="98.5547"/><rect fill="#FFFFFF" height="86.1094" style="stroke:#181818;stroke-width:1.0;" width="10" x="520" y="128.1094"/><rect fill="#FFFFFF" height="37.5547" style="stroke:#181818;stroke-width:1.0;" width="10" x="520" y="251.7734"/><rect fill="#FFFFFF" height="481.7656" style="stroke:#181818;stroke-width:1.0;" width="10" x="520" y="326.8828"/><rect fill="#FFFFFF" height="374.1016" style="stroke:#181818;stroke-width:1.0;" width="10" x="1029" y="364.4375"/><rect fill="#FFFFFF" height="37.5547" style="stroke:#181818;stroke-width:1.0;" width="10" x="1241.5" y="464.1016"/><rect fill="#FFFFFF" height="37.5547" style="stroke:#181818;stroke-width:1.0;" width="10" x="1388" y="539.2109"/><line style="stroke:#181818;stroke-width:0.5;stroke-dasharray:5.0,5.0;" x1="36" x2="36" y1="88.5547" y2="817.6484"/><line style="stroke:#181818;stroke-width:0.5;stroke-dasharray:5.0,5.0;" x1="524.5" x2="524.5" y1="88.5547" y2="817.6484"/><line style="stroke:#181818;stroke-width:0.5;stroke-dasharray:5.0,5.0;" x1="1034" x2="1034" y1="170.3867" y2="817.6484"/><line style="stroke:#181818;stroke-width:0.5;stroke-dasharray:5.0,5.0;" x1="1246" x2="1246" y1="88.5547" y2="817.6484"/><line style="stroke:#181818;stroke-width:0.5;stroke-dasharray:5.0,5.0;" x1="1393" x2="1393" y1="88.5547" y2="817.6484"/><text fill="#000000" font-family="sans-serif" font-size="20" lengthAdjust="spacing" textLength="56" x="5" y="84.3359">Agent</text><ellipse cx="36" cy="13.5" fill="#E3E3E3" rx="8" ry="8" style="stroke:#181818;stroke-width:0.5;"/><path d="M36,21.5 L36,48.5 M23,29.5 L49,29.5 M36,48.5 L23,63.5 M36,48.5 L49,63.5 " fill="none" style="stroke:#181818;stroke-width:0.5;"/><text fill="#000000" font-family="sans-serif" font-size="20" lengthAdjust="spacing" textLength="56" x="5" y="835.9844">Agent</text><ellipse cx="36" cy="848.7031" fill="#E3E3E3" rx="8" ry="8" style="stroke:#181818;stroke-width:0.5;"/><path d="M36,856.7031 L36,883.7031 M23,864.7031 L49,864.7031 M36,883.7031 L23,898.7031 M36,883.7031 L49,898.7031 " fill="none" style="stroke:#181818;stroke-width:0.5;"/><rect fill="#E3E3E3" height="37.5547" rx="2.5" ry="2.5" style="stroke:#181818;stroke-width:0.5;" width="199" x="425.5" y="50"/><text fill="#000000" font-family="sans-serif" font-size="20" lengthAdjust="spacing" textLength="185" x="432.5" y="76.3359">: ListVisitRequestUI</text><rect fill="#E3E3E3" height="37.5547" rx="2.5" ry="2.5" style="stroke:#181818;stroke-width:0.5;" width="199" x="425.5" y="816.6484"/><text fill="#000000" font-family="sans-serif" font-size="20" lengthAdjust="spacing" textLength="185" x="432.5" y="842.9844">: ListVisitRequestUI</text><rect fill="#E3E3E3" height="37.5547" rx="2.5" ry="2.5" style="stroke:#181818;stroke-width:0.5;" width="266" x="901" y="816.6484"/><text fill="#000000" font-family="sans-serif" font-size="20" lengthAdjust="spacing" textLength="252" x="908" y="842.9844">: AnnouncementController</text><rect fill="#E3E3E3" height="37.5547" rx="2.5" ry="2.5" style="stroke:#181818;stroke-width:0.5;" width="139" x="1177" y="50"/><text fill="#000000" font-family="sans-serif" font-size="20" lengthAdjust="spacing" textLength="125" x="1184" y="76.3359">:Repositories</text><rect fill="#E3E3E3" height="37.5547" rx="2.5" ry="2.5" style="stroke:#181818;stroke-width:0.5;" width="139" x="1177" y="816.6484"/><text fill="#000000" font-family="sans-serif" font-size="20" lengthAdjust="spacing" textLength="125" x="1184" y="842.9844">:Repositories</text><rect fill="#E3E3E3" height="61.1094" rx="2.5" ry="2.5" style="stroke:#181818;stroke-width:0.5;" width="134" x="1326" y="26.4453"/><text fill="#000000" font-family="sans-serif" font-size="20" lengthAdjust="spacing" textLength="120" x="1333" y="52.7813">repositories:</text><text fill="#000000" font-family="sans-serif" font-size="20" lengthAdjust="spacing" textLength="119" x="1333.5" y="76.3359">Repositories</text><rect fill="#E3E3E3" height="61.1094" rx="2.5" ry="2.5" style="stroke:#181818;stroke-width:0.5;" width="134" x="1326" y="816.6484"/><text fill="#000000" font-family="sans-serif" font-size="20" lengthAdjust="spacing" textLength="120" x="1333" y="842.9844">repositories:</text><text fill="#000000" font-family="sans-serif" font-size="20" lengthAdjust="spacing" textLength="119" x="1333.5" y="866.5391">Repositories</text><rect fill="#FFFFFF" height="710.0938" style="stroke:#181818;stroke-width:1.0;" width="10" x="31" y="98.5547"/><rect fill="#FFFFFF" height="86.1094" style="stroke:#181818;stroke-width:1.0;" width="10" x="520" y="128.1094"/><rect fill="#FFFFFF" height="37.5547" style="stroke:#181818;stroke-width:1.0;" width="10" x="520" y="251.7734"/><rect fill="#FFFFFF" height="481.7656" style="stroke:#181818;stroke-width:1.0;" width="10" x="520" y="326.8828"/><rect fill="#FFFFFF" height="374.1016" style="stroke:#181818;stroke-width:1.0;" width="10" x="1029" y="364.4375"/><rect fill="#FFFFFF" height="37.5547" style="stroke:#181818;stroke-width:1.0;" width="10" x="1241.5" y="464.1016"/><rect fill="#FFFFFF" height="37.5547" style="stroke:#181818;stroke-width:1.0;" width="10" x="1388" y="539.2109"/><polygon fill="#181818" points="508,124.1094,518,128.1094,508,132.1094,512,128.1094" style="stroke:#181818;stroke-width:1.0;"/><line style="stroke:#181818;stroke-width:1.0;" x1="41" x2="514" y1="128.1094" y2="128.1094"/><text fill="#000000" font-family="sans-serif" font-size="20" font-weight="bold" lengthAdjust="spacing" textLength="13" x="48" y="121.8906">1</text><text fill="#000000" font-family="sans-serif" font-size="20" lengthAdjust="spacing" textLength="443" x="65" y="121.8906">asks to list all booking requests for properties</text><polygon fill="#181818" points="889,161.6641,899,165.6641,889,169.6641,893,165.6641" style="stroke:#181818;stroke-width:1.0;"/><line style="stroke:#181818;stroke-width:1.0;" x1="530" x2="895" y1="165.6641" y2="165.6641"/><text fill="#000000" font-family="sans-serif" font-size="20" font-weight="bold" lengthAdjust="spacing" textLength="13" x="537" y="159.4453">2</text><text fill="#000000" font-family="sans-serif" font-size="20" lengthAdjust="spacing" textLength="72" x="554" y="159.4453">create()</text><rect fill="#E3E3E3" height="37.5547" rx="2.5" ry="2.5" style="stroke:#181818;stroke-width:0.5;" width="266" x="901" y="136.1094"/><text fill="#000000" font-family="sans-serif" font-size="20" lengthAdjust="spacing" textLength="252" x="908" y="162.4453">: AnnouncementController</text><polygon fill="#181818" points="52,210.2188,42,214.2188,52,218.2188,48,214.2188" style="stroke:#181818;stroke-width:1.0;"/><line style="stroke:#181818;stroke-width:1.0;stroke-dasharray:2.0,2.0;" x1="46" x2="524" y1="214.2188" y2="214.2188"/><text fill="#000000" font-family="sans-serif" font-size="20" font-weight="bold" lengthAdjust="spacing" textLength="13" x="58" y="208">3</text><text fill="#000000" font-family="sans-serif" font-size="20" lengthAdjust="spacing" textLength="249" x="75" y="208">requests a beginning date</text><polygon fill="#181818" points="508,247.7734,518,251.7734,508,255.7734,512,251.7734" style="stroke:#181818;stroke-width:1.0;"/><line style="stroke:#181818;stroke-width:1.0;" x1="41" x2="514" y1="251.7734" y2="251.7734"/><text fill="#000000" font-family="sans-serif" font-size="20" font-weight="bold" lengthAdjust="spacing" textLength="13" x="48" y="245.5547">4</text><text fill="#000000" font-family="sans-serif" font-size="20" lengthAdjust="spacing" textLength="222" x="65" y="245.5547">select a beginning date</text><polygon fill="#181818" points="52,285.3281,42,289.3281,52,293.3281,48,289.3281" style="stroke:#181818;stroke-width:1.0;"/><line style="stroke:#181818;stroke-width:1.0;stroke-dasharray:2.0,2.0;" x1="46" x2="524" y1="289.3281" y2="289.3281"/><text fill="#000000" font-family="sans-serif" font-size="20" font-weight="bold" lengthAdjust="spacing" textLength="13" x="58" y="283.1094">5</text><text fill="#000000" font-family="sans-serif" font-size="20" lengthAdjust="spacing" textLength="231" x="75" y="283.1094">requests an ending date</text><polygon fill="#181818" points="508,322.8828,518,326.8828,508,330.8828,512,326.8828" style="stroke:#181818;stroke-width:1.0;"/><line style="stroke:#181818;stroke-width:1.0;" x1="41" x2="514" y1="326.8828" y2="326.8828"/><text fill="#000000" font-family="sans-serif" font-size="20" font-weight="bold" lengthAdjust="spacing" textLength="13" x="48" y="320.6641">6</text><text fill="#000000" font-family="sans-serif" font-size="20" lengthAdjust="spacing" textLength="192" x="65" y="320.6641">select a ending date</text><polygon fill="#181818" points="1017,360.4375,1027,364.4375,1017,368.4375,1021,364.4375" style="stroke:#181818;stroke-width:1.0;"/><line style="stroke:#181818;stroke-width:1.0;" x1="530" x2="1023" y1="364.4375" y2="364.4375"/><text fill="#000000" font-family="sans-serif" font-size="20" font-weight="bold" lengthAdjust="spacing" textLength="13" x="537" y="358.2188">7</text><text fill="#000000" font-family="sans-serif" font-size="20" lengthAdjust="spacing" textLength="463" x="554" y="358.2188">getVisitRequestListForAgent (startDate,endDate)</text><rect fill="none" height="57.1094" style="stroke:#000000;stroke-width:1.5;" width="272" x="898" y="372.4375"/><path d="M898,372.4375 L972,372.4375 L972,387.4375 L962,397.4375 L898,397.4375 L898,372.4375 " fill="#EEEEEE" style="stroke:#000000;stroke-width:2.0;"/><text fill="#000000" font-family="sans-serif" font-size="20" font-weight="bold" lengthAdjust="spacing" textLength="29" x="911" y="393.7734">ref</text><text fill="#000000" font-family="sans-serif" font-size="20" lengthAdjust="spacing" textLength="153" x="957.5" y="420.7734">Get Agent email</text><polygon fill="#181818" points="1229.5,460.1016,1239.5,464.1016,1229.5,468.1016,1233.5,464.1016" style="stroke:#181818;stroke-width:1.0;"/><line style="stroke:#181818;stroke-width:1.0;" x1="1039" x2="1235.5" y1="464.1016" y2="464.1016"/><text fill="#000000" font-family="sans-serif" font-size="20" font-weight="bold" lengthAdjust="spacing" textLength="13" x="1046" y="457.8828">8</text><text fill="#000000" font-family="sans-serif" font-size="20" lengthAdjust="spacing" textLength="123" x="1063" y="457.8828">getInstance()</text><polygon fill="#181818" points="1050,497.6563,1040,501.6563,1050,505.6563,1046,501.6563" style="stroke:#181818;stroke-width:1.0;"/><line style="stroke:#181818;stroke-width:1.0;stroke-dasharray:2.0,2.0;" x1="1044" x2="1245.5" y1="501.6563" y2="501.6563"/><text fill="#000000" font-family="sans-serif" font-size="20" font-weight="bold" lengthAdjust="spacing" textLength="13" x="1056" y="495.4375">9</text><text fill="#000000" font-family="sans-serif" font-size="20" lengthAdjust="spacing" textLength="119" x="1073" y="495.4375">Repositories</text><polygon fill="#181818" points="1376,535.2109,1386,539.2109,1376,543.2109,1380,539.2109" style="stroke:#181818;stroke-width:1.0;"/><line style="stroke:#181818;stroke-width:1.0;" x1="1039" x2="1382" y1="539.2109" y2="539.2109"/><text fill="#000000" font-family="sans-serif" font-size="20" font-weight="bold" lengthAdjust="spacing" textLength="26" x="1046" y="532.9922">10</text><text fill="#000000" font-family="sans-serif" font-size="20" lengthAdjust="spacing" textLength="290" x="1076" y="532.9922">getAnnouncementRepository()</text><polygon fill="#181818" points="1050,572.7656,1040,576.7656,1050,580.7656,1046,576.7656" style="stroke:#181818;stroke-width:1.0;"/><line style="stroke:#181818;stroke-width:1.0;stroke-dasharray:2.0,2.0;" x1="1044" x2="1392" y1="576.7656" y2="576.7656"/><text fill="#000000" font-family="sans-serif" font-size="20" font-weight="bold" lengthAdjust="spacing" textLength="26" x="1056" y="570.5469">11</text><text fill="#000000" font-family="sans-serif" font-size="20" lengthAdjust="spacing" textLength="246" x="1086" y="570.5469">AnnouncementRepository</text><rect fill="none" height="57.1094" style="stroke:#000000;stroke-width:1.5;" width="366" x="898" y="584.7656"/><path d="M898,584.7656 L972,584.7656 L972,599.7656 L962,609.7656 L898,609.7656 L898,584.7656 " fill="#EEEEEE" style="stroke:#000000;stroke-width:2.0;"/><text fill="#000000" font-family="sans-serif" font-size="20" font-weight="bold" lengthAdjust="spacing" textLength="29" x="911" y="606.1016">ref</text><text fill="#000000" font-family="sans-serif" font-size="20" lengthAdjust="spacing" textLength="358" x="902" y="633.1016">Get list of visit Requests for the agent</text><rect fill="none" height="57.1094" style="stroke:#000000;stroke-width:1.5;" width="272" x="898" y="646.875"/><path d="M898,646.875 L972,646.875 L972,661.875 L962,671.875 L898,671.875 L898,646.875 " fill="#EEEEEE" style="stroke:#000000;stroke-width:2.0;"/><text fill="#000000" font-family="sans-serif" font-size="20" font-weight="bold" lengthAdjust="spacing" textLength="29" x="911" y="668.2109">ref</text><text fill="#000000" font-family="sans-serif" font-size="20" lengthAdjust="spacing" textLength="213" x="927.5" y="695.2109">Convert list to listDTO</text><polygon fill="#181818" points="541,734.5391,531,738.5391,541,742.5391,537,738.5391" style="stroke:#181818;stroke-width:1.0;"/><line style="stroke:#181818;stroke-width:1.0;stroke-dasharray:2.0,2.0;" x1="535" x2="1033" y1="738.5391" y2="738.5391"/><text fill="#000000" font-family="sans-serif" font-size="20" font-weight="bold" lengthAdjust="spacing" textLength="26" x="547" y="732.3203">12</text><text fill="#000000" font-family="sans-serif" font-size="20" lengthAdjust="spacing" textLength="188" x="577" y="732.3203">ListOfRequestsDTO</text><polygon fill="#181818" points="52,795.6484,42,799.6484,52,803.6484,48,799.6484" style="stroke:#181818;stroke-width:1.0;"/><line style="stroke:#181818;stroke-width:1.0;stroke-dasharray:2.0,2.0;" x1="46" x2="519" y1="799.6484" y2="799.6484"/><text fill="#000000" font-family="sans-serif" font-size="20" font-weight="bold" lengthAdjust="spacing" textLength="26" x="58" y="781.6523">13</text><text fill="#000000" font-family="sans-serif" font-size="20" lengthAdjust="spacing" textLength="329" x="88" y="769.875">Shows the list of booking requests</text><text fill="#000000" font-family="sans-serif" font-size="20" lengthAdjust="spacing" textLength="155" x="88" y="793.4297">sorted by recent</text><!--SRC=[bLLDZzem4BtdLumumQf8LOyv8ArsknNIIbImzBGNaqo25SUJsWuh-kixDWJCOdPR7o2Adz-RDn-ERQJkX16jegB14agiHA_S4sctadyGldtDx021bZGLMqCjWZCzHZkTA1fHuyhj5OB1mWbTgnXWjwAaDwbhg8Ioc6MYTwJxTeE6dmj71aRtDMet0c51-AUCJpfPo4ve1wCSdgLrlwILRec_UxHkFG_OzVmzy5vhwdM1BPCyi153Ig49u8UNvVCx-F-XbzWHXq16eWsOvVUVYqkCYI3vgxuwmVjP5apBdN1uD1j-OJfZFv0phB7W21Hx1g4KR8WQdprpy6wXuenrXZfaPRHdDax7UZwT-T3lxlB28BySJ_mxvWuY-Pb4m0PhgRLdBXcObJWGPOU8fhFrF0UBYcjw3OzL3n9N2XfGbod-57qClI07NfmOjk2DSO9glEW5tnjFP487mTWwhiSZ7_t2XFv_4WZYTI8FDOR4CbW1xT3SHlZr0nqSLB4LKYLn74IMt0XUs9FleM1fhZbqxiNnv8RWAUpGTacGtu7fELDn_oKFd6lo0UiGAZTlY3IUcfF2_cRS2GTX3DA9x-BuqqgVEVc0_L_B6cQFAjZvFeDbF7XkEupjpNfVgt-kpDSFxn-LZzF_-BB8qWBf4WqtY9-8HJL4dMA9iXKYkXZWrPRURF0vfE7g1dhLbepZRyPcxwzydutJ-Wi0]--></g></svg>