<?xml version="1.0" encoding="UTF-8" standalone="no"?><svg xmlns="http://www.w3.org/2000/svg" xmlns:xlink="http://www.w3.org/1999/xlink" contentStyleType="text/css" height="2192px" preserveAspectRatio="none" style="width:3984px;height:2192px;background:#FFFFFF;" version="1.1" viewBox="0 0 3984 2192" width="3984px" zoomAndPan="magnify"><defs/><g><rect fill="#FFFFFF" height="1996.3984" style="stroke:#181818;stroke-width:1.0;" width="10" x="31" y="98.5547"/><rect fill="#FFFFFF" height="86.1094" style="stroke:#181818;stroke-width:1.0;" width="10" x="520" y="128.1094"/><rect fill="#FFFFFF" height="37.5547" style="stroke:#181818;stroke-width:1.0;" width="10" x="520" y="251.7734"/><rect fill="#FFFFFF" height="1768.0703" style="stroke:#181818;stroke-width:1.0;" width="10" x="520" y="326.8828"/><rect fill="#FFFFFF" height="1660.4063" style="stroke:#181818;stroke-width:1.0;" width="10" x="1029" y="364.4375"/><rect fill="#FFFFFF" height="273.8828" style="stroke:#181818;stroke-width:1.0;" width="10" x="1034" y="409.9922"/><rect fill="#FFFFFF" height="37.5547" style="stroke:#181818;stroke-width:1.0;" width="10" x="1292" y="728.4297"/><rect fill="#FFFFFF" height="37.5547" style="stroke:#181818;stroke-width:1.0;" width="10" x="1438.5" y="803.5391"/><rect fill="#FFFFFF" height="647.9844" style="stroke:#181818;stroke-width:1.0;" width="10" x="1647" y="878.6484"/><rect fill="#FFFFFF" height="37.5547" style="stroke:#181818;stroke-width:1.0;" width="10" x="1982" y="452.5469"/><rect fill="#FFFFFF" height="37.5547" style="stroke:#181818;stroke-width:1.0;" width="10" x="2188" y="527.6563"/><rect fill="#FFFFFF" height="37.5547" style="stroke:#181818;stroke-width:1.0;" width="10" x="2376" y="602.7656"/><rect fill="#FFFFFF" height="320.5469" style="stroke:#181818;stroke-width:1.0;" width="10" x="2590.5" y="1029.4219"/><rect fill="#FFFFFF" height="423.1016" style="stroke:#181818;stroke-width:1.0;" width="10" x="2829.5" y="1564.1875"/><rect fill="#FFFFFF" height="42.5547" style="stroke:#181818;stroke-width:1.0;" width="10" x="2834.5" y="1798.0703"/><rect fill="#FFFFFF" height="129.2188" style="stroke:#181818;stroke-width:1.0;" width="10" x="3069.5" y="1183.1953"/><rect fill="#FFFFFF" height="37.5547" style="stroke:#181818;stroke-width:1.0;" width="10" x="3271.5" y="1066.9766"/><rect fill="#FFFFFF" height="30" style="stroke:#181818;stroke-width:1.0;" width="10" x="3417.5" y="1387.5234"/><rect fill="#FFFFFF" height="37.5547" style="stroke:#181818;stroke-width:1.0;" width="10" x="3417.5" y="1714.9609"/><rect fill="#FFFFFF" height="30" style="stroke:#181818;stroke-width:1.0;" width="10" x="3648.5" y="1912.7344"/><rect fill="none" height="473.7656" style="stroke:#000000;stroke-width:1.5;" width="2061.5" x="1490.5" y="965.7578"/><rect fill="none" height="312.9922" style="stroke:#000000;stroke-width:1.5;" width="2041.5" x="1500.5" y="1119.5313"/><rect fill="none" height="176.7734" style="stroke:#000000;stroke-width:1.5;" width="2021.5" x="1510.5" y="1248.75"/><rect fill="none" height="299.4375" style="stroke:#000000;stroke-width:1.5;" width="1258" x="2720" y="1651.2969"/><line style="stroke:#181818;stroke-width:0.5;stroke-dasharray:5.0,5.0;" x1="36" x2="36" y1="88.5547" y2="2103.9531"/><line style="stroke:#181818;stroke-width:0.5;stroke-dasharray:5.0,5.0;" x1="524.5" x2="524.5" y1="88.5547" y2="2103.9531"/><line style="stroke:#181818;stroke-width:0.5;stroke-dasharray:5.0,5.0;" x1="1034" x2="1034" y1="170.3867" y2="2103.9531"/><line style="stroke:#181818;stroke-width:0.5;stroke-dasharray:5.0,5.0;" x1="1296.5" x2="1296.5" y1="88.5547" y2="2103.9531"/><line style="stroke:#181818;stroke-width:0.5;stroke-dasharray:5.0,5.0;" x1="1443.5" x2="1443.5" y1="88.5547" y2="2103.9531"/><line style="stroke:#181818;stroke-width:0.5;stroke-dasharray:5.0,5.0;" x1="1651.5" x2="1651.5" y1="88.5547" y2="2103.9531"/><line style="stroke:#181818;stroke-width:0.5;stroke-dasharray:5.0,5.0;" x1="1987" x2="1987" y1="88.5547" y2="2103.9531"/><line style="stroke:#181818;stroke-width:0.5;stroke-dasharray:5.0,5.0;" x1="2193" x2="2193" y1="88.5547" y2="2103.9531"/><line style="stroke:#181818;stroke-width:0.5;stroke-dasharray:5.0,5.0;" x1="2381" x2="2381" y1="88.5547" y2="2103.9531"/><line style="stroke:#181818;stroke-width:0.5;stroke-dasharray:5.0,5.0;" x1="2595" x2="2595" y1="88.5547" y2="2103.9531"/><line style="stroke:#181818;stroke-width:0.5;stroke-dasharray:5.0,5.0;" x1="2834" x2="2834" y1="88.5547" y2="2103.9531"/><line style="stroke:#181818;stroke-width:0.5;stroke-dasharray:5.0,5.0;" x1="3074.5" x2="3074.5" y1="88.5547" y2="2103.9531"/><line style="stroke:#181818;stroke-width:0.5;stroke-dasharray:5.0,5.0;" x1="3276" x2="3276" y1="88.5547" y2="2103.9531"/><line style="stroke:#181818;stroke-width:0.5;stroke-dasharray:5.0,5.0;" x1="3422" x2="3422" y1="932.7031" y2="2103.9531"/><line style="stroke:#181818;stroke-width:0.5;stroke-dasharray:5.0,5.0;" x1="3653" x2="3653" y1="1618.2422" y2="2103.9531"/><line style="stroke:#181818;stroke-width:0.5;stroke-dasharray:5.0,5.0;" x1="3876" x2="3876" y1="1857.125" y2="2103.9531"/><text fill="#000000" font-family="sans-serif" font-size="20" lengthAdjust="spacing" textLength="56" x="5" y="84.3359">Agent</text><ellipse cx="36" cy="13.5" fill="#E3E3E3" rx="8" ry="8" style="stroke:#181818;stroke-width:0.5;"/><path d="M36,21.5 L36,48.5 M23,29.5 L49,29.5 M36,48.5 L23,63.5 M36,48.5 L49,63.5 " fill="none" style="stroke:#181818;stroke-width:0.5;"/><text fill="#000000" font-family="sans-serif" font-size="20" lengthAdjust="spacing" textLength="56" x="5" y="2122.2891">Agent</text><ellipse cx="36" cy="2135.0078" fill="#E3E3E3" rx="8" ry="8" style="stroke:#181818;stroke-width:0.5;"/><path d="M36,2143.0078 L36,2170.0078 M23,2151.0078 L49,2151.0078 M36,2170.0078 L23,2185.0078 M36,2170.0078 L49,2185.0078 " fill="none" style="stroke:#181818;stroke-width:0.5;"/><rect fill="#E3E3E3" height="37.5547" rx="2.5" ry="2.5" style="stroke:#181818;stroke-width:0.5;" width="199" x="425.5" y="50"/><text fill="#000000" font-family="sans-serif" font-size="20" lengthAdjust="spacing" textLength="185" x="432.5" y="76.3359">: ListVisitRequestUI</text><rect fill="#E3E3E3" height="37.5547" rx="2.5" ry="2.5" style="stroke:#181818;stroke-width:0.5;" width="199" x="425.5" y="2102.9531"/><text fill="#000000" font-family="sans-serif" font-size="20" lengthAdjust="spacing" textLength="185" x="432.5" y="2129.2891">: ListVisitRequestUI</text><rect fill="#E3E3E3" height="37.5547" rx="2.5" ry="2.5" style="stroke:#181818;stroke-width:0.5;" width="266" x="901" y="2102.9531"/><text fill="#000000" font-family="sans-serif" font-size="20" lengthAdjust="spacing" textLength="252" x="908" y="2129.2891">: AnnouncementController</text><rect fill="#E3E3E3" height="37.5547" rx="2.5" ry="2.5" style="stroke:#181818;stroke-width:0.5;" width="139" x="1227.5" y="50"/><text fill="#000000" font-family="sans-serif" font-size="20" lengthAdjust="spacing" textLength="125" x="1234.5" y="76.3359">:Repositories</text><rect fill="#E3E3E3" height="37.5547" rx="2.5" ry="2.5" style="stroke:#181818;stroke-width:0.5;" width="139" x="1227.5" y="2102.9531"/><text fill="#000000" font-family="sans-serif" font-size="20" lengthAdjust="spacing" textLength="125" x="1234.5" y="2129.2891">:Repositories</text><rect fill="#E3E3E3" height="61.1094" rx="2.5" ry="2.5" style="stroke:#181818;stroke-width:0.5;" width="134" x="1376.5" y="26.4453"/><text fill="#000000" font-family="sans-serif" font-size="20" lengthAdjust="spacing" textLength="120" x="1383.5" y="52.7813">repositories:</text><text fill="#000000" font-family="sans-serif" font-size="20" lengthAdjust="spacing" textLength="119" x="1384" y="76.3359">Repositories</text><rect fill="#E3E3E3" height="61.1094" rx="2.5" ry="2.5" style="stroke:#181818;stroke-width:0.5;" width="134" x="1376.5" y="2102.9531"/><text fill="#000000" font-family="sans-serif" font-size="20" lengthAdjust="spacing" textLength="120" x="1383.5" y="2129.2891">repositories:</text><text fill="#000000" font-family="sans-serif" font-size="20" lengthAdjust="spacing" textLength="119" x="1384" y="2152.8438">Repositories</text><rect fill="#E3E3E3" height="61.1094" rx="2.5" ry="2.5" style="stroke:#181818;stroke-width:0.5;" width="263" x="1520.5" y="26.4453"/><text fill="#000000" font-family="sans-serif" font-size="20" lengthAdjust="spacing" textLength="249" x="1527.5" y="52.7813">announcementRepository:</text><text fill="#000000" font-family="sans-serif" font-size="20" lengthAdjust="spacing" textLength="246" x="1529" y="76.3359">AnnouncementRepository</text><rect fill="#E3E3E3" height="61.1094" rx="2.5" ry="2.5" style="stroke:#181818;stroke-width:0.5;" width="263" x="1520.5" y="2102.9531"/><text fill="#000000" font-family="sans-serif" font-size="20" lengthAdjust="spacing" textLength="249" x="1527.5" y="2129.2891">announcementRepository:</text><text fill="#000000" font-family="sans-serif" font-size="20" lengthAdjust="spacing" textLength="246" x="1529" y="2152.8438">AnnouncementRepository</text><rect fill="#E3E3E3" height="37.5547" rx="2.5" ry="2.5" style="stroke:#181818;stroke-width:0.5;" width="196" x="1889" y="50"/><text fill="#000000" font-family="sans-serif" font-size="20" lengthAdjust="spacing" textLength="182" x="1896" y="76.3359">ApplicationSession</text><rect fill="#E3E3E3" height="37.5547" rx="2.5" ry="2.5" style="stroke:#181818;stroke-width:0.5;" width="196" x="1889" y="2102.9531"/><text fill="#000000" font-family="sans-serif" font-size="20" lengthAdjust="spacing" textLength="182" x="1896" y="2129.2891">ApplicationSession</text><rect fill="#E3E3E3" height="61.1094" rx="2.5" ry="2.5" style="stroke:#181818;stroke-width:0.5;" width="196" x="2095" y="26.4453"/><text fill="#000000" font-family="sans-serif" font-size="20" lengthAdjust="spacing" textLength="115" x="2135.5" y="52.7813">appSession:</text><text fill="#000000" font-family="sans-serif" font-size="20" lengthAdjust="spacing" textLength="182" x="2102" y="76.3359">ApplicationSession</text><rect fill="#E3E3E3" height="61.1094" rx="2.5" ry="2.5" style="stroke:#181818;stroke-width:0.5;" width="196" x="2095" y="2102.9531"/><text fill="#000000" font-family="sans-serif" font-size="20" lengthAdjust="spacing" textLength="115" x="2135.5" y="2129.2891">appSession:</text><text fill="#000000" font-family="sans-serif" font-size="20" lengthAdjust="spacing" textLength="182" x="2102" y="2152.8438">ApplicationSession</text><rect fill="#E3E3E3" height="61.1094" rx="2.5" ry="2.5" style="stroke:#181818;stroke-width:0.5;" width="160" x="2301" y="26.4453"/><text fill="#000000" font-family="sans-serif" font-size="20" lengthAdjust="spacing" textLength="146" x="2308" y="52.7813">currentSession:</text><text fill="#000000" font-family="sans-serif" font-size="20" lengthAdjust="spacing" textLength="115" x="2323.5" y="76.3359">UserSession</text><rect fill="#E3E3E3" height="61.1094" rx="2.5" ry="2.5" style="stroke:#181818;stroke-width:0.5;" width="160" x="2301" y="2102.9531"/><text fill="#000000" font-family="sans-serif" font-size="20" lengthAdjust="spacing" textLength="146" x="2308" y="2129.2891">currentSession:</text><text fill="#000000" font-family="sans-serif" font-size="20" lengthAdjust="spacing" textLength="115" x="2323.5" y="2152.8438">UserSession</text><rect fill="#E3E3E3" height="61.1094" rx="2.5" ry="2.5" style="stroke:#181818;stroke-width:0.5;" width="249" x="2471" y="26.4453"/><text fill="#000000" font-family="sans-serif" font-size="20" lengthAdjust="spacing" textLength="235" x="2478" y="52.7813">announcementAvailable:</text><text fill="#000000" font-family="sans-serif" font-size="20" lengthAdjust="spacing" textLength="232" x="2479.5" y="76.3359">AnnouncementAvailable</text><rect fill="#E3E3E3" height="61.1094" rx="2.5" ry="2.5" style="stroke:#181818;stroke-width:0.5;" width="249" x="2471" y="2102.9531"/><text fill="#000000" font-family="sans-serif" font-size="20" lengthAdjust="spacing" textLength="235" x="2478" y="2129.2891">announcementAvailable:</text><text fill="#000000" font-family="sans-serif" font-size="20" lengthAdjust="spacing" textLength="232" x="2479.5" y="2152.8438">AnnouncementAvailable</text><rect fill="#E3E3E3" height="61.1094" rx="2.5" ry="2.5" style="stroke:#181818;stroke-width:0.5;" width="209" x="2730" y="26.4453"/><text fill="#000000" font-family="sans-serif" font-size="20" lengthAdjust="spacing" textLength="195" x="2737" y="52.7813">visitRequestMapper:</text><text fill="#000000" font-family="sans-serif" font-size="20" lengthAdjust="spacing" textLength="189" x="2740" y="76.3359">visitRequestMapper</text><rect fill="#E3E3E3" height="61.1094" rx="2.5" ry="2.5" style="stroke:#181818;stroke-width:0.5;" width="209" x="2730" y="2102.9531"/><text fill="#000000" font-family="sans-serif" font-size="20" lengthAdjust="spacing" textLength="195" x="2737" y="2129.2891">visitRequestMapper:</text><text fill="#000000" font-family="sans-serif" font-size="20" lengthAdjust="spacing" textLength="189" x="2740" y="2152.8438">visitRequestMapper</text><rect fill="#E3E3E3" height="61.1094" rx="2.5" ry="2.5" style="stroke:#181818;stroke-width:0.5;" width="136" x="3006.5" y="26.4453"/><text fill="#000000" font-family="sans-serif" font-size="20" lengthAdjust="spacing" textLength="122" x="3013.5" y="52.7813">visitRequest:</text><text fill="#000000" font-family="sans-serif" font-size="20" lengthAdjust="spacing" textLength="116" x="3016.5" y="76.3359">visitRequest</text><rect fill="#E3E3E3" height="61.1094" rx="2.5" ry="2.5" style="stroke:#181818;stroke-width:0.5;" width="136" x="3006.5" y="2102.9531"/><text fill="#000000" font-family="sans-serif" font-size="20" lengthAdjust="spacing" textLength="122" x="3013.5" y="2129.2891">visitRequest:</text><text fill="#000000" font-family="sans-serif" font-size="20" lengthAdjust="spacing" textLength="116" x="3016.5" y="2152.8438">visitRequest</text><rect fill="#E3E3E3" height="61.1094" rx="2.5" ry="2.5" style="stroke:#181818;stroke-width:0.5;" width="73" x="3240" y="26.4453"/><text fill="#000000" font-family="sans-serif" font-size="20" lengthAdjust="spacing" textLength="59" x="3247" y="52.7813">agent:</text><text fill="#000000" font-family="sans-serif" font-size="20" lengthAdjust="spacing" textLength="56" x="3248.5" y="76.3359">Agent</text><rect fill="#E3E3E3" height="61.1094" rx="2.5" ry="2.5" style="stroke:#181818;stroke-width:0.5;" width="73" x="3240" y="2102.9531"/><text fill="#000000" font-family="sans-serif" font-size="20" lengthAdjust="spacing" textLength="59" x="3247" y="2129.2891">agent:</text><text fill="#000000" font-family="sans-serif" font-size="20" lengthAdjust="spacing" textLength="56" x="3248.5" y="2152.8438">Agent</text><rect fill="#E3E3E3" height="61.1094" rx="2.5" ry="2.5" style="stroke:#181818;stroke-width:0.5;" width="199" x="3323" y="2102.9531"/><text fill="#000000" font-family="sans-serif" font-size="20" lengthAdjust="spacing" textLength="145" x="3350" y="2129.2891">listOfRequests:</text><text fill="#000000" font-family="sans-serif" font-size="20" lengthAdjust="spacing" textLength="185" x="3330" y="2152.8438">List&lt;VisitRequest&gt;</text><rect fill="#E3E3E3" height="61.1094" rx="2.5" ry="2.5" style="stroke:#181818;stroke-width:0.5;" width="243" x="3532" y="2102.9531"/><text fill="#000000" font-family="sans-serif" font-size="20" lengthAdjust="spacing" textLength="189" x="3559" y="2129.2891">listOfRequestsDTO:</text><text fill="#000000" font-family="sans-serif" font-size="20" lengthAdjust="spacing" textLength="229" x="3539" y="2152.8438">List&lt;VisitRequestDTO&gt;</text><rect fill="#E3E3E3" height="61.1094" rx="2.5" ry="2.5" style="stroke:#181818;stroke-width:0.5;" width="183" x="3785" y="2102.9531"/><text fill="#000000" font-family="sans-serif" font-size="20" lengthAdjust="spacing" textLength="169" x="3792" y="2129.2891">VisitRequestDTO:</text><text fill="#000000" font-family="sans-serif" font-size="20" lengthAdjust="spacing" textLength="163" x="3795" y="2152.8438">VisitRequestDTO</text><rect fill="#FFFFFF" height="1996.3984" style="stroke:#181818;stroke-width:1.0;" width="10" x="31" y="98.5547"/><rect fill="#FFFFFF" height="86.1094" style="stroke:#181818;stroke-width:1.0;" width="10" x="520" y="128.1094"/><rect fill="#FFFFFF" height="37.5547" style="stroke:#181818;stroke-width:1.0;" width="10" x="520" y="251.7734"/><rect fill="#FFFFFF" height="1768.0703" style="stroke:#181818;stroke-width:1.0;" width="10" x="520" y="326.8828"/><rect fill="#FFFFFF" height="1660.4063" style="stroke:#181818;stroke-width:1.0;" width="10" x="1029" y="364.4375"/><rect fill="#FFFFFF" height="273.8828" style="stroke:#181818;stroke-width:1.0;" width="10" x="1034" y="409.9922"/><rect fill="#FFFFFF" height="37.5547" style="stroke:#181818;stroke-width:1.0;" width="10" x="1292" y="728.4297"/><rect fill="#FFFFFF" height="37.5547" style="stroke:#181818;stroke-width:1.0;" width="10" x="1438.5" y="803.5391"/><rect fill="#FFFFFF" height="647.9844" style="stroke:#181818;stroke-width:1.0;" width="10" x="1647" y="878.6484"/><rect fill="#FFFFFF" height="37.5547" style="stroke:#181818;stroke-width:1.0;" width="10" x="1982" y="452.5469"/><rect fill="#FFFFFF" height="37.5547" style="stroke:#181818;stroke-width:1.0;" width="10" x="2188" y="527.6563"/><rect fill="#FFFFFF" height="37.5547" style="stroke:#181818;stroke-width:1.0;" width="10" x="2376" y="602.7656"/><rect fill="#FFFFFF" height="320.5469" style="stroke:#181818;stroke-width:1.0;" width="10" x="2590.5" y="1029.4219"/><rect fill="#FFFFFF" height="423.1016" style="stroke:#181818;stroke-width:1.0;" width="10" x="2829.5" y="1564.1875"/><rect fill="#FFFFFF" height="42.5547" style="stroke:#181818;stroke-width:1.0;" width="10" x="2834.5" y="1798.0703"/><rect fill="#FFFFFF" height="129.2188" style="stroke:#181818;stroke-width:1.0;" width="10" x="3069.5" y="1183.1953"/><rect fill="#FFFFFF" height="37.5547" style="stroke:#181818;stroke-width:1.0;" width="10" x="3271.5" y="1066.9766"/><rect fill="#FFFFFF" height="30" style="stroke:#181818;stroke-width:1.0;" width="10" x="3417.5" y="1387.5234"/><rect fill="#FFFFFF" height="37.5547" style="stroke:#181818;stroke-width:1.0;" width="10" x="3417.5" y="1714.9609"/><rect fill="#FFFFFF" height="30" style="stroke:#181818;stroke-width:1.0;" width="10" x="3648.5" y="1912.7344"/><polygon fill="#181818" points="508,124.1094,518,128.1094,508,132.1094,512,128.1094" style="stroke:#181818;stroke-width:1.0;"/><line style="stroke:#181818;stroke-width:1.0;" x1="41" x2="514" y1="128.1094" y2="128.1094"/><text fill="#000000" font-family="sans-serif" font-size="20" font-weight="bold" lengthAdjust="spacing" textLength="13" x="48" y="121.8906">1</text><text fill="#000000" font-family="sans-serif" font-size="20" lengthAdjust="spacing" textLength="443" x="65" y="121.8906">asks to list all booking requests for properties</text><polygon fill="#181818" points="889,161.6641,899,165.6641,889,169.6641,893,165.6641" style="stroke:#181818;stroke-width:1.0;"/><line style="stroke:#181818;stroke-width:1.0;" x1="530" x2="895" y1="165.6641" y2="165.6641"/><text fill="#000000" font-family="sans-serif" font-size="20" font-weight="bold" lengthAdjust="spacing" textLength="13" x="537" y="159.4453">2</text><text fill="#000000" font-family="sans-serif" font-size="20" lengthAdjust="spacing" textLength="72" x="554" y="159.4453">create()</text><rect fill="#E3E3E3" height="37.5547" rx="2.5" ry="2.5" style="stroke:#181818;stroke-width:0.5;" width="266" x="901" y="136.1094"/><text fill="#000000" font-family="sans-serif" font-size="20" lengthAdjust="spacing" textLength="252" x="908" y="162.4453">: AnnouncementController</text><polygon fill="#181818" points="52,210.2188,42,214.2188,52,218.2188,48,214.2188" style="stroke:#181818;stroke-width:1.0;"/><line style="stroke:#181818;stroke-width:1.0;stroke-dasharray:2.0,2.0;" x1="46" x2="524" y1="214.2188" y2="214.2188"/><text fill="#000000" font-family="sans-serif" font-size="20" font-weight="bold" lengthAdjust="spacing" textLength="13" x="58" y="208">3</text><text fill="#000000" font-family="sans-serif" font-size="20" lengthAdjust="spacing" textLength="249" x="75" y="208">requests a beginning date</text><polygon fill="#181818" points="508,247.7734,518,251.7734,508,255.7734,512,251.7734" style="stroke:#181818;stroke-width:1.0;"/><line style="stroke:#181818;stroke-width:1.0;" x1="41" x2="514" y1="251.7734" y2="251.7734"/><text fill="#000000" font-family="sans-serif" font-size="20" font-weight="bold" lengthAdjust="spacing" textLength="13" x="48" y="245.5547">4</text><text fill="#000000" font-family="sans-serif" font-size="20" lengthAdjust="spacing" textLength="222" x="65" y="245.5547">select a beginning date</text><polygon fill="#181818" points="52,285.3281,42,289.3281,52,293.3281,48,289.3281" style="stroke:#181818;stroke-width:1.0;"/><line style="stroke:#181818;stroke-width:1.0;stroke-dasharray:2.0,2.0;" x1="46" x2="524" y1="289.3281" y2="289.3281"/><text fill="#000000" font-family="sans-serif" font-size="20" font-weight="bold" lengthAdjust="spacing" textLength="13" x="58" y="283.1094">5</text><text fill="#000000" font-family="sans-serif" font-size="20" lengthAdjust="spacing" textLength="231" x="75" y="283.1094">requests an ending date</text><polygon fill="#181818" points="508,322.8828,518,326.8828,508,330.8828,512,326.8828" style="stroke:#181818;stroke-width:1.0;"/><line style="stroke:#181818;stroke-width:1.0;" x1="41" x2="514" y1="326.8828" y2="326.8828"/><text fill="#000000" font-family="sans-serif" font-size="20" font-weight="bold" lengthAdjust="spacing" textLength="13" x="48" y="320.6641">6</text><text fill="#000000" font-family="sans-serif" font-size="20" lengthAdjust="spacing" textLength="192" x="65" y="320.6641">select a ending date</text><polygon fill="#181818" points="1017,360.4375,1027,364.4375,1017,368.4375,1021,364.4375" style="stroke:#181818;stroke-width:1.0;"/><line style="stroke:#181818;stroke-width:1.0;" x1="530" x2="1023" y1="364.4375" y2="364.4375"/><text fill="#000000" font-family="sans-serif" font-size="20" font-weight="bold" lengthAdjust="spacing" textLength="13" x="537" y="358.2188">7</text><text fill="#000000" font-family="sans-serif" font-size="20" lengthAdjust="spacing" textLength="463" x="554" y="358.2188">getVisitRequestListForAgent (startDate,endDate)</text><line style="stroke:#181818;stroke-width:1.0;" x1="1039" x2="1086" y1="396.9922" y2="396.9922"/><line style="stroke:#181818;stroke-width:1.0;" x1="1086" x2="1086" y1="396.9922" y2="409.9922"/><line style="stroke:#181818;stroke-width:1.0;" x1="1045" x2="1086" y1="409.9922" y2="409.9922"/><polygon fill="#181818" points="1055,405.9922,1045,409.9922,1055,413.9922,1051,409.9922" style="stroke:#181818;stroke-width:1.0;"/><text fill="#000000" font-family="sans-serif" font-size="20" font-weight="bold" lengthAdjust="spacing" textLength="13" x="1051" y="390.7734">8</text><text fill="#000000" font-family="sans-serif" font-size="20" lengthAdjust="spacing" textLength="222" x="1068" y="390.7734">getClientFromSession()</text><polygon fill="#181818" points="1970,448.5469,1980,452.5469,1970,456.5469,1974,452.5469" style="stroke:#181818;stroke-width:1.0;"/><line style="stroke:#181818;stroke-width:1.0;" x1="1044" x2="1976" y1="452.5469" y2="452.5469"/><text fill="#000000" font-family="sans-serif" font-size="20" font-weight="bold" lengthAdjust="spacing" textLength="13" x="1051" y="446.3281">9</text><text fill="#000000" font-family="sans-serif" font-size="20" lengthAdjust="spacing" textLength="123" x="1068" y="446.3281">getInstance()</text><polygon fill="#181818" points="1055,486.1016,1045,490.1016,1055,494.1016,1051,490.1016" style="stroke:#181818;stroke-width:1.0;"/><line style="stroke:#181818;stroke-width:1.0;stroke-dasharray:2.0,2.0;" x1="1049" x2="1986" y1="490.1016" y2="490.1016"/><text fill="#000000" font-family="sans-serif" font-size="20" font-weight="bold" lengthAdjust="spacing" textLength="26" x="1061" y="483.8828">10</text><text fill="#000000" font-family="sans-serif" font-size="20" lengthAdjust="spacing" textLength="109" x="1091" y="483.8828">appSession</text><polygon fill="#181818" points="2176,523.6563,2186,527.6563,2176,531.6563,2180,527.6563" style="stroke:#181818;stroke-width:1.0;"/><line style="stroke:#181818;stroke-width:1.0;" x1="1044" x2="2182" y1="527.6563" y2="527.6563"/><text fill="#000000" font-family="sans-serif" font-size="20" font-weight="bold" lengthAdjust="spacing" textLength="26" x="1051" y="521.4375">11</text><text fill="#000000" font-family="sans-serif" font-size="20" lengthAdjust="spacing" textLength="188" x="1081" y="521.4375">getCurrentSession()</text><polygon fill="#181818" points="1055,561.2109,1045,565.2109,1055,569.2109,1051,565.2109" style="stroke:#181818;stroke-width:1.0;"/><line style="stroke:#181818;stroke-width:1.0;stroke-dasharray:2.0,2.0;" x1="1049" x2="2192" y1="565.2109" y2="565.2109"/><text fill="#000000" font-family="sans-serif" font-size="20" font-weight="bold" lengthAdjust="spacing" textLength="26" x="1061" y="558.9922">12</text><text fill="#000000" font-family="sans-serif" font-size="20" lengthAdjust="spacing" textLength="140" x="1091" y="558.9922">currentSession</text><polygon fill="#181818" points="2364,598.7656,2374,602.7656,2364,606.7656,2368,602.7656" style="stroke:#181818;stroke-width:1.0;"/><line style="stroke:#181818;stroke-width:1.0;" x1="1044" x2="2370" y1="602.7656" y2="602.7656"/><text fill="#000000" font-family="sans-serif" font-size="20" font-weight="bold" lengthAdjust="spacing" textLength="26" x="1051" y="596.5469">13</text><text fill="#000000" font-family="sans-serif" font-size="20" lengthAdjust="spacing" textLength="153" x="1081" y="596.5469">getClientEmail()</text><polygon fill="#181818" points="1055,636.3203,1045,640.3203,1055,644.3203,1051,640.3203" style="stroke:#181818;stroke-width:1.0;"/><line style="stroke:#181818;stroke-width:1.0;stroke-dasharray:2.0,2.0;" x1="1049" x2="2380" y1="640.3203" y2="640.3203"/><text fill="#000000" font-family="sans-serif" font-size="20" font-weight="bold" lengthAdjust="spacing" textLength="26" x="1061" y="634.1016">14</text><text fill="#000000" font-family="sans-serif" font-size="20" lengthAdjust="spacing" textLength="53" x="1091" y="634.1016">email</text><line style="stroke:#181818;stroke-width:1.0;" x1="1044" x2="1086" y1="682.875" y2="682.875"/><line style="stroke:#181818;stroke-width:1.0;" x1="1086" x2="1086" y1="682.875" y2="695.875"/><line style="stroke:#181818;stroke-width:1.0;" x1="1039" x2="1086" y1="695.875" y2="695.875"/><polygon fill="#181818" points="1049,691.875,1039,695.875,1049,699.875,1045,695.875" style="stroke:#181818;stroke-width:1.0;"/><text fill="#000000" font-family="sans-serif" font-size="20" font-weight="bold" lengthAdjust="spacing" textLength="26" x="1051" y="676.6563">15</text><text fill="#000000" font-family="sans-serif" font-size="20" lengthAdjust="spacing" textLength="53" x="1081" y="676.6563">email</text><polygon fill="#181818" points="1280,724.4297,1290,728.4297,1280,732.4297,1284,728.4297" style="stroke:#181818;stroke-width:1.0;"/><line style="stroke:#181818;stroke-width:1.0;" x1="1039" x2="1286" y1="728.4297" y2="728.4297"/><text fill="#000000" font-family="sans-serif" font-size="20" font-weight="bold" lengthAdjust="spacing" textLength="26" x="1046" y="722.2109">16</text><text fill="#000000" font-family="sans-serif" font-size="20" lengthAdjust="spacing" textLength="123" x="1076" y="722.2109">getInstance()</text><polygon fill="#181818" points="1050,761.9844,1040,765.9844,1050,769.9844,1046,765.9844" style="stroke:#181818;stroke-width:1.0;"/><line style="stroke:#181818;stroke-width:1.0;stroke-dasharray:2.0,2.0;" x1="1044" x2="1296" y1="765.9844" y2="765.9844"/><text fill="#000000" font-family="sans-serif" font-size="20" font-weight="bold" lengthAdjust="spacing" textLength="26" x="1056" y="759.7656">17</text><text fill="#000000" font-family="sans-serif" font-size="20" lengthAdjust="spacing" textLength="119" x="1086" y="759.7656">Repositories</text><polygon fill="#181818" points="1426.5,799.5391,1436.5,803.5391,1426.5,807.5391,1430.5,803.5391" style="stroke:#181818;stroke-width:1.0;"/><line style="stroke:#181818;stroke-width:1.0;" x1="1039" x2="1432.5" y1="803.5391" y2="803.5391"/><text fill="#000000" font-family="sans-serif" font-size="20" font-weight="bold" lengthAdjust="spacing" textLength="26" x="1046" y="797.3203">18</text><text fill="#000000" font-family="sans-serif" font-size="20" lengthAdjust="spacing" textLength="290" x="1076" y="797.3203">getAnnouncementRepository()</text><polygon fill="#181818" points="1050,837.0938,1040,841.0938,1050,845.0938,1046,841.0938" style="stroke:#181818;stroke-width:1.0;"/><line style="stroke:#181818;stroke-width:1.0;stroke-dasharray:2.0,2.0;" x1="1044" x2="1442.5" y1="841.0938" y2="841.0938"/><text fill="#000000" font-family="sans-serif" font-size="20" font-weight="bold" lengthAdjust="spacing" textLength="26" x="1056" y="834.875">19</text><text fill="#000000" font-family="sans-serif" font-size="20" lengthAdjust="spacing" textLength="246" x="1086" y="834.875">AnnouncementRepository</text><polygon fill="#181818" points="1635,874.6484,1645,878.6484,1635,882.6484,1639,878.6484" style="stroke:#181818;stroke-width:1.0;"/><line style="stroke:#181818;stroke-width:1.0;" x1="1039" x2="1641" y1="878.6484" y2="878.6484"/><text fill="#000000" font-family="sans-serif" font-size="20" font-weight="bold" lengthAdjust="spacing" textLength="26" x="1046" y="872.4297">20</text><text fill="#000000" font-family="sans-serif" font-size="20" lengthAdjust="spacing" textLength="522" x="1076" y="872.4297">getVisitRequestListForAgent (email,startDate,endDate)</text><polygon fill="#181818" points="3311,912.2031,3321,916.2031,3311,920.2031,3315,916.2031" style="stroke:#181818;stroke-width:1.0;"/><line style="stroke:#181818;stroke-width:1.0;" x1="1657" x2="3317" y1="916.2031" y2="916.2031"/><text fill="#000000" font-family="sans-serif" font-size="20" font-weight="bold" lengthAdjust="spacing" textLength="26" x="1664" y="909.9844">21</text><text fill="#000000" font-family="sans-serif" font-size="20" lengthAdjust="spacing" textLength="72" x="1694" y="909.9844">create()</text><rect fill="#E3E3E3" height="61.1094" rx="2.5" ry="2.5" style="stroke:#181818;stroke-width:0.5;" width="199" x="3323" y="886.6484"/><text fill="#000000" font-family="sans-serif" font-size="20" lengthAdjust="spacing" textLength="145" x="3350" y="912.9844">listOfRequests:</text><text fill="#000000" font-family="sans-serif" font-size="20" lengthAdjust="spacing" textLength="185" x="3330" y="936.5391">List&lt;VisitRequest&gt;</text><path d="M1490.5,965.7578 L1581.5,965.7578 L1581.5,981.3125 L1571.5,991.3125 L1490.5,991.3125 L1490.5,965.7578 " fill="#EEEEEE" style="stroke:#000000;stroke-width:1.5;"/><rect fill="none" height="473.7656" style="stroke:#000000;stroke-width:1.5;" width="2061.5" x="1490.5" y="965.7578"/><text fill="#000000" font-family="sans-serif" font-size="20" font-weight="bold" lengthAdjust="spacing" textLength="46" x="1505.5" y="986.0938">loop</text><text fill="#000000" font-family="sans-serif" font-size="20" font-weight="bold" lengthAdjust="spacing" textLength="351" x="1596.5" y="987.0938">[foreach AnnouncementAvailable]</text><polygon fill="#181818" points="2578.5,1025.4219,2588.5,1029.4219,2578.5,1033.4219,2582.5,1029.4219" style="stroke:#181818;stroke-width:1.0;"/><line style="stroke:#181818;stroke-width:1.0;" x1="1657" x2="2584.5" y1="1029.4219" y2="1029.4219"/><text fill="#000000" font-family="sans-serif" font-size="20" font-weight="bold" lengthAdjust="spacing" textLength="26" x="1664" y="1023.2031">22</text><text fill="#000000" font-family="sans-serif" font-size="20" lengthAdjust="spacing" textLength="488" x="1694" y="1023.2031">getVisitRequestForAgent (email,startDate,endDate)</text><polygon fill="#181818" points="3259.5,1062.9766,3269.5,1066.9766,3259.5,1070.9766,3263.5,1066.9766" style="stroke:#181818;stroke-width:1.0;"/><line style="stroke:#181818;stroke-width:1.0;" x1="2600.5" x2="3265.5" y1="1066.9766" y2="1066.9766"/><text fill="#000000" font-family="sans-serif" font-size="20" font-weight="bold" lengthAdjust="spacing" textLength="26" x="2607.5" y="1060.7578">23</text><text fill="#000000" font-family="sans-serif" font-size="20" lengthAdjust="spacing" textLength="139" x="2637.5" y="1060.7578">isAgent(email)</text><polygon fill="#181818" points="2611.5,1100.5313,2601.5,1104.5313,2611.5,1108.5313,2607.5,1104.5313" style="stroke:#181818;stroke-width:1.0;"/><line style="stroke:#181818;stroke-width:1.0;stroke-dasharray:2.0,2.0;" x1="2605.5" x2="3275.5" y1="1104.5313" y2="1104.5313"/><text fill="#000000" font-family="sans-serif" font-size="20" font-weight="bold" lengthAdjust="spacing" textLength="26" x="2617.5" y="1098.3125">24</text><text fill="#000000" font-family="sans-serif" font-size="20" lengthAdjust="spacing" textLength="93" x="2647.5" y="1098.3125">true/false</text><path d="M1500.5,1119.5313 L1572.5,1119.5313 L1572.5,1135.0859 L1562.5,1145.0859 L1500.5,1145.0859 L1500.5,1119.5313 " fill="#EEEEEE" style="stroke:#000000;stroke-width:1.5;"/><rect fill="none" height="312.9922" style="stroke:#000000;stroke-width:1.5;" width="2041.5" x="1500.5" y="1119.5313"/><text fill="#000000" font-family="sans-serif" font-size="20" font-weight="bold" lengthAdjust="spacing" textLength="27" x="1515.5" y="1139.8672">alt</text><text fill="#000000" font-family="sans-serif" font-size="20" font-weight="bold" lengthAdjust="spacing" textLength="362" x="1587.5" y="1140.8672">[isResponsibleAgent(email) = true]</text><polygon fill="#181818" points="3057.5,1179.1953,3067.5,1183.1953,3057.5,1187.1953,3061.5,1183.1953" style="stroke:#181818;stroke-width:1.0;"/><line style="stroke:#181818;stroke-width:1.0;" x1="2600.5" x2="3063.5" y1="1183.1953" y2="1183.1953"/><text fill="#000000" font-family="sans-serif" font-size="20" font-weight="bold" lengthAdjust="spacing" textLength="26" x="2607.5" y="1176.9766">25</text><text fill="#000000" font-family="sans-serif" font-size="20" lengthAdjust="spacing" textLength="326" x="2637.5" y="1176.9766">isDateBetween(startDate,endDate)</text><line style="stroke:#181818;stroke-width:1.0;" x1="3079.5" x2="3121.5" y1="1220.75" y2="1220.75"/><line style="stroke:#181818;stroke-width:1.0;" x1="3121.5" x2="3121.5" y1="1220.75" y2="1233.75"/><line style="stroke:#181818;stroke-width:1.0;" x1="3080.5" x2="3121.5" y1="1233.75" y2="1233.75"/><polygon fill="#181818" points="3090.5,1229.75,3080.5,1233.75,3090.5,1237.75,3086.5,1233.75" style="stroke:#181818;stroke-width:1.0;"/><text fill="#000000" font-family="sans-serif" font-size="20" font-weight="bold" lengthAdjust="spacing" textLength="26" x="3086.5" y="1214.5313">26</text><text fill="#000000" font-family="sans-serif" font-size="20" lengthAdjust="spacing" textLength="148" x="3116.5" y="1214.5313">isStateWaiting()</text><path d="M1510.5,1248.75 L1582.5,1248.75 L1582.5,1264.3047 L1572.5,1274.3047 L1510.5,1274.3047 L1510.5,1248.75 " fill="#EEEEEE" style="stroke:#000000;stroke-width:1.5;"/><rect fill="none" height="176.7734" style="stroke:#000000;stroke-width:1.5;" width="2021.5" x="1510.5" y="1248.75"/><text fill="#000000" font-family="sans-serif" font-size="20" font-weight="bold" lengthAdjust="spacing" textLength="27" x="1525.5" y="1269.0859">alt</text><text fill="#000000" font-family="sans-serif" font-size="20" font-weight="bold" lengthAdjust="spacing" textLength="711" x="1597.5" y="1270.0859">[isDateBetween(startDate,endDate) = true and isStateWaiting = true]</text><polygon fill="#181818" points="2611.5,1308.4141,2601.5,1312.4141,2611.5,1316.4141,2607.5,1312.4141" style="stroke:#181818;stroke-width:1.0;"/><line style="stroke:#181818;stroke-width:1.0;stroke-dasharray:2.0,2.0;" x1="2605.5" x2="3073.5" y1="1312.4141" y2="1312.4141"/><text fill="#000000" font-family="sans-serif" font-size="20" font-weight="bold" lengthAdjust="spacing" textLength="26" x="2617.5" y="1306.1953">27</text><text fill="#000000" font-family="sans-serif" font-size="20" lengthAdjust="spacing" textLength="116" x="2647.5" y="1306.1953">visitRequest</text><polygon fill="#181818" points="1668,1345.9688,1658,1349.9688,1668,1353.9688,1664,1349.9688" style="stroke:#181818;stroke-width:1.0;"/><line style="stroke:#181818;stroke-width:1.0;stroke-dasharray:2.0,2.0;" x1="1662" x2="2594.5" y1="1349.9688" y2="1349.9688"/><text fill="#000000" font-family="sans-serif" font-size="20" font-weight="bold" lengthAdjust="spacing" textLength="26" x="1674" y="1343.75">28</text><text fill="#000000" font-family="sans-serif" font-size="20" lengthAdjust="spacing" textLength="116" x="1704" y="1343.75">visitRequest</text><polygon fill="#181818" points="3405.5,1383.5234,3415.5,1387.5234,3405.5,1391.5234,3409.5,1387.5234" style="stroke:#181818;stroke-width:1.0;"/><line style="stroke:#181818;stroke-width:1.0;" x1="1657" x2="3411.5" y1="1387.5234" y2="1387.5234"/><text fill="#000000" font-family="sans-serif" font-size="20" font-weight="bold" lengthAdjust="spacing" textLength="26" x="1664" y="1381.3047">29</text><text fill="#000000" font-family="sans-serif" font-size="20" lengthAdjust="spacing" textLength="170" x="1694" y="1381.3047">addVisitRequest()</text><line style="stroke:#181818;stroke-width:1.0;" x1="1657" x2="1699" y1="1476.0781" y2="1476.0781"/><line style="stroke:#181818;stroke-width:1.0;" x1="1699" x2="1699" y1="1476.0781" y2="1489.0781"/><line style="stroke:#181818;stroke-width:1.0;" x1="1658" x2="1699" y1="1489.0781" y2="1489.0781"/><polygon fill="#181818" points="1668,1485.0781,1658,1489.0781,1668,1493.0781,1664,1489.0781" style="stroke:#181818;stroke-width:1.0;"/><text fill="#000000" font-family="sans-serif" font-size="20" font-weight="bold" lengthAdjust="spacing" textLength="26" x="1664" y="1469.8594">30</text><text fill="#000000" font-family="sans-serif" font-size="20" lengthAdjust="spacing" textLength="281" x="1694" y="1469.8594">sortByRecent(ListOfRequests)</text><polygon fill="#181818" points="1050,1522.6328,1040,1526.6328,1050,1530.6328,1046,1526.6328" style="stroke:#181818;stroke-width:1.0;"/><line style="stroke:#181818;stroke-width:1.0;stroke-dasharray:2.0,2.0;" x1="1044" x2="1651" y1="1526.6328" y2="1526.6328"/><text fill="#000000" font-family="sans-serif" font-size="20" font-weight="bold" lengthAdjust="spacing" textLength="26" x="1056" y="1520.4141">31</text><text fill="#000000" font-family="sans-serif" font-size="20" lengthAdjust="spacing" textLength="144" x="1086" y="1520.4141">ListOfRequests</text><polygon fill="#181818" points="2817.5,1560.1875,2827.5,1564.1875,2817.5,1568.1875,2821.5,1564.1875" style="stroke:#181818;stroke-width:1.0;"/><line style="stroke:#181818;stroke-width:1.0;" x1="1039" x2="2823.5" y1="1564.1875" y2="1564.1875"/><text fill="#000000" font-family="sans-serif" font-size="20" font-weight="bold" lengthAdjust="spacing" textLength="26" x="1046" y="1557.9688">32</text><text fill="#000000" font-family="sans-serif" font-size="20" lengthAdjust="spacing" textLength="211" x="1076" y="1557.9688">toDto(ListOfRequests)</text><polygon fill="#181818" points="3520,1597.7422,3530,1601.7422,3520,1605.7422,3524,1601.7422" style="stroke:#181818;stroke-width:1.0;"/><line style="stroke:#181818;stroke-width:1.0;" x1="2839.5" x2="3526" y1="1601.7422" y2="1601.7422"/><text fill="#000000" font-family="sans-serif" font-size="20" font-weight="bold" lengthAdjust="spacing" textLength="26" x="2846.5" y="1595.5234">33</text><text fill="#000000" font-family="sans-serif" font-size="20" lengthAdjust="spacing" textLength="102" x="2876.5" y="1595.5234">createDTO</text><rect fill="#E3E3E3" height="61.1094" rx="2.5" ry="2.5" style="stroke:#181818;stroke-width:0.5;" width="243" x="3532" y="1572.1875"/><text fill="#000000" font-family="sans-serif" font-size="20" lengthAdjust="spacing" textLength="189" x="3559" y="1598.5234">listOfRequestsDTO:</text><text fill="#000000" font-family="sans-serif" font-size="20" lengthAdjust="spacing" textLength="229" x="3539" y="1622.0781">List&lt;VisitRequestDTO&gt;</text><path d="M2720,1651.2969 L2811,1651.2969 L2811,1666.8516 L2801,1676.8516 L2720,1676.8516 L2720,1651.2969 " fill="#EEEEEE" style="stroke:#000000;stroke-width:1.5;"/><rect fill="none" height="299.4375" style="stroke:#000000;stroke-width:1.5;" width="1258" x="2720" y="1651.2969"/><text fill="#000000" font-family="sans-serif" font-size="20" font-weight="bold" lengthAdjust="spacing" textLength="46" x="2735" y="1671.6328">loop</text><text fill="#000000" font-family="sans-serif" font-size="20" font-weight="bold" lengthAdjust="spacing" textLength="276" x="2826" y="1672.6328">[foreach object of the List]</text><polygon fill="#181818" points="3405.5,1710.9609,3415.5,1714.9609,3405.5,1718.9609,3409.5,1714.9609" style="stroke:#181818;stroke-width:1.0;"/><line style="stroke:#181818;stroke-width:1.0;" x1="2839.5" x2="3411.5" y1="1714.9609" y2="1714.9609"/><text fill="#000000" font-family="sans-serif" font-size="20" font-weight="bold" lengthAdjust="spacing" textLength="26" x="2846.5" y="1708.7422">34</text><text fill="#000000" font-family="sans-serif" font-size="20" lengthAdjust="spacing" textLength="50" x="2876.5" y="1708.7422">get(i)</text><polygon fill="#181818" points="2850.5,1748.5156,2840.5,1752.5156,2850.5,1756.5156,2846.5,1752.5156" style="stroke:#181818;stroke-width:1.0;"/><line style="stroke:#181818;stroke-width:1.0;stroke-dasharray:2.0,2.0;" x1="2844.5" x2="3421.5" y1="1752.5156" y2="1752.5156"/><text fill="#000000" font-family="sans-serif" font-size="20" font-weight="bold" lengthAdjust="spacing" textLength="26" x="2856.5" y="1746.2969">35</text><text fill="#000000" font-family="sans-serif" font-size="20" lengthAdjust="spacing" textLength="119" x="2886.5" y="1746.2969">VisitRequest</text><line style="stroke:#181818;stroke-width:1.0;" x1="2839.5" x2="2886.5" y1="1785.0703" y2="1785.0703"/><line style="stroke:#181818;stroke-width:1.0;" x1="2886.5" x2="2886.5" y1="1785.0703" y2="1798.0703"/><line style="stroke:#181818;stroke-width:1.0;" x1="2845.5" x2="2886.5" y1="1798.0703" y2="1798.0703"/><polygon fill="#181818" points="2855.5,1794.0703,2845.5,1798.0703,2855.5,1802.0703,2851.5,1798.0703" style="stroke:#181818;stroke-width:1.0;"/><text fill="#000000" font-family="sans-serif" font-size="20" font-weight="bold" lengthAdjust="spacing" textLength="26" x="2851.5" y="1778.8516">36</text><text fill="#000000" font-family="sans-serif" font-size="20" lengthAdjust="spacing" textLength="186" x="2881.5" y="1778.8516">toDto(VisitRequest)</text><polygon fill="#181818" points="3773,1836.625,3783,1840.625,3773,1844.625,3777,1840.625" style="stroke:#181818;stroke-width:1.0;"/><line style="stroke:#181818;stroke-width:1.0;" x1="2839.5" x2="3779" y1="1840.625" y2="1840.625"/><text fill="#000000" font-family="sans-serif" font-size="20" font-weight="bold" lengthAdjust="spacing" textLength="26" x="2846.5" y="1834.4063">37</text><text fill="#000000" font-family="sans-serif" font-size="20" lengthAdjust="spacing" textLength="191" x="2876.5" y="1834.4063">create(VisitRequest)</text><rect fill="#E3E3E3" height="61.1094" rx="2.5" ry="2.5" style="stroke:#181818;stroke-width:0.5;" width="183" x="3785" y="1811.0703"/><text fill="#000000" font-family="sans-serif" font-size="20" lengthAdjust="spacing" textLength="169" x="3792" y="1837.4063">VisitRequestDTO:</text><text fill="#000000" font-family="sans-serif" font-size="20" lengthAdjust="spacing" textLength="163" x="3795" y="1860.9609">VisitRequestDTO</text><polygon fill="#181818" points="3636.5,1908.7344,3646.5,1912.7344,3636.5,1916.7344,3640.5,1912.7344" style="stroke:#181818;stroke-width:1.0;"/><line style="stroke:#181818;stroke-width:1.0;stroke-dasharray:2.0,2.0;" x1="2839.5" x2="3642.5" y1="1912.7344" y2="1912.7344"/><text fill="#000000" font-family="sans-serif" font-size="20" font-weight="bold" lengthAdjust="spacing" textLength="26" x="2846.5" y="1906.5156">38</text><text fill="#000000" font-family="sans-serif" font-size="20" lengthAdjust="spacing" textLength="214" x="2876.5" y="1906.5156">add(VisitRequestDTO)</text><polygon fill="#181818" points="1050,1983.2891,1040,1987.2891,1050,1991.2891,1046,1987.2891" style="stroke:#181818;stroke-width:1.0;"/><line style="stroke:#181818;stroke-width:1.0;stroke-dasharray:2.0,2.0;" x1="1044" x2="2833.5" y1="1987.2891" y2="1987.2891"/><text fill="#000000" font-family="sans-serif" font-size="20" font-weight="bold" lengthAdjust="spacing" textLength="26" x="1056" y="1981.0703">39</text><text fill="#000000" font-family="sans-serif" font-size="20" lengthAdjust="spacing" textLength="188" x="1086" y="1981.0703">ListOfRequestsDTO</text><polygon fill="#181818" points="541,2020.8438,531,2024.8438,541,2028.8438,537,2024.8438" style="stroke:#181818;stroke-width:1.0;"/><line style="stroke:#181818;stroke-width:1.0;stroke-dasharray:2.0,2.0;" x1="535" x2="1033" y1="2024.8438" y2="2024.8438"/><text fill="#000000" font-family="sans-serif" font-size="20" font-weight="bold" lengthAdjust="spacing" textLength="26" x="547" y="2018.625">40</text><text fill="#000000" font-family="sans-serif" font-size="20" lengthAdjust="spacing" textLength="188" x="577" y="2018.625">ListOfRequestsDTO</text><polygon fill="#181818" points="52,2081.9531,42,2085.9531,52,2089.9531,48,2085.9531" style="stroke:#181818;stroke-width:1.0;"/><line style="stroke:#181818;stroke-width:1.0;stroke-dasharray:2.0,2.0;" x1="46" x2="519" y1="2085.9531" y2="2085.9531"/><text fill="#000000" font-family="sans-serif" font-size="20" font-weight="bold" lengthAdjust="spacing" textLength="26" x="58" y="2067.957">41</text><text fill="#000000" font-family="sans-serif" font-size="20" lengthAdjust="spacing" textLength="329" x="88" y="2056.1797">Shows the list of booking requests</text><text fill="#000000" font-family="sans-serif" font-size="20" lengthAdjust="spacing" textLength="155" x="88" y="2079.7344">sorted by recent</text><!--SRC=[jLXBR-Cs4BxhLn0vsOirMlHej0QyoGOma2A5lTvUza9BjArQ9bMIJf3- -iwGUf2IR95PH8T4fcQ-UG-7LAUSbrJISo7I4yj8nlRqKkX7mVKc_u-HttvDL4r2peABz2Z5cH4jBypvKjBqH0ziezyAHYHBDUM7mYLGHvg9rvmVo9uMYYK9lMZ1B-STa_2UQY79tVB0kBuZL16ARmbmwZpDIyerkPkJfrpfxxdAzPhzUs5ARrU6Thlg4Yuv5nUUiZE0t8CXKXG5auRu_jlwgKCUHxrcfG0LXCoPCZJhhtyz-pJI8Pd_u3qE-EupK4U3XleDM9U37mn8zvEFk2pB8a-fpWNVCANWdtLhMLO_EmeqwoZqAg_Fb5wa1E4jurOnwNAeGL6EtiiNcXTqLx2EgSrwpr8VwyL9XZz1FoO1gBzeKCxcDRaEq64rJEv2nmnCK5IxILdpbdG4592op_iA0PC1S_XtDuaNXXcNRt4-V7iUOeRbbXz- -10TIW3eh1XMPCC7QZ1_ePfLjMV-aja2oelCWUwaY1O4jIAqACXEY1CMiwmK97ieu58AyB66F6_He3gtgza2A-dJftag6InEfhW6sDQBBGWbEtR8EKVa30YJZDL0YTLejjYkvf1P1RIOFhahrOheIU24yMm8VmZU9VN02JpW63013GC77PZNcZ0UZqAQd20JfI4i3y3w6G3n_zG0k4y3RbeE6NYC84_WVP43_2Equwhg9jD1pdXPGxB1bssNGF4h3dP1NSPATPfG45z3FhDfXEaO1-5cKPIvrirUdtk7jQ5cjlRvhVK3RLHEF6qwVJr3xuqrKaKeghh1P2WnYDMtCqhgG0M5otLacfAvMPyu3uJLHmDgHeX18ln2PgtExYoHZAXw7RLM5GOHe-dmc16G18qi76a6gU63g_-mf35BhgBNXdHXH_gnYVpdWAxisTYRk6wxfqi-Mw0IxXvusxU542Nkgk268ncSZY8Lw3ggvwG01oLXwU2DRFYCbfZBOHGrYin9hioRrIYWAxKgc2bcNAuTStgkmUFDB_Qa4jDwn_KhDDYqPgeKNEKGHDSyyeSzLiMxonrKZTSmN5-OVcMCJwBZw3dIcu77UwMdoP1c6mseVzDSmsGrcOPjLjPhjssgd0SJNjQHKhirH9AhBcI5dnIHheZBZ5vK1_eQ-IaTEcKPgr7RnEOqozp64JikcDFE1_WFKc7SB2GA0Xg76kkmLSYKaFhBsvgbMEbFthbk-XuXxNRgWoNlJ0MxcOrgKc-szYGzr-91YvuvmJbGdyT3ucffRUx1SRNPG_7e6iBlRQLYzmyUxiIUw6D4AbeTq7vaiGUmIVvHYMzap1fdWxZlFr7tHcoabOrW6sTNVAJHLQHZ0arCbF4WP6UbUEcHdQEskmelYCTJPfPDEZScxuXtQ9B67k02UrJ7ki764Q9Yg4ElRZT9V4SQxa3rdTIu3Rrpctibj3cALsLwWBdKWdxGkzFwmR5riupitl1EknvcpVC_]--></g></svg>