<?xml version="1.0" encoding="UTF-8" standalone="no"?><svg xmlns="http://www.w3.org/2000/svg" xmlns:xlink="http://www.w3.org/1999/xlink" contentStyleType="text/css" height="1098px" preserveAspectRatio="none" style="width:1478px;height:1098px;background:#FFFFFF;" version="1.1" viewBox="0 0 1478 1098" width="1478px" zoomAndPan="magnify"><defs/><g><!--class ctrl--><g id="elem_ctrl"><rect codeLine="11" fill="#F1F1F1" height="97.1094" id="ctrl" rx="2.5" ry="2.5" style="stroke:#181818;stroke-width:0.5;" width="491" x="353.5" y="19"/><ellipse cx="474.5" cy="36" fill="#ADD1B2" rx="12" ry="12" style="stroke:#181818;stroke-width:1.0;"/><path d="M477.3066,43.0801 Q476.623,43.4316 475.8711,43.6074 Q475.1191,43.7832 474.2891,43.7832 Q471.3398,43.7832 469.7871,41.8398 Q468.2344,39.8965 468.2344,36.2246 Q468.2344,32.543 469.7871,30.5996 Q471.3398,28.6563 474.2891,28.6563 Q475.1191,28.6563 475.8809,28.832 Q476.6426,29.0078 477.3066,29.3594 L477.3066,32.5625 Q476.5645,31.8789 475.8662,31.5615 Q475.168,31.2441 474.4258,31.2441 Q472.8438,31.2441 472.0381,32.499 Q471.2324,33.7539 471.2324,36.2246 Q471.2324,38.6855 472.0381,39.9404 Q472.8438,41.1953 474.4258,41.1953 Q475.168,41.1953 475.8662,40.8779 Q476.5645,40.5605 477.3066,39.877 Z " fill="#000000"/><text fill="#000000" font-family="sans-serif" font-size="20" lengthAdjust="spacing" textLength="240" x="496.5" y="43.5586">AnnouncementController</text><line style="stroke:#181818;stroke-width:0.5;" x1="354.5" x2="843.5" y1="53" y2="53"/><line style="stroke:#181818;stroke-width:0.5;" x1="354.5" x2="843.5" y1="61" y2="61"/><text fill="#000000" font-family="sans-serif" font-size="20" lengthAdjust="spacing" textLength="479" x="359.5" y="84.3359">+getVisitRequestListForAgent (startDate,endDate)</text><text fill="#000000" font-family="sans-serif" font-size="20" lengthAdjust="spacing" textLength="238" x="359.5" y="107.8906">+getClientFromSession()</text></g><!--class UI--><g id="elem_UI"><rect codeLine="17" fill="#F1F1F1" height="50" id="UI" rx="2.5" ry="2.5" style="stroke:#181818;stroke-width:0.5;" width="207" x="111.5" y="42.5"/><ellipse cx="127.5" cy="59.5" fill="#ADD1B2" rx="12" ry="12" style="stroke:#181818;stroke-width:1.0;"/><path d="M130.3066,66.5801 Q129.623,66.9316 128.8711,67.1074 Q128.1191,67.2832 127.2891,67.2832 Q124.3398,67.2832 122.7871,65.3398 Q121.2344,63.3965 121.2344,59.7246 Q121.2344,56.043 122.7871,54.0996 Q124.3398,52.1563 127.2891,52.1563 Q128.1191,52.1563 128.8809,52.332 Q129.6426,52.5078 130.3066,52.8594 L130.3066,56.0625 Q129.5645,55.3789 128.8662,55.0615 Q128.168,54.7441 127.4258,54.7441 Q125.8438,54.7441 125.0381,55.999 Q124.2324,57.2539 124.2324,59.7246 Q124.2324,62.1855 125.0381,63.4404 Q125.8438,64.6953 127.4258,64.6953 Q128.168,64.6953 128.8662,64.3779 Q129.5645,64.0605 130.3066,63.377 Z " fill="#000000"/><text fill="#000000" font-family="sans-serif" font-size="20" lengthAdjust="spacing" textLength="173" x="142.5" y="67.0586">ListVisitRequestUI</text><line style="stroke:#181818;stroke-width:0.5;" x1="112.5" x2="317.5" y1="76.5" y2="76.5"/><line style="stroke:#181818;stroke-width:0.5;" x1="112.5" x2="317.5" y1="84.5" y2="84.5"/></g><!--class Repositories--><g id="elem_Repositories"><rect codeLine="22" fill="#F1F1F1" height="120.6641" id="Repositories" rx="2.5" ry="2.5" style="stroke:#181818;stroke-width:0.5;" width="318" x="1027" y="7"/><ellipse cx="1122" cy="24" fill="#ADD1B2" rx="12" ry="12" style="stroke:#181818;stroke-width:1.0;"/><path d="M1124.8066,31.0801 Q1124.123,31.4316 1123.3711,31.6074 Q1122.6191,31.7832 1121.7891,31.7832 Q1118.8398,31.7832 1117.2871,29.8398 Q1115.7344,27.8965 1115.7344,24.2246 Q1115.7344,20.543 1117.2871,18.5996 Q1118.8398,16.6563 1121.7891,16.6563 Q1122.6191,16.6563 1123.3809,16.832 Q1124.1426,17.0078 1124.8066,17.3594 L1124.8066,20.5625 Q1124.0645,19.8789 1123.3662,19.5615 Q1122.668,19.2441 1121.9258,19.2441 Q1120.3438,19.2441 1119.5381,20.499 Q1118.7324,21.7539 1118.7324,24.2246 Q1118.7324,26.6855 1119.5381,27.9404 Q1120.3438,29.1953 1121.9258,29.1953 Q1122.668,29.1953 1123.3662,28.8779 Q1124.0645,28.5605 1124.8066,27.877 Z " fill="#000000"/><text fill="#000000" font-family="sans-serif" font-size="20" lengthAdjust="spacing" textLength="119" x="1144" y="31.5586">Repositories</text><line style="stroke:#181818;stroke-width:0.5;" x1="1028" x2="1344" y1="41" y2="41"/><line style="stroke:#181818;stroke-width:0.5;" x1="1028" x2="1344" y1="49" y2="49"/><text fill="#000000" font-family="sans-serif" font-size="20" lengthAdjust="spacing" textLength="145" x="1033" y="72.3359">-Repositories()</text><text fill="#000000" font-family="sans-serif" font-size="20" lengthAdjust="spacing" textLength="276" x="1033" y="95.8906">+getInstance() : Repositories</text><text fill="#000000" font-family="sans-serif" font-size="20" lengthAdjust="spacing" textLength="306" x="1033" y="119.4453">+getAnnouncementRepository()</text></g><!--class AnnouncementRepository--><g id="elem_AnnouncementRepository"><rect codeLine="28" fill="#F1F1F1" height="97.1094" id="AnnouncementRepository" rx="2.5" ry="2.5" style="stroke:#181818;stroke-width:0.5;" width="550" x="688" y="189"/><ellipse cx="835.5" cy="206" fill="#ADD1B2" rx="12" ry="12" style="stroke:#181818;stroke-width:1.0;"/><path d="M838.3066,213.0801 Q837.623,213.4316 836.8711,213.6074 Q836.1191,213.7832 835.2891,213.7832 Q832.3398,213.7832 830.7871,211.8398 Q829.2344,209.8965 829.2344,206.2246 Q829.2344,202.543 830.7871,200.5996 Q832.3398,198.6563 835.2891,198.6563 Q836.1191,198.6563 836.8809,198.832 Q837.6426,199.0078 838.3066,199.3594 L838.3066,202.5625 Q837.5645,201.8789 836.8662,201.5615 Q836.168,201.2441 835.4258,201.2441 Q833.8438,201.2441 833.0381,202.499 Q832.2324,203.7539 832.2324,206.2246 Q832.2324,208.6855 833.0381,209.9404 Q833.8438,211.1953 835.4258,211.1953 Q836.168,211.1953 836.8662,210.8779 Q837.5645,210.5605 838.3066,209.877 Z " fill="#000000"/><text fill="#000000" font-family="sans-serif" font-size="20" lengthAdjust="spacing" textLength="246" x="857.5" y="213.5586">AnnouncementRepository</text><line style="stroke:#181818;stroke-width:0.5;" x1="689" x2="1237" y1="223" y2="223"/><line style="stroke:#181818;stroke-width:0.5;" x1="689" x2="1237" y1="231" y2="231"/><text fill="#000000" font-family="sans-serif" font-size="20" lengthAdjust="spacing" textLength="538" x="694" y="254.3359">+getVisitRequestListForAgent (email,startDate,endDate)</text><text fill="#000000" font-family="sans-serif" font-size="20" lengthAdjust="spacing" textLength="297" x="694" y="277.8906">+sortByRecent(ListOfRequests)</text></g><!--class Agent--><g id="elem_Agent"><rect codeLine="33" fill="#F1F1F1" height="73.5547" id="Agent" rx="2.5" ry="2.5" style="stroke:#181818;stroke-width:0.5;" width="114" x="1041" y="812"/><ellipse cx="1067.8" cy="829" fill="#ADD1B2" rx="12" ry="12" style="stroke:#181818;stroke-width:1.0;"/><path d="M1070.6066,836.0801 Q1069.923,836.4316 1069.1711,836.6074 Q1068.4191,836.7832 1067.5891,836.7832 Q1064.6398,836.7832 1063.0871,834.8398 Q1061.5344,832.8965 1061.5344,829.2246 Q1061.5344,825.543 1063.0871,823.5996 Q1064.6398,821.6563 1067.5891,821.6563 Q1068.4191,821.6563 1069.1809,821.832 Q1069.9426,822.0078 1070.6066,822.3594 L1070.6066,825.5625 Q1069.8645,824.8789 1069.1662,824.5615 Q1068.468,824.2441 1067.7258,824.2441 Q1066.1438,824.2441 1065.3381,825.499 Q1064.5324,826.7539 1064.5324,829.2246 Q1064.5324,831.6855 1065.3381,832.9404 Q1066.1438,834.1953 1067.7258,834.1953 Q1068.468,834.1953 1069.1662,833.8779 Q1069.8645,833.5605 1070.6066,832.877 Z " fill="#000000"/><text fill="#000000" font-family="sans-serif" font-size="20" lengthAdjust="spacing" textLength="56" x="1085.2" y="836.5586">Agent</text><line style="stroke:#181818;stroke-width:0.5;" x1="1042" x2="1154" y1="846" y2="846"/><line style="stroke:#181818;stroke-width:0.5;" x1="1042" x2="1154" y1="854" y2="854"/><text fill="#000000" font-family="sans-serif" font-size="20" lengthAdjust="spacing" textLength="102" x="1047" y="877.3359">+isAgent()</text></g><!--class VisitRequest--><g id="elem_VisitRequest"><rect codeLine="37" fill="#F1F1F1" height="261.9922" id="VisitRequest" rx="2.5" ry="2.5" style="stroke:#181818;stroke-width:0.5;" width="477" x="254.5" y="718"/><ellipse cx="429" cy="735" fill="#ADD1B2" rx="12" ry="12" style="stroke:#181818;stroke-width:1.0;"/><path d="M431.8066,742.0801 Q431.123,742.4316 430.3711,742.6074 Q429.6191,742.7832 428.7891,742.7832 Q425.8398,742.7832 424.2871,740.8398 Q422.7344,738.8965 422.7344,735.2246 Q422.7344,731.543 424.2871,729.5996 Q425.8398,727.6563 428.7891,727.6563 Q429.6191,727.6563 430.3809,727.832 Q431.1426,728.0078 431.8066,728.3594 L431.8066,731.5625 Q431.0645,730.8789 430.3662,730.5615 Q429.668,730.2441 428.9258,730.2441 Q427.3438,730.2441 426.5381,731.499 Q425.7324,732.7539 425.7324,735.2246 Q425.7324,737.6855 426.5381,738.9404 Q427.3438,740.1953 428.9258,740.1953 Q429.668,740.1953 430.3662,739.8779 Q431.0645,739.5605 431.8066,738.877 Z " fill="#000000"/><text fill="#000000" font-family="sans-serif" font-size="20" lengthAdjust="spacing" textLength="119" x="451" y="742.5586">VisitRequest</text><line style="stroke:#181818;stroke-width:0.5;" x1="255.5" x2="730.5" y1="752" y2="752"/><text fill="#000000" font-family="sans-serif" font-size="20" lengthAdjust="spacing" textLength="122" x="260.5" y="775.3359">-String date;</text><text fill="#000000" font-family="sans-serif" font-size="20" lengthAdjust="spacing" textLength="133" x="260.5" y="798.8906">-Agent agent;</text><text fill="#000000" font-family="sans-serif" font-size="20" lengthAdjust="spacing" textLength="137" x="260.5" y="822.4453">-String status;</text><text fill="#000000" font-family="sans-serif" font-size="20" lengthAdjust="spacing" textLength="225" x="260.5" y="846">-List&lt;String&gt; timeSlot;</text><text fill="#000000" font-family="sans-serif" font-size="20" lengthAdjust="spacing" textLength="177" x="260.5" y="869.5547">-String userName;</text><text fill="#000000" font-family="sans-serif" font-size="20" lengthAdjust="spacing" textLength="133" x="260.5" y="893.1094">-String email;</text><text fill="#000000" font-family="sans-serif" font-size="20" lengthAdjust="spacing" textLength="465" x="260.5" y="916.6641">-VisitRequestOpinion visitRequestOpinion=null;</text><line style="stroke:#181818;stroke-width:0.5;" x1="255.5" x2="730.5" y1="924.8828" y2="924.8828"/><text fill="#000000" font-family="sans-serif" font-size="20" lengthAdjust="spacing" textLength="342" x="260.5" y="948.2188">+isDateBetween(startDate,endDate)</text><text fill="#000000" font-family="sans-serif" font-size="20" lengthAdjust="spacing" textLength="164" x="260.5" y="971.7734">+isStateWaiting()</text></g><!--class appSession--><g id="elem_appSession"><rect codeLine="51" fill="#F1F1F1" height="97.1094" id="appSession" rx="2.5" ry="2.5" style="stroke:#181818;stroke-width:0.5;" width="216" x="7" y="189"/><ellipse cx="23" cy="206" fill="#ADD1B2" rx="12" ry="12" style="stroke:#181818;stroke-width:1.0;"/><path d="M25.8066,213.0801 Q25.123,213.4316 24.3711,213.6074 Q23.6191,213.7832 22.7891,213.7832 Q19.8398,213.7832 18.2871,211.8398 Q16.7344,209.8965 16.7344,206.2246 Q16.7344,202.543 18.2871,200.5996 Q19.8398,198.6563 22.7891,198.6563 Q23.6191,198.6563 24.3809,198.832 Q25.1426,199.0078 25.8066,199.3594 L25.8066,202.5625 Q25.0645,201.8789 24.3662,201.5615 Q23.668,201.2441 22.9258,201.2441 Q21.3438,201.2441 20.5381,202.499 Q19.7324,203.7539 19.7324,206.2246 Q19.7324,208.6855 20.5381,209.9404 Q21.3438,211.1953 22.9258,211.1953 Q23.668,211.1953 24.3662,210.8779 Q25.0645,210.5605 25.8066,209.877 Z " fill="#000000"/><text fill="#000000" font-family="sans-serif" font-size="20" lengthAdjust="spacing" textLength="182" x="38" y="213.5586">ApplicationSession</text><line style="stroke:#181818;stroke-width:0.5;" x1="8" x2="222" y1="223" y2="223"/><line style="stroke:#181818;stroke-width:0.5;" x1="8" x2="222" y1="231" y2="231"/><text fill="#000000" font-family="sans-serif" font-size="20" lengthAdjust="spacing" textLength="139" x="13" y="254.3359">+getInstance()</text><text fill="#000000" font-family="sans-serif" font-size="20" lengthAdjust="spacing" textLength="204" x="13" y="277.8906">+getCurrentSession()</text></g><!--class userSession--><g id="elem_userSession"><rect codeLine="59" fill="#F1F1F1" height="73.5547" id="userSession" rx="2.5" ry="2.5" style="stroke:#181818;stroke-width:0.5;" width="181" x="258.5" y="200.5"/><ellipse cx="288.9" cy="217.5" fill="#ADD1B2" rx="12" ry="12" style="stroke:#181818;stroke-width:1.0;"/><path d="M291.7066,224.5801 Q291.023,224.9316 290.2711,225.1074 Q289.5191,225.2832 288.6891,225.2832 Q285.7398,225.2832 284.1871,223.3398 Q282.6344,221.3965 282.6344,217.7246 Q282.6344,214.043 284.1871,212.0996 Q285.7398,210.1563 288.6891,210.1563 Q289.5191,210.1563 290.2809,210.332 Q291.0426,210.5078 291.7066,210.8594 L291.7066,214.0625 Q290.9645,213.3789 290.2662,213.0615 Q289.568,212.7441 288.8258,212.7441 Q287.2438,212.7441 286.4381,213.999 Q285.6324,215.2539 285.6324,217.7246 Q285.6324,220.1855 286.4381,221.4404 Q287.2438,222.6953 288.8258,222.6953 Q289.568,222.6953 290.2662,222.3779 Q290.9645,222.0605 291.7066,221.377 Z " fill="#000000"/><text fill="#000000" font-family="sans-serif" font-size="20" lengthAdjust="spacing" textLength="115" x="307.1" y="225.0586">UserSession</text><line style="stroke:#181818;stroke-width:0.5;" x1="259.5" x2="438.5" y1="234.5" y2="234.5"/><line style="stroke:#181818;stroke-width:0.5;" x1="259.5" x2="438.5" y1="242.5" y2="242.5"/><text fill="#000000" font-family="sans-serif" font-size="20" lengthAdjust="spacing" textLength="169" x="264.5" y="265.8359">+getClientEmail()</text></g><!--class VisitRequestMapper--><g id="elem_VisitRequestMapper"><rect codeLine="64" fill="#F1F1F1" height="97.1094" id="VisitRequestMapper" rx="2.5" ry="2.5" style="stroke:#181818;stroke-width:0.5;" width="239" x="766.5" y="800.5"/><ellipse cx="788.35" cy="817.5" fill="#ADD1B2" rx="12" ry="12" style="stroke:#181818;stroke-width:1.0;"/><path d="M791.1566,824.5801 Q790.473,824.9316 789.7211,825.1074 Q788.9691,825.2832 788.1391,825.2832 Q785.1898,825.2832 783.6371,823.3398 Q782.0844,821.3965 782.0844,817.7246 Q782.0844,814.043 783.6371,812.0996 Q785.1898,810.1563 788.1391,810.1563 Q788.9691,810.1563 789.7309,810.332 Q790.4926,810.5078 791.1566,810.8594 L791.1566,814.0625 Q790.4145,813.3789 789.7162,813.0615 Q789.018,812.7441 788.2758,812.7441 Q786.6938,812.7441 785.8881,813.999 Q785.0824,815.2539 785.0824,817.7246 Q785.0824,820.1855 785.8881,821.4404 Q786.6938,822.6953 788.2758,822.6953 Q789.018,822.6953 789.7162,822.3779 Q790.4145,822.0605 791.1566,821.377 Z " fill="#000000"/><text fill="#000000" font-family="sans-serif" font-size="20" lengthAdjust="spacing" textLength="192" x="804.65" y="825.0586">VisitRequestMapper</text><line style="stroke:#181818;stroke-width:0.5;" x1="767.5" x2="1004.5" y1="834.5" y2="834.5"/><line style="stroke:#181818;stroke-width:0.5;" x1="767.5" x2="1004.5" y1="842.5" y2="842.5"/><text fill="#000000" font-family="sans-serif" font-size="20" lengthAdjust="spacing" textLength="227" x="772.5" y="865.8359">+toDto(ListOfRequests)</text><text fill="#000000" font-family="sans-serif" font-size="20" lengthAdjust="spacing" textLength="202" x="772.5" y="889.3906">+toDto(VisitRequest)</text></g><!--class VisitRequestDTO--><g id="elem_VisitRequestDTO"><rect codeLine="69" fill="#F1F1F1" height="50" id="VisitRequestDTO" rx="2.5" ry="2.5" style="stroke:#181818;stroke-width:0.5;" width="197" x="989.5" y="1041"/><ellipse cx="1005.5" cy="1058" fill="#ADD1B2" rx="12" ry="12" style="stroke:#181818;stroke-width:1.0;"/><path d="M1008.3066,1065.0801 Q1007.623,1065.4316 1006.8711,1065.6074 Q1006.1191,1065.7832 1005.2891,1065.7832 Q1002.3398,1065.7832 1000.7871,1063.8398 Q999.2344,1061.8965 999.2344,1058.2246 Q999.2344,1054.543 1000.7871,1052.5996 Q1002.3398,1050.6563 1005.2891,1050.6563 Q1006.1191,1050.6563 1006.8809,1050.832 Q1007.6426,1051.0078 1008.3066,1051.3594 L1008.3066,1054.5625 Q1007.5645,1053.8789 1006.8662,1053.5615 Q1006.168,1053.2441 1005.4258,1053.2441 Q1003.8438,1053.2441 1003.0381,1054.499 Q1002.2324,1055.7539 1002.2324,1058.2246 Q1002.2324,1060.6855 1003.0381,1061.9404 Q1003.8438,1063.1953 1005.4258,1063.1953 Q1006.168,1063.1953 1006.8662,1062.8779 Q1007.5645,1062.5605 1008.3066,1061.877 Z " fill="#000000"/><text fill="#000000" font-family="sans-serif" font-size="20" lengthAdjust="spacing" textLength="163" x="1020.5" y="1065.5586">VisitRequestDTO</text><line style="stroke:#181818;stroke-width:0.5;" x1="990.5" x2="1185.5" y1="1075" y2="1075"/><line style="stroke:#181818;stroke-width:0.5;" x1="990.5" x2="1185.5" y1="1083" y2="1083"/></g><!--class AnnouncementAvailable--><g id="elem_AnnouncementAvailable"><rect codeLine="75" fill="#F1F1F1" height="261.9922" id="AnnouncementAvailable" rx="2.5" ry="2.5" style="stroke:#181818;stroke-width:0.5;" width="550" x="635" y="371"/><ellipse cx="789.5" cy="388" fill="#ADD1B2" rx="12" ry="12" style="stroke:#181818;stroke-width:1.0;"/><path d="M792.3066,395.0801 Q791.623,395.4316 790.8711,395.6074 Q790.1191,395.7832 789.2891,395.7832 Q786.3398,395.7832 784.7871,393.8398 Q783.2344,391.8965 783.2344,388.2246 Q783.2344,384.543 784.7871,382.5996 Q786.3398,380.6563 789.2891,380.6563 Q790.1191,380.6563 790.8809,380.832 Q791.6426,381.0078 792.3066,381.3594 L792.3066,384.5625 Q791.5645,383.8789 790.8662,383.5615 Q790.168,383.2441 789.4258,383.2441 Q787.8438,383.2441 787.0381,384.499 Q786.2324,385.7539 786.2324,388.2246 Q786.2324,390.6855 787.0381,391.9404 Q787.8438,393.1953 789.4258,393.1953 Q790.168,393.1953 790.8662,392.8779 Q791.5645,392.5605 792.3066,391.877 Z " fill="#000000"/><text fill="#000000" font-family="sans-serif" font-size="20" lengthAdjust="spacing" textLength="232" x="811.5" y="395.5586">AnnouncementAvailable</text><line style="stroke:#181818;stroke-width:0.5;" x1="636" x2="1184" y1="405" y2="405"/><text fill="#000000" font-family="sans-serif" font-size="20" lengthAdjust="spacing" textLength="62" x="641" y="428.3359">-Int id</text><text fill="#000000" font-family="sans-serif" font-size="20" lengthAdjust="spacing" textLength="104" x="641" y="451.8906">-Date date</text><text fill="#000000" font-family="sans-serif" font-size="20" lengthAdjust="spacing" textLength="184" x="641" y="475.4453">-Double comission</text><text fill="#000000" font-family="sans-serif" font-size="20" lengthAdjust="spacing" textLength="135" x="641" y="499">-Double price</text><text fill="#000000" font-family="sans-serif" font-size="20" lengthAdjust="spacing" textLength="178" x="641" y="522.5547">-Property Property</text><text fill="#000000" font-family="sans-serif" font-size="20" lengthAdjust="spacing" textLength="127" x="641" y="546.1094">-Agent agent</text><text fill="#000000" font-family="sans-serif" font-size="20" lengthAdjust="spacing" textLength="196" x="641" y="569.6641">-List&lt;Order&gt; Order</text><text fill="#000000" font-family="sans-serif" font-size="20" lengthAdjust="spacing" textLength="197" x="641" y="593.2188">-List&lt;VisitRequest&gt;</text><line style="stroke:#181818;stroke-width:0.5;" x1="636" x2="1184" y1="601.4375" y2="601.4375"/><text fill="#000000" font-family="sans-serif" font-size="20" lengthAdjust="spacing" textLength="538" x="641" y="624.7734">+getVisitRequestListForAgent (email,startDate,endDate)</text></g><!--link UI to ctrl--><g id="link_UI_ctrl"><path codeLine="91" d="M318.62,67.5 C333.02,67.5 343,67.5 343,67.5 C343,67.5 344.87,67.5 348.16,67.5 " fill="none" id="UI-to-ctrl" style="stroke:#181818;stroke-width:1.0;stroke-dasharray:7.0,7.0;"/><polygon fill="#181818" points="353.47,67.5,344.47,63.5,348.47,67.5,344.47,71.5,353.47,67.5" style="stroke:#181818;stroke-width:1.0;"/></g><!--link ctrl to Repositories--><g id="link_ctrl_Repositories"><path codeLine="92" d="M844.55,67.5 C902.52,67.5 990.33,67.5 990.33,67.5 C990.33,67.5 1002.73,67.5 1021.29,67.5 " fill="none" id="ctrl-to-Repositories" style="stroke:#181818;stroke-width:1.0;stroke-dasharray:7.0,7.0;"/><polygon fill="#181818" points="1026.68,67.5,1017.68,63.5,1021.68,67.5,1017.68,71.5,1026.68,67.5" style="stroke:#181818;stroke-width:1.0;"/></g><!--link Repositories to AnnouncementRepository--><g id="link_Repositories_AnnouncementRepository"><path codeLine="93" d="M1106.75,128.2 C1081.78,147.02 1054.45,167.61 1030.39,185.73 " fill="none" id="Repositories-to-AnnouncementRepository" style="stroke:#181818;stroke-width:1.0;"/><polygon fill="#181818" points="1026.24,188.85,1035.8311,186.6116,1030.228,185.834,1031.0055,180.2309,1026.24,188.85" style="stroke:#181818;stroke-width:1.0;"/></g><!--link Repositories to Repositories--><g id="link_Repositories_Repositories"><path codeLine="94" d="M1345.08,52.45 C1366.08,55.02 1380,60.04 1380,67.5 C1380,74.32 1368.37,79.1 1350.33,81.83 " fill="none" id="Repositories-to-Repositories" style="stroke:#181818;stroke-width:1.0;"/><polygon fill="#181818" points="1345.08,82.55,1354.5365,85.3022,1350.0345,81.877,1353.4597,77.375,1345.08,82.55" style="stroke:#181818;stroke-width:1.0;"/><text fill="#000000" font-family="sans-serif" font-size="20" lengthAdjust="spacing" textLength="79" x="1386" y="75.3359">instance</text></g><!--link ctrl to appSession--><g id="link_ctrl_appSession"><path codeLine="95" d="M457.77,116.04 C357.64,149.74 241,189 241,189 C241,189 235.99,190.89 227.97,193.91 " fill="none" id="ctrl-to-appSession" style="stroke:#181818;stroke-width:1.0;stroke-dasharray:7.0,7.0;"/><polygon fill="#181818" points="223.21,195.7,233.0415,196.2852,227.8916,193.9444,230.2325,188.7946,223.21,195.7" style="stroke:#181818;stroke-width:1.0;"/></g><!--link appSession to userSession--><g id="link_appSession_userSession"><path codeLine="96" d="M223.38,237.5 C233.44,237.5 244.31,237.5 253.11,237.5 " fill="none" id="appSession-to-userSession" style="stroke:#181818;stroke-width:1.0;stroke-dasharray:7.0,7.0;"/><polygon fill="#181818" points="258.31,237.5,249.31,233.5,253.31,237.5,249.31,241.5,258.31,237.5" style="stroke:#181818;stroke-width:1.0;"/></g><!--link VisitRequest to VisitRequestMapper--><g id="link_VisitRequest_VisitRequestMapper"><path codeLine="98" d="M731.58,849 C745.48,849 755,849 755,849 C755,849 757.19,849 760.99,849 " fill="none" id="VisitRequest-to-VisitRequestMapper" style="stroke:#181818;stroke-width:1.0;stroke-dasharray:7.0,7.0;"/><polygon fill="#181818" points="766.17,849,757.17,845,761.17,849,757.17,853,766.17,849" style="stroke:#181818;stroke-width:1.0;"/></g><!--link ctrl to AnnouncementRepository--><g id="link_ctrl_AnnouncementRepository"><path codeLine="99" d="M702.33,116.19 C750.18,138.28 807.02,164.51 855.38,186.83 " fill="none" id="ctrl-to-AnnouncementRepository" style="stroke:#181818;stroke-width:1.0;stroke-dasharray:7.0,7.0;"/><polygon fill="#181818" points="860.04,188.98,853.549,181.5728,855.5015,186.882,850.1922,188.8344,860.04,188.98" style="stroke:#181818;stroke-width:1.0;"/></g><!--link ctrl to VisitRequestMapper--><g id="link_ctrl_VisitRequestMapper"><path codeLine="100" d="M600.52,116.14 C604.86,252.24 617,633 617,633 C617,633 681,688 681,688 C681,688 749,718 749,718 C749,718 793.73,760.45 832.08,796.83 " fill="none" id="ctrl-to-VisitRequestMapper" style="stroke:#181818;stroke-width:1.0;stroke-dasharray:7.0,7.0;"/><polygon fill="#181818" points="835.76,800.33,831.9844,791.2336,832.1329,796.8885,826.478,797.037,835.76,800.33" style="stroke:#181818;stroke-width:1.0;"/></g><!--link ctrl to VisitRequestDTO--><g id="link_ctrl_VisitRequestDTO"><path codeLine="101" d="M844.58,113.54 C1031.19,147.77 1256,189 1256,189 C1256,189 1291,236.5 1291,236.5 C1291,236.5 1291,236.5 1291,850 C1291,850 1173,980 1173,980 C1173,980 1140.53,1012.47 1115.73,1037.27 " fill="none" id="ctrl-to-VisitRequestDTO" style="stroke:#181818;stroke-width:1.0;stroke-dasharray:7.0,7.0;"/><polygon fill="#181818" points="1112.13,1040.87,1121.3224,1037.3345,1115.6655,1037.3345,1115.6655,1031.6776,1112.13,1040.87" style="stroke:#181818;stroke-width:1.0;"/></g><!--link ctrl to userSession--><g id="link_ctrl_userSession"><path codeLine="102" d="M528.03,116.19 C489.74,141.92 443.08,173.28 407,197.53 " fill="none" id="ctrl-to-userSession" style="stroke:#181818;stroke-width:1.0;stroke-dasharray:7.0,7.0;"/><polygon fill="#181818" points="402.65,200.45,412.3465,198.7244,406.7926,197.6502,407.8668,192.0963,402.65,200.45" style="stroke:#181818;stroke-width:1.0;"/></g><!--link ctrl to AnnouncementAvailable--><g id="link_ctrl_AnnouncementAvailable"><path codeLine="103" d="M614.58,116.23 C635.48,180.26 670,286 670,286 C670,286 712.09,323.71 761.02,367.54 " fill="none" id="ctrl-to-AnnouncementAvailable" style="stroke:#181818;stroke-width:1.0;stroke-dasharray:7.0,7.0;"/><polygon fill="#181818" points="764.85,370.97,760.8191,361.9838,761.1272,367.6323,755.4787,367.9404,764.85,370.97" style="stroke:#181818;stroke-width:1.0;"/></g><!--link ctrl to VisitRequest--><g id="link_ctrl_VisitRequest"><path codeLine="104" d="M566.54,116.13 C551.97,137.51 538,158 538,158 C538,158 514.92,511.9 501.82,712.8 " fill="none" id="ctrl-to-VisitRequest" style="stroke:#181818;stroke-width:1.0;stroke-dasharray:7.0,7.0;"/><polygon fill="#181818" points="501.49,717.81,506.0732,709.0925,501.8188,712.8208,498.0905,708.5664,501.49,717.81" style="stroke:#181818;stroke-width:1.0;"/></g><!--link VisitRequestMapper to VisitRequestDTO--><g id="link_VisitRequestMapper_VisitRequestDTO"><path codeLine="105" d="M930.83,897.72 C970.98,940.45 1028.49,1001.66 1061.66,1036.97 " fill="none" id="VisitRequestMapper-to-VisitRequestDTO" style="stroke:#181818;stroke-width:1.0;stroke-dasharray:7.0,7.0;"/><polygon fill="#181818" points="1065.19,1040.72,1061.9345,1031.4247,1061.7632,1037.079,1056.1089,1036.9077,1065.19,1040.72" style="stroke:#181818;stroke-width:1.0;"/></g><!--link AnnouncementRepository to AnnouncementAvailable--><g id="link_AnnouncementRepository_AnnouncementAvailable"><path codeLine="106" d="M953.4,286.04 C948.82,308.73 943.08,337.16 937.29,365.84 " fill="none" id="AnnouncementRepository-to-AnnouncementAvailable" style="stroke:#181818;stroke-width:1.0;"/><polygon fill="#181818" points="936.29,370.81,941.9864,362.7756,937.2761,365.9082,934.1435,361.1979,936.29,370.81" style="stroke:#181818;stroke-width:1.0;"/><text fill="#000000" font-family="sans-serif" font-size="20" lengthAdjust="spacing" textLength="80" x="948" y="336.3359">contains</text><text fill="#000000" font-family="sans-serif" font-size="20" lengthAdjust="spacing" textLength="13" x="938.2366" y="313.4737">1</text><text fill="#000000" font-family="sans-serif" font-size="20" lengthAdjust="spacing" textLength="10" x="927.5208" y="358.9129">*</text></g><!--link AnnouncementAvailable to VisitRequest--><g id="link_AnnouncementAvailable_VisitRequest"><path codeLine="107" d="M752.65,633.18 C720.49,659.78 686.61,687.82 654.32,714.53 " fill="none" id="AnnouncementAvailable-to-VisitRequest" style="stroke:#181818;stroke-width:1.0;"/><polygon fill="#181818" points="650.39,717.78,659.8716,715.1155,654.2393,714.5889,654.7659,708.9567,650.39,717.78" style="stroke:#181818;stroke-width:1.0;"/><text fill="#000000" font-family="sans-serif" font-size="20" lengthAdjust="spacing" textLength="33" x="716" y="683.3359">has</text><text fill="#000000" font-family="sans-serif" font-size="20" lengthAdjust="spacing" textLength="13" x="730.6895" y="660.3341">1</text><text fill="#000000" font-family="sans-serif" font-size="20" lengthAdjust="spacing" textLength="10" x="649.2" y="705.8812">*</text></g><!--link AnnouncementAvailable to Agent--><g id="link_AnnouncementAvailable_Agent"><path codeLine="108" d="M981.07,633.43 C1014.68,695.11 1052.46,764.42 1075.74,807.15 " fill="none" id="AnnouncementAvailable-to-Agent" style="stroke:#181818;stroke-width:1.0;"/><polygon fill="#181818" points="1078.23,811.72,1077.4185,801.9046,1075.8297,807.3338,1070.4006,805.7451,1078.23,811.72" style="stroke:#181818;stroke-width:1.0;"/><text fill="#000000" font-family="sans-serif" font-size="20" lengthAdjust="spacing" textLength="33" x="1010" y="683.3359">has</text><text fill="#000000" font-family="sans-serif" font-size="20" lengthAdjust="spacing" textLength="13" x="971.3994" y="660.1503">1</text><text fill="#000000" font-family="sans-serif" font-size="20" lengthAdjust="spacing" textLength="10" x="1063.9727" y="799.7578">*</text></g><!--SRC=[ZLHHRzem47xthx1uAQm5TNjiDoHQLWbf6nECxTbD3h1mxCo-j69e_trd9oGEaAay1EVytNtVdR_OxQJEXHMPCiaEKfx2MXGAdup6fVm3_CCjkt973C-CDidMcWmusW9OivEBP2SsiCIz0cuXGQ4tAWQuhKZDgzGRlXRAnJjAQi1z3ZmtQkzVOiPwqrWqBCfAb71kWcZbSu4mIumEUcyPkrAmHew6MxdP8a-bboEDPYpayDv4QrFe13BG-4YDMgCKs1uNZYTerO5n-brl07zA9t41lmjm-4KwcegTR2Y9znqAYrE1S0CwzV-3EkbHIO8yqP2Mu1pnzWUC_Qt9VPsuxceMY5Up0ujW2yWDOOoLu7WfQDWAzYj2JempJNAed_w0txL03IHkkKRigKZDU1bHSOSQtTE0J4XrqpKJHqVti5z0GjY-JvolgoekvlUb3knQkh2AfSN4nraiwU39IodHt5UXKepmp_isYfHXuOv1B-5ZkJFcA3DOAdEQKJYmtqG69-7Gw34MovhdKjDHyvVps2TTACgfvYYTdym3u2k0xhGHmPQa6Nu9YSHR3gEsRvuhcGXlwSfXmK4YpwjNtZYuiKRZpy9Q6b7Rd7Nn5JKULosQzwXiwV7FVXejTySZ-Kg2mDA9efcYEJluAXndT1pvzCVyq18PMtNoGXh4CrqwbJDcv06Pbci_qM2HwjKK7fYOJ8Q6Mj7SogJ2VRU6bEEU7nTbEF9N6GX6cjiKx9Y7loWSDp1-muNI-GcnybfOpVXe7AudvX-qRdtehVjYE1ntVCudk7OHkZnaPPUIWqWQKx5cIV785ep5NOt6vnu8rRWlrw6gtlzVxeabcerOoqMcsYF7xPDgx9nsrEx3ytLSaBttlJ3mthjUXp7lo74Q1SsMNGR49M9MojoAjoIL7YhHx1y0]--></g></svg>