<?xml version="1.0" encoding="UTF-8" standalone="no"?><svg xmlns="http://www.w3.org/2000/svg" xmlns:xlink="http://www.w3.org/1999/xlink" contentStyleType="text/css" height="613px" preserveAspectRatio="none" style="width:1301px;height:613px;background:#FFFFFF;" version="1.1" viewBox="0 0 1301 613" width="1301px" zoomAndPan="magnify"><defs/><g><rect fill="#FFFFFF" height="423.1016" style="stroke:#181818;stroke-width:1.0;" width="10" x="247" y="106.6641"/><rect fill="#FFFFFF" height="42.5547" style="stroke:#181818;stroke-width:1.0;" width="10" x="252" y="340.5469"/><rect fill="#FFFFFF" height="37.5547" style="stroke:#181818;stroke-width:1.0;" width="10" x="734.5" y="257.4375"/><rect fill="#FFFFFF" height="30" style="stroke:#181818;stroke-width:1.0;" width="10" x="965.5" y="455.2109"/><rect fill="none" height="299.4375" style="stroke:#000000;stroke-width:1.5;" width="1157.5" x="137.5" y="193.7734"/><line style="stroke:#181818;stroke-width:0.5;stroke-dasharray:5.0,5.0;" x1="251.5" x2="251.5" y1="67.1094" y2="547.7656"/><line style="stroke:#181818;stroke-width:0.5;stroke-dasharray:5.0,5.0;" x1="479" x2="479" y1="67.1094" y2="547.7656"/><line style="stroke:#181818;stroke-width:0.5;stroke-dasharray:5.0,5.0;" x1="593" x2="593" y1="67.1094" y2="547.7656"/><line style="stroke:#181818;stroke-width:0.5;stroke-dasharray:5.0,5.0;" x1="739" x2="739" y1="67.1094" y2="547.7656"/><line style="stroke:#181818;stroke-width:0.5;stroke-dasharray:5.0,5.0;" x1="970" x2="970" y1="160.7188" y2="547.7656"/><line style="stroke:#181818;stroke-width:0.5;stroke-dasharray:5.0,5.0;" x1="1193" x2="1193" y1="399.6016" y2="547.7656"/><rect fill="#E3E3E3" height="61.1094" rx="2.5" ry="2.5" style="stroke:#181818;stroke-width:0.5;" width="209" x="147.5" y="5"/><text fill="#000000" font-family="sans-serif" font-size="20" lengthAdjust="spacing" textLength="195" x="154.5" y="31.3359">visitRequestMapper:</text><text fill="#000000" font-family="sans-serif" font-size="20" lengthAdjust="spacing" textLength="189" x="157.5" y="54.8906">visitRequestMapper</text><rect fill="#E3E3E3" height="61.1094" rx="2.5" ry="2.5" style="stroke:#181818;stroke-width:0.5;" width="209" x="147.5" y="546.7656"/><text fill="#000000" font-family="sans-serif" font-size="20" lengthAdjust="spacing" textLength="195" x="154.5" y="573.1016">visitRequestMapper:</text><text fill="#000000" font-family="sans-serif" font-size="20" lengthAdjust="spacing" textLength="189" x="157.5" y="596.6563">visitRequestMapper</text><rect fill="#E3E3E3" height="61.1094" rx="2.5" ry="2.5" style="stroke:#181818;stroke-width:0.5;" width="136" x="411" y="5"/><text fill="#000000" font-family="sans-serif" font-size="20" lengthAdjust="spacing" textLength="122" x="418" y="31.3359">visitRequest:</text><text fill="#000000" font-family="sans-serif" font-size="20" lengthAdjust="spacing" textLength="116" x="421" y="54.8906">visitRequest</text><rect fill="#E3E3E3" height="61.1094" rx="2.5" ry="2.5" style="stroke:#181818;stroke-width:0.5;" width="136" x="411" y="546.7656"/><text fill="#000000" font-family="sans-serif" font-size="20" lengthAdjust="spacing" textLength="122" x="418" y="573.1016">visitRequest:</text><text fill="#000000" font-family="sans-serif" font-size="20" lengthAdjust="spacing" textLength="116" x="421" y="596.6563">visitRequest</text><rect fill="#E3E3E3" height="61.1094" rx="2.5" ry="2.5" style="stroke:#181818;stroke-width:0.5;" width="73" x="557" y="5"/><text fill="#000000" font-family="sans-serif" font-size="20" lengthAdjust="spacing" textLength="59" x="564" y="31.3359">agent:</text><text fill="#000000" font-family="sans-serif" font-size="20" lengthAdjust="spacing" textLength="56" x="565.5" y="54.8906">Agent</text><rect fill="#E3E3E3" height="61.1094" rx="2.5" ry="2.5" style="stroke:#181818;stroke-width:0.5;" width="73" x="557" y="546.7656"/><text fill="#000000" font-family="sans-serif" font-size="20" lengthAdjust="spacing" textLength="59" x="564" y="573.1016">agent:</text><text fill="#000000" font-family="sans-serif" font-size="20" lengthAdjust="spacing" textLength="56" x="565.5" y="596.6563">Agent</text><rect fill="#E3E3E3" height="61.1094" rx="2.5" ry="2.5" style="stroke:#181818;stroke-width:0.5;" width="199" x="640" y="5"/><text fill="#000000" font-family="sans-serif" font-size="20" lengthAdjust="spacing" textLength="145" x="667" y="31.3359">listOfRequests:</text><text fill="#000000" font-family="sans-serif" font-size="20" lengthAdjust="spacing" textLength="185" x="647" y="54.8906">List&lt;VisitRequest&gt;</text><rect fill="#E3E3E3" height="61.1094" rx="2.5" ry="2.5" style="stroke:#181818;stroke-width:0.5;" width="199" x="640" y="546.7656"/><text fill="#000000" font-family="sans-serif" font-size="20" lengthAdjust="spacing" textLength="145" x="667" y="573.1016">listOfRequests:</text><text fill="#000000" font-family="sans-serif" font-size="20" lengthAdjust="spacing" textLength="185" x="647" y="596.6563">List&lt;VisitRequest&gt;</text><rect fill="#E3E3E3" height="61.1094" rx="2.5" ry="2.5" style="stroke:#181818;stroke-width:0.5;" width="243" x="849" y="546.7656"/><text fill="#000000" font-family="sans-serif" font-size="20" lengthAdjust="spacing" textLength="189" x="876" y="573.1016">listOfRequestsDTO:</text><text fill="#000000" font-family="sans-serif" font-size="20" lengthAdjust="spacing" textLength="229" x="856" y="596.6563">List&lt;VisitRequestDTO&gt;</text><rect fill="#E3E3E3" height="61.1094" rx="2.5" ry="2.5" style="stroke:#181818;stroke-width:0.5;" width="183" x="1102" y="546.7656"/><text fill="#000000" font-family="sans-serif" font-size="20" lengthAdjust="spacing" textLength="169" x="1109" y="573.1016">VisitRequestDTO:</text><text fill="#000000" font-family="sans-serif" font-size="20" lengthAdjust="spacing" textLength="163" x="1112" y="596.6563">VisitRequestDTO</text><rect fill="#FFFFFF" height="423.1016" style="stroke:#181818;stroke-width:1.0;" width="10" x="247" y="106.6641"/><rect fill="#FFFFFF" height="42.5547" style="stroke:#181818;stroke-width:1.0;" width="10" x="252" y="340.5469"/><rect fill="#FFFFFF" height="37.5547" style="stroke:#181818;stroke-width:1.0;" width="10" x="734.5" y="257.4375"/><rect fill="#FFFFFF" height="30" style="stroke:#181818;stroke-width:1.0;" width="10" x="965.5" y="455.2109"/><polygon fill="#181818" points="235,102.6641,245,106.6641,235,110.6641,239,106.6641" style="stroke:#181818;stroke-width:1.0;"/><line style="stroke:#181818;stroke-width:1.0;" x1="0" x2="241" y1="106.6641" y2="106.6641"/><text fill="#000000" font-family="sans-serif" font-size="20" font-weight="bold" lengthAdjust="spacing" textLength="13" x="7" y="100.4453">1</text><text fill="#000000" font-family="sans-serif" font-size="20" lengthAdjust="spacing" textLength="211" x="24" y="100.4453">toDto(ListOfRequests)</text><polygon fill="#181818" points="837,140.2188,847,144.2188,837,148.2188,841,144.2188" style="stroke:#181818;stroke-width:1.0;"/><line style="stroke:#181818;stroke-width:1.0;" x1="257" x2="843" y1="144.2188" y2="144.2188"/><text fill="#000000" font-family="sans-serif" font-size="20" font-weight="bold" lengthAdjust="spacing" textLength="13" x="264" y="138">2</text><text fill="#000000" font-family="sans-serif" font-size="20" lengthAdjust="spacing" textLength="102" x="281" y="138">createDTO</text><rect fill="#E3E3E3" height="61.1094" rx="2.5" ry="2.5" style="stroke:#181818;stroke-width:0.5;" width="243" x="849" y="114.6641"/><text fill="#000000" font-family="sans-serif" font-size="20" lengthAdjust="spacing" textLength="189" x="876" y="141">listOfRequestsDTO:</text><text fill="#000000" font-family="sans-serif" font-size="20" lengthAdjust="spacing" textLength="229" x="856" y="164.5547">List&lt;VisitRequestDTO&gt;</text><path d="M137.5,193.7734 L228.5,193.7734 L228.5,209.3281 L218.5,219.3281 L137.5,219.3281 L137.5,193.7734 " fill="#EEEEEE" style="stroke:#000000;stroke-width:1.5;"/><rect fill="none" height="299.4375" style="stroke:#000000;stroke-width:1.5;" width="1157.5" x="137.5" y="193.7734"/><text fill="#000000" font-family="sans-serif" font-size="20" font-weight="bold" lengthAdjust="spacing" textLength="46" x="152.5" y="214.1094">loop</text><text fill="#000000" font-family="sans-serif" font-size="20" font-weight="bold" lengthAdjust="spacing" textLength="276" x="243.5" y="215.1094">[foreach object of the List]</text><polygon fill="#181818" points="722.5,253.4375,732.5,257.4375,722.5,261.4375,726.5,257.4375" style="stroke:#181818;stroke-width:1.0;"/><line style="stroke:#181818;stroke-width:1.0;" x1="257" x2="728.5" y1="257.4375" y2="257.4375"/><text fill="#000000" font-family="sans-serif" font-size="20" font-weight="bold" lengthAdjust="spacing" textLength="13" x="264" y="251.2188">3</text><text fill="#000000" font-family="sans-serif" font-size="20" lengthAdjust="spacing" textLength="50" x="281" y="251.2188">get(i)</text><polygon fill="#181818" points="268,290.9922,258,294.9922,268,298.9922,264,294.9922" style="stroke:#181818;stroke-width:1.0;"/><line style="stroke:#181818;stroke-width:1.0;stroke-dasharray:2.0,2.0;" x1="262" x2="738.5" y1="294.9922" y2="294.9922"/><text fill="#000000" font-family="sans-serif" font-size="20" font-weight="bold" lengthAdjust="spacing" textLength="13" x="274" y="288.7734">4</text><text fill="#000000" font-family="sans-serif" font-size="20" lengthAdjust="spacing" textLength="119" x="291" y="288.7734">VisitRequest</text><line style="stroke:#181818;stroke-width:1.0;" x1="257" x2="304" y1="327.5469" y2="327.5469"/><line style="stroke:#181818;stroke-width:1.0;" x1="304" x2="304" y1="327.5469" y2="340.5469"/><line style="stroke:#181818;stroke-width:1.0;" x1="263" x2="304" y1="340.5469" y2="340.5469"/><polygon fill="#181818" points="273,336.5469,263,340.5469,273,344.5469,269,340.5469" style="stroke:#181818;stroke-width:1.0;"/><text fill="#000000" font-family="sans-serif" font-size="20" font-weight="bold" lengthAdjust="spacing" textLength="13" x="269" y="321.3281">5</text><text fill="#000000" font-family="sans-serif" font-size="20" lengthAdjust="spacing" textLength="186" x="286" y="321.3281">toDto(VisitRequest)</text><polygon fill="#181818" points="1090,379.1016,1100,383.1016,1090,387.1016,1094,383.1016" style="stroke:#181818;stroke-width:1.0;"/><line style="stroke:#181818;stroke-width:1.0;" x1="257" x2="1096" y1="383.1016" y2="383.1016"/><text fill="#000000" font-family="sans-serif" font-size="20" font-weight="bold" lengthAdjust="spacing" textLength="13" x="264" y="376.8828">6</text><text fill="#000000" font-family="sans-serif" font-size="20" lengthAdjust="spacing" textLength="191" x="281" y="376.8828">create(VisitRequest)</text><rect fill="#E3E3E3" height="61.1094" rx="2.5" ry="2.5" style="stroke:#181818;stroke-width:0.5;" width="183" x="1102" y="353.5469"/><text fill="#000000" font-family="sans-serif" font-size="20" lengthAdjust="spacing" textLength="169" x="1109" y="379.8828">VisitRequestDTO:</text><text fill="#000000" font-family="sans-serif" font-size="20" lengthAdjust="spacing" textLength="163" x="1112" y="403.4375">VisitRequestDTO</text><polygon fill="#181818" points="953.5,451.2109,963.5,455.2109,953.5,459.2109,957.5,455.2109" style="stroke:#181818;stroke-width:1.0;"/><line style="stroke:#181818;stroke-width:1.0;stroke-dasharray:2.0,2.0;" x1="257" x2="959.5" y1="455.2109" y2="455.2109"/><text fill="#000000" font-family="sans-serif" font-size="20" font-weight="bold" lengthAdjust="spacing" textLength="13" x="264" y="448.9922">7</text><text fill="#000000" font-family="sans-serif" font-size="20" lengthAdjust="spacing" textLength="214" x="281" y="448.9922">add(VisitRequestDTO)</text><polygon fill="#181818" points="11,525.7656,1,529.7656,11,533.7656,7,529.7656" style="stroke:#181818;stroke-width:1.0;"/><line style="stroke:#181818;stroke-width:1.0;stroke-dasharray:2.0,2.0;" x1="5" x2="251" y1="529.7656" y2="529.7656"/><text fill="#000000" font-family="sans-serif" font-size="20" font-weight="bold" lengthAdjust="spacing" textLength="13" x="17" y="523.5469">8</text><text fill="#000000" font-family="sans-serif" font-size="20" lengthAdjust="spacing" textLength="188" x="34" y="523.5469">ListOfRequestsDTO</text><!--SRC=[VL91ReCm4BppYbLFIIIagaSKHQeKzPGgKbFrr8jZ5d03DiLBglRrNGmXXX3s0endnkF1zgHqAIfHv4QUC8OO4r7dz68q7TGVmjDZO2yKA8msCgjCWK1LZTvAAUH9f7YWtnoXGab2fxbFi9c8pO_IAIGYjnW4eYQZw-A8LS33959IbK8JF9oLLVI6tpLQUXLbYLNqgM_11n0M2lSwOp2IEf4F39Ly1jr8dfkduxgtSS9SMTeddODb_ew1zOTdkt7Y1fvJRj_tKsA6hth-65gCc6mmGfoqaV50E-6cQoeYioMps0rYB2yq49BKMH3slO8tBHPkkbIhLIGhP7ApbS_BZIaXCRmcCp37BxuEO1AW3Dj2RZsRVCqIH90YBTHomEb3tQYT9kmFntA_YW4rng7DdHIzKTkJRtSdLDVKL57WMcApjgSPjskwoLnTFMp7PYAE5wC_FjFN-ETuEmrmrB5tNzoimx0BmBlknXStc7Bivny0]--></g></svg>