<?xml version="1.0" encoding="UTF-8" standalone="no"?><svg xmlns="http://www.w3.org/2000/svg" xmlns:xlink="http://www.w3.org/1999/xlink" contentStyleType="text/css" height="838px" preserveAspectRatio="none" style="width:1939px;height:838px;background:#FFFFFF;" version="1.1" viewBox="0 0 1939 838" width="1939px" zoomAndPan="magnify"><defs/><g><rect fill="#FFFFFF" height="647.9844" style="stroke:#181818;stroke-width:1.0;" width="10" x="558" y="106.6641"/><rect fill="#FFFFFF" height="320.5469" style="stroke:#181818;stroke-width:1.0;" width="10" x="1092" y="257.4375"/><rect fill="#FFFFFF" height="129.2188" style="stroke:#181818;stroke-width:1.0;" width="10" x="1464" y="411.2109"/><rect fill="#FFFFFF" height="37.5547" style="stroke:#181818;stroke-width:1.0;" width="10" x="1653" y="294.9922"/><rect fill="#FFFFFF" height="30" style="stroke:#181818;stroke-width:1.0;" width="10" x="1799" y="615.5391"/><rect fill="none" height="473.7656" style="stroke:#000000;stroke-width:1.5;" width="1532" x="401.5" y="193.7734"/><rect fill="none" height="312.9922" style="stroke:#000000;stroke-width:1.5;" width="1512" x="411.5" y="347.5469"/><rect fill="none" height="176.7734" style="stroke:#000000;stroke-width:1.5;" width="1492" x="421.5" y="476.7656"/><line style="stroke:#181818;stroke-width:0.5;stroke-dasharray:5.0,5.0;" x1="562.5" x2="562.5" y1="67.1094" y2="772.6484"/><line style="stroke:#181818;stroke-width:0.5;stroke-dasharray:5.0,5.0;" x1="1096.5" x2="1096.5" y1="67.1094" y2="772.6484"/><line style="stroke:#181818;stroke-width:0.5;stroke-dasharray:5.0,5.0;" x1="1469" x2="1469" y1="67.1094" y2="772.6484"/><line style="stroke:#181818;stroke-width:0.5;stroke-dasharray:5.0,5.0;" x1="1657.5" x2="1657.5" y1="67.1094" y2="772.6484"/><line style="stroke:#181818;stroke-width:0.5;stroke-dasharray:5.0,5.0;" x1="1803.5" x2="1803.5" y1="160.7188" y2="772.6484"/><rect fill="#E3E3E3" height="61.1094" rx="2.5" ry="2.5" style="stroke:#181818;stroke-width:0.5;" width="263" x="431.5" y="5"/><text fill="#000000" font-family="sans-serif" font-size="20" lengthAdjust="spacing" textLength="249" x="438.5" y="31.3359">announcementRepository:</text><text fill="#000000" font-family="sans-serif" font-size="20" lengthAdjust="spacing" textLength="246" x="440" y="54.8906">AnnouncementRepository</text><rect fill="#E3E3E3" height="61.1094" rx="2.5" ry="2.5" style="stroke:#181818;stroke-width:0.5;" width="263" x="431.5" y="771.6484"/><text fill="#000000" font-family="sans-serif" font-size="20" lengthAdjust="spacing" textLength="249" x="438.5" y="797.9844">announcementRepository:</text><text fill="#000000" font-family="sans-serif" font-size="20" lengthAdjust="spacing" textLength="246" x="440" y="821.5391">AnnouncementRepository</text><rect fill="#E3E3E3" height="61.1094" rx="2.5" ry="2.5" style="stroke:#181818;stroke-width:0.5;" width="249" x="972.5" y="5"/><text fill="#000000" font-family="sans-serif" font-size="20" lengthAdjust="spacing" textLength="235" x="979.5" y="31.3359">announcementAvailable:</text><text fill="#000000" font-family="sans-serif" font-size="20" lengthAdjust="spacing" textLength="232" x="981" y="54.8906">AnnouncementAvailable</text><rect fill="#E3E3E3" height="61.1094" rx="2.5" ry="2.5" style="stroke:#181818;stroke-width:0.5;" width="249" x="972.5" y="771.6484"/><text fill="#000000" font-family="sans-serif" font-size="20" lengthAdjust="spacing" textLength="235" x="979.5" y="797.9844">announcementAvailable:</text><text fill="#000000" font-family="sans-serif" font-size="20" lengthAdjust="spacing" textLength="232" x="981" y="821.5391">AnnouncementAvailable</text><rect fill="#E3E3E3" height="61.1094" rx="2.5" ry="2.5" style="stroke:#181818;stroke-width:0.5;" width="136" x="1401" y="5"/><text fill="#000000" font-family="sans-serif" font-size="20" lengthAdjust="spacing" textLength="122" x="1408" y="31.3359">visitRequest:</text><text fill="#000000" font-family="sans-serif" font-size="20" lengthAdjust="spacing" textLength="116" x="1411" y="54.8906">visitRequest</text><rect fill="#E3E3E3" height="61.1094" rx="2.5" ry="2.5" style="stroke:#181818;stroke-width:0.5;" width="136" x="1401" y="771.6484"/><text fill="#000000" font-family="sans-serif" font-size="20" lengthAdjust="spacing" textLength="122" x="1408" y="797.9844">visitRequest:</text><text fill="#000000" font-family="sans-serif" font-size="20" lengthAdjust="spacing" textLength="116" x="1411" y="821.5391">visitRequest</text><rect fill="#E3E3E3" height="61.1094" rx="2.5" ry="2.5" style="stroke:#181818;stroke-width:0.5;" width="73" x="1621.5" y="5"/><text fill="#000000" font-family="sans-serif" font-size="20" lengthAdjust="spacing" textLength="59" x="1628.5" y="31.3359">agent:</text><text fill="#000000" font-family="sans-serif" font-size="20" lengthAdjust="spacing" textLength="56" x="1630" y="54.8906">Agent</text><rect fill="#E3E3E3" height="61.1094" rx="2.5" ry="2.5" style="stroke:#181818;stroke-width:0.5;" width="73" x="1621.5" y="771.6484"/><text fill="#000000" font-family="sans-serif" font-size="20" lengthAdjust="spacing" textLength="59" x="1628.5" y="797.9844">agent:</text><text fill="#000000" font-family="sans-serif" font-size="20" lengthAdjust="spacing" textLength="56" x="1630" y="821.5391">Agent</text><rect fill="#E3E3E3" height="61.1094" rx="2.5" ry="2.5" style="stroke:#181818;stroke-width:0.5;" width="199" x="1704.5" y="771.6484"/><text fill="#000000" font-family="sans-serif" font-size="20" lengthAdjust="spacing" textLength="145" x="1731.5" y="797.9844">listOfRequests:</text><text fill="#000000" font-family="sans-serif" font-size="20" lengthAdjust="spacing" textLength="185" x="1711.5" y="821.5391">List&lt;VisitRequest&gt;</text><rect fill="#FFFFFF" height="647.9844" style="stroke:#181818;stroke-width:1.0;" width="10" x="558" y="106.6641"/><rect fill="#FFFFFF" height="320.5469" style="stroke:#181818;stroke-width:1.0;" width="10" x="1092" y="257.4375"/><rect fill="#FFFFFF" height="129.2188" style="stroke:#181818;stroke-width:1.0;" width="10" x="1464" y="411.2109"/><rect fill="#FFFFFF" height="37.5547" style="stroke:#181818;stroke-width:1.0;" width="10" x="1653" y="294.9922"/><rect fill="#FFFFFF" height="30" style="stroke:#181818;stroke-width:1.0;" width="10" x="1799" y="615.5391"/><polygon fill="#181818" points="546,102.6641,556,106.6641,546,110.6641,550,106.6641" style="stroke:#181818;stroke-width:1.0;"/><line style="stroke:#181818;stroke-width:1.0;" x1="0" x2="552" y1="106.6641" y2="106.6641"/><text fill="#000000" font-family="sans-serif" font-size="20" font-weight="bold" lengthAdjust="spacing" textLength="13" x="7" y="100.4453">1</text><text fill="#000000" font-family="sans-serif" font-size="20" lengthAdjust="spacing" textLength="522" x="24" y="100.4453">getVisitRequestListForAgent (email,startDate,endDate)</text><polygon fill="#181818" points="1692.5,140.2188,1702.5,144.2188,1692.5,148.2188,1696.5,144.2188" style="stroke:#181818;stroke-width:1.0;"/><line style="stroke:#181818;stroke-width:1.0;" x1="568" x2="1698.5" y1="144.2188" y2="144.2188"/><text fill="#000000" font-family="sans-serif" font-size="20" font-weight="bold" lengthAdjust="spacing" textLength="13" x="575" y="138">2</text><text fill="#000000" font-family="sans-serif" font-size="20" lengthAdjust="spacing" textLength="72" x="592" y="138">create()</text><rect fill="#E3E3E3" height="61.1094" rx="2.5" ry="2.5" style="stroke:#181818;stroke-width:0.5;" width="199" x="1704.5" y="114.6641"/><text fill="#000000" font-family="sans-serif" font-size="20" lengthAdjust="spacing" textLength="145" x="1731.5" y="141">listOfRequests:</text><text fill="#000000" font-family="sans-serif" font-size="20" lengthAdjust="spacing" textLength="185" x="1711.5" y="164.5547">List&lt;VisitRequest&gt;</text><path d="M401.5,193.7734 L492.5,193.7734 L492.5,209.3281 L482.5,219.3281 L401.5,219.3281 L401.5,193.7734 " fill="#EEEEEE" style="stroke:#000000;stroke-width:1.5;"/><rect fill="none" height="473.7656" style="stroke:#000000;stroke-width:1.5;" width="1532" x="401.5" y="193.7734"/><text fill="#000000" font-family="sans-serif" font-size="20" font-weight="bold" lengthAdjust="spacing" textLength="46" x="416.5" y="214.1094">loop</text><text fill="#000000" font-family="sans-serif" font-size="20" font-weight="bold" lengthAdjust="spacing" textLength="351" x="507.5" y="215.1094">[foreach AnnouncementAvailable]</text><polygon fill="#181818" points="1080,253.4375,1090,257.4375,1080,261.4375,1084,257.4375" style="stroke:#181818;stroke-width:1.0;"/><line style="stroke:#181818;stroke-width:1.0;" x1="568" x2="1086" y1="257.4375" y2="257.4375"/><text fill="#000000" font-family="sans-serif" font-size="20" font-weight="bold" lengthAdjust="spacing" textLength="13" x="575" y="251.2188">3</text><text fill="#000000" font-family="sans-serif" font-size="20" lengthAdjust="spacing" textLength="488" x="592" y="251.2188">getVisitRequestForAgent (email,startDate,endDate)</text><polygon fill="#181818" points="1641,290.9922,1651,294.9922,1641,298.9922,1645,294.9922" style="stroke:#181818;stroke-width:1.0;"/><line style="stroke:#181818;stroke-width:1.0;" x1="1102" x2="1647" y1="294.9922" y2="294.9922"/><text fill="#000000" font-family="sans-serif" font-size="20" font-weight="bold" lengthAdjust="spacing" textLength="13" x="1109" y="288.7734">4</text><text fill="#000000" font-family="sans-serif" font-size="20" lengthAdjust="spacing" textLength="139" x="1126" y="288.7734">isAgent(email)</text><polygon fill="#181818" points="1113,328.5469,1103,332.5469,1113,336.5469,1109,332.5469" style="stroke:#181818;stroke-width:1.0;"/><line style="stroke:#181818;stroke-width:1.0;stroke-dasharray:2.0,2.0;" x1="1107" x2="1657" y1="332.5469" y2="332.5469"/><text fill="#000000" font-family="sans-serif" font-size="20" font-weight="bold" lengthAdjust="spacing" textLength="13" x="1119" y="326.3281">5</text><text fill="#000000" font-family="sans-serif" font-size="20" lengthAdjust="spacing" textLength="93" x="1136" y="326.3281">true/false</text><path d="M411.5,347.5469 L483.5,347.5469 L483.5,363.1016 L473.5,373.1016 L411.5,373.1016 L411.5,347.5469 " fill="#EEEEEE" style="stroke:#000000;stroke-width:1.5;"/><rect fill="none" height="312.9922" style="stroke:#000000;stroke-width:1.5;" width="1512" x="411.5" y="347.5469"/><text fill="#000000" font-family="sans-serif" font-size="20" font-weight="bold" lengthAdjust="spacing" textLength="27" x="426.5" y="367.8828">alt</text><text fill="#000000" font-family="sans-serif" font-size="20" font-weight="bold" lengthAdjust="spacing" textLength="362" x="498.5" y="368.8828">[isResponsibleAgent(email) = true]</text><polygon fill="#181818" points="1452,407.2109,1462,411.2109,1452,415.2109,1456,411.2109" style="stroke:#181818;stroke-width:1.0;"/><line style="stroke:#181818;stroke-width:1.0;" x1="1102" x2="1458" y1="411.2109" y2="411.2109"/><text fill="#000000" font-family="sans-serif" font-size="20" font-weight="bold" lengthAdjust="spacing" textLength="13" x="1109" y="404.9922">6</text><text fill="#000000" font-family="sans-serif" font-size="20" lengthAdjust="spacing" textLength="326" x="1126" y="404.9922">isDateBetween(startDate,endDate)</text><line style="stroke:#181818;stroke-width:1.0;" x1="1474" x2="1516" y1="448.7656" y2="448.7656"/><line style="stroke:#181818;stroke-width:1.0;" x1="1516" x2="1516" y1="448.7656" y2="461.7656"/><line style="stroke:#181818;stroke-width:1.0;" x1="1475" x2="1516" y1="461.7656" y2="461.7656"/><polygon fill="#181818" points="1485,457.7656,1475,461.7656,1485,465.7656,1481,461.7656" style="stroke:#181818;stroke-width:1.0;"/><text fill="#000000" font-family="sans-serif" font-size="20" font-weight="bold" lengthAdjust="spacing" textLength="13" x="1481" y="442.5469">7</text><text fill="#000000" font-family="sans-serif" font-size="20" lengthAdjust="spacing" textLength="148" x="1498" y="442.5469">isStateWaiting()</text><path d="M421.5,476.7656 L493.5,476.7656 L493.5,492.3203 L483.5,502.3203 L421.5,502.3203 L421.5,476.7656 " fill="#EEEEEE" style="stroke:#000000;stroke-width:1.5;"/><rect fill="none" height="176.7734" style="stroke:#000000;stroke-width:1.5;" width="1492" x="421.5" y="476.7656"/><text fill="#000000" font-family="sans-serif" font-size="20" font-weight="bold" lengthAdjust="spacing" textLength="27" x="436.5" y="497.1016">alt</text><text fill="#000000" font-family="sans-serif" font-size="20" font-weight="bold" lengthAdjust="spacing" textLength="711" x="508.5" y="498.1016">[isDateBetween(startDate,endDate) = true and isStateWaiting = true]</text><polygon fill="#181818" points="1113,536.4297,1103,540.4297,1113,544.4297,1109,540.4297" style="stroke:#181818;stroke-width:1.0;"/><line style="stroke:#181818;stroke-width:1.0;stroke-dasharray:2.0,2.0;" x1="1107" x2="1468" y1="540.4297" y2="540.4297"/><text fill="#000000" font-family="sans-serif" font-size="20" font-weight="bold" lengthAdjust="spacing" textLength="13" x="1119" y="534.2109">8</text><text fill="#000000" font-family="sans-serif" font-size="20" lengthAdjust="spacing" textLength="116" x="1136" y="534.2109">visitRequest</text><polygon fill="#181818" points="579,573.9844,569,577.9844,579,581.9844,575,577.9844" style="stroke:#181818;stroke-width:1.0;"/><line style="stroke:#181818;stroke-width:1.0;stroke-dasharray:2.0,2.0;" x1="573" x2="1096" y1="577.9844" y2="577.9844"/><text fill="#000000" font-family="sans-serif" font-size="20" font-weight="bold" lengthAdjust="spacing" textLength="13" x="585" y="571.7656">9</text><text fill="#000000" font-family="sans-serif" font-size="20" lengthAdjust="spacing" textLength="116" x="602" y="571.7656">visitRequest</text><polygon fill="#181818" points="1787,611.5391,1797,615.5391,1787,619.5391,1791,615.5391" style="stroke:#181818;stroke-width:1.0;"/><line style="stroke:#181818;stroke-width:1.0;" x1="568" x2="1793" y1="615.5391" y2="615.5391"/><text fill="#000000" font-family="sans-serif" font-size="20" font-weight="bold" lengthAdjust="spacing" textLength="26" x="575" y="609.3203">10</text><text fill="#000000" font-family="sans-serif" font-size="20" lengthAdjust="spacing" textLength="170" x="605" y="609.3203">addVisitRequest()</text><line style="stroke:#181818;stroke-width:1.0;" x1="568" x2="610" y1="704.0938" y2="704.0938"/><line style="stroke:#181818;stroke-width:1.0;" x1="610" x2="610" y1="704.0938" y2="717.0938"/><line style="stroke:#181818;stroke-width:1.0;" x1="569" x2="610" y1="717.0938" y2="717.0938"/><polygon fill="#181818" points="579,713.0938,569,717.0938,579,721.0938,575,717.0938" style="stroke:#181818;stroke-width:1.0;"/><text fill="#000000" font-family="sans-serif" font-size="20" font-weight="bold" lengthAdjust="spacing" textLength="26" x="575" y="697.875">11</text><text fill="#000000" font-family="sans-serif" font-size="20" lengthAdjust="spacing" textLength="281" x="605" y="697.875">sortByRecent(ListOfRequests)</text><polygon fill="#181818" points="11,750.6484,1,754.6484,11,758.6484,7,754.6484" style="stroke:#181818;stroke-width:1.0;"/><line style="stroke:#181818;stroke-width:1.0;stroke-dasharray:2.0,2.0;" x1="5" x2="562" y1="754.6484" y2="754.6484"/><text fill="#000000" font-family="sans-serif" font-size="20" font-weight="bold" lengthAdjust="spacing" textLength="26" x="17" y="748.4297">12</text><text fill="#000000" font-family="sans-serif" font-size="20" lengthAdjust="spacing" textLength="144" x="47" y="748.4297">ListOfRequests</text><!--SRC=[dLJ1JkCm4BtdAonEAI9Qn362Ig0L9oIaLjgzS37EDBNgs26U57M_ViTEMvpO47PzQUEPUM_UiyTs9tNBEzue8tPGiGesl5VuQ3IkvHzWDzUPFQMmncWZjfrfW67NGn1fkTZn6jPuKC0w4CXrhS84k-MLUPUwPXkkB6GPxz7eldc5Biiooa4fPCiriWkkjUcrW0Oqhg0rLgBf3kMBlay6BXYtR1hw7F5-pwNYhmecWEVz26-CjPT4kuAt7YmIHFZfAyEDIHSrWJbMzpkmr16yaXQVDyTwIzbFj77xAm1T-bAtdVd5Q1NBo86IrO1XdQjuD9tdP3aq9FVA8d7_v0XNe2ltk_1mNA3SqrTigm-VrpHSB1t9vMKfEg3oV35EPygObcqC1SMM9SsV8PWAZKH-G-2O8IdrxEkdpVX6F579fFN_1iP5NFT1uOyxnlKuHIJDZTYFOLgYcWfEg0a-XTJJ2cnhj9LaQjWUknj6TrvUU96zIcVV0-0xWCvdVHq97yr4b3PcIZ6laL1-SudqVkGffhFghtiyYcTSLnFKaoqfvB0TEgNn8Sr8-_ga8jSJSyp-YMDoZUSOFuQsv5KL3bA-IBjyul7lpt_efQE8stARoSGuTUv5E5fcJOSFXnK8T_EVHczgulxS5aM4GI3ZkkoRhW_l9As_]--></g></svg>