<?xml version="1.0" encoding="UTF-8" standalone="no"?><svg xmlns="http://www.w3.org/2000/svg" xmlns:xlink="http://www.w3.org/1999/xlink" contentStyleType="text/css" height="1528px" preserveAspectRatio="none" style="width:797px;height:1528px;background:#FFFFFF;" version="1.1" viewBox="0 0 797 1528" width="797px" zoomAndPan="magnify"><defs/><g><text fill="#000000" font-family="sans-serif" font-size="14" font-weight="bold" lengthAdjust="spacing" textLength="295" x="252" y="28.5352">US010 - System Sequence Diagram (SSD)</text><rect fill="#FFFFFF" height="1295.1875" style="stroke:#181818;stroke-width:1.0;" width="10" x="56" y="136.043"/><rect fill="#FFFFFF" height="37.5547" style="stroke:#181818;stroke-width:1.0;" width="10" x="661" y="165.5977"/><rect fill="#FFFFFF" height="37.5547" style="stroke:#181818;stroke-width:1.0;" width="10" x="661" y="240.707"/><rect fill="#FFFFFF" height="78.6641" style="stroke:#181818;stroke-width:1.0;" width="10" x="661" y="315.8164"/><rect fill="#FFFFFF" height="44.5547" style="stroke:#181818;stroke-width:1.0;" width="10" x="661" y="432.0352"/><rect fill="#FFFFFF" height="37.5547" style="stroke:#181818;stroke-width:1.0;" width="10" x="661" y="555.2539"/><rect fill="#FFFFFF" height="267.9922" style="stroke:#181818;stroke-width:1.0;" width="10" x="661" y="630.3633"/><rect fill="#FFFFFF" height="61.1094" style="stroke:#181818;stroke-width:1.0;" width="10" x="661" y="949.9102"/><rect fill="#FFFFFF" height="37.5547" style="stroke:#181818;stroke-width:1.0;" width="10" x="661" y="1048.5742"/><rect fill="#FFFFFF" height="291.5469" style="stroke:#181818;stroke-width:1.0;" width="10" x="661" y="1123.6836"/><rect fill="none" height="109.2188" style="stroke:#000000;stroke-width:1.5;" width="700" x="20" y="330.8164"/><rect fill="none" height="421.7656" style="stroke:#000000;stroke-width:1.5;" width="720" x="10" y="491.5898"/><rect fill="none" height="260.9922" style="stroke:#000000;stroke-width:1.5;" width="700" x="20" y="645.3633"/><rect fill="none" height="284.5469" style="stroke:#000000;stroke-width:1.5;" width="770" x="20" y="1138.6836"/><line style="stroke:#181818;stroke-width:0.5;stroke-dasharray:5.0,5.0;" x1="61" x2="61" y1="126.043" y2="1440.2305"/><line style="stroke:#181818;stroke-width:0.5;stroke-dasharray:5.0,5.0;" x1="666" x2="666" y1="126.043" y2="1440.2305"/><text fill="#000000" font-family="sans-serif" font-size="20" lengthAdjust="spacing" textLength="56" x="30" y="121.8242">Client</text><ellipse cx="61" cy="50.9883" fill="#E3E3E3" rx="8" ry="8" style="stroke:#181818;stroke-width:0.5;"/><path d="M61,58.9883 L61,85.9883 M48,66.9883 L74,66.9883 M61,85.9883 L48,100.9883 M61,85.9883 L74,100.9883 " fill="none" style="stroke:#181818;stroke-width:0.5;"/><text fill="#000000" font-family="sans-serif" font-size="20" lengthAdjust="spacing" textLength="56" x="30" y="1458.5664">Client</text><ellipse cx="61" cy="1471.2852" fill="#E3E3E3" rx="8" ry="8" style="stroke:#181818;stroke-width:0.5;"/><path d="M61,1479.2852 L61,1506.2852 M48,1487.2852 L74,1487.2852 M61,1506.2852 L48,1521.2852 M61,1506.2852 L74,1521.2852 " fill="none" style="stroke:#181818;stroke-width:0.5;"/><rect fill="#E3E3E3" height="37.5547" rx="2.5" ry="2.5" style="stroke:#181818;stroke-width:0.5;" width="88" x="622" y="87.4883"/><text fill="#000000" font-family="sans-serif" font-size="20" lengthAdjust="spacing" textLength="74" x="629" y="113.8242">:System</text><rect fill="#E3E3E3" height="37.5547" rx="2.5" ry="2.5" style="stroke:#181818;stroke-width:0.5;" width="88" x="622" y="1439.2305"/><text fill="#000000" font-family="sans-serif" font-size="20" lengthAdjust="spacing" textLength="74" x="629" y="1465.5664">:System</text><rect fill="#FFFFFF" height="1295.1875" style="stroke:#181818;stroke-width:1.0;" width="10" x="56" y="136.043"/><rect fill="#FFFFFF" height="37.5547" style="stroke:#181818;stroke-width:1.0;" width="10" x="661" y="165.5977"/><rect fill="#FFFFFF" height="37.5547" style="stroke:#181818;stroke-width:1.0;" width="10" x="661" y="240.707"/><rect fill="#FFFFFF" height="78.6641" style="stroke:#181818;stroke-width:1.0;" width="10" x="661" y="315.8164"/><rect fill="#FFFFFF" height="44.5547" style="stroke:#181818;stroke-width:1.0;" width="10" x="661" y="432.0352"/><rect fill="#FFFFFF" height="37.5547" style="stroke:#181818;stroke-width:1.0;" width="10" x="661" y="555.2539"/><rect fill="#FFFFFF" height="267.9922" style="stroke:#181818;stroke-width:1.0;" width="10" x="661" y="630.3633"/><rect fill="#FFFFFF" height="61.1094" style="stroke:#181818;stroke-width:1.0;" width="10" x="661" y="949.9102"/><rect fill="#FFFFFF" height="37.5547" style="stroke:#181818;stroke-width:1.0;" width="10" x="661" y="1048.5742"/><rect fill="#FFFFFF" height="291.5469" style="stroke:#181818;stroke-width:1.0;" width="10" x="661" y="1123.6836"/><polygon fill="#181818" points="649,161.5977,659,165.5977,649,169.5977,653,165.5977" style="stroke:#181818;stroke-width:1.0;"/><line style="stroke:#181818;stroke-width:1.0;" x1="66" x2="655" y1="165.5977" y2="165.5977"/><text fill="#000000" font-family="sans-serif" font-size="20" font-weight="bold" lengthAdjust="spacing" textLength="13" x="73" y="159.3789">1</text><text fill="#000000" font-family="sans-serif" font-size="20" lengthAdjust="spacing" textLength="264" x="90" y="159.3789">ask to search for properties</text><polygon fill="#181818" points="77,199.1523,67,203.1523,77,207.1523,73,203.1523" style="stroke:#181818;stroke-width:1.0;"/><line style="stroke:#181818;stroke-width:1.0;stroke-dasharray:2.0,2.0;" x1="71" x2="665" y1="203.1523" y2="203.1523"/><text fill="#000000" font-family="sans-serif" font-size="20" font-weight="bold" lengthAdjust="spacing" textLength="13" x="83" y="196.9336">2</text><text fill="#000000" font-family="sans-serif" font-size="20" lengthAdjust="spacing" textLength="327" x="100" y="196.9336">shows the list of types of business</text><polygon fill="#181818" points="649,236.707,659,240.707,649,244.707,653,240.707" style="stroke:#181818;stroke-width:1.0;"/><line style="stroke:#181818;stroke-width:1.0;" x1="66" x2="655" y1="240.707" y2="240.707"/><text fill="#000000" font-family="sans-serif" font-size="20" font-weight="bold" lengthAdjust="spacing" textLength="13" x="73" y="234.4883">3</text><text fill="#000000" font-family="sans-serif" font-size="20" lengthAdjust="spacing" textLength="270" x="90" y="234.4883">choose one type of business</text><polygon fill="#181818" points="77,274.2617,67,278.2617,77,282.2617,73,278.2617" style="stroke:#181818;stroke-width:1.0;"/><line style="stroke:#181818;stroke-width:1.0;stroke-dasharray:2.0,2.0;" x1="71" x2="665" y1="278.2617" y2="278.2617"/><text fill="#000000" font-family="sans-serif" font-size="20" font-weight="bold" lengthAdjust="spacing" textLength="13" x="83" y="272.043">4</text><text fill="#000000" font-family="sans-serif" font-size="20" lengthAdjust="spacing" textLength="325" x="100" y="272.043">shows the list of types of property</text><polygon fill="#181818" points="649,311.8164,659,315.8164,649,319.8164,653,315.8164" style="stroke:#181818;stroke-width:1.0;"/><line style="stroke:#181818;stroke-width:1.0;" x1="66" x2="655" y1="315.8164" y2="315.8164"/><text fill="#000000" font-family="sans-serif" font-size="20" font-weight="bold" lengthAdjust="spacing" textLength="13" x="73" y="309.5977">5</text><text fill="#000000" font-family="sans-serif" font-size="20" lengthAdjust="spacing" textLength="268" x="90" y="309.5977">choose one type of property</text><path d="M20,330.8164 L92,330.8164 L92,346.3711 L82,356.3711 L20,356.3711 L20,330.8164 " fill="#EEEEEE" style="stroke:#000000;stroke-width:1.5;"/><rect fill="none" height="109.2188" style="stroke:#000000;stroke-width:1.5;" width="700" x="20" y="330.8164"/><text fill="#000000" font-family="sans-serif" font-size="20" font-weight="bold" lengthAdjust="spacing" textLength="27" x="35" y="351.1523">alt</text><text fill="#000000" font-family="sans-serif" font-size="20" font-weight="bold" lengthAdjust="spacing" textLength="240" x="107" y="352.1523">[Property type != Land]</text><polygon fill="#181818" points="77,390.4805,67,394.4805,77,398.4805,73,394.4805" style="stroke:#181818;stroke-width:1.0;"/><line style="stroke:#181818;stroke-width:1.0;stroke-dasharray:2.0,2.0;" x1="71" x2="665" y1="394.4805" y2="394.4805"/><text fill="#000000" font-family="sans-serif" font-size="20" font-weight="bold" lengthAdjust="spacing" textLength="13" x="83" y="388.2617">6</text><text fill="#000000" font-family="sans-serif" font-size="20" lengthAdjust="spacing" textLength="249" x="100" y="388.2617">asks for number of rooms</text><polygon fill="#181818" points="649,428.0352,659,432.0352,649,436.0352,653,432.0352" style="stroke:#181818;stroke-width:1.0;"/><line style="stroke:#181818;stroke-width:1.0;" x1="66" x2="655" y1="432.0352" y2="432.0352"/><text fill="#000000" font-family="sans-serif" font-size="20" font-weight="bold" lengthAdjust="spacing" textLength="13" x="73" y="425.8164">7</text><text fill="#000000" font-family="sans-serif" font-size="20" lengthAdjust="spacing" textLength="270" x="90" y="425.8164">choose one type of business</text><polygon fill="#181818" points="77,472.5898,67,476.5898,77,480.5898,73,476.5898" style="stroke:#181818;stroke-width:1.0;"/><line style="stroke:#181818;stroke-width:1.0;stroke-dasharray:2.0,2.0;" x1="71" x2="665" y1="476.5898" y2="476.5898"/><text fill="#000000" font-family="sans-serif" font-size="20" font-weight="bold" lengthAdjust="spacing" textLength="13" x="83" y="470.3711">8</text><text fill="#000000" font-family="sans-serif" font-size="20" lengthAdjust="spacing" textLength="260" x="100" y="470.3711">shows the list of properties</text><path d="M10,491.5898 L89,491.5898 L89,507.1445 L79,517.1445 L10,517.1445 L10,491.5898 " fill="#EEEEEE" style="stroke:#000000;stroke-width:1.5;"/><rect fill="none" height="421.7656" style="stroke:#000000;stroke-width:1.5;" width="720" x="10" y="491.5898"/><text fill="#000000" font-family="sans-serif" font-size="20" font-weight="bold" lengthAdjust="spacing" textLength="34" x="25" y="511.9258">opt</text><text fill="#000000" font-family="sans-serif" font-size="20" font-weight="bold" lengthAdjust="spacing" textLength="221" x="104" y="512.9258">[ask to order the list]</text><polygon fill="#181818" points="649,551.2539,659,555.2539,649,559.2539,653,555.2539" style="stroke:#181818;stroke-width:1.0;"/><line style="stroke:#181818;stroke-width:1.0;" x1="66" x2="655" y1="555.2539" y2="555.2539"/><text fill="#000000" font-family="sans-serif" font-size="20" font-weight="bold" lengthAdjust="spacing" textLength="13" x="73" y="549.0352">9</text><text fill="#000000" font-family="sans-serif" font-size="20" lengthAdjust="spacing" textLength="275" x="90" y="549.0352">ask to order the property list</text><polygon fill="#181818" points="77,588.8086,67,592.8086,77,596.8086,73,592.8086" style="stroke:#181818;stroke-width:1.0;"/><line style="stroke:#181818;stroke-width:1.0;stroke-dasharray:2.0,2.0;" x1="71" x2="665" y1="592.8086" y2="592.8086"/><text fill="#000000" font-family="sans-serif" font-size="20" font-weight="bold" lengthAdjust="spacing" textLength="26" x="83" y="586.5898">10</text><text fill="#000000" font-family="sans-serif" font-size="20" lengthAdjust="spacing" textLength="282" x="113" y="586.5898">shows a list with types of sort</text><polygon fill="#181818" points="649,626.3633,659,630.3633,649,634.3633,653,630.3633" style="stroke:#181818;stroke-width:1.0;"/><line style="stroke:#181818;stroke-width:1.0;" x1="66" x2="655" y1="630.3633" y2="630.3633"/><text fill="#000000" font-family="sans-serif" font-size="20" font-weight="bold" lengthAdjust="spacing" textLength="26" x="73" y="624.1445">11</text><text fill="#000000" font-family="sans-serif" font-size="20" lengthAdjust="spacing" textLength="197" x="103" y="624.1445">selects a type of sort</text><path d="M20,645.3633 L92,645.3633 L92,660.918 L82,670.918 L20,670.918 L20,645.3633 " fill="#EEEEEE" style="stroke:#000000;stroke-width:1.5;"/><rect fill="none" height="260.9922" style="stroke:#000000;stroke-width:1.5;" width="700" x="20" y="645.3633"/><text fill="#000000" font-family="sans-serif" font-size="20" font-weight="bold" lengthAdjust="spacing" textLength="27" x="35" y="665.6992">alt</text><text fill="#000000" font-family="sans-serif" font-size="20" font-weight="bold" lengthAdjust="spacing" textLength="317" x="107" y="666.6992">[Sort type == ascending price]</text><polygon fill="#181818" points="77,705.0273,67,709.0273,77,713.0273,73,709.0273" style="stroke:#181818;stroke-width:1.0;"/><line style="stroke:#181818;stroke-width:1.0;" x1="71" x2="660" y1="709.0273" y2="709.0273"/><text fill="#000000" font-family="sans-serif" font-size="20" font-weight="bold" lengthAdjust="spacing" textLength="26" x="83" y="702.8086">12</text><text fill="#000000" font-family="sans-serif" font-size="20" lengthAdjust="spacing" textLength="528" x="113" y="702.8086">shows the list of properties ordered by ascending price</text><line style="stroke:#000000;stroke-width:1.0;stroke-dasharray:2.0,2.0;" x1="20" x2="720" y1="718.0273" y2="718.0273"/><text fill="#000000" font-family="sans-serif" font-size="20" font-weight="bold" lengthAdjust="spacing" textLength="330" x="25" y="737.3633">[Sort type == descending price]</text><polygon fill="#181818" points="77,768.1367,67,772.1367,77,776.1367,73,772.1367" style="stroke:#181818;stroke-width:1.0;"/><line style="stroke:#181818;stroke-width:1.0;" x1="71" x2="660" y1="772.1367" y2="772.1367"/><text fill="#000000" font-family="sans-serif" font-size="20" font-weight="bold" lengthAdjust="spacing" textLength="26" x="83" y="765.918">13</text><text fill="#000000" font-family="sans-serif" font-size="20" lengthAdjust="spacing" textLength="541" x="113" y="765.918">shows the list of properties ordered by descending price</text><line style="stroke:#000000;stroke-width:1.0;stroke-dasharray:2.0,2.0;" x1="20" x2="720" y1="781.1367" y2="781.1367"/><text fill="#000000" font-family="sans-serif" font-size="20" font-weight="bold" lengthAdjust="spacing" textLength="218" x="25" y="800.4727">[Sort type == parish]</text><polygon fill="#181818" points="77,831.2461,67,835.2461,77,839.2461,73,835.2461" style="stroke:#181818;stroke-width:1.0;"/><line style="stroke:#181818;stroke-width:1.0;" x1="71" x2="660" y1="835.2461" y2="835.2461"/><text fill="#000000" font-family="sans-serif" font-size="20" font-weight="bold" lengthAdjust="spacing" textLength="26" x="83" y="829.0273">14</text><text fill="#000000" font-family="sans-serif" font-size="20" lengthAdjust="spacing" textLength="437" x="113" y="829.0273">shows the list of properties ordered by parish</text><line style="stroke:#000000;stroke-width:1.0;stroke-dasharray:2.0,2.0;" x1="20" x2="720" y1="844.2461" y2="844.2461"/><text fill="#000000" font-family="sans-serif" font-size="20" font-weight="bold" lengthAdjust="spacing" textLength="270" x="25" y="863.582">[Sort type == recent date]</text><polygon fill="#181818" points="77,894.3555,67,898.3555,77,902.3555,73,898.3555" style="stroke:#181818;stroke-width:1.0;"/><line style="stroke:#181818;stroke-width:1.0;" x1="71" x2="665" y1="898.3555" y2="898.3555"/><text fill="#000000" font-family="sans-serif" font-size="20" font-weight="bold" lengthAdjust="spacing" textLength="26" x="83" y="892.1367">15</text><text fill="#000000" font-family="sans-serif" font-size="20" lengthAdjust="spacing" textLength="419" x="113" y="892.1367">shows the list of properties ordered by date</text><polygon fill="#181818" points="649,945.9102,659,949.9102,649,953.9102,653,949.9102" style="stroke:#181818;stroke-width:1.0;"/><line style="stroke:#181818;stroke-width:1.0;" x1="66" x2="655" y1="949.9102" y2="949.9102"/><text fill="#000000" font-family="sans-serif" font-size="20" font-weight="bold" lengthAdjust="spacing" textLength="26" x="73" y="943.6914">16</text><text fill="#000000" font-family="sans-serif" font-size="20" lengthAdjust="spacing" textLength="171" x="103" y="943.6914">Selects a property</text><polygon fill="#181818" points="77,1007.0195,67,1011.0195,77,1015.0195,73,1011.0195" style="stroke:#181818;stroke-width:1.0;"/><line style="stroke:#181818;stroke-width:1.0;stroke-dasharray:2.0,2.0;" x1="71" x2="665" y1="1011.0195" y2="1011.0195"/><text fill="#000000" font-family="sans-serif" font-size="20" font-weight="bold" lengthAdjust="spacing" textLength="26" x="83" y="993.0234">17</text><text fill="#000000" font-family="sans-serif" font-size="20" lengthAdjust="spacing" textLength="450" x="113" y="981.2461">shows the property chosed with all information</text><text fill="#000000" font-family="sans-serif" font-size="20" lengthAdjust="spacing" textLength="289" x="119" y="1004.8008">and option to submit an order</text><polygon fill="#181818" points="649,1044.5742,659,1048.5742,649,1052.5742,653,1048.5742" style="stroke:#181818;stroke-width:1.0;"/><line style="stroke:#181818;stroke-width:1.0;" x1="66" x2="655" y1="1048.5742" y2="1048.5742"/><text fill="#000000" font-family="sans-serif" font-size="20" font-weight="bold" lengthAdjust="spacing" textLength="26" x="73" y="1042.3555">18</text><text fill="#000000" font-family="sans-serif" font-size="20" lengthAdjust="spacing" textLength="360" x="103" y="1042.3555">Choose the option to submit an order</text><polygon fill="#181818" points="77,1082.1289,67,1086.1289,77,1090.1289,73,1086.1289" style="stroke:#181818;stroke-width:1.0;"/><line style="stroke:#181818;stroke-width:1.0;stroke-dasharray:2.0,2.0;" x1="71" x2="665" y1="1086.1289" y2="1086.1289"/><text fill="#000000" font-family="sans-serif" font-size="20" font-weight="bold" lengthAdjust="spacing" textLength="26" x="83" y="1079.9102">19</text><text fill="#000000" font-family="sans-serif" font-size="20" lengthAdjust="spacing" textLength="213" x="113" y="1079.9102">request an order price</text><polygon fill="#181818" points="649,1119.6836,659,1123.6836,649,1127.6836,653,1123.6836" style="stroke:#181818;stroke-width:1.0;"/><line style="stroke:#181818;stroke-width:1.0;" x1="66" x2="655" y1="1123.6836" y2="1123.6836"/><text fill="#000000" font-family="sans-serif" font-size="20" font-weight="bold" lengthAdjust="spacing" textLength="26" x="73" y="1117.4648">20</text><text fill="#000000" font-family="sans-serif" font-size="20" lengthAdjust="spacing" textLength="262" x="103" y="1117.4648">Types the price and submit</text><path d="M20,1138.6836 L92,1138.6836 L92,1154.2383 L82,1164.2383 L20,1164.2383 L20,1138.6836 " fill="#EEEEEE" style="stroke:#000000;stroke-width:1.5;"/><rect fill="none" height="284.5469" style="stroke:#000000;stroke-width:1.5;" width="770" x="20" y="1138.6836"/><text fill="#000000" font-family="sans-serif" font-size="20" font-weight="bold" lengthAdjust="spacing" textLength="27" x="35" y="1159.0195">alt</text><text fill="#000000" font-family="sans-serif" font-size="20" font-weight="bold" lengthAdjust="spacing" textLength="412" x="107" y="1160.0195">[order amount &lt;= announcement price]</text><polygon fill="#181818" points="77,1198.3477,67,1202.3477,77,1206.3477,73,1202.3477" style="stroke:#181818;stroke-width:1.0;"/><line style="stroke:#181818;stroke-width:1.0;stroke-dasharray:2.0,2.0;" x1="71" x2="660" y1="1202.3477" y2="1202.3477"/><text fill="#000000" font-family="sans-serif" font-size="20" font-weight="bold" lengthAdjust="spacing" textLength="26" x="83" y="1196.1289">21</text><text fill="#000000" font-family="sans-serif" font-size="20" lengthAdjust="spacing" textLength="235" x="113" y="1196.1289">shows a sucess message</text><line style="stroke:#000000;stroke-width:1.0;stroke-dasharray:2.0,2.0;" x1="20" x2="790" y1="1211.3477" y2="1211.3477"/><text fill="#000000" font-family="sans-serif" font-size="20" font-weight="bold" lengthAdjust="spacing" textLength="396" x="25" y="1230.6836">[order amount &gt; announcement price]</text><polygon fill="#181818" points="77,1261.457,67,1265.457,77,1269.457,73,1265.457" style="stroke:#181818;stroke-width:1.0;"/><line style="stroke:#181818;stroke-width:1.0;stroke-dasharray:2.0,2.0;" x1="71" x2="660" y1="1265.457" y2="1265.457"/><text fill="#000000" font-family="sans-serif" font-size="20" font-weight="bold" lengthAdjust="spacing" textLength="26" x="83" y="1259.2383">22</text><text fill="#000000" font-family="sans-serif" font-size="20" lengthAdjust="spacing" textLength="253" x="113" y="1259.2383">shows a insucess message</text><line style="stroke:#000000;stroke-width:1.0;stroke-dasharray:2.0,2.0;" x1="20" x2="790" y1="1274.457" y2="1274.457"/><text fill="#000000" font-family="sans-serif" font-size="20" font-weight="bold" lengthAdjust="spacing" textLength="457" x="25" y="1293.793">[client has another request to this property]</text><polygon fill="#181818" points="77,1324.5664,67,1328.5664,77,1332.5664,73,1328.5664" style="stroke:#181818;stroke-width:1.0;"/><line style="stroke:#181818;stroke-width:1.0;stroke-dasharray:2.0,2.0;" x1="71" x2="660" y1="1328.5664" y2="1328.5664"/><text fill="#000000" font-family="sans-serif" font-size="20" font-weight="bold" lengthAdjust="spacing" textLength="26" x="83" y="1322.3477">23</text><text fill="#000000" font-family="sans-serif" font-size="20" lengthAdjust="spacing" textLength="253" x="113" y="1322.3477">shows a insucess message</text><line style="stroke:#000000;stroke-width:1.0;stroke-dasharray:2.0,2.0;" x1="20" x2="790" y1="1337.5664" y2="1337.5664"/><text fill="#000000" font-family="sans-serif" font-size="20" font-weight="bold" lengthAdjust="spacing" textLength="765" x="25" y="1356.9023">[order ammount == ammount from another order for this announcement]</text><polygon fill="#181818" points="77,1411.2305,67,1415.2305,77,1419.2305,73,1415.2305" style="stroke:#181818;stroke-width:1.0;"/><line style="stroke:#181818;stroke-width:1.0;stroke-dasharray:2.0,2.0;" x1="71" x2="665" y1="1415.2305" y2="1415.2305"/><text fill="#000000" font-family="sans-serif" font-size="20" font-weight="bold" lengthAdjust="spacing" textLength="26" x="83" y="1397.2344">24</text><text fill="#000000" font-family="sans-serif" font-size="20" lengthAdjust="spacing" textLength="432" x="113" y="1385.457">shows a insucess message and the order that</text><text fill="#000000" font-family="sans-serif" font-size="20" lengthAdjust="spacing" textLength="122" x="119" y="1409.0117">already exist</text><!--SRC=[hLR1ajem3BtdArHExM5dQ8zCsSlkxAc7pgIzzM8SGJmuTcehfVJhAzj9892mB0i7nacafoTPUhRVAbCB9ofjvHOBA70j6aqlrb2k_Y5ycMU-Cu7A6YjBPoi4SWqUVQc5t8eDvhJN20ub2RFHnmQ-58NTARE1jT0UiumKiUdFVFvv3W-GxprX1Jd-Rj18X6SbDi7jOvu_Vyf4GzOqrGfTbWb9ri7iIIiqD0FXGSPbnd58ILKBGp1R9C3uFIsZf_eZ23k73FYNrl3ms55OiCiMo897uMG9QuvMEriZewEFFZrGXnnUjkuFZ9Gm5voptNcW4a4hJs3NGFiQVLYi6gyC-eHNO8SuoKcMrde4Qp1Yd47SWLARvFw4qW3nEcO3f54SeGc-jrR9xSCIlWbJnAyJt7bVVDoEr0eXahEsyhtF1EaRIpf6Fhn3Plc6-fxqpWZ7-DxMr3MUTGLdrs6yrgO7wwxioUtwhe2EjaYaTuhAGrjuw-WYyrDgZ8QQ5I3WTONjGIQx8MUBPBvSScgIgnp4edPAubbJN5VlL1hMjDN-3B67H1QZOV029wA_Zy4ax3a3LZBbopl5RS4kX6Ev3XjO1FsvKwuTr96o3KS7sr4VwUkyxvxNTUJY1FRpm9FkcLZiQw4rACCgKWbIri0l0omxOVp2Kv3zPbKfdaMJ4dgZ6ZubKGdXBqDUcuuB9w8_E1yrp_MiViHXJZLXxvXn8ZMfTFrWGXjNLBPXsAyydSRmKc8LmemFw9Ys-4Qoj4B5VtnJ6FRZ8CJZhH6KkHIZDI_vHY2CvMAulhYyHrGgFsouzqNhCaef1Krhbsk-FlK4abKuqsByuxnluX1tDZPVUoe8YXsk7OfY3_Wt7YYZbuuuc_y1]--></g></svg>