<?xml version="1.0" encoding="UTF-8" standalone="no"?><svg xmlns="http://www.w3.org/2000/svg" xmlns:xlink="http://www.w3.org/1999/xlink" contentStyleType="text/css" height="1943px" preserveAspectRatio="none" style="width:2409px;height:1943px;background:#FFFFFF;" version="1.1" viewBox="0 0 2409 1943" width="2409px" zoomAndPan="magnify"><defs/><g><rect fill="#FFFFFF" height="1739.1797" style="stroke:#181818;stroke-width:1.0;" width="10" x="89" y="98.5547"/><rect fill="#FFFFFF" height="86.1094" style="stroke:#181818;stroke-width:1.0;" width="10" x="548" y="128.1094"/><rect fill="#FFFFFF" height="935.4219" style="stroke:#181818;stroke-width:1.0;" width="10" x="548" y="251.7734"/><rect fill="#FFFFFF" height="612.9844" style="stroke:#181818;stroke-width:1.0;" width="10" x="548" y="1224.75"/><rect fill="#FFFFFF" height="809.7578" style="stroke:#181818;stroke-width:1.0;" width="10" x="956" y="339.8828"/><rect fill="#FFFFFF" height="462.7656" style="stroke:#181818;stroke-width:1.0;" width="10" x="956" y="1337.4141"/><rect fill="#FFFFFF" height="37.5547" style="stroke:#181818;stroke-width:1.0;" width="10" x="1126" y="377.4375"/><rect fill="#FFFFFF" height="37.5547" style="stroke:#181818;stroke-width:1.0;" width="10" x="1272.5" y="452.5469"/><rect fill="#FFFFFF" height="584.4297" style="stroke:#181818;stroke-width:1.0;" width="10" x="1481" y="527.6563"/><rect fill="#FFFFFF" height="37.5547" style="stroke:#181818;stroke-width:1.0;" width="10" x="1481" y="1416.0781"/><rect fill="#FFFFFF" height="37.5547" style="stroke:#181818;stroke-width:1.0;" width="10" x="1481" y="1516.7422"/><rect fill="#FFFFFF" height="37.5547" style="stroke:#181818;stroke-width:1.0;" width="10" x="1481" y="1617.4063"/><rect fill="#FFFFFF" height="37.5547" style="stroke:#181818;stroke-width:1.0;" width="10" x="1481" y="1718.0703"/><rect fill="#FFFFFF" height="387.1016" style="stroke:#181818;stroke-width:1.0;" width="10" x="1788" y="629.875"/><rect fill="#FFFFFF" height="37.5547" style="stroke:#181818;stroke-width:1.0;" width="10" x="2039" y="717.9844"/><rect fill="#FFFFFF" height="37.5547" style="stroke:#181818;stroke-width:1.0;" width="10" x="2231.5" y="834.2031"/><rect fill="#FFFFFF" height="37.5547" style="stroke:#181818;stroke-width:1.0;" width="10" x="2339.5" y="934.8672"/><rect fill="none" height="482.3203" style="stroke:#000000;stroke-width:1.5;" width="1058.5" x="1344.5" y="542.6563"/><rect fill="none" height="209.8828" style="stroke:#000000;stroke-width:1.5;" width="690.5" x="1702.5" y="770.5391"/><rect fill="none" height="411.2109" style="stroke:#000000;stroke-width:1.5;" width="766.5" x="861" y="1352.4141"/><line style="stroke:#181818;stroke-width:0.5;stroke-dasharray:5.0,5.0;" x1="94" x2="94" y1="88.5547" y2="1855.7344"/><line style="stroke:#181818;stroke-width:0.5;stroke-dasharray:5.0,5.0;" x1="552.5" x2="552.5" y1="88.5547" y2="1855.7344"/><line style="stroke:#181818;stroke-width:0.5;stroke-dasharray:5.0,5.0;" x1="961" x2="961" y1="170.3867" y2="1855.7344"/><line style="stroke:#181818;stroke-width:0.5;stroke-dasharray:5.0,5.0;" x1="1130.5" x2="1130.5" y1="88.5547" y2="1855.7344"/><line style="stroke:#181818;stroke-width:0.5;stroke-dasharray:5.0,5.0;" x1="1277.5" x2="1277.5" y1="88.5547" y2="1855.7344"/><line style="stroke:#181818;stroke-width:0.5;stroke-dasharray:5.0,5.0;" x1="1485.5" x2="1485.5" y1="88.5547" y2="1855.7344"/><line style="stroke:#181818;stroke-width:0.5;stroke-dasharray:5.0,5.0;" x1="1792.5" x2="1792.5" y1="88.5547" y2="1855.7344"/><line style="stroke:#181818;stroke-width:0.5;stroke-dasharray:5.0,5.0;" x1="2044" x2="2044" y1="88.5547" y2="1855.7344"/><line style="stroke:#181818;stroke-width:0.5;stroke-dasharray:5.0,5.0;" x1="2136" x2="2136" y1="88.5547" y2="1855.7344"/><line style="stroke:#181818;stroke-width:0.5;stroke-dasharray:5.0,5.0;" x1="2236" x2="2236" y1="88.5547" y2="1855.7344"/><line style="stroke:#181818;stroke-width:0.5;stroke-dasharray:5.0,5.0;" x1="2344" x2="2344" y1="88.5547" y2="1855.7344"/><text fill="#000000" font-family="sans-serif" font-size="20" lengthAdjust="spacing" textLength="172" x="5" y="84.3359">Unregistered User</text><ellipse cx="94" cy="13.5" fill="#E3E3E3" rx="8" ry="8" style="stroke:#181818;stroke-width:0.5;"/><path d="M94,21.5 L94,48.5 M81,29.5 L107,29.5 M94,48.5 L81,63.5 M94,48.5 L107,63.5 " fill="none" style="stroke:#181818;stroke-width:0.5;"/><text fill="#000000" font-family="sans-serif" font-size="20" lengthAdjust="spacing" textLength="172" x="5" y="1874.0703">Unregistered User</text><ellipse cx="94" cy="1886.7891" fill="#E3E3E3" rx="8" ry="8" style="stroke:#181818;stroke-width:0.5;"/><path d="M94,1894.7891 L94,1921.7891 M81,1902.7891 L107,1902.7891 M94,1921.7891 L81,1936.7891 M94,1921.7891 L107,1936.7891 " fill="none" style="stroke:#181818;stroke-width:0.5;"/><rect fill="#E3E3E3" height="37.5547" rx="2.5" ry="2.5" style="stroke:#181818;stroke-width:0.5;" width="103" x="501.5" y="50"/><text fill="#000000" font-family="sans-serif" font-size="20" lengthAdjust="spacing" textLength="89" x="508.5" y="76.3359">:SearchUI</text><rect fill="#E3E3E3" height="37.5547" rx="2.5" ry="2.5" style="stroke:#181818;stroke-width:0.5;" width="103" x="501.5" y="1854.7344"/><text fill="#000000" font-family="sans-serif" font-size="20" lengthAdjust="spacing" textLength="89" x="508.5" y="1881.0703">:SearchUI</text><rect fill="#E3E3E3" height="37.5547" rx="2.5" ry="2.5" style="stroke:#181818;stroke-width:0.5;" width="180" x="871" y="1854.7344"/><text fill="#000000" font-family="sans-serif" font-size="20" lengthAdjust="spacing" textLength="166" x="878" y="1881.0703">:ListingController</text><rect fill="#E3E3E3" height="37.5547" rx="2.5" ry="2.5" style="stroke:#181818;stroke-width:0.5;" width="139" x="1061.5" y="50"/><text fill="#000000" font-family="sans-serif" font-size="20" lengthAdjust="spacing" textLength="125" x="1068.5" y="76.3359">:Repositories</text><rect fill="#E3E3E3" height="37.5547" rx="2.5" ry="2.5" style="stroke:#181818;stroke-width:0.5;" width="139" x="1061.5" y="1854.7344"/><text fill="#000000" font-family="sans-serif" font-size="20" lengthAdjust="spacing" textLength="125" x="1068.5" y="1881.0703">:Repositories</text><rect fill="#E3E3E3" height="61.1094" rx="2.5" ry="2.5" style="stroke:#181818;stroke-width:0.5;" width="134" x="1210.5" y="26.4453"/><text fill="#000000" font-family="sans-serif" font-size="20" lengthAdjust="spacing" textLength="120" x="1217.5" y="52.7813">repositories:</text><text fill="#000000" font-family="sans-serif" font-size="20" lengthAdjust="spacing" textLength="119" x="1218" y="76.3359">Repositories</text><rect fill="#E3E3E3" height="61.1094" rx="2.5" ry="2.5" style="stroke:#181818;stroke-width:0.5;" width="134" x="1210.5" y="1854.7344"/><text fill="#000000" font-family="sans-serif" font-size="20" lengthAdjust="spacing" textLength="120" x="1217.5" y="1881.0703">repositories:</text><text fill="#000000" font-family="sans-serif" font-size="20" lengthAdjust="spacing" textLength="119" x="1218" y="1904.625">Repositories</text><rect fill="#E3E3E3" height="61.1094" rx="2.5" ry="2.5" style="stroke:#181818;stroke-width:0.5;" width="263" x="1354.5" y="26.4453"/><text fill="#000000" font-family="sans-serif" font-size="20" lengthAdjust="spacing" textLength="249" x="1361.5" y="52.7813">announcementRepository:</text><text fill="#000000" font-family="sans-serif" font-size="20" lengthAdjust="spacing" textLength="246" x="1363" y="76.3359">AnnouncementRepository</text><rect fill="#E3E3E3" height="61.1094" rx="2.5" ry="2.5" style="stroke:#181818;stroke-width:0.5;" width="263" x="1354.5" y="1854.7344"/><text fill="#000000" font-family="sans-serif" font-size="20" lengthAdjust="spacing" textLength="249" x="1361.5" y="1881.0703">announcementRepository:</text><text fill="#000000" font-family="sans-serif" font-size="20" lengthAdjust="spacing" textLength="246" x="1363" y="1904.625">AnnouncementRepository</text><rect fill="#E3E3E3" height="61.1094" rx="2.5" ry="2.5" style="stroke:#181818;stroke-width:0.5;" width="161" x="1712.5" y="26.4453"/><text fill="#000000" font-family="sans-serif" font-size="20" lengthAdjust="spacing" textLength="147" x="1719.5" y="52.7813">announcement:</text><text fill="#000000" font-family="sans-serif" font-size="20" lengthAdjust="spacing" textLength="144" x="1721" y="76.3359">Announcement</text><rect fill="#E3E3E3" height="61.1094" rx="2.5" ry="2.5" style="stroke:#181818;stroke-width:0.5;" width="161" x="1712.5" y="1854.7344"/><text fill="#000000" font-family="sans-serif" font-size="20" lengthAdjust="spacing" textLength="147" x="1719.5" y="1881.0703">announcement:</text><text fill="#000000" font-family="sans-serif" font-size="20" lengthAdjust="spacing" textLength="144" x="1721" y="1904.625">Announcement</text><rect fill="#E3E3E3" height="61.1094" rx="2.5" ry="2.5" style="stroke:#181818;stroke-width:0.5;" width="102" x="1993" y="26.4453"/><text fill="#000000" font-family="sans-serif" font-size="20" lengthAdjust="spacing" textLength="88" x="2000" y="52.7813">property:</text><text fill="#000000" font-family="sans-serif" font-size="20" lengthAdjust="spacing" textLength="80" x="2004" y="76.3359">Property</text><rect fill="#E3E3E3" height="61.1094" rx="2.5" ry="2.5" style="stroke:#181818;stroke-width:0.5;" width="102" x="1993" y="1854.7344"/><text fill="#000000" font-family="sans-serif" font-size="20" lengthAdjust="spacing" textLength="88" x="2000" y="1881.0703">property:</text><text fill="#000000" font-family="sans-serif" font-size="20" lengthAdjust="spacing" textLength="80" x="2004" y="1904.625">Property</text><rect fill="#E3E3E3" height="61.1094" rx="2.5" ry="2.5" style="stroke:#181818;stroke-width:0.5;" width="62" x="2105" y="26.4453"/><text fill="#000000" font-family="sans-serif" font-size="20" lengthAdjust="spacing" textLength="48" x="2112" y="52.7813">land:</text><text fill="#000000" font-family="sans-serif" font-size="20" lengthAdjust="spacing" textLength="47" x="2112.5" y="76.3359">Land</text><rect fill="#E3E3E3" height="61.1094" rx="2.5" ry="2.5" style="stroke:#181818;stroke-width:0.5;" width="62" x="2105" y="1854.7344"/><text fill="#000000" font-family="sans-serif" font-size="20" lengthAdjust="spacing" textLength="48" x="2112" y="1881.0703">land:</text><text fill="#000000" font-family="sans-serif" font-size="20" lengthAdjust="spacing" textLength="47" x="2112.5" y="1904.625">Land</text><rect fill="#E3E3E3" height="61.1094" rx="2.5" ry="2.5" style="stroke:#181818;stroke-width:0.5;" width="119" x="2177" y="26.4453"/><text fill="#000000" font-family="sans-serif" font-size="20" lengthAdjust="spacing" textLength="105" x="2184" y="52.7813">apartment:</text><text fill="#000000" font-family="sans-serif" font-size="20" lengthAdjust="spacing" textLength="102" x="2185.5" y="76.3359">Apartment</text><rect fill="#E3E3E3" height="61.1094" rx="2.5" ry="2.5" style="stroke:#181818;stroke-width:0.5;" width="119" x="2177" y="1854.7344"/><text fill="#000000" font-family="sans-serif" font-size="20" lengthAdjust="spacing" textLength="105" x="2184" y="1881.0703">apartment:</text><text fill="#000000" font-family="sans-serif" font-size="20" lengthAdjust="spacing" textLength="102" x="2185.5" y="1904.625">Apartment</text><rect fill="#E3E3E3" height="61.1094" rx="2.5" ry="2.5" style="stroke:#181818;stroke-width:0.5;" width="77" x="2306" y="26.4453"/><text fill="#000000" font-family="sans-serif" font-size="20" lengthAdjust="spacing" textLength="63" x="2313" y="52.7813">house:</text><text fill="#000000" font-family="sans-serif" font-size="20" lengthAdjust="spacing" textLength="60" x="2314.5" y="76.3359">House</text><rect fill="#E3E3E3" height="61.1094" rx="2.5" ry="2.5" style="stroke:#181818;stroke-width:0.5;" width="77" x="2306" y="1854.7344"/><text fill="#000000" font-family="sans-serif" font-size="20" lengthAdjust="spacing" textLength="63" x="2313" y="1881.0703">house:</text><text fill="#000000" font-family="sans-serif" font-size="20" lengthAdjust="spacing" textLength="60" x="2314.5" y="1904.625">House</text><rect fill="#FFFFFF" height="1739.1797" style="stroke:#181818;stroke-width:1.0;" width="10" x="89" y="98.5547"/><rect fill="#FFFFFF" height="86.1094" style="stroke:#181818;stroke-width:1.0;" width="10" x="548" y="128.1094"/><rect fill="#FFFFFF" height="935.4219" style="stroke:#181818;stroke-width:1.0;" width="10" x="548" y="251.7734"/><rect fill="#FFFFFF" height="612.9844" style="stroke:#181818;stroke-width:1.0;" width="10" x="548" y="1224.75"/><rect fill="#FFFFFF" height="809.7578" style="stroke:#181818;stroke-width:1.0;" width="10" x="956" y="339.8828"/><rect fill="#FFFFFF" height="462.7656" style="stroke:#181818;stroke-width:1.0;" width="10" x="956" y="1337.4141"/><rect fill="#FFFFFF" height="37.5547" style="stroke:#181818;stroke-width:1.0;" width="10" x="1126" y="377.4375"/><rect fill="#FFFFFF" height="37.5547" style="stroke:#181818;stroke-width:1.0;" width="10" x="1272.5" y="452.5469"/><rect fill="#FFFFFF" height="584.4297" style="stroke:#181818;stroke-width:1.0;" width="10" x="1481" y="527.6563"/><rect fill="#FFFFFF" height="37.5547" style="stroke:#181818;stroke-width:1.0;" width="10" x="1481" y="1416.0781"/><rect fill="#FFFFFF" height="37.5547" style="stroke:#181818;stroke-width:1.0;" width="10" x="1481" y="1516.7422"/><rect fill="#FFFFFF" height="37.5547" style="stroke:#181818;stroke-width:1.0;" width="10" x="1481" y="1617.4063"/><rect fill="#FFFFFF" height="37.5547" style="stroke:#181818;stroke-width:1.0;" width="10" x="1481" y="1718.0703"/><rect fill="#FFFFFF" height="387.1016" style="stroke:#181818;stroke-width:1.0;" width="10" x="1788" y="629.875"/><rect fill="#FFFFFF" height="37.5547" style="stroke:#181818;stroke-width:1.0;" width="10" x="2039" y="717.9844"/><rect fill="#FFFFFF" height="37.5547" style="stroke:#181818;stroke-width:1.0;" width="10" x="2231.5" y="834.2031"/><rect fill="#FFFFFF" height="37.5547" style="stroke:#181818;stroke-width:1.0;" width="10" x="2339.5" y="934.8672"/><polygon fill="#181818" points="536,124.1094,546,128.1094,536,132.1094,540,128.1094" style="stroke:#181818;stroke-width:1.0;"/><line style="stroke:#181818;stroke-width:1.0;" x1="99" x2="542" y1="128.1094" y2="128.1094"/><text fill="#000000" font-family="sans-serif" font-size="20" font-weight="bold" lengthAdjust="spacing" textLength="13" x="106" y="121.8906">1</text><text fill="#000000" font-family="sans-serif" font-size="20" lengthAdjust="spacing" textLength="274" x="123" y="121.8906">asks to search for properties</text><polygon fill="#181818" points="859,161.6641,869,165.6641,859,169.6641,863,165.6641" style="stroke:#181818;stroke-width:1.0;"/><line style="stroke:#181818;stroke-width:1.0;" x1="558" x2="865" y1="165.6641" y2="165.6641"/><text fill="#000000" font-family="sans-serif" font-size="20" font-weight="bold" lengthAdjust="spacing" textLength="13" x="565" y="159.4453">2</text><text fill="#000000" font-family="sans-serif" font-size="20" lengthAdjust="spacing" textLength="58" x="582" y="159.4453">create</text><rect fill="#E3E3E3" height="37.5547" rx="2.5" ry="2.5" style="stroke:#181818;stroke-width:0.5;" width="180" x="871" y="136.1094"/><text fill="#000000" font-family="sans-serif" font-size="20" lengthAdjust="spacing" textLength="166" x="878" y="162.4453">:ListingController</text><polygon fill="#181818" points="110,210.2188,100,214.2188,110,218.2188,106,214.2188" style="stroke:#181818;stroke-width:1.0;"/><line style="stroke:#181818;stroke-width:1.0;stroke-dasharray:2.0,2.0;" x1="104" x2="552" y1="214.2188" y2="214.2188"/><text fill="#000000" font-family="sans-serif" font-size="20" font-weight="bold" lengthAdjust="spacing" textLength="13" x="116" y="208">3</text><text fill="#000000" font-family="sans-serif" font-size="20" lengthAdjust="spacing" textLength="130" x="133" y="208">requests data</text><polygon fill="#181818" points="536,247.7734,546,251.7734,536,255.7734,540,251.7734" style="stroke:#181818;stroke-width:1.0;"/><line style="stroke:#181818;stroke-width:1.0;" x1="99" x2="542" y1="251.7734" y2="251.7734"/><text fill="#000000" font-family="sans-serif" font-size="20" font-weight="bold" lengthAdjust="spacing" textLength="13" x="106" y="245.5547">4</text><text fill="#000000" font-family="sans-serif" font-size="20" lengthAdjust="spacing" textLength="373" x="123" y="245.5547">selects the requested data and confirm</text><line style="stroke:#181818;stroke-width:1.0;" x1="558" x2="600" y1="289.3281" y2="289.3281"/><line style="stroke:#181818;stroke-width:1.0;" x1="600" x2="600" y1="289.3281" y2="302.3281"/><line style="stroke:#181818;stroke-width:1.0;" x1="559" x2="600" y1="302.3281" y2="302.3281"/><polygon fill="#181818" points="569,298.3281,559,302.3281,569,306.3281,565,302.3281" style="stroke:#181818;stroke-width:1.0;"/><text fill="#000000" font-family="sans-serif" font-size="20" font-weight="bold" lengthAdjust="spacing" textLength="13" x="565" y="283.1094">5</text><text fill="#000000" font-family="sans-serif" font-size="20" lengthAdjust="spacing" textLength="117" x="582" y="283.1094">verifies data</text><polygon fill="#181818" points="944,335.8828,954,339.8828,944,343.8828,948,339.8828" style="stroke:#181818;stroke-width:1.0;"/><line style="stroke:#181818;stroke-width:1.0;" x1="558" x2="950" y1="339.8828" y2="339.8828"/><text fill="#000000" font-family="sans-serif" font-size="20" font-weight="bold" lengthAdjust="spacing" textLength="13" x="565" y="333.6641">6</text><text fill="#000000" font-family="sans-serif" font-size="20" lengthAdjust="spacing" textLength="362" x="582" y="333.6641">getPropertyList(business,type, rooms)</text><polygon fill="#181818" points="1114,373.4375,1124,377.4375,1114,381.4375,1118,377.4375" style="stroke:#181818;stroke-width:1.0;"/><line style="stroke:#181818;stroke-width:1.0;" x1="966" x2="1120" y1="377.4375" y2="377.4375"/><text fill="#000000" font-family="sans-serif" font-size="20" font-weight="bold" lengthAdjust="spacing" textLength="13" x="973" y="371.2188">7</text><text fill="#000000" font-family="sans-serif" font-size="20" lengthAdjust="spacing" textLength="123" x="990" y="371.2188">getInstance()</text><polygon fill="#181818" points="977,410.9922,967,414.9922,977,418.9922,973,414.9922" style="stroke:#181818;stroke-width:1.0;"/><line style="stroke:#181818;stroke-width:1.0;stroke-dasharray:2.0,2.0;" x1="971" x2="1130" y1="414.9922" y2="414.9922"/><text fill="#000000" font-family="sans-serif" font-size="20" font-weight="bold" lengthAdjust="spacing" textLength="13" x="983" y="408.7734">8</text><text fill="#000000" font-family="sans-serif" font-size="20" lengthAdjust="spacing" textLength="119" x="1000" y="408.7734">Repositories</text><polygon fill="#181818" points="1260.5,448.5469,1270.5,452.5469,1260.5,456.5469,1264.5,452.5469" style="stroke:#181818;stroke-width:1.0;"/><line style="stroke:#181818;stroke-width:1.0;" x1="966" x2="1266.5" y1="452.5469" y2="452.5469"/><text fill="#000000" font-family="sans-serif" font-size="20" font-weight="bold" lengthAdjust="spacing" textLength="13" x="973" y="446.3281">9</text><text fill="#000000" font-family="sans-serif" font-size="20" lengthAdjust="spacing" textLength="210" x="990" y="446.3281">getListingRepository()</text><polygon fill="#181818" points="977,486.1016,967,490.1016,977,494.1016,973,490.1016" style="stroke:#181818;stroke-width:1.0;"/><line style="stroke:#181818;stroke-width:1.0;stroke-dasharray:2.0,2.0;" x1="971" x2="1276.5" y1="490.1016" y2="490.1016"/><text fill="#000000" font-family="sans-serif" font-size="20" font-weight="bold" lengthAdjust="spacing" textLength="26" x="983" y="483.8828">10</text><text fill="#000000" font-family="sans-serif" font-size="20" lengthAdjust="spacing" textLength="166" x="1013" y="483.8828">ListingRepository</text><polygon fill="#181818" points="1469,523.6563,1479,527.6563,1469,531.6563,1473,527.6563" style="stroke:#181818;stroke-width:1.0;"/><line style="stroke:#181818;stroke-width:1.0;" x1="966" x2="1475" y1="527.6563" y2="527.6563"/><text fill="#000000" font-family="sans-serif" font-size="20" font-weight="bold" lengthAdjust="spacing" textLength="26" x="973" y="521.4375">11</text><text fill="#000000" font-family="sans-serif" font-size="20" lengthAdjust="spacing" textLength="374" x="1003" y="521.4375">getPropertyList (business, type, rooms)</text><path d="M1344.5,542.6563 L1435.5,542.6563 L1435.5,558.2109 L1425.5,568.2109 L1344.5,568.2109 L1344.5,542.6563 " fill="#EEEEEE" style="stroke:#000000;stroke-width:1.5;"/><rect fill="none" height="482.3203" style="stroke:#000000;stroke-width:1.5;" width="1058.5" x="1344.5" y="542.6563"/><text fill="#000000" font-family="sans-serif" font-size="20" font-weight="bold" lengthAdjust="spacing" textLength="46" x="1359.5" y="562.9922">loop</text><text fill="#000000" font-family="sans-serif" font-size="20" font-weight="bold" lengthAdjust="spacing" textLength="261" x="1450.5" y="563.9922">[for each Announcement]</text><polygon fill="#181818" points="1776,625.875,1786,629.875,1776,633.875,1780,629.875" style="stroke:#181818;stroke-width:1.0;"/><line style="stroke:#181818;stroke-width:1.0;" x1="1491" x2="1782" y1="629.875" y2="629.875"/><text fill="#000000" font-family="sans-serif" font-size="20" font-weight="bold" lengthAdjust="spacing" textLength="26" x="1498" y="611.8789">12</text><text fill="#000000" font-family="sans-serif" font-size="20" lengthAdjust="spacing" textLength="222" x="1528" y="600.1016">filterProperty(business,</text><text fill="#000000" font-family="sans-serif" font-size="20" lengthAdjust="spacing" textLength="115" x="1528" y="623.6563">type,rooms)</text><line style="stroke:#181818;stroke-width:1.0;" x1="1798" x2="1840" y1="667.4297" y2="667.4297"/><line style="stroke:#181818;stroke-width:1.0;" x1="1840" x2="1840" y1="667.4297" y2="680.4297"/><line style="stroke:#181818;stroke-width:1.0;" x1="1799" x2="1840" y1="680.4297" y2="680.4297"/><polygon fill="#181818" points="1809,676.4297,1799,680.4297,1809,684.4297,1805,680.4297" style="stroke:#181818;stroke-width:1.0;"/><text fill="#000000" font-family="sans-serif" font-size="20" font-weight="bold" lengthAdjust="spacing" textLength="26" x="1805" y="661.2109">13</text><text fill="#000000" font-family="sans-serif" font-size="20" lengthAdjust="spacing" textLength="197" x="1835" y="661.2109">isBusiness(business)</text><polygon fill="#181818" points="2027,713.9844,2037,717.9844,2027,721.9844,2031,717.9844" style="stroke:#181818;stroke-width:1.0;"/><line style="stroke:#181818;stroke-width:1.0;" x1="1798" x2="2033" y1="717.9844" y2="717.9844"/><text fill="#000000" font-family="sans-serif" font-size="20" font-weight="bold" lengthAdjust="spacing" textLength="26" x="1805" y="711.7656">14</text><text fill="#000000" font-family="sans-serif" font-size="20" lengthAdjust="spacing" textLength="118" x="1835" y="711.7656">isType(type)</text><polygon fill="#181818" points="1809,751.5391,1799,755.5391,1809,759.5391,1805,755.5391" style="stroke:#181818;stroke-width:1.0;"/><line style="stroke:#181818;stroke-width:1.0;stroke-dasharray:2.0,2.0;" x1="1803" x2="2043" y1="755.5391" y2="755.5391"/><text fill="#000000" font-family="sans-serif" font-size="20" font-weight="bold" lengthAdjust="spacing" textLength="26" x="1815" y="749.3203">15</text><text fill="#000000" font-family="sans-serif" font-size="20" lengthAdjust="spacing" textLength="93" x="1845" y="749.3203">true/false</text><path d="M1702.5,770.5391 L1774.5,770.5391 L1774.5,786.0938 L1764.5,796.0938 L1702.5,796.0938 L1702.5,770.5391 " fill="#EEEEEE" style="stroke:#000000;stroke-width:1.5;"/><rect fill="none" height="209.8828" style="stroke:#000000;stroke-width:1.5;" width="690.5" x="1702.5" y="770.5391"/><text fill="#000000" font-family="sans-serif" font-size="20" font-weight="bold" lengthAdjust="spacing" textLength="27" x="1717.5" y="790.875">alt</text><text fill="#000000" font-family="sans-serif" font-size="20" font-weight="bold" lengthAdjust="spacing" textLength="181" x="1789.5" y="791.875">[type=apartment]</text><polygon fill="#181818" points="2219.5,830.2031,2229.5,834.2031,2219.5,838.2031,2223.5,834.2031" style="stroke:#181818;stroke-width:1.0;"/><line style="stroke:#181818;stroke-width:1.0;" x1="1798" x2="2225.5" y1="834.2031" y2="834.2031"/><text fill="#000000" font-family="sans-serif" font-size="20" font-weight="bold" lengthAdjust="spacing" textLength="26" x="1805" y="827.9844">16</text><text fill="#000000" font-family="sans-serif" font-size="20" lengthAdjust="spacing" textLength="216" x="1835" y="827.9844">numberRooms(rooms)</text><polygon fill="#181818" points="1809,867.7578,1799,871.7578,1809,875.7578,1805,871.7578" style="stroke:#181818;stroke-width:1.0;"/><line style="stroke:#181818;stroke-width:1.0;stroke-dasharray:2.0,2.0;" x1="1803" x2="2235.5" y1="871.7578" y2="871.7578"/><text fill="#000000" font-family="sans-serif" font-size="20" font-weight="bold" lengthAdjust="spacing" textLength="26" x="1815" y="865.5391">17</text><text fill="#000000" font-family="sans-serif" font-size="20" lengthAdjust="spacing" textLength="93" x="1845" y="865.5391">true/false</text><line style="stroke:#000000;stroke-width:1.0;stroke-dasharray:2.0,2.0;" x1="1702.5" x2="2393" y1="880.7578" y2="880.7578"/><text fill="#000000" font-family="sans-serif" font-size="20" font-weight="bold" lengthAdjust="spacing" textLength="137" x="1707.5" y="900.0938">[type=house]</text><polygon fill="#181818" points="2327.5,930.8672,2337.5,934.8672,2327.5,938.8672,2331.5,934.8672" style="stroke:#181818;stroke-width:1.0;"/><line style="stroke:#181818;stroke-width:1.0;" x1="1798" x2="2333.5" y1="934.8672" y2="934.8672"/><text fill="#000000" font-family="sans-serif" font-size="20" font-weight="bold" lengthAdjust="spacing" textLength="26" x="1805" y="928.6484">18</text><text fill="#000000" font-family="sans-serif" font-size="20" lengthAdjust="spacing" textLength="216" x="1835" y="928.6484">numberRooms(rooms)</text><polygon fill="#181818" points="1809,968.4219,1799,972.4219,1809,976.4219,1805,972.4219" style="stroke:#181818;stroke-width:1.0;"/><line style="stroke:#181818;stroke-width:1.0;stroke-dasharray:2.0,2.0;" x1="1803" x2="2343.5" y1="972.4219" y2="972.4219"/><text fill="#000000" font-family="sans-serif" font-size="20" font-weight="bold" lengthAdjust="spacing" textLength="26" x="1815" y="966.2031">19</text><text fill="#000000" font-family="sans-serif" font-size="20" lengthAdjust="spacing" textLength="93" x="1845" y="966.2031">true/false</text><polygon fill="#181818" points="1502,1012.9766,1492,1016.9766,1502,1020.9766,1498,1016.9766" style="stroke:#181818;stroke-width:1.0;"/><line style="stroke:#181818;stroke-width:1.0;stroke-dasharray:2.0,2.0;" x1="1496" x2="1792" y1="1016.9766" y2="1016.9766"/><text fill="#000000" font-family="sans-serif" font-size="20" font-weight="bold" lengthAdjust="spacing" textLength="26" x="1508" y="1010.7578">20</text><text fill="#000000" font-family="sans-serif" font-size="20" lengthAdjust="spacing" textLength="80" x="1538" y="1010.7578">Property</text><line style="stroke:#181818;stroke-width:1.0;" x1="1491" x2="1533" y1="1061.5313" y2="1061.5313"/><line style="stroke:#181818;stroke-width:1.0;" x1="1533" x2="1533" y1="1061.5313" y2="1074.5313"/><line style="stroke:#181818;stroke-width:1.0;" x1="1492" x2="1533" y1="1074.5313" y2="1074.5313"/><polygon fill="#181818" points="1502,1070.5313,1492,1074.5313,1502,1078.5313,1498,1074.5313" style="stroke:#181818;stroke-width:1.0;"/><text fill="#000000" font-family="sans-serif" font-size="20" font-weight="bold" lengthAdjust="spacing" textLength="26" x="1498" y="1055.3125">21</text><text fill="#000000" font-family="sans-serif" font-size="20" lengthAdjust="spacing" textLength="253" x="1528" y="1055.3125">sortByRecent(propertyList)</text><polygon fill="#181818" points="977,1108.0859,967,1112.0859,977,1116.0859,973,1112.0859" style="stroke:#181818;stroke-width:1.0;"/><line style="stroke:#181818;stroke-width:1.0;stroke-dasharray:2.0,2.0;" x1="971" x2="1485" y1="1112.0859" y2="1112.0859"/><text fill="#000000" font-family="sans-serif" font-size="20" font-weight="bold" lengthAdjust="spacing" textLength="26" x="983" y="1105.8672">22</text><text fill="#000000" font-family="sans-serif" font-size="20" lengthAdjust="spacing" textLength="114" x="1013" y="1105.8672">PropertyList</text><polygon fill="#181818" points="569,1145.6406,559,1149.6406,569,1153.6406,565,1149.6406" style="stroke:#181818;stroke-width:1.0;"/><line style="stroke:#181818;stroke-width:1.0;stroke-dasharray:2.0,2.0;" x1="563" x2="960" y1="1149.6406" y2="1149.6406"/><text fill="#000000" font-family="sans-serif" font-size="20" font-weight="bold" lengthAdjust="spacing" textLength="26" x="575" y="1143.4219">23</text><text fill="#000000" font-family="sans-serif" font-size="20" lengthAdjust="spacing" textLength="114" x="605" y="1143.4219">PropertyList</text><polygon fill="#181818" points="110,1183.1953,100,1187.1953,110,1191.1953,106,1187.1953" style="stroke:#181818;stroke-width:1.0;"/><line style="stroke:#181818;stroke-width:1.0;stroke-dasharray:2.0,2.0;" x1="104" x2="552" y1="1187.1953" y2="1187.1953"/><text fill="#000000" font-family="sans-serif" font-size="20" font-weight="bold" lengthAdjust="spacing" textLength="26" x="116" y="1180.9766">24</text><text fill="#000000" font-family="sans-serif" font-size="20" lengthAdjust="spacing" textLength="375" x="146" y="1180.9766">shows the Announcement of properties</text><polygon fill="#181818" points="536,1220.75,546,1224.75,536,1228.75,540,1224.75" style="stroke:#181818;stroke-width:1.0;"/><line style="stroke:#181818;stroke-width:1.0;" x1="99" x2="542" y1="1224.75" y2="1224.75"/><text fill="#000000" font-family="sans-serif" font-size="20" font-weight="bold" lengthAdjust="spacing" textLength="26" x="106" y="1218.5313">25</text><text fill="#000000" font-family="sans-serif" font-size="20" lengthAdjust="spacing" textLength="297" x="136" y="1218.5313">asks to sort the Announcement</text><polygon fill="#181818" points="110,1258.3047,100,1262.3047,110,1266.3047,106,1262.3047" style="stroke:#181818;stroke-width:1.0;"/><line style="stroke:#181818;stroke-width:1.0;stroke-dasharray:2.0,2.0;" x1="104" x2="547" y1="1262.3047" y2="1262.3047"/><text fill="#000000" font-family="sans-serif" font-size="20" font-weight="bold" lengthAdjust="spacing" textLength="26" x="116" y="1256.0859">26</text><text fill="#000000" font-family="sans-serif" font-size="20" lengthAdjust="spacing" textLength="395" x="146" y="1256.0859">shows the Announcement of types of sort</text><polygon fill="#181818" points="536,1295.8594,546,1299.8594,536,1303.8594,540,1299.8594" style="stroke:#181818;stroke-width:1.0;"/><line style="stroke:#181818;stroke-width:1.0;" x1="99" x2="542" y1="1299.8594" y2="1299.8594"/><text fill="#000000" font-family="sans-serif" font-size="20" font-weight="bold" lengthAdjust="spacing" textLength="26" x="106" y="1293.6406">27</text><text fill="#000000" font-family="sans-serif" font-size="20" lengthAdjust="spacing" textLength="197" x="136" y="1293.6406">selects a type of sort</text><polygon fill="#181818" points="944,1333.4141,954,1337.4141,944,1341.4141,948,1337.4141" style="stroke:#181818;stroke-width:1.0;"/><line style="stroke:#181818;stroke-width:1.0;" x1="558" x2="950" y1="1337.4141" y2="1337.4141"/><text fill="#000000" font-family="sans-serif" font-size="20" font-weight="bold" lengthAdjust="spacing" textLength="26" x="565" y="1331.1953">28</text><text fill="#000000" font-family="sans-serif" font-size="20" lengthAdjust="spacing" textLength="158" x="595" y="1331.1953">getPropertyList()</text><path d="M861,1352.4141 L933,1352.4141 L933,1367.9688 L923,1377.9688 L861,1377.9688 L861,1352.4141 " fill="#EEEEEE" style="stroke:#000000;stroke-width:1.5;"/><rect fill="none" height="411.2109" style="stroke:#000000;stroke-width:1.5;" width="766.5" x="861" y="1352.4141"/><text fill="#000000" font-family="sans-serif" font-size="20" font-weight="bold" lengthAdjust="spacing" textLength="27" x="876" y="1372.75">alt</text><text fill="#000000" font-family="sans-serif" font-size="20" font-weight="bold" lengthAdjust="spacing" textLength="180" x="948" y="1373.75">[type==priceAsc]</text><polygon fill="#181818" points="1469,1412.0781,1479,1416.0781,1469,1420.0781,1473,1416.0781" style="stroke:#181818;stroke-width:1.0;"/><line style="stroke:#181818;stroke-width:1.0;" x1="966" x2="1475" y1="1416.0781" y2="1416.0781"/><text fill="#000000" font-family="sans-serif" font-size="20" font-weight="bold" lengthAdjust="spacing" textLength="26" x="973" y="1409.8594">29</text><text fill="#000000" font-family="sans-serif" font-size="20" lengthAdjust="spacing" textLength="269" x="1003" y="1409.8594">sortByPriceAsc(propertyList)</text><polygon fill="#181818" points="977,1449.6328,967,1453.6328,977,1457.6328,973,1453.6328" style="stroke:#181818;stroke-width:1.0;"/><line style="stroke:#181818;stroke-width:1.0;stroke-dasharray:2.0,2.0;" x1="971" x2="1485" y1="1453.6328" y2="1453.6328"/><text fill="#000000" font-family="sans-serif" font-size="20" font-weight="bold" lengthAdjust="spacing" textLength="26" x="983" y="1447.4141">30</text><text fill="#000000" font-family="sans-serif" font-size="20" lengthAdjust="spacing" textLength="194" x="1013" y="1447.4141">PropertyListOrdered</text><line style="stroke:#000000;stroke-width:1.0;stroke-dasharray:2.0,2.0;" x1="861" x2="1627.5" y1="1462.6328" y2="1462.6328"/><text fill="#000000" font-family="sans-serif" font-size="20" font-weight="bold" lengthAdjust="spacing" textLength="193" x="866" y="1481.9688">[type==priceDesc]</text><polygon fill="#181818" points="1469,1512.7422,1479,1516.7422,1469,1520.7422,1473,1516.7422" style="stroke:#181818;stroke-width:1.0;"/><line style="stroke:#181818;stroke-width:1.0;" x1="966" x2="1475" y1="1516.7422" y2="1516.7422"/><text fill="#000000" font-family="sans-serif" font-size="20" font-weight="bold" lengthAdjust="spacing" textLength="26" x="973" y="1510.5234">31</text><text fill="#000000" font-family="sans-serif" font-size="20" lengthAdjust="spacing" textLength="281" x="1003" y="1510.5234">sortByPriceDesc(propertyList)</text><polygon fill="#181818" points="977,1550.2969,967,1554.2969,977,1558.2969,973,1554.2969" style="stroke:#181818;stroke-width:1.0;"/><line style="stroke:#181818;stroke-width:1.0;stroke-dasharray:2.0,2.0;" x1="971" x2="1485" y1="1554.2969" y2="1554.2969"/><text fill="#000000" font-family="sans-serif" font-size="20" font-weight="bold" lengthAdjust="spacing" textLength="26" x="983" y="1548.0781">32</text><text fill="#000000" font-family="sans-serif" font-size="20" lengthAdjust="spacing" textLength="194" x="1013" y="1548.0781">PropertyListOrdered</text><line style="stroke:#000000;stroke-width:1.0;stroke-dasharray:2.0,2.0;" x1="861" x2="1627.5" y1="1563.2969" y2="1563.2969"/><text fill="#000000" font-family="sans-serif" font-size="20" font-weight="bold" lengthAdjust="spacing" textLength="156" x="866" y="1582.6328">[type==parish]</text><polygon fill="#181818" points="1469,1613.4063,1479,1617.4063,1469,1621.4063,1473,1617.4063" style="stroke:#181818;stroke-width:1.0;"/><line style="stroke:#181818;stroke-width:1.0;" x1="966" x2="1475" y1="1617.4063" y2="1617.4063"/><text fill="#000000" font-family="sans-serif" font-size="20" font-weight="bold" lengthAdjust="spacing" textLength="26" x="973" y="1611.1875">33</text><text fill="#000000" font-family="sans-serif" font-size="20" lengthAdjust="spacing" textLength="247" x="1003" y="1611.1875">sortByParish(propertyList)</text><polygon fill="#181818" points="977,1650.9609,967,1654.9609,977,1658.9609,973,1654.9609" style="stroke:#181818;stroke-width:1.0;"/><line style="stroke:#181818;stroke-width:1.0;stroke-dasharray:2.0,2.0;" x1="971" x2="1485" y1="1654.9609" y2="1654.9609"/><text fill="#000000" font-family="sans-serif" font-size="20" font-weight="bold" lengthAdjust="spacing" textLength="26" x="983" y="1648.7422">34</text><text fill="#000000" font-family="sans-serif" font-size="20" lengthAdjust="spacing" textLength="194" x="1013" y="1648.7422">PropertyListOrdered</text><line style="stroke:#000000;stroke-width:1.0;stroke-dasharray:2.0,2.0;" x1="861" x2="1627.5" y1="1663.9609" y2="1663.9609"/><text fill="#000000" font-family="sans-serif" font-size="20" font-weight="bold" lengthAdjust="spacing" textLength="156" x="866" y="1683.2969">[type==recent]</text><polygon fill="#181818" points="1469,1714.0703,1479,1718.0703,1469,1722.0703,1473,1718.0703" style="stroke:#181818;stroke-width:1.0;"/><line style="stroke:#181818;stroke-width:1.0;" x1="966" x2="1475" y1="1718.0703" y2="1718.0703"/><text fill="#000000" font-family="sans-serif" font-size="20" font-weight="bold" lengthAdjust="spacing" textLength="26" x="973" y="1711.8516">35</text><text fill="#000000" font-family="sans-serif" font-size="20" lengthAdjust="spacing" textLength="253" x="1003" y="1711.8516">sortByRecent(propertyList)</text><polygon fill="#181818" points="977,1751.625,967,1755.625,977,1759.625,973,1755.625" style="stroke:#181818;stroke-width:1.0;"/><line style="stroke:#181818;stroke-width:1.0;stroke-dasharray:2.0,2.0;" x1="971" x2="1485" y1="1755.625" y2="1755.625"/><text fill="#000000" font-family="sans-serif" font-size="20" font-weight="bold" lengthAdjust="spacing" textLength="26" x="983" y="1749.4063">36</text><text fill="#000000" font-family="sans-serif" font-size="20" lengthAdjust="spacing" textLength="194" x="1013" y="1749.4063">PropertyListOrdered</text><polygon fill="#181818" points="569,1796.1797,559,1800.1797,569,1804.1797,565,1800.1797" style="stroke:#181818;stroke-width:1.0;"/><line style="stroke:#181818;stroke-width:1.0;stroke-dasharray:2.0,2.0;" x1="563" x2="960" y1="1800.1797" y2="1800.1797"/><text fill="#000000" font-family="sans-serif" font-size="20" font-weight="bold" lengthAdjust="spacing" textLength="26" x="575" y="1793.9609">37</text><text fill="#000000" font-family="sans-serif" font-size="20" lengthAdjust="spacing" textLength="194" x="605" y="1793.9609">PropertyListOrdered</text><polygon fill="#181818" points="105,1833.7344,95,1837.7344,105,1841.7344,101,1837.7344" style="stroke:#181818;stroke-width:1.0;"/><line style="stroke:#181818;stroke-width:1.0;stroke-dasharray:2.0,2.0;" x1="99" x2="552" y1="1837.7344" y2="1837.7344"/><text fill="#000000" font-family="sans-serif" font-size="20" font-weight="bold" lengthAdjust="spacing" textLength="26" x="111" y="1831.5156">38</text><text fill="#000000" font-family="sans-serif" font-size="20" lengthAdjust="spacing" textLength="327" x="141" y="1831.5156">shows the Announcement ordered</text><!--SRC=[hLTDRziu4BtpLn2vn2vIjEZHG1Pe-e4r4A21KzroOQInHKGcjIJLhlVNxv2IB9AY9MqskaGM7n_VF0vd6Ft2HSqKErOoVu625h1dJMM-Is4U-Jz0FtqakeVGenGoBvKy0ZMg0M-aPlaBEy2ZELL05UI6YKFb0tJ92lcRYmFTiqe38QmnKZJ7Pr24N9Uy0BgNqZpBlmdBZLJqAXCA3bmRK2Whqw2kADCqomWI6fxpcWb3hpQFm5HUPjjsT1kDtYC1Ble5mr6ogZgIBpztzn5m1xNK71Vce1rcz-tXHuXH7cJp94OpS9o4CvWGiX4v746OC_o4Spyd1nnBF7IPCU8PpGvdrahMe8nT_Q5xTJFiT_9gQCL4WR1x_ECWzdUasFxgvVRl3kj6Gd0f6mq8_DF-TI3tXTW7quB_OWPi2X3QFLb6t_-1squt27xHr4YgNK9WDYdQ1O8RDCmOQBR3nuviQybiShnxjyaL88fSnm2xN8RBAVYh0MqqBPXXTALWZucApj_W4TAvuhNXKjnGoWKgERAAFebmn41U2fxZIF2vQ1HhttAfpJgGUDsAQlENpAfoY0964NkcQQZmiA9l9VHpRH6m8U5EeWInv-hOJlDvGiiSrIzGV8zM3qk7dYBa0APFA7imLy-DvWAqlZ6d6erJKXxrUhnJORZsSNp8Qm-fezqAZIKdXzKwsjFXETEvant0x1VdOQVJFze1q3DppDABmZhWD7MrPpZVIyIv8kAFu0TVseZqahuHKIylBZ2ZRQ73lj3anWI2H_Lg56CbPUsE8uehmmgLzEBQYh1KLct_lg5xNc4lk3j5MPFGTdvYRN7uFMaV_K3z97noChrdGKZskRJB0J8MWvlBzLqduAnaJIOPOq9RyHpHJvI_iZ6i9sQV8sWh-oMO8tq_bcll01-wTdvfxf2H4p8gunBjzjmh9YnC1EscePxsEh6pUxQQIeiu-hOHJMFT4g_q83gPxN9JO42wrf6s_T6P9pR4pVhlXWIcT8rt3jykzJ-CYSoP3XZmTa4MM90eSoYfF-PaJiHaZKfgcAiqRGdJKfcxqmvo_BAglPAxZi_uc6ze0Nwj9WiYQAio2Vj0txMJP1xHvQk6BkNlzk8GU2_t_hKhmUZVkrBND_Hen3fpVSksg2hBfZJPqwJjY-NtriTvsqr_2s8EDa8bBZFZkynw33_NjTjQyHm-wppOhdG_TOR7VJkPJLqwFNJSKK8jwbRfXZsPW67A_525_V-Cp9J-r319LxpMgwyGcJMQiTWQIpNZpIlyUIEF5lYKZ9nSRXcts5wuBiaYdaKkEhu55hxInZUqSi6DmpDAkKASHCrvagpXRsh9spcICiGsiI1MLmUdYEEUC6e9cql5DoBoMrtK5loV6VaN]--></g></svg>