<?xml version="1.0" encoding="UTF-8" standalone="no"?><svg xmlns="http://www.w3.org/2000/svg" xmlns:xlink="http://www.w3.org/1999/xlink" contentStyleType="text/css" height="724px" preserveAspectRatio="none" style="width:1325px;height:724px;background:#FFFFFF;" version="1.1" viewBox="0 0 1325 724" width="1325px" zoomAndPan="magnify"><defs/><g><rect fill="#FFFFFF" height="533.875" style="stroke:#181818;stroke-width:1.0;" width="10" x="423" y="106.6641"/><rect fill="#FFFFFF" height="387.1016" style="stroke:#181818;stroke-width:1.0;" width="10" x="704" y="208.8828"/><rect fill="#FFFFFF" height="37.5547" style="stroke:#181818;stroke-width:1.0;" width="10" x="955" y="296.9922"/><rect fill="#FFFFFF" height="37.5547" style="stroke:#181818;stroke-width:1.0;" width="10" x="1147.5" y="413.2109"/><rect fill="#FFFFFF" height="37.5547" style="stroke:#181818;stroke-width:1.0;" width="10" x="1255.5" y="513.875"/><rect fill="none" height="482.3203" style="stroke:#000000;stroke-width:1.5;" width="1032.5" x="286.5" y="121.6641"/><rect fill="none" height="209.8828" style="stroke:#000000;stroke-width:1.5;" width="690.5" x="618.5" y="349.5469"/><line style="stroke:#181818;stroke-width:0.5;stroke-dasharray:5.0,5.0;" x1="427.5" x2="427.5" y1="67.1094" y2="658.5391"/><line style="stroke:#181818;stroke-width:0.5;stroke-dasharray:5.0,5.0;" x1="708.5" x2="708.5" y1="67.1094" y2="658.5391"/><line style="stroke:#181818;stroke-width:0.5;stroke-dasharray:5.0,5.0;" x1="960" x2="960" y1="67.1094" y2="658.5391"/><line style="stroke:#181818;stroke-width:0.5;stroke-dasharray:5.0,5.0;" x1="1052" x2="1052" y1="67.1094" y2="658.5391"/><line style="stroke:#181818;stroke-width:0.5;stroke-dasharray:5.0,5.0;" x1="1152" x2="1152" y1="67.1094" y2="658.5391"/><line style="stroke:#181818;stroke-width:0.5;stroke-dasharray:5.0,5.0;" x1="1260" x2="1260" y1="67.1094" y2="658.5391"/><rect fill="#E3E3E3" height="61.1094" rx="2.5" ry="2.5" style="stroke:#181818;stroke-width:0.5;" width="263" x="296.5" y="5"/><text fill="#000000" font-family="sans-serif" font-size="20" lengthAdjust="spacing" textLength="249" x="303.5" y="31.3359">announcementRepository:</text><text fill="#000000" font-family="sans-serif" font-size="20" lengthAdjust="spacing" textLength="246" x="305" y="54.8906">AnnouncementRepository</text><rect fill="#E3E3E3" height="61.1094" rx="2.5" ry="2.5" style="stroke:#181818;stroke-width:0.5;" width="263" x="296.5" y="657.5391"/><text fill="#000000" font-family="sans-serif" font-size="20" lengthAdjust="spacing" textLength="249" x="303.5" y="683.875">announcementRepository:</text><text fill="#000000" font-family="sans-serif" font-size="20" lengthAdjust="spacing" textLength="246" x="305" y="707.4297">AnnouncementRepository</text><rect fill="#E3E3E3" height="61.1094" rx="2.5" ry="2.5" style="stroke:#181818;stroke-width:0.5;" width="161" x="628.5" y="5"/><text fill="#000000" font-family="sans-serif" font-size="20" lengthAdjust="spacing" textLength="147" x="635.5" y="31.3359">announcement:</text><text fill="#000000" font-family="sans-serif" font-size="20" lengthAdjust="spacing" textLength="144" x="637" y="54.8906">Announcement</text><rect fill="#E3E3E3" height="61.1094" rx="2.5" ry="2.5" style="stroke:#181818;stroke-width:0.5;" width="161" x="628.5" y="657.5391"/><text fill="#000000" font-family="sans-serif" font-size="20" lengthAdjust="spacing" textLength="147" x="635.5" y="683.875">announcement:</text><text fill="#000000" font-family="sans-serif" font-size="20" lengthAdjust="spacing" textLength="144" x="637" y="707.4297">Announcement</text><rect fill="#E3E3E3" height="61.1094" rx="2.5" ry="2.5" style="stroke:#181818;stroke-width:0.5;" width="102" x="909" y="5"/><text fill="#000000" font-family="sans-serif" font-size="20" lengthAdjust="spacing" textLength="88" x="916" y="31.3359">property:</text><text fill="#000000" font-family="sans-serif" font-size="20" lengthAdjust="spacing" textLength="80" x="920" y="54.8906">Property</text><rect fill="#E3E3E3" height="61.1094" rx="2.5" ry="2.5" style="stroke:#181818;stroke-width:0.5;" width="102" x="909" y="657.5391"/><text fill="#000000" font-family="sans-serif" font-size="20" lengthAdjust="spacing" textLength="88" x="916" y="683.875">property:</text><text fill="#000000" font-family="sans-serif" font-size="20" lengthAdjust="spacing" textLength="80" x="920" y="707.4297">Property</text><rect fill="#E3E3E3" height="61.1094" rx="2.5" ry="2.5" style="stroke:#181818;stroke-width:0.5;" width="62" x="1021" y="5"/><text fill="#000000" font-family="sans-serif" font-size="20" lengthAdjust="spacing" textLength="48" x="1028" y="31.3359">land:</text><text fill="#000000" font-family="sans-serif" font-size="20" lengthAdjust="spacing" textLength="47" x="1028.5" y="54.8906">Land</text><rect fill="#E3E3E3" height="61.1094" rx="2.5" ry="2.5" style="stroke:#181818;stroke-width:0.5;" width="62" x="1021" y="657.5391"/><text fill="#000000" font-family="sans-serif" font-size="20" lengthAdjust="spacing" textLength="48" x="1028" y="683.875">land:</text><text fill="#000000" font-family="sans-serif" font-size="20" lengthAdjust="spacing" textLength="47" x="1028.5" y="707.4297">Land</text><rect fill="#E3E3E3" height="61.1094" rx="2.5" ry="2.5" style="stroke:#181818;stroke-width:0.5;" width="119" x="1093" y="5"/><text fill="#000000" font-family="sans-serif" font-size="20" lengthAdjust="spacing" textLength="105" x="1100" y="31.3359">apartment:</text><text fill="#000000" font-family="sans-serif" font-size="20" lengthAdjust="spacing" textLength="102" x="1101.5" y="54.8906">Apartment</text><rect fill="#E3E3E3" height="61.1094" rx="2.5" ry="2.5" style="stroke:#181818;stroke-width:0.5;" width="119" x="1093" y="657.5391"/><text fill="#000000" font-family="sans-serif" font-size="20" lengthAdjust="spacing" textLength="105" x="1100" y="683.875">apartment:</text><text fill="#000000" font-family="sans-serif" font-size="20" lengthAdjust="spacing" textLength="102" x="1101.5" y="707.4297">Apartment</text><rect fill="#E3E3E3" height="61.1094" rx="2.5" ry="2.5" style="stroke:#181818;stroke-width:0.5;" width="77" x="1222" y="5"/><text fill="#000000" font-family="sans-serif" font-size="20" lengthAdjust="spacing" textLength="63" x="1229" y="31.3359">house:</text><text fill="#000000" font-family="sans-serif" font-size="20" lengthAdjust="spacing" textLength="60" x="1230.5" y="54.8906">House</text><rect fill="#E3E3E3" height="61.1094" rx="2.5" ry="2.5" style="stroke:#181818;stroke-width:0.5;" width="77" x="1222" y="657.5391"/><text fill="#000000" font-family="sans-serif" font-size="20" lengthAdjust="spacing" textLength="63" x="1229" y="683.875">house:</text><text fill="#000000" font-family="sans-serif" font-size="20" lengthAdjust="spacing" textLength="60" x="1230.5" y="707.4297">House</text><rect fill="#FFFFFF" height="533.875" style="stroke:#181818;stroke-width:1.0;" width="10" x="423" y="106.6641"/><rect fill="#FFFFFF" height="387.1016" style="stroke:#181818;stroke-width:1.0;" width="10" x="704" y="208.8828"/><rect fill="#FFFFFF" height="37.5547" style="stroke:#181818;stroke-width:1.0;" width="10" x="955" y="296.9922"/><rect fill="#FFFFFF" height="37.5547" style="stroke:#181818;stroke-width:1.0;" width="10" x="1147.5" y="413.2109"/><rect fill="#FFFFFF" height="37.5547" style="stroke:#181818;stroke-width:1.0;" width="10" x="1255.5" y="513.875"/><polygon fill="#181818" points="411,102.6641,421,106.6641,411,110.6641,415,106.6641" style="stroke:#181818;stroke-width:1.0;"/><line style="stroke:#181818;stroke-width:1.0;" x1="0" x2="417" y1="106.6641" y2="106.6641"/><text fill="#000000" font-family="sans-serif" font-size="20" font-weight="bold" lengthAdjust="spacing" textLength="26" x="7" y="100.4453">10</text><text fill="#000000" font-family="sans-serif" font-size="20" lengthAdjust="spacing" textLength="374" x="37" y="100.4453">getPropertyList (business, type, rooms)</text><path d="M286.5,121.6641 L377.5,121.6641 L377.5,137.2188 L367.5,147.2188 L286.5,147.2188 L286.5,121.6641 " fill="#EEEEEE" style="stroke:#000000;stroke-width:1.5;"/><rect fill="none" height="482.3203" style="stroke:#000000;stroke-width:1.5;" width="1032.5" x="286.5" y="121.6641"/><text fill="#000000" font-family="sans-serif" font-size="20" font-weight="bold" lengthAdjust="spacing" textLength="46" x="301.5" y="142">loop</text><text fill="#000000" font-family="sans-serif" font-size="20" font-weight="bold" lengthAdjust="spacing" textLength="261" x="392.5" y="143">[for each Announcement]</text><polygon fill="#181818" points="692,204.8828,702,208.8828,692,212.8828,696,208.8828" style="stroke:#181818;stroke-width:1.0;"/><line style="stroke:#181818;stroke-width:1.0;" x1="433" x2="698" y1="208.8828" y2="208.8828"/><text fill="#000000" font-family="sans-serif" font-size="20" font-weight="bold" lengthAdjust="spacing" textLength="26" x="440" y="190.8867">11</text><text fill="#000000" font-family="sans-serif" font-size="20" lengthAdjust="spacing" textLength="222" x="470" y="179.1094">filterProperty(business,</text><text fill="#000000" font-family="sans-serif" font-size="20" lengthAdjust="spacing" textLength="115" x="470" y="202.6641">type,rooms)</text><line style="stroke:#181818;stroke-width:1.0;" x1="714" x2="756" y1="246.4375" y2="246.4375"/><line style="stroke:#181818;stroke-width:1.0;" x1="756" x2="756" y1="246.4375" y2="259.4375"/><line style="stroke:#181818;stroke-width:1.0;" x1="715" x2="756" y1="259.4375" y2="259.4375"/><polygon fill="#181818" points="725,255.4375,715,259.4375,725,263.4375,721,259.4375" style="stroke:#181818;stroke-width:1.0;"/><text fill="#000000" font-family="sans-serif" font-size="20" font-weight="bold" lengthAdjust="spacing" textLength="26" x="721" y="240.2188">12</text><text fill="#000000" font-family="sans-serif" font-size="20" lengthAdjust="spacing" textLength="197" x="751" y="240.2188">isBusiness(business)</text><polygon fill="#181818" points="943,292.9922,953,296.9922,943,300.9922,947,296.9922" style="stroke:#181818;stroke-width:1.0;"/><line style="stroke:#181818;stroke-width:1.0;" x1="714" x2="949" y1="296.9922" y2="296.9922"/><text fill="#000000" font-family="sans-serif" font-size="20" font-weight="bold" lengthAdjust="spacing" textLength="26" x="721" y="290.7734">13</text><text fill="#000000" font-family="sans-serif" font-size="20" lengthAdjust="spacing" textLength="118" x="751" y="290.7734">isType(type)</text><polygon fill="#181818" points="725,330.5469,715,334.5469,725,338.5469,721,334.5469" style="stroke:#181818;stroke-width:1.0;"/><line style="stroke:#181818;stroke-width:1.0;stroke-dasharray:2.0,2.0;" x1="719" x2="959" y1="334.5469" y2="334.5469"/><text fill="#000000" font-family="sans-serif" font-size="20" font-weight="bold" lengthAdjust="spacing" textLength="26" x="731" y="328.3281">14</text><text fill="#000000" font-family="sans-serif" font-size="20" lengthAdjust="spacing" textLength="93" x="761" y="328.3281">true/false</text><path d="M618.5,349.5469 L690.5,349.5469 L690.5,365.1016 L680.5,375.1016 L618.5,375.1016 L618.5,349.5469 " fill="#EEEEEE" style="stroke:#000000;stroke-width:1.5;"/><rect fill="none" height="209.8828" style="stroke:#000000;stroke-width:1.5;" width="690.5" x="618.5" y="349.5469"/><text fill="#000000" font-family="sans-serif" font-size="20" font-weight="bold" lengthAdjust="spacing" textLength="27" x="633.5" y="369.8828">alt</text><text fill="#000000" font-family="sans-serif" font-size="20" font-weight="bold" lengthAdjust="spacing" textLength="181" x="705.5" y="370.8828">[type=apartment]</text><polygon fill="#181818" points="1135.5,409.2109,1145.5,413.2109,1135.5,417.2109,1139.5,413.2109" style="stroke:#181818;stroke-width:1.0;"/><line style="stroke:#181818;stroke-width:1.0;" x1="714" x2="1141.5" y1="413.2109" y2="413.2109"/><text fill="#000000" font-family="sans-serif" font-size="20" font-weight="bold" lengthAdjust="spacing" textLength="26" x="721" y="406.9922">15</text><text fill="#000000" font-family="sans-serif" font-size="20" lengthAdjust="spacing" textLength="216" x="751" y="406.9922">numberRooms(rooms)</text><polygon fill="#181818" points="725,446.7656,715,450.7656,725,454.7656,721,450.7656" style="stroke:#181818;stroke-width:1.0;"/><line style="stroke:#181818;stroke-width:1.0;stroke-dasharray:2.0,2.0;" x1="719" x2="1151.5" y1="450.7656" y2="450.7656"/><text fill="#000000" font-family="sans-serif" font-size="20" font-weight="bold" lengthAdjust="spacing" textLength="26" x="731" y="444.5469">16</text><text fill="#000000" font-family="sans-serif" font-size="20" lengthAdjust="spacing" textLength="93" x="761" y="444.5469">true/false</text><line style="stroke:#000000;stroke-width:1.0;stroke-dasharray:2.0,2.0;" x1="618.5" x2="1309" y1="459.7656" y2="459.7656"/><text fill="#000000" font-family="sans-serif" font-size="20" font-weight="bold" lengthAdjust="spacing" textLength="137" x="623.5" y="479.1016">[type=house]</text><polygon fill="#181818" points="1243.5,509.875,1253.5,513.875,1243.5,517.875,1247.5,513.875" style="stroke:#181818;stroke-width:1.0;"/><line style="stroke:#181818;stroke-width:1.0;" x1="714" x2="1249.5" y1="513.875" y2="513.875"/><text fill="#000000" font-family="sans-serif" font-size="20" font-weight="bold" lengthAdjust="spacing" textLength="26" x="721" y="507.6563">17</text><text fill="#000000" font-family="sans-serif" font-size="20" lengthAdjust="spacing" textLength="216" x="751" y="507.6563">numberRooms(rooms)</text><polygon fill="#181818" points="725,547.4297,715,551.4297,725,555.4297,721,551.4297" style="stroke:#181818;stroke-width:1.0;"/><line style="stroke:#181818;stroke-width:1.0;stroke-dasharray:2.0,2.0;" x1="719" x2="1259.5" y1="551.4297" y2="551.4297"/><text fill="#000000" font-family="sans-serif" font-size="20" font-weight="bold" lengthAdjust="spacing" textLength="26" x="731" y="545.2109">18</text><text fill="#000000" font-family="sans-serif" font-size="20" lengthAdjust="spacing" textLength="93" x="761" y="545.2109">true/false</text><polygon fill="#181818" points="444,591.9844,434,595.9844,444,599.9844,440,595.9844" style="stroke:#181818;stroke-width:1.0;"/><line style="stroke:#181818;stroke-width:1.0;stroke-dasharray:2.0,2.0;" x1="438" x2="708" y1="595.9844" y2="595.9844"/><text fill="#000000" font-family="sans-serif" font-size="20" font-weight="bold" lengthAdjust="spacing" textLength="26" x="450" y="589.7656">19</text><text fill="#000000" font-family="sans-serif" font-size="20" lengthAdjust="spacing" textLength="80" x="480" y="589.7656">Property</text><polygon fill="#181818" points="11,636.5391,1,640.5391,11,644.5391,7,640.5391" style="stroke:#181818;stroke-width:1.0;"/><line style="stroke:#181818;stroke-width:1.0;stroke-dasharray:2.0,2.0;" x1="5" x2="427" y1="640.5391" y2="640.5391"/><text fill="#000000" font-family="sans-serif" font-size="20" font-weight="bold" lengthAdjust="spacing" textLength="26" x="17" y="634.3203">20</text><text fill="#000000" font-family="sans-serif" font-size="20" lengthAdjust="spacing" textLength="253" x="47" y="634.3203">sortByRecent(propertyList)</text><!--SRC=[hLKzRzim4DtvAmvPQWCncdOqsWBrK7J8K3WTip3KsIPCaGHvQg7- -fAKv4YKWj1jRX4_xkuzFXsF_YorvOxNoeWpLb3XWJUAlXbD3_8FmiSxvWSNg8qsukHCZK2kmT6EvUBCZ_X0hK9mA8Zhenex-1Elp6-fZt3WoYEB5dP82ccv9hZXMfj62wnHqnwjyPACQxUF-klYnWrm3_dMoncpFBFeQQHrngAZYFwZ7wQ8kCx-sLLnNGMt-_19Bd6UCOwpWUumJhvfP-fyCet7uFWzVfDJMWcwyeQCRkedTF3XZcs-p7JQmX5fe7ilFS7ggV5Ie_UtGAt5Mt36r7xDO6HSaFp52UUoZxsKCHOEnW5oSPfg3A_PkyWbPeH0UXXluI0LeTkrpoGJnmMAYvRJXKoH0M0Gv1dcKO-1NaTQL2YLEfJOE2ed2LkGVjSJkp1Si-BiUV9Oe2dfpt34LJpdkZ3JvPHTZPU49B3D_4YnYxpl6q99dWe7y4AgYb8zVxxShC9ViI1OIX4uTpTh7sjYLLg2kNBTTIwFIz1leDzKmvv6QI06c4xDhj705PQBcJBydvWJGVlMTqriH-6DHCs4BHS8mnl0hfHleQC7saFxOjSGBUxFYUUdpMRXBV76qQxTemWhApjwLMR_yWNWz8Qmlm00]--></g></svg>