<?xml version="1.0" encoding="UTF-8" standalone="no"?><svg xmlns="http://www.w3.org/2000/svg" xmlns:xlink="http://www.w3.org/1999/xlink" contentStyleType="text/css" height="632px" preserveAspectRatio="none" style="width:1441px;height:632px;background:#FFFFFF;" version="1.1" viewBox="0 0 1441 632" width="1441px" zoomAndPan="magnify"><defs/><g><!--class ctrl--><g id="elem_ctrl"><rect codeLine="11" fill="#F1F1F1" height="144.2188" id="ctrl" rx="2.5" ry="2.5" style="stroke:#181818;stroke-width:0.5;" width="336" x="832" y="118"/><ellipse cx="887.5" cy="135" fill="#ADD1B2" rx="12" ry="12" style="stroke:#181818;stroke-width:1.0;"/><path d="M890.3066,142.0801 Q889.623,142.4316 888.8711,142.6074 Q888.1191,142.7832 887.2891,142.7832 Q884.3398,142.7832 882.7871,140.8398 Q881.2344,138.8965 881.2344,135.2246 Q881.2344,131.543 882.7871,129.5996 Q884.3398,127.6563 887.2891,127.6563 Q888.1191,127.6563 888.8809,127.832 Q889.6426,128.0078 890.3066,128.3594 L890.3066,131.5625 Q889.5645,130.8789 888.8662,130.5615 Q888.168,130.2441 887.4258,130.2441 Q885.8438,130.2441 885.0381,131.499 Q884.2324,132.7539 884.2324,135.2246 Q884.2324,137.6855 885.0381,138.9404 Q885.8438,140.1953 887.4258,140.1953 Q888.168,140.1953 888.8662,139.8779 Q889.5645,139.5605 890.3066,138.877 Z " fill="#000000"/><text fill="#000000" font-family="sans-serif" font-size="20" lengthAdjust="spacing" textLength="216" x="909.5" y="142.5586">ControllerDivideStores</text><line style="stroke:#181818;stroke-width:0.5;" x1="833" x2="1167" y1="152" y2="152"/><line style="stroke:#181818;stroke-width:0.5;" x1="833" x2="1167" y1="160" y2="160"/><text fill="#000000" font-family="sans-serif" font-size="20" lengthAdjust="spacing" textLength="231" x="838" y="183.3359">+getAgencyRepository()</text><text fill="#000000" font-family="sans-serif" font-size="20" lengthAdjust="spacing" textLength="306" x="838" y="206.8906">+getAnnouncementRepository()</text><text fill="#000000" font-family="sans-serif" font-size="20" lengthAdjust="spacing" textLength="146" x="838" y="230.4453">+getAgencies()</text><text fill="#000000" font-family="sans-serif" font-size="20" lengthAdjust="spacing" textLength="324" x="838" y="254">+getNrProperitesForEachAgency()</text></g><!--class repo--><g id="elem_repo"><rect codeLine="19" fill="#F1F1F1" height="144.2188" id="repo" rx="2.5" ry="2.5" style="stroke:#181818;stroke-width:0.5;" width="318" x="7" y="323"/><ellipse cx="102" cy="340" fill="#ADD1B2" rx="12" ry="12" style="stroke:#181818;stroke-width:1.0;"/><path d="M104.8066,347.0801 Q104.123,347.4316 103.3711,347.6074 Q102.6191,347.7832 101.7891,347.7832 Q98.8398,347.7832 97.2871,345.8398 Q95.7344,343.8965 95.7344,340.2246 Q95.7344,336.543 97.2871,334.5996 Q98.8398,332.6563 101.7891,332.6563 Q102.6191,332.6563 103.3809,332.832 Q104.1426,333.0078 104.8066,333.3594 L104.8066,336.5625 Q104.0645,335.8789 103.3662,335.5615 Q102.668,335.2441 101.9258,335.2441 Q100.3438,335.2441 99.5381,336.499 Q98.7324,337.7539 98.7324,340.2246 Q98.7324,342.6855 99.5381,343.9404 Q100.3438,345.1953 101.9258,345.1953 Q102.668,345.1953 103.3662,344.8779 Q104.0645,344.5605 104.8066,343.877 Z " fill="#000000"/><text fill="#000000" font-family="sans-serif" font-size="20" lengthAdjust="spacing" textLength="119" x="124" y="347.5586">Repositories</text><line style="stroke:#181818;stroke-width:0.5;" x1="8" x2="324" y1="357" y2="357"/><line style="stroke:#181818;stroke-width:0.5;" x1="8" x2="324" y1="365" y2="365"/><text fill="#000000" font-family="sans-serif" font-size="20" lengthAdjust="spacing" textLength="145" x="13" y="388.3359">-Repositories()</text><text fill="#000000" font-family="sans-serif" font-size="20" lengthAdjust="spacing" textLength="276" x="13" y="411.8906">+getInstance() : Repositories</text><text fill="#000000" font-family="sans-serif" font-size="20" lengthAdjust="spacing" textLength="306" x="13" y="435.4453">+getAnnouncementRepository()</text><text fill="#000000" font-family="sans-serif" font-size="20" lengthAdjust="spacing" textLength="231" x="13" y="459">+getAgencyRepository()</text></g><!--class announcementRepo--><g id="elem_announcementRepo"><rect codeLine="26" fill="#F1F1F1" height="73.5547" id="announcementRepo" rx="2.5" ry="2.5" style="stroke:#181818;stroke-width:0.5;" width="379" x="469.5" y="358"/><ellipse cx="531.5" cy="375" fill="#ADD1B2" rx="12" ry="12" style="stroke:#181818;stroke-width:1.0;"/><path d="M534.3066,382.0801 Q533.623,382.4316 532.8711,382.6074 Q532.1191,382.7832 531.2891,382.7832 Q528.3398,382.7832 526.7871,380.8398 Q525.2344,378.8965 525.2344,375.2246 Q525.2344,371.543 526.7871,369.5996 Q528.3398,367.6563 531.2891,367.6563 Q532.1191,367.6563 532.8809,367.832 Q533.6426,368.0078 534.3066,368.3594 L534.3066,371.5625 Q533.5645,370.8789 532.8662,370.5615 Q532.168,370.2441 531.4258,370.2441 Q529.8438,370.2441 529.0381,371.499 Q528.2324,372.7539 528.2324,375.2246 Q528.2324,377.6855 529.0381,378.9404 Q529.8438,380.1953 531.4258,380.1953 Q532.168,380.1953 532.8662,379.8779 Q533.5645,379.5605 534.3066,378.877 Z " fill="#000000"/><text fill="#000000" font-family="sans-serif" font-size="20" lengthAdjust="spacing" textLength="246" x="553.5" y="382.5586">AnnouncementRepository</text><line style="stroke:#181818;stroke-width:0.5;" x1="470.5" x2="847.5" y1="392" y2="392"/><line style="stroke:#181818;stroke-width:0.5;" x1="470.5" x2="847.5" y1="400" y2="400"/><text fill="#000000" font-family="sans-serif" font-size="20" lengthAdjust="spacing" textLength="367" x="475.5" y="423.3359">+getNrPropertiesOfAnAgency(Agency)</text></g><!--class bruteForce--><g id="elem_bruteForce"><rect codeLine="29" fill="#F1F1F1" height="73.5547" id="bruteForce" rx="2.5" ry="2.5" style="stroke:#181818;stroke-width:0.5;" width="232" x="884" y="358"/><ellipse cx="900" cy="375" fill="#ADD1B2" rx="12" ry="12" style="stroke:#181818;stroke-width:1.0;"/><path d="M902.8066,382.0801 Q902.123,382.4316 901.3711,382.6074 Q900.6191,382.7832 899.7891,382.7832 Q896.8398,382.7832 895.2871,380.8398 Q893.7344,378.8965 893.7344,375.2246 Q893.7344,371.543 895.2871,369.5996 Q896.8398,367.6563 899.7891,367.6563 Q900.6191,367.6563 901.3809,367.832 Q902.1426,368.0078 902.8066,368.3594 L902.8066,371.5625 Q902.0645,370.8789 901.3662,370.5615 Q900.668,370.2441 899.9258,370.2441 Q898.3438,370.2441 897.5381,371.499 Q896.7324,372.7539 896.7324,375.2246 Q896.7324,377.6855 897.5381,378.9404 Q898.3438,380.1953 899.9258,380.1953 Q900.668,380.1953 901.3662,379.8779 Q902.0645,379.5605 902.8066,378.877 Z " fill="#000000"/><text fill="#000000" font-family="sans-serif" font-size="20" lengthAdjust="spacing" textLength="198" x="915" y="382.5586">BruteForceAlgorithm</text><line style="stroke:#181818;stroke-width:0.5;" x1="885" x2="1115" y1="392" y2="392"/><line style="stroke:#181818;stroke-width:0.5;" x1="885" x2="1115" y1="400" y2="400"/><text fill="#000000" font-family="sans-serif" font-size="20" lengthAdjust="spacing" textLength="203" x="890" y="423.3359">+getPartition(matrix)</text></g><!--class announcementAvailable--><g id="elem_announcementAvailable"><rect codeLine="33" fill="#F1F1F1" height="73.5547" id="announcementAvailable" rx="2.5" ry="2.5" style="stroke:#181818;stroke-width:0.5;" width="266" x="781" y="552"/><ellipse cx="797" cy="569" fill="#ADD1B2" rx="12" ry="12" style="stroke:#181818;stroke-width:1.0;"/><path d="M799.8066,576.0801 Q799.123,576.4316 798.3711,576.6074 Q797.6191,576.7832 796.7891,576.7832 Q793.8398,576.7832 792.2871,574.8398 Q790.7344,572.8965 790.7344,569.2246 Q790.7344,565.543 792.2871,563.5996 Q793.8398,561.6563 796.7891,561.6563 Q797.6191,561.6563 798.3809,561.832 Q799.1426,562.0078 799.8066,562.3594 L799.8066,565.5625 Q799.0645,564.8789 798.3662,564.5615 Q797.668,564.2441 796.9258,564.2441 Q795.3438,564.2441 794.5381,565.499 Q793.7324,566.7539 793.7324,569.2246 Q793.7324,571.6855 794.5381,572.9404 Q795.3438,574.1953 796.9258,574.1953 Q797.668,574.1953 798.3662,573.8779 Q799.0645,573.5605 799.8066,572.877 Z " fill="#000000"/><text fill="#000000" font-family="sans-serif" font-size="20" lengthAdjust="spacing" textLength="232" x="812" y="576.5586">AnnouncementAvailable</text><line style="stroke:#181818;stroke-width:0.5;" x1="782" x2="1046" y1="586" y2="586"/><line style="stroke:#181818;stroke-width:0.5;" x1="782" x2="1046" y1="594" y2="594"/><text fill="#000000" font-family="sans-serif" font-size="20" lengthAdjust="spacing" textLength="116" x="787" y="617.3359">+getAgent()</text></g><!--class agency--><g id="elem_agency"><rect codeLine="37" fill="#F1F1F1" height="97.1094" id="agency" rx="2.5" ry="2.5" style="stroke:#181818;stroke-width:0.5;" width="212" x="1222" y="346.5"/><ellipse cx="1289" cy="363.5" fill="#ADD1B2" rx="12" ry="12" style="stroke:#181818;stroke-width:1.0;"/><path d="M1291.8066,370.5801 Q1291.123,370.9316 1290.3711,371.1074 Q1289.6191,371.2832 1288.7891,371.2832 Q1285.8398,371.2832 1284.2871,369.3398 Q1282.7344,367.3965 1282.7344,363.7246 Q1282.7344,360.043 1284.2871,358.0996 Q1285.8398,356.1563 1288.7891,356.1563 Q1289.6191,356.1563 1290.3809,356.332 Q1291.1426,356.5078 1291.8066,356.8594 L1291.8066,360.0625 Q1291.0645,359.3789 1290.3662,359.0615 Q1289.668,358.7441 1288.9258,358.7441 Q1287.3438,358.7441 1286.5381,359.999 Q1285.7324,361.2539 1285.7324,363.7246 Q1285.7324,366.1855 1286.5381,367.4404 Q1287.3438,368.6953 1288.9258,368.6953 Q1289.668,368.6953 1290.3662,368.3779 Q1291.0645,368.0605 1291.8066,367.377 Z " fill="#000000"/><text fill="#000000" font-family="sans-serif" font-size="20" lengthAdjust="spacing" textLength="69" x="1311" y="371.0586">Agency</text><line style="stroke:#181818;stroke-width:0.5;" x1="1223" x2="1433" y1="380.5" y2="380.5"/><line style="stroke:#181818;stroke-width:0.5;" x1="1223" x2="1433" y1="388.5" y2="388.5"/><text fill="#000000" font-family="sans-serif" font-size="20" lengthAdjust="spacing" textLength="200" x="1228" y="411.8359">-searchAgent(Agent)</text><text fill="#000000" font-family="sans-serif" font-size="20" lengthAdjust="spacing" textLength="116" x="1228" y="435.3906">+getName()</text></g><!--class UI--><g id="elem_UI"><rect codeLine="43" fill="#F1F1F1" height="50" id="UI" rx="2.5" ry="2.5" style="stroke:#181818;stroke-width:0.5;" width="252" x="874" y="7"/><ellipse cx="890" cy="24" fill="#ADD1B2" rx="12" ry="12" style="stroke:#181818;stroke-width:1.0;"/><path d="M892.8066,31.0801 Q892.123,31.4316 891.3711,31.6074 Q890.6191,31.7832 889.7891,31.7832 Q886.8398,31.7832 885.2871,29.8398 Q883.7344,27.8965 883.7344,24.2246 Q883.7344,20.543 885.2871,18.5996 Q886.8398,16.6563 889.7891,16.6563 Q890.6191,16.6563 891.3809,16.832 Q892.1426,17.0078 892.8066,17.3594 L892.8066,20.5625 Q892.0645,19.8789 891.3662,19.5615 Q890.668,19.2441 889.9258,19.2441 Q888.3438,19.2441 887.5381,20.499 Q886.7324,21.7539 886.7324,24.2246 Q886.7324,26.6855 887.5381,27.9404 Q888.3438,29.1953 889.9258,29.1953 Q890.668,29.1953 891.3662,28.8779 Q892.0645,28.5605 892.8066,27.877 Z " fill="#000000"/><text fill="#000000" font-family="sans-serif" font-size="20" lengthAdjust="spacing" textLength="218" x="905" y="31.5586">DivideSetOfAllStoresUI</text><line style="stroke:#181818;stroke-width:0.5;" x1="875" x2="1125" y1="41" y2="41"/><line style="stroke:#181818;stroke-width:0.5;" x1="875" x2="1125" y1="49" y2="49"/></g><!--link ctrl to announcementRepo--><g id="link_ctrl_announcementRepo"><path codeLine="71" d="M880.26,262.28 C827.75,293.54 768.18,329.01 724.09,355.25 " fill="none" id="ctrl-to-announcementRepo" style="stroke:#181818;stroke-width:1.0;stroke-dasharray:7.0,7.0;"/><polygon fill="#181818" points="719.6,357.93,729.38,356.7678,723.8975,355.3743,725.291,349.8918,719.6,357.93" style="stroke:#181818;stroke-width:1.0;"/></g><!--link ctrl to repo--><g id="link_ctrl_repo"><path codeLine="72" d="M831.86,231.5 C670.77,270.3 452,323 452,323 C452,323 394.04,337.39 330.3,353.21 " fill="none" id="ctrl-to-repo" style="stroke:#181818;stroke-width:1.0;stroke-dasharray:7.0,7.0;"/><polygon fill="#181818" points="325.31,354.45,335.0067,356.1746,330.1641,353.2508,333.0879,348.4081,325.31,354.45" style="stroke:#181818;stroke-width:1.0;"/></g><!--link ctrl to announcementAvailable--><g id="link_ctrl_announcementAvailable"><path codeLine="73" d="M1071.56,262.02 C1103.04,293.27 1133,323 1133,323 C1133,323 1133,467 1133,467 C1133,467 1067,522 1067,522 C1067,522 1036.46,535.17 1002.67,549.75 " fill="none" id="ctrl-to-announcementAvailable" style="stroke:#181818;stroke-width:1.0;stroke-dasharray:7.0,7.0;"/><polygon fill="#181818" points="997.66,551.91,1007.5083,552.0155,1002.2505,549.9284,1004.3377,544.6706,997.66,551.91" style="stroke:#181818;stroke-width:1.0;"/></g><!--link ctrl to agency--><g id="link_ctrl_agency"><path codeLine="74" d="M1137.29,262.11 C1169.68,278.88 1195,292 1195,292 C1195,292 1228.4,317.61 1261.72,343.17 " fill="none" id="ctrl-to-agency" style="stroke:#181818;stroke-width:1.0;stroke-dasharray:7.0,7.0;"/><polygon fill="#181818" points="1265.78,346.29,1261.0687,337.6411,1261.811,343.249,1256.2031,343.9914,1265.78,346.29" style="stroke:#181818;stroke-width:1.0;"/></g><!--link UI to ctrl--><g id="link_UI_ctrl"><path codeLine="78" d="M1000,57.03 C1000,72.08 1000,92.39 1000,112.55 " fill="none" id="UI-to-ctrl" style="stroke:#181818;stroke-width:1.0;stroke-dasharray:7.0,7.0;"/><polygon fill="#181818" points="1000,117.68,1004,108.68,1000,112.68,996,108.68,1000,117.68" style="stroke:#181818;stroke-width:1.0;"/></g><!--link ctrl to bruteForce--><g id="link_ctrl_bruteForce"><path codeLine="79" d="M1000,262.28 C1000,292.59 1000,326.86 1000,352.84 " fill="none" id="ctrl-to-bruteForce" style="stroke:#181818;stroke-width:1.0;stroke-dasharray:7.0,7.0;"/><polygon fill="#181818" points="1000,357.93,1004,348.93,1000,352.93,996,348.93,1000,357.93" style="stroke:#181818;stroke-width:1.0;"/></g><!--link repo to repo--><g id="link_repo_repo"><path codeLine="82" d="M325.08,378.05 C346.08,380.94 360,386.59 360,395 C360,402.69 348.37,408.07 330.33,411.14 " fill="none" id="repo-to-repo" style="stroke:#181818;stroke-width:1.0;"/><polygon fill="#181818" points="325.08,411.95,334.5819,414.5412,330.0224,411.1929,333.3706,406.6334,325.08,411.95" style="stroke:#181818;stroke-width:1.0;"/><text fill="#000000" font-family="sans-serif" font-size="20" lengthAdjust="spacing" textLength="79" x="366" y="402.8359">instance</text></g><!--link announcementRepo to announcementAvailable--><g id="link_announcementRepo_announcementAvailable"><path codeLine="84" d="M706.96,432.11 C751.08,465.33 816.34,514.47 861.76,548.67 " fill="none" id="announcementRepo-to-announcementAvailable" style="stroke:#181818;stroke-width:1.0;"/><polygon fill="#181818" points="865.82,551.72,861.0545,543.1009,861.832,548.704,856.2289,549.4816,865.82,551.72" style="stroke:#181818;stroke-width:1.0;"/><text fill="#000000" font-family="sans-serif" font-size="20" lengthAdjust="spacing" textLength="232" x="826" y="517.3359">AnnouncementAvailable</text><text fill="#000000" font-family="sans-serif" font-size="20" lengthAdjust="spacing" textLength="13" x="700.3086" y="458.9659">1</text><text fill="#000000" font-family="sans-serif" font-size="20" lengthAdjust="spacing" textLength="10" x="846.6797" y="539.7578">*</text></g><!--SRC=[ZLFRRXen47ttLrYy0Aq8QH-Z2ecMHa9gIzGa7s2ymsBXjLVsa9PM-VUEByiksOsQVLZRSpa-PsRi3yhKmebAMtc0WXUm4qUDjzRWlVe3_ECr6_icXbVMMBbtjWAExWYizTH27aG9ztZIm1r85ARKtG2_5uNzfKp9TqBxhaSh0tYgWTTMdyAXU-FPQHrQricIMdY_H7HgUqHOIsiYtsl6nXfsoD5ofyezya85EieQnc8E7tqXSSvg3MwbdbH1fAq3F-B2SubE_sMSllSbuB848qy_eRPUKSnfCcrTnjYZaL21mU60aAl0Tqm_t9spDJY5u6-j-ohaFjr0CUpvJEyCfp8fHmQUMCrurzjWSm9V6qyrbp2PyfkBe3RaRPmlzRQqXhCZGV72bSd6InlHI5GskwN9YjCIy3FyPqTjfAf8MEgIYEE-YjZRixq3UYS8B_HqKWcQWD-lyLm-2QN5LaEFvjd3BzkDgHSDLcIPakEsQOC7uLBtC4h1JfT51Qbm3KgUCa3IhtMQjiTrH7rS4sAC3Tzyd5Ew6bOFctpfsY1NHTgl108lw9UFzXYqI5ifxyEiTwsrKpB7vLwSUBD9vYWXIiHa-AOyVjgu0jo2noMQYMTO-Xo_YvhG4irO1xGhj9E0CjYEwSl8_qGzi_4y52WyJturM_GchlMuYzDWoplks5Ig-zdILyK6VTGLeZGVtyT1e3PU3Vc3dH83GeG9XtQWIL1ysfarlLkL7p5ZlISr-Z2QpHQZTwDNnlY63zOmZrLVLazHc_A6u2IFiNy0]--></g></svg>