<?xml version="1.0" encoding="UTF-8" standalone="no"?><svg xmlns="http://www.w3.org/2000/svg" xmlns:xlink="http://www.w3.org/1999/xlink" contentStyleType="text/css" height="1566px" preserveAspectRatio="none" style="width:3282px;height:1566px;background:#FFFFFF;" version="1.1" viewBox="0 0 3282 1566" width="3282px" zoomAndPan="magnify"><defs/><g><rect fill="#FFFFFF" height="1370.9688" style="stroke:#181818;stroke-width:1.0;" width="10" x="87" y="98.5547"/><rect fill="#FFFFFF" height="86.1094" style="stroke:#181818;stroke-width:1.0;" width="10" x="397" y="128.1094"/><rect fill="#FFFFFF" height="76.5547" style="stroke:#181818;stroke-width:1.0;" width="10" x="397" y="1392.9688"/><rect fill="#FFFFFF" height="536.3203" style="stroke:#181818;stroke-width:1.0;" width="10" x="756" y="175.6641"/><rect fill="#FFFFFF" height="213.7734" style="stroke:#181818;stroke-width:1.0;" width="10" x="756" y="1053.5313"/><rect fill="#FFFFFF" height="67.5547" style="stroke:#181818;stroke-width:1.0;" width="10" x="756" y="1355.4141"/><rect fill="#FFFFFF" height="37.5547" style="stroke:#181818;stroke-width:1.0;" width="10" x="1121" y="251.7734"/><rect fill="#FFFFFF" height="37.5547" style="stroke:#181818;stroke-width:1.0;" width="10" x="1121" y="477.1016"/><rect fill="#FFFFFF" height="37.5547" style="stroke:#181818;stroke-width:1.0;" width="10" x="1267.5" y="326.8828"/><rect fill="#FFFFFF" height="37.5547" style="stroke:#181818;stroke-width:1.0;" width="10" x="1267.5" y="552.2109"/><rect fill="#FFFFFF" height="37.5547" style="stroke:#181818;stroke-width:1.0;" width="10" x="1440" y="401.9922"/><rect fill="#FFFFFF" height="37.5547" style="stroke:#181818;stroke-width:1.0;" width="10" x="1897.5" y="797.6484"/><rect fill="#FFFFFF" height="37.5547" style="stroke:#181818;stroke-width:1.0;" width="10" x="2031" y="872.7578"/><rect fill="#FFFFFF" height="37.5547" style="stroke:#181818;stroke-width:1.0;" width="10" x="2031" y="1091.0859"/><rect fill="#FFFFFF" height="131.6641" style="stroke:#181818;stroke-width:1.0;" width="10" x="2191.5" y="1223.75"/><rect fill="#FFFFFF" height="385.1016" style="stroke:#181818;stroke-width:1.0;" width="10" x="2480.5" y="668.4297"/><rect fill="none" height="582.4297" style="stroke:#000000;stroke-width:1.5;" width="2050.5" x="594" y="604.7656"/><rect fill="none" height="282.9922" style="stroke:#000000;stroke-width:1.5;" width="821" x="1813.5" y="733.9844"/><rect fill="none" height="84.6641" style="stroke:#000000;stroke-width:1.5;" width="277.5" x="2347" y="925.3125"/><line style="stroke:#181818;stroke-width:0.5;stroke-dasharray:5.0,5.0;" x1="92" x2="92" y1="88.5547" y2="1478.5234"/><line style="stroke:#181818;stroke-width:0.5;stroke-dasharray:5.0,5.0;" x1="402" x2="402" y1="88.5547" y2="1478.5234"/><line style="stroke:#181818;stroke-width:0.5;stroke-dasharray:5.0,5.0;" x1="761" x2="761" y1="170.3867" y2="1478.5234"/><line style="stroke:#181818;stroke-width:0.5;stroke-dasharray:5.0,5.0;" x1="1125.5" x2="1125.5" y1="88.5547" y2="1478.5234"/><line style="stroke:#181818;stroke-width:0.5;stroke-dasharray:5.0,5.0;" x1="1272.5" x2="1272.5" y1="88.5547" y2="1478.5234"/><line style="stroke:#181818;stroke-width:0.5;stroke-dasharray:5.0,5.0;" x1="1444.5" x2="1444.5" y1="88.5547" y2="1478.5234"/><line style="stroke:#181818;stroke-width:0.5;stroke-dasharray:5.0,5.0;" x1="1681.5" x2="1681.5" y1="88.5547" y2="1478.5234"/><line style="stroke:#181818;stroke-width:0.5;stroke-dasharray:5.0,5.0;" x1="1902.5" x2="1902.5" y1="88.5547" y2="1478.5234"/><line style="stroke:#181818;stroke-width:0.5;stroke-dasharray:5.0,5.0;" x1="2035.5" x2="2035.5" y1="88.5547" y2="1478.5234"/><line style="stroke:#181818;stroke-width:0.5;stroke-dasharray:5.0,5.0;" x1="2196.5" x2="2196.5" y1="88.5547" y2="1478.5234"/><line style="stroke:#181818;stroke-width:0.5;stroke-dasharray:5.0,5.0;" x1="2485" x2="2485" y1="88.5547" y2="1478.5234"/><text fill="#000000" font-family="sans-serif" font-size="20" lengthAdjust="spacing" textLength="168" x="5" y="84.3359">Network Manager</text><ellipse cx="92" cy="13.5" fill="#E3E3E3" rx="8" ry="8" style="stroke:#181818;stroke-width:0.5;"/><path d="M92,21.5 L92,48.5 M79,29.5 L105,29.5 M92,48.5 L79,63.5 M92,48.5 L105,63.5 " fill="none" style="stroke:#181818;stroke-width:0.5;"/><text fill="#000000" font-family="sans-serif" font-size="20" lengthAdjust="spacing" textLength="168" x="5" y="1496.8594">Network Manager</text><ellipse cx="92" cy="1509.5781" fill="#E3E3E3" rx="8" ry="8" style="stroke:#181818;stroke-width:0.5;"/><path d="M92,1517.5781 L92,1544.5781 M79,1525.5781 L105,1525.5781 M92,1544.5781 L79,1559.5781 M92,1544.5781 L105,1559.5781 " fill="none" style="stroke:#181818;stroke-width:0.5;"/><rect fill="#E3E3E3" height="37.5547" rx="2.5" ry="2.5" style="stroke:#181818;stroke-width:0.5;" width="218" x="293" y="50"/><text fill="#000000" font-family="sans-serif" font-size="20" lengthAdjust="spacing" textLength="204" x="300" y="76.3359">:DivideSetOfAllStores</text><rect fill="#E3E3E3" height="37.5547" rx="2.5" ry="2.5" style="stroke:#181818;stroke-width:0.5;" width="218" x="293" y="1477.5234"/><text fill="#000000" font-family="sans-serif" font-size="20" lengthAdjust="spacing" textLength="204" x="300" y="1503.8594">:DivideSetOfAllStores</text><rect fill="#E3E3E3" height="37.5547" rx="2.5" ry="2.5" style="stroke:#181818;stroke-width:0.5;" width="314" x="604" y="1477.5234"/><text fill="#000000" font-family="sans-serif" font-size="20" lengthAdjust="spacing" textLength="300" x="611" y="1503.8594">:DivideSetOfAllStoresController</text><rect fill="#E3E3E3" height="37.5547" rx="2.5" ry="2.5" style="stroke:#181818;stroke-width:0.5;" width="139" x="1056.5" y="50"/><text fill="#000000" font-family="sans-serif" font-size="20" lengthAdjust="spacing" textLength="125" x="1063.5" y="76.3359">:Repositories</text><rect fill="#E3E3E3" height="37.5547" rx="2.5" ry="2.5" style="stroke:#181818;stroke-width:0.5;" width="139" x="1056.5" y="1477.5234"/><text fill="#000000" font-family="sans-serif" font-size="20" lengthAdjust="spacing" textLength="125" x="1063.5" y="1503.8594">:Repositories</text><rect fill="#E3E3E3" height="61.1094" rx="2.5" ry="2.5" style="stroke:#181818;stroke-width:0.5;" width="134" x="1205.5" y="26.4453"/><text fill="#000000" font-family="sans-serif" font-size="20" lengthAdjust="spacing" textLength="120" x="1212.5" y="52.7813">repositories:</text><text fill="#000000" font-family="sans-serif" font-size="20" lengthAdjust="spacing" textLength="119" x="1213" y="76.3359">Repositories</text><rect fill="#E3E3E3" height="61.1094" rx="2.5" ry="2.5" style="stroke:#181818;stroke-width:0.5;" width="134" x="1205.5" y="1477.5234"/><text fill="#000000" font-family="sans-serif" font-size="20" lengthAdjust="spacing" textLength="120" x="1212.5" y="1503.8594">repositories:</text><text fill="#000000" font-family="sans-serif" font-size="20" lengthAdjust="spacing" textLength="119" x="1213" y="1527.4141">Repositories</text><rect fill="#E3E3E3" height="37.5547" rx="2.5" ry="2.5" style="stroke:#181818;stroke-width:0.5;" width="191" x="1349.5" y="50"/><text fill="#000000" font-family="sans-serif" font-size="20" lengthAdjust="spacing" textLength="177" x="1356.5" y="76.3359">:AgencyRepository</text><rect fill="#E3E3E3" height="37.5547" rx="2.5" ry="2.5" style="stroke:#181818;stroke-width:0.5;" width="191" x="1349.5" y="1477.5234"/><text fill="#000000" font-family="sans-serif" font-size="20" lengthAdjust="spacing" textLength="177" x="1356.5" y="1503.8594">:AgencyRepository</text><rect fill="#E3E3E3" height="61.1094" rx="2.5" ry="2.5" style="stroke:#181818;stroke-width:0.5;" width="263" x="1550.5" y="26.4453"/><text fill="#000000" font-family="sans-serif" font-size="20" lengthAdjust="spacing" textLength="249" x="1557.5" y="52.7813">announcementRepository:</text><text fill="#000000" font-family="sans-serif" font-size="20" lengthAdjust="spacing" textLength="246" x="1559" y="76.3359">AnnouncementRepository</text><rect fill="#E3E3E3" height="61.1094" rx="2.5" ry="2.5" style="stroke:#181818;stroke-width:0.5;" width="263" x="1550.5" y="1477.5234"/><text fill="#000000" font-family="sans-serif" font-size="20" lengthAdjust="spacing" textLength="249" x="1557.5" y="1503.8594">announcementRepository:</text><text fill="#000000" font-family="sans-serif" font-size="20" lengthAdjust="spacing" textLength="246" x="1559" y="1527.4141">AnnouncementRepository</text><rect fill="#E3E3E3" height="37.5547" rx="2.5" ry="2.5" style="stroke:#181818;stroke-width:0.5;" width="158" x="1823.5" y="50"/><text fill="#000000" font-family="sans-serif" font-size="20" lengthAdjust="spacing" textLength="144" x="1830.5" y="76.3359">Announcement</text><rect fill="#E3E3E3" height="37.5547" rx="2.5" ry="2.5" style="stroke:#181818;stroke-width:0.5;" width="158" x="1823.5" y="1477.5234"/><text fill="#000000" font-family="sans-serif" font-size="20" lengthAdjust="spacing" textLength="144" x="1830.5" y="1503.8594">Announcement</text><rect fill="#E3E3E3" height="37.5547" rx="2.5" ry="2.5" style="stroke:#181818;stroke-width:0.5;" width="89" x="1991.5" y="50"/><text fill="#000000" font-family="sans-serif" font-size="20" lengthAdjust="spacing" textLength="75" x="1998.5" y="76.3359">:Agency</text><rect fill="#E3E3E3" height="37.5547" rx="2.5" ry="2.5" style="stroke:#181818;stroke-width:0.5;" width="89" x="1991.5" y="1477.5234"/><text fill="#000000" font-family="sans-serif" font-size="20" lengthAdjust="spacing" textLength="75" x="1998.5" y="1503.8594">:Agency</text><rect fill="#E3E3E3" height="37.5547" rx="2.5" ry="2.5" style="stroke:#181818;stroke-width:0.5;" width="212" x="2090.5" y="50"/><text fill="#000000" font-family="sans-serif" font-size="20" lengthAdjust="spacing" textLength="198" x="2097.5" y="76.3359">BruteForceAlgorithm</text><rect fill="#E3E3E3" height="37.5547" rx="2.5" ry="2.5" style="stroke:#181818;stroke-width:0.5;" width="212" x="2090.5" y="1477.5234"/><text fill="#000000" font-family="sans-serif" font-size="20" lengthAdjust="spacing" textLength="198" x="2097.5" y="1503.8594">BruteForceAlgorithm</text><rect fill="#E3E3E3" height="37.5547" rx="2.5" ry="2.5" style="stroke:#181818;stroke-width:0.5;" width="257" x="2357" y="50"/><text fill="#000000" font-family="sans-serif" font-size="20" lengthAdjust="spacing" textLength="243" x="2364" y="76.3359">announcementRepository</text><rect fill="#E3E3E3" height="37.5547" rx="2.5" ry="2.5" style="stroke:#181818;stroke-width:0.5;" width="257" x="2357" y="1477.5234"/><text fill="#000000" font-family="sans-serif" font-size="20" lengthAdjust="spacing" textLength="243" x="2364" y="1503.8594">announcementRepository</text><rect fill="#FFFFFF" height="1370.9688" style="stroke:#181818;stroke-width:1.0;" width="10" x="87" y="98.5547"/><rect fill="#FFFFFF" height="86.1094" style="stroke:#181818;stroke-width:1.0;" width="10" x="397" y="128.1094"/><rect fill="#FFFFFF" height="76.5547" style="stroke:#181818;stroke-width:1.0;" width="10" x="397" y="1392.9688"/><rect fill="#FFFFFF" height="536.3203" style="stroke:#181818;stroke-width:1.0;" width="10" x="756" y="175.6641"/><rect fill="#FFFFFF" height="213.7734" style="stroke:#181818;stroke-width:1.0;" width="10" x="756" y="1053.5313"/><rect fill="#FFFFFF" height="67.5547" style="stroke:#181818;stroke-width:1.0;" width="10" x="756" y="1355.4141"/><rect fill="#FFFFFF" height="37.5547" style="stroke:#181818;stroke-width:1.0;" width="10" x="1121" y="251.7734"/><rect fill="#FFFFFF" height="37.5547" style="stroke:#181818;stroke-width:1.0;" width="10" x="1121" y="477.1016"/><rect fill="#FFFFFF" height="37.5547" style="stroke:#181818;stroke-width:1.0;" width="10" x="1267.5" y="326.8828"/><rect fill="#FFFFFF" height="37.5547" style="stroke:#181818;stroke-width:1.0;" width="10" x="1267.5" y="552.2109"/><rect fill="#FFFFFF" height="37.5547" style="stroke:#181818;stroke-width:1.0;" width="10" x="1440" y="401.9922"/><rect fill="#FFFFFF" height="37.5547" style="stroke:#181818;stroke-width:1.0;" width="10" x="1897.5" y="797.6484"/><rect fill="#FFFFFF" height="37.5547" style="stroke:#181818;stroke-width:1.0;" width="10" x="2031" y="872.7578"/><rect fill="#FFFFFF" height="37.5547" style="stroke:#181818;stroke-width:1.0;" width="10" x="2031" y="1091.0859"/><rect fill="#FFFFFF" height="131.6641" style="stroke:#181818;stroke-width:1.0;" width="10" x="2191.5" y="1223.75"/><rect fill="#FFFFFF" height="385.1016" style="stroke:#181818;stroke-width:1.0;" width="10" x="2480.5" y="668.4297"/><polygon fill="#181818" points="385,124.1094,395,128.1094,385,132.1094,389,128.1094" style="stroke:#181818;stroke-width:1.0;"/><line style="stroke:#181818;stroke-width:1.0;" x1="97" x2="391" y1="128.1094" y2="128.1094"/><text fill="#000000" font-family="sans-serif" font-size="20" font-weight="bold" lengthAdjust="spacing" textLength="13" x="104" y="121.8906">1</text><text fill="#000000" font-family="sans-serif" font-size="20" lengthAdjust="spacing" textLength="264" x="121" y="121.8906">ask to search for properties</text><polygon fill="#181818" points="592,161.6641,602,165.6641,592,169.6641,596,165.6641" style="stroke:#181818;stroke-width:1.0;"/><line style="stroke:#181818;stroke-width:1.0;" x1="407" x2="598" y1="165.6641" y2="165.6641"/><text fill="#000000" font-family="sans-serif" font-size="20" font-weight="bold" lengthAdjust="spacing" textLength="13" x="414" y="159.4453">2</text><text fill="#000000" font-family="sans-serif" font-size="20" lengthAdjust="spacing" textLength="58" x="431" y="159.4453">create</text><rect fill="#E3E3E3" height="37.5547" rx="2.5" ry="2.5" style="stroke:#181818;stroke-width:0.5;" width="314" x="604" y="136.1094"/><text fill="#000000" font-family="sans-serif" font-size="20" lengthAdjust="spacing" textLength="300" x="611" y="162.4453">:DivideSetOfAllStoresController</text><polygon fill="#181818" points="744,210.2188,754,214.2188,744,218.2188,748,214.2188" style="stroke:#181818;stroke-width:1.0;"/><line style="stroke:#181818;stroke-width:1.0;" x1="402" x2="750" y1="214.2188" y2="214.2188"/><text fill="#000000" font-family="sans-serif" font-size="20" font-weight="bold" lengthAdjust="spacing" textLength="13" x="409" y="208">3</text><text fill="#000000" font-family="sans-serif" font-size="20" lengthAdjust="spacing" textLength="308" x="426" y="208">getNrProperitesForEachAgency()</text><polygon fill="#181818" points="1109,247.7734,1119,251.7734,1109,255.7734,1113,251.7734" style="stroke:#181818;stroke-width:1.0;"/><line style="stroke:#181818;stroke-width:1.0;" x1="766" x2="1115" y1="251.7734" y2="251.7734"/><text fill="#000000" font-family="sans-serif" font-size="20" font-weight="bold" lengthAdjust="spacing" textLength="13" x="773" y="245.5547">4</text><text fill="#000000" font-family="sans-serif" font-size="20" lengthAdjust="spacing" textLength="123" x="790" y="245.5547">getInstance()</text><polygon fill="#181818" points="777,285.3281,767,289.3281,777,293.3281,773,289.3281" style="stroke:#181818;stroke-width:1.0;"/><line style="stroke:#181818;stroke-width:1.0;" x1="771" x2="1125" y1="289.3281" y2="289.3281"/><text fill="#000000" font-family="sans-serif" font-size="20" font-weight="bold" lengthAdjust="spacing" textLength="13" x="783" y="283.1094">5</text><text fill="#000000" font-family="sans-serif" font-size="20" lengthAdjust="spacing" textLength="79" x="800" y="283.1094">instance</text><polygon fill="#181818" points="1255.5,322.8828,1265.5,326.8828,1255.5,330.8828,1259.5,326.8828" style="stroke:#181818;stroke-width:1.0;"/><line style="stroke:#181818;stroke-width:1.0;" x1="766" x2="1261.5" y1="326.8828" y2="326.8828"/><text fill="#000000" font-family="sans-serif" font-size="20" font-weight="bold" lengthAdjust="spacing" textLength="13" x="773" y="320.6641">6</text><text fill="#000000" font-family="sans-serif" font-size="20" lengthAdjust="spacing" textLength="215" x="790" y="320.6641">getAgencyRepository()</text><polygon fill="#181818" points="777,360.4375,767,364.4375,777,368.4375,773,364.4375" style="stroke:#181818;stroke-width:1.0;"/><line style="stroke:#181818;stroke-width:1.0;" x1="771" x2="1271.5" y1="364.4375" y2="364.4375"/><text fill="#000000" font-family="sans-serif" font-size="20" font-weight="bold" lengthAdjust="spacing" textLength="13" x="783" y="358.2188">7</text><text fill="#000000" font-family="sans-serif" font-size="20" lengthAdjust="spacing" textLength="168" x="800" y="358.2188">agencyRepository</text><polygon fill="#181818" points="1428,397.9922,1438,401.9922,1428,405.9922,1432,401.9922" style="stroke:#181818;stroke-width:1.0;"/><line style="stroke:#181818;stroke-width:1.0;" x1="766" x2="1434" y1="401.9922" y2="401.9922"/><text fill="#000000" font-family="sans-serif" font-size="20" font-weight="bold" lengthAdjust="spacing" textLength="13" x="773" y="395.7734">8</text><text fill="#000000" font-family="sans-serif" font-size="20" lengthAdjust="spacing" textLength="147" x="790" y="395.7734">getAgencyList()</text><polygon fill="#181818" points="777,435.5469,767,439.5469,777,443.5469,773,439.5469" style="stroke:#181818;stroke-width:1.0;"/><line style="stroke:#181818;stroke-width:1.0;" x1="771" x2="1444" y1="439.5469" y2="439.5469"/><text fill="#000000" font-family="sans-serif" font-size="20" font-weight="bold" lengthAdjust="spacing" textLength="13" x="783" y="433.3281">9</text><text fill="#000000" font-family="sans-serif" font-size="20" lengthAdjust="spacing" textLength="100" x="800" y="433.3281">agencyList</text><polygon fill="#181818" points="1109,473.1016,1119,477.1016,1109,481.1016,1113,477.1016" style="stroke:#181818;stroke-width:1.0;"/><line style="stroke:#181818;stroke-width:1.0;" x1="766" x2="1115" y1="477.1016" y2="477.1016"/><text fill="#000000" font-family="sans-serif" font-size="20" font-weight="bold" lengthAdjust="spacing" textLength="26" x="773" y="470.8828">10</text><text fill="#000000" font-family="sans-serif" font-size="20" lengthAdjust="spacing" textLength="123" x="803" y="470.8828">getInstance()</text><polygon fill="#181818" points="777,510.6563,767,514.6563,777,518.6563,773,514.6563" style="stroke:#181818;stroke-width:1.0;"/><line style="stroke:#181818;stroke-width:1.0;" x1="771" x2="1125" y1="514.6563" y2="514.6563"/><text fill="#000000" font-family="sans-serif" font-size="20" font-weight="bold" lengthAdjust="spacing" textLength="26" x="783" y="508.4375">11</text><text fill="#000000" font-family="sans-serif" font-size="20" lengthAdjust="spacing" textLength="79" x="813" y="508.4375">instance</text><polygon fill="#181818" points="1255.5,548.2109,1265.5,552.2109,1255.5,556.2109,1259.5,552.2109" style="stroke:#181818;stroke-width:1.0;"/><line style="stroke:#181818;stroke-width:1.0;" x1="766" x2="1261.5" y1="552.2109" y2="552.2109"/><text fill="#000000" font-family="sans-serif" font-size="20" font-weight="bold" lengthAdjust="spacing" textLength="26" x="773" y="545.9922">12</text><text fill="#000000" font-family="sans-serif" font-size="20" lengthAdjust="spacing" textLength="290" x="803" y="545.9922">getAnnouncementRepository()</text><polygon fill="#181818" points="777,585.7656,767,589.7656,777,593.7656,773,589.7656" style="stroke:#181818;stroke-width:1.0;"/><line style="stroke:#181818;stroke-width:1.0;" x1="771" x2="1271.5" y1="589.7656" y2="589.7656"/><text fill="#000000" font-family="sans-serif" font-size="20" font-weight="bold" lengthAdjust="spacing" textLength="26" x="783" y="583.5469">13</text><text fill="#000000" font-family="sans-serif" font-size="20" lengthAdjust="spacing" textLength="243" x="813" y="583.5469">announcementRepository</text><path d="M594,604.7656 L685,604.7656 L685,620.3203 L675,630.3203 L594,630.3203 L594,604.7656 " fill="#EEEEEE" style="stroke:#000000;stroke-width:1.5;"/><rect fill="none" height="582.4297" style="stroke:#000000;stroke-width:1.5;" width="2050.5" x="594" y="604.7656"/><text fill="#000000" font-family="sans-serif" font-size="20" font-weight="bold" lengthAdjust="spacing" textLength="46" x="609" y="625.1016">loop</text><text fill="#000000" font-family="sans-serif" font-size="20" font-weight="bold" lengthAdjust="spacing" textLength="328" x="700" y="626.1016">[for each Agency of agencyList]</text><polygon fill="#181818" points="2468.5,664.4297,2478.5,668.4297,2468.5,672.4297,2472.5,668.4297" style="stroke:#181818;stroke-width:1.0;"/><line style="stroke:#181818;stroke-width:1.0;" x1="766" x2="2474.5" y1="668.4297" y2="668.4297"/><text fill="#000000" font-family="sans-serif" font-size="20" font-weight="bold" lengthAdjust="spacing" textLength="26" x="773" y="662.2109">14</text><text fill="#000000" font-family="sans-serif" font-size="20" lengthAdjust="spacing" textLength="351" x="803" y="662.2109">getNrPropertiesOfAnAgency(Agency)</text><line style="stroke:#181818;stroke-width:1.0;" x1="2490.5" x2="2532.5" y1="710.9844" y2="710.9844"/><line style="stroke:#181818;stroke-width:1.0;" x1="2532.5" x2="2532.5" y1="710.9844" y2="723.9844"/><line style="stroke:#181818;stroke-width:1.0;" x1="2485.5" x2="2532.5" y1="723.9844" y2="723.9844"/><polygon fill="#181818" points="2495.5,719.9844,2485.5,723.9844,2495.5,727.9844,2491.5,723.9844" style="stroke:#181818;stroke-width:1.0;"/><text fill="#000000" font-family="sans-serif" font-size="20" font-weight="bold" lengthAdjust="spacing" textLength="26" x="2497.5" y="704.7656">15</text><text fill="#000000" font-family="sans-serif" font-size="20" lengthAdjust="spacing" textLength="94" x="2527.5" y="704.7656">count = 0</text><path d="M1813.5,733.9844 L1904.5,733.9844 L1904.5,749.5391 L1894.5,759.5391 L1813.5,759.5391 L1813.5,733.9844 " fill="#EEEEEE" style="stroke:#000000;stroke-width:1.5;"/><rect fill="none" height="282.9922" style="stroke:#000000;stroke-width:1.5;" width="821" x="1813.5" y="733.9844"/><text fill="#000000" font-family="sans-serif" font-size="20" font-weight="bold" lengthAdjust="spacing" textLength="46" x="1828.5" y="754.3203">loop</text><text fill="#000000" font-family="sans-serif" font-size="20" font-weight="bold" lengthAdjust="spacing" textLength="425" x="1919.5" y="755.3203">[for each AnnouncementAvailable in list]</text><polygon fill="#181818" points="1918.5,793.6484,1908.5,797.6484,1918.5,801.6484,1914.5,797.6484" style="stroke:#181818;stroke-width:1.0;"/><line style="stroke:#181818;stroke-width:1.0;" x1="1912.5" x2="2479.5" y1="797.6484" y2="797.6484"/><text fill="#000000" font-family="sans-serif" font-size="20" font-weight="bold" lengthAdjust="spacing" textLength="26" x="1924.5" y="791.4297">16</text><text fill="#000000" font-family="sans-serif" font-size="20" lengthAdjust="spacing" textLength="100" x="1954.5" y="791.4297">getAgent()</text><polygon fill="#181818" points="2468.5,831.2031,2478.5,835.2031,2468.5,839.2031,2472.5,835.2031" style="stroke:#181818;stroke-width:1.0;"/><line style="stroke:#181818;stroke-width:1.0;" x1="1902.5" x2="2474.5" y1="835.2031" y2="835.2031"/><text fill="#000000" font-family="sans-serif" font-size="20" font-weight="bold" lengthAdjust="spacing" textLength="26" x="1909.5" y="828.9844">17</text><text fill="#000000" font-family="sans-serif" font-size="20" lengthAdjust="spacing" textLength="56" x="1939.5" y="828.9844">Agent</text><polygon fill="#181818" points="2052,868.7578,2042,872.7578,2052,876.7578,2048,872.7578" style="stroke:#181818;stroke-width:1.0;"/><line style="stroke:#181818;stroke-width:1.0;" x1="2046" x2="2479.5" y1="872.7578" y2="872.7578"/><text fill="#000000" font-family="sans-serif" font-size="20" font-weight="bold" lengthAdjust="spacing" textLength="26" x="2058" y="866.5391">18</text><text fill="#000000" font-family="sans-serif" font-size="20" lengthAdjust="spacing" textLength="195" x="2088" y="866.5391">searchAgent(Agent))</text><polygon fill="#181818" points="2468.5,906.3125,2478.5,910.3125,2468.5,914.3125,2472.5,910.3125" style="stroke:#181818;stroke-width:1.0;"/><line style="stroke:#181818;stroke-width:1.0;" x1="2036" x2="2474.5" y1="910.3125" y2="910.3125"/><text fill="#000000" font-family="sans-serif" font-size="20" font-weight="bold" lengthAdjust="spacing" textLength="26" x="2043" y="904.0938">19</text><text fill="#000000" font-family="sans-serif" font-size="20" lengthAdjust="spacing" textLength="93" x="2073" y="904.0938">true/false</text><path d="M2347,925.3125 L2426,925.3125 L2426,940.8672 L2416,950.8672 L2347,950.8672 L2347,925.3125 " fill="#EEEEEE" style="stroke:#000000;stroke-width:1.5;"/><rect fill="none" height="84.6641" style="stroke:#000000;stroke-width:1.5;" width="277.5" x="2347" y="925.3125"/><text fill="#000000" font-family="sans-serif" font-size="20" font-weight="bold" lengthAdjust="spacing" textLength="34" x="2362" y="945.6484">opt</text><text fill="#000000" font-family="sans-serif" font-size="20" font-weight="bold" lengthAdjust="spacing" textLength="56" x="2441" y="946.6484">[true]</text><line style="stroke:#181818;stroke-width:1.0;" x1="2490.5" x2="2532.5" y1="988.9766" y2="988.9766"/><line style="stroke:#181818;stroke-width:1.0;" x1="2532.5" x2="2532.5" y1="988.9766" y2="1001.9766"/><line style="stroke:#181818;stroke-width:1.0;" x1="2491.5" x2="2532.5" y1="1001.9766" y2="1001.9766"/><polygon fill="#181818" points="2501.5,997.9766,2491.5,1001.9766,2501.5,1005.9766,2497.5,1001.9766" style="stroke:#181818;stroke-width:1.0;"/><text fill="#000000" font-family="sans-serif" font-size="20" font-weight="bold" lengthAdjust="spacing" textLength="26" x="2497.5" y="982.7578">20</text><text fill="#000000" font-family="sans-serif" font-size="20" lengthAdjust="spacing" textLength="85" x="2527.5" y="982.7578">count++</text><polygon fill="#181818" points="777,1049.5313,767,1053.5313,777,1057.5313,773,1053.5313" style="stroke:#181818;stroke-width:1.0;"/><line style="stroke:#181818;stroke-width:1.0;" x1="771" x2="2484.5" y1="1053.5313" y2="1053.5313"/><text fill="#000000" font-family="sans-serif" font-size="20" font-weight="bold" lengthAdjust="spacing" textLength="26" x="783" y="1047.3125">21</text><text fill="#000000" font-family="sans-serif" font-size="20" lengthAdjust="spacing" textLength="53" x="813" y="1047.3125">count</text><polygon fill="#181818" points="2019,1087.0859,2029,1091.0859,2019,1095.0859,2023,1091.0859" style="stroke:#181818;stroke-width:1.0;"/><line style="stroke:#181818;stroke-width:1.0;" x1="766" x2="2025" y1="1091.0859" y2="1091.0859"/><text fill="#000000" font-family="sans-serif" font-size="20" font-weight="bold" lengthAdjust="spacing" textLength="26" x="773" y="1084.8672">22</text><text fill="#000000" font-family="sans-serif" font-size="20" lengthAdjust="spacing" textLength="100" x="803" y="1084.8672">getName()</text><polygon fill="#181818" points="777,1124.6406,767,1128.6406,777,1132.6406,773,1128.6406" style="stroke:#181818;stroke-width:1.0;"/><line style="stroke:#181818;stroke-width:1.0;" x1="771" x2="2035" y1="1128.6406" y2="1128.6406"/><text fill="#000000" font-family="sans-serif" font-size="20" font-weight="bold" lengthAdjust="spacing" textLength="26" x="783" y="1122.4219">23</text><text fill="#000000" font-family="sans-serif" font-size="20" lengthAdjust="spacing" textLength="122" x="813" y="1122.4219">agencyName</text><line style="stroke:#181818;stroke-width:1.0;" x1="766" x2="808" y1="1166.1953" y2="1166.1953"/><line style="stroke:#181818;stroke-width:1.0;" x1="808" x2="808" y1="1166.1953" y2="1179.1953"/><line style="stroke:#181818;stroke-width:1.0;" x1="767" x2="808" y1="1179.1953" y2="1179.1953"/><polygon fill="#181818" points="777,1175.1953,767,1179.1953,777,1183.1953,773,1179.1953" style="stroke:#181818;stroke-width:1.0;"/><text fill="#000000" font-family="sans-serif" font-size="20" font-weight="bold" lengthAdjust="spacing" textLength="26" x="773" y="1159.9766">24</text><text fill="#000000" font-family="sans-serif" font-size="20" lengthAdjust="spacing" textLength="311" x="803" y="1159.9766">fillArrayLine(agencyName,count)</text><polygon fill="#181818" points="2179.5,1219.75,2189.5,1223.75,2179.5,1227.75,2183.5,1223.75" style="stroke:#181818;stroke-width:1.0;"/><line style="stroke:#181818;stroke-width:1.0;" x1="766" x2="2185.5" y1="1223.75" y2="1223.75"/><text fill="#000000" font-family="sans-serif" font-size="20" font-weight="bold" lengthAdjust="spacing" textLength="26" x="773" y="1217.5313">25</text><text fill="#000000" font-family="sans-serif" font-size="20" lengthAdjust="spacing" textLength="235" x="803" y="1217.5313">getPartitions(arrayFilled)</text><line style="stroke:#181818;stroke-width:1.0;" x1="2201.5" x2="2243.5" y1="1266.3047" y2="1266.3047"/><line style="stroke:#181818;stroke-width:1.0;" x1="2243.5" x2="2243.5" y1="1266.3047" y2="1279.3047"/><line style="stroke:#181818;stroke-width:1.0;" x1="2196.5" x2="2243.5" y1="1279.3047" y2="1279.3047"/><polygon fill="#181818" points="2206.5,1275.3047,2196.5,1279.3047,2206.5,1283.3047,2202.5,1279.3047" style="stroke:#181818;stroke-width:1.0;"/><text fill="#000000" font-family="sans-serif" font-size="20" font-weight="bold" lengthAdjust="spacing" textLength="26" x="2208.5" y="1260.0859">26</text><text fill="#000000" font-family="sans-serif" font-size="20" lengthAdjust="spacing" textLength="235" x="2238.5" y="1260.0859">getPartitions(arrayFilled)</text><path d="M2206,1287.3047 L2206,1320.3047 L3275,1320.3047 L3275,1297.3047 L3265,1287.3047 L2206,1287.3047 " fill="#FAFAFA" style="stroke:#181818;stroke-width:0.5;"/><path d="M3265,1287.3047 L3265,1297.3047 L3275,1297.3047 L3265,1287.3047 " fill="#FAFAFA" style="stroke:#181818;stroke-width:0.5;"/><text fill="#000000" font-family="sans-serif" font-size="20" lengthAdjust="spacing" textLength="1048" x="2212" y="1311.6406">This method of bruteForceAlgorithm beyond doing the Math part also prints the final information for the user</text><polygon fill="#181818" points="777,1351.4141,767,1355.4141,777,1359.4141,773,1355.4141" style="stroke:#181818;stroke-width:1.0;"/><line style="stroke:#181818;stroke-width:1.0;" x1="771" x2="2195.5" y1="1355.4141" y2="1355.4141"/><text fill="#000000" font-family="sans-serif" font-size="20" font-weight="bold" lengthAdjust="spacing" textLength="26" x="783" y="1349.1953">27</text><text fill="#000000" font-family="sans-serif" font-size="20" lengthAdjust="spacing" textLength="164" x="813" y="1349.1953">information print</text><polygon fill="#181818" points="418,1388.9688,408,1392.9688,418,1396.9688,414,1392.9688" style="stroke:#181818;stroke-width:1.0;"/><line style="stroke:#181818;stroke-width:1.0;" x1="412" x2="755" y1="1392.9688" y2="1392.9688"/><text fill="#000000" font-family="sans-serif" font-size="20" font-weight="bold" lengthAdjust="spacing" textLength="26" x="424" y="1386.75">28</text><text fill="#000000" font-family="sans-serif" font-size="20" lengthAdjust="spacing" textLength="164" x="454" y="1386.75">information print</text><polygon fill="#181818" points="108,1456.5234,98,1460.5234,108,1464.5234,104,1460.5234" style="stroke:#181818;stroke-width:1.0;"/><line style="stroke:#181818;stroke-width:1.0;" x1="102" x2="396" y1="1460.5234" y2="1460.5234"/><text fill="#000000" font-family="sans-serif" font-size="20" font-weight="bold" lengthAdjust="spacing" textLength="26" x="114" y="1454.3047">29</text><text fill="#000000" font-family="sans-serif" font-size="20" lengthAdjust="spacing" textLength="164" x="144" y="1454.3047">information print</text><!--SRC=[pLVDJzim5B_dhx2uh8LDGpjMsgIEWOJ4056uxU8wBurLnuvi1zRzzNksapHftQH5Eym7gFm-Vk_RBsRDPKarBOHYQqX92XcjXBrHqYxu7o1VBXFJi912ISLohGeWLbVGePIKhUaA5dOZW6XWbigLw3AOdARgZSiLoQWma2IqiafMnH9qadp8UGeaKyekrU-4CgiqERi7-wRqcloa4ZNhCq8DOOA3j0cgj9pnaafBpcO_-2kABy0-P7CX5YWCndE_t2P7i5wXgre9KKDSFJ_TxKWzGQaCHsPUAtwwVdpey-WEo-oNt9D0-exI-GeasxIC6yz6cyi-CvLILP91WSvl9H1d7YLuLRkaliOkDI3xYwYD7SlwzE-wid2ZD8EvMA6lDYyyxtB_Fd5PvQ_KGfF3XE09lycdRvWhCaFPDR6A6A2QvLWFcfHQbO2GO3n_gmHJI-g3aYZlqdP-FcCQaDpIMdwVrNq9n5o1lTUF7ePRC6ZsDMLvy7mozJ8fT75RDLu1AdBL41JTIeE5pw2MwrdWQwQvzI9R6tWjrz8xY3sv1XBBAI3kLb4CsTLUS-a4jxXqHpg6xwJty5l1hXLttDWO_hQeMr8hlckBqn6pOb_7Vn7zQFkTc8EeZaEPQAw5KgLl42Jd9CIVg2mMnTvf4nX5xRU3wpgSaxBkXV1l6jUxJTImEtsXk153vZ6yjkGhkOnhx4Ihr_6zinEx3jJybN91b_Y4SKd4mI2EsOrsDbtHROYXW0q13GR4Wum6Onmawaqegraza8C__kzqrAlmNCIPWjeXhznsyJai2gEk1QGudofjs5HEy7oq_2ukukf0fYSI3eU-7WuUxyZi7jbplVuO6H9D_jrGe0LC_atMUmFVwJqsnuF6rbepBiHSQuepKC9aY_7HXt9wE473sYChJOZBerk8B5VIJAY3lK5yICS25TkGeX8ntFUOy_vnAPLxUlWgj-vzYG3Fo7FE3Id0vYezm4EMi54IlowK-mAmEU1MRtFYjac2NQvmp-FI6a_9kAG21p1Ew88wL_oiTfJAk8-54yBKFl1RNHue7erUF8xEqA4byq0X-JttQ8DY- -vxdhncvwttxPW5dVCN]--></g></svg>