<?xml version="1.0" encoding="UTF-8" standalone="no"?><svg xmlns="http://www.w3.org/2000/svg" xmlns:xlink="http://www.w3.org/1999/xlink" contentStyleType="text/css" height="364px" preserveAspectRatio="none" style="width:1275px;height:364px;background:#FFFFFF;" version="1.1" viewBox="0 0 1275 364" width="1275px" zoomAndPan="magnify"><defs/><g><!--class ctrl--><g id="elem_ctrl"><rect codeLine="11" fill="#F1F1F1" height="73.5547" id="ctrl" rx="2.5" ry="2.5" style="stroke:#181818;stroke-width:0.5;" width="373" x="217" y="30.5"/><ellipse cx="290.5" cy="47.5" fill="#ADD1B2" rx="12" ry="12" style="stroke:#181818;stroke-width:1.0;"/><path d="M293.3066,54.5801 Q292.623,54.9316 291.8711,55.1074 Q291.1191,55.2832 290.2891,55.2832 Q287.3398,55.2832 285.7871,53.3398 Q284.2344,51.3965 284.2344,47.7246 Q284.2344,44.043 285.7871,42.0996 Q287.3398,40.1563 290.2891,40.1563 Q291.1191,40.1563 291.8809,40.332 Q292.6426,40.5078 293.3066,40.8594 L293.3066,44.0625 Q292.5645,43.3789 291.8662,43.0615 Q291.168,42.7441 290.4258,42.7441 Q288.8438,42.7441 288.0381,43.999 Q287.2324,45.2539 287.2324,47.7246 Q287.2324,50.1855 288.0381,51.4404 Q288.8438,52.6953 290.4258,52.6953 Q291.168,52.6953 291.8662,52.3779 Q292.5645,52.0605 293.3066,51.377 Z " fill="#000000"/><text fill="#000000" font-family="sans-serif" font-size="20" lengthAdjust="spacing" textLength="217" x="312.5" y="55.0586">RegisterUserController</text><line style="stroke:#181818;stroke-width:0.5;" x1="218" x2="589" y1="64.5" y2="64.5"/><line style="stroke:#181818;stroke-width:0.5;" x1="218" x2="589" y1="72.5" y2="72.5"/><text fill="#000000" font-family="sans-serif" font-size="20" lengthAdjust="spacing" textLength="361" x="223" y="95.8359">+RegisterUser(name,email,password)</text></g><!--class UserRepository--><g id="elem_UserRepository"><rect codeLine="18" fill="#F1F1F1" height="120.6641" id="UserRepository" rx="2.5" ry="2.5" style="stroke:#181818;stroke-width:0.5;" width="404" x="625.5" y="7"/><ellipse cx="750.5" cy="24" fill="#ADD1B2" rx="12" ry="12" style="stroke:#181818;stroke-width:1.0;"/><path d="M753.3066,31.0801 Q752.623,31.4316 751.8711,31.6074 Q751.1191,31.7832 750.2891,31.7832 Q747.3398,31.7832 745.7871,29.8398 Q744.2344,27.8965 744.2344,24.2246 Q744.2344,20.543 745.7871,18.5996 Q747.3398,16.6563 750.2891,16.6563 Q751.1191,16.6563 751.8809,16.832 Q752.6426,17.0078 753.3066,17.3594 L753.3066,20.5625 Q752.5645,19.8789 751.8662,19.5615 Q751.168,19.2441 750.4258,19.2441 Q748.8438,19.2441 748.0381,20.499 Q747.2324,21.7539 747.2324,24.2246 Q747.2324,26.6855 748.0381,27.9404 Q748.8438,29.1953 750.4258,29.1953 Q751.168,29.1953 751.8662,28.8779 Q752.5645,28.5605 753.3066,27.877 Z " fill="#000000"/><text fill="#000000" font-family="sans-serif" font-size="20" lengthAdjust="spacing" textLength="145" x="772.5" y="31.5586">UserRepository</text><line style="stroke:#181818;stroke-width:0.5;" x1="626.5" x2="1028.5" y1="41" y2="41"/><line style="stroke:#181818;stroke-width:0.5;" x1="626.5" x2="1028.5" y1="49" y2="49"/><text fill="#000000" font-family="sans-serif" font-size="20" lengthAdjust="spacing" textLength="392" x="631.5" y="72.3359">+isAccountAlreadyRegistered(userEmail)</text><text fill="#000000" font-family="sans-serif" font-size="20" lengthAdjust="spacing" textLength="320" x="631.5" y="95.8906">+addUser(name,email,password)</text><text fill="#000000" font-family="sans-serif" font-size="20" lengthAdjust="spacing" textLength="189" x="631.5" y="119.4453">+validateUser(user)</text></g><!--class User--><g id="elem_User"><rect codeLine="27" fill="#F1F1F1" height="144.2188" id="User" rx="2.5" ry="2.5" style="stroke:#181818;stroke-width:0.5;" width="295" x="683" y="213"/><ellipse cx="804.5" cy="230" fill="#ADD1B2" rx="12" ry="12" style="stroke:#181818;stroke-width:1.0;"/><path d="M807.3066,237.0801 Q806.623,237.4316 805.8711,237.6074 Q805.1191,237.7832 804.2891,237.7832 Q801.3398,237.7832 799.7871,235.8398 Q798.2344,233.8965 798.2344,230.2246 Q798.2344,226.543 799.7871,224.5996 Q801.3398,222.6563 804.2891,222.6563 Q805.1191,222.6563 805.8809,222.832 Q806.6426,223.0078 807.3066,223.3594 L807.3066,226.5625 Q806.5645,225.8789 805.8662,225.5615 Q805.168,225.2441 804.4258,225.2441 Q802.8438,225.2441 802.0381,226.499 Q801.2324,227.7539 801.2324,230.2246 Q801.2324,232.6855 802.0381,233.9404 Q802.8438,235.1953 804.4258,235.1953 Q805.168,235.1953 805.8662,234.8779 Q806.5645,234.5605 807.3066,233.877 Z " fill="#000000"/><text fill="#000000" font-family="sans-serif" font-size="20" lengthAdjust="spacing" textLength="43" x="826.5" y="237.5586">User</text><line style="stroke:#181818;stroke-width:0.5;" x1="684" x2="977" y1="247" y2="247"/><text fill="#000000" font-family="sans-serif" font-size="20" lengthAdjust="spacing" textLength="127" x="689" y="270.3359">-String name</text><text fill="#000000" font-family="sans-serif" font-size="20" lengthAdjust="spacing" textLength="127" x="689" y="293.8906">-String email</text><text fill="#000000" font-family="sans-serif" font-size="20" lengthAdjust="spacing" textLength="166" x="689" y="317.4453">-String password</text><line style="stroke:#181818;stroke-width:0.5;" x1="684" x2="977" y1="325.6641" y2="325.6641"/><text fill="#000000" font-family="sans-serif" font-size="20" lengthAdjust="spacing" textLength="283" x="689" y="349">+User(name,email,password)</text></g><!--class RegisterUserIU--><g id="elem_RegisterUserIU"><rect codeLine="36" fill="#F1F1F1" height="50" id="RegisterUserIU" rx="2.5" ry="2.5" style="stroke:#181818;stroke-width:0.5;" width="175" x="7" y="42.5"/><ellipse cx="23" cy="59.5" fill="#ADD1B2" rx="12" ry="12" style="stroke:#181818;stroke-width:1.0;"/><path d="M25.8066,66.5801 Q25.123,66.9316 24.3711,67.1074 Q23.6191,67.2832 22.7891,67.2832 Q19.8398,67.2832 18.2871,65.3398 Q16.7344,63.3965 16.7344,59.7246 Q16.7344,56.043 18.2871,54.0996 Q19.8398,52.1563 22.7891,52.1563 Q23.6191,52.1563 24.3809,52.332 Q25.1426,52.5078 25.8066,52.8594 L25.8066,56.0625 Q25.0645,55.3789 24.3662,55.0615 Q23.668,54.7441 22.9258,54.7441 Q21.3438,54.7441 20.5381,55.999 Q19.7324,57.2539 19.7324,59.7246 Q19.7324,62.1855 20.5381,63.4404 Q21.3438,64.6953 22.9258,64.6953 Q23.668,64.6953 24.3662,64.3779 Q25.0645,64.0605 25.8066,63.377 Z " fill="#000000"/><text fill="#000000" font-family="sans-serif" font-size="20" lengthAdjust="spacing" textLength="141" x="38" y="67.0586">RegisterUserIU</text><line style="stroke:#181818;stroke-width:0.5;" x1="8" x2="181" y1="76.5" y2="76.5"/><line style="stroke:#181818;stroke-width:0.5;" x1="8" x2="181" y1="84.5" y2="84.5"/></g><!--class Repositories--><g id="elem_Repositories"><rect codeLine="39" fill="#F1F1F1" height="120.6641" id="Repositories" rx="2.5" ry="2.5" style="stroke:#181818;stroke-width:0.5;" width="288" x="250.5" y="224.5"/><ellipse cx="330.5" cy="241.5" fill="#ADD1B2" rx="12" ry="12" style="stroke:#181818;stroke-width:1.0;"/><path d="M333.3066,248.5801 Q332.623,248.9316 331.8711,249.1074 Q331.1191,249.2832 330.2891,249.2832 Q327.3398,249.2832 325.7871,247.3398 Q324.2344,245.3965 324.2344,241.7246 Q324.2344,238.043 325.7871,236.0996 Q327.3398,234.1563 330.2891,234.1563 Q331.1191,234.1563 331.8809,234.332 Q332.6426,234.5078 333.3066,234.8594 L333.3066,238.0625 Q332.5645,237.3789 331.8662,237.0615 Q331.168,236.7441 330.4258,236.7441 Q328.8438,236.7441 328.0381,237.999 Q327.2324,239.2539 327.2324,241.7246 Q327.2324,244.1855 328.0381,245.4404 Q328.8438,246.6953 330.4258,246.6953 Q331.168,246.6953 331.8662,246.3779 Q332.5645,246.0605 333.3066,245.377 Z " fill="#000000"/><text fill="#000000" font-family="sans-serif" font-size="20" lengthAdjust="spacing" textLength="119" x="352.5" y="249.0586">Repositories</text><line style="stroke:#181818;stroke-width:0.5;" x1="251.5" x2="537.5" y1="258.5" y2="258.5"/><line style="stroke:#181818;stroke-width:0.5;" x1="251.5" x2="537.5" y1="266.5" y2="266.5"/><text fill="#000000" font-family="sans-serif" font-size="20" lengthAdjust="spacing" textLength="145" x="256.5" y="289.8359">-Repositories()</text><text fill="#000000" font-family="sans-serif" font-size="20" lengthAdjust="spacing" textLength="276" x="256.5" y="313.3906">+getInstance() : Repositories</text><text fill="#000000" font-family="sans-serif" font-size="20" lengthAdjust="spacing" textLength="205" x="256.5" y="336.9453">+getUserRepository()</text></g><!--class UU--><g id="elem_UU"><rect codeLine="45" fill="#F1F1F1" height="50" id="UU" rx="2.5" ry="2.5" style="stroke:#181818;stroke-width:0.5;" width="204" x="1064.5" y="42.5"/><ellipse cx="1080.5" cy="59.5" fill="#ADD1B2" rx="12" ry="12" style="stroke:#181818;stroke-width:1.0;"/><path d="M1083.3066,66.5801 Q1082.623,66.9316 1081.8711,67.1074 Q1081.1191,67.2832 1080.2891,67.2832 Q1077.3398,67.2832 1075.7871,65.3398 Q1074.2344,63.3965 1074.2344,59.7246 Q1074.2344,56.043 1075.7871,54.0996 Q1077.3398,52.1563 1080.2891,52.1563 Q1081.1191,52.1563 1081.8809,52.332 Q1082.6426,52.5078 1083.3066,52.8594 L1083.3066,56.0625 Q1082.5645,55.3789 1081.8662,55.0615 Q1081.168,54.7441 1080.4258,54.7441 Q1078.8438,54.7441 1078.0381,55.999 Q1077.2324,57.2539 1077.2324,59.7246 Q1077.2324,62.1855 1078.0381,63.4404 Q1078.8438,64.6953 1080.4258,64.6953 Q1081.168,64.6953 1081.8662,64.3779 Q1082.5645,64.0605 1083.3066,63.377 Z " fill="#000000"/><text fill="#000000" font-family="sans-serif" font-size="20" lengthAdjust="spacing" textLength="170" x="1095.5" y="67.0586">Unregistered user</text><line style="stroke:#181818;stroke-width:0.5;" x1="1065.5" x2="1267.5" y1="76.5" y2="76.5"/><line style="stroke:#181818;stroke-width:0.5;" x1="1065.5" x2="1267.5" y1="84.5" y2="84.5"/></g><!--link RegisterUserIU to ctrl--><g id="link_RegisterUserIU_ctrl"><path codeLine="51" d="M182.3,67.5 C191.46,67.5 197.5,67.5 197.5,67.5 C197.5,67.5 203.14,67.5 211.78,67.5 " fill="none" id="RegisterUserIU-to-ctrl" style="stroke:#181818;stroke-width:1.0;stroke-dasharray:7.0,7.0;"/><polygon fill="#181818" points="216.87,67.5,207.87,63.5,211.87,67.5,207.87,71.5,216.87,67.5" style="stroke:#181818;stroke-width:1.0;"/></g><!--link ctrl to UserRepository--><g id="link_ctrl_UserRepository"><path codeLine="53" d="M590.33,67.5 C599.81,67.5 609.99,67.5 620.05,67.5 " fill="none" id="ctrl-to-UserRepository" style="stroke:#181818;stroke-width:1.0;stroke-dasharray:7.0,7.0;"/><polygon fill="#181818" points="625.29,67.5,616.29,63.5,620.29,67.5,616.29,71.5,625.29,67.5" style="stroke:#181818;stroke-width:1.0;"/></g><!--link ctrl to Repositories--><g id="link_ctrl_Repositories"><path codeLine="54" d="M401.99,104.57 C400.69,135.76 398.78,181.62 397.21,219.16 " fill="none" id="ctrl-to-Repositories" style="stroke:#181818;stroke-width:1.0;stroke-dasharray:7.0,7.0;"/><polygon fill="#181818" points="397,224.17,401.3817,215.3495,397.2141,219.1746,393.389,215.007,397,224.17" style="stroke:#181818;stroke-width:1.0;"/></g><!--link ctrl to User--><g id="link_ctrl_User"><path codeLine="55" d="M474.97,104.57 C532.12,133.41 614.12,174.8 684.97,210.55 " fill="none" id="ctrl-to-User" style="stroke:#181818;stroke-width:1.0;stroke-dasharray:7.0,7.0;"/><polygon fill="#181818" points="689.62,212.9,683.3881,205.2735,685.1565,210.6468,679.7831,212.4151,689.62,212.9" style="stroke:#181818;stroke-width:1.0;"/></g><!--link Repositories to Repositories--><g id="link_Repositories_Repositories"><path codeLine="58" d="M538.82,265.68 C559.56,268.78 573.5,275.22 573.5,285 C573.5,293.94 561.85,300.09 544.01,303.45 " fill="none" id="Repositories-to-Repositories" style="stroke:#181818;stroke-width:1.0;"/><polygon fill="#181818" points="538.82,304.32,548.3586,306.7725,543.7508,303.4911,547.0323,298.8833,538.82,304.32" style="stroke:#181818;stroke-width:1.0;"/><text fill="#000000" font-family="sans-serif" font-size="20" lengthAdjust="spacing" textLength="79" x="579.5" y="292.8359">instance</text></g><!--link UserRepository to User--><g id="link_UserRepository_User"><path codeLine="60" d="M828.33,128.24 C828.67,152.77 829.07,181.46 829.43,207.49 " fill="none" id="UserRepository-to-User" style="stroke:#181818;stroke-width:1.0;"/><polygon fill="#181818" points="829.51,212.66,833.4069,203.6149,829.4529,207.6603,825.4074,203.7063,829.51,212.66" style="stroke:#181818;stroke-width:1.0;"/><text fill="#000000" font-family="sans-serif" font-size="20" lengthAdjust="spacing" textLength="43" x="830.5" y="178.3359">User</text></g><!--link UU to User--><g id="link_UU_User"><path codeLine="62" d="M1128.93,92.59 C1084.87,120.86 1009.71,169.06 945.85,210.02 " fill="none" id="UU-to-User" style="stroke:#181818;stroke-width:1.0;"/><polygon fill="#181818" points="941.27,212.95,951.0059,211.4629,945.4801,210.2527,946.6903,204.7268,941.27,212.95" style="stroke:#181818;stroke-width:1.0;"/><text fill="#000000" font-family="sans-serif" font-size="20" lengthAdjust="spacing" textLength="105" x="1020.5" y="178.3359">become an</text></g><!--SRC=[VLF1Qkim4BphAvPSQjFaKNhieH1A7-JQa0zGfOqZ8ckDj7x5h_JVAocs8mTQ7GmQpSxChkHmDgwJNhQMr1arQ3pAtl9VShmt_n4U7yHTc3ZGaYDryjGYiEzHN4ywgSwomJqF5i6ZOkaQMnB2IMhwCAw1exIXFB768GyTGaTsI9lISJuapoIAAcLb25jcRzvxnfqYb_C-275dySZ01Duq9mPjKXn3JeXS0witR4nWz8U0_YKswibQz2kG0HHx-oaWhlkILJdPuXfRQUowYneVv7KjulgQH1Fh3JiAXiaFC6gOi5MAUiTRwr7gOT94NVMnu3K9rXUgrFfdfypu9wtHaZ7JKdcTx4MPOFJTxEDOugIJrWB8kWjayX0NZr-QdLij1xCxHClYP1o0mJ15MO3Ls0eqo3iNuYDHMDNmj21TASkXLlNLQNLmVfubf67awpkaE3cgk4dvvpdVRQoFtxHRQe_mvdcPP4OJEuiM3TwGOnTcR4c8c-Um6IKYvw8KWyvO1DzHfNzAEl4D]--></g></svg>