<?xml version="1.0" encoding="UTF-8" standalone="no"?><svg xmlns="http://www.w3.org/2000/svg" xmlns:xlink="http://www.w3.org/1999/xlink" contentStyleType="text/css" height="645px" preserveAspectRatio="none" style="width:730px;height:645px;background:#FFFFFF;" version="1.1" viewBox="0 0 730 645" width="730px" zoomAndPan="magnify"><defs/><g><text fill="#000000" font-family="sans-serif" font-size="14" font-weight="bold" lengthAdjust="spacing" textLength="295" x="218.5" y="28.5352">US021 - System Sequence Diagram (SSD)</text><rect fill="#FFFFFF" height="412.6563" style="stroke:#181818;stroke-width:1.0;" width="10" x="46" y="136.043"/><rect fill="#FFFFFF" height="37.5547" style="stroke:#181818;stroke-width:1.0;" width="10" x="664" y="165.5977"/><rect fill="#FFFFFF" height="37.5547" style="stroke:#181818;stroke-width:1.0;" width="10" x="664" y="240.707"/><rect fill="#FFFFFF" height="37.5547" style="stroke:#181818;stroke-width:1.0;" width="10" x="664" y="315.8164"/><rect fill="#FFFFFF" height="141.7734" style="stroke:#181818;stroke-width:1.0;" width="10" x="664" y="390.9258"/><rect fill="none" height="134.7734" style="stroke:#000000;stroke-width:1.5;" width="713" x="10" y="405.9258"/><line style="stroke:#181818;stroke-width:0.5;stroke-dasharray:5.0,5.0;" x1="51" x2="51" y1="126.043" y2="557.6992"/><line style="stroke:#181818;stroke-width:0.5;stroke-dasharray:5.0,5.0;" x1="669" x2="669" y1="126.043" y2="557.6992"/><text fill="#000000" font-family="sans-serif" font-size="20" lengthAdjust="spacing" textLength="56" x="20" y="121.8242">Agent</text><ellipse cx="51" cy="50.9883" fill="#E3E3E3" rx="8" ry="8" style="stroke:#181818;stroke-width:0.5;"/><path d="M51,58.9883 L51,85.9883 M38,66.9883 L64,66.9883 M51,85.9883 L38,100.9883 M51,85.9883 L64,100.9883 " fill="none" style="stroke:#181818;stroke-width:0.5;"/><text fill="#000000" font-family="sans-serif" font-size="20" lengthAdjust="spacing" textLength="56" x="20" y="576.0352">Agent</text><ellipse cx="51" cy="588.7539" fill="#E3E3E3" rx="8" ry="8" style="stroke:#181818;stroke-width:0.5;"/><path d="M51,596.7539 L51,623.7539 M38,604.7539 L64,604.7539 M51,623.7539 L38,638.7539 M51,623.7539 L64,638.7539 " fill="none" style="stroke:#181818;stroke-width:0.5;"/><rect fill="#E3E3E3" height="37.5547" rx="2.5" ry="2.5" style="stroke:#181818;stroke-width:0.5;" width="88" x="625" y="87.4883"/><text fill="#000000" font-family="sans-serif" font-size="20" lengthAdjust="spacing" textLength="74" x="632" y="113.8242">:System</text><rect fill="#E3E3E3" height="37.5547" rx="2.5" ry="2.5" style="stroke:#181818;stroke-width:0.5;" width="88" x="625" y="556.6992"/><text fill="#000000" font-family="sans-serif" font-size="20" lengthAdjust="spacing" textLength="74" x="632" y="583.0352">:System</text><rect fill="#FFFFFF" height="412.6563" style="stroke:#181818;stroke-width:1.0;" width="10" x="46" y="136.043"/><rect fill="#FFFFFF" height="37.5547" style="stroke:#181818;stroke-width:1.0;" width="10" x="664" y="165.5977"/><rect fill="#FFFFFF" height="37.5547" style="stroke:#181818;stroke-width:1.0;" width="10" x="664" y="240.707"/><rect fill="#FFFFFF" height="37.5547" style="stroke:#181818;stroke-width:1.0;" width="10" x="664" y="315.8164"/><rect fill="#FFFFFF" height="141.7734" style="stroke:#181818;stroke-width:1.0;" width="10" x="664" y="390.9258"/><polygon fill="#181818" points="652,161.5977,662,165.5977,652,169.5977,656,165.5977" style="stroke:#181818;stroke-width:1.0;"/><line style="stroke:#181818;stroke-width:1.0;" x1="56" x2="658" y1="165.5977" y2="165.5977"/><text fill="#000000" font-family="sans-serif" font-size="20" font-weight="bold" lengthAdjust="spacing" textLength="13" x="63" y="159.3789">1</text><text fill="#000000" font-family="sans-serif" font-size="20" lengthAdjust="spacing" textLength="572" x="80" y="159.3789">asks to register the visit and the opinion about the business</text><polygon fill="#181818" points="67,199.1523,57,203.1523,67,207.1523,63,203.1523" style="stroke:#181818;stroke-width:1.0;"/><line style="stroke:#181818;stroke-width:1.0;stroke-dasharray:2.0,2.0;" x1="61" x2="668" y1="203.1523" y2="203.1523"/><text fill="#000000" font-family="sans-serif" font-size="20" font-weight="bold" lengthAdjust="spacing" textLength="13" x="73" y="196.9336">2</text><text fill="#000000" font-family="sans-serif" font-size="20" lengthAdjust="spacing" textLength="470" x="90" y="196.9336">shows a Visit Requests list and asks to select one</text><polygon fill="#181818" points="652,236.707,662,240.707,652,244.707,656,240.707" style="stroke:#181818;stroke-width:1.0;"/><line style="stroke:#181818;stroke-width:1.0;" x1="56" x2="658" y1="240.707" y2="240.707"/><text fill="#000000" font-family="sans-serif" font-size="20" font-weight="bold" lengthAdjust="spacing" textLength="13" x="63" y="234.4883">3</text><text fill="#000000" font-family="sans-serif" font-size="20" lengthAdjust="spacing" textLength="205" x="80" y="234.4883">selects a visit request</text><polygon fill="#181818" points="67,274.2617,57,278.2617,67,282.2617,63,278.2617" style="stroke:#181818;stroke-width:1.0;"/><line style="stroke:#181818;stroke-width:1.0;stroke-dasharray:2.0,2.0;" x1="61" x2="668" y1="278.2617" y2="278.2617"/><text fill="#000000" font-family="sans-serif" font-size="20" font-weight="bold" lengthAdjust="spacing" textLength="13" x="73" y="272.043">4</text><text fill="#000000" font-family="sans-serif" font-size="20" lengthAdjust="spacing" textLength="463" x="90" y="272.043">shows a Classification list and asks to select one</text><polygon fill="#181818" points="652,311.8164,662,315.8164,652,319.8164,656,315.8164" style="stroke:#181818;stroke-width:1.0;"/><line style="stroke:#181818;stroke-width:1.0;" x1="56" x2="658" y1="315.8164" y2="315.8164"/><text fill="#000000" font-family="sans-serif" font-size="20" font-weight="bold" lengthAdjust="spacing" textLength="13" x="63" y="309.5977">5</text><text fill="#000000" font-family="sans-serif" font-size="20" lengthAdjust="spacing" textLength="216" x="80" y="309.5977">selects a Classification</text><polygon fill="#181818" points="67,349.3711,57,353.3711,67,357.3711,63,353.3711" style="stroke:#181818;stroke-width:1.0;"/><line style="stroke:#181818;stroke-width:1.0;stroke-dasharray:2.0,2.0;" x1="61" x2="668" y1="353.3711" y2="353.3711"/><text fill="#000000" font-family="sans-serif" font-size="20" font-weight="bold" lengthAdjust="spacing" textLength="13" x="73" y="347.1523">6</text><text fill="#000000" font-family="sans-serif" font-size="20" lengthAdjust="spacing" textLength="313" x="90" y="347.1523">requests a Visit Request Opinion</text><polygon fill="#181818" points="652,386.9258,662,390.9258,652,394.9258,656,390.9258" style="stroke:#181818;stroke-width:1.0;"/><line style="stroke:#181818;stroke-width:1.0;" x1="56" x2="658" y1="390.9258" y2="390.9258"/><text fill="#000000" font-family="sans-serif" font-size="20" font-weight="bold" lengthAdjust="spacing" textLength="13" x="63" y="384.707">7</text><text fill="#000000" font-family="sans-serif" font-size="20" lengthAdjust="spacing" textLength="281" x="80" y="384.707">types the opinion and submit</text><path d="M10,405.9258 L82,405.9258 L82,421.4805 L72,431.4805 L10,431.4805 L10,405.9258 " fill="#EEEEEE" style="stroke:#000000;stroke-width:1.5;"/><rect fill="none" height="134.7734" style="stroke:#000000;stroke-width:1.5;" width="713" x="10" y="405.9258"/><text fill="#000000" font-family="sans-serif" font-size="20" font-weight="bold" lengthAdjust="spacing" textLength="27" x="25" y="426.2617">alt</text><text fill="#000000" font-family="sans-serif" font-size="20" font-weight="bold" lengthAdjust="spacing" textLength="527" x="97" y="427.2617">[opinion text lenght &gt;= 200 and inputs not empty]</text><polygon fill="#181818" points="67,465.5898,57,469.5898,67,473.5898,63,469.5898" style="stroke:#181818;stroke-width:1.0;"/><line style="stroke:#181818;stroke-width:1.0;stroke-dasharray:2.0,2.0;" x1="61" x2="663" y1="469.5898" y2="469.5898"/><text fill="#000000" font-family="sans-serif" font-size="20" font-weight="bold" lengthAdjust="spacing" textLength="13" x="73" y="463.3711">8</text><text fill="#000000" font-family="sans-serif" font-size="20" lengthAdjust="spacing" textLength="245" x="90" y="463.3711">shows a success message</text><line style="stroke:#000000;stroke-width:1.0;stroke-dasharray:2.0,2.0;" x1="10" x2="723" y1="478.5898" y2="478.5898"/><text fill="#000000" font-family="sans-serif" font-size="20" font-weight="bold" lengthAdjust="spacing" textLength="454" x="15" y="497.9258">[opinion text lenght &lt; 200 or inputs empty]</text><polygon fill="#181818" points="67,528.6992,57,532.6992,67,536.6992,63,532.6992" style="stroke:#181818;stroke-width:1.0;"/><line style="stroke:#181818;stroke-width:1.0;stroke-dasharray:2.0,2.0;" x1="61" x2="668" y1="532.6992" y2="532.6992"/><text fill="#000000" font-family="sans-serif" font-size="20" font-weight="bold" lengthAdjust="spacing" textLength="13" x="73" y="526.4805">9</text><text fill="#000000" font-family="sans-serif" font-size="20" lengthAdjust="spacing" textLength="275" x="90" y="526.4805">shows an insuccess message</text><!--SRC=[hPD1Rzim38Nl-XL4JkqXG9PZq1OOLknQeCPsPsJ64I9JhaYrotvz6TaPqYmRMg0NmnQVFZuzKx8BF636FYQ_enPQsc29-ZsnDk4tmNBXv2Y1Fd7osvnw0is5JYe3-XrsrEW-4cJoYjp5Ku5iiKqlWJlOO1HoJeEQz4UpM7w1EJHxKUgXeQT2x0dk0tQ7RLTDSt_ji6ZYqgyfEuTUKuRPruvOPu02TS5P5mq-3CWAizM8gsMfhtLVU4QbIJzYvdTJ7LQctGbeClTTiAKCkYLu3X8KaDlwbOR08J7WEXMjA-iYWKdaX3yrdBXpQr5xhIo2z69suMTbFXwEAYeGhLljS3GW52r0I4okfNFi1UEZ_a0UtUQH_15BtoAAX4tmg8VpVQAbj-JtUCh7OCwIWeSn_VSvqFr0ylQdsNcahFjWoRY_2L7XZrJfbq8axhOATxTs1nPrjyroCL-S5AWVTE_-awWKxsqkeBU7NGn7DlGN-JSLR-ud-aZ-9vXDTyu-ISGHj-v2Ggy0]--></g></svg>