<?xml version="1.0" encoding="UTF-8" standalone="no"?><svg xmlns="http://www.w3.org/2000/svg" xmlns:xlink="http://www.w3.org/1999/xlink" contentStyleType="text/css" height="934px" preserveAspectRatio="none" style="width:755px;height:934px;background:#FFFFFF;" version="1.1" viewBox="0 0 755 934" width="755px" zoomAndPan="magnify"><defs/><g><rect fill="#FFFFFF" height="729.6484" style="stroke:#181818;stroke-width:1.0;" width="10" x="103.5" y="98.5547"/><rect fill="#FFFFFF" height="37.5547" style="stroke:#181818;stroke-width:1.0;" width="10" x="672.5" y="128.1094"/><rect fill="#FFFFFF" height="37.5547" style="stroke:#181818;stroke-width:1.0;" width="10" x="672.5" y="244.3281"/><rect fill="#FFFFFF" height="37.5547" style="stroke:#181818;stroke-width:1.0;" width="10" x="672.5" y="319.4375"/><rect fill="#FFFFFF" height="367.1016" style="stroke:#181818;stroke-width:1.0;" width="10" x="672.5" y="401.5469"/><rect fill="#FFFFFF" height="30" style="stroke:#181818;stroke-width:1.0;" width="10" x="672.5" y="798.2031"/><rect fill="none" height="184.3281" style="stroke:#000000;stroke-width:1.5;" width="719" x="20" y="180.6641"/><rect fill="none" height="269.9922" style="stroke:#000000;stroke-width:1.5;" width="739" x="10" y="491.6563"/><rect fill="none" height="146.7734" style="stroke:#000000;stroke-width:1.5;" width="719" x="20" y="607.875"/><line style="stroke:#181818;stroke-width:0.5;stroke-dasharray:5.0,5.0;" x1="108" x2="108" y1="88.5547" y2="846.2031"/><line style="stroke:#181818;stroke-width:0.5;stroke-dasharray:5.0,5.0;" x1="677" x2="677" y1="88.5547" y2="846.2031"/><text fill="#000000" font-family="sans-serif" font-size="20" lengthAdjust="spacing" textLength="151" x="30" y="84.3359">Registered User</text><ellipse cx="108.5" cy="13.5" fill="#E3E3E3" rx="8" ry="8" style="stroke:#181818;stroke-width:0.5;"/><path d="M108.5,21.5 L108.5,48.5 M95.5,29.5 L121.5,29.5 M108.5,48.5 L95.5,63.5 M108.5,48.5 L121.5,63.5 " fill="none" style="stroke:#181818;stroke-width:0.5;"/><text fill="#000000" font-family="sans-serif" font-size="20" lengthAdjust="spacing" textLength="151" x="30" y="864.5391">Registered User</text><ellipse cx="108.5" cy="877.2578" fill="#E3E3E3" rx="8" ry="8" style="stroke:#181818;stroke-width:0.5;"/><path d="M108.5,885.2578 L108.5,912.2578 M95.5,893.2578 L121.5,893.2578 M108.5,912.2578 L95.5,927.2578 M108.5,912.2578 L121.5,927.2578 " fill="none" style="stroke:#181818;stroke-width:0.5;"/><rect fill="#E3E3E3" height="37.5547" rx="2.5" ry="2.5" style="stroke:#181818;stroke-width:0.5;" width="103" x="626" y="50"/><text fill="#000000" font-family="sans-serif" font-size="20" lengthAdjust="spacing" textLength="89" x="633" y="76.3359">:SearchUI</text><rect fill="#E3E3E3" height="37.5547" rx="2.5" ry="2.5" style="stroke:#181818;stroke-width:0.5;" width="103" x="626" y="845.2031"/><text fill="#000000" font-family="sans-serif" font-size="20" lengthAdjust="spacing" textLength="89" x="633" y="871.5391">:SearchUI</text><rect fill="#FFFFFF" height="729.6484" style="stroke:#181818;stroke-width:1.0;" width="10" x="103.5" y="98.5547"/><rect fill="#FFFFFF" height="37.5547" style="stroke:#181818;stroke-width:1.0;" width="10" x="672.5" y="128.1094"/><rect fill="#FFFFFF" height="37.5547" style="stroke:#181818;stroke-width:1.0;" width="10" x="672.5" y="244.3281"/><rect fill="#FFFFFF" height="37.5547" style="stroke:#181818;stroke-width:1.0;" width="10" x="672.5" y="319.4375"/><rect fill="#FFFFFF" height="367.1016" style="stroke:#181818;stroke-width:1.0;" width="10" x="672.5" y="401.5469"/><rect fill="#FFFFFF" height="30" style="stroke:#181818;stroke-width:1.0;" width="10" x="672.5" y="798.2031"/><polygon fill="#181818" points="660.5,124.1094,670.5,128.1094,660.5,132.1094,664.5,128.1094" style="stroke:#181818;stroke-width:1.0;"/><line style="stroke:#181818;stroke-width:1.0;" x1="113.5" x2="666.5" y1="128.1094" y2="128.1094"/><text fill="#000000" font-family="sans-serif" font-size="20" font-weight="bold" lengthAdjust="spacing" textLength="13" x="120.5" y="121.8906">1</text><text fill="#000000" font-family="sans-serif" font-size="20" lengthAdjust="spacing" textLength="264" x="137.5" y="121.8906">ask to search for properties</text><polygon fill="#181818" points="124.5,161.6641,114.5,165.6641,124.5,169.6641,120.5,165.6641" style="stroke:#181818;stroke-width:1.0;"/><line style="stroke:#181818;stroke-width:1.0;stroke-dasharray:2.0,2.0;" x1="118.5" x2="676.5" y1="165.6641" y2="165.6641"/><text fill="#000000" font-family="sans-serif" font-size="20" font-weight="bold" lengthAdjust="spacing" textLength="13" x="130.5" y="159.4453">2</text><text fill="#000000" font-family="sans-serif" font-size="20" lengthAdjust="spacing" textLength="260" x="147.5" y="159.4453">shows the list of properties</text><path d="M20,180.6641 L99,180.6641 L99,196.2188 L89,206.2188 L20,206.2188 L20,180.6641 " fill="#EEEEEE" style="stroke:#000000;stroke-width:1.5;"/><rect fill="none" height="184.3281" style="stroke:#000000;stroke-width:1.5;" width="719" x="20" y="180.6641"/><text fill="#000000" font-family="sans-serif" font-size="20" font-weight="bold" lengthAdjust="spacing" textLength="34" x="35" y="201">opt</text><text fill="#000000" font-family="sans-serif" font-size="20" font-weight="bold" lengthAdjust="spacing" textLength="221" x="114" y="202">[ask to order the list]</text><polygon fill="#181818" points="660.5,240.3281,670.5,244.3281,660.5,248.3281,664.5,244.3281" style="stroke:#181818;stroke-width:1.0;"/><line style="stroke:#181818;stroke-width:1.0;" x1="113.5" x2="666.5" y1="244.3281" y2="244.3281"/><text fill="#000000" font-family="sans-serif" font-size="20" font-weight="bold" lengthAdjust="spacing" textLength="13" x="120.5" y="238.1094">3</text><text fill="#000000" font-family="sans-serif" font-size="20" lengthAdjust="spacing" textLength="337" x="137.5" y="238.1094">ask to order the Announcement list</text><polygon fill="#181818" points="124.5,277.8828,114.5,281.8828,124.5,285.8828,120.5,281.8828" style="stroke:#181818;stroke-width:1.0;"/><line style="stroke:#181818;stroke-width:1.0;stroke-dasharray:2.0,2.0;" x1="118.5" x2="676.5" y1="281.8828" y2="281.8828"/><text fill="#000000" font-family="sans-serif" font-size="20" font-weight="bold" lengthAdjust="spacing" textLength="13" x="130.5" y="275.6641">4</text><text fill="#000000" font-family="sans-serif" font-size="20" lengthAdjust="spacing" textLength="395" x="147.5" y="275.6641">shows the Announcement of types of sort</text><polygon fill="#181818" points="660.5,315.4375,670.5,319.4375,660.5,323.4375,664.5,319.4375" style="stroke:#181818;stroke-width:1.0;"/><line style="stroke:#181818;stroke-width:1.0;" x1="113.5" x2="666.5" y1="319.4375" y2="319.4375"/><text fill="#000000" font-family="sans-serif" font-size="20" font-weight="bold" lengthAdjust="spacing" textLength="13" x="120.5" y="313.2188">5</text><text fill="#000000" font-family="sans-serif" font-size="20" lengthAdjust="spacing" textLength="197" x="137.5" y="313.2188">selects a type of sort</text><polygon fill="#181818" points="124.5,352.9922,114.5,356.9922,124.5,360.9922,120.5,356.9922" style="stroke:#181818;stroke-width:1.0;"/><line style="stroke:#181818;stroke-width:1.0;stroke-dasharray:2.0,2.0;" x1="118.5" x2="676.5" y1="356.9922" y2="356.9922"/><text fill="#000000" font-family="sans-serif" font-size="20" font-weight="bold" lengthAdjust="spacing" textLength="13" x="130.5" y="350.7734">6</text><text fill="#000000" font-family="sans-serif" font-size="20" lengthAdjust="spacing" textLength="342" x="147.5" y="350.7734">shows the list of properties ordered</text><polygon fill="#181818" points="660.5,397.5469,670.5,401.5469,660.5,405.5469,664.5,401.5469" style="stroke:#181818;stroke-width:1.0;"/><line style="stroke:#181818;stroke-width:1.0;" x1="113.5" x2="666.5" y1="401.5469" y2="401.5469"/><text fill="#000000" font-family="sans-serif" font-size="20" font-weight="bold" lengthAdjust="spacing" textLength="13" x="120.5" y="395.3281">7</text><text fill="#000000" font-family="sans-serif" font-size="20" lengthAdjust="spacing" textLength="245" x="137.5" y="395.3281">Selects an Announcement</text><polygon fill="#181818" points="124.5,435.1016,114.5,439.1016,124.5,443.1016,120.5,439.1016" style="stroke:#181818;stroke-width:1.0;"/><line style="stroke:#181818;stroke-width:1.0;stroke-dasharray:2.0,2.0;" x1="118.5" x2="671.5" y1="439.1016" y2="439.1016"/><text fill="#000000" font-family="sans-serif" font-size="20" font-weight="bold" lengthAdjust="spacing" textLength="13" x="130.5" y="432.8828">8</text><text fill="#000000" font-family="sans-serif" font-size="20" lengthAdjust="spacing" textLength="512" x="147.5" y="432.8828">shows the Announcement chosed with all information</text><polygon fill="#181818" points="660.5,472.6563,670.5,476.6563,660.5,480.6563,664.5,476.6563" style="stroke:#181818;stroke-width:1.0;"/><line style="stroke:#181818;stroke-width:1.0;" x1="113.5" x2="666.5" y1="476.6563" y2="476.6563"/><text fill="#000000" font-family="sans-serif" font-size="20" font-weight="bold" lengthAdjust="spacing" textLength="13" x="120.5" y="470.4375">9</text><text fill="#000000" font-family="sans-serif" font-size="20" lengthAdjust="spacing" textLength="518" x="137.5" y="470.4375">asks to schedule a visit for that announcement chosed</text><path d="M10,491.6563 L101,491.6563 L101,507.2109 L91,517.2109 L10,517.2109 L10,491.6563 " fill="#EEEEEE" style="stroke:#000000;stroke-width:1.5;"/><rect fill="none" height="269.9922" style="stroke:#000000;stroke-width:1.5;" width="739" x="10" y="491.6563"/><text fill="#000000" font-family="sans-serif" font-size="20" font-weight="bold" lengthAdjust="spacing" textLength="46" x="25" y="511.9922">loop</text><text fill="#000000" font-family="sans-serif" font-size="20" font-weight="bold" lengthAdjust="spacing" textLength="488" x="116" y="512.9922">[until wants to add more dates with time slots]</text><polygon fill="#181818" points="124.5,551.3203,114.5,555.3203,124.5,559.3203,120.5,555.3203" style="stroke:#181818;stroke-width:1.0;"/><line style="stroke:#181818;stroke-width:1.0;" x1="118.5" x2="671.5" y1="555.3203" y2="555.3203"/><text fill="#000000" font-family="sans-serif" font-size="20" font-weight="bold" lengthAdjust="spacing" textLength="26" x="130.5" y="549.1016">10</text><text fill="#000000" font-family="sans-serif" font-size="20" lengthAdjust="spacing" textLength="248" x="160.5" y="549.1016">request Date(xx-yy-zzzz)</text><polygon fill="#181818" points="660.5,588.875,670.5,592.875,660.5,596.875,664.5,592.875" style="stroke:#181818;stroke-width:1.0;"/><line style="stroke:#181818;stroke-width:1.0;" x1="113.5" x2="666.5" y1="592.875" y2="592.875"/><text fill="#000000" font-family="sans-serif" font-size="20" font-weight="bold" lengthAdjust="spacing" textLength="26" x="120.5" y="586.6563">11</text><text fill="#000000" font-family="sans-serif" font-size="20" lengthAdjust="spacing" textLength="101" x="150.5" y="586.6563">types Date</text><path d="M20,607.875 L111,607.875 L111,623.4297 L101,633.4297 L20,633.4297 L20,607.875 " fill="#EEEEEE" style="stroke:#000000;stroke-width:1.5;"/><rect fill="none" height="146.7734" style="stroke:#000000;stroke-width:1.5;" width="719" x="20" y="607.875"/><text fill="#000000" font-family="sans-serif" font-size="20" font-weight="bold" lengthAdjust="spacing" textLength="46" x="35" y="628.2109">loop</text><text fill="#000000" font-family="sans-serif" font-size="20" font-weight="bold" lengthAdjust="spacing" textLength="381" x="126" y="629.2109">[while wants to add more time slots]</text><polygon fill="#181818" points="124.5,667.5391,114.5,671.5391,124.5,675.5391,120.5,671.5391" style="stroke:#181818;stroke-width:1.0;"/><line style="stroke:#181818;stroke-width:1.0;" x1="118.5" x2="671.5" y1="671.5391" y2="671.5391"/><text fill="#000000" font-family="sans-serif" font-size="20" font-weight="bold" lengthAdjust="spacing" textLength="26" x="130.5" y="665.3203">12</text><text fill="#000000" font-family="sans-serif" font-size="20" lengthAdjust="spacing" textLength="409" x="160.5" y="665.3203">request time slots(x hour to y hour format)</text><polygon fill="#181818" points="660.5,705.0938,670.5,709.0938,660.5,713.0938,664.5,709.0938" style="stroke:#181818;stroke-width:1.0;"/><line style="stroke:#181818;stroke-width:1.0;" x1="113.5" x2="666.5" y1="709.0938" y2="709.0938"/><text fill="#000000" font-family="sans-serif" font-size="20" font-weight="bold" lengthAdjust="spacing" textLength="26" x="120.5" y="702.875">13</text><text fill="#000000" font-family="sans-serif" font-size="20" lengthAdjust="spacing" textLength="69" x="150.5" y="702.875">types x</text><polygon fill="#181818" points="660.5,742.6484,670.5,746.6484,660.5,750.6484,664.5,746.6484" style="stroke:#181818;stroke-width:1.0;"/><line style="stroke:#181818;stroke-width:1.0;" x1="113.5" x2="666.5" y1="746.6484" y2="746.6484"/><text fill="#000000" font-family="sans-serif" font-size="20" font-weight="bold" lengthAdjust="spacing" textLength="26" x="120.5" y="740.4297">14</text><text fill="#000000" font-family="sans-serif" font-size="20" lengthAdjust="spacing" textLength="67" x="150.5" y="740.4297">types y</text><polygon fill="#181818" points="124.5,794.2031,114.5,798.2031,124.5,802.2031,120.5,798.2031" style="stroke:#181818;stroke-width:1.0;"/><line style="stroke:#181818;stroke-width:1.0;" x1="118.5" x2="671.5" y1="798.2031" y2="798.2031"/><text fill="#000000" font-family="sans-serif" font-size="20" font-weight="bold" lengthAdjust="spacing" textLength="26" x="130.5" y="791.9844">15</text><text fill="#000000" font-family="sans-serif" font-size="20" lengthAdjust="spacing" textLength="337" x="160.5" y="791.9844">shows operation success/insuccess</text><!--SRC=[ZLH1Rjim4Bpp5GjVcXoC5Ztw4A10KC3N6du0GwujmXHNuQvYAw_lIefhoQfiyqIHm-7CQfPy2AcosPQHt04zUDpPEiflIh89dmW_VnW-Gw2aHAx8L298hd6mKrbti7lSI1CHCZgnQH-702wifsD8UzZPo6YChOLINRvXDkPR4Jp2ZaZUw6Ii4ygm-8Fxm89PHMqPym8iGwqJeuGINAXi4bYiDcYpAxRhRd-xDZgK87nOmHuEWz4kmF95SR1I_064W3i2lJr3bQb29KSUdVh7f_J3TMLPAbbBkbA3T6IG0Y6gRA3T79l78TzeYoevgwBiLUgPReIQCt8vyYibgfF34hL4_pq_PsbiJzrTcnjHgqbfAkHsmfHbbkhYUHRINhHysQvNZ57pms0xxhlKesAQgOS7Vr5VFVHcNlfrhJ1vCv-kpTb66jLiDbYF96jKV5SGQsySWnHWOuIGDCAbbK39c9kfvoxsha1VQxTQ-0WSf6i0AQmcS7hBY2uILL0d2H6EseCTc_LUNuUCuDKEzw8aw3l1aOGdtdfhgYRZUutwBrxrsDFfj6oQvQUEPpEDHY-_pzlhTP8wJSSYg9-ffXaXNncVQBd0dqvGK9rRigQVzIL-ljsFlSRJ8w1c0cfJTUlxWMTajjfzajh8Tp41hfr3vkyXVStClGwxhsJmrJs_Vm40]--></g></svg>