<?xml version="1.0" encoding="UTF-8" standalone="no"?><svg xmlns="http://www.w3.org/2000/svg" xmlns:xlink="http://www.w3.org/1999/xlink" contentStyleType="text/css" height="783px" preserveAspectRatio="none" style="width:991px;height:783px;background:#FFFFFF;" version="1.1" viewBox="0 0 991 783" width="991px" zoomAndPan="magnify"><defs/><g><text fill="#000000" font-family="sans-serif" font-size="14" font-weight="bold" lengthAdjust="spacing" textLength="295" x="347" y="28.5352">US004 - System Sequence Diagram (SSD)</text><rect fill="#FFFFFF" height="550.3203" style="stroke:#181818;stroke-width:1.0;" width="10" x="34" y="136.043"/><rect fill="#FFFFFF" height="37.5547" style="stroke:#181818;stroke-width:1.0;" width="10" x="936" y="165.5977"/><rect fill="#FFFFFF" height="61.1094" style="stroke:#181818;stroke-width:1.0;" width="10" x="936" y="240.707"/><rect fill="#FFFFFF" height="37.5547" style="stroke:#181818;stroke-width:1.0;" width="10" x="936" y="339.3711"/><rect fill="#FFFFFF" height="37.5547" style="stroke:#181818;stroke-width:1.0;" width="10" x="936" y="414.4805"/><rect fill="#FFFFFF" height="37.5547" style="stroke:#181818;stroke-width:1.0;" width="10" x="936" y="489.5898"/><rect fill="#FFFFFF" height="37.5547" style="stroke:#181818;stroke-width:1.0;" width="10" x="936" y="564.6992"/><rect fill="#FFFFFF" height="37.5547" style="stroke:#181818;stroke-width:1.0;" width="10" x="936" y="639.8086"/><line style="stroke:#181818;stroke-width:0.5;stroke-dasharray:5.0,5.0;" x1="39" x2="39" y1="126.043" y2="695.3633"/><line style="stroke:#181818;stroke-width:0.5;stroke-dasharray:5.0,5.0;" x1="941" x2="941" y1="126.043" y2="695.3633"/><text fill="#000000" font-family="sans-serif" font-size="20" lengthAdjust="spacing" textLength="62" x="5" y="121.8242">Owner</text><ellipse cx="39" cy="50.9883" fill="#E3E3E3" rx="8" ry="8" style="stroke:#181818;stroke-width:0.5;"/><path d="M39,58.9883 L39,85.9883 M26,66.9883 L52,66.9883 M39,85.9883 L26,100.9883 M39,85.9883 L52,100.9883 " fill="none" style="stroke:#181818;stroke-width:0.5;"/><text fill="#000000" font-family="sans-serif" font-size="20" lengthAdjust="spacing" textLength="62" x="5" y="713.6992">Owner</text><ellipse cx="39" cy="726.418" fill="#E3E3E3" rx="8" ry="8" style="stroke:#181818;stroke-width:0.5;"/><path d="M39,734.418 L39,761.418 M26,742.418 L52,742.418 M39,761.418 L26,776.418 M39,761.418 L52,776.418 " fill="none" style="stroke:#181818;stroke-width:0.5;"/><rect fill="#E3E3E3" height="37.5547" rx="2.5" ry="2.5" style="stroke:#181818;stroke-width:0.5;" width="88" x="897" y="87.4883"/><text fill="#000000" font-family="sans-serif" font-size="20" lengthAdjust="spacing" textLength="74" x="904" y="113.8242">:System</text><rect fill="#E3E3E3" height="37.5547" rx="2.5" ry="2.5" style="stroke:#181818;stroke-width:0.5;" width="88" x="897" y="694.3633"/><text fill="#000000" font-family="sans-serif" font-size="20" lengthAdjust="spacing" textLength="74" x="904" y="720.6992">:System</text><rect fill="#FFFFFF" height="550.3203" style="stroke:#181818;stroke-width:1.0;" width="10" x="34" y="136.043"/><rect fill="#FFFFFF" height="37.5547" style="stroke:#181818;stroke-width:1.0;" width="10" x="936" y="165.5977"/><rect fill="#FFFFFF" height="61.1094" style="stroke:#181818;stroke-width:1.0;" width="10" x="936" y="240.707"/><rect fill="#FFFFFF" height="37.5547" style="stroke:#181818;stroke-width:1.0;" width="10" x="936" y="339.3711"/><rect fill="#FFFFFF" height="37.5547" style="stroke:#181818;stroke-width:1.0;" width="10" x="936" y="414.4805"/><rect fill="#FFFFFF" height="37.5547" style="stroke:#181818;stroke-width:1.0;" width="10" x="936" y="489.5898"/><rect fill="#FFFFFF" height="37.5547" style="stroke:#181818;stroke-width:1.0;" width="10" x="936" y="564.6992"/><rect fill="#FFFFFF" height="37.5547" style="stroke:#181818;stroke-width:1.0;" width="10" x="936" y="639.8086"/><polygon fill="#181818" points="924,161.5977,934,165.5977,924,169.5977,928,165.5977" style="stroke:#181818;stroke-width:1.0;"/><line style="stroke:#181818;stroke-width:1.0;" x1="44" x2="930" y1="165.5977" y2="165.5977"/><text fill="#000000" font-family="sans-serif" font-size="20" font-weight="bold" lengthAdjust="spacing" textLength="13" x="51" y="159.3789">1</text><text fill="#000000" font-family="sans-serif" font-size="20" lengthAdjust="spacing" textLength="559" x="68" y="159.3789">asks to  submit a request for listing a property sale or rent</text><polygon fill="#181818" points="55,199.1523,45,203.1523,55,207.1523,51,203.1523" style="stroke:#181818;stroke-width:1.0;"/><line style="stroke:#181818;stroke-width:1.0;stroke-dasharray:2.0,2.0;" x1="49" x2="940" y1="203.1523" y2="203.1523"/><text fill="#000000" font-family="sans-serif" font-size="20" font-weight="bold" lengthAdjust="spacing" textLength="13" x="61" y="196.9336">2</text><text fill="#000000" font-family="sans-serif" font-size="20" lengthAdjust="spacing" textLength="525" x="78" y="196.9336">requests Owner data (name, phone number and email)</text><polygon fill="#181818" points="924,236.707,934,240.707,924,244.707,928,240.707" style="stroke:#181818;stroke-width:1.0;"/><line style="stroke:#181818;stroke-width:1.0;" x1="44" x2="930" y1="240.707" y2="240.707"/><text fill="#000000" font-family="sans-serif" font-size="20" font-weight="bold" lengthAdjust="spacing" textLength="13" x="51" y="234.4883">3</text><text fill="#000000" font-family="sans-serif" font-size="20" lengthAdjust="spacing" textLength="201" x="68" y="234.4883">types requested data</text><polygon fill="#181818" points="55,297.8164,45,301.8164,55,305.8164,51,301.8164" style="stroke:#181818;stroke-width:1.0;"/><line style="stroke:#181818;stroke-width:1.0;stroke-dasharray:2.0,2.0;" x1="49" x2="940" y1="301.8164" y2="301.8164"/><text fill="#000000" font-family="sans-serif" font-size="20" font-weight="bold" lengthAdjust="spacing" textLength="13" x="61" y="283.8203">4</text><text fill="#000000" font-family="sans-serif" font-size="20" lengthAdjust="spacing" textLength="845" x="78" y="272.043">requests data from the property (select the type of business and property characteristics</text><text fill="#000000" font-family="sans-serif" font-size="20" lengthAdjust="spacing" textLength="292" x="78" y="295.5977">and types the requested price)</text><polygon fill="#181818" points="924,335.3711,934,339.3711,924,343.3711,928,339.3711" style="stroke:#181818;stroke-width:1.0;"/><line style="stroke:#181818;stroke-width:1.0;" x1="44" x2="930" y1="339.3711" y2="339.3711"/><text fill="#000000" font-family="sans-serif" font-size="20" font-weight="bold" lengthAdjust="spacing" textLength="13" x="51" y="333.1523">5</text><text fill="#000000" font-family="sans-serif" font-size="20" lengthAdjust="spacing" textLength="201" x="68" y="333.1523">types requested data</text><polygon fill="#181818" points="55,372.9258,45,376.9258,55,380.9258,51,376.9258" style="stroke:#181818;stroke-width:1.0;"/><line style="stroke:#181818;stroke-width:1.0;stroke-dasharray:2.0,2.0;" x1="49" x2="940" y1="376.9258" y2="376.9258"/><text fill="#000000" font-family="sans-serif" font-size="20" font-weight="bold" lengthAdjust="spacing" textLength="13" x="61" y="370.707">6</text><text fill="#000000" font-family="sans-serif" font-size="20" lengthAdjust="spacing" textLength="392" x="78" y="370.707">shows a list of agencies and ask to select</text><polygon fill="#181818" points="924,410.4805,934,414.4805,924,418.4805,928,414.4805" style="stroke:#181818;stroke-width:1.0;"/><line style="stroke:#181818;stroke-width:1.0;" x1="44" x2="930" y1="414.4805" y2="414.4805"/><text fill="#000000" font-family="sans-serif" font-size="20" font-weight="bold" lengthAdjust="spacing" textLength="13" x="51" y="408.2617">7</text><text fill="#000000" font-family="sans-serif" font-size="20" lengthAdjust="spacing" textLength="173" x="68" y="408.2617">selects the agency</text><polygon fill="#181818" points="55,448.0352,45,452.0352,55,456.0352,51,452.0352" style="stroke:#181818;stroke-width:1.0;"/><line style="stroke:#181818;stroke-width:1.0;stroke-dasharray:2.0,2.0;" x1="49" x2="940" y1="452.0352" y2="452.0352"/><text fill="#000000" font-family="sans-serif" font-size="20" font-weight="bold" lengthAdjust="spacing" textLength="13" x="61" y="445.8164">8</text><text fill="#000000" font-family="sans-serif" font-size="20" lengthAdjust="spacing" textLength="280" x="78" y="445.8164">asks if wants to choose agent</text><polygon fill="#181818" points="924,485.5898,934,489.5898,924,493.5898,928,489.5898" style="stroke:#181818;stroke-width:1.0;"/><line style="stroke:#181818;stroke-width:1.0;" x1="44" x2="930" y1="489.5898" y2="489.5898"/><text fill="#000000" font-family="sans-serif" font-size="20" font-weight="bold" lengthAdjust="spacing" textLength="13" x="51" y="483.3711">9</text><text fill="#000000" font-family="sans-serif" font-size="20" lengthAdjust="spacing" textLength="236" x="68" y="483.3711">asks to choose the agent</text><polygon fill="#181818" points="55,523.1445,45,527.1445,55,531.1445,51,527.1445" style="stroke:#181818;stroke-width:1.0;"/><line style="stroke:#181818;stroke-width:1.0;stroke-dasharray:2.0,2.0;" x1="49" x2="940" y1="527.1445" y2="527.1445"/><text fill="#000000" font-family="sans-serif" font-size="20" font-weight="bold" lengthAdjust="spacing" textLength="26" x="61" y="520.9258">10</text><text fill="#000000" font-family="sans-serif" font-size="20" lengthAdjust="spacing" textLength="144" x="91" y="520.9258">lists the agents</text><polygon fill="#181818" points="924,560.6992,934,564.6992,924,568.6992,928,564.6992" style="stroke:#181818;stroke-width:1.0;"/><line style="stroke:#181818;stroke-width:1.0;" x1="44" x2="930" y1="564.6992" y2="564.6992"/><text fill="#000000" font-family="sans-serif" font-size="20" font-weight="bold" lengthAdjust="spacing" textLength="26" x="51" y="558.4805">11</text><text fill="#000000" font-family="sans-serif" font-size="20" lengthAdjust="spacing" textLength="160" x="81" y="558.4805">selects the agent</text><polygon fill="#181818" points="55,598.2539,45,602.2539,55,606.2539,51,602.2539" style="stroke:#181818;stroke-width:1.0;"/><line style="stroke:#181818;stroke-width:1.0;stroke-dasharray:2.0,2.0;" x1="49" x2="940" y1="602.2539" y2="602.2539"/><text fill="#000000" font-family="sans-serif" font-size="20" font-weight="bold" lengthAdjust="spacing" textLength="26" x="61" y="596.0352">12</text><text fill="#000000" font-family="sans-serif" font-size="20" lengthAdjust="spacing" textLength="318" x="91" y="596.0352">shows the data and agent chosed</text><polygon fill="#181818" points="924,635.8086,934,639.8086,924,643.8086,928,639.8086" style="stroke:#181818;stroke-width:1.0;"/><line style="stroke:#181818;stroke-width:1.0;" x1="44" x2="930" y1="639.8086" y2="639.8086"/><text fill="#000000" font-family="sans-serif" font-size="20" font-weight="bold" lengthAdjust="spacing" textLength="26" x="51" y="633.5898">13</text><text fill="#000000" font-family="sans-serif" font-size="20" lengthAdjust="spacing" textLength="263" x="81" y="633.5898">Submits the data and agent</text><polygon fill="#181818" points="55,673.3633,45,677.3633,55,681.3633,51,677.3633" style="stroke:#181818;stroke-width:1.0;"/><line style="stroke:#181818;stroke-width:1.0;stroke-dasharray:2.0,2.0;" x1="49" x2="940" y1="677.3633" y2="677.3633"/><text fill="#000000" font-family="sans-serif" font-size="20" font-weight="bold" lengthAdjust="spacing" textLength="26" x="61" y="671.1445">14</text><text fill="#000000" font-family="sans-serif" font-size="20" lengthAdjust="spacing" textLength="229" x="91" y="671.1445">Shows success message</text><!--SRC=[jLCzZzim3DtzAuXCEQ01Wg9JXaw7hXs4RbqOcOw5M98hqWtSNrzAYfD3wqFXeHu2nIBV1_dCLnT6JEY7QA_KGaiTJeDyYK6C-qNmyTZmKW8-XcZx53s1f8dUt8nehtWX8_D0aCWAXilmje1xREFDXGjqE30rZJZHqc_cUFm41p0p2tamz6EYO0bU7LvoszwOrvUcmKbYcFoPafwjn0IxhxT0QGV8K4wDqeYpRiGWi3jLl79TZwNF_KIXUtr-G9_o3mwV5madxRaoI0JWwUoT0AeXbSK2dH8FZYNRG1XJ72d938pgHAyI1IcO3wg5Ex-yun-KgdAU5jox1MXH4FO1FNs0iO-1e7e632sGHpUy5AIMLWd-TYBpIBomvEKgmVi2_oMooEjq-o0zFTtlcGPTU7cP2I5sS9xO1M8koX-LjjSeMA6KHsWPleTyNKNcxgVGCJbB_zNiYb7kuqqLbmrd4vhdO1rL4ngAd8dgzJ6kTyIj2wozrMh1dX_5M_PHukawk6dIIqvj7oDNIDasiYNfTuH5c6pEI1xPqvZmDXb_3cOxVrrTxYyXBGlBGDaPKxjDZYcV_HhSPbscwEB9slmnUFrHd7Krlm40]--></g></svg>