<?xml version="1.0" encoding="UTF-8" standalone="no"?><svg xmlns="http://www.w3.org/2000/svg" xmlns:xlink="http://www.w3.org/1999/xlink" contentStyleType="text/css" height="2768px" preserveAspectRatio="none" style="width:1212px;height:2768px;background:#FFFFFF;" version="1.1" viewBox="0 0 1212 2768" width="1212px" zoomAndPan="magnify"><defs/><g><!--cluster System--><g id="cluster_System"><rect fill="none" height="2755" rx="2.5" ry="2.5" style="stroke:#181818;stroke-width:1.0;" width="952" x="254" y="7"/><text fill="#000000" font-family="sans-serif" font-size="20" font-weight="bold" lengthAdjust="spacing" textLength="73" x="693.5" y="28.3359">System</text></g><g id="elem_US001"><ellipse cx="729.8826" cy="88.0765" fill="#F1F1F1" rx="183.3826" ry="39.0765" style="stroke:#181818;stroke-width:0.5;"/><text fill="#000000" font-family="sans-serif" font-size="20" lengthAdjust="spacing" textLength="329" x="565.3826" y="93.6351">US 001 - Display listed properties</text></g><g id="elem_US002"><ellipse cx="729.9785" cy="448.1957" fill="#F1F1F1" rx="128.9785" ry="28.1957" style="stroke:#181818;stroke-width:0.5;"/><text fill="#000000" font-family="sans-serif" font-size="20" lengthAdjust="spacing" textLength="209" x="622.4785" y="455.1137">US 002 - Publish Sale</text></g><g id="elem_US003"><ellipse cx="729.8011" cy="1505.8602" fill="#F1F1F1" rx="184.8011" ry="39.3602" style="stroke:#181818;stroke-width:0.5;"/><text fill="#000000" font-family="sans-serif" font-size="20" lengthAdjust="spacing" textLength="332" x="563.8011" y="1511.4188">US 003 - Register a new employee</text></g><g id="elem_US004"><ellipse cx="729.8706" cy="1629.7741" fill="#F1F1F1" rx="231.8706" ry="48.7741" style="stroke:#181818;stroke-width:0.5;"/><text fill="#000000" font-family="sans-serif" font-size="20" lengthAdjust="spacing" textLength="372" x="537.8706" y="1624.9147">US 004 - Submit a request for listing a</text><text fill="#000000" font-family="sans-serif" font-size="20" lengthAdjust="spacing" textLength="196" x="628.8706" y="1648.4694">property sale or rent</text></g><g id="elem_US005"><ellipse cx="729.7643" cy="1257.1529" fill="#F1F1F1" rx="143.7643" ry="31.1529" style="stroke:#181818;stroke-width:0.5;"/><text fill="#000000" font-family="sans-serif" font-size="20" lengthAdjust="spacing" textLength="243" x="605.2643" y="1264.0708">US 005 - Register a store</text></g><g id="elem_US007"><ellipse cx="730.0855" cy="198.8171" fill="#F1F1F1" rx="172.0855" ry="36.8171" style="stroke:#181818;stroke-width:0.5;"/><text fill="#000000" font-family="sans-serif" font-size="20" lengthAdjust="spacing" textLength="305" x="577.5855" y="204.3757">US 007 - Register in the system</text></g><g id="elem_US008"><ellipse cx="730.2011" cy="736.0402" fill="#F1F1F1" rx="285.7011" ry="59.5402" style="stroke:#181818;stroke-width:0.5;"/><text fill="#000000" font-family="sans-serif" font-size="20" lengthAdjust="spacing" textLength="541" x="459.7011" y="741.5988">US 008 - See agent requests and publish announcement</text></g><g id="elem_US009"><ellipse cx="729.7643" cy="2199.1529" fill="#F1F1F1" rx="143.7643" ry="31.1529" style="stroke:#181818;stroke-width:0.5;"/><text fill="#000000" font-family="sans-serif" font-size="20" lengthAdjust="spacing" textLength="243" x="605.2643" y="2206.0708">US 009 - Register a store</text></g><g id="elem_US010"><ellipse cx="730.0615" cy="1766.8123" fill="#F1F1F1" rx="252.0615" ry="52.8123" style="stroke:#181818;stroke-width:0.5;"/><text fill="#000000" font-family="sans-serif" font-size="20" lengthAdjust="spacing" textLength="472" x="494.0615" y="1772.3709">US 010 - Place an order to purchase the property</text></g><g id="elem_US011"><ellipse cx="729.8114" cy="924.8623" fill="#F1F1F1" rx="459.8114" ry="94.3623" style="stroke:#181818;stroke-width:0.5;"/><text fill="#000000" font-family="sans-serif" font-size="20" lengthAdjust="spacing" textLength="894" x="282.8114" y="930.4209">US 011 - List real estate purchase orders to accept or decline a purchase order for a property</text></g><g id="elem_US012"><ellipse cx="729.8819" cy="1377.0764" fill="#F1F1F1" rx="258.3819" ry="54.0764" style="stroke:#181818;stroke-width:0.5;"/><text fill="#000000" font-family="sans-serif" font-size="20" lengthAdjust="spacing" textLength="485" x="487.3819" y="1382.635">US 012 - Import information from a legacy system</text></g><g id="elem_US013"><ellipse cx="729.7514" cy="2699.8503" fill="#F1F1F1" rx="217.2514" ry="45.8503" style="stroke:#181818;stroke-width:0.5;"/><text fill="#000000" font-family="sans-serif" font-size="20" lengthAdjust="spacing" textLength="400" x="529.7514" y="2705.4089">US 013 - List all employees in every store</text></g><g id="elem_US014"><ellipse cx="729.7894" cy="1896.7579" fill="#F1F1F1" rx="194.2894" ry="41.2579" style="stroke:#181818;stroke-width:0.5;"/><text fill="#000000" font-family="sans-serif" font-size="20" lengthAdjust="spacing" textLength="352" x="553.7894" y="1902.3165">US 014 - Register user in the system</text></g><g id="elem_US015"><ellipse cx="729.8731" cy="1123.0746" fill="#F1F1F1" rx="328.3731" ry="68.0746" style="stroke:#181818;stroke-width:0.5;"/><text fill="#000000" font-family="sans-serif" font-size="20" lengthAdjust="spacing" textLength="628" x="415.8731" y="1128.6332">US 015 - List all booking requests for properties managed by me</text></g><g id="elem_US016"><ellipse cx="730.0119" cy="327.9024" fill="#F1F1F1" rx="272.5119" ry="56.9024" style="stroke:#181818;stroke-width:0.5;"/><text fill="#000000" font-family="sans-serif" font-size="20" lengthAdjust="spacing" textLength="514" x="473.0119" y="333.461">US 016 - Respond to the user that scheduled the visit</text></g><g id="elem_US017"><ellipse cx="729.9457" cy="2299.9891" fill="#F1F1F1" rx="160.4457" ry="34.4891" style="stroke:#181818;stroke-width:0.5;"/><text fill="#000000" font-family="sans-serif" font-size="20" lengthAdjust="spacing" textLength="274" x="589.0671" y="2305.9834">US 017 - List all deals made</text></g><g id="elem_US018"><ellipse cx="729.9775" cy="2422.8955" fill="#F1F1F1" rx="254.9775" ry="53.3955" style="stroke:#181818;stroke-width:0.5;"/><text fill="#000000" font-family="sans-serif" font-size="20" lengthAdjust="spacing" textLength="472" x="490.9775" y="2428.4541">US 018 - Place an order to purchase the property</text></g><g id="elem_US019"><ellipse cx="729.9775" cy="2564.8955" fill="#F1F1F1" rx="254.9775" ry="53.3955" style="stroke:#181818;stroke-width:0.5;"/><text fill="#000000" font-family="sans-serif" font-size="20" lengthAdjust="spacing" textLength="472" x="490.9775" y="2570.4541">US 019 - Place an order to purchase the property</text></g><g id="elem_US020"><ellipse cx="730.0534" cy="2053.1107" fill="#F1F1F1" rx="386.0534" ry="79.6107" style="stroke:#181818;stroke-width:0.5;"/><text fill="#000000" font-family="sans-serif" font-size="20" lengthAdjust="spacing" textLength="745" x="357.5534" y="2058.6693">US 020 - Read responses for appointment requests and accept or reject them</text></g><g id="elem_US021"><ellipse cx="730.1417" cy="576.0283" fill="#F1F1F1" rx="313.1417" ry="65.0283" style="stroke:#181818;stroke-width:0.5;"/><text fill="#000000" font-family="sans-serif" font-size="20" lengthAdjust="spacing" textLength="597" x="431.6417" y="581.5869">US 021 - Register the visit and the opinion about the business</text></g><!--entity user--><g id="elem_user"><ellipse cx="108" cy="110.5" fill="#F1F1F1" rx="8" ry="8" style="stroke:#181818;stroke-width:0.5;"/><path d="M108,118.5 L108,145.5 M95,126.5 L121,126.5 M108,145.5 L95,160.5 M108,145.5 L121,160.5 " fill="none" style="stroke:#181818;stroke-width:0.5;"/><text fill="#000000" font-family="sans-serif" font-size="20" lengthAdjust="spacing" textLength="172" x="22" y="181.3359">Unregistered User</text></g><!--entity Agent--><g id="elem_Agent"><ellipse cx="108" cy="622.5" fill="#F1F1F1" rx="8" ry="8" style="stroke:#181818;stroke-width:0.5;"/><path d="M108,630.5 L108,657.5 M95,638.5 L121,638.5 M108,657.5 L95,672.5 M108,657.5 L121,672.5 " fill="none" style="stroke:#181818;stroke-width:0.5;"/><text fill="#000000" font-family="sans-serif" font-size="20" lengthAdjust="spacing" textLength="56" x="80" y="693.3359">Agent</text></g><!--entity admin--><g id="elem_admin"><ellipse cx="108" cy="1343.5" fill="#F1F1F1" rx="8" ry="8" style="stroke:#181818;stroke-width:0.5;"/><path d="M108,1351.5 L108,1378.5 M95,1359.5 L121,1359.5 M108,1378.5 L95,1393.5 M108,1378.5 L121,1393.5 " fill="none" style="stroke:#181818;stroke-width:0.5;"/><text fill="#000000" font-family="sans-serif" font-size="20" lengthAdjust="spacing" textLength="204" x="6" y="1414.3359">System administrator</text></g><!--entity Owner--><g id="elem_Owner"><ellipse cx="108" cy="1596.5" fill="#F1F1F1" rx="8" ry="8" style="stroke:#181818;stroke-width:0.5;"/><path d="M108,1604.5 L108,1631.5 M95,1612.5 L121,1612.5 M108,1631.5 L95,1646.5 M108,1631.5 L121,1646.5 " fill="none" style="stroke:#181818;stroke-width:0.5;"/><text fill="#000000" font-family="sans-serif" font-size="20" lengthAdjust="spacing" textLength="62" x="77" y="1667.3359">Owner</text></g><!--entity Client--><g id="elem_Client"><ellipse cx="108" cy="1941.5" fill="#F1F1F1" rx="8" ry="8" style="stroke:#181818;stroke-width:0.5;"/><path d="M108,1949.5 L108,1976.5 M95,1957.5 L121,1957.5 M108,1976.5 L95,1991.5 M108,1976.5 L121,1991.5 " fill="none" style="stroke:#181818;stroke-width:0.5;"/><text fill="#000000" font-family="sans-serif" font-size="20" lengthAdjust="spacing" textLength="56" x="80" y="2012.3359">Client</text></g><!--entity manager--><g id="elem_manager"><ellipse cx="108" cy="2460.5" fill="#F1F1F1" rx="8" ry="8" style="stroke:#181818;stroke-width:0.5;"/><path d="M108,2468.5 L108,2495.5 M95,2476.5 L121,2476.5 M108,2495.5 L95,2510.5 M108,2495.5 L121,2510.5 " fill="none" style="stroke:#181818;stroke-width:0.5;"/><text fill="#000000" font-family="sans-serif" font-size="20" lengthAdjust="spacing" textLength="170" x="23" y="2531.3359">Network manager</text></g><!--link user to US001--><g id="link_user_US001"><path d="M194.23,136.3 C288.33,127.8 442.18,113.91 560.76,103.2 " fill="none" id="user-US001" style="stroke:#181818;stroke-width:1.0;"/></g><!--link Agent to US002--><g id="link_Agent_US002"><path d="M131.55,613.8 C154.71,575.13 194.58,519.92 246,493 C361.08,432.74 512.84,428.76 615.29,435.12 " fill="none" id="Agent-US002" style="stroke:#181818;stroke-width:1.0;"/></g><!--link admin to US003--><g id="link_admin_US003"><path d="M178.4,1419.08 C199.45,1430.14 223.09,1440.94 246,1448 C342.96,1477.87 455.27,1492.48 547.18,1499.57 " fill="none" id="admin-US003" style="stroke:#181818;stroke-width:1.0;"/></g><!--link Owner to US004--><g id="link_Owner_US004"><path d="M139.32,1630 C204.24,1630 361.81,1630 497.74,1630 " fill="none" id="Owner-US004" style="stroke:#181818;stroke-width:1.0;"/></g><!--link admin to US005--><g id="link_admin_US005"><path d="M176.49,1334.96 C197.97,1323.4 222.32,1312.1 246,1305 C357.08,1271.67 488.32,1260.31 585.94,1256.92 " fill="none" id="admin-US005" style="stroke:#181818;stroke-width:1.0;"/></g><!--link user to US007--><g id="link_user_US007"><path d="M194.23,151.56 C290.99,160.14 450.91,174.33 570.71,184.96 " fill="none" id="user-US007" style="stroke:#181818;stroke-width:1.0;"/></g><!--link Agent to US008--><g id="link_Agent_US008"><path d="M136.04,659.49 C197.1,667.37 350.94,687.22 486.62,704.72 " fill="none" id="Agent-US008" style="stroke:#181818;stroke-width:1.0;"/></g><!--link Client to US009--><g id="link_Client_US009"><path d="M129.12,2017.02 C151.44,2058.52 191.6,2120.01 246,2150 C354.59,2209.87 497.9,2217.11 600.15,2212.44 " fill="none" id="Client-US009" style="stroke:#181818;stroke-width:1.0;"/></g><!--link Client to US010--><g id="link_Client_US010"><path d="M136.09,1936.59 C160.85,1904.66 200.47,1860.88 246,1838 C317.38,1802.13 401.66,1783.05 479.68,1773.26 " fill="none" id="Client-US010" style="stroke:#181818;stroke-width:1.0;"/></g><!--link Agent to US011--><g id="link_Agent_US011"><path d="M134.88,698.31 C159.14,734.33 198.7,784.61 246,813 C282.9,835.15 323.81,852.92 365.76,867.18 " fill="none" id="Agent-US011" style="stroke:#181818;stroke-width:1.0;"/></g><!--link admin to US012--><g id="link_admin_US012"><path d="M210.34,1377 C281.32,1377 379.55,1377 471.45,1377 " fill="none" id="admin-US012" style="stroke:#181818;stroke-width:1.0;"/></g><!--link manager to US013--><g id="link_manager_US013"><path d="M137.41,2536.29 C162.02,2569.26 200.74,2613.15 246,2636 C327.36,2677.08 425.8,2694.91 512.53,2701.8 " fill="none" id="manager-US013" style="stroke:#181818;stroke-width:1.0;"/></g><!--link Client to US014--><g id="link_Client_US014"><path d="M136.02,1971.12 C163.64,1967.19 207.78,1960.98 246,1956 C350.08,1942.43 466.91,1928.13 559.59,1917.01 " fill="none" id="Client-US014" style="stroke:#181818;stroke-width:1.0;"/></g><!--link Agent to US015--><g id="link_Agent_US015"><path d="M110.99,698.28 C117.17,777.83 142.45,949.62 246,1037 C291.08,1075.04 347.11,1098.79 404.87,1113.2 " fill="none" id="Agent-US015" style="stroke:#181818;stroke-width:1.0;"/></g><!--link Agent to US016--><g id="link_Agent_US016"><path d="M119.1,613.94 C135.35,556.11 173.11,453.39 246,402 C307.19,358.86 383.59,336.67 457.44,326.11 " fill="none" id="Agent-US016" style="stroke:#181818;stroke-width:1.0;"/></g><!--link manager to US017--><g id="link_manager_US017"><path d="M137.02,2451.74 C161.53,2418.57 200.31,2374.37 246,2352 C348.26,2301.94 476.99,2290.21 575.83,2290.32 " fill="none" id="manager-US017" style="stroke:#181818;stroke-width:1.0;"/></g><!--link manager to US018--><g id="link_manager_US018"><path d="M193.26,2484.35 C273.3,2475.18 397.2,2461 505.69,2448.57 " fill="none" id="manager-US018" style="stroke:#181818;stroke-width:1.0;"/></g><!--link manager to US019--><g id="link_manager_US019"><path d="M193.26,2503.65 C273.3,2512.82 397.2,2527 505.69,2539.43 " fill="none" id="manager-US019" style="stroke:#181818;stroke-width:1.0;"/></g><!--link Client to US020--><g id="link_Client_US020"><path d="M136.04,1978.4 C184.34,1984.48 290.7,1997.86 400.19,2011.63 " fill="none" id="Client-US020" style="stroke:#181818;stroke-width:1.0;"/></g><!--link Agent to US021--><g id="link_Agent_US021"><path d="M136.04,652.51 C193.67,645.08 333.92,626.98 463.55,610.25 " fill="none" id="Agent-US021" style="stroke:#181818;stroke-width:1.0;"/></g><!--SRC=[dLLDZzCm4BtdLupsigTAJTfksoDQG492WAZsncMQJ1DJnmwsioKW_ZlZVCUB4AA7gfFCUtv-y-pQgr0L6YobJg-KGKONhALxgvKxYHy4oJgwjqCFb5hfj32w972cfcXwKs5wnPnEhf44XbA7AfSqnze2CtqJAeSBIaiHV-wTSDp-P0aUaRzU2ynzwvllM5QCZYHT73WDHkI5WqnuOg5L567gj86x9sKe5zQHOUbCO-u0BTJye-zubPDoG_UfuSuIC2k5Of11Vje2sYTzryUR6j6FKipW7yZTjBb2YOftsY7xtxoNSS_GBVCpOXcftzNTqmdMwnXMl3zRIMn0UiaPL4PNP9mWst8zdRWhG2MC-bIV6L302IMDZKdGkE76pxqNWA3e1iGUweOcp2R0R1bpgi-bS8mmzAqcw-32M_Nw_A0GlgXUP0EMbmT-QTYIaN8RKEwMCYmRDws_2vhtysQXm1K4jZLlXEm3oC5B9WBqSnqqym0LkzdRX4hfMgLKpdKU0fxZttGUbytnsWz1OihBAdOWOmXdigfDMlWcBtjmQU28rm677_zxNeuremGMZOucYfRKUbPCKwgSzpcZL0h5QmPjxOJmvOf1T68VdNTbfOrZRnbJeZywSE7Jot19EQPDO7SSf2hU3AfHoZ5Fri-AdiaqIz_Y85_nTcwoFvH_7d8SX2ZUpLSzQttrMHndxRS_dPp-16PmRg1aAGDdaBNueTLYAyr9OPkzYbQHAz21JGlAQiai_lcpi69CJlmG4EtduZ8UffUGyTi144GsFlnxUYQI8A_nyNz8WXmdwzO3pDXBRuIbpaoiAYsKAr-Sg2cBXhxozUQN6QUM10bFulcqHnzR8b_fYYzTpX-UTTqomRcsd6yxNdv974M__Dz2EvZLghyGsojyA9EelQk7SXErr_LGRfTlTmkc_PBf47Mt-r0VbpKVu7axdwuvDH-K_kRlwqsFxijj1rwjkYZEYeS9s8LbKHwMvN5axGoVUBnNlm40]--></g></svg>