<?xml version="1.0" encoding="UTF-8" standalone="no"?><svg xmlns="http://www.w3.org/2000/svg" xmlns:xlink="http://www.w3.org/1999/xlink" contentStyleType="text/css" height="593px" preserveAspectRatio="none" style="width:801px;height:593px;background:#FFFFFF;" version="1.1" viewBox="0 0 801 593" width="801px" zoomAndPan="magnify"><defs/><g><text fill="#000000" font-family="sans-serif" font-size="14" font-weight="bold" lengthAdjust="spacing" textLength="363" x="220.5" y="28.5352">System Sequence Diagram (SSD) - Alternative One</text><rect fill="#FFFFFF" height="360.1016" style="stroke:#181818;stroke-width:1.0;" width="10" x="46" y="136.043"/><rect fill="#FFFFFF" height="37.5547" style="stroke:#181818;stroke-width:1.0;" width="10" x="736" y="165.5977"/><rect fill="#FFFFFF" height="37.5547" style="stroke:#181818;stroke-width:1.0;" width="10" x="736" y="240.707"/><rect fill="#FFFFFF" height="130.2188" style="stroke:#181818;stroke-width:1.0;" width="10" x="736" y="356.9258"/><rect fill="none" height="71.6641" style="stroke:#000000;stroke-width:1.5;" width="785" x="10" y="293.2617"/><rect fill="none" height="71.6641" style="stroke:#000000;stroke-width:1.5;" width="785" x="10" y="378.9258"/><line style="stroke:#181818;stroke-width:0.5;stroke-dasharray:5.0,5.0;" x1="51" x2="51" y1="126.043" y2="505.1445"/><line style="stroke:#181818;stroke-width:0.5;stroke-dasharray:5.0,5.0;" x1="741" x2="741" y1="126.043" y2="505.1445"/><text fill="#000000" font-family="sans-serif" font-size="20" lengthAdjust="spacing" textLength="56" x="20" y="121.8242">Client</text><ellipse cx="51" cy="50.9883" fill="#E3E3E3" rx="8" ry="8" style="stroke:#181818;stroke-width:0.5;"/><path d="M51,58.9883 L51,85.9883 M38,66.9883 L64,66.9883 M51,85.9883 L38,100.9883 M51,85.9883 L64,100.9883 " fill="none" style="stroke:#181818;stroke-width:0.5;"/><text fill="#000000" font-family="sans-serif" font-size="20" lengthAdjust="spacing" textLength="56" x="20" y="523.4805">Client</text><ellipse cx="51" cy="536.1992" fill="#E3E3E3" rx="8" ry="8" style="stroke:#181818;stroke-width:0.5;"/><path d="M51,544.1992 L51,571.1992 M38,552.1992 L64,552.1992 M51,571.1992 L38,586.1992 M51,571.1992 L64,586.1992 " fill="none" style="stroke:#181818;stroke-width:0.5;"/><rect fill="#E3E3E3" height="37.5547" rx="2.5" ry="2.5" style="stroke:#181818;stroke-width:0.5;" width="88" x="697" y="87.4883"/><text fill="#000000" font-family="sans-serif" font-size="20" lengthAdjust="spacing" textLength="74" x="704" y="113.8242">:System</text><rect fill="#E3E3E3" height="37.5547" rx="2.5" ry="2.5" style="stroke:#181818;stroke-width:0.5;" width="88" x="697" y="504.1445"/><text fill="#000000" font-family="sans-serif" font-size="20" lengthAdjust="spacing" textLength="74" x="704" y="530.4805">:System</text><rect fill="#FFFFFF" height="360.1016" style="stroke:#181818;stroke-width:1.0;" width="10" x="46" y="136.043"/><rect fill="#FFFFFF" height="37.5547" style="stroke:#181818;stroke-width:1.0;" width="10" x="736" y="165.5977"/><rect fill="#FFFFFF" height="37.5547" style="stroke:#181818;stroke-width:1.0;" width="10" x="736" y="240.707"/><rect fill="#FFFFFF" height="130.2188" style="stroke:#181818;stroke-width:1.0;" width="10" x="736" y="356.9258"/><polygon fill="#181818" points="724,161.5977,734,165.5977,724,169.5977,728,165.5977" style="stroke:#181818;stroke-width:1.0;"/><line style="stroke:#181818;stroke-width:1.0;" x1="56" x2="730" y1="165.5977" y2="165.5977"/><text fill="#000000" font-family="sans-serif" font-size="20" font-weight="bold" lengthAdjust="spacing" textLength="13" x="63" y="159.3789">1</text><text fill="#000000" font-family="sans-serif" font-size="20" lengthAdjust="spacing" textLength="456" x="80" y="159.3789">requests to read appointment requests answers</text><polygon fill="#181818" points="67,199.1523,57,203.1523,67,207.1523,63,203.1523" style="stroke:#181818;stroke-width:1.0;"/><line style="stroke:#181818;stroke-width:1.0;stroke-dasharray:2.0,2.0;" x1="61" x2="740" y1="203.1523" y2="203.1523"/><text fill="#000000" font-family="sans-serif" font-size="20" font-weight="bold" lengthAdjust="spacing" textLength="13" x="73" y="196.9336">2</text><text fill="#000000" font-family="sans-serif" font-size="20" lengthAdjust="spacing" textLength="258" x="90" y="196.9336">shows list of appointments</text><polygon fill="#181818" points="724,236.707,734,240.707,724,244.707,728,240.707" style="stroke:#181818;stroke-width:1.0;"/><line style="stroke:#181818;stroke-width:1.0;" x1="56" x2="730" y1="240.707" y2="240.707"/><text fill="#000000" font-family="sans-serif" font-size="20" font-weight="bold" lengthAdjust="spacing" textLength="13" x="63" y="234.4883">3</text><text fill="#000000" font-family="sans-serif" font-size="20" lengthAdjust="spacing" textLength="194" x="80" y="234.4883">selects appointment</text><polygon fill="#181818" points="67,274.2617,57,278.2617,67,282.2617,63,278.2617" style="stroke:#181818;stroke-width:1.0;"/><line style="stroke:#181818;stroke-width:1.0;stroke-dasharray:2.0,2.0;" x1="61" x2="740" y1="278.2617" y2="278.2617"/><text fill="#000000" font-family="sans-serif" font-size="20" font-weight="bold" lengthAdjust="spacing" textLength="13" x="73" y="272.043">4</text><text fill="#000000" font-family="sans-serif" font-size="20" lengthAdjust="spacing" textLength="639" x="90" y="272.043">shows appointment information(property, date, agent information)</text><path d="M10,293.2617 L82,293.2617 L82,308.8164 L72,318.8164 L10,318.8164 L10,293.2617 " fill="#EEEEEE" style="stroke:#000000;stroke-width:1.5;"/><rect fill="none" height="71.6641" style="stroke:#000000;stroke-width:1.5;" width="785" x="10" y="293.2617"/><text fill="#000000" font-family="sans-serif" font-size="20" font-weight="bold" lengthAdjust="spacing" textLength="27" x="25" y="313.5977">alt</text><text fill="#000000" font-family="sans-serif" font-size="20" font-weight="bold" lengthAdjust="spacing" textLength="230" x="97" y="314.5977">[accepts appointment]</text><polygon fill="#181818" points="724,352.9258,734,356.9258,724,360.9258,728,356.9258" style="stroke:#181818;stroke-width:1.0;"/><line style="stroke:#181818;stroke-width:1.0;" x1="56" x2="730" y1="356.9258" y2="356.9258"/><text fill="#000000" font-family="sans-serif" font-size="20" font-weight="bold" lengthAdjust="spacing" textLength="13" x="63" y="350.707">5</text><text fill="#000000" font-family="sans-serif" font-size="20" lengthAdjust="spacing" textLength="201" x="80" y="350.707">accepts appointment</text><path d="M10,378.9258 L82,378.9258 L82,394.4805 L72,404.4805 L10,404.4805 L10,378.9258 " fill="#EEEEEE" style="stroke:#000000;stroke-width:1.5;"/><rect fill="none" height="71.6641" style="stroke:#000000;stroke-width:1.5;" width="785" x="10" y="378.9258"/><text fill="#000000" font-family="sans-serif" font-size="20" font-weight="bold" lengthAdjust="spacing" textLength="27" x="25" y="399.2617">alt</text><text fill="#000000" font-family="sans-serif" font-size="20" font-weight="bold" lengthAdjust="spacing" textLength="222" x="97" y="400.2617">[rejects appointment]</text><polygon fill="#181818" points="724,438.5898,734,442.5898,724,446.5898,728,442.5898" style="stroke:#181818;stroke-width:1.0;"/><line style="stroke:#181818;stroke-width:1.0;" x1="56" x2="730" y1="442.5898" y2="442.5898"/><text fill="#000000" font-family="sans-serif" font-size="20" font-weight="bold" lengthAdjust="spacing" textLength="13" x="63" y="436.3711">6</text><text fill="#000000" font-family="sans-serif" font-size="20" lengthAdjust="spacing" textLength="480" x="80" y="436.3711">specifys reason why the appointment was rejected</text><polygon fill="#181818" points="67,483.1445,57,487.1445,67,491.1445,63,487.1445" style="stroke:#181818;stroke-width:1.0;"/><line style="stroke:#181818;stroke-width:1.0;stroke-dasharray:2.0,2.0;" x1="61" x2="740" y1="487.1445" y2="487.1445"/><text fill="#000000" font-family="sans-serif" font-size="20" font-weight="bold" lengthAdjust="spacing" textLength="13" x="73" y="480.9258">7</text><text fill="#000000" font-family="sans-serif" font-size="20" lengthAdjust="spacing" textLength="171" x="90" y="480.9258">operation success</text><!--SRC=[XL7DJiCm3BxtAQoTcCGan74790JYog5FO59t2qkT4BjKvUbnstNgne2UhFhpznSvU4wOiGdH7QY2YcfiWxv4rj9_4TpV5J93e8aStJx7Xa1pIujDGdV07PNQ1u9CJf5tOGcGFLQnyxo36eDGKQXNWvQzA3LGqaTBx0YUFUu6-4rPFgzX0uz1AJEg_oHuPJl3LYEtpHjbcvt63Akdu8br1IWmZOL9gdS-8IkijfF6k9_6yT9_ej9yK81zqmoRXzdLrfAOBr41ZJPZ1PXIzApD03mjaQMZB2F9YVaeDVmxqcsC-QYnjJvY9n2yACHwIJlHL7H9T6xnv50eMDkoPFZ7XzcOQ6OJoqoUwvWRwploJSenKTR-5YeZkWLxttF4-Y-h6DHCE4fNp4twSuhjhxXh8OYhOb8O9JAzNyt_GqCIEL_tChoZH8PktuFkwInzXt8afEf2x4TtGpTZ2o2jsPTVtkqR]--></g></svg>