<?xml version="1.0" encoding="UTF-8" standalone="no"?><svg xmlns="http://www.w3.org/2000/svg" xmlns:xlink="http://www.w3.org/1999/xlink" contentStyleType="text/css" height="1146px" preserveAspectRatio="none" style="width:2279px;height:1146px;background:#FFFFFF;" version="1.1" viewBox="0 0 2279 1146" width="2279px" zoomAndPan="magnify"><defs/><g><rect fill="#FFFFFF" height="941.8672" style="stroke:#181818;stroke-width:1.0;" width="10" x="89" y="98.5547"/><rect fill="#FFFFFF" height="86.1094" style="stroke:#181818;stroke-width:1.0;" width="10" x="548" y="128.1094"/><rect fill="#FFFFFF" height="501.2109" style="stroke:#181818;stroke-width:1.0;" width="10" x="548" y="251.7734"/><rect fill="#FFFFFF" height="249.8828" style="stroke:#181818;stroke-width:1.0;" width="10" x="548" y="790.5391"/><rect fill="#FFFFFF" height="375.5469" style="stroke:#181818;stroke-width:1.0;" width="10" x="956" y="339.8828"/><rect fill="#FFFFFF" height="99.6641" style="stroke:#181818;stroke-width:1.0;" width="10" x="956" y="903.2031"/><rect fill="#FFFFFF" height="37.5547" style="stroke:#181818;stroke-width:1.0;" width="10" x="1126" y="377.4375"/><rect fill="#FFFFFF" height="37.5547" style="stroke:#181818;stroke-width:1.0;" width="10" x="1272.5" y="452.5469"/><rect fill="#FFFFFF" height="150.2188" style="stroke:#181818;stroke-width:1.0;" width="10" x="1481" y="527.6563"/><line style="stroke:#181818;stroke-width:0.5;stroke-dasharray:5.0,5.0;" x1="94" x2="94" y1="88.5547" y2="1058.4219"/><line style="stroke:#181818;stroke-width:0.5;stroke-dasharray:5.0,5.0;" x1="552.5" x2="552.5" y1="88.5547" y2="1058.4219"/><line style="stroke:#181818;stroke-width:0.5;stroke-dasharray:5.0,5.0;" x1="961" x2="961" y1="170.3867" y2="1058.4219"/><line style="stroke:#181818;stroke-width:0.5;stroke-dasharray:5.0,5.0;" x1="1130.5" x2="1130.5" y1="88.5547" y2="1058.4219"/><line style="stroke:#181818;stroke-width:0.5;stroke-dasharray:5.0,5.0;" x1="1277.5" x2="1277.5" y1="88.5547" y2="1058.4219"/><line style="stroke:#181818;stroke-width:0.5;stroke-dasharray:5.0,5.0;" x1="1485.5" x2="1485.5" y1="88.5547" y2="1058.4219"/><line style="stroke:#181818;stroke-width:0.5;stroke-dasharray:5.0,5.0;" x1="1792.5" x2="1792.5" y1="88.5547" y2="1058.4219"/><line style="stroke:#181818;stroke-width:0.5;stroke-dasharray:5.0,5.0;" x1="1934.5" x2="1934.5" y1="88.5547" y2="1058.4219"/><line style="stroke:#181818;stroke-width:0.5;stroke-dasharray:5.0,5.0;" x1="2026.5" x2="2026.5" y1="88.5547" y2="1058.4219"/><line style="stroke:#181818;stroke-width:0.5;stroke-dasharray:5.0,5.0;" x1="2126.5" x2="2126.5" y1="88.5547" y2="1058.4219"/><line style="stroke:#181818;stroke-width:0.5;stroke-dasharray:5.0,5.0;" x1="2234.5" x2="2234.5" y1="88.5547" y2="1058.4219"/><text fill="#000000" font-family="sans-serif" font-size="20" lengthAdjust="spacing" textLength="172" x="5" y="84.3359">Unregistered User</text><ellipse cx="94" cy="13.5" fill="#E3E3E3" rx="8" ry="8" style="stroke:#181818;stroke-width:0.5;"/><path d="M94,21.5 L94,48.5 M81,29.5 L107,29.5 M94,48.5 L81,63.5 M94,48.5 L107,63.5 " fill="none" style="stroke:#181818;stroke-width:0.5;"/><text fill="#000000" font-family="sans-serif" font-size="20" lengthAdjust="spacing" textLength="172" x="5" y="1076.7578">Unregistered User</text><ellipse cx="94" cy="1089.4766" fill="#E3E3E3" rx="8" ry="8" style="stroke:#181818;stroke-width:0.5;"/><path d="M94,1097.4766 L94,1124.4766 M81,1105.4766 L107,1105.4766 M94,1124.4766 L81,1139.4766 M94,1124.4766 L107,1139.4766 " fill="none" style="stroke:#181818;stroke-width:0.5;"/><rect fill="#E3E3E3" height="37.5547" rx="2.5" ry="2.5" style="stroke:#181818;stroke-width:0.5;" width="103" x="501.5" y="50"/><text fill="#000000" font-family="sans-serif" font-size="20" lengthAdjust="spacing" textLength="89" x="508.5" y="76.3359">:SearchUI</text><rect fill="#E3E3E3" height="37.5547" rx="2.5" ry="2.5" style="stroke:#181818;stroke-width:0.5;" width="103" x="501.5" y="1057.4219"/><text fill="#000000" font-family="sans-serif" font-size="20" lengthAdjust="spacing" textLength="89" x="508.5" y="1083.7578">:SearchUI</text><rect fill="#E3E3E3" height="37.5547" rx="2.5" ry="2.5" style="stroke:#181818;stroke-width:0.5;" width="180" x="871" y="1057.4219"/><text fill="#000000" font-family="sans-serif" font-size="20" lengthAdjust="spacing" textLength="166" x="878" y="1083.7578">:ListingController</text><rect fill="#E3E3E3" height="37.5547" rx="2.5" ry="2.5" style="stroke:#181818;stroke-width:0.5;" width="139" x="1061.5" y="50"/><text fill="#000000" font-family="sans-serif" font-size="20" lengthAdjust="spacing" textLength="125" x="1068.5" y="76.3359">:Repositories</text><rect fill="#E3E3E3" height="37.5547" rx="2.5" ry="2.5" style="stroke:#181818;stroke-width:0.5;" width="139" x="1061.5" y="1057.4219"/><text fill="#000000" font-family="sans-serif" font-size="20" lengthAdjust="spacing" textLength="125" x="1068.5" y="1083.7578">:Repositories</text><rect fill="#E3E3E3" height="61.1094" rx="2.5" ry="2.5" style="stroke:#181818;stroke-width:0.5;" width="134" x="1210.5" y="26.4453"/><text fill="#000000" font-family="sans-serif" font-size="20" lengthAdjust="spacing" textLength="120" x="1217.5" y="52.7813">repositories:</text><text fill="#000000" font-family="sans-serif" font-size="20" lengthAdjust="spacing" textLength="119" x="1218" y="76.3359">Repositories</text><rect fill="#E3E3E3" height="61.1094" rx="2.5" ry="2.5" style="stroke:#181818;stroke-width:0.5;" width="134" x="1210.5" y="1057.4219"/><text fill="#000000" font-family="sans-serif" font-size="20" lengthAdjust="spacing" textLength="120" x="1217.5" y="1083.7578">repositories:</text><text fill="#000000" font-family="sans-serif" font-size="20" lengthAdjust="spacing" textLength="119" x="1218" y="1107.3125">Repositories</text><rect fill="#E3E3E3" height="61.1094" rx="2.5" ry="2.5" style="stroke:#181818;stroke-width:0.5;" width="263" x="1354.5" y="26.4453"/><text fill="#000000" font-family="sans-serif" font-size="20" lengthAdjust="spacing" textLength="249" x="1361.5" y="52.7813">announcementRepository:</text><text fill="#000000" font-family="sans-serif" font-size="20" lengthAdjust="spacing" textLength="246" x="1363" y="76.3359">AnnouncementRepository</text><rect fill="#E3E3E3" height="61.1094" rx="2.5" ry="2.5" style="stroke:#181818;stroke-width:0.5;" width="263" x="1354.5" y="1057.4219"/><text fill="#000000" font-family="sans-serif" font-size="20" lengthAdjust="spacing" textLength="249" x="1361.5" y="1083.7578">announcementRepository:</text><text fill="#000000" font-family="sans-serif" font-size="20" lengthAdjust="spacing" textLength="246" x="1363" y="1107.3125">AnnouncementRepository</text><rect fill="#E3E3E3" height="61.1094" rx="2.5" ry="2.5" style="stroke:#181818;stroke-width:0.5;" width="161" x="1712.5" y="26.4453"/><text fill="#000000" font-family="sans-serif" font-size="20" lengthAdjust="spacing" textLength="147" x="1719.5" y="52.7813">announcement:</text><text fill="#000000" font-family="sans-serif" font-size="20" lengthAdjust="spacing" textLength="144" x="1721" y="76.3359">Announcement</text><rect fill="#E3E3E3" height="61.1094" rx="2.5" ry="2.5" style="stroke:#181818;stroke-width:0.5;" width="161" x="1712.5" y="1057.4219"/><text fill="#000000" font-family="sans-serif" font-size="20" lengthAdjust="spacing" textLength="147" x="1719.5" y="1083.7578">announcement:</text><text fill="#000000" font-family="sans-serif" font-size="20" lengthAdjust="spacing" textLength="144" x="1721" y="1107.3125">Announcement</text><rect fill="#E3E3E3" height="61.1094" rx="2.5" ry="2.5" style="stroke:#181818;stroke-width:0.5;" width="102" x="1883.5" y="26.4453"/><text fill="#000000" font-family="sans-serif" font-size="20" lengthAdjust="spacing" textLength="88" x="1890.5" y="52.7813">property:</text><text fill="#000000" font-family="sans-serif" font-size="20" lengthAdjust="spacing" textLength="80" x="1894.5" y="76.3359">Property</text><rect fill="#E3E3E3" height="61.1094" rx="2.5" ry="2.5" style="stroke:#181818;stroke-width:0.5;" width="102" x="1883.5" y="1057.4219"/><text fill="#000000" font-family="sans-serif" font-size="20" lengthAdjust="spacing" textLength="88" x="1890.5" y="1083.7578">property:</text><text fill="#000000" font-family="sans-serif" font-size="20" lengthAdjust="spacing" textLength="80" x="1894.5" y="1107.3125">Property</text><rect fill="#E3E3E3" height="61.1094" rx="2.5" ry="2.5" style="stroke:#181818;stroke-width:0.5;" width="62" x="1995.5" y="26.4453"/><text fill="#000000" font-family="sans-serif" font-size="20" lengthAdjust="spacing" textLength="48" x="2002.5" y="52.7813">land:</text><text fill="#000000" font-family="sans-serif" font-size="20" lengthAdjust="spacing" textLength="47" x="2003" y="76.3359">Land</text><rect fill="#E3E3E3" height="61.1094" rx="2.5" ry="2.5" style="stroke:#181818;stroke-width:0.5;" width="62" x="1995.5" y="1057.4219"/><text fill="#000000" font-family="sans-serif" font-size="20" lengthAdjust="spacing" textLength="48" x="2002.5" y="1083.7578">land:</text><text fill="#000000" font-family="sans-serif" font-size="20" lengthAdjust="spacing" textLength="47" x="2003" y="1107.3125">Land</text><rect fill="#E3E3E3" height="61.1094" rx="2.5" ry="2.5" style="stroke:#181818;stroke-width:0.5;" width="119" x="2067.5" y="26.4453"/><text fill="#000000" font-family="sans-serif" font-size="20" lengthAdjust="spacing" textLength="105" x="2074.5" y="52.7813">apartment:</text><text fill="#000000" font-family="sans-serif" font-size="20" lengthAdjust="spacing" textLength="102" x="2076" y="76.3359">Apartment</text><rect fill="#E3E3E3" height="61.1094" rx="2.5" ry="2.5" style="stroke:#181818;stroke-width:0.5;" width="119" x="2067.5" y="1057.4219"/><text fill="#000000" font-family="sans-serif" font-size="20" lengthAdjust="spacing" textLength="105" x="2074.5" y="1083.7578">apartment:</text><text fill="#000000" font-family="sans-serif" font-size="20" lengthAdjust="spacing" textLength="102" x="2076" y="1107.3125">Apartment</text><rect fill="#E3E3E3" height="61.1094" rx="2.5" ry="2.5" style="stroke:#181818;stroke-width:0.5;" width="77" x="2196.5" y="26.4453"/><text fill="#000000" font-family="sans-serif" font-size="20" lengthAdjust="spacing" textLength="63" x="2203.5" y="52.7813">house:</text><text fill="#000000" font-family="sans-serif" font-size="20" lengthAdjust="spacing" textLength="60" x="2205" y="76.3359">House</text><rect fill="#E3E3E3" height="61.1094" rx="2.5" ry="2.5" style="stroke:#181818;stroke-width:0.5;" width="77" x="2196.5" y="1057.4219"/><text fill="#000000" font-family="sans-serif" font-size="20" lengthAdjust="spacing" textLength="63" x="2203.5" y="1083.7578">house:</text><text fill="#000000" font-family="sans-serif" font-size="20" lengthAdjust="spacing" textLength="60" x="2205" y="1107.3125">House</text><rect fill="#FFFFFF" height="941.8672" style="stroke:#181818;stroke-width:1.0;" width="10" x="89" y="98.5547"/><rect fill="#FFFFFF" height="86.1094" style="stroke:#181818;stroke-width:1.0;" width="10" x="548" y="128.1094"/><rect fill="#FFFFFF" height="501.2109" style="stroke:#181818;stroke-width:1.0;" width="10" x="548" y="251.7734"/><rect fill="#FFFFFF" height="249.8828" style="stroke:#181818;stroke-width:1.0;" width="10" x="548" y="790.5391"/><rect fill="#FFFFFF" height="375.5469" style="stroke:#181818;stroke-width:1.0;" width="10" x="956" y="339.8828"/><rect fill="#FFFFFF" height="99.6641" style="stroke:#181818;stroke-width:1.0;" width="10" x="956" y="903.2031"/><rect fill="#FFFFFF" height="37.5547" style="stroke:#181818;stroke-width:1.0;" width="10" x="1126" y="377.4375"/><rect fill="#FFFFFF" height="37.5547" style="stroke:#181818;stroke-width:1.0;" width="10" x="1272.5" y="452.5469"/><rect fill="#FFFFFF" height="150.2188" style="stroke:#181818;stroke-width:1.0;" width="10" x="1481" y="527.6563"/><polygon fill="#181818" points="536,124.1094,546,128.1094,536,132.1094,540,128.1094" style="stroke:#181818;stroke-width:1.0;"/><line style="stroke:#181818;stroke-width:1.0;" x1="99" x2="542" y1="128.1094" y2="128.1094"/><text fill="#000000" font-family="sans-serif" font-size="20" font-weight="bold" lengthAdjust="spacing" textLength="13" x="106" y="121.8906">1</text><text fill="#000000" font-family="sans-serif" font-size="20" lengthAdjust="spacing" textLength="274" x="123" y="121.8906">asks to search for properties</text><polygon fill="#181818" points="859,161.6641,869,165.6641,859,169.6641,863,165.6641" style="stroke:#181818;stroke-width:1.0;"/><line style="stroke:#181818;stroke-width:1.0;" x1="558" x2="865" y1="165.6641" y2="165.6641"/><text fill="#000000" font-family="sans-serif" font-size="20" font-weight="bold" lengthAdjust="spacing" textLength="13" x="565" y="159.4453">2</text><text fill="#000000" font-family="sans-serif" font-size="20" lengthAdjust="spacing" textLength="58" x="582" y="159.4453">create</text><rect fill="#E3E3E3" height="37.5547" rx="2.5" ry="2.5" style="stroke:#181818;stroke-width:0.5;" width="180" x="871" y="136.1094"/><text fill="#000000" font-family="sans-serif" font-size="20" lengthAdjust="spacing" textLength="166" x="878" y="162.4453">:ListingController</text><polygon fill="#181818" points="110,210.2188,100,214.2188,110,218.2188,106,214.2188" style="stroke:#181818;stroke-width:1.0;"/><line style="stroke:#181818;stroke-width:1.0;stroke-dasharray:2.0,2.0;" x1="104" x2="552" y1="214.2188" y2="214.2188"/><text fill="#000000" font-family="sans-serif" font-size="20" font-weight="bold" lengthAdjust="spacing" textLength="13" x="116" y="208">3</text><text fill="#000000" font-family="sans-serif" font-size="20" lengthAdjust="spacing" textLength="130" x="133" y="208">requests data</text><polygon fill="#181818" points="536,247.7734,546,251.7734,536,255.7734,540,251.7734" style="stroke:#181818;stroke-width:1.0;"/><line style="stroke:#181818;stroke-width:1.0;" x1="99" x2="542" y1="251.7734" y2="251.7734"/><text fill="#000000" font-family="sans-serif" font-size="20" font-weight="bold" lengthAdjust="spacing" textLength="13" x="106" y="245.5547">4</text><text fill="#000000" font-family="sans-serif" font-size="20" lengthAdjust="spacing" textLength="373" x="123" y="245.5547">selects the requested data and confirm</text><line style="stroke:#181818;stroke-width:1.0;" x1="558" x2="600" y1="289.3281" y2="289.3281"/><line style="stroke:#181818;stroke-width:1.0;" x1="600" x2="600" y1="289.3281" y2="302.3281"/><line style="stroke:#181818;stroke-width:1.0;" x1="559" x2="600" y1="302.3281" y2="302.3281"/><polygon fill="#181818" points="569,298.3281,559,302.3281,569,306.3281,565,302.3281" style="stroke:#181818;stroke-width:1.0;"/><text fill="#000000" font-family="sans-serif" font-size="20" font-weight="bold" lengthAdjust="spacing" textLength="13" x="565" y="283.1094">5</text><text fill="#000000" font-family="sans-serif" font-size="20" lengthAdjust="spacing" textLength="117" x="582" y="283.1094">verifies data</text><polygon fill="#181818" points="944,335.8828,954,339.8828,944,343.8828,948,339.8828" style="stroke:#181818;stroke-width:1.0;"/><line style="stroke:#181818;stroke-width:1.0;" x1="558" x2="950" y1="339.8828" y2="339.8828"/><text fill="#000000" font-family="sans-serif" font-size="20" font-weight="bold" lengthAdjust="spacing" textLength="13" x="565" y="333.6641">6</text><text fill="#000000" font-family="sans-serif" font-size="20" lengthAdjust="spacing" textLength="362" x="582" y="333.6641">getPropertyList(business,type, rooms)</text><polygon fill="#181818" points="1114,373.4375,1124,377.4375,1114,381.4375,1118,377.4375" style="stroke:#181818;stroke-width:1.0;"/><line style="stroke:#181818;stroke-width:1.0;" x1="966" x2="1120" y1="377.4375" y2="377.4375"/><text fill="#000000" font-family="sans-serif" font-size="20" font-weight="bold" lengthAdjust="spacing" textLength="13" x="973" y="371.2188">7</text><text fill="#000000" font-family="sans-serif" font-size="20" lengthAdjust="spacing" textLength="123" x="990" y="371.2188">getInstance()</text><polygon fill="#181818" points="977,410.9922,967,414.9922,977,418.9922,973,414.9922" style="stroke:#181818;stroke-width:1.0;"/><line style="stroke:#181818;stroke-width:1.0;stroke-dasharray:2.0,2.0;" x1="971" x2="1130" y1="414.9922" y2="414.9922"/><text fill="#000000" font-family="sans-serif" font-size="20" font-weight="bold" lengthAdjust="spacing" textLength="13" x="983" y="408.7734">8</text><text fill="#000000" font-family="sans-serif" font-size="20" lengthAdjust="spacing" textLength="119" x="1000" y="408.7734">Repositories</text><polygon fill="#181818" points="1260.5,448.5469,1270.5,452.5469,1260.5,456.5469,1264.5,452.5469" style="stroke:#181818;stroke-width:1.0;"/><line style="stroke:#181818;stroke-width:1.0;" x1="966" x2="1266.5" y1="452.5469" y2="452.5469"/><text fill="#000000" font-family="sans-serif" font-size="20" font-weight="bold" lengthAdjust="spacing" textLength="13" x="973" y="446.3281">9</text><text fill="#000000" font-family="sans-serif" font-size="20" lengthAdjust="spacing" textLength="210" x="990" y="446.3281">getListingRepository()</text><polygon fill="#181818" points="977,486.1016,967,490.1016,977,494.1016,973,490.1016" style="stroke:#181818;stroke-width:1.0;"/><line style="stroke:#181818;stroke-width:1.0;stroke-dasharray:2.0,2.0;" x1="971" x2="1276.5" y1="490.1016" y2="490.1016"/><text fill="#000000" font-family="sans-serif" font-size="20" font-weight="bold" lengthAdjust="spacing" textLength="26" x="983" y="483.8828">10</text><text fill="#000000" font-family="sans-serif" font-size="20" lengthAdjust="spacing" textLength="166" x="1013" y="483.8828">ListingRepository</text><polygon fill="#181818" points="1469,523.6563,1479,527.6563,1469,531.6563,1473,527.6563" style="stroke:#181818;stroke-width:1.0;"/><line style="stroke:#181818;stroke-width:1.0;" x1="966" x2="1475" y1="527.6563" y2="527.6563"/><text fill="#000000" font-family="sans-serif" font-size="20" font-weight="bold" lengthAdjust="spacing" textLength="26" x="973" y="521.4375">11</text><text fill="#000000" font-family="sans-serif" font-size="20" lengthAdjust="spacing" textLength="374" x="1003" y="521.4375">getPropertyList (business, type, rooms)</text><rect fill="none" height="57.1094" style="stroke:#000000;stroke-width:1.5;" width="269" x="1351.5" y="535.6563"/><path d="M1351.5,535.6563 L1425.5,535.6563 L1425.5,550.6563 L1415.5,560.6563 L1351.5,560.6563 L1351.5,535.6563 " fill="#EEEEEE" style="stroke:#000000;stroke-width:2.0;"/><text fill="#000000" font-family="sans-serif" font-size="20" font-weight="bold" lengthAdjust="spacing" textLength="29" x="1364.5" y="556.9922">ref</text><text fill="#000000" font-family="sans-serif" font-size="20" lengthAdjust="spacing" textLength="152" x="1410" y="583.9922">Get PropertyList</text><line style="stroke:#181818;stroke-width:1.0;" x1="1491" x2="1533" y1="627.3203" y2="627.3203"/><line style="stroke:#181818;stroke-width:1.0;" x1="1533" x2="1533" y1="627.3203" y2="640.3203"/><line style="stroke:#181818;stroke-width:1.0;" x1="1492" x2="1533" y1="640.3203" y2="640.3203"/><polygon fill="#181818" points="1502,636.3203,1492,640.3203,1502,644.3203,1498,640.3203" style="stroke:#181818;stroke-width:1.0;"/><text fill="#000000" font-family="sans-serif" font-size="20" font-weight="bold" lengthAdjust="spacing" textLength="26" x="1498" y="621.1016">12</text><text fill="#000000" font-family="sans-serif" font-size="20" lengthAdjust="spacing" textLength="253" x="1528" y="621.1016">sortByRecent(propertyList)</text><polygon fill="#181818" points="977,673.875,967,677.875,977,681.875,973,677.875" style="stroke:#181818;stroke-width:1.0;"/><line style="stroke:#181818;stroke-width:1.0;stroke-dasharray:2.0,2.0;" x1="971" x2="1485" y1="677.875" y2="677.875"/><text fill="#000000" font-family="sans-serif" font-size="20" font-weight="bold" lengthAdjust="spacing" textLength="26" x="983" y="671.6563">13</text><text fill="#000000" font-family="sans-serif" font-size="20" lengthAdjust="spacing" textLength="114" x="1013" y="671.6563">PropertyList</text><polygon fill="#181818" points="569,711.4297,559,715.4297,569,719.4297,565,715.4297" style="stroke:#181818;stroke-width:1.0;"/><line style="stroke:#181818;stroke-width:1.0;stroke-dasharray:2.0,2.0;" x1="563" x2="960" y1="715.4297" y2="715.4297"/><text fill="#000000" font-family="sans-serif" font-size="20" font-weight="bold" lengthAdjust="spacing" textLength="26" x="575" y="709.2109">14</text><text fill="#000000" font-family="sans-serif" font-size="20" lengthAdjust="spacing" textLength="114" x="605" y="709.2109">PropertyList</text><polygon fill="#181818" points="110,748.9844,100,752.9844,110,756.9844,106,752.9844" style="stroke:#181818;stroke-width:1.0;"/><line style="stroke:#181818;stroke-width:1.0;stroke-dasharray:2.0,2.0;" x1="104" x2="552" y1="752.9844" y2="752.9844"/><text fill="#000000" font-family="sans-serif" font-size="20" font-weight="bold" lengthAdjust="spacing" textLength="26" x="116" y="746.7656">15</text><text fill="#000000" font-family="sans-serif" font-size="20" lengthAdjust="spacing" textLength="375" x="146" y="746.7656">shows the Announcement of properties</text><polygon fill="#181818" points="536,786.5391,546,790.5391,536,794.5391,540,790.5391" style="stroke:#181818;stroke-width:1.0;"/><line style="stroke:#181818;stroke-width:1.0;" x1="99" x2="542" y1="790.5391" y2="790.5391"/><text fill="#000000" font-family="sans-serif" font-size="20" font-weight="bold" lengthAdjust="spacing" textLength="26" x="106" y="784.3203">16</text><text fill="#000000" font-family="sans-serif" font-size="20" lengthAdjust="spacing" textLength="297" x="136" y="784.3203">asks to sort the Announcement</text><polygon fill="#181818" points="110,824.0938,100,828.0938,110,832.0938,106,828.0938" style="stroke:#181818;stroke-width:1.0;"/><line style="stroke:#181818;stroke-width:1.0;stroke-dasharray:2.0,2.0;" x1="104" x2="547" y1="828.0938" y2="828.0938"/><text fill="#000000" font-family="sans-serif" font-size="20" font-weight="bold" lengthAdjust="spacing" textLength="26" x="116" y="821.875">17</text><text fill="#000000" font-family="sans-serif" font-size="20" lengthAdjust="spacing" textLength="395" x="146" y="821.875">shows the Announcement of types of sort</text><polygon fill="#181818" points="536,861.6484,546,865.6484,536,869.6484,540,865.6484" style="stroke:#181818;stroke-width:1.0;"/><line style="stroke:#181818;stroke-width:1.0;" x1="99" x2="542" y1="865.6484" y2="865.6484"/><text fill="#000000" font-family="sans-serif" font-size="20" font-weight="bold" lengthAdjust="spacing" textLength="26" x="106" y="859.4297">18</text><text fill="#000000" font-family="sans-serif" font-size="20" lengthAdjust="spacing" textLength="197" x="136" y="859.4297">selects a type of sort</text><polygon fill="#181818" points="944,899.2031,954,903.2031,944,907.2031,948,903.2031" style="stroke:#181818;stroke-width:1.0;"/><line style="stroke:#181818;stroke-width:1.0;" x1="558" x2="950" y1="903.2031" y2="903.2031"/><text fill="#000000" font-family="sans-serif" font-size="20" font-weight="bold" lengthAdjust="spacing" textLength="26" x="565" y="896.9844">19</text><text fill="#000000" font-family="sans-serif" font-size="20" lengthAdjust="spacing" textLength="158" x="595" y="896.9844">getPropertyList()</text><rect fill="none" height="57.1094" style="stroke:#000000;stroke-width:1.5;" width="228" x="868" y="911.2031"/><path d="M868,911.2031 L942,911.2031 L942,926.2031 L932,936.2031 L868,936.2031 L868,911.2031 " fill="#EEEEEE" style="stroke:#000000;stroke-width:2.0;"/><text fill="#000000" font-family="sans-serif" font-size="20" font-weight="bold" lengthAdjust="spacing" textLength="29" x="881" y="932.5391">ref</text><text fill="#000000" font-family="sans-serif" font-size="20" lengthAdjust="spacing" textLength="220" x="872" y="959.5391">Get PropertyList Sorted</text><polygon fill="#181818" points="569,998.8672,559,1002.8672,569,1006.8672,565,1002.8672" style="stroke:#181818;stroke-width:1.0;"/><line style="stroke:#181818;stroke-width:1.0;stroke-dasharray:2.0,2.0;" x1="563" x2="960" y1="1002.8672" y2="1002.8672"/><text fill="#000000" font-family="sans-serif" font-size="20" font-weight="bold" lengthAdjust="spacing" textLength="26" x="575" y="996.6484">20</text><text fill="#000000" font-family="sans-serif" font-size="20" lengthAdjust="spacing" textLength="194" x="605" y="996.6484">PropertyListOrdered</text><polygon fill="#181818" points="105,1036.4219,95,1040.4219,105,1044.4219,101,1040.4219" style="stroke:#181818;stroke-width:1.0;"/><line style="stroke:#181818;stroke-width:1.0;stroke-dasharray:2.0,2.0;" x1="99" x2="552" y1="1040.4219" y2="1040.4219"/><text fill="#000000" font-family="sans-serif" font-size="20" font-weight="bold" lengthAdjust="spacing" textLength="26" x="111" y="1034.2031">21</text><text fill="#000000" font-family="sans-serif" font-size="20" lengthAdjust="spacing" textLength="327" x="141" y="1034.2031">shows the Announcement ordered</text><!--SRC=[dLRBRjim4BppAnQvn2uIeEZHXm9jq8U100diwfOBGwqjmXAfabHIz-kxfAM85EMaBI-ckBF3uRvWUv2gvOOtjHO7BA747UzgzrKhjvM_4JwyPtQ0GAEL5fNH3O8p7KQMbei3t-FM7Mi4Wy9njQzZWArugP-bsiEErnOPuvtJgciUqJ1sMSaIOQUrUzI_61TE6xWebC6zj0uDoIeicWlW5eg24Q6JGhPSERXORP4RKHNhatKziTuI0LrwGyynkgvxafiVczi9S8Ejjf8kbcW3PlFb_Yx5c0YoUb2P1zbPwi6LqfqIsA1oB_0Z-NwQDGIMgUayuuGdyquzMwDRDCxVVjzlWuS_P_yDhRag2NPBFm7YloUA_TSWTzW7RB2au4ft5WdutVy6K3XXVb5Po2Vkq9S0WtuL1Ln_fBJ3Yi072qw33GL1rMIWVmWbQFGOQTRZOK-szcI-EDwzMmc3X6ANKu2_hg3h3Fxiq3eB9NSS5WPtLAWK-Ijg8IkCR9tKwWf0AbBIy1eUL6fnA2eb1LcIux8p_BGJshfb8l7o9EfKl-nDLG5HOlRYA6WMQsfMYbk5WwyV0lv9b4cIe7RID6mQk3HYWUa9ZTnHf4ytipocXDcZ6mhAD-RYiRDIeRLNxjXIu8pMZLtccKgVwrVW8rxVf85shIoD786BvIIdutgX2vsTmFn9Y66lCsxj11W5CsSPHD4S29hwsJFszz-82qCajj11B2qZFQSl8nhaJGTCbXOOymApYKa4P_CgUoEr1cWgZnmw5ublw21Mau6G9ansEAMUVwZLndq-Rb3GoQADBbdw0VCwtvY2i-gYwETHOMaUXhQP9Ok8phUwhVJpgN7Zoq3luh4tmnZFlRdnIJ7AMDyOdyMQL1N5Qvfy8Lc_yVpH_UItNWrJY0TOXfeP9laiMURmD8XPEIQdSwK7MrA19PkjFEzz7TJ7BdUczFzN_Y6JgtCnwvbEwqmUuy-2_G40]--></g></svg>