<?xml version="1.0" encoding="UTF-8" standalone="no"?><svg xmlns="http://www.w3.org/2000/svg" xmlns:xlink="http://www.w3.org/1999/xlink" contentStyleType="text/css" height="569px" preserveAspectRatio="none" style="width:1933px;height:569px;background:#FFFFFF;" version="1.1" viewBox="0 0 1933 569" width="1933px" zoomAndPan="magnify"><defs/><g><!--class RegisterStoreUI--><g id="elem_RegisterStoreUI"><rect codeLine="11" fill="#F1F1F1" height="50" id="RegisterStoreUI" rx="2.5" ry="2.5" style="stroke:#181818;stroke-width:0.5;" width="181" x="7" y="101"/><ellipse cx="23" cy="118" fill="#ADD1B2" rx="12" ry="12" style="stroke:#181818;stroke-width:1.0;"/><path d="M25.8066,125.0801 Q25.123,125.4316 24.3711,125.6074 Q23.6191,125.7832 22.7891,125.7832 Q19.8398,125.7832 18.2871,123.8398 Q16.7344,121.8965 16.7344,118.2246 Q16.7344,114.543 18.2871,112.5996 Q19.8398,110.6563 22.7891,110.6563 Q23.6191,110.6563 24.3809,110.832 Q25.1426,111.0078 25.8066,111.3594 L25.8066,114.5625 Q25.0645,113.8789 24.3662,113.5615 Q23.668,113.2441 22.9258,113.2441 Q21.3438,113.2441 20.5381,114.499 Q19.7324,115.7539 19.7324,118.2246 Q19.7324,120.6855 20.5381,121.9404 Q21.3438,123.1953 22.9258,123.1953 Q23.668,123.1953 24.3662,122.8779 Q25.0645,122.5605 25.8066,121.877 Z " fill="#000000"/><text fill="#000000" font-family="sans-serif" font-size="20" lengthAdjust="spacing" textLength="147" x="38" y="125.5586">RegisterStoreUI</text><line style="stroke:#181818;stroke-width:0.5;" x1="8" x2="187" y1="135" y2="135"/><line style="stroke:#181818;stroke-width:0.5;" x1="8" x2="187" y1="143" y2="143"/></g><!--class RegisterStoreController--><g id="elem_RegisterStoreController"><rect codeLine="13" fill="#F1F1F1" height="73.5547" id="RegisterStoreController" rx="2.5" ry="2.5" style="stroke:#181818;stroke-width:0.5;" width="836" x="223.5" y="89"/><ellipse cx="525.5" cy="106" fill="#ADD1B2" rx="12" ry="12" style="stroke:#181818;stroke-width:1.0;"/><path d="M528.3066,113.0801 Q527.623,113.4316 526.8711,113.6074 Q526.1191,113.7832 525.2891,113.7832 Q522.3398,113.7832 520.7871,111.8398 Q519.2344,109.8965 519.2344,106.2246 Q519.2344,102.543 520.7871,100.5996 Q522.3398,98.6563 525.2891,98.6563 Q526.1191,98.6563 526.8809,98.832 Q527.6426,99.0078 528.3066,99.3594 L528.3066,102.5625 Q527.5645,101.8789 526.8662,101.5615 Q526.168,101.2441 525.4258,101.2441 Q523.8438,101.2441 523.0381,102.499 Q522.2324,103.7539 522.2324,106.2246 Q522.2324,108.6855 523.0381,109.9404 Q523.8438,111.1953 525.4258,111.1953 Q526.168,111.1953 526.8662,110.8779 Q527.5645,110.5605 528.3066,109.877 Z " fill="#000000"/><text fill="#000000" font-family="sans-serif" font-size="20" lengthAdjust="spacing" textLength="223" x="547.5" y="113.5586">RegisterStoreController</text><line style="stroke:#181818;stroke-width:0.5;" x1="224.5" x2="1058.5" y1="123" y2="123"/><line style="stroke:#181818;stroke-width:0.5;" x1="224.5" x2="1058.5" y1="131" y2="131"/><text fill="#000000" font-family="sans-serif" font-size="20" lengthAdjust="spacing" textLength="824" x="229.5" y="154.3359">+registerstore (ID;designation;location;localmanager;emailaddress;telephonenumber)</text></g><!--class Repositories--><g id="elem_Repositories"><rect codeLine="17" fill="#F1F1F1" height="120.6641" id="Repositories" rx="2.5" ry="2.5" style="stroke:#181818;stroke-width:0.5;" width="288" x="635.5" y="306"/><ellipse cx="715.5" cy="323" fill="#ADD1B2" rx="12" ry="12" style="stroke:#181818;stroke-width:1.0;"/><path d="M718.3066,330.0801 Q717.623,330.4316 716.8711,330.6074 Q716.1191,330.7832 715.2891,330.7832 Q712.3398,330.7832 710.7871,328.8398 Q709.2344,326.8965 709.2344,323.2246 Q709.2344,319.543 710.7871,317.5996 Q712.3398,315.6563 715.2891,315.6563 Q716.1191,315.6563 716.8809,315.832 Q717.6426,316.0078 718.3066,316.3594 L718.3066,319.5625 Q717.5645,318.8789 716.8662,318.5615 Q716.168,318.2441 715.4258,318.2441 Q713.8438,318.2441 713.0381,319.499 Q712.2324,320.7539 712.2324,323.2246 Q712.2324,325.6855 713.0381,326.9404 Q713.8438,328.1953 715.4258,328.1953 Q716.168,328.1953 716.8662,327.8779 Q717.5645,327.5605 718.3066,326.877 Z " fill="#000000"/><text fill="#000000" font-family="sans-serif" font-size="20" lengthAdjust="spacing" textLength="119" x="737.5" y="330.5586">Repositories</text><line style="stroke:#181818;stroke-width:0.5;" x1="636.5" x2="922.5" y1="340" y2="340"/><line style="stroke:#181818;stroke-width:0.5;" x1="636.5" x2="922.5" y1="348" y2="348"/><text fill="#000000" font-family="sans-serif" font-size="20" lengthAdjust="spacing" textLength="145" x="641.5" y="371.3359">-Repositories()</text><text fill="#000000" font-family="sans-serif" font-size="20" lengthAdjust="spacing" textLength="276" x="641.5" y="394.8906">+getInstance() : Repositories</text><text fill="#000000" font-family="sans-serif" font-size="20" lengthAdjust="spacing" textLength="211" x="641.5" y="418.4453">+getStoreRepository()</text></g><!--class Agency--><g id="elem_Agency"><rect codeLine="23" fill="#F1F1F1" height="50" id="Agency" rx="2.5" ry="2.5" style="stroke:#181818;stroke-width:0.5;" width="103" x="1068" y="341.5"/><ellipse cx="1084" cy="358.5" fill="#ADD1B2" rx="12" ry="12" style="stroke:#181818;stroke-width:1.0;"/><path d="M1086.8066,365.5801 Q1086.123,365.9316 1085.3711,366.1074 Q1084.6191,366.2832 1083.7891,366.2832 Q1080.8398,366.2832 1079.2871,364.3398 Q1077.7344,362.3965 1077.7344,358.7246 Q1077.7344,355.043 1079.2871,353.0996 Q1080.8398,351.1563 1083.7891,351.1563 Q1084.6191,351.1563 1085.3809,351.332 Q1086.1426,351.5078 1086.8066,351.8594 L1086.8066,355.0625 Q1086.0645,354.3789 1085.3662,354.0615 Q1084.668,353.7441 1083.9258,353.7441 Q1082.3438,353.7441 1081.5381,354.999 Q1080.7324,356.2539 1080.7324,358.7246 Q1080.7324,361.1855 1081.5381,362.4404 Q1082.3438,363.6953 1083.9258,363.6953 Q1084.668,363.6953 1085.3662,363.3779 Q1086.0645,363.0605 1086.8066,362.377 Z " fill="#000000"/><text fill="#000000" font-family="sans-serif" font-size="20" lengthAdjust="spacing" textLength="69" x="1099" y="366.0586">Agency</text><line style="stroke:#181818;stroke-width:0.5;" x1="1069" x2="1170" y1="375.5" y2="375.5"/><line style="stroke:#181818;stroke-width:0.5;" x1="1069" x2="1170" y1="383.5" y2="383.5"/></g><!--class AgencyRepository--><g id="elem_AgencyRepository"><rect codeLine="25" fill="#F1F1F1" height="238.4375" id="AgencyRepository" rx="2.5" ry="2.5" style="stroke:#181818;stroke-width:0.5;" width="832" x="1094.5" y="7"/><ellipse cx="1420.5" cy="24" fill="#ADD1B2" rx="12" ry="12" style="stroke:#181818;stroke-width:1.0;"/><path d="M1423.3066,31.0801 Q1422.623,31.4316 1421.8711,31.6074 Q1421.1191,31.7832 1420.2891,31.7832 Q1417.3398,31.7832 1415.7871,29.8398 Q1414.2344,27.8965 1414.2344,24.2246 Q1414.2344,20.543 1415.7871,18.5996 Q1417.3398,16.6563 1420.2891,16.6563 Q1421.1191,16.6563 1421.8809,16.832 Q1422.6426,17.0078 1423.3066,17.3594 L1423.3066,20.5625 Q1422.5645,19.8789 1421.8662,19.5615 Q1421.168,19.2441 1420.4258,19.2441 Q1418.8438,19.2441 1418.0381,20.499 Q1417.2324,21.7539 1417.2324,24.2246 Q1417.2324,26.6855 1418.0381,27.9404 Q1418.8438,29.1953 1420.4258,29.1953 Q1421.168,29.1953 1421.8662,28.8779 Q1422.5645,28.5605 1423.3066,27.877 Z " fill="#000000"/><text fill="#000000" font-family="sans-serif" font-size="20" lengthAdjust="spacing" textLength="171" x="1442.5" y="31.5586">AgencyRepository</text><line style="stroke:#181818;stroke-width:0.5;" x1="1095.5" x2="1925.5" y1="41" y2="41"/><text fill="#000000" font-family="sans-serif" font-size="20" lengthAdjust="spacing" textLength="33" x="1100.5" y="64.3359">-ID</text><text fill="#000000" font-family="sans-serif" font-size="20" lengthAdjust="spacing" textLength="124" x="1100.5" y="87.8906">-designation</text><text fill="#000000" font-family="sans-serif" font-size="20" lengthAdjust="spacing" textLength="88" x="1100.5" y="111.4453">-location</text><text fill="#000000" font-family="sans-serif" font-size="20" lengthAdjust="spacing" textLength="141" x="1100.5" y="135">-localmanager</text><text fill="#000000" font-family="sans-serif" font-size="20" lengthAdjust="spacing" textLength="182" x="1100.5" y="158.5547">-telephonenumber</text><text fill="#000000" font-family="sans-serif" font-size="20" lengthAdjust="spacing" textLength="141" x="1100.5" y="182.1094">-emailaddress</text><line style="stroke:#181818;stroke-width:0.5;" x1="1095.5" x2="1925.5" y1="190.3281" y2="190.3281"/><text fill="#000000" font-family="sans-serif" font-size="20" lengthAdjust="spacing" textLength="820" x="1100.5" y="213.6641">+validatestore(ID;designation;location;localmanager;emailaddress;telephonenumber)</text><text fill="#000000" font-family="sans-serif" font-size="20" lengthAdjust="spacing" textLength="782" x="1100.5" y="237.2188">+addstore(ID;designation;location;localmanager;emailaddress;telephonenumber)</text></g><!--class Store--><g id="elem_Store"><rect fill="#F1F1F1" height="50" id="Store" rx="2.5" ry="2.5" style="stroke:#181818;stroke-width:0.5;" width="83" x="570" y="512"/><ellipse cx="586" cy="529" fill="#ADD1B2" rx="12" ry="12" style="stroke:#181818;stroke-width:1.0;"/><path d="M588.8066,536.0801 Q588.123,536.4316 587.3711,536.6074 Q586.6191,536.7832 585.7891,536.7832 Q582.8398,536.7832 581.2871,534.8398 Q579.7344,532.8965 579.7344,529.2246 Q579.7344,525.543 581.2871,523.5996 Q582.8398,521.6563 585.7891,521.6563 Q586.6191,521.6563 587.3809,521.832 Q588.1426,522.0078 588.8066,522.3594 L588.8066,525.5625 Q588.0645,524.8789 587.3662,524.5615 Q586.668,524.2441 585.9258,524.2441 Q584.3438,524.2441 583.5381,525.499 Q582.7324,526.7539 582.7324,529.2246 Q582.7324,531.6855 583.5381,532.9404 Q584.3438,534.1953 585.9258,534.1953 Q586.668,534.1953 587.3662,533.8779 Q588.0645,533.5605 588.8066,532.877 Z " fill="#000000"/><text fill="#000000" font-family="sans-serif" font-size="20" lengthAdjust="spacing" textLength="49" x="601" y="536.5586">Store</text><line style="stroke:#181818;stroke-width:0.5;" x1="571" x2="652" y1="546" y2="546"/><line style="stroke:#181818;stroke-width:0.5;" x1="571" x2="652" y1="554" y2="554"/></g><!--link RegisterStoreController to Store--><g id="link_RegisterStoreController_Store"><path codeLine="38" d="M636.64,163.22 C629.63,215.53 617.5,306 617.5,306 C617.5,306 614.4,424.99 612.65,491.8 " fill="none" id="RegisterStoreController-to-Store" style="stroke:#181818;stroke-width:1.0;"/><polygon fill="none" points="619.65,492.01,612.13,511.82,605.65,491.64,619.65,492.01" style="stroke:#181818;stroke-width:1.0;"/></g><!--link RegisterStoreUI to RegisterStoreController--><g id="link_RegisterStoreUI_RegisterStoreController"><path codeLine="40" d="M188.17,126 C198.42,126 208.68,126 218.4,126 " fill="none" id="RegisterStoreUI-to-RegisterStoreController" style="stroke:#181818;stroke-width:1.0;stroke-dasharray:7.0,7.0;"/><polygon fill="#181818" points="223.44,126,214.44,122,218.44,126,214.44,130,223.44,126" style="stroke:#181818;stroke-width:1.0;"/></g><!--link RegisterStoreController to AgencyRepository--><g id="link_RegisterStoreController_AgencyRepository"><path codeLine="42" d="M1059.91,126 C1069.68,126 1079.56,126 1089.36,126 " fill="none" id="RegisterStoreController-to-AgencyRepository" style="stroke:#181818;stroke-width:1.0;stroke-dasharray:7.0,7.0;"/><polygon fill="#181818" points="1094.47,126,1085.47,122,1089.47,126,1085.47,130,1094.47,126" style="stroke:#181818;stroke-width:1.0;"/></g><!--link RegisterStoreController to Repositories--><g id="link_RegisterStoreController_Repositories"><path codeLine="43" d="M662.46,163.22 C683.6,199.76 716.68,256.94 742.29,301.19 " fill="none" id="RegisterStoreController-to-Repositories" style="stroke:#181818;stroke-width:1.0;stroke-dasharray:7.0,7.0;"/><polygon fill="#181818" points="744.9,305.71,743.8626,295.9159,742.3993,301.3803,736.935,299.917,744.9,305.71" style="stroke:#181818;stroke-width:1.0;"/></g><!--link RegisterStoreController to Agency--><g id="link_RegisterStoreController_Agency"><path codeLine="44" d="M723.78,163.01 C843.21,215.28 1050.5,306 1050.5,306 C1050.5,306 1069.37,322.27 1087.37,337.8 " fill="none" id="RegisterStoreController-to-Agency" style="stroke:#181818;stroke-width:1.0;stroke-dasharray:7.0,7.0;"/><polygon fill="#181818" points="1091.44,341.3,1087.2264,332.398,1087.6498,338.039,1082.0088,338.4623,1091.44,341.3" style="stroke:#181818;stroke-width:1.0;"/></g><!--link Repositories to Repositories--><g id="link_Repositories_Repositories"><path codeLine="46" d="M923.82,351.15 C944.56,353.61 958.5,358.72 958.5,366.5 C958.5,373.61 946.85,378.49 929.01,381.16 " fill="none" id="Repositories-to-Repositories" style="stroke:#181818;stroke-width:1.0;"/><polygon fill="#181818" points="923.82,381.85,933.2676,384.6326,928.7766,381.1929,932.2163,376.702,923.82,381.85" style="stroke:#181818;stroke-width:1.0;"/><text fill="#000000" font-family="sans-serif" font-size="20" lengthAdjust="spacing" textLength="79" x="964.5" y="374.3359">instance</text></g><!--link AgencyRepository to Agency--><g id="link_AgencyRepository_Agency"><path codeLine="48" d="M1317,245.03 C1259.38,280.18 1201.52,315.47 1163.46,338.69 " fill="none" id="AgencyRepository-to-Agency" style="stroke:#181818;stroke-width:1.0;"/><polygon fill="#181818" points="1158.91,341.46,1168.6776,340.1973,1163.181,338.8603,1164.518,333.3637,1158.91,341.46" style="stroke:#181818;stroke-width:1.0;"/></g><!--link Agency to Store--><g id="link_Agency_Store"><path codeLine="50" d="M1091.44,391.7 C1072.33,408.17 1050.5,427 1050.5,427 C1050.5,427 771.15,496.36 658.12,524.42 " fill="none" id="Agency-to-Store" style="stroke:#181818;stroke-width:1.0;"/><polygon fill="#181818" points="653.2,525.65,662.8967,527.3746,658.0541,524.4508,660.9779,519.6081,653.2,525.65" style="stroke:#181818;stroke-width:1.0;"/><text fill="#000000" font-family="sans-serif" font-size="20" lengthAdjust="spacing" textLength="83" x="921.5" y="477.3359">registers</text></g><!--SRC=[hLF1ReCm3BtdAtmhLTMfsd58bQfLaxYkwWUan8Me8K69sSIw_Vj2Q4kAnaxb4lBy_6m_Z3j9NNFBAsNo4meGUEIDeZUZQIU_49vNREQk7AYCDdbfJOL0ja4sH6gUdtY1EseLWiMSk2vKJ70b5-PJwWAENBauegH6Qck4sgYskyGLRq5ZoR0eArVSkGsHbOU6CCkD3lsk69ifF1AG0IkBaa38hXrfD6CX1zwna8xGxiXOt6T_mgz-VckKGdjc2tk9k2u2IRPD1JfPQDwffjwuuKLLN7iRR8eLbueBOT6vb51XNHgDkgaEQEViPoXQ6oUzhaG7PmR-MTw1oJo02oYGCksyhJacStYv8msKqFmjr2PHgKs1Ec_F7eZl0_TIFTlsPpHY3rpd76xNONjaD6GFnZQmliqFhgJWXC7DHvWPL7tqeOBUDZQn4R3yNaF0HfHz1a_hgJsQblCvusynpLskxx_yVyHUjIiSBTb8m6-IlAmLO-CsO1cfz6U0GZ7mgRS_Wx5V]--></g></svg>