<?xml version="1.0" encoding="UTF-8" standalone="no"?><svg xmlns="http://www.w3.org/2000/svg" xmlns:xlink="http://www.w3.org/1999/xlink" contentStyleType="text/css" height="778px" preserveAspectRatio="none" style="width:1197px;height:778px;background:#FFFFFF;" version="1.1" viewBox="0 0 1197 778" width="1197px" zoomAndPan="magnify"><defs/><g><text fill="#000000" font-family="sans-serif" font-size="14" font-weight="bold" lengthAdjust="spacing" textLength="295" x="452.5" y="28.5352">US010 - System Sequence Diagram (SSD)</text><rect fill="#FFFFFF" height="545.4297" style="stroke:#181818;stroke-width:1.0;" width="10" x="56" y="136.043"/><rect fill="#FFFFFF" height="61.1094" style="stroke:#181818;stroke-width:1.0;" width="10" x="1122" y="165.5977"/><rect fill="#FFFFFF" height="61.1094" style="stroke:#181818;stroke-width:1.0;" width="10" x="1122" y="264.2617"/><rect fill="#FFFFFF" height="309.5469" style="stroke:#181818;stroke-width:1.0;" width="10" x="1122" y="362.9258"/><rect fill="none" height="257.9922" style="stroke:#000000;stroke-width:1.5;" width="1181" x="10" y="377.9258"/><rect fill="none" height="209.8828" style="stroke:#000000;stroke-width:1.5;" width="1161" x="20" y="419.0352"/><line style="stroke:#181818;stroke-width:0.5;stroke-dasharray:5.0,5.0;" x1="61" x2="61" y1="126.043" y2="690.4727"/><line style="stroke:#181818;stroke-width:0.5;stroke-dasharray:5.0,5.0;" x1="1127" x2="1127" y1="126.043" y2="690.4727"/><text fill="#000000" font-family="sans-serif" font-size="20" lengthAdjust="spacing" textLength="56" x="30" y="121.8242">Agent</text><ellipse cx="61" cy="50.9883" fill="#E3E3E3" rx="8" ry="8" style="stroke:#181818;stroke-width:0.5;"/><path d="M61,58.9883 L61,85.9883 M48,66.9883 L74,66.9883 M61,85.9883 L48,100.9883 M61,85.9883 L74,100.9883 " fill="none" style="stroke:#181818;stroke-width:0.5;"/><text fill="#000000" font-family="sans-serif" font-size="20" lengthAdjust="spacing" textLength="56" x="30" y="708.8086">Agent</text><ellipse cx="61" cy="721.5273" fill="#E3E3E3" rx="8" ry="8" style="stroke:#181818;stroke-width:0.5;"/><path d="M61,729.5273 L61,756.5273 M48,737.5273 L74,737.5273 M61,756.5273 L48,771.5273 M61,756.5273 L74,771.5273 " fill="none" style="stroke:#181818;stroke-width:0.5;"/><rect fill="#E3E3E3" height="37.5547" rx="2.5" ry="2.5" style="stroke:#181818;stroke-width:0.5;" width="88" x="1083" y="87.4883"/><text fill="#000000" font-family="sans-serif" font-size="20" lengthAdjust="spacing" textLength="74" x="1090" y="113.8242">:System</text><rect fill="#E3E3E3" height="37.5547" rx="2.5" ry="2.5" style="stroke:#181818;stroke-width:0.5;" width="88" x="1083" y="689.4727"/><text fill="#000000" font-family="sans-serif" font-size="20" lengthAdjust="spacing" textLength="74" x="1090" y="715.8086">:System</text><rect fill="#FFFFFF" height="545.4297" style="stroke:#181818;stroke-width:1.0;" width="10" x="56" y="136.043"/><rect fill="#FFFFFF" height="61.1094" style="stroke:#181818;stroke-width:1.0;" width="10" x="1122" y="165.5977"/><rect fill="#FFFFFF" height="61.1094" style="stroke:#181818;stroke-width:1.0;" width="10" x="1122" y="264.2617"/><rect fill="#FFFFFF" height="309.5469" style="stroke:#181818;stroke-width:1.0;" width="10" x="1122" y="362.9258"/><polygon fill="#181818" points="1110,161.5977,1120,165.5977,1110,169.5977,1114,165.5977" style="stroke:#181818;stroke-width:1.0;"/><line style="stroke:#181818;stroke-width:1.0;" x1="66" x2="1116" y1="165.5977" y2="165.5977"/><text fill="#000000" font-family="sans-serif" font-size="20" font-weight="bold" lengthAdjust="spacing" textLength="13" x="73" y="159.3789">1</text><text fill="#000000" font-family="sans-serif" font-size="20" lengthAdjust="spacing" textLength="881" x="90" y="159.3789">wants to list real estate purchase orders to accept or decline a purchase order for a property</text><polygon fill="#181818" points="77,222.707,67,226.707,77,230.707,73,226.707" style="stroke:#181818;stroke-width:1.0;"/><line style="stroke:#181818;stroke-width:1.0;stroke-dasharray:2.0,2.0;" x1="71" x2="1126" y1="226.707" y2="226.707"/><text fill="#000000" font-family="sans-serif" font-size="20" font-weight="bold" lengthAdjust="spacing" textLength="13" x="83" y="208.7109">2</text><text fill="#000000" font-family="sans-serif" font-size="20" lengthAdjust="spacing" textLength="855" x="100" y="196.9336">shows the list of properties sorted by the oldest to the most recent one and asks to select</text><text fill="#000000" font-family="sans-serif" font-size="20" lengthAdjust="spacing" textLength="364" x="100" y="220.4883">between the announcements available</text><polygon fill="#181818" points="1110,260.2617,1120,264.2617,1110,268.2617,1114,264.2617" style="stroke:#181818;stroke-width:1.0;"/><line style="stroke:#181818;stroke-width:1.0;" x1="66" x2="1116" y1="264.2617" y2="264.2617"/><text fill="#000000" font-family="sans-serif" font-size="20" font-weight="bold" lengthAdjust="spacing" textLength="13" x="73" y="258.043">3</text><text fill="#000000" font-family="sans-serif" font-size="20" lengthAdjust="spacing" textLength="816" x="90" y="258.043">selects the announcement in wich he/she wants to list the real estate purchase orders</text><polygon fill="#181818" points="77,321.3711,67,325.3711,77,329.3711,73,325.3711" style="stroke:#181818;stroke-width:1.0;"/><line style="stroke:#181818;stroke-width:1.0;stroke-dasharray:2.0,2.0;" x1="71" x2="1126" y1="325.3711" y2="325.3711"/><text fill="#000000" font-family="sans-serif" font-size="20" font-weight="bold" lengthAdjust="spacing" textLength="13" x="83" y="307.375">4</text><text fill="#000000" font-family="sans-serif" font-size="20" lengthAdjust="spacing" textLength="889" x="100" y="295.5977">shows the list of purchase orders sorted by the highest to the lower offer amount and asks to</text><text fill="#000000" font-family="sans-serif" font-size="20" lengthAdjust="spacing" textLength="334" x="106" y="319.1523">select one of the displayed options</text><polygon fill="#181818" points="1110,358.9258,1120,362.9258,1110,366.9258,1114,362.9258" style="stroke:#181818;stroke-width:1.0;"/><line style="stroke:#181818;stroke-width:1.0;" x1="66" x2="1116" y1="362.9258" y2="362.9258"/><text fill="#000000" font-family="sans-serif" font-size="20" font-weight="bold" lengthAdjust="spacing" textLength="13" x="73" y="356.707">5</text><text fill="#000000" font-family="sans-serif" font-size="20" lengthAdjust="spacing" textLength="233" x="90" y="356.707">selects a purchase order</text><path d="M10,377.9258 L89,377.9258 L89,393.4805 L79,403.4805 L10,403.4805 L10,377.9258 " fill="#EEEEEE" style="stroke:#000000;stroke-width:1.5;"/><rect fill="none" height="257.9922" style="stroke:#000000;stroke-width:1.5;" width="1181" x="10" y="377.9258"/><text fill="#000000" font-family="sans-serif" font-size="20" font-weight="bold" lengthAdjust="spacing" textLength="34" x="25" y="398.2617">opt</text><text fill="#000000" font-family="sans-serif" font-size="20" font-weight="bold" lengthAdjust="spacing" textLength="457" x="104" y="399.2617">[asks to accept or decline the chosen order]</text><path d="M20,419.0352 L92,419.0352 L92,434.5898 L82,444.5898 L20,444.5898 L20,419.0352 " fill="#EEEEEE" style="stroke:#000000;stroke-width:1.5;"/><rect fill="none" height="209.8828" style="stroke:#000000;stroke-width:1.5;" width="1161" x="20" y="419.0352"/><text fill="#000000" font-family="sans-serif" font-size="20" font-weight="bold" lengthAdjust="spacing" textLength="27" x="35" y="439.3711">alt</text><text fill="#000000" font-family="sans-serif" font-size="20" font-weight="bold" lengthAdjust="spacing" textLength="215" x="107" y="440.3711">[AcceptOrder = true]</text><polygon fill="#181818" points="1110,478.6992,1120,482.6992,1110,486.6992,1114,482.6992" style="stroke:#181818;stroke-width:1.0;"/><line style="stroke:#181818;stroke-width:1.0;" x1="66" x2="1116" y1="482.6992" y2="482.6992"/><text fill="#000000" font-family="sans-serif" font-size="20" font-weight="bold" lengthAdjust="spacing" textLength="13" x="73" y="476.4805">6</text><text fill="#000000" font-family="sans-serif" font-size="20" lengthAdjust="spacing" textLength="133" x="90" y="476.4805">Accepts order</text><polygon fill="#181818" points="77,516.2539,67,520.2539,77,524.2539,73,520.2539" style="stroke:#181818;stroke-width:1.0;"/><line style="stroke:#181818;stroke-width:1.0;" x1="71" x2="1121" y1="520.2539" y2="520.2539"/><text fill="#000000" font-family="sans-serif" font-size="20" font-weight="bold" lengthAdjust="spacing" textLength="13" x="83" y="514.0352">7</text><text fill="#000000" font-family="sans-serif" font-size="20" lengthAdjust="spacing" textLength="833" x="100" y="514.0352">shows operation success message and automatically declines all other purchase orders</text><line style="stroke:#000000;stroke-width:1.0;stroke-dasharray:2.0,2.0;" x1="20" x2="1181" y1="529.2539" y2="529.2539"/><text fill="#000000" font-family="sans-serif" font-size="20" font-weight="bold" lengthAdjust="spacing" textLength="223" x="25" y="548.5898">[AcceptOrder = false]</text><polygon fill="#181818" points="1110,579.3633,1120,583.3633,1110,587.3633,1114,583.3633" style="stroke:#181818;stroke-width:1.0;"/><line style="stroke:#181818;stroke-width:1.0;" x1="66" x2="1116" y1="583.3633" y2="583.3633"/><text fill="#000000" font-family="sans-serif" font-size="20" font-weight="bold" lengthAdjust="spacing" textLength="13" x="73" y="577.1445">8</text><text fill="#000000" font-family="sans-serif" font-size="20" lengthAdjust="spacing" textLength="139" x="90" y="577.1445">Declines order</text><polygon fill="#181818" points="77,616.918,67,620.918,77,624.918,73,620.918" style="stroke:#181818;stroke-width:1.0;"/><line style="stroke:#181818;stroke-width:1.0;" x1="71" x2="1121" y1="620.918" y2="620.918"/><text fill="#000000" font-family="sans-serif" font-size="20" font-weight="bold" lengthAdjust="spacing" textLength="13" x="83" y="614.6992">9</text><text fill="#000000" font-family="sans-serif" font-size="20" lengthAdjust="spacing" textLength="1015" x="100" y="614.6992">declines purchase order and shows the order list without the already declined orders until one is accepted</text><polygon fill="#181818" points="77,668.4727,67,672.4727,77,676.4727,73,672.4727" style="stroke:#181818;stroke-width:1.0;"/><line style="stroke:#181818;stroke-width:1.0;stroke-dasharray:2.0,2.0;" x1="71" x2="1126" y1="672.4727" y2="672.4727"/><text fill="#000000" font-family="sans-serif" font-size="20" font-weight="bold" lengthAdjust="spacing" textLength="26" x="83" y="666.2539">10</text><text fill="#000000" font-family="sans-serif" font-size="20" lengthAdjust="spacing" textLength="686" x="113" y="666.2539">notificates clients via email with the respective results about the contest</text><!--SRC=[fPGzZzim38Pt_meYKpi4lNOCq0871BTsCBhTmiXqB4GMNOa-8_trfQGuTPnBKQ0P34NYnyENbEB9-W43zexDYHfegCNHoGjxgUqlWYzFLPnDe6VFfWlS4qWOQN4oe3dXaMevEu90Hj0VtT8WTjZmPFqHMdIHgagigEcF-kdp4soXFaUX7chwEP8t17kBn-JseQxt7oiSXVtO7oXK5HhX09ld8tdP04R0jAeqYrXZ1_G2crq9bu_BCllPDnIws5UWlxo4xRSv_GuczOyW3Cv6qKBG0KL9RiCOJ8UHW4D38TkWCJI8RgXgnbcliLTcqEgXRWOUACYv99r1PhAqUG7OAak6sgbWF6cMZWeAjtCKIn4Y1z5c7SxPW5sZa8ae_UivavjK6YSctwWEfqmSoMbluDKVI2OYdntGUnvLz9vIxVY6rk51cvUu6ffn7obMGiQxI60zJDPqqD6dg6UtoYRhlwZxdqAjMdMhLcUFtK8knvFsYTjMlzWhlYmLU_MpPabAZPrS6Xi7XsSDoODOzd4brGtmOyNMm_9-qIMA9hesyNxi4fJfE6f3IwIB5pg1vspzFK_Zrt9juVAxHol6SS6pr7mbUPf6JFL37DKlHkZreoP5GBsplHuRTEuyashHpW4hRxXh-JKTwVkmmYvl1Zm6ty_nRydVfR-ohEvgelupJ6KlZzHafUEn32qw7TlcMb0ppvZEZNLvI6oyT8YQKXFvfbgi_dsqFOjjLK1HLisMh-URHQ1UhsYckjoZE50Ac9VwU2l0OUOr-f3hj3-QqEet]--></g></svg>