<?xml version="1.0" encoding="UTF-8" standalone="no"?><svg xmlns="http://www.w3.org/2000/svg" xmlns:xlink="http://www.w3.org/1999/xlink" contentStyleType="text/css" height="517px" preserveAspectRatio="none" style="width:1245px;height:517px;background:#FFFFFF;" version="1.1" viewBox="0 0 1245 517" width="1245px" zoomAndPan="magnify"><defs/><g><rect fill="#FFFFFF" height="335.4375" style="stroke:#181818;stroke-width:1.0;" width="10" x="466" y="106.6641"/><rect fill="#FFFFFF" height="273.8828" style="stroke:#181818;stroke-width:1.0;" width="10" x="471" y="152.2188"/><rect fill="#FFFFFF" height="37.5547" style="stroke:#181818;stroke-width:1.0;" width="10" x="760" y="194.7734"/><rect fill="#FFFFFF" height="37.5547" style="stroke:#181818;stroke-width:1.0;" width="10" x="966" y="269.8828"/><rect fill="#FFFFFF" height="37.5547" style="stroke:#181818;stroke-width:1.0;" width="10" x="1154" y="344.9922"/><line style="stroke:#181818;stroke-width:0.5;stroke-dasharray:5.0,5.0;" x1="471" x2="471" y1="67.1094" y2="451.1016"/><line style="stroke:#181818;stroke-width:0.5;stroke-dasharray:5.0,5.0;" x1="765" x2="765" y1="67.1094" y2="451.1016"/><line style="stroke:#181818;stroke-width:0.5;stroke-dasharray:5.0,5.0;" x1="971" x2="971" y1="67.1094" y2="451.1016"/><line style="stroke:#181818;stroke-width:0.5;stroke-dasharray:5.0,5.0;" x1="1159" x2="1159" y1="67.1094" y2="451.1016"/><rect fill="#E3E3E3" height="37.5547" rx="2.5" ry="2.5" style="stroke:#181818;stroke-width:0.5;" width="260" x="341" y="28.5547"/><text fill="#000000" font-family="sans-serif" font-size="20" lengthAdjust="spacing" textLength="246" x="348" y="54.8906">:AnnouncementController</text><rect fill="#E3E3E3" height="37.5547" rx="2.5" ry="2.5" style="stroke:#181818;stroke-width:0.5;" width="260" x="341" y="450.1016"/><text fill="#000000" font-family="sans-serif" font-size="20" lengthAdjust="spacing" textLength="246" x="348" y="476.4375">:AnnouncementController</text><rect fill="#E3E3E3" height="37.5547" rx="2.5" ry="2.5" style="stroke:#181818;stroke-width:0.5;" width="196" x="667" y="28.5547"/><text fill="#000000" font-family="sans-serif" font-size="20" lengthAdjust="spacing" textLength="182" x="674" y="54.8906">ApplicationSession</text><rect fill="#E3E3E3" height="37.5547" rx="2.5" ry="2.5" style="stroke:#181818;stroke-width:0.5;" width="196" x="667" y="450.1016"/><text fill="#000000" font-family="sans-serif" font-size="20" lengthAdjust="spacing" textLength="182" x="674" y="476.4375">ApplicationSession</text><rect fill="#E3E3E3" height="61.1094" rx="2.5" ry="2.5" style="stroke:#181818;stroke-width:0.5;" width="196" x="873" y="5"/><text fill="#000000" font-family="sans-serif" font-size="20" lengthAdjust="spacing" textLength="115" x="913.5" y="31.3359">appSession:</text><text fill="#000000" font-family="sans-serif" font-size="20" lengthAdjust="spacing" textLength="182" x="880" y="54.8906">ApplicationSession</text><rect fill="#E3E3E3" height="61.1094" rx="2.5" ry="2.5" style="stroke:#181818;stroke-width:0.5;" width="196" x="873" y="450.1016"/><text fill="#000000" font-family="sans-serif" font-size="20" lengthAdjust="spacing" textLength="115" x="913.5" y="476.4375">appSession:</text><text fill="#000000" font-family="sans-serif" font-size="20" lengthAdjust="spacing" textLength="182" x="880" y="499.9922">ApplicationSession</text><rect fill="#E3E3E3" height="61.1094" rx="2.5" ry="2.5" style="stroke:#181818;stroke-width:0.5;" width="160" x="1079" y="5"/><text fill="#000000" font-family="sans-serif" font-size="20" lengthAdjust="spacing" textLength="146" x="1086" y="31.3359">currentSession:</text><text fill="#000000" font-family="sans-serif" font-size="20" lengthAdjust="spacing" textLength="115" x="1101.5" y="54.8906">UserSession</text><rect fill="#E3E3E3" height="61.1094" rx="2.5" ry="2.5" style="stroke:#181818;stroke-width:0.5;" width="160" x="1079" y="450.1016"/><text fill="#000000" font-family="sans-serif" font-size="20" lengthAdjust="spacing" textLength="146" x="1086" y="476.4375">currentSession:</text><text fill="#000000" font-family="sans-serif" font-size="20" lengthAdjust="spacing" textLength="115" x="1101.5" y="499.9922">UserSession</text><rect fill="#FFFFFF" height="335.4375" style="stroke:#181818;stroke-width:1.0;" width="10" x="466" y="106.6641"/><rect fill="#FFFFFF" height="273.8828" style="stroke:#181818;stroke-width:1.0;" width="10" x="471" y="152.2188"/><rect fill="#FFFFFF" height="37.5547" style="stroke:#181818;stroke-width:1.0;" width="10" x="760" y="194.7734"/><rect fill="#FFFFFF" height="37.5547" style="stroke:#181818;stroke-width:1.0;" width="10" x="966" y="269.8828"/><rect fill="#FFFFFF" height="37.5547" style="stroke:#181818;stroke-width:1.0;" width="10" x="1154" y="344.9922"/><polygon fill="#181818" points="454,102.6641,464,106.6641,454,110.6641,458,106.6641" style="stroke:#181818;stroke-width:1.0;"/><line style="stroke:#181818;stroke-width:1.0;" x1="0" x2="460" y1="106.6641" y2="106.6641"/><text fill="#000000" font-family="sans-serif" font-size="20" font-weight="bold" lengthAdjust="spacing" textLength="26" x="7" y="100.4453">25</text><text fill="#000000" font-family="sans-serif" font-size="20" lengthAdjust="spacing" textLength="417" x="37" y="100.4453">createOrder(announcementDTO,value,date)</text><line style="stroke:#181818;stroke-width:1.0;" x1="476" x2="523" y1="139.2188" y2="139.2188"/><line style="stroke:#181818;stroke-width:1.0;" x1="523" x2="523" y1="139.2188" y2="152.2188"/><line style="stroke:#181818;stroke-width:1.0;" x1="482" x2="523" y1="152.2188" y2="152.2188"/><polygon fill="#181818" points="492,148.2188,482,152.2188,492,156.2188,488,152.2188" style="stroke:#181818;stroke-width:1.0;"/><text fill="#000000" font-family="sans-serif" font-size="20" font-weight="bold" lengthAdjust="spacing" textLength="44" x="488" y="133">25.1</text><text fill="#000000" font-family="sans-serif" font-size="20" lengthAdjust="spacing" textLength="222" x="536" y="133">getClientFromSession()</text><polygon fill="#181818" points="748,190.7734,758,194.7734,748,198.7734,752,194.7734" style="stroke:#181818;stroke-width:1.0;"/><line style="stroke:#181818;stroke-width:1.0;" x1="481" x2="754" y1="194.7734" y2="194.7734"/><text fill="#000000" font-family="sans-serif" font-size="20" font-weight="bold" lengthAdjust="spacing" textLength="44" x="488" y="188.5547">25.2</text><text fill="#000000" font-family="sans-serif" font-size="20" lengthAdjust="spacing" textLength="123" x="536" y="188.5547">getInstance()</text><polygon fill="#181818" points="492,228.3281,482,232.3281,492,236.3281,488,232.3281" style="stroke:#181818;stroke-width:1.0;"/><line style="stroke:#181818;stroke-width:1.0;stroke-dasharray:2.0,2.0;" x1="486" x2="764" y1="232.3281" y2="232.3281"/><text fill="#000000" font-family="sans-serif" font-size="20" font-weight="bold" lengthAdjust="spacing" textLength="44" x="498" y="226.1094">25.3</text><text fill="#000000" font-family="sans-serif" font-size="20" lengthAdjust="spacing" textLength="109" x="546" y="226.1094">appSession</text><polygon fill="#181818" points="954,265.8828,964,269.8828,954,273.8828,958,269.8828" style="stroke:#181818;stroke-width:1.0;"/><line style="stroke:#181818;stroke-width:1.0;" x1="481" x2="960" y1="269.8828" y2="269.8828"/><text fill="#000000" font-family="sans-serif" font-size="20" font-weight="bold" lengthAdjust="spacing" textLength="44" x="488" y="263.6641">25.4</text><text fill="#000000" font-family="sans-serif" font-size="20" lengthAdjust="spacing" textLength="188" x="536" y="263.6641">getCurrentSession()</text><polygon fill="#181818" points="492,303.4375,482,307.4375,492,311.4375,488,307.4375" style="stroke:#181818;stroke-width:1.0;"/><line style="stroke:#181818;stroke-width:1.0;stroke-dasharray:2.0,2.0;" x1="486" x2="970" y1="307.4375" y2="307.4375"/><text fill="#000000" font-family="sans-serif" font-size="20" font-weight="bold" lengthAdjust="spacing" textLength="44" x="498" y="301.2188">25.5</text><text fill="#000000" font-family="sans-serif" font-size="20" lengthAdjust="spacing" textLength="140" x="546" y="301.2188">currentSession</text><polygon fill="#181818" points="1142,340.9922,1152,344.9922,1142,348.9922,1146,344.9922" style="stroke:#181818;stroke-width:1.0;"/><line style="stroke:#181818;stroke-width:1.0;" x1="481" x2="1148" y1="344.9922" y2="344.9922"/><text fill="#000000" font-family="sans-serif" font-size="20" font-weight="bold" lengthAdjust="spacing" textLength="44" x="488" y="338.7734">25.6</text><text fill="#000000" font-family="sans-serif" font-size="20" lengthAdjust="spacing" textLength="153" x="536" y="338.7734">getClientEmail()</text><polygon fill="#181818" points="492,378.5469,482,382.5469,492,386.5469,488,382.5469" style="stroke:#181818;stroke-width:1.0;"/><line style="stroke:#181818;stroke-width:1.0;stroke-dasharray:2.0,2.0;" x1="486" x2="1158" y1="382.5469" y2="382.5469"/><text fill="#000000" font-family="sans-serif" font-size="20" font-weight="bold" lengthAdjust="spacing" textLength="44" x="498" y="376.3281">25.7</text><text fill="#000000" font-family="sans-serif" font-size="20" lengthAdjust="spacing" textLength="53" x="546" y="376.3281">email</text><line style="stroke:#181818;stroke-width:1.0;" x1="481" x2="523" y1="425.1016" y2="425.1016"/><line style="stroke:#181818;stroke-width:1.0;" x1="523" x2="523" y1="425.1016" y2="438.1016"/><line style="stroke:#181818;stroke-width:1.0;" x1="476" x2="523" y1="438.1016" y2="438.1016"/><polygon fill="#181818" points="486,434.1016,476,438.1016,486,442.1016,482,438.1016" style="stroke:#181818;stroke-width:1.0;"/><text fill="#000000" font-family="sans-serif" font-size="20" font-weight="bold" lengthAdjust="spacing" textLength="44" x="488" y="418.8828">25.8</text><text fill="#000000" font-family="sans-serif" font-size="20" lengthAdjust="spacing" textLength="53" x="536" y="418.8828">email</text><!--SRC=[fLDDJm8n4BttLpIS804Z97hO0mb1IKnCI0HlNiRki3JRRPj-OFJNstL1Mc1NexqqE_FUczUPMLjogS509HGhCQSvRi0Bjr3IhVW7qiariGS8hPHKR6jKXTGPZr560okXm9Lx5qWDCWUo4370RY5NRrmMT0F28Y4Xx3ZZ6gIZlMmcfVAIOONIpKDjeuH0qwDWwNpzzFW_-4nhmHauhkGAhGtN5nAqtd-cy6CyUv7jt9J4l371p97uRD743BilHS0x9NtrYePERWYXesbjEQFC83XScXnD7wBttQsNmnq8ZyCyv0Sf_seS5E83pF5Tm3LzeAUdZeQApPtH0jrSy51a4OQwTziVdDD-eJgQHdshXH-a3Ll0i5Clci4vw3itQdeK37VXSpp8aWwBpQEJQVtayAArewTqz7_oPQE-DGEvhu2BJcEshPuzRHhMMkUur5kxteMzQL6Cr9hVCDdsyIqXdm00]--></g></svg>