<?xml version="1.0" encoding="UTF-8" standalone="no"?><svg xmlns="http://www.w3.org/2000/svg" xmlns:xlink="http://www.w3.org/1999/xlink" contentStyleType="text/css" height="653px" preserveAspectRatio="none" style="width:971px;height:653px;background:#FFFFFF;" version="1.1" viewBox="0 0 971 653" width="971px" zoomAndPan="magnify"><defs/><g><rect fill="#FFFFFF" height="471.7656" style="stroke:#181818;stroke-width:1.0;" width="10" x="392" y="106.6641"/><rect fill="#FFFFFF" height="37.5547" style="stroke:#181818;stroke-width:1.0;" width="10" x="776" y="185.3281"/><rect fill="#FFFFFF" height="37.5547" style="stroke:#181818;stroke-width:1.0;" width="10" x="776" y="285.9922"/><rect fill="#FFFFFF" height="37.5547" style="stroke:#181818;stroke-width:1.0;" width="10" x="776" y="386.6563"/><rect fill="#FFFFFF" height="37.5547" style="stroke:#181818;stroke-width:1.0;" width="10" x="776" y="487.3203"/><rect fill="none" height="411.2109" style="stroke:#000000;stroke-width:1.5;" width="707" x="257" y="121.6641"/><line style="stroke:#181818;stroke-width:0.5;stroke-dasharray:5.0,5.0;" x1="397" x2="397" y1="67.1094" y2="587.4297"/><line style="stroke:#181818;stroke-width:0.5;stroke-dasharray:5.0,5.0;" x1="781" x2="781" y1="67.1094" y2="587.4297"/><rect fill="#E3E3E3" height="37.5547" rx="2.5" ry="2.5" style="stroke:#181818;stroke-width:0.5;" width="260" x="267" y="28.5547"/><text fill="#000000" font-family="sans-serif" font-size="20" lengthAdjust="spacing" textLength="246" x="274" y="54.8906">:AnnouncementController</text><rect fill="#E3E3E3" height="37.5547" rx="2.5" ry="2.5" style="stroke:#181818;stroke-width:0.5;" width="260" x="267" y="586.4297"/><text fill="#000000" font-family="sans-serif" font-size="20" lengthAdjust="spacing" textLength="246" x="274" y="612.7656">:AnnouncementController</text><rect fill="#E3E3E3" height="61.1094" rx="2.5" ry="2.5" style="stroke:#181818;stroke-width:0.5;" width="346" x="608" y="5"/><text fill="#000000" font-family="sans-serif" font-size="20" lengthAdjust="spacing" textLength="310" x="626" y="31.3359">ListAnnouncementAvailableDTO</text><text fill="#000000" font-family="sans-serif" font-size="20" lengthAdjust="spacing" textLength="332" x="615" y="54.8906">:List&lt;AnnouncementAvailableDTO</text><rect fill="#E3E3E3" height="61.1094" rx="2.5" ry="2.5" style="stroke:#181818;stroke-width:0.5;" width="346" x="608" y="586.4297"/><text fill="#000000" font-family="sans-serif" font-size="20" lengthAdjust="spacing" textLength="310" x="626" y="612.7656">ListAnnouncementAvailableDTO</text><text fill="#000000" font-family="sans-serif" font-size="20" lengthAdjust="spacing" textLength="332" x="615" y="636.3203">:List&lt;AnnouncementAvailableDTO</text><rect fill="#FFFFFF" height="471.7656" style="stroke:#181818;stroke-width:1.0;" width="10" x="392" y="106.6641"/><rect fill="#FFFFFF" height="37.5547" style="stroke:#181818;stroke-width:1.0;" width="10" x="776" y="185.3281"/><rect fill="#FFFFFF" height="37.5547" style="stroke:#181818;stroke-width:1.0;" width="10" x="776" y="285.9922"/><rect fill="#FFFFFF" height="37.5547" style="stroke:#181818;stroke-width:1.0;" width="10" x="776" y="386.6563"/><rect fill="#FFFFFF" height="37.5547" style="stroke:#181818;stroke-width:1.0;" width="10" x="776" y="487.3203"/><polygon fill="#181818" points="380,102.6641,390,106.6641,380,110.6641,384,106.6641" style="stroke:#181818;stroke-width:1.0;"/><line style="stroke:#181818;stroke-width:1.0;" x1="0" x2="386" y1="106.6641" y2="106.6641"/><text fill="#000000" font-family="sans-serif" font-size="20" font-weight="bold" lengthAdjust="spacing" textLength="26" x="7" y="100.4453">15</text><text fill="#000000" font-family="sans-serif" font-size="20" lengthAdjust="spacing" textLength="343" x="37" y="100.4453">getAnnouncementListOrdered(type)</text><path d="M257,121.6641 L329,121.6641 L329,137.2188 L319,147.2188 L257,147.2188 L257,121.6641 " fill="#EEEEEE" style="stroke:#000000;stroke-width:1.5;"/><rect fill="none" height="411.2109" style="stroke:#000000;stroke-width:1.5;" width="707" x="257" y="121.6641"/><text fill="#000000" font-family="sans-serif" font-size="20" font-weight="bold" lengthAdjust="spacing" textLength="27" x="272" y="142">alt</text><text fill="#000000" font-family="sans-serif" font-size="20" font-weight="bold" lengthAdjust="spacing" textLength="317" x="344" y="143">[Sort type == ascending price]</text><polygon fill="#181818" points="764,181.3281,774,185.3281,764,189.3281,768,185.3281" style="stroke:#181818;stroke-width:1.0;"/><line style="stroke:#181818;stroke-width:1.0;" x1="402" x2="770" y1="185.3281" y2="185.3281"/><text fill="#000000" font-family="sans-serif" font-size="20" font-weight="bold" lengthAdjust="spacing" textLength="44" x="409" y="179.1094">15.1</text><text fill="#000000" font-family="sans-serif" font-size="20" lengthAdjust="spacing" textLength="153" x="457" y="179.1094">sortByPriceAsc()</text><polygon fill="#181818" points="413,218.8828,403,222.8828,413,226.8828,409,222.8828" style="stroke:#181818;stroke-width:1.0;"/><line style="stroke:#181818;stroke-width:1.0;stroke-dasharray:2.0,2.0;" x1="407" x2="780" y1="222.8828" y2="222.8828"/><text fill="#000000" font-family="sans-serif" font-size="20" font-weight="bold" lengthAdjust="spacing" textLength="44" x="419" y="216.6641">15.2</text><text fill="#000000" font-family="sans-serif" font-size="20" lengthAdjust="spacing" textLength="302" x="467" y="216.6641">AnnouncementListOrderedDTO</text><line style="stroke:#000000;stroke-width:1.0;stroke-dasharray:2.0,2.0;" x1="257" x2="964" y1="231.8828" y2="231.8828"/><text fill="#000000" font-family="sans-serif" font-size="20" font-weight="bold" lengthAdjust="spacing" textLength="330" x="262" y="251.2188">[Sort type == descending price]</text><polygon fill="#181818" points="764,281.9922,774,285.9922,764,289.9922,768,285.9922" style="stroke:#181818;stroke-width:1.0;"/><line style="stroke:#181818;stroke-width:1.0;" x1="402" x2="770" y1="285.9922" y2="285.9922"/><text fill="#000000" font-family="sans-serif" font-size="20" font-weight="bold" lengthAdjust="spacing" textLength="44" x="409" y="279.7734">15.3</text><text fill="#000000" font-family="sans-serif" font-size="20" lengthAdjust="spacing" textLength="165" x="457" y="279.7734">sortByPriceDesc()</text><polygon fill="#181818" points="413,319.5469,403,323.5469,413,327.5469,409,323.5469" style="stroke:#181818;stroke-width:1.0;"/><line style="stroke:#181818;stroke-width:1.0;stroke-dasharray:2.0,2.0;" x1="407" x2="780" y1="323.5469" y2="323.5469"/><text fill="#000000" font-family="sans-serif" font-size="20" font-weight="bold" lengthAdjust="spacing" textLength="44" x="419" y="317.3281">15.4</text><text fill="#000000" font-family="sans-serif" font-size="20" lengthAdjust="spacing" textLength="302" x="467" y="317.3281">AnnouncementListOrderedDTO</text><line style="stroke:#000000;stroke-width:1.0;stroke-dasharray:2.0,2.0;" x1="257" x2="964" y1="332.5469" y2="332.5469"/><text fill="#000000" font-family="sans-serif" font-size="20" font-weight="bold" lengthAdjust="spacing" textLength="218" x="262" y="351.8828">[Sort type == parish]</text><polygon fill="#181818" points="764,382.6563,774,386.6563,764,390.6563,768,386.6563" style="stroke:#181818;stroke-width:1.0;"/><line style="stroke:#181818;stroke-width:1.0;" x1="402" x2="770" y1="386.6563" y2="386.6563"/><text fill="#000000" font-family="sans-serif" font-size="20" font-weight="bold" lengthAdjust="spacing" textLength="44" x="409" y="380.4375">15.5</text><text fill="#000000" font-family="sans-serif" font-size="20" lengthAdjust="spacing" textLength="131" x="457" y="380.4375">sortByParish()</text><polygon fill="#181818" points="413,420.2109,403,424.2109,413,428.2109,409,424.2109" style="stroke:#181818;stroke-width:1.0;"/><line style="stroke:#181818;stroke-width:1.0;stroke-dasharray:2.0,2.0;" x1="407" x2="780" y1="424.2109" y2="424.2109"/><text fill="#000000" font-family="sans-serif" font-size="20" font-weight="bold" lengthAdjust="spacing" textLength="44" x="419" y="417.9922">15.6</text><text fill="#000000" font-family="sans-serif" font-size="20" lengthAdjust="spacing" textLength="302" x="467" y="417.9922">AnnouncementListOrderedDTO</text><line style="stroke:#000000;stroke-width:1.0;stroke-dasharray:2.0,2.0;" x1="257" x2="964" y1="433.2109" y2="433.2109"/><text fill="#000000" font-family="sans-serif" font-size="20" font-weight="bold" lengthAdjust="spacing" textLength="270" x="262" y="452.5469">[Sort type == recent date]</text><polygon fill="#181818" points="764,483.3203,774,487.3203,764,491.3203,768,487.3203" style="stroke:#181818;stroke-width:1.0;"/><line style="stroke:#181818;stroke-width:1.0;" x1="402" x2="770" y1="487.3203" y2="487.3203"/><text fill="#000000" font-family="sans-serif" font-size="20" font-weight="bold" lengthAdjust="spacing" textLength="44" x="409" y="481.1016">15.7</text><text fill="#000000" font-family="sans-serif" font-size="20" lengthAdjust="spacing" textLength="137" x="457" y="481.1016">sortByRecent()</text><polygon fill="#181818" points="413,520.875,403,524.875,413,528.875,409,524.875" style="stroke:#181818;stroke-width:1.0;"/><line style="stroke:#181818;stroke-width:1.0;stroke-dasharray:2.0,2.0;" x1="407" x2="780" y1="524.875" y2="524.875"/><text fill="#000000" font-family="sans-serif" font-size="20" font-weight="bold" lengthAdjust="spacing" textLength="44" x="419" y="518.6563">15.8</text><text fill="#000000" font-family="sans-serif" font-size="20" lengthAdjust="spacing" textLength="302" x="467" y="518.6563">AnnouncementListOrderedDTO</text><polygon fill="#181818" points="11,565.4297,1,569.4297,11,573.4297,7,569.4297" style="stroke:#181818;stroke-width:1.0;"/><line style="stroke:#181818;stroke-width:1.0;stroke-dasharray:2.0,2.0;" x1="5" x2="391" y1="569.4297" y2="569.4297"/><text fill="#000000" font-family="sans-serif" font-size="20" font-weight="bold" lengthAdjust="spacing" textLength="26" x="17" y="563.2109">16</text><text fill="#000000" font-family="sans-serif" font-size="20" lengthAdjust="spacing" textLength="302" x="47" y="563.2109">AnnouncementListOrderedDTO</text><!--SRC=[pLJBRi8m4BpxArQSu92gL6eF4LIYe9wGg81ZByRU1Wl7ZkmD5VtwEk6Xf2I5IbNLFKMPdPsPjMM_KIRZZgVQYWrAaFZ6SqtFrj12VI3StJ9_R87K6YlMpgO8v7Ai81aN6vxWWdOQmQ4WRX9TRV1hBksxCWcySUsHiV2Rb50PDmITU6ICpOt050sDWxQpMgFh0FSmNiwdzUwfybGbZBPSQRxIE5dENarSm8Csl1nPT8HlnXZFoPeyNQ63_ZrZ43sMUZ4aM9Ce63CdqQ7iqYx3tXVgJJ-GAyK5gIqdtBklGIMi2HRM4HIpO3WCfWGQMQmdSqhWEQEO4ymTdCS0Fj2VTYz5zyYBRkzSusZXb1OQwW12T4hU4hkOq3H0ub7eN033ITTpIhmKz9h04snCt5H_lmMul8LmcvLVDrjforrIMa9V5_9NWlxyoCDh44Q3RDnDU-1vIVj_WTbUArpY-XFmKFSmYA9IxXkrJm00]--></g></svg>