<?xml version="1.0" encoding="UTF-8" standalone="no"?><svg xmlns="http://www.w3.org/2000/svg" xmlns:xlink="http://www.w3.org/1999/xlink" contentStyleType="text/css" height="567px" preserveAspectRatio="none" style="width:960px;height:567px;background:#FFFFFF;" version="1.1" viewBox="0 0 960 567" width="960px" zoomAndPan="magnify"><defs/><g><text fill="#000000" font-family="sans-serif" font-size="14" font-weight="bold" lengthAdjust="spacing" textLength="419" x="263.77" y="23.5352">Domain Model US011 - Accept or Decline purchase orders</text><!--class Order--><g id="elem_Order"><rect codeLine="15" fill="#F1F1F1" height="112.2188" id="Order" rx="2.5" ry="2.5" style="stroke:#181818;stroke-width:0.5;" width="129" x="372.04" y="321.4883"/><text fill="#000000" font-family="sans-serif" font-size="20" lengthAdjust="spacing" textLength="56" x="408.54" y="345.8242">Order</text><line style="stroke:#181818;stroke-width:0.5;" x1="373.04" x2="500.04" y1="355.043" y2="355.043"/><text fill="#000000" font-family="sans-serif" font-size="20" lengthAdjust="spacing" textLength="117" x="378.04" y="378.3789">-clientEmail</text><text fill="#000000" font-family="sans-serif" font-size="20" lengthAdjust="spacing" textLength="62" x="378.04" y="401.9336">-value</text><text fill="#000000" font-family="sans-serif" font-size="20" lengthAdjust="spacing" textLength="58" x="378.04" y="425.4883">-state</text></g><!--class agent--><g id="elem_agent"><rect codeLine="22" fill="#F1F1F1" height="41.5547" id="agent" rx="2.5" ry="2.5" style="stroke:#181818;stroke-width:0.5;" width="62" x="405.54" y="44.4883"/><text fill="#000000" font-family="sans-serif" font-size="20" lengthAdjust="spacing" textLength="56" x="408.54" y="68.8242">Agent</text><line style="stroke:#181818;stroke-width:0.5;" x1="406.54" x2="466.54" y1="78.043" y2="78.043"/></g><!--class Announcement--><g id="elem_Announcement"><rect codeLine="25" fill="#F1F1F1" height="65.1094" id="Announcement" rx="2.5" ry="2.5" style="stroke:#181818;stroke-width:0.5;" width="254" x="309.54" y="171.4883"/><text fill="#000000" font-family="sans-serif" font-size="20" lengthAdjust="spacing" textLength="144" x="364.54" y="195.8242">Announcement</text><line style="stroke:#181818;stroke-width:0.5;" x1="310.54" x2="562.54" y1="205.043" y2="205.043"/><text fill="#000000" font-family="sans-serif" font-size="20" lengthAdjust="spacing" textLength="242" x="315.54" y="228.3789">AnnouncementsAvailable</text></g><!--class Client--><g id="elem_Client"><rect codeLine="34" fill="#F1F1F1" height="65.1094" id="Client" rx="2.5" ry="2.5" style="stroke:#181818;stroke-width:0.5;" width="65" x="599.04" y="171.4883"/><text fill="#000000" font-family="sans-serif" font-size="20" lengthAdjust="spacing" textLength="56" x="603.54" y="195.8242">Client</text><line style="stroke:#181818;stroke-width:0.5;" x1="600.04" x2="663.04" y1="205.043" y2="205.043"/><text fill="#000000" font-family="sans-serif" font-size="20" lengthAdjust="spacing" textLength="53" x="605.04" y="228.3789">email</text></g><!--class Declined--><g id="elem_Declined"><rect fill="#F1F1F1" height="41.5547" id="Declined" rx="2.5" ry="2.5" style="stroke:#181818;stroke-width:0.5;" width="90" x="620.54" y="356.4883"/><text fill="#000000" font-family="sans-serif" font-size="20" lengthAdjust="spacing" textLength="84" x="623.54" y="380.8242">Declined</text><line style="stroke:#181818;stroke-width:0.5;" x1="621.54" x2="709.54" y1="390.043" y2="390.043"/></g><!--class Accepted--><g id="elem_Accepted"><rect fill="#F1F1F1" height="41.5547" id="Accepted" rx="2.5" ry="2.5" style="stroke:#181818;stroke-width:0.5;" width="95" x="389.04" y="518.4883"/><text fill="#000000" font-family="sans-serif" font-size="20" lengthAdjust="spacing" textLength="89" x="392.04" y="542.8242">Accepted</text><line style="stroke:#181818;stroke-width:0.5;" x1="390.04" x2="483.04" y1="552.043" y2="552.043"/></g><!--link agent to Order--><g id="link_agent_Order"><path codeLine="40" d="M405.4,71.0883 C327.24,83.3283 126.28,119.3783 87.54,171.4883 C6,281.1783 249.82,342.5283 371.67,365.6683 " fill="none" id="agent-Order" style="stroke:#181818;stroke-width:1.0;"/><polygon fill="#000000" points="94.6299,212.2137,100.948,198.3704,91.6045,197.3006,94.6299,212.2137" style="stroke:#000000;stroke-width:1.0;"/><text fill="#000000" font-family="sans-serif" font-size="20" lengthAdjust="spacing" textLength="182" x="108.54" y="211.8242">chooses to process</text><text fill="#000000" font-family="sans-serif" font-size="20" lengthAdjust="spacing" textLength="13" x="384.6368" y="66.3105">2</text><text fill="#000000" font-family="sans-serif" font-size="20" lengthAdjust="spacing" textLength="13" x="350.8639" y="359.472">2</text></g><!--link agent to Announcement--><g id="link_agent_Announcement"><path codeLine="41" d="M436.54,86.6283 C436.54,108.9483 436.54,145.2383 436.54,171.3683 " fill="none" id="agent-Announcement" style="stroke:#181818;stroke-width:1.0;"/><polygon fill="#000000" points="444.54,137.2656,449.2423,122.7935,439.8377,122.7935,444.54,137.2656" style="stroke:#000000;stroke-width:1.0;"/><text fill="#000000" font-family="sans-serif" font-size="20" lengthAdjust="spacing" textLength="79" x="457.54" y="136.8242">displays</text><text fill="#000000" font-family="sans-serif" font-size="20" lengthAdjust="spacing" textLength="13" x="422.1181" y="113.2136">1</text><text fill="#000000" font-family="sans-serif" font-size="20" lengthAdjust="spacing" textLength="10" x="425.5869" y="159.3363">*</text></g><!--link Announcement to Order--><g id="link_Announcement_Order"><path codeLine="43" d="M436.54,236.8483 C436.54,260.4783 436.54,293.2983 436.54,321.1883 " fill="none" id="Announcement-Order" style="stroke:#181818;stroke-width:1.0;"/><polygon fill="#000000" points="444.54,287.2656,449.2423,272.7935,439.8377,272.7935,444.54,287.2656" style="stroke:#000000;stroke-width:1.0;"/><text fill="#000000" font-family="sans-serif" font-size="20" lengthAdjust="spacing" textLength="33" x="457.54" y="286.8242">has</text><text fill="#000000" font-family="sans-serif" font-size="20" lengthAdjust="spacing" textLength="13" x="422.4228" y="263.8469">1</text><text fill="#000000" font-family="sans-serif" font-size="20" lengthAdjust="spacing" textLength="10" x="425.9306" y="309.2816">*</text></g><!--link Client to Order--><g id="link_Client_Order"><path codeLine="47" d="M598.9,233.6983 C571.8,257.5283 532.45,292.1383 499.28,321.3083 " fill="none" id="Client-Order" style="stroke:#181818;stroke-width:1.0;"/><polygon fill="#000000" points="559.5326,284.5488,573.5054,278.5225,567.2947,271.4604,559.5326,284.5488" style="stroke:#000000;stroke-width:1.0;"/><text fill="#000000" font-family="sans-serif" font-size="20" lengthAdjust="spacing" textLength="61" x="578.54" y="286.8242">places</text><text fill="#000000" font-family="sans-serif" font-size="20" lengthAdjust="spacing" textLength="13" x="577.8274" y="233.836">1</text><text fill="#000000" font-family="sans-serif" font-size="20" lengthAdjust="spacing" textLength="10" x="496.3171" y="309.4162">*</text></g><!--link Order to Declined--><g id="link_Order_Declined"><path codeLine="50" d="M501.24,377.4883 C539.2,377.4883 586.23,377.4883 620.23,377.4883 " fill="none" id="Order-Declined" style="stroke:#181818;stroke-width:1.0;"/><polygon fill="#000000" points="534.29,362.2656,519.8179,357.5633,519.8179,366.9679,534.29,362.2656" style="stroke:#000000;stroke-width:1.0;"/><text fill="#000000" font-family="sans-serif" font-size="20" lengthAdjust="spacing" textLength="63" x="539.29" y="369.8242">can be</text></g><!--link Order to Accepted--><g id="link_Order_Accepted"><path codeLine="51" d="M436.54,433.5483 C436.54,462.8383 436.54,497.0783 436.54,518.2783 " fill="none" id="Order-Accepted" style="stroke:#181818;stroke-width:1.0;"/><polygon fill="#000000" points="444.54,484.2656,449.2423,469.7935,439.8377,469.7935,444.54,484.2656" style="stroke:#000000;stroke-width:1.0;"/><text fill="#000000" font-family="sans-serif" font-size="20" lengthAdjust="spacing" textLength="63" x="457.54" y="483.8242">can be</text></g><!--link agent to Client--><g id="link_agent_Client"><path codeLine="53" d="M467.71,77.3383 C490.41,86.0383 521.29,99.5683 545.54,116.4883 C567.77,131.9983 589.27,153.6283 605.21,171.3683 " fill="none" id="agent-Client" style="stroke:#181818;stroke-width:1.0;"/><polygon fill="#000000" points="588.1436,133.7815,578.852,121.7307,573.5433,129.4937,588.1436,133.7815" style="stroke:#000000;stroke-width:1.0;"/><text fill="#000000" font-family="sans-serif" font-size="20" lengthAdjust="spacing" textLength="358" x="594.54" y="136.8242">´sends email informing the results to</text><text fill="#000000" font-family="sans-serif" font-size="20" lengthAdjust="spacing" textLength="13" x="475.4794" y="73.8495">7</text><text fill="#000000" font-family="sans-serif" font-size="20" lengthAdjust="spacing" textLength="10" x="589.2377" y="159.3363">*</text></g><!--SRC=[RLB1Yjmm3BtxAqIEXO6PlHJsi12wBVHGUXZw0HfRCp7ZMC5Ijco7_Qj-GR-iihFfPg4v64llIUz9iLnZdh3WcDXVAK2WCyv9lt3MO_n5SBTtib9WvCn-A3mIQ9bfWqpehtYXepudWa9UCL_IbY031luPymNEc8ISss0-eKYlMk9fLlhgEJVflND330G-5c-zsdqa7JY8SnhLb1vvn9ZX6mTAyEEuFnnW1xttD2bmWKVoAMQ2QIv-G27B1IfMxLpJXEyrlZa0s1cJidwsVgd6i7l2P2EsgoYgMNvPoxh-OjmEK03h3MvlM9yppzdJQFcRsqRIFrbpFDaiBsxvbf9FJVhcg8atR6dRtNKsJpqNft0FVc0M4b26gR0dAtzOsGTZ6_r3zyw45OKeKyBdIdtdQ5ko2jYUAisvnTN_ADRBX1jhIPd9TTUXUiGC9p9yGNVhBsdW6xhQ_lXFu5No7lxy5if1e6q4OZvp6UlRqQ6-Bh47sZRmyBf6znS0]--></g></svg>