<?xml version="1.0" encoding="UTF-8" standalone="no"?><svg xmlns="http://www.w3.org/2000/svg" xmlns:xlink="http://www.w3.org/1999/xlink" contentStyleType="text/css" height="558px" preserveAspectRatio="none" style="width:812px;height:558px;background:#FFFFFF;" version="1.1" viewBox="0 0 812 558" width="812px" zoomAndPan="magnify"><defs/><g><text fill="#000000" font-family="sans-serif" font-size="14" font-weight="bold" lengthAdjust="spacing" textLength="425" x="192.75" y="28.5352">US003 - System Sequence Diagram (SSD) - Alternative two</text><rect fill="#FFFFFF" height="324.9922" style="stroke:#181818;stroke-width:1.0;" width="10" x="69.5" y="136.043"/><rect fill="#FFFFFF" height="61.1094" style="stroke:#181818;stroke-width:1.0;" width="10" x="757.5" y="165.5977"/><rect fill="#FFFFFF" height="37.5547" style="stroke:#181818;stroke-width:1.0;" width="10" x="757.5" y="264.2617"/><rect fill="#FFFFFF" height="37.5547" style="stroke:#181818;stroke-width:1.0;" width="10" x="757.5" y="339.3711"/><rect fill="#FFFFFF" height="37.5547" style="stroke:#181818;stroke-width:1.0;" width="10" x="757.5" y="414.4805"/><line style="stroke:#181818;stroke-width:0.5;stroke-dasharray:5.0,5.0;" x1="74" x2="74" y1="126.043" y2="470.0352"/><line style="stroke:#181818;stroke-width:0.5;stroke-dasharray:5.0,5.0;" x1="762.5" x2="762.5" y1="126.043" y2="470.0352"/><text fill="#000000" font-family="sans-serif" font-size="20" lengthAdjust="spacing" textLength="133" x="5" y="121.8242">Administrator</text><ellipse cx="74.5" cy="50.9883" fill="#E3E3E3" rx="8" ry="8" style="stroke:#181818;stroke-width:0.5;"/><path d="M74.5,58.9883 L74.5,85.9883 M61.5,66.9883 L87.5,66.9883 M74.5,85.9883 L61.5,100.9883 M74.5,85.9883 L87.5,100.9883 " fill="none" style="stroke:#181818;stroke-width:0.5;"/><text fill="#000000" font-family="sans-serif" font-size="20" lengthAdjust="spacing" textLength="133" x="5" y="488.3711">Administrator</text><ellipse cx="74.5" cy="501.0898" fill="#E3E3E3" rx="8" ry="8" style="stroke:#181818;stroke-width:0.5;"/><path d="M74.5,509.0898 L74.5,536.0898 M61.5,517.0898 L87.5,517.0898 M74.5,536.0898 L61.5,551.0898 M74.5,536.0898 L87.5,551.0898 " fill="none" style="stroke:#181818;stroke-width:0.5;"/><rect fill="#E3E3E3" height="37.5547" rx="2.5" ry="2.5" style="stroke:#181818;stroke-width:0.5;" width="88" x="718.5" y="87.4883"/><text fill="#000000" font-family="sans-serif" font-size="20" lengthAdjust="spacing" textLength="74" x="725.5" y="113.8242">:System</text><rect fill="#E3E3E3" height="37.5547" rx="2.5" ry="2.5" style="stroke:#181818;stroke-width:0.5;" width="88" x="718.5" y="469.0352"/><text fill="#000000" font-family="sans-serif" font-size="20" lengthAdjust="spacing" textLength="74" x="725.5" y="495.3711">:System</text><rect fill="#FFFFFF" height="324.9922" style="stroke:#181818;stroke-width:1.0;" width="10" x="69.5" y="136.043"/><rect fill="#FFFFFF" height="61.1094" style="stroke:#181818;stroke-width:1.0;" width="10" x="757.5" y="165.5977"/><rect fill="#FFFFFF" height="37.5547" style="stroke:#181818;stroke-width:1.0;" width="10" x="757.5" y="264.2617"/><rect fill="#FFFFFF" height="37.5547" style="stroke:#181818;stroke-width:1.0;" width="10" x="757.5" y="339.3711"/><rect fill="#FFFFFF" height="37.5547" style="stroke:#181818;stroke-width:1.0;" width="10" x="757.5" y="414.4805"/><polygon fill="#181818" points="745.5,161.5977,755.5,165.5977,745.5,169.5977,749.5,165.5977" style="stroke:#181818;stroke-width:1.0;"/><line style="stroke:#181818;stroke-width:1.0;" x1="79.5" x2="751.5" y1="165.5977" y2="165.5977"/><text fill="#000000" font-family="sans-serif" font-size="20" font-weight="bold" lengthAdjust="spacing" textLength="13" x="86.5" y="159.3789">1</text><text fill="#000000" font-family="sans-serif" font-size="20" lengthAdjust="spacing" textLength="293" x="103.5" y="159.3789">Starts a new employee register</text><polygon fill="#181818" points="90.5,222.707,80.5,226.707,90.5,230.707,86.5,226.707" style="stroke:#181818;stroke-width:1.0;"/><line style="stroke:#181818;stroke-width:1.0;stroke-dasharray:2.0,2.0;" x1="84.5" x2="761.5" y1="226.707" y2="226.707"/><text fill="#000000" font-family="sans-serif" font-size="20" font-weight="bold" lengthAdjust="spacing" textLength="13" x="96.5" y="208.7109">2</text><text fill="#000000" font-family="sans-serif" font-size="20" lengthAdjust="spacing" textLength="621" x="113.5" y="196.9336">Requests data (name, the citizen's card number, the tax number,</text><text fill="#000000" font-family="sans-serif" font-size="20" lengthAdjust="spacing" textLength="637" x="113.5" y="220.4883">the address, the email address and the contact telephone number)</text><polygon fill="#181818" points="745.5,260.2617,755.5,264.2617,745.5,268.2617,749.5,264.2617" style="stroke:#181818;stroke-width:1.0;"/><line style="stroke:#181818;stroke-width:1.0;" x1="79.5" x2="751.5" y1="264.2617" y2="264.2617"/><text fill="#000000" font-family="sans-serif" font-size="20" font-weight="bold" lengthAdjust="spacing" textLength="13" x="86.5" y="258.043">3</text><text fill="#000000" font-family="sans-serif" font-size="20" lengthAdjust="spacing" textLength="207" x="103.5" y="258.043">Types requested data</text><polygon fill="#181818" points="90.5,297.8164,80.5,301.8164,90.5,305.8164,86.5,301.8164" style="stroke:#181818;stroke-width:1.0;"/><line style="stroke:#181818;stroke-width:1.0;stroke-dasharray:2.0,2.0;" x1="84.5" x2="761.5" y1="301.8164" y2="301.8164"/><text fill="#000000" font-family="sans-serif" font-size="20" font-weight="bold" lengthAdjust="spacing" textLength="13" x="96.5" y="295.5977">4</text><text fill="#000000" font-family="sans-serif" font-size="20" lengthAdjust="spacing" textLength="637" x="113.5" y="295.5977">shows the agency list and ask to select one to assign the employee</text><polygon fill="#181818" points="745.5,335.3711,755.5,339.3711,745.5,343.3711,749.5,339.3711" style="stroke:#181818;stroke-width:1.0;"/><line style="stroke:#181818;stroke-width:1.0;" x1="79.5" x2="751.5" y1="339.3711" y2="339.3711"/><text fill="#000000" font-family="sans-serif" font-size="20" font-weight="bold" lengthAdjust="spacing" textLength="13" x="86.5" y="333.1523">5</text><text fill="#000000" font-family="sans-serif" font-size="20" lengthAdjust="spacing" textLength="174" x="103.5" y="333.1523">Selects the agency</text><polygon fill="#181818" points="90.5,372.9258,80.5,376.9258,90.5,380.9258,86.5,376.9258" style="stroke:#181818;stroke-width:1.0;"/><line style="stroke:#181818;stroke-width:1.0;stroke-dasharray:2.0,2.0;" x1="84.5" x2="761.5" y1="376.9258" y2="376.9258"/><text fill="#000000" font-family="sans-serif" font-size="20" font-weight="bold" lengthAdjust="spacing" textLength="13" x="96.5" y="370.707">6</text><text fill="#000000" font-family="sans-serif" font-size="20" lengthAdjust="spacing" textLength="463" x="113.5" y="370.707">Validates and presents the data to administrator</text><polygon fill="#181818" points="745.5,410.4805,755.5,414.4805,745.5,418.4805,749.5,414.4805" style="stroke:#181818;stroke-width:1.0;"/><line style="stroke:#181818;stroke-width:1.0;" x1="79.5" x2="751.5" y1="414.4805" y2="414.4805"/><text fill="#000000" font-family="sans-serif" font-size="20" font-weight="bold" lengthAdjust="spacing" textLength="13" x="86.5" y="408.2617">7</text><text fill="#000000" font-family="sans-serif" font-size="20" lengthAdjust="spacing" textLength="172" x="103.5" y="408.2617">Confirms the data</text><polygon fill="#181818" points="90.5,448.0352,80.5,452.0352,90.5,456.0352,86.5,452.0352" style="stroke:#181818;stroke-width:1.0;"/><line style="stroke:#181818;stroke-width:1.0;stroke-dasharray:2.0,2.0;" x1="84.5" x2="761.5" y1="452.0352" y2="452.0352"/><text fill="#000000" font-family="sans-serif" font-size="20" font-weight="bold" lengthAdjust="spacing" textLength="13" x="96.5" y="445.8164">8</text><text fill="#000000" font-family="sans-serif" font-size="20" lengthAdjust="spacing" textLength="251" x="113.5" y="445.8164">Informs operation success</text><!--SRC=[bP91RzmW48Nl_XMZlIIHkjAgkVbGAMfKgTUwoQcNASnwqSBWm3WRzzTtm7QoKhTLoWaOUFEz1_deUC24mKTp90kMzZXw-H9PElUBuEEkoUiH296ZEQGO22IDT5OPq1onfqucJv3827Blpm_a0zfuSjp37dscfX4dUlIXs-rkOGlTb8K2TFGq4Xk2UuTzkNRTTVStMh_pGebHtBEsFiMcmL4YZ-4d9PqRYGasTpOuTbaIwd83c07BJjCeWJZZ1cI1JJktglLvMWNSCmgj5q17dSBsquhMGYUgewB0T08AWuyJ5REzzbICUcaLMfLX6Ol8LlLcuHQ-5QzP1IqAmZLZe0yW1mBZH9Fdgmm6auNPvLmIV7bT_-2oWzOcodakKq3dror0jhEUlgM2WP2duH2P5ecRIcVf8lIVzhzF0sMrMwdBJr7ilvk-O5Z_G3pbYgHVXSq4NfEhc9YF816o4YfeGTGLvknwNepDQRy5-cxihcgUjxqCVHcxXKVqJgtIdEUWoH8lSlNX2kZvn_k_K3z7thiKtlHU3RuhrHQ-yZwM-t4WRUyYGnwDqUV_LrA_0G00]--></g></svg>