<?xml version="1.0" encoding="UTF-8" standalone="no"?><svg xmlns="http://www.w3.org/2000/svg" xmlns:xlink="http://www.w3.org/1999/xlink" contentStyleType="text/css" height="558px" preserveAspectRatio="none" style="width:851px;height:558px;background:#FFFFFF;" version="1.1" viewBox="0 0 851 558" width="851px" zoomAndPan="magnify"><defs/><g><text fill="#000000" font-family="sans-serif" font-size="14" font-weight="bold" lengthAdjust="spacing" textLength="427" x="211" y="28.5352">US003 - System Sequence Diagram (SSD) - Alternative One</text><rect fill="#FFFFFF" height="324.9922" style="stroke:#181818;stroke-width:1.0;" width="10" x="108" y="136.043"/><rect fill="#FFFFFF" height="37.5547" style="stroke:#181818;stroke-width:1.0;" width="10" x="796" y="165.5977"/><rect fill="#FFFFFF" height="61.1094" style="stroke:#181818;stroke-width:1.0;" width="10" x="796" y="240.707"/><rect fill="#FFFFFF" height="37.5547" style="stroke:#181818;stroke-width:1.0;" width="10" x="796" y="339.3711"/><rect fill="#FFFFFF" height="37.5547" style="stroke:#181818;stroke-width:1.0;" width="10" x="796" y="414.4805"/><line style="stroke:#181818;stroke-width:0.5;stroke-dasharray:5.0,5.0;" x1="113" x2="113" y1="126.043" y2="470.0352"/><line style="stroke:#181818;stroke-width:0.5;stroke-dasharray:5.0,5.0;" x1="801" x2="801" y1="126.043" y2="470.0352"/><text fill="#000000" font-family="sans-serif" font-size="20" lengthAdjust="spacing" textLength="204" x="11" y="121.8242">System administrator</text><ellipse cx="113" cy="50.9883" fill="#E3E3E3" rx="8" ry="8" style="stroke:#181818;stroke-width:0.5;"/><path d="M113,58.9883 L113,85.9883 M100,66.9883 L126,66.9883 M113,85.9883 L100,100.9883 M113,85.9883 L126,100.9883 " fill="none" style="stroke:#181818;stroke-width:0.5;"/><text fill="#000000" font-family="sans-serif" font-size="20" lengthAdjust="spacing" textLength="204" x="11" y="488.3711">System administrator</text><ellipse cx="113" cy="501.0898" fill="#E3E3E3" rx="8" ry="8" style="stroke:#181818;stroke-width:0.5;"/><path d="M113,509.0898 L113,536.0898 M100,517.0898 L126,517.0898 M113,536.0898 L100,551.0898 M113,536.0898 L126,551.0898 " fill="none" style="stroke:#181818;stroke-width:0.5;"/><rect fill="#E3E3E3" height="37.5547" rx="2.5" ry="2.5" style="stroke:#181818;stroke-width:0.5;" width="88" x="757" y="87.4883"/><text fill="#000000" font-family="sans-serif" font-size="20" lengthAdjust="spacing" textLength="74" x="764" y="113.8242">:System</text><rect fill="#E3E3E3" height="37.5547" rx="2.5" ry="2.5" style="stroke:#181818;stroke-width:0.5;" width="88" x="757" y="469.0352"/><text fill="#000000" font-family="sans-serif" font-size="20" lengthAdjust="spacing" textLength="74" x="764" y="495.3711">:System</text><rect fill="#FFFFFF" height="324.9922" style="stroke:#181818;stroke-width:1.0;" width="10" x="108" y="136.043"/><rect fill="#FFFFFF" height="37.5547" style="stroke:#181818;stroke-width:1.0;" width="10" x="796" y="165.5977"/><rect fill="#FFFFFF" height="61.1094" style="stroke:#181818;stroke-width:1.0;" width="10" x="796" y="240.707"/><rect fill="#FFFFFF" height="37.5547" style="stroke:#181818;stroke-width:1.0;" width="10" x="796" y="339.3711"/><rect fill="#FFFFFF" height="37.5547" style="stroke:#181818;stroke-width:1.0;" width="10" x="796" y="414.4805"/><polygon fill="#181818" points="784,161.5977,794,165.5977,784,169.5977,788,165.5977" style="stroke:#181818;stroke-width:1.0;"/><line style="stroke:#181818;stroke-width:1.0;" x1="118" x2="790" y1="165.5977" y2="165.5977"/><text fill="#000000" font-family="sans-serif" font-size="20" font-weight="bold" lengthAdjust="spacing" textLength="13" x="125" y="159.3789">1</text><text fill="#000000" font-family="sans-serif" font-size="20" lengthAdjust="spacing" textLength="293" x="142" y="159.3789">Starts a new employee register</text><polygon fill="#181818" points="129,199.1523,119,203.1523,129,207.1523,125,203.1523" style="stroke:#181818;stroke-width:1.0;"/><line style="stroke:#181818;stroke-width:1.0;stroke-dasharray:2.0,2.0;" x1="123" x2="800" y1="203.1523" y2="203.1523"/><text fill="#000000" font-family="sans-serif" font-size="20" font-weight="bold" lengthAdjust="spacing" textLength="13" x="135" y="196.9336">2</text><text fill="#000000" font-family="sans-serif" font-size="20" lengthAdjust="spacing" textLength="637" x="152" y="196.9336">shows the agency list and ask to select one to assign the employee</text><polygon fill="#181818" points="784,236.707,794,240.707,784,244.707,788,240.707" style="stroke:#181818;stroke-width:1.0;"/><line style="stroke:#181818;stroke-width:1.0;" x1="118" x2="790" y1="240.707" y2="240.707"/><text fill="#000000" font-family="sans-serif" font-size="20" font-weight="bold" lengthAdjust="spacing" textLength="13" x="125" y="234.4883">3</text><text fill="#000000" font-family="sans-serif" font-size="20" lengthAdjust="spacing" textLength="174" x="142" y="234.4883">Selects the agency</text><polygon fill="#181818" points="129,297.8164,119,301.8164,129,305.8164,125,301.8164" style="stroke:#181818;stroke-width:1.0;"/><line style="stroke:#181818;stroke-width:1.0;stroke-dasharray:2.0,2.0;" x1="123" x2="800" y1="301.8164" y2="301.8164"/><text fill="#000000" font-family="sans-serif" font-size="20" font-weight="bold" lengthAdjust="spacing" textLength="13" x="135" y="283.8203">4</text><text fill="#000000" font-family="sans-serif" font-size="20" lengthAdjust="spacing" textLength="621" x="152" y="272.043">Requests data (name, the citizen's card number, the tax number,</text><text fill="#000000" font-family="sans-serif" font-size="20" lengthAdjust="spacing" textLength="637" x="152" y="295.5977">the address, the email address and the contact telephone number)</text><polygon fill="#181818" points="784,335.3711,794,339.3711,784,343.3711,788,339.3711" style="stroke:#181818;stroke-width:1.0;"/><line style="stroke:#181818;stroke-width:1.0;" x1="118" x2="790" y1="339.3711" y2="339.3711"/><text fill="#000000" font-family="sans-serif" font-size="20" font-weight="bold" lengthAdjust="spacing" textLength="13" x="125" y="333.1523">5</text><text fill="#000000" font-family="sans-serif" font-size="20" lengthAdjust="spacing" textLength="207" x="142" y="333.1523">Types requested data</text><polygon fill="#181818" points="129,372.9258,119,376.9258,129,380.9258,125,376.9258" style="stroke:#181818;stroke-width:1.0;"/><line style="stroke:#181818;stroke-width:1.0;stroke-dasharray:2.0,2.0;" x1="123" x2="800" y1="376.9258" y2="376.9258"/><text fill="#000000" font-family="sans-serif" font-size="20" font-weight="bold" lengthAdjust="spacing" textLength="13" x="135" y="370.707">6</text><text fill="#000000" font-family="sans-serif" font-size="20" lengthAdjust="spacing" textLength="463" x="152" y="370.707">Validates and presents the data to administrator</text><polygon fill="#181818" points="784,410.4805,794,414.4805,784,418.4805,788,414.4805" style="stroke:#181818;stroke-width:1.0;"/><line style="stroke:#181818;stroke-width:1.0;" x1="118" x2="790" y1="414.4805" y2="414.4805"/><text fill="#000000" font-family="sans-serif" font-size="20" font-weight="bold" lengthAdjust="spacing" textLength="13" x="125" y="408.2617">7</text><text fill="#000000" font-family="sans-serif" font-size="20" lengthAdjust="spacing" textLength="172" x="142" y="408.2617">Confirms the data</text><polygon fill="#181818" points="129,448.0352,119,452.0352,129,456.0352,125,452.0352" style="stroke:#181818;stroke-width:1.0;"/><line style="stroke:#181818;stroke-width:1.0;stroke-dasharray:2.0,2.0;" x1="123" x2="800" y1="452.0352" y2="452.0352"/><text fill="#000000" font-family="sans-serif" font-size="20" font-weight="bold" lengthAdjust="spacing" textLength="13" x="135" y="445.8164">8</text><text fill="#000000" font-family="sans-serif" font-size="20" lengthAdjust="spacing" textLength="251" x="152" y="445.8164">Informs operation success</text><!--SRC=[dPF1Rjim38RlVWeYbxP00mJhBOS1mue1EmsOsvrsuIJ64I9HhaGtzPv-b1nd6JONGtMIHVBJpvzoFZZkCM7mqHp8WgKT3bu-HPRM_IHujsdod08XSZJx50E1f84k8ZsQ0tRKokW94Xb1xlnbGjwZZKV77UpGPseQSQAfZ-rcSmThQCSi5A2bfu7O4Dmxx4hPTTlUtsZyWnTAZEAU2RwmbkCWaOVmWvBkZSG4gnc2DZXsMHBgyGemJoTDeqh46TSZ2wosKtQDJziASiyeD1U0hhg5zVkPleLMbADGO3e2XTx7aKhJdTwfSk2qph2PFWTEeBKo9_WMr9vup21xlRfJ0qRm2WDag_8E814oUNKL8bFvmfnTnpL_5d36bsLfyVP_z5FHbxV_mLeaBVJojSmmAy-Y85mp1hgjRED4NnHVPJ2OB4pJcqA2B-Vlxro5M9ievzjJZ-ZyV5HTgJnzeoeEHFNt- -BCXBXftcJ3mzXJrZ5MzULFKFdBmroSvXQ-eNTQJ9FINZKJd-ojbfJvNJxHjydz67ddKlZD_R-X_IttC-zYuSIUL8wB37amHer-_KNz0W00]--></g></svg>