<?xml version="1.0" encoding="UTF-8" standalone="no"?><svg xmlns="http://www.w3.org/2000/svg" xmlns:xlink="http://www.w3.org/1999/xlink" contentStyleType="text/css" height="558px" preserveAspectRatio="none" style="width:663px;height:558px;background:#FFFFFF;" version="1.1" viewBox="0 0 663 558" width="663px" zoomAndPan="magnify"><defs/><g><text fill="#000000" font-family="sans-serif" font-size="14" font-weight="bold" lengthAdjust="spacing" textLength="295" x="185" y="28.5352">US012 - System Sequence Diagram (SSD)</text><rect fill="#FFFFFF" height="325.5469" style="stroke:#181818;stroke-width:1.0;" width="10" x="50" y="136.043"/><rect fill="#FFFFFF" height="37.5547" style="stroke:#181818;stroke-width:1.0;" width="10" x="597" y="165.5977"/><rect fill="#FFFFFF" height="219.8828" style="stroke:#181818;stroke-width:1.0;" width="10" x="597" y="240.707"/><rect fill="none" height="197.8828" style="stroke:#000000;stroke-width:1.5;" width="646" x="10" y="255.707"/><line style="stroke:#181818;stroke-width:0.5;stroke-dasharray:5.0,5.0;" x1="55" x2="55" y1="126.043" y2="470.5898"/><line style="stroke:#181818;stroke-width:0.5;stroke-dasharray:5.0,5.0;" x1="602" x2="602" y1="126.043" y2="470.5898"/><text fill="#000000" font-family="sans-serif" font-size="20" lengthAdjust="spacing" textLength="64" x="20" y="121.8242">Admin</text><ellipse cx="55" cy="50.9883" fill="#E3E3E3" rx="8" ry="8" style="stroke:#181818;stroke-width:0.5;"/><path d="M55,58.9883 L55,85.9883 M42,66.9883 L68,66.9883 M55,85.9883 L42,100.9883 M55,85.9883 L68,100.9883 " fill="none" style="stroke:#181818;stroke-width:0.5;"/><text fill="#000000" font-family="sans-serif" font-size="20" lengthAdjust="spacing" textLength="64" x="20" y="488.9258">Admin</text><ellipse cx="55" cy="501.6445" fill="#E3E3E3" rx="8" ry="8" style="stroke:#181818;stroke-width:0.5;"/><path d="M55,509.6445 L55,536.6445 M42,517.6445 L68,517.6445 M55,536.6445 L42,551.6445 M55,536.6445 L68,551.6445 " fill="none" style="stroke:#181818;stroke-width:0.5;"/><rect fill="#E3E3E3" height="37.5547" rx="2.5" ry="2.5" style="stroke:#181818;stroke-width:0.5;" width="88" x="558" y="87.4883"/><text fill="#000000" font-family="sans-serif" font-size="20" lengthAdjust="spacing" textLength="74" x="565" y="113.8242">:System</text><rect fill="#E3E3E3" height="37.5547" rx="2.5" ry="2.5" style="stroke:#181818;stroke-width:0.5;" width="88" x="558" y="469.5898"/><text fill="#000000" font-family="sans-serif" font-size="20" lengthAdjust="spacing" textLength="74" x="565" y="495.9258">:System</text><rect fill="#FFFFFF" height="325.5469" style="stroke:#181818;stroke-width:1.0;" width="10" x="50" y="136.043"/><rect fill="#FFFFFF" height="37.5547" style="stroke:#181818;stroke-width:1.0;" width="10" x="597" y="165.5977"/><rect fill="#FFFFFF" height="219.8828" style="stroke:#181818;stroke-width:1.0;" width="10" x="597" y="240.707"/><polygon fill="#181818" points="585,161.5977,595,165.5977,585,169.5977,589,165.5977" style="stroke:#181818;stroke-width:1.0;"/><line style="stroke:#181818;stroke-width:1.0;" x1="60" x2="591" y1="165.5977" y2="165.5977"/><text fill="#000000" font-family="sans-serif" font-size="20" font-weight="bold" lengthAdjust="spacing" textLength="13" x="67" y="159.3789">1</text><text fill="#000000" font-family="sans-serif" font-size="20" lengthAdjust="spacing" textLength="258" x="84" y="159.3789">asks to import a legacy file</text><polygon fill="#181818" points="71,199.1523,61,203.1523,71,207.1523,67,203.1523" style="stroke:#181818;stroke-width:1.0;"/><line style="stroke:#181818;stroke-width:1.0;stroke-dasharray:2.0,2.0;" x1="65" x2="601" y1="203.1523" y2="203.1523"/><text fill="#000000" font-family="sans-serif" font-size="20" font-weight="bold" lengthAdjust="spacing" textLength="13" x="77" y="196.9336">2</text><text fill="#000000" font-family="sans-serif" font-size="20" lengthAdjust="spacing" textLength="496" x="94" y="196.9336">shows the menu to choose a file from local machine</text><polygon fill="#181818" points="585,236.707,595,240.707,585,244.707,589,240.707" style="stroke:#181818;stroke-width:1.0;"/><line style="stroke:#181818;stroke-width:1.0;" x1="60" x2="591" y1="240.707" y2="240.707"/><text fill="#000000" font-family="sans-serif" font-size="20" font-weight="bold" lengthAdjust="spacing" textLength="13" x="67" y="234.4883">3</text><text fill="#000000" font-family="sans-serif" font-size="20" lengthAdjust="spacing" textLength="234" x="84" y="234.4883">Selects a file and submit</text><path d="M10,255.707 L82,255.707 L82,271.2617 L72,281.2617 L10,281.2617 L10,255.707 " fill="#EEEEEE" style="stroke:#000000;stroke-width:1.5;"/><rect fill="none" height="197.8828" style="stroke:#000000;stroke-width:1.5;" width="646" x="10" y="255.707"/><text fill="#000000" font-family="sans-serif" font-size="20" font-weight="bold" lengthAdjust="spacing" textLength="27" x="25" y="276.043">alt</text><text fill="#000000" font-family="sans-serif" font-size="20" font-weight="bold" lengthAdjust="spacing" textLength="296" x="97" y="277.043">[file is in the correct format]</text><polygon fill="#181818" points="71,315.3711,61,319.3711,71,323.3711,67,319.3711" style="stroke:#181818;stroke-width:1.0;"/><line style="stroke:#181818;stroke-width:1.0;stroke-dasharray:2.0,2.0;" x1="65" x2="596" y1="319.3711" y2="319.3711"/><text fill="#000000" font-family="sans-serif" font-size="20" font-weight="bold" lengthAdjust="spacing" textLength="13" x="77" y="313.1523">4</text><text fill="#000000" font-family="sans-serif" font-size="20" lengthAdjust="spacing" textLength="245" x="94" y="313.1523">shows a success message</text><line style="stroke:#000000;stroke-width:1.0;stroke-dasharray:2.0,2.0;" x1="10" x2="656" y1="328.3711" y2="328.3711"/><text fill="#000000" font-family="sans-serif" font-size="20" font-weight="bold" lengthAdjust="spacing" textLength="179" x="15" y="347.707">[file is not a CSV]</text><polygon fill="#181818" points="71,378.4805,61,382.4805,71,386.4805,67,382.4805" style="stroke:#181818;stroke-width:1.0;"/><line style="stroke:#181818;stroke-width:1.0;stroke-dasharray:2.0,2.0;" x1="65" x2="596" y1="382.4805" y2="382.4805"/><text fill="#000000" font-family="sans-serif" font-size="20" font-weight="bold" lengthAdjust="spacing" textLength="13" x="77" y="376.2617">5</text><text fill="#000000" font-family="sans-serif" font-size="20" lengthAdjust="spacing" textLength="263" x="94" y="376.2617">shows a insuccess message</text><line style="stroke:#000000;stroke-width:1.0;stroke-dasharray:2.0,2.0;" x1="10" x2="656" y1="391.4805" y2="391.4805"/><text fill="#000000" font-family="sans-serif" font-size="20" font-weight="bold" lengthAdjust="spacing" textLength="463" x="15" y="410.8164">[file is not in the correct formar or is empty]</text><polygon fill="#181818" points="71,441.5898,61,445.5898,71,449.5898,67,445.5898" style="stroke:#181818;stroke-width:1.0;"/><line style="stroke:#181818;stroke-width:1.0;stroke-dasharray:2.0,2.0;" x1="65" x2="596" y1="445.5898" y2="445.5898"/><text fill="#000000" font-family="sans-serif" font-size="20" font-weight="bold" lengthAdjust="spacing" textLength="13" x="77" y="439.3711">6</text><text fill="#000000" font-family="sans-serif" font-size="20" lengthAdjust="spacing" textLength="263" x="94" y="439.3711">shows a insuccess message</text><!--SRC=[dPBFJiCm3CRlUGfh9pXC6ZlkW8IOU848xbxgjb6Jk2GkqtXwt7P54mnfeYShzlVx_AUbywd7Z36mwwY2YceSWhnm4ki_2RORKvOIY9pOjPaZWUI1BZ8zkWuRid8A19cSO6h2PK5fiUAZJmtK60eP8rwqzDLk7hQm1digGX4ilG-K7C7UOpFAxgpTtniSXDCG3vIDGIUSOVLKHPzMW0LmZ8owY7U-noImsisuAJs7ayv_eD2vte1-KmZhnyL-fuAkW33us7CMG0ZKe3j1xNMQIR9W5kxuU9QlbJGXTpek7nNK4aHAmqXqBNDHzma5jIuHTEKO8A9hVPhf5Ltb_-xJKj0bbmM7gO8o7AANlvl487EnBw2qiJV7URmLr9mZpj9huy0o3wg9SrIAJbMAtdkIaDxpcvnutDgpVRk5vjDDl6lTPj2_GFCKUpdzpsisIvKnFtQl3ry0]--></g></svg>