<?xml version="1.0" encoding="UTF-8" standalone="no"?><svg xmlns="http://www.w3.org/2000/svg" xmlns:xlink="http://www.w3.org/1999/xlink" contentStyleType="text/css" height="1262px" preserveAspectRatio="none" style="width:2723px;height:1262px;background:#FFFFFF;" version="1.1" viewBox="0 0 2723 1262" width="2723px" zoomAndPan="magnify"><defs/><g><!--class ctrl--><g id="elem_ctrl"><rect codeLine="11" fill="#F1F1F1" height="120.6641" id="ctrl" rx="2.5" ry="2.5" style="stroke:#181818;stroke-width:0.5;" width="877" x="1031.5" y="7"/><ellipse cx="1345.5" cy="24" fill="#ADD1B2" rx="12" ry="12" style="stroke:#181818;stroke-width:1.0;"/><path d="M1348.3066,31.0801 Q1347.623,31.4316 1346.8711,31.6074 Q1346.1191,31.7832 1345.2891,31.7832 Q1342.3398,31.7832 1340.7871,29.8398 Q1339.2344,27.8965 1339.2344,24.2246 Q1339.2344,20.543 1340.7871,18.5996 Q1342.3398,16.6563 1345.2891,16.6563 Q1346.1191,16.6563 1346.8809,16.832 Q1347.6426,17.0078 1348.3066,17.3594 L1348.3066,20.5625 Q1347.5645,19.8789 1346.8662,19.5615 Q1346.168,19.2441 1345.4258,19.2441 Q1343.8438,19.2441 1343.0381,20.499 Q1342.2324,21.7539 1342.2324,24.2246 Q1342.2324,26.6855 1343.0381,27.9404 Q1343.8438,29.1953 1345.4258,29.1953 Q1346.168,29.1953 1346.8662,28.8779 Q1347.5645,28.5605 1348.3066,27.877 Z " fill="#000000"/><text fill="#000000" font-family="sans-serif" font-size="20" lengthAdjust="spacing" textLength="240" x="1367.5" y="31.5586">AnnouncementController</text><line style="stroke:#181818;stroke-width:0.5;" x1="1032.5" x2="1907.5" y1="41" y2="41"/><line style="stroke:#181818;stroke-width:0.5;" x1="1032.5" x2="1907.5" y1="49" y2="49"/><text fill="#000000" font-family="sans-serif" font-size="20" lengthAdjust="spacing" textLength="573" x="1037.5" y="72.3359">+getOrderListDTO(AnnouncementDTO announcementDTO)</text><text fill="#000000" font-family="sans-serif" font-size="20" lengthAdjust="spacing" textLength="457" x="1037.5" y="95.8906">+getListAnnouncementAvailableDTOForAgent()</text><text fill="#000000" font-family="sans-serif" font-size="20" lengthAdjust="spacing" textLength="865" x="1037.5" y="119.4453">+sendOrderResultsViaEmail(List&lt;OrderDTO&gt; orders, AnnouncementDTO announcement)</text></g><!--class Repositories--><g id="elem_Repositories"><rect codeLine="19" fill="#F1F1F1" height="120.6641" id="Repositories" rx="2.5" ry="2.5" style="stroke:#181818;stroke-width:0.5;" width="318" x="568" y="247.5"/><ellipse cx="663" cy="264.5" fill="#ADD1B2" rx="12" ry="12" style="stroke:#181818;stroke-width:1.0;"/><path d="M665.8066,271.5801 Q665.123,271.9316 664.3711,272.1074 Q663.6191,272.2832 662.7891,272.2832 Q659.8398,272.2832 658.2871,270.3398 Q656.7344,268.3965 656.7344,264.7246 Q656.7344,261.043 658.2871,259.0996 Q659.8398,257.1563 662.7891,257.1563 Q663.6191,257.1563 664.3809,257.332 Q665.1426,257.5078 665.8066,257.8594 L665.8066,261.0625 Q665.0645,260.3789 664.3662,260.0615 Q663.668,259.7441 662.9258,259.7441 Q661.3438,259.7441 660.5381,260.999 Q659.7324,262.2539 659.7324,264.7246 Q659.7324,267.1855 660.5381,268.4404 Q661.3438,269.6953 662.9258,269.6953 Q663.668,269.6953 664.3662,269.3779 Q665.0645,269.0605 665.8066,268.377 Z " fill="#000000"/><text fill="#000000" font-family="sans-serif" font-size="20" lengthAdjust="spacing" textLength="119" x="685" y="272.0586">Repositories</text><line style="stroke:#181818;stroke-width:0.5;" x1="569" x2="885" y1="281.5" y2="281.5"/><line style="stroke:#181818;stroke-width:0.5;" x1="569" x2="885" y1="289.5" y2="289.5"/><text fill="#000000" font-family="sans-serif" font-size="20" lengthAdjust="spacing" textLength="145" x="574" y="312.8359">-Repositories()</text><text fill="#000000" font-family="sans-serif" font-size="20" lengthAdjust="spacing" textLength="276" x="574" y="336.3906">+getInstance() : Repositories</text><text fill="#000000" font-family="sans-serif" font-size="20" lengthAdjust="spacing" textLength="306" x="574" y="359.9453">+getAnnouncementRepository()</text></g><!--class AnnouncementRepository--><g id="elem_AnnouncementRepository"><rect codeLine="25" fill="#F1F1F1" height="73.5547" id="AnnouncementRepository" rx="2.5" ry="2.5" style="stroke:#181818;stroke-width:0.5;" width="397" x="1651.5" y="271"/><ellipse cx="1722.5" cy="288" fill="#ADD1B2" rx="12" ry="12" style="stroke:#181818;stroke-width:1.0;"/><path d="M1725.3066,295.0801 Q1724.623,295.4316 1723.8711,295.6074 Q1723.1191,295.7832 1722.2891,295.7832 Q1719.3398,295.7832 1717.7871,293.8398 Q1716.2344,291.8965 1716.2344,288.2246 Q1716.2344,284.543 1717.7871,282.5996 Q1719.3398,280.6563 1722.2891,280.6563 Q1723.1191,280.6563 1723.8809,280.832 Q1724.6426,281.0078 1725.3066,281.3594 L1725.3066,284.5625 Q1724.5645,283.8789 1723.8662,283.5615 Q1723.168,283.2441 1722.4258,283.2441 Q1720.8438,283.2441 1720.0381,284.499 Q1719.2324,285.7539 1719.2324,288.2246 Q1719.2324,290.6855 1720.0381,291.9404 Q1720.8438,293.1953 1722.4258,293.1953 Q1723.168,293.1953 1723.8662,292.8779 Q1724.5645,292.5605 1725.3066,291.877 Z " fill="#000000"/><text fill="#000000" font-family="sans-serif" font-size="20" lengthAdjust="spacing" textLength="246" x="1744.5" y="295.5586">AnnouncementRepository</text><line style="stroke:#181818;stroke-width:0.5;" x1="1652.5" x2="2047.5" y1="305" y2="305"/><line style="stroke:#181818;stroke-width:0.5;" x1="1652.5" x2="2047.5" y1="313" y2="313"/><text fill="#000000" font-family="sans-serif" font-size="20" lengthAdjust="spacing" textLength="385" x="1657.5" y="336.3359">+getAgentAnnouncements(String email)</text></g><!--class AnnouncementAvailable--><g id="elem_AnnouncementAvailable"><rect codeLine="89" fill="#F1F1F1" height="238.4375" id="AnnouncementAvailable" rx="2.5" ry="2.5" style="stroke:#181818;stroke-width:0.5;" width="266" x="1494" y="512"/><ellipse cx="1510" cy="529" fill="#ADD1B2" rx="12" ry="12" style="stroke:#181818;stroke-width:1.0;"/><path d="M1512.8066,536.0801 Q1512.123,536.4316 1511.3711,536.6074 Q1510.6191,536.7832 1509.7891,536.7832 Q1506.8398,536.7832 1505.2871,534.8398 Q1503.7344,532.8965 1503.7344,529.2246 Q1503.7344,525.543 1505.2871,523.5996 Q1506.8398,521.6563 1509.7891,521.6563 Q1510.6191,521.6563 1511.3809,521.832 Q1512.1426,522.0078 1512.8066,522.3594 L1512.8066,525.5625 Q1512.0645,524.8789 1511.3662,524.5615 Q1510.668,524.2441 1509.9258,524.2441 Q1508.3438,524.2441 1507.5381,525.499 Q1506.7324,526.7539 1506.7324,529.2246 Q1506.7324,531.6855 1507.5381,532.9404 Q1508.3438,534.1953 1509.9258,534.1953 Q1510.668,534.1953 1511.3662,533.8779 Q1512.0645,533.5605 1512.8066,532.877 Z " fill="#000000"/><text fill="#000000" font-family="sans-serif" font-size="20" lengthAdjust="spacing" textLength="232" x="1525" y="536.5586">AnnouncementAvailable</text><line style="stroke:#181818;stroke-width:0.5;" x1="1495" x2="1759" y1="546" y2="546"/><text fill="#000000" font-family="sans-serif" font-size="20" lengthAdjust="spacing" textLength="62" x="1500" y="569.3359">-Int id</text><text fill="#000000" font-family="sans-serif" font-size="20" lengthAdjust="spacing" textLength="104" x="1500" y="592.8906">-Date date</text><text fill="#000000" font-family="sans-serif" font-size="20" lengthAdjust="spacing" textLength="184" x="1500" y="616.4453">-Double comission</text><text fill="#000000" font-family="sans-serif" font-size="20" lengthAdjust="spacing" textLength="135" x="1500" y="640">-Double price</text><text fill="#000000" font-family="sans-serif" font-size="20" lengthAdjust="spacing" textLength="178" x="1500" y="663.5547">-Property Property</text><text fill="#000000" font-family="sans-serif" font-size="20" lengthAdjust="spacing" textLength="127" x="1500" y="687.1094">-Agent agent</text><text fill="#000000" font-family="sans-serif" font-size="20" lengthAdjust="spacing" textLength="196" x="1500" y="710.6641">-List&lt;Order&gt; Order</text><line style="stroke:#181818;stroke-width:0.5;" x1="1495" x2="1759" y1="718.8828" y2="718.8828"/><text fill="#000000" font-family="sans-serif" font-size="20" lengthAdjust="spacing" textLength="150" x="1500" y="742.2188">+getOrderList()</text></g><!--class order--><g id="elem_order"><rect codeLine="105" fill="#F1F1F1" height="120.6641" id="order" rx="2.5" ry="2.5" style="stroke:#181818;stroke-width:0.5;" width="174" x="1718" y="893.5"/><ellipse cx="1774.5" cy="910.5" fill="#ADD1B2" rx="12" ry="12" style="stroke:#181818;stroke-width:1.0;"/><path d="M1777.3066,917.5801 Q1776.623,917.9316 1775.8711,918.1074 Q1775.1191,918.2832 1774.2891,918.2832 Q1771.3398,918.2832 1769.7871,916.3398 Q1768.2344,914.3965 1768.2344,910.7246 Q1768.2344,907.043 1769.7871,905.0996 Q1771.3398,903.1563 1774.2891,903.1563 Q1775.1191,903.1563 1775.8809,903.332 Q1776.6426,903.5078 1777.3066,903.8594 L1777.3066,907.0625 Q1776.5645,906.3789 1775.8662,906.0615 Q1775.168,905.7441 1774.4258,905.7441 Q1772.8438,905.7441 1772.0381,906.999 Q1771.2324,908.2539 1771.2324,910.7246 Q1771.2324,913.1855 1772.0381,914.4404 Q1772.8438,915.6953 1774.4258,915.6953 Q1775.168,915.6953 1775.8662,915.3779 Q1776.5645,915.0605 1777.3066,914.377 Z " fill="#000000"/><text fill="#000000" font-family="sans-serif" font-size="20" lengthAdjust="spacing" textLength="52" x="1796.5" y="918.0586">order</text><line style="stroke:#181818;stroke-width:0.5;" x1="1719" x2="1891" y1="927.5" y2="927.5"/><text fill="#000000" font-family="sans-serif" font-size="20" lengthAdjust="spacing" textLength="117" x="1724" y="950.8359">-clientEmail</text><text fill="#000000" font-family="sans-serif" font-size="20" lengthAdjust="spacing" textLength="62" x="1724" y="974.3906">-value</text><line style="stroke:#181818;stroke-width:0.5;" x1="1719" x2="1891" y1="982.6094" y2="982.6094"/><text fill="#000000" font-family="sans-serif" font-size="20" lengthAdjust="spacing" textLength="162" x="1724" y="1005.9453">+order.setstate()</text></g><!--class OrderDTO--><g id="elem_OrderDTO"><rect codeLine="121" fill="#F1F1F1" height="191.3281" id="OrderDTO" rx="2.5" ry="2.5" style="stroke:#181818;stroke-width:0.5;" width="218" x="2151" y="535.5"/><ellipse cx="2205.5" cy="552.5" fill="#ADD1B2" rx="12" ry="12" style="stroke:#181818;stroke-width:1.0;"/><path d="M2208.3066,559.5801 Q2207.623,559.9316 2206.8711,560.1074 Q2206.1191,560.2832 2205.2891,560.2832 Q2202.3398,560.2832 2200.7871,558.3398 Q2199.2344,556.3965 2199.2344,552.7246 Q2199.2344,549.043 2200.7871,547.0996 Q2202.3398,545.1563 2205.2891,545.1563 Q2206.1191,545.1563 2206.8809,545.332 Q2207.6426,545.5078 2208.3066,545.8594 L2208.3066,549.0625 Q2207.5645,548.3789 2206.8662,548.0615 Q2206.168,547.7441 2205.4258,547.7441 Q2203.8438,547.7441 2203.0381,548.999 Q2202.2324,550.2539 2202.2324,552.7246 Q2202.2324,555.1855 2203.0381,556.4404 Q2203.8438,557.6953 2205.4258,557.6953 Q2206.168,557.6953 2206.8662,557.3779 Q2207.5645,557.0605 2208.3066,556.377 Z " fill="#000000"/><text fill="#000000" font-family="sans-serif" font-size="20" lengthAdjust="spacing" textLength="100" x="2227.5" y="560.0586">OrderDTO</text><line style="stroke:#181818;stroke-width:0.5;" x1="2152" x2="2368" y1="569.5" y2="569.5"/><text fill="#000000" font-family="sans-serif" font-size="20" lengthAdjust="spacing" textLength="50" x="2157" y="592.8359">int id</text><text fill="#000000" font-family="sans-serif" font-size="20" lengthAdjust="spacing" textLength="173" x="2157" y="616.3906">String clientEmail;</text><text fill="#000000" font-family="sans-serif" font-size="20" lengthAdjust="spacing" textLength="129" x="2157" y="639.9453">double value;</text><text fill="#000000" font-family="sans-serif" font-size="20" lengthAdjust="spacing" textLength="98" x="2157" y="663.5">Date date;</text><text fill="#000000" font-family="sans-serif" font-size="20" lengthAdjust="spacing" textLength="83" x="2157" y="687.0547">int state;</text><line style="stroke:#181818;stroke-width:0.5;" x1="2152" x2="2368" y1="695.2734" y2="695.2734"/><text fill="#000000" font-family="sans-serif" font-size="20" lengthAdjust="spacing" textLength="206" x="2157" y="718.6094">+orderDTO.setstate()</text></g><!--class appSession--><g id="elem_appSession"><rect codeLine="41" fill="#F1F1F1" height="97.1094" id="appSession" rx="2.5" ry="2.5" style="stroke:#181818;stroke-width:0.5;" width="216" x="1030" y="259.5"/><ellipse cx="1046" cy="276.5" fill="#ADD1B2" rx="12" ry="12" style="stroke:#181818;stroke-width:1.0;"/><path d="M1048.8066,283.5801 Q1048.123,283.9316 1047.3711,284.1074 Q1046.6191,284.2832 1045.7891,284.2832 Q1042.8398,284.2832 1041.2871,282.3398 Q1039.7344,280.3965 1039.7344,276.7246 Q1039.7344,273.043 1041.2871,271.0996 Q1042.8398,269.1563 1045.7891,269.1563 Q1046.6191,269.1563 1047.3809,269.332 Q1048.1426,269.5078 1048.8066,269.8594 L1048.8066,273.0625 Q1048.0645,272.3789 1047.3662,272.0615 Q1046.668,271.7441 1045.9258,271.7441 Q1044.3438,271.7441 1043.5381,272.999 Q1042.7324,274.2539 1042.7324,276.7246 Q1042.7324,279.1855 1043.5381,280.4404 Q1044.3438,281.6953 1045.9258,281.6953 Q1046.668,281.6953 1047.3662,281.3779 Q1048.0645,281.0605 1048.8066,280.377 Z " fill="#000000"/><text fill="#000000" font-family="sans-serif" font-size="20" lengthAdjust="spacing" textLength="182" x="1061" y="284.0586">ApplicationSession</text><line style="stroke:#181818;stroke-width:0.5;" x1="1031" x2="1245" y1="293.5" y2="293.5"/><line style="stroke:#181818;stroke-width:0.5;" x1="1031" x2="1245" y1="301.5" y2="301.5"/><text fill="#000000" font-family="sans-serif" font-size="20" lengthAdjust="spacing" textLength="139" x="1036" y="324.8359">+getInstance()</text><text fill="#000000" font-family="sans-serif" font-size="20" lengthAdjust="spacing" textLength="204" x="1036" y="348.3906">+getCurrentSession()</text></g><!--class Agent--><g id="elem_Agent"><rect codeLine="49" fill="#F1F1F1" height="238.4375" id="Agent" rx="2.5" ry="2.5" style="stroke:#181818;stroke-width:0.5;" width="214" x="1934" y="835"/><ellipse cx="2008.5" cy="852" fill="#ADD1B2" rx="12" ry="12" style="stroke:#181818;stroke-width:1.0;"/><path d="M2011.3066,859.0801 Q2010.623,859.4316 2009.8711,859.6074 Q2009.1191,859.7832 2008.2891,859.7832 Q2005.3398,859.7832 2003.7871,857.8398 Q2002.2344,855.8965 2002.2344,852.2246 Q2002.2344,848.543 2003.7871,846.5996 Q2005.3398,844.6563 2008.2891,844.6563 Q2009.1191,844.6563 2009.8809,844.832 Q2010.6426,845.0078 2011.3066,845.3594 L2011.3066,848.5625 Q2010.5645,847.8789 2009.8662,847.5615 Q2009.168,847.2441 2008.4258,847.2441 Q2006.8438,847.2441 2006.0381,848.499 Q2005.2324,849.7539 2005.2324,852.2246 Q2005.2324,854.6855 2006.0381,855.9404 Q2006.8438,857.1953 2008.4258,857.1953 Q2009.168,857.1953 2009.8662,856.8779 Q2010.5645,856.5605 2011.3066,855.877 Z " fill="#000000"/><text fill="#000000" font-family="sans-serif" font-size="20" lengthAdjust="spacing" textLength="56" x="2030.5" y="859.5586">Agent</text><line style="stroke:#181818;stroke-width:0.5;" x1="1935" x2="2147" y1="869" y2="869"/><text fill="#000000" font-family="sans-serif" font-size="20" lengthAdjust="spacing" textLength="66" x="1940" y="892.3359">+int id</text><text fill="#000000" font-family="sans-serif" font-size="20" lengthAdjust="spacing" textLength="131" x="1940" y="915.8906">+String name</text><text fill="#000000" font-family="sans-serif" font-size="20" lengthAdjust="spacing" textLength="202" x="1940" y="939.4453">+long phoneNumber</text><text fill="#000000" font-family="sans-serif" font-size="20" lengthAdjust="spacing" textLength="155" x="1940" y="963">+int taxNumber</text><text fill="#000000" font-family="sans-serif" font-size="20" lengthAdjust="spacing" textLength="170" x="1940" y="986.5547">+String password</text><text fill="#000000" font-family="sans-serif" font-size="20" lengthAdjust="spacing" textLength="163" x="1940" y="1010.1094">+int civilNumber</text><text fill="#000000" font-family="sans-serif" font-size="20" lengthAdjust="spacing" textLength="154" x="1940" y="1033.6641">+String address</text><text fill="#000000" font-family="sans-serif" font-size="20" lengthAdjust="spacing" textLength="120" x="1940" y="1057.2188">+String mail</text><line style="stroke:#181818;stroke-width:0.5;" x1="1935" x2="2147" y1="1065.4375" y2="1065.4375"/></g><!--class AgentDTO--><g id="elem_AgentDTO"><rect codeLine="61" fill="#F1F1F1" height="238.4375" id="AgentDTO" rx="2.5" ry="2.5" style="stroke:#181818;stroke-width:0.5;" width="214" x="2304" y="189"/><ellipse cx="2356.5" cy="206" fill="#ADD1B2" rx="12" ry="12" style="stroke:#181818;stroke-width:1.0;"/><path d="M2359.3066,213.0801 Q2358.623,213.4316 2357.8711,213.6074 Q2357.1191,213.7832 2356.2891,213.7832 Q2353.3398,213.7832 2351.7871,211.8398 Q2350.2344,209.8965 2350.2344,206.2246 Q2350.2344,202.543 2351.7871,200.5996 Q2353.3398,198.6563 2356.2891,198.6563 Q2357.1191,198.6563 2357.8809,198.832 Q2358.6426,199.0078 2359.3066,199.3594 L2359.3066,202.5625 Q2358.5645,201.8789 2357.8662,201.5615 Q2357.168,201.2441 2356.4258,201.2441 Q2354.8438,201.2441 2354.0381,202.499 Q2353.2324,203.7539 2353.2324,206.2246 Q2353.2324,208.6855 2354.0381,209.9404 Q2354.8438,211.1953 2356.4258,211.1953 Q2357.168,211.1953 2357.8662,210.8779 Q2358.5645,210.5605 2359.3066,209.877 Z " fill="#000000"/><text fill="#000000" font-family="sans-serif" font-size="20" lengthAdjust="spacing" textLength="100" x="2378.5" y="213.5586">AgentDTO</text><line style="stroke:#181818;stroke-width:0.5;" x1="2305" x2="2517" y1="223" y2="223"/><text fill="#000000" font-family="sans-serif" font-size="20" lengthAdjust="spacing" textLength="66" x="2310" y="246.3359">+int id</text><text fill="#000000" font-family="sans-serif" font-size="20" lengthAdjust="spacing" textLength="131" x="2310" y="269.8906">+String name</text><text fill="#000000" font-family="sans-serif" font-size="20" lengthAdjust="spacing" textLength="202" x="2310" y="293.4453">+long phoneNumber</text><text fill="#000000" font-family="sans-serif" font-size="20" lengthAdjust="spacing" textLength="155" x="2310" y="317">+int taxNumber</text><text fill="#000000" font-family="sans-serif" font-size="20" lengthAdjust="spacing" textLength="170" x="2310" y="340.5547">+String password</text><text fill="#000000" font-family="sans-serif" font-size="20" lengthAdjust="spacing" textLength="163" x="2310" y="364.1094">+int civilNumber</text><text fill="#000000" font-family="sans-serif" font-size="20" lengthAdjust="spacing" textLength="154" x="2310" y="387.6641">+String address</text><text fill="#000000" font-family="sans-serif" font-size="20" lengthAdjust="spacing" textLength="120" x="2310" y="411.2188">+String mail</text><line style="stroke:#181818;stroke-width:0.5;" x1="2305" x2="2517" y1="419.4375" y2="419.4375"/></g><!--class AgentMapper--><g id="elem_AgentMapper"><rect codeLine="72" fill="#F1F1F1" height="73.5547" id="AgentMapper" rx="2.5" ry="2.5" style="stroke:#181818;stroke-width:0.5;" width="163" x="2553.5" y="271"/><ellipse cx="2569.5" cy="288" fill="#ADD1B2" rx="12" ry="12" style="stroke:#181818;stroke-width:1.0;"/><path d="M2572.3066,295.0801 Q2571.623,295.4316 2570.8711,295.6074 Q2570.1191,295.7832 2569.2891,295.7832 Q2566.3398,295.7832 2564.7871,293.8398 Q2563.2344,291.8965 2563.2344,288.2246 Q2563.2344,284.543 2564.7871,282.5996 Q2566.3398,280.6563 2569.2891,280.6563 Q2570.1191,280.6563 2570.8809,280.832 Q2571.6426,281.0078 2572.3066,281.3594 L2572.3066,284.5625 Q2571.5645,283.8789 2570.8662,283.5615 Q2570.168,283.2441 2569.4258,283.2441 Q2567.8438,283.2441 2567.0381,284.499 Q2566.2324,285.7539 2566.2324,288.2246 Q2566.2324,290.6855 2567.0381,291.9404 Q2567.8438,293.1953 2569.4258,293.1953 Q2570.168,293.1953 2570.8662,292.8779 Q2571.5645,292.5605 2572.3066,291.877 Z " fill="#000000"/><text fill="#000000" font-family="sans-serif" font-size="20" lengthAdjust="spacing" textLength="129" x="2584.5" y="295.5586">AgentMapper</text><line style="stroke:#181818;stroke-width:0.5;" x1="2554.5" x2="2715.5" y1="305" y2="305"/><line style="stroke:#181818;stroke-width:0.5;" x1="2554.5" x2="2715.5" y1="313" y2="313"/><text fill="#000000" font-family="sans-serif" font-size="20" lengthAdjust="spacing" textLength="149" x="2559.5" y="336.3359">+toDTO(Agent)</text></g><!--class userSession--><g id="elem_userSession"><rect codeLine="77" fill="#F1F1F1" height="73.5547" id="userSession" rx="2.5" ry="2.5" style="stroke:#181818;stroke-width:0.5;" width="149" x="1395.5" y="271"/><ellipse cx="1411.5" cy="288" fill="#ADD1B2" rx="12" ry="12" style="stroke:#181818;stroke-width:1.0;"/><path d="M1414.3066,295.0801 Q1413.623,295.4316 1412.8711,295.6074 Q1412.1191,295.7832 1411.2891,295.7832 Q1408.3398,295.7832 1406.7871,293.8398 Q1405.2344,291.8965 1405.2344,288.2246 Q1405.2344,284.543 1406.7871,282.5996 Q1408.3398,280.6563 1411.2891,280.6563 Q1412.1191,280.6563 1412.8809,280.832 Q1413.6426,281.0078 1414.3066,281.3594 L1414.3066,284.5625 Q1413.5645,283.8789 1412.8662,283.5615 Q1412.168,283.2441 1411.4258,283.2441 Q1409.8438,283.2441 1409.0381,284.499 Q1408.2324,285.7539 1408.2324,288.2246 Q1408.2324,290.6855 1409.0381,291.9404 Q1409.8438,293.1953 1411.4258,293.1953 Q1412.168,293.1953 1412.8662,292.8779 Q1413.5645,292.5605 1414.3066,291.877 Z " fill="#000000"/><text fill="#000000" font-family="sans-serif" font-size="20" lengthAdjust="spacing" textLength="115" x="1426.5" y="295.5586">UserSession</text><line style="stroke:#181818;stroke-width:0.5;" x1="1396.5" x2="1543.5" y1="305" y2="305"/><line style="stroke:#181818;stroke-width:0.5;" x1="1396.5" x2="1543.5" y1="313" y2="313"/><text fill="#000000" font-family="sans-serif" font-size="20" lengthAdjust="spacing" textLength="113" x="1401.5" y="336.3359">+getEmail()</text></g><!--class processOrders--><g id="elem_processOrders"><rect codeLine="82" fill="#F1F1F1" height="97.1094" id="processOrders" rx="2.5" ry="2.5" style="stroke:#181818;stroke-width:0.5;" width="174" x="1904" y="1158"/><ellipse cx="1920" cy="1175" fill="#ADD1B2" rx="12" ry="12" style="stroke:#181818;stroke-width:1.0;"/><path d="M1922.8066,1182.0801 Q1922.123,1182.4316 1921.3711,1182.6074 Q1920.6191,1182.7832 1919.7891,1182.7832 Q1916.8398,1182.7832 1915.2871,1180.8398 Q1913.7344,1178.8965 1913.7344,1175.2246 Q1913.7344,1171.543 1915.2871,1169.5996 Q1916.8398,1167.6563 1919.7891,1167.6563 Q1920.6191,1167.6563 1921.3809,1167.832 Q1922.1426,1168.0078 1922.8066,1168.3594 L1922.8066,1171.5625 Q1922.0645,1170.8789 1921.3662,1170.5615 Q1920.668,1170.2441 1919.9258,1170.2441 Q1918.3438,1170.2441 1917.5381,1171.499 Q1916.7324,1172.7539 1916.7324,1175.2246 Q1916.7324,1177.6855 1917.5381,1178.9404 Q1918.3438,1180.1953 1919.9258,1180.1953 Q1920.668,1180.1953 1921.3662,1179.8779 Q1922.0645,1179.5605 1922.8066,1178.877 Z " fill="#000000"/><text fill="#000000" font-family="sans-serif" font-size="20" lengthAdjust="spacing" textLength="140" x="1935" y="1182.5586">processOrders</text><line style="stroke:#181818;stroke-width:0.5;" x1="1905" x2="2077" y1="1192" y2="1192"/><line style="stroke:#181818;stroke-width:0.5;" x1="1905" x2="2077" y1="1200" y2="1200"/><text fill="#000000" font-family="sans-serif" font-size="20" lengthAdjust="spacing" textLength="148" x="1910" y="1223.3359">+acceptOrder()</text><text fill="#000000" font-family="sans-serif" font-size="20" lengthAdjust="spacing" textLength="155" x="1910" y="1246.8906">+declineOrder()</text></g><!--class ListAcceptOrDeclineOffersUI--><g id="elem_ListAcceptOrDeclineOffersUI"><rect codeLine="100" fill="#F1F1F1" height="50" id="ListAcceptOrDeclineOffersUI" rx="2.5" ry="2.5" style="stroke:#181818;stroke-width:0.5;" width="307" x="291.5" y="42.5"/><ellipse cx="307.5" cy="59.5" fill="#ADD1B2" rx="12" ry="12" style="stroke:#181818;stroke-width:1.0;"/><path d="M310.3066,66.5801 Q309.623,66.9316 308.8711,67.1074 Q308.1191,67.2832 307.2891,67.2832 Q304.3398,67.2832 302.7871,65.3398 Q301.2344,63.3965 301.2344,59.7246 Q301.2344,56.043 302.7871,54.0996 Q304.3398,52.1563 307.2891,52.1563 Q308.1191,52.1563 308.8809,52.332 Q309.6426,52.5078 310.3066,52.8594 L310.3066,56.0625 Q309.5645,55.3789 308.8662,55.0615 Q308.168,54.7441 307.4258,54.7441 Q305.8438,54.7441 305.0381,55.999 Q304.2324,57.2539 304.2324,59.7246 Q304.2324,62.1855 305.0381,63.4404 Q305.8438,64.6953 307.4258,64.6953 Q308.168,64.6953 308.8662,64.3779 Q309.5645,64.0605 310.3066,63.377 Z " fill="#000000"/><text fill="#000000" font-family="sans-serif" font-size="20" lengthAdjust="spacing" textLength="273" x="322.5" y="67.0586">ListAcceptOrDeclineOffersUI</text><line style="stroke:#181818;stroke-width:0.5;" x1="292.5" x2="597.5" y1="76.5" y2="76.5"/><line style="stroke:#181818;stroke-width:0.5;" x1="292.5" x2="597.5" y1="84.5" y2="84.5"/></g><!--class AnnouncementDTO--><g id="elem_AnnouncementDTO"><rect codeLine="111" fill="#F1F1F1" height="214.8828" id="AnnouncementDTO" rx="2.5" ry="2.5" style="stroke:#181818;stroke-width:0.5;" width="222" x="7" y="523.5"/><ellipse cx="23" cy="540.5" fill="#ADD1B2" rx="12" ry="12" style="stroke:#181818;stroke-width:1.0;"/><path d="M25.8066,547.5801 Q25.123,547.9316 24.3711,548.1074 Q23.6191,548.2832 22.7891,548.2832 Q19.8398,548.2832 18.2871,546.3398 Q16.7344,544.3965 16.7344,540.7246 Q16.7344,537.043 18.2871,535.0996 Q19.8398,533.1563 22.7891,533.1563 Q23.6191,533.1563 24.3809,533.332 Q25.1426,533.5078 25.8066,533.8594 L25.8066,537.0625 Q25.0645,536.3789 24.3662,536.0615 Q23.668,535.7441 22.9258,535.7441 Q21.3438,535.7441 20.5381,536.999 Q19.7324,538.2539 19.7324,540.7246 Q19.7324,543.1855 20.5381,544.4404 Q21.3438,545.6953 22.9258,545.6953 Q23.668,545.6953 24.3662,545.3779 Q25.0645,545.0605 25.8066,544.377 Z " fill="#000000"/><text fill="#000000" font-family="sans-serif" font-size="20" lengthAdjust="spacing" textLength="188" x="38" y="548.0586">AnnouncementDTO</text><line style="stroke:#181818;stroke-width:0.5;" x1="8" x2="228" y1="557.5" y2="557.5"/><text fill="#000000" font-family="sans-serif" font-size="20" lengthAdjust="spacing" textLength="62" x="13" y="580.8359">-Int id</text><text fill="#000000" font-family="sans-serif" font-size="20" lengthAdjust="spacing" textLength="104" x="13" y="604.3906">-Date date</text><text fill="#000000" font-family="sans-serif" font-size="20" lengthAdjust="spacing" textLength="184" x="13" y="627.9453">-Double comission</text><text fill="#000000" font-family="sans-serif" font-size="20" lengthAdjust="spacing" textLength="135" x="13" y="651.5">-Double price</text><text fill="#000000" font-family="sans-serif" font-size="20" lengthAdjust="spacing" textLength="178" x="13" y="675.0547">-Property Property</text><text fill="#000000" font-family="sans-serif" font-size="20" lengthAdjust="spacing" textLength="127" x="13" y="698.6094">-Agent agent</text><text fill="#000000" font-family="sans-serif" font-size="20" lengthAdjust="spacing" textLength="196" x="13" y="722.1641">-List&lt;Order&gt; Order</text><line style="stroke:#181818;stroke-width:0.5;" x1="8" x2="228" y1="730.3828" y2="730.3828"/></g><!--class AnnouncementMapper--><g id="elem_AnnouncementMapper"><rect codeLine="129" fill="#F1F1F1" height="97.1094" id="AnnouncementMapper" rx="2.5" ry="2.5" style="stroke:#181818;stroke-width:0.5;" width="361" x="171.5" y="259.5"/><ellipse cx="239" cy="276.5" fill="#ADD1B2" rx="12" ry="12" style="stroke:#181818;stroke-width:1.0;"/><path d="M241.8066,283.5801 Q241.123,283.9316 240.3711,284.1074 Q239.6191,284.2832 238.7891,284.2832 Q235.8398,284.2832 234.2871,282.3398 Q232.7344,280.3965 232.7344,276.7246 Q232.7344,273.043 234.2871,271.0996 Q235.8398,269.1563 238.7891,269.1563 Q239.6191,269.1563 240.3809,269.332 Q241.1426,269.5078 241.8066,269.8594 L241.8066,273.0625 Q241.0645,272.3789 240.3662,272.0615 Q239.668,271.7441 238.9258,271.7441 Q237.3438,271.7441 236.5381,272.999 Q235.7324,274.2539 235.7324,276.7246 Q235.7324,279.1855 236.5381,280.4404 Q237.3438,281.6953 238.9258,281.6953 Q239.668,281.6953 240.3662,281.3779 Q241.0645,281.0605 241.8066,280.377 Z " fill="#000000"/><text fill="#000000" font-family="sans-serif" font-size="20" lengthAdjust="spacing" textLength="217" x="261" y="284.0586">AnnouncementMapper</text><line style="stroke:#181818;stroke-width:0.5;" x1="172.5" x2="531.5" y1="293.5" y2="293.5"/><line style="stroke:#181818;stroke-width:0.5;" x1="172.5" x2="531.5" y1="301.5" y2="301.5"/><text fill="#000000" font-family="sans-serif" font-size="20" lengthAdjust="spacing" textLength="349" x="177.5" y="324.8359">+toDto(ListAnnouncementAvailable)</text><text fill="#000000" font-family="sans-serif" font-size="20" lengthAdjust="spacing" textLength="315" x="177.5" y="348.3906">+toDto(AnnouncementAvailable)</text></g><!--class OrderMapper--><g id="elem_OrderMapper"><rect codeLine="134" fill="#F1F1F1" height="97.1094" id="OrderMapper" rx="2.5" ry="2.5" style="stroke:#181818;stroke-width:0.5;" width="185" x="2083.5" y="259.5"/><ellipse cx="2109.4" cy="276.5" fill="#ADD1B2" rx="12" ry="12" style="stroke:#181818;stroke-width:1.0;"/><path d="M2112.2066,283.5801 Q2111.523,283.9316 2110.7711,284.1074 Q2110.0191,284.2832 2109.1891,284.2832 Q2106.2398,284.2832 2104.6871,282.3398 Q2103.1344,280.3965 2103.1344,276.7246 Q2103.1344,273.043 2104.6871,271.0996 Q2106.2398,269.1563 2109.1891,269.1563 Q2110.0191,269.1563 2110.7809,269.332 Q2111.5426,269.5078 2112.2066,269.8594 L2112.2066,273.0625 Q2111.4645,272.3789 2110.7662,272.0615 Q2110.068,271.7441 2109.3258,271.7441 Q2107.7438,271.7441 2106.9381,272.999 Q2106.1324,274.2539 2106.1324,276.7246 Q2106.1324,279.1855 2106.9381,280.4404 Q2107.7438,281.6953 2109.3258,281.6953 Q2110.068,281.6953 2110.7662,281.3779 Q2111.4645,281.0605 2112.2066,280.377 Z " fill="#000000"/><text fill="#000000" font-family="sans-serif" font-size="20" lengthAdjust="spacing" textLength="129" x="2126.6" y="284.0586">OrderMapper</text><line style="stroke:#181818;stroke-width:0.5;" x1="2084.5" x2="2267.5" y1="293.5" y2="293.5"/><line style="stroke:#181818;stroke-width:0.5;" x1="2084.5" x2="2267.5" y1="301.5" y2="301.5"/><text fill="#000000" font-family="sans-serif" font-size="20" lengthAdjust="spacing" textLength="173" x="2089.5" y="324.8359">+toDto(OrderList)</text><text fill="#000000" font-family="sans-serif" font-size="20" lengthAdjust="spacing" textLength="139" x="2089.5" y="348.3906">+toDto(Order)</text></g><!--class UserSession--><g id="elem_UserSession"><rect fill="#F1F1F1" height="50" id="UserSession" rx="2.5" ry="2.5" style="stroke:#181818;stroke-width:0.5;" width="149" x="1966.5" y="606"/><ellipse cx="1982.5" cy="623" fill="#ADD1B2" rx="12" ry="12" style="stroke:#181818;stroke-width:1.0;"/><path d="M1985.3066,630.0801 Q1984.623,630.4316 1983.8711,630.6074 Q1983.1191,630.7832 1982.2891,630.7832 Q1979.3398,630.7832 1977.7871,628.8398 Q1976.2344,626.8965 1976.2344,623.2246 Q1976.2344,619.543 1977.7871,617.5996 Q1979.3398,615.6563 1982.2891,615.6563 Q1983.1191,615.6563 1983.8809,615.832 Q1984.6426,616.0078 1985.3066,616.3594 L1985.3066,619.5625 Q1984.5645,618.8789 1983.8662,618.5615 Q1983.168,618.2441 1982.4258,618.2441 Q1980.8438,618.2441 1980.0381,619.499 Q1979.2324,620.7539 1979.2324,623.2246 Q1979.2324,625.6855 1980.0381,626.9404 Q1980.8438,628.1953 1982.4258,628.1953 Q1983.168,628.1953 1983.8662,627.8779 Q1984.5645,627.5605 1985.3066,626.877 Z " fill="#000000"/><text fill="#000000" font-family="sans-serif" font-size="20" lengthAdjust="spacing" textLength="115" x="1997.5" y="630.5586">UserSession</text><line style="stroke:#181818;stroke-width:0.5;" x1="1967.5" x2="2114.5" y1="640" y2="640"/><line style="stroke:#181818;stroke-width:0.5;" x1="1967.5" x2="2114.5" y1="648" y2="648"/></g><!--link ListAcceptOrDeclineOffersUI to ctrl--><g id="link_ListAcceptOrDeclineOffersUI_ctrl"><path codeLine="139" d="M598.84,67.5 C689.53,67.5 786.67,67.5 786.67,67.5 C786.67,67.5 925.6,67.5 1026.27,67.5 " fill="none" id="ListAcceptOrDeclineOffersUI-to-ctrl" style="stroke:#181818;stroke-width:1.0;stroke-dasharray:7.0,7.0;"/><polygon fill="#181818" points="1031.34,67.5,1022.34,63.5,1026.34,67.5,1022.34,71.5,1031.34,67.5" style="stroke:#181818;stroke-width:1.0;"/></g><!--link ctrl to AnnouncementRepository--><g id="link_ctrl_AnnouncementRepository"><path codeLine="141" d="M1572.72,128.2 C1600.97,144.62 1624,158 1624,158 C1624,158 1723.97,223.91 1790.93,268.06 " fill="none" id="ctrl-to-AnnouncementRepository" style="stroke:#181818;stroke-width:1.0;stroke-dasharray:7.0,7.0;"/><polygon fill="#181818" points="1795.29,270.93,1789.9874,262.6304,1791.1188,268.173,1785.5762,269.3044,1795.29,270.93" style="stroke:#181818;stroke-width:1.0;"/></g><!--link ctrl to Repositories--><g id="link_ctrl_Repositories"><path codeLine="142" d="M1243.68,128.04 C1128.3,158.4 1012,189 1012,189 C1012,189 944.84,216.8 875.73,245.42 " fill="none" id="ctrl-to-Repositories" style="stroke:#181818;stroke-width:1.0;stroke-dasharray:7.0,7.0;"/><polygon fill="#181818" points="870.75,247.48,880.5955,247.7367,875.3704,245.5691,877.538,240.344,870.75,247.48" style="stroke:#181818;stroke-width:1.0;"/></g><!--link ctrl to appSession--><g id="link_ctrl_appSession"><path codeLine="143" d="M1387.08,128.07 C1332.16,167.52 1260.89,218.72 1208.66,256.24 " fill="none" id="ctrl-to-appSession" style="stroke:#181818;stroke-width:1.0;stroke-dasharray:7.0,7.0;"/><polygon fill="#181818" points="1204.3,259.37,1213.9386,257.3458,1208.3541,256.4436,1209.2563,250.8591,1204.3,259.37" style="stroke:#181818;stroke-width:1.0;"/></g><!--link ctrl to AnnouncementAvailable--><g id="link_ctrl_AnnouncementAvailable"><path codeLine="144" d="M1515.46,128.04 C1538.64,158.4 1562,189 1562,189 C1562,189 1589.61,376.34 1608.84,506.82 " fill="none" id="ctrl-to-AnnouncementAvailable" style="stroke:#181818;stroke-width:1.0;stroke-dasharray:7.0,7.0;"/><polygon fill="#181818" points="1609.58,511.82,1612.2248,502.3329,1608.8509,506.8734,1604.3103,503.4995,1609.58,511.82" style="stroke:#181818;stroke-width:1.0;"/></g><!--link ctrl to userSession--><g id="link_ctrl_userSession"><path codeLine="145" d="M1470,128.07 C1470,170.81 1470,227.33 1470,265.31 " fill="none" id="ctrl-to-userSession" style="stroke:#181818;stroke-width:1.0;stroke-dasharray:7.0,7.0;"/><polygon fill="#181818" points="1470,270.77,1474,261.77,1470,265.77,1466,261.77,1470,270.77" style="stroke:#181818;stroke-width:1.0;"/></g><!--link ctrl to AnnouncementMapper--><g id="link_ctrl_AnnouncementMapper"><path codeLine="146" d="M1031.22,125.97 C794.37,156.99 550,189 550,189 C550,189 490.32,224.57 436.49,256.65 " fill="none" id="ctrl-to-AnnouncementMapper" style="stroke:#181818;stroke-width:1.0;stroke-dasharray:7.0,7.0;"/><polygon fill="#181818" points="431.96,259.35,441.74,258.1878,436.2575,256.7943,437.651,251.3118,431.96,259.35" style="stroke:#181818;stroke-width:1.0;"/></g><!--link ctrl to AgentMapper--><g id="link_ctrl_AgentMapper"><path codeLine="147" d="M1908.56,118.12 C2202.11,151.33 2535,189 2535,189 C2535,189 2571.98,232.63 2600.96,266.83 " fill="none" id="ctrl-to-AgentMapper" style="stroke:#181818;stroke-width:1.0;stroke-dasharray:7.0,7.0;"/><polygon fill="#181818" points="2604.45,270.95,2601.6885,261.4962,2601.2196,267.1336,2595.5823,266.6648,2604.45,270.95" style="stroke:#181818;stroke-width:1.0;"/></g><!--link ctrl to AgentDTO--><g id="link_ctrl_AgentDTO"><path codeLine="148" d="M1873.22,128.04 C2078.8,158.4 2286,189 2286,189 C2286,189 2291.43,194.13 2300.04,202.25 " fill="none" id="ctrl-to-AgentDTO" style="stroke:#181818;stroke-width:1.0;stroke-dasharray:7.0,7.0;"/><polygon fill="#181818" points="2303.91,205.91,2300.0977,196.8289,2300.269,202.4832,2294.6147,202.6545,2303.91,205.91" style="stroke:#181818;stroke-width:1.0;"/></g><!--link ctrl to OrderMapper--><g id="link_ctrl_OrderMapper"><path codeLine="149" d="M1764.51,128.04 C1914.66,158.4 2066,189 2066,189 C2066,189 2098.36,223.72 2127.98,255.49 " fill="none" id="ctrl-to-OrderMapper" style="stroke:#181818;stroke-width:1.0;stroke-dasharray:7.0,7.0;"/><polygon fill="#181818" points="2131.58,259.35,2128.3621,250.0417,2128.1679,255.6952,2122.5144,255.501,2131.58,259.35" style="stroke:#181818;stroke-width:1.0;"/></g><!--link ctrl to AnnouncementDTO--><g id="link_ctrl_AnnouncementDTO"><path codeLine="150" d="M1031.33,108.67 C648.57,143.71 154,189 154,189 C154,189 137.79,387.59 127.12,518.24 " fill="none" id="ctrl-to-AnnouncementDTO" style="stroke:#181818;stroke-width:1.0;stroke-dasharray:7.0,7.0;"/><polygon fill="#181818" points="126.71,523.25,131.4415,514.6121,127.124,518.2672,123.469,513.9497,126.71,523.25" style="stroke:#181818;stroke-width:1.0;"/></g><!--link ListAcceptOrDeclineOffersUI to AnnouncementDTO--><g id="link_ListAcceptOrDeclineOffersUI_AnnouncementDTO"><path codeLine="151" d="M349.94,92.6 C245.38,119.11 92,158 92,158 C92,158 92,482 92,482 C92,482 94.69,497.33 98.35,518.12 " fill="none" id="ListAcceptOrDeclineOffersUI-to-AnnouncementDTO" style="stroke:#181818;stroke-width:1.0;stroke-dasharray:7.0,7.0;"/><polygon fill="#181818" points="99.24,523.23,101.6388,513.6777,98.3833,518.3039,93.7571,515.0485,99.24,523.23" style="stroke:#181818;stroke-width:1.0;"/></g><!--link Repositories to Repositories--><g id="link_Repositories_Repositories"><path codeLine="155" d="M886.08,283.28 C907.08,287.5 921,295.74 921,308 C921,319.21 909.37,327.06 891.33,331.54 " fill="none" id="Repositories-to-Repositories" style="stroke:#181818;stroke-width:1.0;"/><polygon fill="#181818" points="886.08,332.72,895.7346,334.6664,890.9603,331.6323,893.9943,326.858,886.08,332.72" style="stroke:#181818;stroke-width:1.0;"/><text fill="#000000" font-family="sans-serif" font-size="20" lengthAdjust="spacing" textLength="79" x="927" y="315.8359">instance</text></g><!--link AnnouncementRepository to AnnouncementAvailable--><g id="link_AnnouncementRepository_AnnouncementAvailable"><path codeLine="157" d="M1802.06,345.02 C1743.75,388.82 1653,457 1653,457 C1653,457 1649.76,478.56 1645.57,506.46 " fill="none" id="AnnouncementRepository-to-AnnouncementAvailable" style="stroke:#181818;stroke-width:1.0;"/><polygon fill="#181818" points="1644.77,511.74,1650.0632,503.4344,1645.5131,506.7955,1642.152,502.2455,1644.77,511.74" style="stroke:#181818;stroke-width:1.0;"/><text fill="#000000" font-family="sans-serif" font-size="20" lengthAdjust="spacing" textLength="232" x="1654" y="477.3359">AnnouncementAvailable</text><text fill="#000000" font-family="sans-serif" font-size="20" lengthAdjust="spacing" textLength="13" x="1780.7239" y="371.8621">1</text><text fill="#000000" font-family="sans-serif" font-size="20" lengthAdjust="spacing" textLength="10" x="1635.5881" y="499.7029">*</text></g><!--link AnnouncementAvailable to order--><g id="link_AnnouncementAvailable_order"><path codeLine="158" d="M1692.52,750.16 C1718.43,796.89 1747.2,848.77 1769.16,888.36 " fill="none" id="AnnouncementAvailable-to-order" style="stroke:#181818;stroke-width:1.0;"/><polygon fill="#181818" points="1771.8,893.13,1770.9639,883.3167,1769.3888,888.7498,1763.9556,887.1747,1771.8,893.13" style="stroke:#181818;stroke-width:1.0;"/><text fill="#000000" font-family="sans-serif" font-size="20" lengthAdjust="spacing" textLength="80" x="1723" y="800.3359">contains</text><text fill="#000000" font-family="sans-serif" font-size="20" lengthAdjust="spacing" textLength="13" x="1683.301" y="777.8701">1</text><text fill="#000000" font-family="sans-serif" font-size="20" lengthAdjust="spacing" textLength="10" x="1757.3831" y="881.1496">*</text></g><!--link appSession to userSession--><g id="link_appSession_userSession"><path codeLine="159" d="M1246.25,308 C1293.16,308 1347.11,308 1390.27,308 " fill="none" id="appSession-to-userSession" style="stroke:#181818;stroke-width:1.0;"/><polygon fill="#181818" points="1395.48,308,1386.48,304,1390.48,308,1386.48,312,1395.48,308" style="stroke:#181818;stroke-width:1.0;"/><text fill="#000000" font-family="sans-serif" font-size="20" lengthAdjust="spacing" textLength="113" x="1264.25" y="300.3359">userSession</text></g><!--link AnnouncementMapper to AnnouncementAvailable--><g id="link_AnnouncementMapper_AnnouncementAvailable"><path codeLine="161" d="M431.96,356.65 C486.92,389.4 550,427 550,427 C550,427 1198.04,549.15 1488.76,603.94 " fill="none" id="AnnouncementMapper-to-AnnouncementAvailable" style="stroke:#181818;stroke-width:1.0;stroke-dasharray:7.0,7.0;"/><polygon fill="#181818" points="1493.86,604.9,1485.7592,599.2985,1488.9469,603.9717,1484.2738,607.1594,1493.86,604.9" style="stroke:#181818;stroke-width:1.0;"/></g><!--link AnnouncementMapper to AnnouncementDTO--><g id="link_AnnouncementMapper_AnnouncementDTO"><path codeLine="162" d="M317.22,356.71 C286.14,399.35 239.4,463.46 199.01,518.88 " fill="none" id="AnnouncementMapper-to-AnnouncementDTO" style="stroke:#181818;stroke-width:1.0;stroke-dasharray:7.0,7.0;"/><polygon fill="#181818" points="195.86,523.19,204.3906,518.2676,198.8026,519.1476,197.9226,513.5596,195.86,523.19" style="stroke:#181818;stroke-width:1.0;"/></g><!--link OrderMapper to order--><g id="link_OrderMapper_order"><path codeLine="164" d="M2131.58,356.65 C2101.05,389.4 2066,427 2066,427 C2066,427 1949,512 1949,512 C1949,512 1866.25,765.41 1826.21,888.04 " fill="none" id="OrderMapper-to-order" style="stroke:#181818;stroke-width:1.0;stroke-dasharray:7.0,7.0;"/><polygon fill="#181818" points="1824.57,893.07,1831.1713,885.7609,1826.1254,888.3181,1823.5682,883.2722,1824.57,893.07" style="stroke:#181818;stroke-width:1.0;"/></g><!--link OrderMapper to OrderDTO--><g id="link_OrderMapper_OrderDTO"><path codeLine="165" d="M2188.48,356.71 C2200.42,402.32 2218.79,472.51 2233.92,530.33 " fill="none" id="OrderMapper-to-OrderDTO" style="stroke:#181818;stroke-width:1.0;stroke-dasharray:7.0,7.0;"/><polygon fill="#181818" points="2235.19,535.17,2236.7664,525.4481,2233.9168,530.3348,2229.0301,527.4852,2235.19,535.17" style="stroke:#181818;stroke-width:1.0;"/></g><!--link UserSession to Agent--><g id="link_UserSession_Agent"><path codeLine="167" d="M2039.86,656.11 C2037.88,698.05 2034,780 2034,780 C2034,780 2034,805 2034,805 C2034,805 2034.47,814.98 2035.17,829.76 " fill="none" id="UserSession-to-Agent" style="stroke:#181818;stroke-width:1.0;stroke-dasharray:7.0,7.0;"/><polygon fill="#181818" points="2035.42,834.95,2038.9787,825.7665,2035.1774,829.9559,2030.9881,826.1547,2035.42,834.95" style="stroke:#181818;stroke-width:1.0;"/></g><!--link UserSession to Agent--><g id="link_UserSession_Agent"><path codeLine="168" d="M2041,656.13 C2041,692.93 2041,765.61 2041,829.83 " fill="none" id="UserSession-to-Agent-1" style="stroke:#181818;stroke-width:1.0;"/><polygon fill="#181818" points="2041,834.84,2045,825.84,2041,829.84,2037,825.84,2041,834.84" style="stroke:#181818;stroke-width:1.0;"/><text fill="#000000" font-family="sans-serif" font-size="20" lengthAdjust="spacing" textLength="167" x="2042" y="800.3359">gets  Agent email</text><text fill="#000000" font-family="sans-serif" font-size="20" lengthAdjust="spacing" textLength="13" x="2026.5781" y="683.5394">1</text><text fill="#000000" font-family="sans-serif" font-size="20" lengthAdjust="spacing" textLength="10" x="2030.6797" y="822.8093">*</text></g><!--link order to processOrders--><g id="link_order_processOrders"><path codeLine="170" d="M1816.01,1014.54 C1825.27,1064.58 1837,1128 1837,1128 C1837,1128 1865.97,1142.58 1898.78,1159.09 " fill="none" id="order-to-processOrders" style="stroke:#181818;stroke-width:1.0;"/><polygon fill="#181818" points="1903.65,1161.54,1897.3987,1153.9294,1899.1807,1159.2982,1893.8119,1161.0802,1903.65,1161.54" style="stroke:#181818;stroke-width:1.0;"/><text fill="#000000" font-family="sans-serif" font-size="20" lengthAdjust="spacing" textLength="161" x="1838" y="1123.3359">can be evaluated</text><text fill="#000000" font-family="sans-serif" font-size="20" lengthAdjust="spacing" textLength="13" x="1803.4751" y="1041.351">2</text><text fill="#000000" font-family="sans-serif" font-size="20" lengthAdjust="spacing" textLength="10" x="1886.0023" y="1153.2188">*</text></g><!--link Agent to processOrders--><g id="link_Agent_processOrders"><path codeLine="172" d="M2017.39,1073.28 C2011.84,1101.08 2006.2,1129.33 2001.57,1152.54 " fill="none" id="Agent-to-processOrders" style="stroke:#181818;stroke-width:1.0;stroke-dasharray:7.0,7.0;"/><polygon fill="#181818" points="2000.54,1157.72,2006.2138,1149.6697,2001.5123,1152.8155,1998.3666,1148.114,2000.54,1157.72" style="stroke:#181818;stroke-width:1.0;"/></g><!--link Agent to processOrders--><g id="link_Agent_processOrders"><path codeLine="173" d="M2019.81,1073.26 C2014.36,1103.67 2010,1128 2010,1128 C2010,1128 2007.32,1138.94 2003.97,1152.6 " fill="none" id="Agent-to-processOrders-1" style="stroke:#181818;stroke-width:1.0;"/><polygon fill="#181818" points="2002.71,1157.74,2008.7303,1149.9454,2003.8958,1152.8826,2000.9585,1148.0481,2002.71,1157.74" style="stroke:#181818;stroke-width:1.0;"/><text fill="#000000" font-family="sans-serif" font-size="20" lengthAdjust="spacing" textLength="199" x="2015" y="1123.3359">processes the orders</text><text fill="#000000" font-family="sans-serif" font-size="20" lengthAdjust="spacing" textLength="13" x="2005.0361" y="1100.9765">3</text><text fill="#000000" font-family="sans-serif" font-size="20" lengthAdjust="spacing" textLength="10" x="1993.6536" y="1145.6332">*</text></g><!--SRC=[nLPDJzmm4BtxLrYviDlj8aflKAs4e4X8RQcWz6wSsQo5ruviBtHRzRzt_97OMRBG6paazlXvFEzvF8vz4AfbXgsbvWzGqngMR2FTfLRkLlm6Udn43co7eMkjD5yPlGRgp0P87caPVs0DtBgj16g0EwOQMGBiYjNwIQY6BfcqvOWK2jos1TfgkVMTSiL-K1kdIJ6BIsRjcND6t6ySN76jGhn7X1n8M3hgD3MYMJbQ2n-Eq8gGC8TMPqhfZUAm1kNEaQZHKeAfABEKEoF_48hFh05tRMemNuHr5p-k9-Kix5Csx4_xMNv22JvxP4AoUmc8kjJch47R9C4jg3giSWCMPRS_1VkyHlZ4E_aKHd3M0jbZoxwdBmKn9OJyxKZUGAkjSDe8i3GocW-CNGGK8xvI5lUBmsHAJmQW32aNxX5RTDAlE8v8QqSVdda9ivDRt3zC2V2SfsJSMQ_VoCQ40EAK8562XFQX1OUy71IWJj4IXzqXD2TAsqh1cK-UMx0MFo59MDkcBiqXPGrxq_d668m_OIUHNy_GYu7pPm8_eYQp98LYQo0pgR7PhhI2RvlrFPW8S-nNrqte5bqz8OiupiMZa3i8LjS60-ZxNkbIw2Pbqjj5KWJo5QK5usDnEfov9kPr7svrPy6KUx79_M8puXag9xP6SuI5_RVedpBEeOs9XC0P5ZxkQqrdA7TgB1UxCtKLDGlj2qmWMkChTVN60xbUYn3VmDeQmHFkkz58scrfruZcc23ClwCXbuH5pEE2NgWvYT55Oh9S8jMxAuoq85ESaZd2q7dGAXeUcSIYFduA-qFpjfIz6UFpdx4JxH-Hu_DFohQ2x6a_LiV80kzixKcT3do60f5DWoXAfM8IvtXyBZizsNijJ7UHhw2UqzzTiNFKbydf-51XphvVIgN3HRWXCJ_mJG_dYprLFuyFRfFUcYlekAUUTHuk3lhud2X2CTRiCsAsP4iXuBXVZtv5arquFeFxTqS7l6H5kYq8sNDjLX-g-NnHlQlsb9-JFNgDez4RHNVK-miL0EVZ7vDZ60SfhhEXpWWgLIVFrNvXu_u37AGgz0-04DupQtVA2IakWBoZ0sj9DbQK4__tOMdgGRnueWxLSGOFxWYl45Fq7YZuye17lqO5WWE_x02RxDN7_RvI7pVVhI3zpf7m_0C0]--></g></svg>