<?xml version="1.0" encoding="UTF-8" standalone="no"?><svg xmlns="http://www.w3.org/2000/svg" xmlns:xlink="http://www.w3.org/1999/xlink" contentStyleType="text/css" height="726px" preserveAspectRatio="none" style="width:908px;height:726px;background:#FFFFFF;" version="1.1" viewBox="0 0 908 726" width="908px" zoomAndPan="magnify"><defs/><g><text fill="#000000" font-family="sans-serif" font-size="14" font-weight="bold" lengthAdjust="spacing" textLength="295" x="313" y="28.5352">US017 - System Sequence Diagram (SSD)</text><rect fill="#FFFFFF" height="493.3203" style="stroke:#181818;stroke-width:1.0;" width="10" x="159" y="136.043"/><rect fill="#FFFFFF" height="440.7656" style="stroke:#181818;stroke-width:1.0;" width="10" x="833" y="165.5977"/><rect fill="none" height="362.1016" style="stroke:#000000;stroke-width:1.5;" width="882" x="20" y="259.2617"/><rect fill="none" height="134.7734" style="stroke:#000000;stroke-width:1.5;" width="862" x="30" y="479.5898"/><line style="stroke:#181818;stroke-width:0.5;stroke-dasharray:5.0,5.0;" x1="164" x2="164" y1="126.043" y2="638.3633"/><line style="stroke:#181818;stroke-width:0.5;stroke-dasharray:5.0,5.0;" x1="838" x2="838" y1="126.043" y2="638.3633"/><text fill="#000000" font-family="sans-serif" font-size="20" lengthAdjust="spacing" textLength="242" x="40" y="121.8242">System Network Manager</text><ellipse cx="164" cy="50.9883" fill="#E3E3E3" rx="8" ry="8" style="stroke:#181818;stroke-width:0.5;"/><path d="M164,58.9883 L164,85.9883 M151,66.9883 L177,66.9883 M164,85.9883 L151,100.9883 M164,85.9883 L177,100.9883 " fill="none" style="stroke:#181818;stroke-width:0.5;"/><text fill="#000000" font-family="sans-serif" font-size="20" lengthAdjust="spacing" textLength="242" x="40" y="656.6992">System Network Manager</text><ellipse cx="164" cy="669.418" fill="#E3E3E3" rx="8" ry="8" style="stroke:#181818;stroke-width:0.5;"/><path d="M164,677.418 L164,704.418 M151,685.418 L177,685.418 M164,704.418 L151,719.418 M164,704.418 L177,719.418 " fill="none" style="stroke:#181818;stroke-width:0.5;"/><rect fill="#E3E3E3" height="37.5547" rx="2.5" ry="2.5" style="stroke:#181818;stroke-width:0.5;" width="88" x="794" y="87.4883"/><text fill="#000000" font-family="sans-serif" font-size="20" lengthAdjust="spacing" textLength="74" x="801" y="113.8242">:System</text><rect fill="#E3E3E3" height="37.5547" rx="2.5" ry="2.5" style="stroke:#181818;stroke-width:0.5;" width="88" x="794" y="637.3633"/><text fill="#000000" font-family="sans-serif" font-size="20" lengthAdjust="spacing" textLength="74" x="801" y="663.6992">:System</text><rect fill="#FFFFFF" height="493.3203" style="stroke:#181818;stroke-width:1.0;" width="10" x="159" y="136.043"/><rect fill="#FFFFFF" height="440.7656" style="stroke:#181818;stroke-width:1.0;" width="10" x="833" y="165.5977"/><polygon fill="#181818" points="821,161.5977,831,165.5977,821,169.5977,825,165.5977" style="stroke:#181818;stroke-width:1.0;"/><line style="stroke:#181818;stroke-width:1.0;" x1="169" x2="827" y1="165.5977" y2="165.5977"/><text fill="#000000" font-family="sans-serif" font-size="20" font-weight="bold" lengthAdjust="spacing" textLength="13" x="176" y="159.3789">1</text><text fill="#000000" font-family="sans-serif" font-size="20" lengthAdjust="spacing" textLength="249" x="193" y="159.3789">asks to list all deals made</text><polygon fill="#181818" points="180,199.1523,170,203.1523,180,207.1523,176,203.1523" style="stroke:#181818;stroke-width:1.0;"/><line style="stroke:#181818;stroke-width:1.0;stroke-dasharray:2.0,2.0;" x1="174" x2="832" y1="203.1523" y2="203.1523"/><text fill="#000000" font-family="sans-serif" font-size="20" font-weight="bold" lengthAdjust="spacing" textLength="13" x="186" y="196.9336">2</text><text fill="#000000" font-family="sans-serif" font-size="20" lengthAdjust="spacing" textLength="509" x="203" y="196.9336">Shows the list unsorted and asks if he wants to sort it</text><path d="M20,259.2617 L99,259.2617 L99,274.8164 L89,284.8164 L20,284.8164 L20,259.2617 " fill="#EEEEEE" style="stroke:#000000;stroke-width:1.5;"/><rect fill="none" height="362.1016" style="stroke:#000000;stroke-width:1.5;" width="882" x="20" y="259.2617"/><text fill="#000000" font-family="sans-serif" font-size="20" font-weight="bold" lengthAdjust="spacing" textLength="34" x="35" y="279.5977">opt</text><polygon fill="#181818" points="821,310.3711,831,314.3711,821,318.3711,825,314.3711" style="stroke:#181818;stroke-width:1.0;"/><line style="stroke:#181818;stroke-width:1.0;" x1="169" x2="827" y1="314.3711" y2="314.3711"/><text fill="#000000" font-family="sans-serif" font-size="20" font-weight="bold" lengthAdjust="spacing" textLength="13" x="176" y="308.1523">3</text><text fill="#000000" font-family="sans-serif" font-size="20" lengthAdjust="spacing" textLength="182" x="193" y="308.1523">asks to sort the list</text><polygon fill="#181818" points="180,347.9258,170,351.9258,180,355.9258,176,351.9258" style="stroke:#181818;stroke-width:1.0;"/><line style="stroke:#181818;stroke-width:1.0;stroke-dasharray:2.0,2.0;" x1="174" x2="832" y1="351.9258" y2="351.9258"/><text fill="#000000" font-family="sans-serif" font-size="20" font-weight="bold" lengthAdjust="spacing" textLength="13" x="186" y="345.707">4</text><text fill="#000000" font-family="sans-serif" font-size="20" lengthAdjust="spacing" textLength="486" x="203" y="345.707">asks what algorithm he wants to use to sort the list</text><polygon fill="#181818" points="821,385.4805,831,389.4805,821,393.4805,825,389.4805" style="stroke:#181818;stroke-width:1.0;"/><line style="stroke:#181818;stroke-width:1.0;" x1="169" x2="827" y1="389.4805" y2="389.4805"/><text fill="#000000" font-family="sans-serif" font-size="20" font-weight="bold" lengthAdjust="spacing" textLength="13" x="176" y="383.2617">5</text><text fill="#000000" font-family="sans-serif" font-size="20" lengthAdjust="spacing" textLength="493" x="193" y="383.2617">selects the algorithm he wants to use to sort the list</text><polygon fill="#181818" points="180,423.0352,170,427.0352,180,431.0352,176,427.0352" style="stroke:#181818;stroke-width:1.0;"/><line style="stroke:#181818;stroke-width:1.0;stroke-dasharray:2.0,2.0;" x1="174" x2="832" y1="427.0352" y2="427.0352"/><text fill="#000000" font-family="sans-serif" font-size="20" font-weight="bold" lengthAdjust="spacing" textLength="13" x="186" y="420.8164">6</text><text fill="#000000" font-family="sans-serif" font-size="20" lengthAdjust="spacing" textLength="361" x="203" y="420.8164">ask how he wants the list to be sorted</text><polygon fill="#181818" points="821,460.5898,831,464.5898,821,468.5898,825,464.5898" style="stroke:#181818;stroke-width:1.0;"/><line style="stroke:#181818;stroke-width:1.0;" x1="169" x2="827" y1="464.5898" y2="464.5898"/><text fill="#000000" font-family="sans-serif" font-size="20" font-weight="bold" lengthAdjust="spacing" textLength="13" x="176" y="458.3711">7</text><text fill="#000000" font-family="sans-serif" font-size="20" lengthAdjust="spacing" textLength="426" x="193" y="458.3711">selects the way he wants the list to be sorted</text><path d="M30,479.5898 L102,479.5898 L102,495.1445 L92,505.1445 L30,505.1445 L30,479.5898 " fill="#EEEEEE" style="stroke:#000000;stroke-width:1.5;"/><rect fill="none" height="134.7734" style="stroke:#000000;stroke-width:1.5;" width="862" x="30" y="479.5898"/><text fill="#000000" font-family="sans-serif" font-size="20" font-weight="bold" lengthAdjust="spacing" textLength="27" x="45" y="499.9258">alt</text><text fill="#000000" font-family="sans-serif" font-size="20" font-weight="bold" lengthAdjust="spacing" textLength="310" x="117" y="500.9258">[Sort type == ascending area]</text><polygon fill="#181818" points="180,539.2539,170,543.2539,180,547.2539,176,543.2539" style="stroke:#181818;stroke-width:1.0;"/><line style="stroke:#181818;stroke-width:1.0;stroke-dasharray:2.0,2.0;" x1="174" x2="832" y1="543.2539" y2="543.2539"/><text fill="#000000" font-family="sans-serif" font-size="20" font-weight="bold" lengthAdjust="spacing" textLength="13" x="186" y="537.0352">8</text><text fill="#000000" font-family="sans-serif" font-size="20" lengthAdjust="spacing" textLength="610" x="203" y="537.0352">shows the list of deals ordered by ascending area in square feet</text><line style="stroke:#000000;stroke-width:1.0;stroke-dasharray:2.0,2.0;" x1="30" x2="892" y1="552.2539" y2="552.2539"/><text fill="#000000" font-family="sans-serif" font-size="20" font-weight="bold" lengthAdjust="spacing" textLength="323" x="35" y="571.5898">[Sort type == descending area]</text><polygon fill="#181818" points="180,602.3633,170,606.3633,180,610.3633,176,606.3633" style="stroke:#181818;stroke-width:1.0;"/><line style="stroke:#181818;stroke-width:1.0;stroke-dasharray:2.0,2.0;" x1="174" x2="837" y1="606.3633" y2="606.3633"/><text fill="#000000" font-family="sans-serif" font-size="20" font-weight="bold" lengthAdjust="spacing" textLength="13" x="186" y="600.1445">9</text><text fill="#000000" font-family="sans-serif" font-size="20" lengthAdjust="spacing" textLength="623" x="203" y="600.1445">shows the list of deals ordered by descending area in square feet</text><!--SRC=[hLHBZvmm3BxdLrXpQWyZRNkfDDBkfQlUsWlg3_20WOWGiuafeh- -vZK5PZhTbVR28xQ_XvqaLjOt6B1sd5QKGKOvjaw-iPV4_YRu_63YaW8rUqxBm3M1X9PMaGRJ2WjAf7S4WL91NxXrGYmnuyxw0d9qaOmHAvhwCtduz0MEaFHHg8Q4NbhoAS6pnM8e-v0apnyDjiA-hSyKZC5KEC1XBlX1qd6eu3jwfGy7m3XZpP4vO5I5sDGsw0KEfobbbJtYsbyeTBlS0DmCmF5fqNvIj2g2C3WR1T0vRQPwXHep6kfXHp62BjN72z2Eu0H9oPtYbZG1jpvo41qL-coYj3bei5Dh8_qG1YiJF3S2NqlcI7zZsZ_FilnUyiRt-81_k3q-NNaT0HTj4uAvO6onxdaSuReIXxuL7AoKzSPJ6-cQpLnJtP_H2I8vtPnJDz_2j7UqftwLGz11hhYMWIhRcM0QghaD_3f37VR_XLzZenD8HfzzG_3ug1fJyjbmI34GldMCAcQxKpcVJm27Z8Bks7E_em3h8Rwq-WavqOq-azuLMuqPtHVvNa9tF7kbQpgjdK_sPbchZTaCT5pv0m00]--></g></svg>