<?xml version="1.0" encoding="UTF-8" standalone="no"?><svg xmlns="http://www.w3.org/2000/svg" xmlns:xlink="http://www.w3.org/1999/xlink" contentStyleType="text/css" height="459px" preserveAspectRatio="none" style="width:1138px;height:459px;background:#FFFFFF;" version="1.1" viewBox="0 0 1138 459" width="1138px" zoomAndPan="magnify"><defs/><g><text fill="#000000" font-family="sans-serif" font-size="14" font-weight="bold" lengthAdjust="spacing" textLength="295" x="420.5" y="28.5352">US005 - System Sequence Diagram (SSD)</text><rect fill="#FFFFFF" height="226.3281" style="stroke:#181818;stroke-width:1.0;" width="10" x="105" y="136.043"/><rect fill="#FFFFFF" height="37.5547" style="stroke:#181818;stroke-width:1.0;" width="10" x="1083" y="165.5977"/><rect fill="#FFFFFF" height="37.5547" style="stroke:#181818;stroke-width:1.0;" width="10" x="1083" y="240.707"/><rect fill="#FFFFFF" height="37.5547" style="stroke:#181818;stroke-width:1.0;" width="10" x="1083" y="315.8164"/><line style="stroke:#181818;stroke-width:0.5;stroke-dasharray:5.0,5.0;" x1="110" x2="110" y1="126.043" y2="371.3711"/><line style="stroke:#181818;stroke-width:0.5;stroke-dasharray:5.0,5.0;" x1="1088" x2="1088" y1="126.043" y2="371.3711"/><text fill="#000000" font-family="sans-serif" font-size="20" lengthAdjust="spacing" textLength="204" x="5" y="121.8242">System administrator</text><ellipse cx="110" cy="50.9883" fill="#E3E3E3" rx="8" ry="8" style="stroke:#181818;stroke-width:0.5;"/><path d="M110,58.9883 L110,85.9883 M97,66.9883 L123,66.9883 M110,85.9883 L97,100.9883 M110,85.9883 L123,100.9883 " fill="none" style="stroke:#181818;stroke-width:0.5;"/><text fill="#000000" font-family="sans-serif" font-size="20" lengthAdjust="spacing" textLength="204" x="5" y="389.707">System administrator</text><ellipse cx="110" cy="402.4258" fill="#E3E3E3" rx="8" ry="8" style="stroke:#181818;stroke-width:0.5;"/><path d="M110,410.4258 L110,437.4258 M97,418.4258 L123,418.4258 M110,437.4258 L97,452.4258 M110,437.4258 L123,452.4258 " fill="none" style="stroke:#181818;stroke-width:0.5;"/><rect fill="#E3E3E3" height="37.5547" rx="2.5" ry="2.5" style="stroke:#181818;stroke-width:0.5;" width="88" x="1044" y="87.4883"/><text fill="#000000" font-family="sans-serif" font-size="20" lengthAdjust="spacing" textLength="74" x="1051" y="113.8242">:System</text><rect fill="#E3E3E3" height="37.5547" rx="2.5" ry="2.5" style="stroke:#181818;stroke-width:0.5;" width="88" x="1044" y="370.3711"/><text fill="#000000" font-family="sans-serif" font-size="20" lengthAdjust="spacing" textLength="74" x="1051" y="396.707">:System</text><rect fill="#FFFFFF" height="226.3281" style="stroke:#181818;stroke-width:1.0;" width="10" x="105" y="136.043"/><rect fill="#FFFFFF" height="37.5547" style="stroke:#181818;stroke-width:1.0;" width="10" x="1083" y="165.5977"/><rect fill="#FFFFFF" height="37.5547" style="stroke:#181818;stroke-width:1.0;" width="10" x="1083" y="240.707"/><rect fill="#FFFFFF" height="37.5547" style="stroke:#181818;stroke-width:1.0;" width="10" x="1083" y="315.8164"/><polygon fill="#181818" points="1071,161.5977,1081,165.5977,1071,169.5977,1075,165.5977" style="stroke:#181818;stroke-width:1.0;"/><line style="stroke:#181818;stroke-width:1.0;" x1="115" x2="1077" y1="165.5977" y2="165.5977"/><text fill="#000000" font-family="sans-serif" font-size="20" font-weight="bold" lengthAdjust="spacing" textLength="13" x="122" y="159.3789">1</text><text fill="#000000" font-family="sans-serif" font-size="20" lengthAdjust="spacing" textLength="218" x="139" y="159.3789">asks to register a store</text><polygon fill="#181818" points="126,199.1523,116,203.1523,126,207.1523,122,203.1523" style="stroke:#181818;stroke-width:1.0;"/><line style="stroke:#181818;stroke-width:1.0;stroke-dasharray:2.0,2.0;" x1="120" x2="1087" y1="203.1523" y2="203.1523"/><text fill="#000000" font-family="sans-serif" font-size="20" font-weight="bold" lengthAdjust="spacing" textLength="13" x="132" y="196.9336">2</text><text fill="#000000" font-family="sans-serif" font-size="20" lengthAdjust="spacing" textLength="927" x="149" y="196.9336">requests the data(an ID, a designation/name, a location,a phone number and an e-mail address)</text><polygon fill="#181818" points="1071,236.707,1081,240.707,1071,244.707,1075,240.707" style="stroke:#181818;stroke-width:1.0;"/><line style="stroke:#181818;stroke-width:1.0;" x1="115" x2="1077" y1="240.707" y2="240.707"/><text fill="#000000" font-family="sans-serif" font-size="20" font-weight="bold" lengthAdjust="spacing" textLength="13" x="122" y="234.4883">3</text><text fill="#000000" font-family="sans-serif" font-size="20" lengthAdjust="spacing" textLength="816" x="139" y="234.4883">types the data(ID, designation/name, location,phone number and an e-mail address)</text><polygon fill="#181818" points="126,274.2617,116,278.2617,126,282.2617,122,278.2617" style="stroke:#181818;stroke-width:1.0;"/><line style="stroke:#181818;stroke-width:1.0;stroke-dasharray:2.0,2.0;" x1="120" x2="1087" y1="278.2617" y2="278.2617"/><text fill="#000000" font-family="sans-serif" font-size="20" font-weight="bold" lengthAdjust="spacing" textLength="13" x="132" y="272.043">4</text><text fill="#000000" font-family="sans-serif" font-size="20" lengthAdjust="spacing" textLength="394" x="149" y="272.043">shows all data and requests confirmation</text><polygon fill="#181818" points="1071,311.8164,1081,315.8164,1071,319.8164,1075,315.8164" style="stroke:#181818;stroke-width:1.0;"/><line style="stroke:#181818;stroke-width:1.0;" x1="115" x2="1077" y1="315.8164" y2="315.8164"/><text fill="#000000" font-family="sans-serif" font-size="20" font-weight="bold" lengthAdjust="spacing" textLength="13" x="122" y="309.5977">5</text><text fill="#000000" font-family="sans-serif" font-size="20" lengthAdjust="spacing" textLength="168" x="139" y="309.5977">confirms the data</text><polygon fill="#181818" points="126,349.3711,116,353.3711,126,357.3711,122,353.3711" style="stroke:#181818;stroke-width:1.0;"/><line style="stroke:#181818;stroke-width:1.0;stroke-dasharray:2.0,2.0;" x1="120" x2="1087" y1="353.3711" y2="353.3711"/><text fill="#000000" font-family="sans-serif" font-size="20" font-weight="bold" lengthAdjust="spacing" textLength="13" x="132" y="347.1523">6</text><text fill="#000000" font-family="sans-serif" font-size="20" lengthAdjust="spacing" textLength="228" x="149" y="347.1523">shows success message</text><!--SRC=[bLBDQiCm3BxxAKHFBIoi37R9eQSos3di0JHRJKpzazdAIlVqK-CaAtI5pU1Wv4_VZvnyjA77XDv5VIG3XWuuE7w9WHlxHV2qLNc6W8yXwYv5Jy1feAkR7lKHMshux0WIQSRGkcj0xj34amqj7D1bKeej2_IjsMwVeOBcd9ayDFGnKD04UuljfMtTDFkDme5Z6Fmx9QLGSqomcXhGU1jiveHING7cKb4YobRR7WF3gYxWyReSHnhxYKmJNe6iyGZLRdPJIyCn0qT9r8e89K388aG5FbFCd32jgRqIfa9P2u44oona7O51nZK6UDq_2A6XRDk0R6Du3EZfKfF760iF27qN0q593nYCRA3AetL2RXBbl2dAXdurT1kApprT6RcukFMmEFYB_d-daRjuafToRdGmiYu3qZ4SRFAZ-C9ncss9LkrAfPuxVwBTztNNKnwqbaZWvIF_yxt1VWC0]--></g></svg>