<?xml version="1.0" encoding="UTF-8" standalone="no"?><svg xmlns="http://www.w3.org/2000/svg" xmlns:xlink="http://www.w3.org/1999/xlink" contentStyleType="text/css" height="1427px" preserveAspectRatio="none" style="width:2764px;height:1427px;background:#FFFFFF;" version="1.1" viewBox="0 0 2764 1427" width="2764px" zoomAndPan="magnify"><defs/><g><!--class ctrl--><g id="elem_ctrl"><rect codeLine="11" fill="#F1F1F1" height="167.7734" id="ctrl" rx="2.5" ry="2.5" style="stroke:#181818;stroke-width:0.5;" width="658" x="1242.5" y="7"/><ellipse cx="1447" cy="24" fill="#ADD1B2" rx="12" ry="12" style="stroke:#181818;stroke-width:1.0;"/><path d="M1449.8066,31.0801 Q1449.123,31.4316 1448.3711,31.6074 Q1447.6191,31.7832 1446.7891,31.7832 Q1443.8398,31.7832 1442.2871,29.8398 Q1440.7344,27.8965 1440.7344,24.2246 Q1440.7344,20.543 1442.2871,18.5996 Q1443.8398,16.6563 1446.7891,16.6563 Q1447.6191,16.6563 1448.3809,16.832 Q1449.1426,17.0078 1449.8066,17.3594 L1449.8066,20.5625 Q1449.0645,19.8789 1448.3662,19.5615 Q1447.668,19.2441 1446.9258,19.2441 Q1445.3438,19.2441 1444.5381,20.499 Q1443.7324,21.7539 1443.7324,24.2246 Q1443.7324,26.6855 1444.5381,27.9404 Q1445.3438,29.1953 1446.9258,29.1953 Q1447.668,29.1953 1448.3662,28.8779 Q1449.0645,28.5605 1449.8066,27.877 Z " fill="#000000"/><text fill="#000000" font-family="sans-serif" font-size="20" lengthAdjust="spacing" textLength="240" x="1469" y="31.5586">AnnouncementController</text><line style="stroke:#181818;stroke-width:0.5;" x1="1243.5" x2="1899.5" y1="41" y2="41"/><text fill="#000000" font-family="sans-serif" font-size="20" lengthAdjust="spacing" textLength="184" x="1248.5" y="64.3359">+getScheduleVisits</text><line style="stroke:#181818;stroke-width:0.5;" x1="1243.5" x2="1899.5" y1="72.5547" y2="72.5547"/><text fill="#000000" font-family="sans-serif" font-size="20" lengthAdjust="spacing" textLength="328" x="1248.5" y="95.8906">+createAnnouncementController()</text><text fill="#000000" font-family="sans-serif" font-size="20" lengthAdjust="spacing" textLength="536" x="1248.5" y="119.4453">+counterPurpose(AnnouncementDTO,VisitRequestDTO)</text><text fill="#000000" font-family="sans-serif" font-size="20" lengthAdjust="spacing" textLength="646" x="1248.5" y="143">+acceptVisiRequest(AnnouncementDTO,VisitRequestDTO,timeSlot)</text><text fill="#000000" font-family="sans-serif" font-size="20" lengthAdjust="spacing" textLength="644" x="1248.5" y="166.5547">+rejectVisitRequest(AnnouncementDTO,VisitRequestDTO,timeSlot)</text></g><!--class repo--><g id="elem_repo"><rect codeLine="19" fill="#F1F1F1" height="73.5547" id="repo" rx="2.5" ry="2.5" style="stroke:#181818;stroke-width:0.5;" width="275" x="1040" y="271"/><ellipse cx="1056" cy="288" fill="#ADD1B2" rx="12" ry="12" style="stroke:#181818;stroke-width:1.0;"/><path d="M1058.8066,295.0801 Q1058.123,295.4316 1057.3711,295.6074 Q1056.6191,295.7832 1055.7891,295.7832 Q1052.8398,295.7832 1051.2871,293.8398 Q1049.7344,291.8965 1049.7344,288.2246 Q1049.7344,284.543 1051.2871,282.5996 Q1052.8398,280.6563 1055.7891,280.6563 Q1056.6191,280.6563 1057.3809,280.832 Q1058.1426,281.0078 1058.8066,281.3594 L1058.8066,284.5625 Q1058.0645,283.8789 1057.3662,283.5615 Q1056.668,283.2441 1055.9258,283.2441 Q1054.3438,283.2441 1053.5381,284.499 Q1052.7324,285.7539 1052.7324,288.2246 Q1052.7324,290.6855 1053.5381,291.9404 Q1054.3438,293.1953 1055.9258,293.1953 Q1056.668,293.1953 1057.3662,292.8779 Q1058.0645,292.5605 1058.8066,291.877 Z " fill="#000000"/><text fill="#000000" font-family="sans-serif" font-size="20" lengthAdjust="spacing" textLength="241" x="1071" y="295.5586">AuthenticationRepository</text><line style="stroke:#181818;stroke-width:0.5;" x1="1041" x2="1314" y1="305" y2="305"/><line style="stroke:#181818;stroke-width:0.5;" x1="1041" x2="1314" y1="313" y2="313"/><text fill="#000000" font-family="sans-serif" font-size="20" lengthAdjust="spacing" textLength="247" x="1046" y="336.3359">+getCurrentUserSession()</text></g><!--class userSession--><g id="elem_userSession"><rect codeLine="24" fill="#F1F1F1" height="73.5547" id="userSession" rx="2.5" ry="2.5" style="stroke:#181818;stroke-width:0.5;" width="149" x="1350" y="271"/><ellipse cx="1366" cy="288" fill="#ADD1B2" rx="12" ry="12" style="stroke:#181818;stroke-width:1.0;"/><path d="M1368.8066,295.0801 Q1368.123,295.4316 1367.3711,295.6074 Q1366.6191,295.7832 1365.7891,295.7832 Q1362.8398,295.7832 1361.2871,293.8398 Q1359.7344,291.8965 1359.7344,288.2246 Q1359.7344,284.543 1361.2871,282.5996 Q1362.8398,280.6563 1365.7891,280.6563 Q1366.6191,280.6563 1367.3809,280.832 Q1368.1426,281.0078 1368.8066,281.3594 L1368.8066,284.5625 Q1368.0645,283.8789 1367.3662,283.5615 Q1366.668,283.2441 1365.9258,283.2441 Q1364.3438,283.2441 1363.5381,284.499 Q1362.7324,285.7539 1362.7324,288.2246 Q1362.7324,290.6855 1363.5381,291.9404 Q1364.3438,293.1953 1365.9258,293.1953 Q1366.668,293.1953 1367.3662,292.8779 Q1368.0645,292.5605 1368.8066,291.877 Z " fill="#000000"/><text fill="#000000" font-family="sans-serif" font-size="20" lengthAdjust="spacing" textLength="115" x="1381" y="295.5586">UserSession</text><line style="stroke:#181818;stroke-width:0.5;" x1="1351" x2="1498" y1="305" y2="305"/><line style="stroke:#181818;stroke-width:0.5;" x1="1351" x2="1498" y1="313" y2="313"/><text fill="#000000" font-family="sans-serif" font-size="20" lengthAdjust="spacing" textLength="122" x="1356" y="336.3359">+getUserId()</text></g><!--class facade--><g id="elem_facade"><rect codeLine="28" fill="#F1F1F1" height="73.5547" id="facade" rx="2.5" ry="2.5" style="stroke:#181818;stroke-width:0.5;" width="240" x="1534.5" y="271"/><ellipse cx="1550.5" cy="288" fill="#ADD1B2" rx="12" ry="12" style="stroke:#181818;stroke-width:1.0;"/><path d="M1553.3066,295.0801 Q1552.623,295.4316 1551.8711,295.6074 Q1551.1191,295.7832 1550.2891,295.7832 Q1547.3398,295.7832 1545.7871,293.8398 Q1544.2344,291.8965 1544.2344,288.2246 Q1544.2344,284.543 1545.7871,282.5996 Q1547.3398,280.6563 1550.2891,280.6563 Q1551.1191,280.6563 1551.8809,280.832 Q1552.6426,281.0078 1553.3066,281.3594 L1553.3066,284.5625 Q1552.5645,283.8789 1551.8662,283.5615 Q1551.168,283.2441 1550.4258,283.2441 Q1548.8438,283.2441 1548.0381,284.499 Q1547.2324,285.7539 1547.2324,288.2246 Q1547.2324,290.6855 1548.0381,291.9404 Q1548.8438,293.1953 1550.4258,293.1953 Q1551.168,293.1953 1551.8662,292.8779 Q1552.5645,292.5605 1553.3066,291.877 Z " fill="#000000"/><text fill="#000000" font-family="sans-serif" font-size="20" lengthAdjust="spacing" textLength="206" x="1565.5" y="295.5586">AuthenticationFacade</text><line style="stroke:#181818;stroke-width:0.5;" x1="1535.5" x2="1773.5" y1="305" y2="305"/><line style="stroke:#181818;stroke-width:0.5;" x1="1535.5" x2="1773.5" y1="313" y2="313"/><text fill="#000000" font-family="sans-serif" font-size="20" lengthAdjust="spacing" textLength="135" x="1540.5" y="336.3359">+isLoggedIn()</text></g><!--class repo2--><g id="elem_repo2"><rect codeLine="32" fill="#F1F1F1" height="144.2188" id="repo2" rx="2.5" ry="2.5" style="stroke:#181818;stroke-width:0.5;" width="824" x="180.5" y="236"/><ellipse cx="465" cy="253" fill="#ADD1B2" rx="12" ry="12" style="stroke:#181818;stroke-width:1.0;"/><path d="M467.8066,260.0801 Q467.123,260.4316 466.3711,260.6074 Q465.6191,260.7832 464.7891,260.7832 Q461.8398,260.7832 460.2871,258.8398 Q458.7344,256.8965 458.7344,253.2246 Q458.7344,249.543 460.2871,247.5996 Q461.8398,245.6563 464.7891,245.6563 Q465.6191,245.6563 466.3809,245.832 Q467.1426,246.0078 467.8066,246.3594 L467.8066,249.5625 Q467.0645,248.8789 466.3662,248.5615 Q465.668,248.2441 464.9258,248.2441 Q463.3438,248.2441 462.5381,249.499 Q461.7324,250.7539 461.7324,253.2246 Q461.7324,255.6855 462.5381,256.9404 Q463.3438,258.1953 464.9258,258.1953 Q465.668,258.1953 466.3662,257.8779 Q467.0645,257.5605 467.8066,256.877 Z " fill="#000000"/><text fill="#000000" font-family="sans-serif" font-size="20" lengthAdjust="spacing" textLength="246" x="487" y="260.5586">AnnouncementRepository</text><line style="stroke:#181818;stroke-width:0.5;" x1="181.5" x2="1003.5" y1="270" y2="270"/><line style="stroke:#181818;stroke-width:0.5;" x1="181.5" x2="1003.5" y1="278" y2="278"/><text fill="#000000" font-family="sans-serif" font-size="20" lengthAdjust="spacing" textLength="571" x="186.5" y="301.3359">+getAnnouncementWithVisitRequestsForOwnerByID(userId)</text><text fill="#000000" font-family="sans-serif" font-size="20" lengthAdjust="spacing" textLength="725" x="186.5" y="324.8906">+acceptVisitRequestMethod(AnnouncementDTO,VisitRequestDTO,timeSlot)</text><text fill="#000000" font-family="sans-serif" font-size="20" lengthAdjust="spacing" textLength="716" x="186.5" y="348.4453">+rejectVisitRequestMethod(AnnouncementDTO,VisitRequestDTO,timeSlot)</text><text fill="#000000" font-family="sans-serif" font-size="20" lengthAdjust="spacing" textLength="812" x="186.5" y="372">+counterPurposeVisitRequestMethod(AnnouncementDTO,VisitRequestDTO,timeSlot)</text></g><!--class announcement--><g id="elem_announcement"><rect codeLine="39" fill="#F1F1F1" height="285.5469" id="announcement" rx="2.5" ry="2.5" style="stroke:#181818;stroke-width:0.5;" width="379" x="1612" y="441"/><ellipse cx="1681" cy="458" fill="#ADD1B2" rx="12" ry="12" style="stroke:#181818;stroke-width:1.0;"/><path d="M1683.8066,465.0801 Q1683.123,465.4316 1682.3711,465.6074 Q1681.6191,465.7832 1680.7891,465.7832 Q1677.8398,465.7832 1676.2871,463.8398 Q1674.7344,461.8965 1674.7344,458.2246 Q1674.7344,454.543 1676.2871,452.5996 Q1677.8398,450.6563 1680.7891,450.6563 Q1681.6191,450.6563 1682.3809,450.832 Q1683.1426,451.0078 1683.8066,451.3594 L1683.8066,454.5625 Q1683.0645,453.8789 1682.3662,453.5615 Q1681.668,453.2441 1680.9258,453.2441 Q1679.3438,453.2441 1678.5381,454.499 Q1677.7324,455.7539 1677.7324,458.2246 Q1677.7324,460.6855 1678.5381,461.9404 Q1679.3438,463.1953 1680.9258,463.1953 Q1681.668,463.1953 1682.3662,462.8779 Q1683.0645,462.5605 1683.8066,461.877 Z " fill="#000000"/><text fill="#000000" font-family="sans-serif" font-size="20" lengthAdjust="spacing" textLength="232" x="1703" y="465.5586">AnnouncementAvailable</text><line style="stroke:#181818;stroke-width:0.5;" x1="1613" x2="1990" y1="475" y2="475"/><text fill="#000000" font-family="sans-serif" font-size="20" lengthAdjust="spacing" textLength="62" x="1618" y="498.3359">-Int id</text><text fill="#000000" font-family="sans-serif" font-size="20" lengthAdjust="spacing" textLength="104" x="1618" y="521.8906">-Date date</text><text fill="#000000" font-family="sans-serif" font-size="20" lengthAdjust="spacing" textLength="184" x="1618" y="545.4453">-Double comission</text><text fill="#000000" font-family="sans-serif" font-size="20" lengthAdjust="spacing" textLength="135" x="1618" y="569">-Double price</text><text fill="#000000" font-family="sans-serif" font-size="20" lengthAdjust="spacing" textLength="212" x="1618" y="592.5547">-Property PropertyList</text><text fill="#000000" font-family="sans-serif" font-size="20" lengthAdjust="spacing" textLength="127" x="1618" y="616.1094">-Agent agent</text><text fill="#000000" font-family="sans-serif" font-size="20" lengthAdjust="spacing" textLength="197" x="1618" y="639.6641">-List&lt;VisitRequest&gt;</text><line style="stroke:#181818;stroke-width:0.5;" x1="1613" x2="1990" y1="647.8828" y2="647.8828"/><text fill="#000000" font-family="sans-serif" font-size="20" lengthAdjust="spacing" textLength="367" x="1618" y="671.2188">+createVisitRequest(visitRequestDTO)</text><text fill="#000000" font-family="sans-serif" font-size="20" lengthAdjust="spacing" textLength="302" x="1618" y="694.7734">+addVisitRequest(visitRequest)</text><text fill="#000000" font-family="sans-serif" font-size="20" lengthAdjust="spacing" textLength="336" x="1618" y="718.3281">-validateVisitRequest(visitRequest)</text></g><!--class UI--><g id="elem_UI"><rect codeLine="52" fill="#F1F1F1" height="50" id="UI" rx="2.5" ry="2.5" style="stroke:#181818;stroke-width:0.5;" width="241" x="7" y="66"/><ellipse cx="23" cy="83" fill="#ADD1B2" rx="12" ry="12" style="stroke:#181818;stroke-width:1.0;"/><path d="M25.8066,90.0801 Q25.123,90.4316 24.3711,90.6074 Q23.6191,90.7832 22.7891,90.7832 Q19.8398,90.7832 18.2871,88.8398 Q16.7344,86.8965 16.7344,83.2246 Q16.7344,79.543 18.2871,77.5996 Q19.8398,75.6563 22.7891,75.6563 Q23.6191,75.6563 24.3809,75.832 Q25.1426,76.0078 25.8066,76.3594 L25.8066,79.5625 Q25.0645,78.8789 24.3662,78.5615 Q23.668,78.2441 22.9258,78.2441 Q21.3438,78.2441 20.5381,79.499 Q19.7324,80.7539 19.7324,83.2246 Q19.7324,85.6855 20.5381,86.9404 Q21.3438,88.1953 22.9258,88.1953 Q23.668,88.1953 24.3662,87.8779 Q25.0645,87.5605 25.8066,86.877 Z " fill="#000000"/><text fill="#000000" font-family="sans-serif" font-size="20" lengthAdjust="spacing" textLength="207" x="38" y="90.5586">CheckScheduleVisitUI</text><line style="stroke:#181818;stroke-width:0.5;" x1="8" x2="247" y1="100" y2="100"/><line style="stroke:#181818;stroke-width:0.5;" x1="8" x2="247" y1="108" y2="108"/></g><!--class Repositories--><g id="elem_Repositories"><rect codeLine="55" fill="#F1F1F1" height="144.2188" id="Repositories" rx="2.5" ry="2.5" style="stroke:#181818;stroke-width:0.5;" width="318" x="1809.5" y="236"/><ellipse cx="1904.5" cy="253" fill="#ADD1B2" rx="12" ry="12" style="stroke:#181818;stroke-width:1.0;"/><path d="M1907.3066,260.0801 Q1906.623,260.4316 1905.8711,260.6074 Q1905.1191,260.7832 1904.2891,260.7832 Q1901.3398,260.7832 1899.7871,258.8398 Q1898.2344,256.8965 1898.2344,253.2246 Q1898.2344,249.543 1899.7871,247.5996 Q1901.3398,245.6563 1904.2891,245.6563 Q1905.1191,245.6563 1905.8809,245.832 Q1906.6426,246.0078 1907.3066,246.3594 L1907.3066,249.5625 Q1906.5645,248.8789 1905.8662,248.5615 Q1905.168,248.2441 1904.4258,248.2441 Q1902.8438,248.2441 1902.0381,249.499 Q1901.2324,250.7539 1901.2324,253.2246 Q1901.2324,255.6855 1902.0381,256.9404 Q1902.8438,258.1953 1904.4258,258.1953 Q1905.168,258.1953 1905.8662,257.8779 Q1906.5645,257.5605 1907.3066,256.877 Z " fill="#000000"/><text fill="#000000" font-family="sans-serif" font-size="20" lengthAdjust="spacing" textLength="119" x="1926.5" y="260.5586">Repositories</text><line style="stroke:#181818;stroke-width:0.5;" x1="1810.5" x2="2126.5" y1="270" y2="270"/><line style="stroke:#181818;stroke-width:0.5;" x1="1810.5" x2="2126.5" y1="278" y2="278"/><text fill="#000000" font-family="sans-serif" font-size="20" lengthAdjust="spacing" textLength="145" x="1815.5" y="301.3359">-Repositories()</text><text fill="#000000" font-family="sans-serif" font-size="20" lengthAdjust="spacing" textLength="276" x="1815.5" y="324.8906">+getInstance() : Repositories</text><text fill="#000000" font-family="sans-serif" font-size="20" lengthAdjust="spacing" textLength="306" x="1815.5" y="348.4453">+getAnnouncementRepository()</text><text fill="#000000" font-family="sans-serif" font-size="20" lengthAdjust="spacing" textLength="301" x="1815.5" y="372">+getAuthenticationRepository()</text></g><!--class vr--><g id="elem_vr"><rect codeLine="61" fill="#F1F1F1" height="191.3281" id="vr" rx="2.5" ry="2.5" style="stroke:#181818;stroke-width:0.5;" width="237" x="64" y="812"/><ellipse cx="118.5" cy="829" fill="#ADD1B2" rx="12" ry="12" style="stroke:#181818;stroke-width:1.0;"/><path d="M121.3066,836.0801 Q120.623,836.4316 119.8711,836.6074 Q119.1191,836.7832 118.2891,836.7832 Q115.3398,836.7832 113.7871,834.8398 Q112.2344,832.8965 112.2344,829.2246 Q112.2344,825.543 113.7871,823.5996 Q115.3398,821.6563 118.2891,821.6563 Q119.1191,821.6563 119.8809,821.832 Q120.6426,822.0078 121.3066,822.3594 L121.3066,825.5625 Q120.5645,824.8789 119.8662,824.5615 Q119.168,824.2441 118.4258,824.2441 Q116.8438,824.2441 116.0381,825.499 Q115.2324,826.7539 115.2324,829.2246 Q115.2324,831.6855 116.0381,832.9404 Q116.8438,834.1953 118.4258,834.1953 Q119.168,834.1953 119.8662,833.8779 Q120.5645,833.5605 121.3066,832.877 Z " fill="#000000"/><text fill="#000000" font-family="sans-serif" font-size="20" lengthAdjust="spacing" textLength="119" x="140.5" y="836.5586">VisitRequest</text><line style="stroke:#181818;stroke-width:0.5;" x1="65" x2="300" y1="846" y2="846"/><text fill="#000000" font-family="sans-serif" font-size="20" lengthAdjust="spacing" textLength="122" x="70" y="869.3359">-String date;</text><text fill="#000000" font-family="sans-serif" font-size="20" lengthAdjust="spacing" textLength="137" x="70" y="892.8906">-String status;</text><text fill="#000000" font-family="sans-serif" font-size="20" lengthAdjust="spacing" textLength="221" x="70" y="916.4453">-AgentDTO agentDTO;</text><text fill="#000000" font-family="sans-serif" font-size="20" lengthAdjust="spacing" textLength="225" x="70" y="940">-List&lt;String&gt; timeSlot;</text><text fill="#000000" font-family="sans-serif" font-size="20" lengthAdjust="spacing" textLength="177" x="70" y="963.5547">-String userName;</text><text fill="#000000" font-family="sans-serif" font-size="20" lengthAdjust="spacing" textLength="133" x="70" y="987.1094">-String email;</text><line style="stroke:#181818;stroke-width:0.5;" x1="65" x2="300" y1="995.3281" y2="995.3281"/></g><!--class vrDTO--><g id="elem_vrDTO"><rect codeLine="69" fill="#F1F1F1" height="191.3281" id="vrDTO" rx="2.5" ry="2.5" style="stroke:#181818;stroke-width:0.5;" width="237" x="336" y="812"/><ellipse cx="370" cy="829" fill="#ADD1B2" rx="12" ry="12" style="stroke:#181818;stroke-width:1.0;"/><path d="M372.8066,836.0801 Q372.123,836.4316 371.3711,836.6074 Q370.6191,836.7832 369.7891,836.7832 Q366.8398,836.7832 365.2871,834.8398 Q363.7344,832.8965 363.7344,829.2246 Q363.7344,825.543 365.2871,823.5996 Q366.8398,821.6563 369.7891,821.6563 Q370.6191,821.6563 371.3809,821.832 Q372.1426,822.0078 372.8066,822.3594 L372.8066,825.5625 Q372.0645,824.8789 371.3662,824.5615 Q370.668,824.2441 369.9258,824.2441 Q368.3438,824.2441 367.5381,825.499 Q366.7324,826.7539 366.7324,829.2246 Q366.7324,831.6855 367.5381,832.9404 Q368.3438,834.1953 369.9258,834.1953 Q370.668,834.1953 371.3662,833.8779 Q372.0645,833.5605 372.8066,832.877 Z " fill="#000000"/><text fill="#000000" font-family="sans-serif" font-size="20" lengthAdjust="spacing" textLength="163" x="389" y="836.5586">VisitRequestDTO</text><line style="stroke:#181818;stroke-width:0.5;" x1="337" x2="572" y1="846" y2="846"/><text fill="#000000" font-family="sans-serif" font-size="20" lengthAdjust="spacing" textLength="122" x="342" y="869.3359">-String date;</text><text fill="#000000" font-family="sans-serif" font-size="20" lengthAdjust="spacing" textLength="137" x="342" y="892.8906">-String status;</text><text fill="#000000" font-family="sans-serif" font-size="20" lengthAdjust="spacing" textLength="221" x="342" y="916.4453">-AgentDTO agentDTO;</text><text fill="#000000" font-family="sans-serif" font-size="20" lengthAdjust="spacing" textLength="225" x="342" y="940">-List&lt;String&gt; timeSlot;</text><text fill="#000000" font-family="sans-serif" font-size="20" lengthAdjust="spacing" textLength="177" x="342" y="963.5547">-String userName;</text><text fill="#000000" font-family="sans-serif" font-size="20" lengthAdjust="spacing" textLength="133" x="342" y="987.1094">-String email;</text><line style="stroke:#181818;stroke-width:0.5;" x1="337" x2="572" y1="995.3281" y2="995.3281"/></g><!--class aMapper--><g id="elem_aMapper"><rect codeLine="79" fill="#F1F1F1" height="97.1094" id="aMapper" rx="2.5" ry="2.5" style="stroke:#181818;stroke-width:0.5;" width="361" x="2343" y="259.5"/><ellipse cx="2410.5" cy="276.5" fill="#ADD1B2" rx="12" ry="12" style="stroke:#181818;stroke-width:1.0;"/><path d="M2413.3066,283.5801 Q2412.623,283.9316 2411.8711,284.1074 Q2411.1191,284.2832 2410.2891,284.2832 Q2407.3398,284.2832 2405.7871,282.3398 Q2404.2344,280.3965 2404.2344,276.7246 Q2404.2344,273.043 2405.7871,271.0996 Q2407.3398,269.1563 2410.2891,269.1563 Q2411.1191,269.1563 2411.8809,269.332 Q2412.6426,269.5078 2413.3066,269.8594 L2413.3066,273.0625 Q2412.5645,272.3789 2411.8662,272.0615 Q2411.168,271.7441 2410.4258,271.7441 Q2408.8438,271.7441 2408.0381,272.999 Q2407.2324,274.2539 2407.2324,276.7246 Q2407.2324,279.1855 2408.0381,280.4404 Q2408.8438,281.6953 2410.4258,281.6953 Q2411.168,281.6953 2411.8662,281.3779 Q2412.5645,281.0605 2413.3066,280.377 Z " fill="#000000"/><text fill="#000000" font-family="sans-serif" font-size="20" lengthAdjust="spacing" textLength="217" x="2432.5" y="284.0586">AnnouncementMapper</text><line style="stroke:#181818;stroke-width:0.5;" x1="2344" x2="2703" y1="293.5" y2="293.5"/><line style="stroke:#181818;stroke-width:0.5;" x1="2344" x2="2703" y1="301.5" y2="301.5"/><text fill="#000000" font-family="sans-serif" font-size="20" lengthAdjust="spacing" textLength="349" x="2349" y="324.8359">+toDto(ListAnnouncementAvailable)</text><text fill="#000000" font-family="sans-serif" font-size="20" lengthAdjust="spacing" textLength="315" x="2349" y="348.3906">+toDto(AnnouncementAvailable)</text></g><!--class aDTO--><g id="elem_aDTO"><rect codeLine="83" fill="#F1F1F1" height="356.2109" id="aDTO" rx="2.5" ry="2.5" style="stroke:#181818;stroke-width:0.5;" width="618" x="1639.5" y="1064"/><ellipse cx="1850" cy="1081" fill="#ADD1B2" rx="12" ry="12" style="stroke:#181818;stroke-width:1.0;"/><path d="M1852.8066,1088.0801 Q1852.123,1088.4316 1851.3711,1088.6074 Q1850.6191,1088.7832 1849.7891,1088.7832 Q1846.8398,1088.7832 1845.2871,1086.8398 Q1843.7344,1084.8965 1843.7344,1081.2246 Q1843.7344,1077.543 1845.2871,1075.5996 Q1846.8398,1073.6563 1849.7891,1073.6563 Q1850.6191,1073.6563 1851.3809,1073.832 Q1852.1426,1074.0078 1852.8066,1074.3594 L1852.8066,1077.5625 Q1852.0645,1076.8789 1851.3662,1076.5615 Q1850.668,1076.2441 1849.9258,1076.2441 Q1848.3438,1076.2441 1847.5381,1077.499 Q1846.7324,1078.7539 1846.7324,1081.2246 Q1846.7324,1083.6855 1847.5381,1084.9404 Q1848.3438,1086.1953 1849.9258,1086.1953 Q1850.668,1086.1953 1851.3662,1085.8779 Q1852.0645,1085.5605 1852.8066,1084.877 Z " fill="#000000"/><text fill="#000000" font-family="sans-serif" font-size="20" lengthAdjust="spacing" textLength="188" x="1872" y="1088.5586">AnnouncementDTO</text><line style="stroke:#181818;stroke-width:0.5;" x1="1640.5" x2="2256.5" y1="1098" y2="1098"/><text fill="#000000" font-family="sans-serif" font-size="20" lengthAdjust="spacing" textLength="128" x="1645.5" y="1121.3359">private int id;</text><text fill="#000000" font-family="sans-serif" font-size="20" lengthAdjust="spacing" textLength="188" x="1645.5" y="1144.8906">-double comission;</text><text fill="#000000" font-family="sans-serif" font-size="20" lengthAdjust="spacing" textLength="139" x="1645.5" y="1168.4453">-double price;</text><text fill="#000000" font-family="sans-serif" font-size="20" lengthAdjust="spacing" textLength="110" x="1645.5" y="1192">-Date date;</text><text fill="#000000" font-family="sans-serif" font-size="20" lengthAdjust="spacing" textLength="211" x="1645.5" y="1215.5547">-String businessType;</text><text fill="#000000" font-family="sans-serif" font-size="20" lengthAdjust="spacing" textLength="230" x="1645.5" y="1239.1094">-PropertyDTO property;</text><text fill="#000000" font-family="sans-serif" font-size="20" lengthAdjust="spacing" textLength="177" x="1645.5" y="1262.6641">-AgentDTO agent;</text><text fill="#000000" font-family="sans-serif" font-size="20" lengthAdjust="spacing" textLength="251" x="1645.5" y="1286.2188">-Integer contractDuration;</text><text fill="#000000" font-family="sans-serif" font-size="20" lengthAdjust="spacing" textLength="177" x="1645.5" y="1309.7734">-Double salePrice;</text><text fill="#000000" font-family="sans-serif" font-size="20" lengthAdjust="spacing" textLength="150" x="1645.5" y="1333.3281">-Date saleDate;</text><text fill="#000000" font-family="sans-serif" font-size="20" lengthAdjust="spacing" textLength="203" x="1645.5" y="1356.8828">-AgencyDTO agency;</text><line style="stroke:#181818;stroke-width:0.5;" x1="1640.5" x2="2256.5" y1="1365.1016" y2="1365.1016"/><text fill="#000000" font-family="sans-serif" font-size="20" lengthAdjust="spacing" textLength="606" x="1645.5" y="1388.4375">-List&lt;VisitRequestDTO&gt; visitRequestList = new ArrayList&lt;&gt;();</text><text fill="#000000" font-family="sans-serif" font-size="20" lengthAdjust="spacing" textLength="479" x="1645.5" y="1411.9922">-List&lt;OrderDTO&gt; orderList = new ArrayList&lt;&gt;();</text></g><!--link UI to ctrl--><g id="link_UI_ctrl"><path codeLine="99" d="M248.03,91 C390.6,91 608.83,91 608.83,91 C608.83,91 1090.17,91 1090.17,91 C1090.17,91 1154.98,91 1237.03,91 " fill="none" id="UI-to-ctrl" style="stroke:#181818;stroke-width:1.0;stroke-dasharray:7.0,7.0;"/><polygon fill="#181818" points="1242.46,91,1233.46,87,1237.46,91,1233.46,95,1242.46,91" style="stroke:#181818;stroke-width:1.0;"/></g><!--link ctrl to repo2--><g id="link_ctrl_repo2"><path codeLine="101" d="M1242.44,164.26 C1138.84,187.02 1024.46,212.14 920.9,234.88 " fill="none" id="ctrl-to-repo2" style="stroke:#181818;stroke-width:1.0;stroke-dasharray:7.0,7.0;"/><polygon fill="#181818" points="915.98,235.96,925.6279,237.9393,920.8639,234.889,923.9143,230.125,915.98,235.96" style="stroke:#181818;stroke-width:1.0;"/></g><!--link ctrl to repo--><g id="link_ctrl_repo"><path codeLine="102" d="M1419.17,175.12 C1360.22,207.29 1295.64,242.53 1248.08,268.49 " fill="none" id="ctrl-to-repo" style="stroke:#181818;stroke-width:1.0;stroke-dasharray:7.0,7.0;"/><polygon fill="#181818" points="1243.53,270.97,1253.3454,270.1585,1247.9162,268.5697,1249.5049,263.1406,1243.53,270.97" style="stroke:#181818;stroke-width:1.0;"/></g><!--link ctrl to Repositories--><g id="link_ctrl_Repositories"><path codeLine="103" d="M1724.99,175.12 C1760.49,194.35 1798.02,214.67 1832.7,233.45 " fill="none" id="ctrl-to-Repositories" style="stroke:#181818;stroke-width:1.0;stroke-dasharray:7.0,7.0;"/><polygon fill="#181818" points="1837.35,235.97,1831.3448,228.1638,1832.9545,233.5867,1827.5316,235.1965,1837.35,235.97" style="stroke:#181818;stroke-width:1.0;"/></g><!--link ctrl to announcement--><g id="link_ctrl_announcement"><path codeLine="104" d="M1901,161.47 C2075.65,198.29 2254.5,236 2254.5,236 C2254.5,236 2254.5,380 2254.5,380 C2254.5,380 2118.88,440.78 1996.05,495.82 " fill="none" id="ctrl-to-announcement" style="stroke:#181818;stroke-width:1.0;stroke-dasharray:7.0,7.0;"/><polygon fill="#181818" points="1991.32,497.94,2001.1688,497.9085,1995.8825,495.8947,1997.8964,490.6085,1991.32,497.94" style="stroke:#181818;stroke-width:1.0;"/></g><!--link ctrl to userSession--><g id="link_ctrl_userSession"><path codeLine="105" d="M1514.67,175.12 C1493.2,206.51 1469.74,240.83 1452.13,266.59 " fill="none" id="ctrl-to-userSession" style="stroke:#181818;stroke-width:1.0;stroke-dasharray:7.0,7.0;"/><polygon fill="#181818" points="1449.14,270.97,1457.5266,265.8062,1451.966,266.8452,1450.9269,261.2846,1449.14,270.97" style="stroke:#181818;stroke-width:1.0;"/></g><!--link ctrl to aMapper--><g id="link_ctrl_aMapper"><path codeLine="106" d="M1900.54,141.97 C2099.69,172.22 2315.5,205 2315.5,205 C2315.5,205 2369,231.23 2421.73,257.09 " fill="none" id="ctrl-to-aMapper" style="stroke:#181818;stroke-width:1.0;stroke-dasharray:7.0,7.0;"/><polygon fill="#181818" points="2426.5,259.43,2420.1809,251.8756,2422.0108,257.2283,2416.6582,259.0583,2426.5,259.43" style="stroke:#181818;stroke-width:1.0;"/></g><!--link ctrl to aDTO--><g id="link_ctrl_aDTO"><path codeLine="107" d="M1900.66,133.22 C2240.5,175.77 2721.5,236 2721.5,236 C2721.5,236 2757.5,307 2757.5,307 C2757.5,307 2757.5,307 2757.5,908.5 C2757.5,908.5 2489.67,1018.58 2262.21,1112.06 " fill="none" id="ctrl-to-aDTO" style="stroke:#181818;stroke-width:1.0;stroke-dasharray:7.0,7.0;"/><polygon fill="#181818" points="2257.52,1113.99,2267.3648,1114.2727,2262.1455,1112.0913,2264.3268,1106.8719,2257.52,1113.99" style="stroke:#181818;stroke-width:1.0;"/></g><!--link UI to aDTO--><g id="link_UI_aDTO"><path codeLine="108" d="M114.31,116.25 C83.71,172.47 10.5,307 10.5,307 C10.5,307 10.5,307 10.5,908.5 C10.5,908.5 46.5,1003 46.5,1003 C46.5,1003 1094.08,1134.09 1634.33,1201.69 " fill="none" id="UI-to-aDTO" style="stroke:#181818;stroke-width:1.0;stroke-dasharray:7.0,7.0;"/><polygon fill="#181818" points="1639.47,1202.33,1631.0428,1197.2327,1634.5095,1201.7028,1630.0393,1205.1695,1639.47,1202.33" style="stroke:#181818;stroke-width:1.0;"/></g><!--link repo to userSession--><g id="link_repo_userSession"><path codeLine="109" d="M1315.21,308 C1330.1,308 1342.17,308 1342.17,308 C1342.17,308 1343.08,308 1344.72,308 " fill="none" id="repo-to-userSession" style="stroke:#181818;stroke-width:1.0;stroke-dasharray:7.0,7.0;"/><polygon fill="#181818" points="1349.76,308,1340.76,304,1344.76,308,1340.76,312,1349.76,308" style="stroke:#181818;stroke-width:1.0;"/></g><!--link repo to facade--><g id="link_repo_facade"><path codeLine="110" d="M1239.78,271 C1289.19,241.64 1350,205.5 1350,205.5 C1350,205.5 1499,205.5 1499,205.5 C1499,205.5 1550.45,239.41 1594.16,268.22 " fill="none" id="repo-to-facade" style="stroke:#181818;stroke-width:1.0;stroke-dasharray:7.0,7.0;"/><polygon fill="#181818" points="1598.36,271,1593.0574,262.7004,1594.1888,268.243,1588.6462,269.3744,1598.36,271" style="stroke:#181818;stroke-width:1.0;"/></g><!--link userSession to facade--><g id="link_userSession_facade"><path codeLine="111" d="M1499.27,308 C1500.49,308 1501.17,308 1501.17,308 C1501.17,308 1513.87,308 1528.94,308 " fill="none" id="userSession-to-facade" style="stroke:#181818;stroke-width:1.0;stroke-dasharray:7.0,7.0;"/><polygon fill="#181818" points="1534.13,308,1525.13,304,1529.13,308,1525.13,312,1534.13,308" style="stroke:#181818;stroke-width:1.0;"/></g><!--link vr to vrDTO--><g id="link_vr_vrDTO"><path codeLine="112" d="M301.36,907.5 C310.66,907.5 321.08,907.5 330.71,907.5 " fill="none" id="vr-to-vrDTO" style="stroke:#181818;stroke-width:1.0;stroke-dasharray:7.0,7.0;"/><polygon fill="#181818" points="335.97,907.5,326.97,903.5,330.97,907.5,326.97,911.5,335.97,907.5" style="stroke:#181818;stroke-width:1.0;"/></g><!--link UI to vrDTO--><g id="link_UI_vrDTO"><path codeLine="113" d="M130.42,116.06 C138.84,185.28 162.5,380 162.5,380 C162.5,380 314.87,654.74 399.48,807.29 " fill="none" id="UI-to-vrDTO" style="stroke:#181818;stroke-width:1.0;stroke-dasharray:7.0,7.0;"/><polygon fill="#181818" points="401.96,811.76,401.0858,801.95,399.5318,807.3892,394.0926,805.8352,401.96,811.76" style="stroke:#181818;stroke-width:1.0;"/></g><!--link Repositories to Repositories--><g id="link_Repositories_Repositories"><path codeLine="114" d="M2127.58,291.05 C2148.58,293.94 2162.5,299.59 2162.5,308 C2162.5,315.69 2150.87,321.07 2132.83,324.14 " fill="none" id="Repositories-to-Repositories" style="stroke:#181818;stroke-width:1.0;"/><polygon fill="#181818" points="2127.58,324.95,2137.0819,327.5412,2132.5224,324.1929,2135.8706,319.6334,2127.58,324.95" style="stroke:#181818;stroke-width:1.0;"/><text fill="#000000" font-family="sans-serif" font-size="20" lengthAdjust="spacing" textLength="79" x="2168.5" y="315.8359">instance</text></g><!--reverse link vrDTO to aDTO--><g id="link_vrDTO_aDTO"><path codeLine="115" d="M586.3,937.83 C820.51,989.96 1315.06,1100.02 1639.39,1172.21 " fill="none" id="vrDTO-backto-aDTO" style="stroke:#181818;stroke-width:1.0;"/><polygon fill="none" points="573.29,934.94,578.2757,940.1499,585.0024,937.5515,580.0167,932.3416,573.29,934.94" style="stroke:#181818;stroke-width:1.0;"/></g><!--link repo2 to announcement--><g id="link_repo2_announcement"><path codeLine="116" d="M905.81,380.01 C1127.39,430.22 1417.54,495.98 1606.66,538.84 " fill="none" id="repo2-to-announcement" style="stroke:#181818;stroke-width:1.0;"/><polygon fill="#181818" points="1611.67,539.98,1603.7885,534.0739,1606.7959,538.8651,1602.0047,541.8725,1611.67,539.98" style="stroke:#181818;stroke-width:1.0;"/><text fill="#000000" font-family="sans-serif" font-size="20" lengthAdjust="spacing" textLength="13" x="923.0116" y="407.583">1</text><text fill="#000000" font-family="sans-serif" font-size="20" lengthAdjust="spacing" textLength="10" x="1594.0595" y="534.1669">*</text></g><!--reverse link announcement to vr--><g id="link_announcement_vr"><path codeLine="118" d="M1598.73,616.04 C1192.72,678.18 318.5,812 318.5,812 C318.5,812 311.76,816.68 301.28,823.97 " fill="none" id="announcement-backto-vr" style="stroke:#181818;stroke-width:1.0;"/><polygon fill="none" points="1611.79,614.04,1605.2526,610.9967,1599.9289,615.8607,1606.4664,618.9041,1611.79,614.04" style="stroke:#181818;stroke-width:1.0;"/><text fill="#000000" font-family="sans-serif" font-size="20" lengthAdjust="spacing" textLength="80" x="678.5" y="777.3359">contains</text><text fill="#000000" font-family="sans-serif" font-size="20" lengthAdjust="spacing" textLength="13" x="1591.1255" y="611.1198">1</text><text fill="#000000" font-family="sans-serif" font-size="20" lengthAdjust="spacing" textLength="10" x="308.8228" y="814.5219">*</text></g><!--link aMapper to announcement--><g id="link_aMapper_announcement"><path codeLine="121" d="M2426.5,356.57 C2372.28,383.16 2315.5,411 2315.5,411 C2315.5,411 2141.7,469.16 1996.23,517.84 " fill="none" id="aMapper-to-announcement" style="stroke:#181818;stroke-width:1.0;stroke-dasharray:7.0,7.0;"/><polygon fill="#181818" points="1991.07,519.56,2000.8739,520.4998,1995.812,517.9746,1998.3372,512.9126,1991.07,519.56" style="stroke:#181818;stroke-width:1.0;"/></g><!--link aMapper to aDTO--><g id="link_aMapper_aDTO"><path codeLine="122" d="M2494,356.82 C2415.05,484.79 2195.79,840.17 2060.51,1059.45 " fill="none" id="aMapper-to-aDTO" style="stroke:#181818;stroke-width:1.0;stroke-dasharray:7.0,7.0;"/><polygon fill="#181818" points="2057.72,1063.96,2065.8383,1058.3839,2060.3365,1059.6993,2059.0211,1054.1975,2057.72,1063.96" style="stroke:#181818;stroke-width:1.0;"/></g><!--SRC=[rLPBJnin4BxxLrYv45g2A4UWaL8Yf9MW80BjsNWd6pVEUcjxWrB4V-_uiLalMOfQJirXDPxvPZnlnon5MJ7DLbBn9UGqXpchfRrGfPs9Nq2FZyYUQJ1qfKh55rgjW5fT0sab5UDBLi3CRYHG3Tooif0fm2nOhXv5MT0vaoQLI562tLH0AoKtxf3Uk1KgRHL9jBXanaoirUAXjf1nLNf_ZmZPap2tr2ggHR6mD1VE7Q5AGhmE7KpAKjKbXnMKzXm3rKfAq0FA3ELMooT2yVUHQs0M-h73_O0fmCxu0l9QmZTXX3LH5LKiw9jQLyh0CBKnlRi-yD1R-5c3SUTeYt4EbNMoA7fBxy2A5Soaij60XXyOQ0hw2mlaUPkTsYuGBZXpIRi5345OfJS-FngFz8biep-ljKRmlG4z0sDGOPZQIlXUlMxFJriR3fJbgFTC-dsuO9pbu0tCFKcZiZ2NgYWWpygkTX9rZ__7bBQNfzZlmYxI39aBfQyVIz1VDjbqM7itTuhLWA_0BbJ-_fhzcvrknxtBNdyU9sic97kGeGmiaSHaZZ8aHHxeAKuEpV4JZwf6JShLIlZQTxYL5ZpYRhIgGDiDROXBOMmGJGft5NFVm72YipIASJgsdIbOzyzRdh-A2f3HcacH_ybQcgtp1V1bPnlSPpvPzzbJ2zlsem3JPAx3R5OBnURCIeDxbCDmdvvqG2salzTJ8w_Din-Pw7iQeFTvhODlmRyPRbbSt2uLfxjizD7M9XNuOc6cGxsGI8M-S45rJ9kswp7hvkqhM_NT22jinfRV6mRU6YD1wZy8vfMvks9L5Tyc5kYukwoQMZLqz_UEwNwAUWNnt7TXapVcquR3kNQpBFnmdyP-pL_Cymk-d-Y6jrq53IE6_L0RVDgDkSF7lH4rO- -oNKMwaUtCEuB6D1r6Xw2VQGcFTA8ryylZR3pSRonq2zcnUwrpqDwWSjHRbd3LGG4Q4u1_21YtqrhxuTh67F9Wc8IRdLmuxZJ9XtEBRng_-CQtmdr63yV-tmXs1NxfuMWS7g_kiJrrriEMcoxgbfiymmaqj5V2G9-Y8vxqR_zXLxlXXNUP9AA4kzRku0SnsWjqPnU-204NdeZRZmGuLQDHwyWn7NmQZ4RZmOT1DqZIUPiGvFKS3DquyILZQ9aWC0IycwUEm5r8o6y0]--></g></svg>