<?xml version="1.0" encoding="UTF-8" standalone="no"?><svg xmlns="http://www.w3.org/2000/svg" xmlns:xlink="http://www.w3.org/1999/xlink" contentStyleType="text/css" height="1700px" preserveAspectRatio="none" style="width:1212px;height:1700px;background:#FFFFFF;" version="1.1" viewBox="0 0 1212 1700" width="1212px" zoomAndPan="magnify"><defs/><g><!--cluster System--><g id="cluster_System"><rect fill="none" height="1687" rx="2.5" ry="2.5" style="stroke:#181818;stroke-width:1.0;" width="952" x="254" y="7"/><text fill="#000000" font-family="sans-serif" font-size="20" font-weight="bold" lengthAdjust="spacing" textLength="73" x="693.5" y="28.3359">System</text></g><g id="elem_US001"><ellipse cx="729.8826" cy="197.0765" fill="#F1F1F1" rx="183.3826" ry="39.0765" style="stroke:#181818;stroke-width:0.5;"/><text fill="#000000" font-family="sans-serif" font-size="20" lengthAdjust="spacing" textLength="329" x="565.3826" y="202.6351">US 001 - Display listed properties</text></g><g id="elem_US002"><ellipse cx="729.9785" cy="299.1957" fill="#F1F1F1" rx="128.9785" ry="28.1957" style="stroke:#181818;stroke-width:0.5;"/><text fill="#000000" font-family="sans-serif" font-size="20" lengthAdjust="spacing" textLength="209" x="622.4785" y="306.1137">US 002 - Publish Sale</text></g><g id="elem_US003"><ellipse cx="729.8011" cy="923.8602" fill="#F1F1F1" rx="184.8011" ry="39.3602" style="stroke:#181818;stroke-width:0.5;"/><text fill="#000000" font-family="sans-serif" font-size="20" lengthAdjust="spacing" textLength="332" x="563.8011" y="929.4188">US 003 - Register a new employee</text></g><g id="elem_US004"><ellipse cx="729.8706" cy="1144.7741" fill="#F1F1F1" rx="231.8706" ry="48.7741" style="stroke:#181818;stroke-width:0.5;"/><text fill="#000000" font-family="sans-serif" font-size="20" lengthAdjust="spacing" textLength="372" x="537.8706" y="1139.9147">US 004 - Submit a request for listing a</text><text fill="#000000" font-family="sans-serif" font-size="20" lengthAdjust="spacing" textLength="196" x="628.8706" y="1163.4694">property sale or rent</text></g><g id="elem_US005"><ellipse cx="729.7643" cy="1030.1529" fill="#F1F1F1" rx="143.7643" ry="31.1529" style="stroke:#181818;stroke-width:0.5;"/><text fill="#000000" font-family="sans-serif" font-size="20" lengthAdjust="spacing" textLength="243" x="605.2643" y="1037.0708">US 005 - Register a store</text></g><g id="elem_US007"><ellipse cx="730.0855" cy="85.8171" fill="#F1F1F1" rx="172.0855" ry="36.8171" style="stroke:#181818;stroke-width:0.5;"/><text fill="#000000" font-family="sans-serif" font-size="20" lengthAdjust="spacing" textLength="305" x="577.5855" y="91.3757">US 007 - Register in the system</text></g><g id="elem_US008"><ellipse cx="730.2011" cy="646.0402" fill="#F1F1F1" rx="285.7011" ry="59.5402" style="stroke:#181818;stroke-width:0.5;"/><text fill="#000000" font-family="sans-serif" font-size="20" lengthAdjust="spacing" textLength="541" x="459.7011" y="651.5988">US 008 - See agent requests and publish announcement</text></g><g id="elem_US009"><ellipse cx="729.7643" cy="1520.1529" fill="#F1F1F1" rx="143.7643" ry="31.1529" style="stroke:#181818;stroke-width:0.5;"/><text fill="#000000" font-family="sans-serif" font-size="20" lengthAdjust="spacing" textLength="243" x="605.2643" y="1527.0708">US 009 - Register a store</text></g><g id="elem_US010"><ellipse cx="730.0615" cy="1281.8123" fill="#F1F1F1" rx="252.0615" ry="52.8123" style="stroke:#181818;stroke-width:0.5;"/><text fill="#000000" font-family="sans-serif" font-size="20" lengthAdjust="spacing" textLength="472" x="494.0615" y="1287.3709">US 010 - Place an order to purchase the property</text></g><g id="elem_US011"><ellipse cx="729.8114" cy="456.8623" fill="#F1F1F1" rx="459.8114" ry="94.3623" style="stroke:#181818;stroke-width:0.5;"/><text fill="#000000" font-family="sans-serif" font-size="20" lengthAdjust="spacing" textLength="894" x="282.8114" y="462.4209">US 011 - List real estate purchase orders to accept or decline a purchase order for a property</text></g><g id="elem_US012"><ellipse cx="729.8819" cy="795.0764" fill="#F1F1F1" rx="258.3819" ry="54.0764" style="stroke:#181818;stroke-width:0.5;"/><text fill="#000000" font-family="sans-serif" font-size="20" lengthAdjust="spacing" textLength="485" x="487.3819" y="800.635">US 012 - Import information from a legacy system</text></g><g id="elem_US013"><ellipse cx="729.7514" cy="1631.8503" fill="#F1F1F1" rx="217.2514" ry="45.8503" style="stroke:#181818;stroke-width:0.5;"/><text fill="#000000" font-family="sans-serif" font-size="20" lengthAdjust="spacing" textLength="400" x="529.7514" y="1637.4089">US 013 - List all employees in every store</text></g><g id="elem_US014"><ellipse cx="729.7894" cy="1411.7579" fill="#F1F1F1" rx="194.2894" ry="41.2579" style="stroke:#181818;stroke-width:0.5;"/><text fill="#000000" font-family="sans-serif" font-size="20" lengthAdjust="spacing" textLength="352" x="553.7894" y="1417.3165">US 014 - Register user in the system</text></g><!--entity user--><g id="elem_user"><ellipse cx="108" cy="108.5" fill="#F1F1F1" rx="8" ry="8" style="stroke:#181818;stroke-width:0.5;"/><path d="M108,116.5 L108,143.5 M95,124.5 L121,124.5 M108,143.5 L95,158.5 M108,143.5 L121,158.5 " fill="none" style="stroke:#181818;stroke-width:0.5;"/><text fill="#000000" font-family="sans-serif" font-size="20" lengthAdjust="spacing" textLength="172" x="22" y="179.3359">Unregistered User</text></g><!--entity Agent--><g id="elem_Agent"><ellipse cx="108" cy="423.5" fill="#F1F1F1" rx="8" ry="8" style="stroke:#181818;stroke-width:0.5;"/><path d="M108,431.5 L108,458.5 M95,439.5 L121,439.5 M108,458.5 L95,473.5 M108,458.5 L121,473.5 " fill="none" style="stroke:#181818;stroke-width:0.5;"/><text fill="#000000" font-family="sans-serif" font-size="20" lengthAdjust="spacing" textLength="56" x="80" y="494.3359">Agent</text></g><!--entity admin--><g id="elem_admin"><ellipse cx="108" cy="890.5" fill="#F1F1F1" rx="8" ry="8" style="stroke:#181818;stroke-width:0.5;"/><path d="M108,898.5 L108,925.5 M95,906.5 L121,906.5 M108,925.5 L95,940.5 M108,925.5 L121,940.5 " fill="none" style="stroke:#181818;stroke-width:0.5;"/><text fill="#000000" font-family="sans-serif" font-size="20" lengthAdjust="spacing" textLength="204" x="6" y="961.3359">System administrator</text></g><!--entity Owner--><g id="elem_Owner"><ellipse cx="108" cy="1111.5" fill="#F1F1F1" rx="8" ry="8" style="stroke:#181818;stroke-width:0.5;"/><path d="M108,1119.5 L108,1146.5 M95,1127.5 L121,1127.5 M108,1146.5 L95,1161.5 M108,1146.5 L121,1161.5 " fill="none" style="stroke:#181818;stroke-width:0.5;"/><text fill="#000000" font-family="sans-serif" font-size="20" lengthAdjust="spacing" textLength="62" x="77" y="1182.3359">Owner</text></g><!--entity Client--><g id="elem_Client"><ellipse cx="108" cy="1378.5" fill="#F1F1F1" rx="8" ry="8" style="stroke:#181818;stroke-width:0.5;"/><path d="M108,1386.5 L108,1413.5 M95,1394.5 L121,1394.5 M108,1413.5 L95,1428.5 M108,1413.5 L121,1428.5 " fill="none" style="stroke:#181818;stroke-width:0.5;"/><text fill="#000000" font-family="sans-serif" font-size="20" lengthAdjust="spacing" textLength="56" x="80" y="1449.3359">Client</text></g><!--entity manager--><g id="elem_manager"><ellipse cx="108" cy="1598.5" fill="#F1F1F1" rx="8" ry="8" style="stroke:#181818;stroke-width:0.5;"/><path d="M108,1606.5 L108,1633.5 M95,1614.5 L121,1614.5 M108,1633.5 L95,1648.5 M108,1633.5 L121,1648.5 " fill="none" style="stroke:#181818;stroke-width:0.5;"/><text fill="#000000" font-family="sans-serif" font-size="20" lengthAdjust="spacing" textLength="170" x="23" y="1669.3359">Network manager</text></g><!--link user to US001--><g id="link_user_US001"><path d="M194.23,149.56 C288.25,157.9 441.91,171.53 560.45,182.05 " fill="none" id="user-US001" style="stroke:#181818;stroke-width:1.0;"/></g><!--link Agent to US002--><g id="link_Agent_US002"><path d="M136.08,426.4 C161.55,399.87 202.24,362.99 246,345 C361.49,297.51 505.2,289.59 605.71,291.35 " fill="none" id="Agent-US002" style="stroke:#181818;stroke-width:1.0;"/></g><!--link admin to US003--><g id="link_admin_US003"><path d="M210.34,924 C300.81,924 435.53,924 545,924 " fill="none" id="admin-US003" style="stroke:#181818;stroke-width:1.0;"/></g><!--link Owner to US004--><g id="link_Owner_US004"><path d="M139.32,1145 C204.24,1145 361.81,1145 497.74,1145 " fill="none" id="Owner-US004" style="stroke:#181818;stroke-width:1.0;"/></g><!--link admin to US005--><g id="link_admin_US005"><path d="M199.85,966.13 C215.01,971.89 230.77,977.15 246,981 C358.46,1009.44 489.59,1021.46 586.82,1026.5 " fill="none" id="admin-US005" style="stroke:#181818;stroke-width:1.0;"/></g><!--link user to US007--><g id="link_user_US007"><path d="M194.23,134.3 C291.07,125.55 451.19,111.09 571.02,100.27 " fill="none" id="user-US007" style="stroke:#181818;stroke-width:1.0;"/></g><!--link Agent to US008--><g id="link_Agent_US008"><path d="M136.11,486.7 C161.76,512.8 202.69,549.57 246,569 C311.47,598.37 386.34,616.74 457.27,628.17 " fill="none" id="Agent-US008" style="stroke:#181818;stroke-width:1.0;"/></g><!--link Client to US009--><g id="link_Client_US009"><path d="M136.19,1426.67 C163.22,1440.53 206.27,1460.69 246,1471 C358.18,1500.11 489.19,1512.08 586.44,1516.93 " fill="none" id="Client-US009" style="stroke:#181818;stroke-width:1.0;"/></g><!--link Client to US010--><g id="link_Client_US010"><path d="M136.04,1397.85 C163.13,1384.27 206.39,1364.23 246,1353 C327.13,1329.99 418.16,1314.15 499.14,1303.37 " fill="none" id="Client-US010" style="stroke:#181818;stroke-width:1.0;"/></g><!--link Agent to US011--><g id="link_Agent_US011"><path d="M136.04,457 C164.36,457 212.63,457 269.78,457 " fill="none" id="Agent-US011" style="stroke:#181818;stroke-width:1.0;"/></g><!--link admin to US012--><g id="link_admin_US012"><path d="M201.51,881.92 C216.19,876.29 231.36,871.07 246,867 C326.15,844.72 415.82,828.94 495.94,817.95 " fill="none" id="admin-US012" style="stroke:#181818;stroke-width:1.0;"/></g><!--link manager to US013--><g id="link_manager_US013"><path d="M193.26,1632 C274.96,1632 402.34,1632 512.4,1632 " fill="none" id="manager-US013" style="stroke:#181818;stroke-width:1.0;"/></g><!--link Client to US014--><g id="link_Client_US014"><path d="M136.04,1412 C204.56,1412 389.91,1412 535.32,1412 " fill="none" id="Client-US014" style="stroke:#181818;stroke-width:1.0;"/></g><!--SRC=[VLHDhzCm4BpxLwnwUQTAJJ_KzeWU824XG4IzSTddR1EhZXriXn8G_vrrchI9UQA7gflCp8vdlVKNPHfqM6ihBrH0GMTiTNXlJSZLBuBrIZpv4GErDLPMpjO4mRKa7cyQb1SiAG-T9d0a0vfIqvJhAopiLPaIpgWz2Vuy1HKOVl84pyXVRnMM4Vhk9zODiuMcSu1WmQco2b2eAAoi4G9bi0uM9-EeL3wGO-iiunQ07bh-CI3Ub6J2YCuxHjQ0HQqCanpoqvxGFnbGdw_cpdxMQaB_HE5gtGLgD7pI6tFupMUvdnbkRNuBjY7ZgHQd75Qh39PyFjzex417omKqpZRaWYBVQvroHYMiDRE-j2zCg217JNVWEW5k6FXro08G35s1E4FRqOEpIJXRvkJjIwq2CnnzRya7EFDHexyuA8HlPZ3PWUVsm2yTHtANt2QIkxaDpy4z-kyIy7uALWP2HU3xyEwKVK8vHCj4W76kesSUeE4qXvZG6DiQIVNKvo7HEVxFvt4EpbPn21ebjpMSGC4KlfDDwsGLGT7scDAeaQqIZJZ-ZzoEFQC6Des17XAzg8-gA2Kr8UPSaDJASCy4ray8_-sON9qiNfqFTMDTu6oPKsDS7JZpzZ9TKucoI-BEabkLRKRNgFNzFlauA_f1hfldbYNtAzjEGuvB-VgGiwqGV-BVGGzPBeT5w5TtBDUYtz6nt8X-JSToEt-xcodjvqe7STlgiJxEQnxS5CwfJgKve67ZXtepi8UIJ_8N]--></g></svg>