<?xml version="1.0" encoding="UTF-8" standalone="no"?><svg xmlns="http://www.w3.org/2000/svg" xmlns:xlink="http://www.w3.org/1999/xlink" contentStyleType="text/css" height="407px" preserveAspectRatio="none" style="width:679px;height:407px;background:#FFFFFF;" version="1.1" viewBox="0 0 679 407" width="679px" zoomAndPan="magnify"><defs/><g><text fill="#000000" font-family="sans-serif" font-size="14" font-weight="bold" lengthAdjust="spacing" textLength="355" x="155.25" y="23.5352">Domain Model US003 - Register a new employee</text><!--class admin--><g id="elem_admin"><rect codeLine="26" fill="#F1F1F1" height="41.5547" id="admin" rx="2.5" ry="2.5" style="stroke:#181818;stroke-width:0.5;" width="141" x="7" y="346.9883"/><text fill="#000000" font-family="sans-serif" font-size="20" lengthAdjust="spacing" textLength="135" x="10" y="371.3242">System admin</text><line style="stroke:#181818;stroke-width:0.5;" x1="8" x2="147" y1="380.543" y2="380.543"/></g><!--class Employee--><g id="elem_Employee"><rect codeLine="16" fill="#F1F1F1" height="206.4375" id="Employee" rx="2.5" ry="2.5" style="stroke:#181818;stroke-width:0.5;" width="150" x="193.5" y="44.4883"/><text fill="#000000" font-family="sans-serif" font-size="20" lengthAdjust="spacing" textLength="93" x="222" y="68.8242">Employee</text><line style="stroke:#181818;stroke-width:0.5;" x1="194.5" x2="342.5" y1="78.043" y2="78.043"/><text fill="#000000" font-family="sans-serif" font-size="20" lengthAdjust="spacing" textLength="19" x="199.5" y="101.3789">id</text><text fill="#000000" font-family="sans-serif" font-size="20" lengthAdjust="spacing" textLength="53" x="199.5" y="124.9336">name</text><text fill="#000000" font-family="sans-serif" font-size="20" lengthAdjust="spacing" textLength="138" x="199.5" y="148.4883">phoneNumber</text><text fill="#000000" font-family="sans-serif" font-size="20" lengthAdjust="spacing" textLength="53" x="199.5" y="172.043">email</text><text fill="#000000" font-family="sans-serif" font-size="20" lengthAdjust="spacing" textLength="116" x="199.5" y="195.5977">civilNumber</text><text fill="#000000" font-family="sans-serif" font-size="20" lengthAdjust="spacing" textLength="108" x="199.5" y="219.1523">taxNumber</text><text fill="#000000" font-family="sans-serif" font-size="20" lengthAdjust="spacing" textLength="92" x="199.5" y="242.707">password</text></g><!--class agent--><g id="elem_agent"><rect codeLine="27" fill="#F1F1F1" height="65.1094" id="agent" rx="2.5" ry="2.5" style="stroke:#181818;stroke-width:0.5;" width="78" x="206.5" y="335.4883"/><text fill="#000000" font-family="sans-serif" font-size="20" lengthAdjust="spacing" textLength="53" x="219" y="359.8242">agent</text><line style="stroke:#181818;stroke-width:0.5;" x1="207.5" x2="283.5" y1="369.043" y2="369.043"/><text fill="#000000" font-family="sans-serif" font-size="20" lengthAdjust="spacing" textLength="66" x="212.5" y="392.3789">agency</text></g><!--class SManager--><g id="elem_SManager"><rect codeLine="30" fill="#F1F1F1" height="41.5547" id="SManager" rx="2.5" ry="2.5" style="stroke:#181818;stroke-width:0.5;" width="143" x="320" y="346.9883"/><text fill="#000000" font-family="sans-serif" font-size="20" lengthAdjust="spacing" textLength="137" x="323" y="371.3242">Store Manager</text><line style="stroke:#181818;stroke-width:0.5;" x1="321" x2="462" y1="380.543" y2="380.543"/></g><!--class NManager--><g id="elem_NManager"><rect codeLine="31" fill="#F1F1F1" height="41.5547" id="NManager" rx="2.5" ry="2.5" style="stroke:#181818;stroke-width:0.5;" width="174" x="498.5" y="346.9883"/><text fill="#000000" font-family="sans-serif" font-size="20" lengthAdjust="spacing" textLength="168" x="501.5" y="371.3242">Network Manager</text><line style="stroke:#181818;stroke-width:0.5;" x1="499.5" x2="671.5" y1="380.543" y2="380.543"/></g><!--reverse link Employee to admin--><g id="link_Employee_admin"><path codeLine="39" d="M175.22,186.1983 C135.4,207.5283 92.98,238.4783 70.5,280.4883 C59.48,301.0783 64.37,328.4483 69.95,346.8383 " fill="none" id="Employee-backto-admin" style="stroke:#181818;stroke-width:1.0;"/><polygon fill="none" points="172.25,179.8583,193.25,177.0683,178.57,192.3483,172.25,179.8583" style="stroke:#181818;stroke-width:1.0;"/></g><!--link Employee to admin--><g id="link_Employee_admin"><path codeLine="44" d="M193.29,195.1883 C162.36,217.6583 128.48,247.0183 105.5,280.4883 C91.65,300.6583 84.31,328.1183 80.67,346.6383 " fill="none" id="Employee-admin" style="stroke:#181818;stroke-width:1.0;"/><polygon fill="#000000" points="118.2737,286.846,105.8646,295.6533,113.4113,301.2651,118.2737,286.846" style="stroke:#000000;stroke-width:1.0;"/><text fill="#000000" font-family="sans-serif" font-size="20" lengthAdjust="spacing" textLength="117" x="126.5" y="300.8242">register new</text><text fill="#000000" font-family="sans-serif" font-size="20" lengthAdjust="spacing" textLength="10" x="175.3943" y="195.0934">*</text><text fill="#000000" font-family="sans-serif" font-size="20" lengthAdjust="spacing" textLength="13" x="66.8167" y="334.6845">1</text></g><!--reverse link Employee to agent--><g id="link_Employee_agent"><path codeLine="40" d="M255.62,270.8183 C253.11,294.6583 250.69,317.6583 248.85,335.1883 " fill="none" id="Employee-backto-agent" style="stroke:#181818;stroke-width:1.0;"/><polygon fill="none" points="248.69,269.8583,257.74,250.6983,262.61,271.3283,248.69,269.8583" style="stroke:#181818;stroke-width:1.0;"/></g><!--reverse link Employee to SManager--><g id="link_Employee_SManager"><path codeLine="41" d="M335.9,268.2183 C353.08,298.7483 369.65,328.1683 380.16,346.8383 " fill="none" id="Employee-backto-SManager" style="stroke:#181818;stroke-width:1.0;"/><polygon fill="none" points="329.75,271.5583,326.04,250.6983,341.95,264.6983,329.75,271.5583" style="stroke:#181818;stroke-width:1.0;"/></g><!--reverse link Employee to NManager--><g id="link_Employee_NManager"><path codeLine="42" d="M360.5,211.8983 C426.93,257.6883 512.39,316.5983 556.41,346.9383 " fill="none" id="Employee-backto-NManager" style="stroke:#181818;stroke-width:1.0;"/><polygon fill="none" points="356.12,217.3883,343.62,200.2683,364.06,205.8583,356.12,217.3883" style="stroke:#181818;stroke-width:1.0;"/></g><!--SRC=[ZLBBJiCm4BpxArOv8aKAS4C82GcGEBG78ZvWQsyRgtv4zePIIlyTnqdQK2xuujsTsPtn8swrQp6WDLvkIO6YDNQ6NxpZMdyHt5GYJXImtddP16y9E7GqGrgKMznGpNj344WokesP4sA3ok-qsy0QJIGXPfWq6ECZSz2hZkbLUfUbAo4QhGYa3ZBDoh4bRhoAGh3cfFJaBMe72w_8m7jTLRTGmXjjT6GAWE1e1sHRu_VKIsOXAEfzWYsWijeLW768u72S6CzZoq50MbhbpQ6b7BIDTxJix8f2pYbvC3cI-aER6SBuESlQD7hdWnB7VpWP2EbA7SDWeu_bNXnFlUm3mG9T0a9khiVat5yiYPFazXTjEQEDwtHYkFykoy75dsBlvR8uILxM9uqqUZXISLr0sRKb55V5cNkN_ihuMFrJFMGpFm00]--></g></svg>