<?xml version="1.0" encoding="UTF-8" standalone="no"?><svg xmlns="http://www.w3.org/2000/svg" xmlns:xlink="http://www.w3.org/1999/xlink" contentStyleType="text/css" height="770px" preserveAspectRatio="none" style="width:2629px;height:770px;background:#FFFFFF;" version="1.1" viewBox="0 0 2629 770" width="2629px" zoomAndPan="magnify"><defs/><g><rect fill="#FFFFFF" height="566.3203" style="stroke:#181818;stroke-width:1.0;" width="10" x="106.5" y="98.5547"/><rect fill="#FFFFFF" height="86.1094" style="stroke:#181818;stroke-width:1.0;" width="10" x="1084.5" y="128.1094"/><rect fill="#FFFFFF" height="37.5547" style="stroke:#181818;stroke-width:1.0;" width="10" x="1084.5" y="251.7734"/><rect fill="#FFFFFF" height="337.9922" style="stroke:#181818;stroke-width:1.0;" width="10" x="1084.5" y="326.8828"/><rect fill="#FFFFFF" height="262.8828" style="stroke:#181818;stroke-width:1.0;" width="10" x="1816.5" y="364.4375"/><rect fill="#FFFFFF" height="37.5547" style="stroke:#181818;stroke-width:1.0;" width="10" x="2017.5" y="401.9922"/><rect fill="#FFFFFF" height="37.5547" style="stroke:#181818;stroke-width:1.0;" width="10" x="2166.5" y="477.1016"/><rect fill="#FFFFFF" height="37.5547" style="stroke:#181818;stroke-width:1.0;" width="10" x="2432" y="552.2109"/><line style="stroke:#181818;stroke-width:0.5;stroke-dasharray:5.0,5.0;" x1="111" x2="111" y1="88.5547" y2="682.875"/><line style="stroke:#181818;stroke-width:0.5;stroke-dasharray:5.0,5.0;" x1="1089" x2="1089" y1="88.5547" y2="682.875"/><line style="stroke:#181818;stroke-width:0.5;stroke-dasharray:5.0,5.0;" x1="1821" x2="1821" y1="170.3867" y2="682.875"/><line style="stroke:#181818;stroke-width:0.5;stroke-dasharray:5.0,5.0;" x1="2022" x2="2022" y1="88.5547" y2="682.875"/><line style="stroke:#181818;stroke-width:0.5;stroke-dasharray:5.0,5.0;" x1="2171" x2="2171" y1="88.5547" y2="682.875"/><line style="stroke:#181818;stroke-width:0.5;stroke-dasharray:5.0,5.0;" x1="2437" x2="2437" y1="88.5547" y2="682.875"/><text fill="#000000" font-family="sans-serif" font-size="20" lengthAdjust="spacing" textLength="207" x="5" y="84.3359">System Administrator</text><ellipse cx="111.5" cy="13.5" fill="#E3E3E3" rx="8" ry="8" style="stroke:#181818;stroke-width:0.5;"/><path d="M111.5,21.5 L111.5,48.5 M98.5,29.5 L124.5,29.5 M111.5,48.5 L98.5,63.5 M111.5,48.5 L124.5,63.5 " fill="none" style="stroke:#181818;stroke-width:0.5;"/><text fill="#000000" font-family="sans-serif" font-size="20" lengthAdjust="spacing" textLength="207" x="5" y="701.2109">System Administrator</text><ellipse cx="111.5" cy="713.9297" fill="#E3E3E3" rx="8" ry="8" style="stroke:#181818;stroke-width:0.5;"/><path d="M111.5,721.9297 L111.5,748.9297 M98.5,729.9297 L124.5,729.9297 M111.5,748.9297 L98.5,763.9297 M111.5,748.9297 L124.5,763.9297 " fill="none" style="stroke:#181818;stroke-width:0.5;"/><rect fill="#E3E3E3" height="37.5547" rx="2.5" ry="2.5" style="stroke:#181818;stroke-width:0.5;" width="167" x="1006" y="50"/><text fill="#000000" font-family="sans-serif" font-size="20" lengthAdjust="spacing" textLength="153" x="1013" y="76.3359">:RegisterStoreUI</text><rect fill="#E3E3E3" height="37.5547" rx="2.5" ry="2.5" style="stroke:#181818;stroke-width:0.5;" width="167" x="1006" y="681.875"/><text fill="#000000" font-family="sans-serif" font-size="20" lengthAdjust="spacing" textLength="153" x="1013" y="708.2109">:RegisterStoreUI</text><rect fill="#E3E3E3" height="37.5547" rx="2.5" ry="2.5" style="stroke:#181818;stroke-width:0.5;" width="243" x="1700" y="681.875"/><text fill="#000000" font-family="sans-serif" font-size="20" lengthAdjust="spacing" textLength="229" x="1707" y="708.2109">:RegisterStoreController</text><rect fill="#E3E3E3" height="37.5547" rx="2.5" ry="2.5" style="stroke:#181818;stroke-width:0.5;" width="139" x="1953" y="50"/><text fill="#000000" font-family="sans-serif" font-size="20" lengthAdjust="spacing" textLength="125" x="1960" y="76.3359">:Repositories</text><rect fill="#E3E3E3" height="37.5547" rx="2.5" ry="2.5" style="stroke:#181818;stroke-width:0.5;" width="139" x="1953" y="681.875"/><text fill="#000000" font-family="sans-serif" font-size="20" lengthAdjust="spacing" textLength="125" x="1960" y="708.2109">:Repositories</text><rect fill="#E3E3E3" height="61.1094" rx="2.5" ry="2.5" style="stroke:#181818;stroke-width:0.5;" width="139" x="2102" y="26.4453"/><text fill="#000000" font-family="sans-serif" font-size="20" lengthAdjust="spacing" textLength="114" x="2114.5" y="52.7813">repositories</text><text fill="#000000" font-family="sans-serif" font-size="20" lengthAdjust="spacing" textLength="125" x="2109" y="76.3359">:Repositories</text><rect fill="#E3E3E3" height="61.1094" rx="2.5" ry="2.5" style="stroke:#181818;stroke-width:0.5;" width="139" x="2102" y="681.875"/><text fill="#000000" font-family="sans-serif" font-size="20" lengthAdjust="spacing" textLength="114" x="2114.5" y="708.2109">repositories</text><text fill="#000000" font-family="sans-serif" font-size="20" lengthAdjust="spacing" textLength="125" x="2109" y="731.7656">:Repositories</text><rect fill="#E3E3E3" height="37.5547" rx="2.5" ry="2.5" style="stroke:#181818;stroke-width:0.5;" width="372" x="2251" y="50"/><text fill="#000000" font-family="sans-serif" font-size="20" lengthAdjust="spacing" textLength="358" x="2258" y="76.3359">AgencyRepository:\AgencyRepository</text><rect fill="#E3E3E3" height="37.5547" rx="2.5" ry="2.5" style="stroke:#181818;stroke-width:0.5;" width="372" x="2251" y="681.875"/><text fill="#000000" font-family="sans-serif" font-size="20" lengthAdjust="spacing" textLength="358" x="2258" y="708.2109">AgencyRepository:\AgencyRepository</text><rect fill="#FFFFFF" height="566.3203" style="stroke:#181818;stroke-width:1.0;" width="10" x="106.5" y="98.5547"/><rect fill="#FFFFFF" height="86.1094" style="stroke:#181818;stroke-width:1.0;" width="10" x="1084.5" y="128.1094"/><rect fill="#FFFFFF" height="37.5547" style="stroke:#181818;stroke-width:1.0;" width="10" x="1084.5" y="251.7734"/><rect fill="#FFFFFF" height="337.9922" style="stroke:#181818;stroke-width:1.0;" width="10" x="1084.5" y="326.8828"/><rect fill="#FFFFFF" height="262.8828" style="stroke:#181818;stroke-width:1.0;" width="10" x="1816.5" y="364.4375"/><rect fill="#FFFFFF" height="37.5547" style="stroke:#181818;stroke-width:1.0;" width="10" x="2017.5" y="401.9922"/><rect fill="#FFFFFF" height="37.5547" style="stroke:#181818;stroke-width:1.0;" width="10" x="2166.5" y="477.1016"/><rect fill="#FFFFFF" height="37.5547" style="stroke:#181818;stroke-width:1.0;" width="10" x="2432" y="552.2109"/><polygon fill="#181818" points="1072.5,124.1094,1082.5,128.1094,1072.5,132.1094,1076.5,128.1094" style="stroke:#181818;stroke-width:1.0;"/><line style="stroke:#181818;stroke-width:1.0;" x1="116.5" x2="1078.5" y1="128.1094" y2="128.1094"/><text fill="#000000" font-family="sans-serif" font-size="20" font-weight="bold" lengthAdjust="spacing" textLength="13" x="123.5" y="121.8906">1</text><text fill="#000000" font-family="sans-serif" font-size="20" lengthAdjust="spacing" textLength="218" x="140.5" y="121.8906">asks to register a store</text><polygon fill="#181818" points="1688,161.6641,1698,165.6641,1688,169.6641,1692,165.6641" style="stroke:#181818;stroke-width:1.0;"/><line style="stroke:#181818;stroke-width:1.0;" x1="1094.5" x2="1694" y1="165.6641" y2="165.6641"/><text fill="#000000" font-family="sans-serif" font-size="20" font-weight="bold" lengthAdjust="spacing" textLength="13" x="1101.5" y="159.4453">2</text><text fill="#000000" font-family="sans-serif" font-size="20" lengthAdjust="spacing" textLength="62" x="1118.5" y="159.4453">Create</text><rect fill="#E3E3E3" height="37.5547" rx="2.5" ry="2.5" style="stroke:#181818;stroke-width:0.5;" width="243" x="1700" y="136.1094"/><text fill="#000000" font-family="sans-serif" font-size="20" lengthAdjust="spacing" textLength="229" x="1707" y="162.4453">:RegisterStoreController</text><polygon fill="#181818" points="127.5,210.2188,117.5,214.2188,127.5,218.2188,123.5,214.2188" style="stroke:#181818;stroke-width:1.0;"/><line style="stroke:#181818;stroke-width:1.0;stroke-dasharray:2.0,2.0;" x1="121.5" x2="1088.5" y1="214.2188" y2="214.2188"/><text fill="#000000" font-family="sans-serif" font-size="20" font-weight="bold" lengthAdjust="spacing" textLength="13" x="133.5" y="208">3</text><text fill="#000000" font-family="sans-serif" font-size="20" lengthAdjust="spacing" textLength="927" x="150.5" y="208">requests the data(an ID, a designation/name, a location,a phone number and an e-mail address)</text><polygon fill="#181818" points="1072.5,247.7734,1082.5,251.7734,1072.5,255.7734,1076.5,251.7734" style="stroke:#181818;stroke-width:1.0;"/><line style="stroke:#181818;stroke-width:1.0;" x1="116.5" x2="1078.5" y1="251.7734" y2="251.7734"/><text fill="#000000" font-family="sans-serif" font-size="20" font-weight="bold" lengthAdjust="spacing" textLength="13" x="123.5" y="245.5547">4</text><text fill="#000000" font-family="sans-serif" font-size="20" lengthAdjust="spacing" textLength="816" x="140.5" y="245.5547">types the data(ID, designation/name, location,phone number and an e-mail address)</text><polygon fill="#181818" points="127.5,285.3281,117.5,289.3281,127.5,293.3281,123.5,289.3281" style="stroke:#181818;stroke-width:1.0;"/><line style="stroke:#181818;stroke-width:1.0;stroke-dasharray:2.0,2.0;" x1="121.5" x2="1088.5" y1="289.3281" y2="289.3281"/><text fill="#000000" font-family="sans-serif" font-size="20" font-weight="bold" lengthAdjust="spacing" textLength="13" x="133.5" y="283.1094">5</text><text fill="#000000" font-family="sans-serif" font-size="20" lengthAdjust="spacing" textLength="394" x="150.5" y="283.1094">shows all data and requests confirmation</text><polygon fill="#181818" points="1072.5,322.8828,1082.5,326.8828,1072.5,330.8828,1076.5,326.8828" style="stroke:#181818;stroke-width:1.0;"/><line style="stroke:#181818;stroke-width:1.0;" x1="116.5" x2="1078.5" y1="326.8828" y2="326.8828"/><text fill="#000000" font-family="sans-serif" font-size="20" font-weight="bold" lengthAdjust="spacing" textLength="13" x="123.5" y="320.6641">6</text><text fill="#000000" font-family="sans-serif" font-size="20" lengthAdjust="spacing" textLength="168" x="140.5" y="320.6641">confirms the data</text><polygon fill="#181818" points="1804.5,360.4375,1814.5,364.4375,1804.5,368.4375,1808.5,364.4375" style="stroke:#181818;stroke-width:1.0;"/><line style="stroke:#181818;stroke-width:1.0;" x1="1094.5" x2="1810.5" y1="364.4375" y2="364.4375"/><text fill="#000000" font-family="sans-serif" font-size="20" font-weight="bold" lengthAdjust="spacing" textLength="13" x="1101.5" y="358.2188">7</text><text fill="#000000" font-family="sans-serif" font-size="20" lengthAdjust="spacing" textLength="686" x="1118.5" y="358.2188">RegisterStore(ID, name, location,phone number and an e-mail address)</text><polygon fill="#181818" points="2005.5,397.9922,2015.5,401.9922,2005.5,405.9922,2009.5,401.9922" style="stroke:#181818;stroke-width:1.0;"/><line style="stroke:#181818;stroke-width:1.0;" x1="1826.5" x2="2011.5" y1="401.9922" y2="401.9922"/><text fill="#000000" font-family="sans-serif" font-size="20" font-weight="bold" lengthAdjust="spacing" textLength="13" x="1833.5" y="395.7734">8</text><text fill="#000000" font-family="sans-serif" font-size="20" lengthAdjust="spacing" textLength="123" x="1850.5" y="395.7734">getInstance()</text><polygon fill="#181818" points="1837.5,435.5469,1827.5,439.5469,1837.5,443.5469,1833.5,439.5469" style="stroke:#181818;stroke-width:1.0;"/><line style="stroke:#181818;stroke-width:1.0;stroke-dasharray:2.0,2.0;" x1="1831.5" x2="2021.5" y1="439.5469" y2="439.5469"/><text fill="#000000" font-family="sans-serif" font-size="20" font-weight="bold" lengthAdjust="spacing" textLength="13" x="1843.5" y="433.3281">9</text><text fill="#000000" font-family="sans-serif" font-size="20" lengthAdjust="spacing" textLength="114" x="1860.5" y="433.3281">repositories</text><polygon fill="#181818" points="2154.5,473.1016,2164.5,477.1016,2154.5,481.1016,2158.5,477.1016" style="stroke:#181818;stroke-width:1.0;"/><line style="stroke:#181818;stroke-width:1.0;" x1="1826.5" x2="2160.5" y1="477.1016" y2="477.1016"/><text fill="#000000" font-family="sans-serif" font-size="20" font-weight="bold" lengthAdjust="spacing" textLength="26" x="1833.5" y="470.8828">10</text><text fill="#000000" font-family="sans-serif" font-size="20" lengthAdjust="spacing" textLength="215" x="1863.5" y="470.8828">getAgencyRepository()</text><polygon fill="#181818" points="1837.5,510.6563,1827.5,514.6563,1837.5,518.6563,1833.5,514.6563" style="stroke:#181818;stroke-width:1.0;"/><line style="stroke:#181818;stroke-width:1.0;stroke-dasharray:2.0,2.0;" x1="1831.5" x2="2170.5" y1="514.6563" y2="514.6563"/><text fill="#000000" font-family="sans-serif" font-size="20" font-weight="bold" lengthAdjust="spacing" textLength="26" x="1843.5" y="508.4375">11</text><text fill="#000000" font-family="sans-serif" font-size="20" lengthAdjust="spacing" textLength="171" x="1873.5" y="508.4375">AgencyRepository</text><polygon fill="#181818" points="2420,548.2109,2430,552.2109,2420,556.2109,2424,552.2109" style="stroke:#181818;stroke-width:1.0;"/><line style="stroke:#181818;stroke-width:1.0;" x1="1826.5" x2="2426" y1="552.2109" y2="552.2109"/><text fill="#000000" font-family="sans-serif" font-size="20" font-weight="bold" lengthAdjust="spacing" textLength="26" x="1833.5" y="545.9922">12</text><text fill="#000000" font-family="sans-serif" font-size="20" lengthAdjust="spacing" textLength="211" x="1863.5" y="545.9922">setAgencyList(agency)</text><polygon fill="#181818" points="1837.5,585.7656,1827.5,589.7656,1837.5,593.7656,1833.5,589.7656" style="stroke:#181818;stroke-width:1.0;"/><line style="stroke:#181818;stroke-width:1.0;" x1="1831.5" x2="2436" y1="589.7656" y2="589.7656"/><text fill="#000000" font-family="sans-serif" font-size="20" font-weight="bold" lengthAdjust="spacing" textLength="26" x="1843.5" y="583.5469">13</text><text fill="#000000" font-family="sans-serif" font-size="20" lengthAdjust="spacing" textLength="120" x="1873.5" y="583.5469">AgenciesList</text><polygon fill="#181818" points="1105.5,623.3203,1095.5,627.3203,1105.5,631.3203,1101.5,627.3203" style="stroke:#181818;stroke-width:1.0;"/><line style="stroke:#181818;stroke-width:1.0;" x1="1099.5" x2="1820.5" y1="627.3203" y2="627.3203"/><text fill="#000000" font-family="sans-serif" font-size="20" font-weight="bold" lengthAdjust="spacing" textLength="26" x="1111.5" y="621.1016">14</text><text fill="#000000" font-family="sans-serif" font-size="20" lengthAdjust="spacing" textLength="120" x="1141.5" y="621.1016">AgenciesList</text><polygon fill="#181818" points="122.5,660.875,112.5,664.875,122.5,668.875,118.5,664.875" style="stroke:#181818;stroke-width:1.0;"/><line style="stroke:#181818;stroke-width:1.0;stroke-dasharray:2.0,2.0;" x1="116.5" x2="1088.5" y1="664.875" y2="664.875"/><text fill="#000000" font-family="sans-serif" font-size="20" font-weight="bold" lengthAdjust="spacing" textLength="26" x="128.5" y="658.6563">15</text><text fill="#000000" font-family="sans-serif" font-size="20" lengthAdjust="spacing" textLength="228" x="158.5" y="658.6563">shows success message</text><!--SRC=[fLHBQnin4BxhLmovn0anBJtwO30E1KCA9KvklaoqurtXNMahQPkwlxuZhRqFQzqKAh3HZkRnVVDo1wLhj5YLHXueWupss9J-gz5-gtuJVFait5a5AgEDBAof2BnjQF1IepnWJbj_B0aiIOywBuSAhi3Cl2kTmnvBHq9WuurkgZUoGjmMAYFO6-FVp2-1qXiBDzkZyrJ1AgkKLivRPEaDe8FLupV1JhsIgaRjuMRnJ3bhaDso2hrkejRhvczAQ-PdJLbIwtBzyloKgDV6ATPLvA9E9pXkLI37yCScTc2nqwc3xq-hbx75AYSjZxtZnUvIqXA-40eHSgH-egUO306dmnymNp9rMB3TmO4tN8oMDY2umBpNxdnmgcvXSDX-pcw2jmNR_sZ8UGSPUeIPfJrPXaCFt2fEMbLxPVG3WD9xOoiiOQV7BvvaePNabv4uQxYYyIQDytTY2E1MMWh0ObakaIsZ-FwUiQsZcX3Nm7VOVK4H_mmrR1uVE1UCHUKw8lYaiQ8Wun5e8I7KXT44RNy2wen_GFCALGcOPPQSwn5dDCoak2o4FzOqG132fy6xqFyQE0cP5CuLvjq1bcLRkU2houSqUg-uMY6acE2Ga3WPz3mI46ty-J8KPm6ZOOkS_vTdrmlX4d1Dp2C3pSbljEFr8sbsbxRwr12FscVAw_pKSs4O-faUcGtozs68Cu6m3rh4bmC-6uz3vpfkaD5JzD7ZIpR55OpHqHIcP2E1EyDxueBEC5x7yAwTVaUb-skeT_byxg4evqI7m4d00Pb9qcT2iNiJJmFhqOuP3T1fWbmZ9RSZLFp7z2V7POY65_8V]--></g></svg>