<?xml version="1.0" encoding="UTF-8" standalone="no"?><svg xmlns="http://www.w3.org/2000/svg" xmlns:xlink="http://www.w3.org/1999/xlink" contentStyleType="text/css" height="1651px" preserveAspectRatio="none" style="width:1290px;height:1651px;background:#FFFFFF;" version="1.1" viewBox="0 0 1290 1651" width="1290px" zoomAndPan="magnify"><defs/><g><rect fill="#FFFFFF" height="1456.2969" style="stroke:#181818;stroke-width:1.0;" width="10" x="46" y="98.5547"/><rect fill="#FFFFFF" height="86.1094" style="stroke:#181818;stroke-width:1.0;" width="10" x="566" y="128.1094"/><rect fill="#FFFFFF" height="37.5547" style="stroke:#181818;stroke-width:1.0;" width="10" x="566" y="251.7734"/><rect fill="#FFFFFF" height="78.6641" style="stroke:#181818;stroke-width:1.0;" width="10" x="566" y="326.8828"/><rect fill="#FFFFFF" height="181.7734" style="stroke:#181818;stroke-width:1.0;" width="10" x="566" y="443.1016"/><rect fill="#FFFFFF" height="37.5547" style="stroke:#181818;stroke-width:1.0;" width="10" x="566" y="703.5391"/><rect fill="#FFFFFF" height="174.7734" style="stroke:#181818;stroke-width:1.0;" width="10" x="566" y="778.6484"/><rect fill="#FFFFFF" height="198.3281" style="stroke:#181818;stroke-width:1.0;" width="10" x="566" y="997.9766"/><rect fill="#FFFFFF" height="37.5547" style="stroke:#181818;stroke-width:1.0;" width="10" x="566" y="1233.8594"/><rect fill="#FFFFFF" height="236.8828" style="stroke:#181818;stroke-width:1.0;" width="10" x="566" y="1308.9688"/><rect fill="#FFFFFF" height="99.6641" style="stroke:#181818;stroke-width:1.0;" width="10" x="1050" y="487.6563"/><rect fill="#FFFFFF" height="99.6641" style="stroke:#181818;stroke-width:1.0;" width="10" x="1050" y="816.2031"/><rect fill="#FFFFFF" height="99.6641" style="stroke:#181818;stroke-width:1.0;" width="10" x="1050" y="1035.5313"/><rect fill="#FFFFFF" height="161.7734" style="stroke:#181818;stroke-width:1.0;" width="10" x="1050" y="1346.5234"/><rect fill="none" height="109.2188" style="stroke:#000000;stroke-width:1.5;" width="622.5" x="10" y="341.8828"/><rect fill="none" height="321.5469" style="stroke:#000000;stroke-width:1.5;" width="1185" x="10" y="639.875"/><line style="stroke:#181818;stroke-width:0.5;stroke-dasharray:5.0,5.0;" x1="51" x2="51" y1="88.5547" y2="1563.8516"/><line style="stroke:#181818;stroke-width:0.5;stroke-dasharray:5.0,5.0;" x1="570.5" x2="570.5" y1="88.5547" y2="1563.8516"/><line style="stroke:#181818;stroke-width:0.5;stroke-dasharray:5.0,5.0;" x1="1055" x2="1055" y1="170.3867" y2="1563.8516"/><text fill="#000000" font-family="sans-serif" font-size="20" lengthAdjust="spacing" textLength="56" x="20" y="84.3359">Client</text><ellipse cx="51" cy="13.5" fill="#E3E3E3" rx="8" ry="8" style="stroke:#181818;stroke-width:0.5;"/><path d="M51,21.5 L51,48.5 M38,29.5 L64,29.5 M51,48.5 L38,63.5 M51,48.5 L64,63.5 " fill="none" style="stroke:#181818;stroke-width:0.5;"/><text fill="#000000" font-family="sans-serif" font-size="20" lengthAdjust="spacing" textLength="56" x="20" y="1582.1875">Client</text><ellipse cx="51" cy="1594.9063" fill="#E3E3E3" rx="8" ry="8" style="stroke:#181818;stroke-width:0.5;"/><path d="M51,1602.9063 L51,1629.9063 M38,1610.9063 L64,1610.9063 M51,1629.9063 L38,1644.9063 M51,1629.9063 L64,1644.9063 " fill="none" style="stroke:#181818;stroke-width:0.5;"/><rect fill="#E3E3E3" height="37.5547" rx="2.5" ry="2.5" style="stroke:#181818;stroke-width:0.5;" width="103" x="519.5" y="50"/><text fill="#000000" font-family="sans-serif" font-size="20" lengthAdjust="spacing" textLength="89" x="526.5" y="76.3359">:SearchUI</text><rect fill="#E3E3E3" height="37.5547" rx="2.5" ry="2.5" style="stroke:#181818;stroke-width:0.5;" width="103" x="519.5" y="1562.8516"/><text fill="#000000" font-family="sans-serif" font-size="20" lengthAdjust="spacing" textLength="89" x="526.5" y="1589.1875">:SearchUI</text><rect fill="#E3E3E3" height="37.5547" rx="2.5" ry="2.5" style="stroke:#181818;stroke-width:0.5;" width="260" x="925" y="1562.8516"/><text fill="#000000" font-family="sans-serif" font-size="20" lengthAdjust="spacing" textLength="246" x="932" y="1589.1875">:AnnouncementController</text><rect fill="#FFFFFF" height="1456.2969" style="stroke:#181818;stroke-width:1.0;" width="10" x="46" y="98.5547"/><rect fill="#FFFFFF" height="86.1094" style="stroke:#181818;stroke-width:1.0;" width="10" x="566" y="128.1094"/><rect fill="#FFFFFF" height="37.5547" style="stroke:#181818;stroke-width:1.0;" width="10" x="566" y="251.7734"/><rect fill="#FFFFFF" height="78.6641" style="stroke:#181818;stroke-width:1.0;" width="10" x="566" y="326.8828"/><rect fill="#FFFFFF" height="181.7734" style="stroke:#181818;stroke-width:1.0;" width="10" x="566" y="443.1016"/><rect fill="#FFFFFF" height="37.5547" style="stroke:#181818;stroke-width:1.0;" width="10" x="566" y="703.5391"/><rect fill="#FFFFFF" height="174.7734" style="stroke:#181818;stroke-width:1.0;" width="10" x="566" y="778.6484"/><rect fill="#FFFFFF" height="198.3281" style="stroke:#181818;stroke-width:1.0;" width="10" x="566" y="997.9766"/><rect fill="#FFFFFF" height="37.5547" style="stroke:#181818;stroke-width:1.0;" width="10" x="566" y="1233.8594"/><rect fill="#FFFFFF" height="236.8828" style="stroke:#181818;stroke-width:1.0;" width="10" x="566" y="1308.9688"/><rect fill="#FFFFFF" height="99.6641" style="stroke:#181818;stroke-width:1.0;" width="10" x="1050" y="487.6563"/><rect fill="#FFFFFF" height="99.6641" style="stroke:#181818;stroke-width:1.0;" width="10" x="1050" y="816.2031"/><rect fill="#FFFFFF" height="99.6641" style="stroke:#181818;stroke-width:1.0;" width="10" x="1050" y="1035.5313"/><rect fill="#FFFFFF" height="161.7734" style="stroke:#181818;stroke-width:1.0;" width="10" x="1050" y="1346.5234"/><polygon fill="#181818" points="554,124.1094,564,128.1094,554,132.1094,558,128.1094" style="stroke:#181818;stroke-width:1.0;"/><line style="stroke:#181818;stroke-width:1.0;" x1="56" x2="560" y1="128.1094" y2="128.1094"/><text fill="#000000" font-family="sans-serif" font-size="20" font-weight="bold" lengthAdjust="spacing" textLength="13" x="63" y="121.8906">1</text><text fill="#000000" font-family="sans-serif" font-size="20" lengthAdjust="spacing" textLength="264" x="80" y="121.8906">ask to search for properties</text><polygon fill="#181818" points="913,161.6641,923,165.6641,913,169.6641,917,165.6641" style="stroke:#181818;stroke-width:1.0;"/><line style="stroke:#181818;stroke-width:1.0;" x1="576" x2="919" y1="165.6641" y2="165.6641"/><text fill="#000000" font-family="sans-serif" font-size="20" font-weight="bold" lengthAdjust="spacing" textLength="13" x="583" y="159.4453">2</text><text fill="#000000" font-family="sans-serif" font-size="20" lengthAdjust="spacing" textLength="58" x="600" y="159.4453">create</text><rect fill="#E3E3E3" height="37.5547" rx="2.5" ry="2.5" style="stroke:#181818;stroke-width:0.5;" width="260" x="925" y="136.1094"/><text fill="#000000" font-family="sans-serif" font-size="20" lengthAdjust="spacing" textLength="246" x="932" y="162.4453">:AnnouncementController</text><polygon fill="#181818" points="67,210.2188,57,214.2188,67,218.2188,63,214.2188" style="stroke:#181818;stroke-width:1.0;"/><line style="stroke:#181818;stroke-width:1.0;stroke-dasharray:2.0,2.0;" x1="61" x2="570" y1="214.2188" y2="214.2188"/><text fill="#000000" font-family="sans-serif" font-size="20" font-weight="bold" lengthAdjust="spacing" textLength="13" x="73" y="208">3</text><text fill="#000000" font-family="sans-serif" font-size="20" lengthAdjust="spacing" textLength="327" x="90" y="208">shows the list of types of business</text><polygon fill="#181818" points="554,247.7734,564,251.7734,554,255.7734,558,251.7734" style="stroke:#181818;stroke-width:1.0;"/><line style="stroke:#181818;stroke-width:1.0;" x1="56" x2="560" y1="251.7734" y2="251.7734"/><text fill="#000000" font-family="sans-serif" font-size="20" font-weight="bold" lengthAdjust="spacing" textLength="13" x="63" y="245.5547">4</text><text fill="#000000" font-family="sans-serif" font-size="20" lengthAdjust="spacing" textLength="270" x="80" y="245.5547">choose one type of business</text><polygon fill="#181818" points="67,285.3281,57,289.3281,67,293.3281,63,289.3281" style="stroke:#181818;stroke-width:1.0;"/><line style="stroke:#181818;stroke-width:1.0;stroke-dasharray:2.0,2.0;" x1="61" x2="570" y1="289.3281" y2="289.3281"/><text fill="#000000" font-family="sans-serif" font-size="20" font-weight="bold" lengthAdjust="spacing" textLength="13" x="73" y="283.1094">5</text><text fill="#000000" font-family="sans-serif" font-size="20" lengthAdjust="spacing" textLength="325" x="90" y="283.1094">shows the list of types of property</text><polygon fill="#181818" points="554,322.8828,564,326.8828,554,330.8828,558,326.8828" style="stroke:#181818;stroke-width:1.0;"/><line style="stroke:#181818;stroke-width:1.0;" x1="56" x2="560" y1="326.8828" y2="326.8828"/><text fill="#000000" font-family="sans-serif" font-size="20" font-weight="bold" lengthAdjust="spacing" textLength="13" x="63" y="320.6641">6</text><text fill="#000000" font-family="sans-serif" font-size="20" lengthAdjust="spacing" textLength="268" x="80" y="320.6641">choose one type of property</text><path d="M10,341.8828 L82,341.8828 L82,357.4375 L72,367.4375 L10,367.4375 L10,341.8828 " fill="#EEEEEE" style="stroke:#000000;stroke-width:1.5;"/><rect fill="none" height="109.2188" style="stroke:#000000;stroke-width:1.5;" width="622.5" x="10" y="341.8828"/><text fill="#000000" font-family="sans-serif" font-size="20" font-weight="bold" lengthAdjust="spacing" textLength="27" x="25" y="362.2188">alt</text><text fill="#000000" font-family="sans-serif" font-size="20" font-weight="bold" lengthAdjust="spacing" textLength="240" x="97" y="363.2188">[Property type != Land]</text><polygon fill="#181818" points="67,401.5469,57,405.5469,67,409.5469,63,405.5469" style="stroke:#181818;stroke-width:1.0;"/><line style="stroke:#181818;stroke-width:1.0;stroke-dasharray:2.0,2.0;" x1="61" x2="570" y1="405.5469" y2="405.5469"/><text fill="#000000" font-family="sans-serif" font-size="20" font-weight="bold" lengthAdjust="spacing" textLength="13" x="73" y="399.3281">7</text><text fill="#000000" font-family="sans-serif" font-size="20" lengthAdjust="spacing" textLength="249" x="90" y="399.3281">asks for number of rooms</text><polygon fill="#181818" points="554,439.1016,564,443.1016,554,447.1016,558,443.1016" style="stroke:#181818;stroke-width:1.0;"/><line style="stroke:#181818;stroke-width:1.0;" x1="56" x2="560" y1="443.1016" y2="443.1016"/><text fill="#000000" font-family="sans-serif" font-size="20" font-weight="bold" lengthAdjust="spacing" textLength="13" x="63" y="436.8828">8</text><text fill="#000000" font-family="sans-serif" font-size="20" lengthAdjust="spacing" textLength="270" x="80" y="436.8828">choose one type of business</text><polygon fill="#181818" points="1038,483.6563,1048,487.6563,1038,491.6563,1042,487.6563" style="stroke:#181818;stroke-width:1.0;"/><line style="stroke:#181818;stroke-width:1.0;" x1="576" x2="1044" y1="487.6563" y2="487.6563"/><text fill="#000000" font-family="sans-serif" font-size="20" font-weight="bold" lengthAdjust="spacing" textLength="13" x="583" y="481.4375">9</text><text fill="#000000" font-family="sans-serif" font-size="20" lengthAdjust="spacing" textLength="438" x="600" y="481.4375">getAnnouncementList (business, type, rooms)</text><rect fill="none" height="57.1094" style="stroke:#000000;stroke-width:1.5;" width="356" x="922" y="495.6563"/><path d="M922,495.6563 L996,495.6563 L996,510.6563 L986,520.6563 L922,520.6563 L922,495.6563 " fill="#EEEEEE" style="stroke:#000000;stroke-width:2.0;"/><text fill="#000000" font-family="sans-serif" font-size="20" font-weight="bold" lengthAdjust="spacing" textLength="29" x="935" y="516.9922">ref</text><text fill="#000000" font-family="sans-serif" font-size="20" lengthAdjust="spacing" textLength="348" x="926" y="543.9922">Get AnnouncementAvailableListDTO</text><polygon fill="#181818" points="587,583.3203,577,587.3203,587,591.3203,583,587.3203" style="stroke:#181818;stroke-width:1.0;"/><line style="stroke:#181818;stroke-width:1.0;stroke-dasharray:2.0,2.0;" x1="581" x2="1054" y1="587.3203" y2="587.3203"/><text fill="#000000" font-family="sans-serif" font-size="20" font-weight="bold" lengthAdjust="spacing" textLength="26" x="593" y="581.1016">10</text><text fill="#000000" font-family="sans-serif" font-size="20" lengthAdjust="spacing" textLength="222" x="623" y="581.1016">ListAnnouncementDTO</text><polygon fill="#181818" points="67,620.875,57,624.875,67,628.875,63,624.875" style="stroke:#181818;stroke-width:1.0;"/><line style="stroke:#181818;stroke-width:1.0;stroke-dasharray:2.0,2.0;" x1="61" x2="570" y1="624.875" y2="624.875"/><text fill="#000000" font-family="sans-serif" font-size="20" font-weight="bold" lengthAdjust="spacing" textLength="26" x="73" y="618.6563">11</text><text fill="#000000" font-family="sans-serif" font-size="20" lengthAdjust="spacing" textLength="260" x="103" y="618.6563">shows the list of properties</text><path d="M10,639.875 L89,639.875 L89,655.4297 L79,665.4297 L10,665.4297 L10,639.875 " fill="#EEEEEE" style="stroke:#000000;stroke-width:1.5;"/><rect fill="none" height="321.5469" style="stroke:#000000;stroke-width:1.5;" width="1185" x="10" y="639.875"/><text fill="#000000" font-family="sans-serif" font-size="20" font-weight="bold" lengthAdjust="spacing" textLength="34" x="25" y="660.2109">opt</text><text fill="#000000" font-family="sans-serif" font-size="20" font-weight="bold" lengthAdjust="spacing" textLength="221" x="104" y="661.2109">[ask to order the list]</text><polygon fill="#181818" points="554,699.5391,564,703.5391,554,707.5391,558,703.5391" style="stroke:#181818;stroke-width:1.0;"/><line style="stroke:#181818;stroke-width:1.0;" x1="56" x2="560" y1="703.5391" y2="703.5391"/><text fill="#000000" font-family="sans-serif" font-size="20" font-weight="bold" lengthAdjust="spacing" textLength="26" x="63" y="697.3203">12</text><text fill="#000000" font-family="sans-serif" font-size="20" lengthAdjust="spacing" textLength="275" x="93" y="697.3203">ask to order the property list</text><polygon fill="#181818" points="67,737.0938,57,741.0938,67,745.0938,63,741.0938" style="stroke:#181818;stroke-width:1.0;"/><line style="stroke:#181818;stroke-width:1.0;stroke-dasharray:2.0,2.0;" x1="61" x2="570" y1="741.0938" y2="741.0938"/><text fill="#000000" font-family="sans-serif" font-size="20" font-weight="bold" lengthAdjust="spacing" textLength="26" x="73" y="734.875">13</text><text fill="#000000" font-family="sans-serif" font-size="20" lengthAdjust="spacing" textLength="282" x="103" y="734.875">shows a list with types of sort</text><polygon fill="#181818" points="554,774.6484,564,778.6484,554,782.6484,558,778.6484" style="stroke:#181818;stroke-width:1.0;"/><line style="stroke:#181818;stroke-width:1.0;" x1="56" x2="560" y1="778.6484" y2="778.6484"/><text fill="#000000" font-family="sans-serif" font-size="20" font-weight="bold" lengthAdjust="spacing" textLength="26" x="63" y="772.4297">14</text><text fill="#000000" font-family="sans-serif" font-size="20" lengthAdjust="spacing" textLength="197" x="93" y="772.4297">selects a type of sort</text><polygon fill="#181818" points="1038,812.2031,1048,816.2031,1038,820.2031,1042,816.2031" style="stroke:#181818;stroke-width:1.0;"/><line style="stroke:#181818;stroke-width:1.0;" x1="576" x2="1044" y1="816.2031" y2="816.2031"/><text fill="#000000" font-family="sans-serif" font-size="20" font-weight="bold" lengthAdjust="spacing" textLength="26" x="583" y="809.9844">15</text><text fill="#000000" font-family="sans-serif" font-size="20" lengthAdjust="spacing" textLength="343" x="613" y="809.9844">getAnnouncementListOrdered(type)</text><rect fill="none" height="57.1094" style="stroke:#000000;stroke-width:1.5;" width="362" x="922" y="824.2031"/><path d="M922,824.2031 L996,824.2031 L996,839.2031 L986,849.2031 L922,849.2031 L922,824.2031 " fill="#EEEEEE" style="stroke:#000000;stroke-width:2.0;"/><text fill="#000000" font-family="sans-serif" font-size="20" font-weight="bold" lengthAdjust="spacing" textLength="29" x="935" y="845.5391">ref</text><text fill="#000000" font-family="sans-serif" font-size="20" lengthAdjust="spacing" textLength="354" x="926" y="872.5391">Sort AnnouncementAvailableListDTO</text><polygon fill="#181818" points="587,911.8672,577,915.8672,587,919.8672,583,915.8672" style="stroke:#181818;stroke-width:1.0;"/><line style="stroke:#181818;stroke-width:1.0;stroke-dasharray:2.0,2.0;" x1="581" x2="1054" y1="915.8672" y2="915.8672"/><text fill="#000000" font-family="sans-serif" font-size="20" font-weight="bold" lengthAdjust="spacing" textLength="26" x="593" y="909.6484">16</text><text fill="#000000" font-family="sans-serif" font-size="20" lengthAdjust="spacing" textLength="302" x="623" y="909.6484">AnnouncementListOrderedDTO</text><polygon fill="#181818" points="67,949.4219,57,953.4219,67,957.4219,63,953.4219" style="stroke:#181818;stroke-width:1.0;"/><line style="stroke:#181818;stroke-width:1.0;stroke-dasharray:2.0,2.0;" x1="61" x2="570" y1="953.4219" y2="953.4219"/><text fill="#000000" font-family="sans-serif" font-size="20" font-weight="bold" lengthAdjust="spacing" textLength="26" x="73" y="947.2031">17</text><text fill="#000000" font-family="sans-serif" font-size="20" lengthAdjust="spacing" textLength="347" x="103" y="947.2031">shows the AnnouncementList Sorted</text><polygon fill="#181818" points="554,993.9766,564,997.9766,554,1001.9766,558,997.9766" style="stroke:#181818;stroke-width:1.0;"/><line style="stroke:#181818;stroke-width:1.0;" x1="56" x2="560" y1="997.9766" y2="997.9766"/><text fill="#000000" font-family="sans-serif" font-size="20" font-weight="bold" lengthAdjust="spacing" textLength="26" x="63" y="991.7578">18</text><text fill="#000000" font-family="sans-serif" font-size="20" lengthAdjust="spacing" textLength="171" x="93" y="991.7578">Selects a property</text><polygon fill="#181818" points="1038,1031.5313,1048,1035.5313,1038,1039.5313,1042,1035.5313" style="stroke:#181818;stroke-width:1.0;"/><line style="stroke:#181818;stroke-width:1.0;" x1="576" x2="1044" y1="1035.5313" y2="1035.5313"/><text fill="#000000" font-family="sans-serif" font-size="20" font-weight="bold" lengthAdjust="spacing" textLength="26" x="583" y="1029.3125">19</text><text fill="#000000" font-family="sans-serif" font-size="20" lengthAdjust="spacing" textLength="248" x="613" y="1029.3125">getAnnouncementById(id)</text><rect fill="none" height="57.1094" style="stroke:#000000;stroke-width:1.5;" width="303" x="922" y="1043.5313"/><path d="M922,1043.5313 L996,1043.5313 L996,1058.5313 L986,1068.5313 L922,1068.5313 L922,1043.5313 " fill="#EEEEEE" style="stroke:#000000;stroke-width:2.0;"/><text fill="#000000" font-family="sans-serif" font-size="20" font-weight="bold" lengthAdjust="spacing" textLength="29" x="935" y="1064.8672">ref</text><text fill="#000000" font-family="sans-serif" font-size="20" lengthAdjust="spacing" textLength="295" x="926" y="1091.8672">Get AnnouncementAvailable id</text><polygon fill="#181818" points="587,1131.1953,577,1135.1953,587,1139.1953,583,1135.1953" style="stroke:#181818;stroke-width:1.0;"/><line style="stroke:#181818;stroke-width:1.0;stroke-dasharray:2.0,2.0;" x1="581" x2="1054" y1="1135.1953" y2="1135.1953"/><text fill="#000000" font-family="sans-serif" font-size="20" font-weight="bold" lengthAdjust="spacing" textLength="26" x="593" y="1128.9766">20</text><text fill="#000000" font-family="sans-serif" font-size="20" lengthAdjust="spacing" textLength="188" x="623" y="1128.9766">AnnouncementDTO</text><polygon fill="#181818" points="67,1192.3047,57,1196.3047,67,1200.3047,63,1196.3047" style="stroke:#181818;stroke-width:1.0;"/><line style="stroke:#181818;stroke-width:1.0;stroke-dasharray:2.0,2.0;" x1="61" x2="570" y1="1196.3047" y2="1196.3047"/><text fill="#000000" font-family="sans-serif" font-size="20" font-weight="bold" lengthAdjust="spacing" textLength="26" x="73" y="1178.3086">21</text><text fill="#000000" font-family="sans-serif" font-size="20" lengthAdjust="spacing" textLength="450" x="103" y="1166.5313">shows the property chosed with all information</text><text fill="#000000" font-family="sans-serif" font-size="20" lengthAdjust="spacing" textLength="289" x="109" y="1190.0859">and option to submit an order</text><polygon fill="#181818" points="554,1229.8594,564,1233.8594,554,1237.8594,558,1233.8594" style="stroke:#181818;stroke-width:1.0;"/><line style="stroke:#181818;stroke-width:1.0;" x1="56" x2="560" y1="1233.8594" y2="1233.8594"/><text fill="#000000" font-family="sans-serif" font-size="20" font-weight="bold" lengthAdjust="spacing" textLength="26" x="63" y="1227.6406">22</text><text fill="#000000" font-family="sans-serif" font-size="20" lengthAdjust="spacing" textLength="360" x="93" y="1227.6406">Choose the option to submit an order</text><polygon fill="#181818" points="67,1267.4141,57,1271.4141,67,1275.4141,63,1271.4141" style="stroke:#181818;stroke-width:1.0;"/><line style="stroke:#181818;stroke-width:1.0;stroke-dasharray:2.0,2.0;" x1="61" x2="570" y1="1271.4141" y2="1271.4141"/><text fill="#000000" font-family="sans-serif" font-size="20" font-weight="bold" lengthAdjust="spacing" textLength="26" x="73" y="1265.1953">23</text><text fill="#000000" font-family="sans-serif" font-size="20" lengthAdjust="spacing" textLength="213" x="103" y="1265.1953">request an order price</text><polygon fill="#181818" points="554,1304.9688,564,1308.9688,554,1312.9688,558,1308.9688" style="stroke:#181818;stroke-width:1.0;"/><line style="stroke:#181818;stroke-width:1.0;" x1="56" x2="560" y1="1308.9688" y2="1308.9688"/><text fill="#000000" font-family="sans-serif" font-size="20" font-weight="bold" lengthAdjust="spacing" textLength="26" x="63" y="1302.75">24</text><text fill="#000000" font-family="sans-serif" font-size="20" lengthAdjust="spacing" textLength="262" x="93" y="1302.75">Types the price and submit</text><polygon fill="#181818" points="1038,1342.5234,1048,1346.5234,1038,1350.5234,1042,1346.5234" style="stroke:#181818;stroke-width:1.0;"/><line style="stroke:#181818;stroke-width:1.0;" x1="576" x2="1044" y1="1346.5234" y2="1346.5234"/><text fill="#000000" font-family="sans-serif" font-size="20" font-weight="bold" lengthAdjust="spacing" textLength="26" x="583" y="1340.3047">25</text><text fill="#000000" font-family="sans-serif" font-size="20" lengthAdjust="spacing" textLength="417" x="613" y="1340.3047">createOrder(announcementDTO,value,date)</text><rect fill="none" height="57.1094" style="stroke:#000000;stroke-width:1.5;" width="266" x="922" y="1354.5234"/><path d="M922,1354.5234 L996,1354.5234 L996,1369.5234 L986,1379.5234 L922,1379.5234 L922,1354.5234 " fill="#EEEEEE" style="stroke:#000000;stroke-width:2.0;"/><text fill="#000000" font-family="sans-serif" font-size="20" font-weight="bold" lengthAdjust="spacing" textLength="29" x="935" y="1375.8594">ref</text><text fill="#000000" font-family="sans-serif" font-size="20" lengthAdjust="spacing" textLength="172" x="969" y="1402.8594">Get Client Session</text><rect fill="none" height="57.1094" style="stroke:#000000;stroke-width:1.5;" width="316" x="922" y="1416.6328"/><path d="M922,1416.6328 L996,1416.6328 L996,1431.6328 L986,1441.6328 L922,1441.6328 L922,1416.6328 " fill="#EEEEEE" style="stroke:#000000;stroke-width:2.0;"/><text fill="#000000" font-family="sans-serif" font-size="20" font-weight="bold" lengthAdjust="spacing" textLength="29" x="935" y="1437.9688">ref</text><text fill="#000000" font-family="sans-serif" font-size="20" lengthAdjust="spacing" textLength="308" x="926" y="1464.9688">Validate Order and create Order</text><polygon fill="#181818" points="587,1504.2969,577,1508.2969,587,1512.2969,583,1508.2969" style="stroke:#181818;stroke-width:1.0;"/><line style="stroke:#181818;stroke-width:1.0;stroke-dasharray:2.0,2.0;" x1="581" x2="1054" y1="1508.2969" y2="1508.2969"/><text fill="#000000" font-family="sans-serif" font-size="20" font-weight="bold" lengthAdjust="spacing" textLength="26" x="593" y="1502.0781">26</text><text fill="#000000" font-family="sans-serif" font-size="20" lengthAdjust="spacing" textLength="163" x="623" y="1502.0781">success message</text><polygon fill="#181818" points="67,1541.8516,57,1545.8516,67,1549.8516,63,1545.8516" style="stroke:#181818;stroke-width:1.0;"/><line style="stroke:#181818;stroke-width:1.0;stroke-dasharray:2.0,2.0;" x1="61" x2="570" y1="1545.8516" y2="1545.8516"/><text fill="#000000" font-family="sans-serif" font-size="20" font-weight="bold" lengthAdjust="spacing" textLength="26" x="73" y="1539.6328">27</text><text fill="#000000" font-family="sans-serif" font-size="20" lengthAdjust="spacing" textLength="235" x="103" y="1539.6328">shows a sucess message</text><!--SRC=[hLPDRzim3BthLt2vB2rIODWnm0Pq6JOKAD1XQNVQHP6PM8WiUPASBllrewJASHpdeyDq21oBV7oa7YcxjTGrjxnIHgonW0ANl57-Yz5-BlyWl7_7N3Q1ocWZIcig16yRxEpKNApv2kT-gn0i2i_rIdKDNCaByopr2fPSEMICDzxefbgWPUnjAGk4fJ5-ONupBhonC9efYTgFW3iGyP4HafT2rbnx64tdoAqed-wYnTDTR_TMQzDeWHKvpYWPQvH26srdZz_lMOWYDznZ1cT0Apt3pKS2X2aPhy4RS34IyRDGMrCZnK4NxLiGYXzVX4Mk112YN5zFXKNQJvjXWtPIa2cLn3mxy2M2aiw3MOBVrkZ2mw9nKgDBGGhCOGP9Yj8OXs0qHlyzzs6Ib_DuINVRuz4YdQUoXt3WpvM7RoyMoUND1xZdkjWhPeShdOYB1v6a4o9OOohNsW-GV6NDiaiN9_n7OiLsPqieA_HTcTs7weqppYGYJnAzgnPr3paf4NhBuXBCXfABsp2mlgA7RkJR3PUABnG62fyV7mwS8lVkYvZ1JIv7SElYzI4wHKsKBzHHhrjwPnFVcThdDZEseAIp_wc6t5bcUIMNysg7J9Cdai_IbpkvEsFzKQPTAeI2YgPSmCa2QftF38L1tJo4ZB0O1x0hnlwlNER4xFLwwSk5YaY97o6UGVgpwgX43XedaCHY42IpwObXtXx1wI6JU1oh_gVjNJ6MnSKTUhhSHpiJv7v5OqUoNdrZNgSQyR0XpvIvxG-QU8wkzwXthXH8JLEqubuQ3JyrqCWDhHZ-XGklMLII-bAdJhjm-i_IK0rXJqETkv0i_chGxPme2odmGXQFiPbJxkGLCqia1YSxo-f8uaZNTHJrcEyVn6J3LOEJWlQlJZNelutpzBL3cdQEAdT-W5-6_8Ch6GX3p2ZM8cMONWo7ETBvL4KXY1vKz4FVUYTlYC7hkpDy2QiBTT3sQVq5]--></g></svg>