<?xml version="1.0" encoding="UTF-8" standalone="no"?><svg xmlns="http://www.w3.org/2000/svg" xmlns:xlink="http://www.w3.org/1999/xlink" contentStyleType="text/css" height="1451px" preserveAspectRatio="none" style="width:2232px;height:1451px;background:#FFFFFF;" version="1.1" viewBox="0 0 2232 1451" width="2232px" zoomAndPan="magnify"><defs/><g><!--class ctrl--><g id="elem_ctrl"><rect codeLine="11" fill="#F1F1F1" height="144.2188" id="ctrl" rx="2.5" ry="2.5" style="stroke:#181818;stroke-width:0.5;" width="448" x="914" y="7"/><ellipse cx="1013.5" cy="24" fill="#ADD1B2" rx="12" ry="12" style="stroke:#181818;stroke-width:1.0;"/><path d="M1016.3066,31.0801 Q1015.623,31.4316 1014.8711,31.6074 Q1014.1191,31.7832 1013.2891,31.7832 Q1010.3398,31.7832 1008.7871,29.8398 Q1007.2344,27.8965 1007.2344,24.2246 Q1007.2344,20.543 1008.7871,18.5996 Q1010.3398,16.6563 1013.2891,16.6563 Q1014.1191,16.6563 1014.8809,16.832 Q1015.6426,17.0078 1016.3066,17.3594 L1016.3066,20.5625 Q1015.5645,19.8789 1014.8662,19.5615 Q1014.168,19.2441 1013.4258,19.2441 Q1011.8438,19.2441 1011.0381,20.499 Q1010.2324,21.7539 1010.2324,24.2246 Q1010.2324,26.6855 1011.0381,27.9404 Q1011.8438,29.1953 1013.4258,29.1953 Q1014.168,29.1953 1014.8662,28.8779 Q1015.5645,28.5605 1016.3066,27.877 Z " fill="#000000"/><text fill="#000000" font-family="sans-serif" font-size="20" lengthAdjust="spacing" textLength="240" x="1035.5" y="31.5586">AnnouncementController</text><line style="stroke:#181818;stroke-width:0.5;" x1="915" x2="1361" y1="41" y2="41"/><line style="stroke:#181818;stroke-width:0.5;" x1="915" x2="1361" y1="49" y2="49"/><text fill="#000000" font-family="sans-serif" font-size="20" lengthAdjust="spacing" textLength="436" x="920" y="72.3359">+getAnnouncementList(business,type,rooms)</text><text fill="#000000" font-family="sans-serif" font-size="20" lengthAdjust="spacing" textLength="359" x="920" y="95.8906">+getAnnouncementListOrdered(type)</text><text fill="#000000" font-family="sans-serif" font-size="20" lengthAdjust="spacing" textLength="264" x="920" y="119.4453">+getAnnouncementById(id)</text><text fill="#000000" font-family="sans-serif" font-size="20" lengthAdjust="spacing" textLength="433" x="920" y="143">+createOrder(announcementDTO,value,date)</text></g><!--class Repositories--><g id="elem_Repositories"><rect codeLine="19" fill="#F1F1F1" height="120.6641" id="Repositories" rx="2.5" ry="2.5" style="stroke:#181818;stroke-width:0.5;" width="318" x="568" y="212"/><ellipse cx="663" cy="229" fill="#ADD1B2" rx="12" ry="12" style="stroke:#181818;stroke-width:1.0;"/><path d="M665.8066,236.0801 Q665.123,236.4316 664.3711,236.6074 Q663.6191,236.7832 662.7891,236.7832 Q659.8398,236.7832 658.2871,234.8398 Q656.7344,232.8965 656.7344,229.2246 Q656.7344,225.543 658.2871,223.5996 Q659.8398,221.6563 662.7891,221.6563 Q663.6191,221.6563 664.3809,221.832 Q665.1426,222.0078 665.8066,222.3594 L665.8066,225.5625 Q665.0645,224.8789 664.3662,224.5615 Q663.668,224.2441 662.9258,224.2441 Q661.3438,224.2441 660.5381,225.499 Q659.7324,226.7539 659.7324,229.2246 Q659.7324,231.6855 660.5381,232.9404 Q661.3438,234.1953 662.9258,234.1953 Q663.668,234.1953 664.3662,233.8779 Q665.0645,233.5605 665.8066,232.877 Z " fill="#000000"/><text fill="#000000" font-family="sans-serif" font-size="20" lengthAdjust="spacing" textLength="119" x="685" y="236.5586">Repositories</text><line style="stroke:#181818;stroke-width:0.5;" x1="569" x2="885" y1="246" y2="246"/><line style="stroke:#181818;stroke-width:0.5;" x1="569" x2="885" y1="254" y2="254"/><text fill="#000000" font-family="sans-serif" font-size="20" lengthAdjust="spacing" textLength="145" x="574" y="277.3359">-Repositories()</text><text fill="#000000" font-family="sans-serif" font-size="20" lengthAdjust="spacing" textLength="276" x="574" y="300.8906">+getInstance() : Repositories</text><text fill="#000000" font-family="sans-serif" font-size="20" lengthAdjust="spacing" textLength="306" x="574" y="324.4453">+getAnnouncementRepository()</text></g><!--class AnnouncementRepository--><g id="elem_AnnouncementRepository"><rect codeLine="25" fill="#F1F1F1" height="73.5547" id="AnnouncementRepository" rx="2.5" ry="2.5" style="stroke:#181818;stroke-width:0.5;" width="460" x="1765" y="235.5"/><ellipse cx="1867.5" cy="252.5" fill="#ADD1B2" rx="12" ry="12" style="stroke:#181818;stroke-width:1.0;"/><path d="M1870.3066,259.5801 Q1869.623,259.9316 1868.8711,260.1074 Q1868.1191,260.2832 1867.2891,260.2832 Q1864.3398,260.2832 1862.7871,258.3398 Q1861.2344,256.3965 1861.2344,252.7246 Q1861.2344,249.043 1862.7871,247.0996 Q1864.3398,245.1563 1867.2891,245.1563 Q1868.1191,245.1563 1868.8809,245.332 Q1869.6426,245.5078 1870.3066,245.8594 L1870.3066,249.0625 Q1869.5645,248.3789 1868.8662,248.0615 Q1868.168,247.7441 1867.4258,247.7441 Q1865.8438,247.7441 1865.0381,248.999 Q1864.2324,250.2539 1864.2324,252.7246 Q1864.2324,255.1855 1865.0381,256.4404 Q1865.8438,257.6953 1867.4258,257.6953 Q1868.168,257.6953 1868.8662,257.3779 Q1869.5645,257.0605 1870.3066,256.377 Z " fill="#000000"/><text fill="#000000" font-family="sans-serif" font-size="20" lengthAdjust="spacing" textLength="246" x="1889.5" y="260.0586">AnnouncementRepository</text><line style="stroke:#181818;stroke-width:0.5;" x1="1766" x2="2224" y1="269.5" y2="269.5"/><line style="stroke:#181818;stroke-width:0.5;" x1="1766" x2="2224" y1="277.5" y2="277.5"/><text fill="#000000" font-family="sans-serif" font-size="20" lengthAdjust="spacing" textLength="448" x="1771" y="300.8359">+getAnnouncementList(business, type, rooms)</text></g><!--class AnnouncementAvailable--><g id="elem_AnnouncementAvailable"><rect codeLine="89" fill="#F1F1F1" height="379.7656" id="AnnouncementAvailable" rx="2.5" ry="2.5" style="stroke:#181818;stroke-width:0.5;" width="529" x="1683.5" y="418"/><ellipse cx="1827.5" cy="435" fill="#ADD1B2" rx="12" ry="12" style="stroke:#181818;stroke-width:1.0;"/><path d="M1830.3066,442.0801 Q1829.623,442.4316 1828.8711,442.6074 Q1828.1191,442.7832 1827.2891,442.7832 Q1824.3398,442.7832 1822.7871,440.8398 Q1821.2344,438.8965 1821.2344,435.2246 Q1821.2344,431.543 1822.7871,429.5996 Q1824.3398,427.6563 1827.2891,427.6563 Q1828.1191,427.6563 1828.8809,427.832 Q1829.6426,428.0078 1830.3066,428.3594 L1830.3066,431.5625 Q1829.5645,430.8789 1828.8662,430.5615 Q1828.168,430.2441 1827.4258,430.2441 Q1825.8438,430.2441 1825.0381,431.499 Q1824.2324,432.7539 1824.2324,435.2246 Q1824.2324,437.6855 1825.0381,438.9404 Q1825.8438,440.1953 1827.4258,440.1953 Q1828.168,440.1953 1828.8662,439.8779 Q1829.5645,439.5605 1830.3066,438.877 Z " fill="#000000"/><text fill="#000000" font-family="sans-serif" font-size="20" lengthAdjust="spacing" textLength="232" x="1849.5" y="442.5586">AnnouncementAvailable</text><line style="stroke:#181818;stroke-width:0.5;" x1="1684.5" x2="2211.5" y1="452" y2="452"/><text fill="#000000" font-family="sans-serif" font-size="20" lengthAdjust="spacing" textLength="62" x="1689.5" y="475.3359">-Int id</text><text fill="#000000" font-family="sans-serif" font-size="20" lengthAdjust="spacing" textLength="104" x="1689.5" y="498.8906">-Date date</text><text fill="#000000" font-family="sans-serif" font-size="20" lengthAdjust="spacing" textLength="184" x="1689.5" y="522.4453">-Double comission</text><text fill="#000000" font-family="sans-serif" font-size="20" lengthAdjust="spacing" textLength="135" x="1689.5" y="546">-Double price</text><text fill="#000000" font-family="sans-serif" font-size="20" lengthAdjust="spacing" textLength="178" x="1689.5" y="569.5547">-Property Property</text><text fill="#000000" font-family="sans-serif" font-size="20" lengthAdjust="spacing" textLength="127" x="1689.5" y="593.1094">-Agent agent</text><text fill="#000000" font-family="sans-serif" font-size="20" lengthAdjust="spacing" textLength="196" x="1689.5" y="616.6641">-List&lt;Order&gt; Order</text><line style="stroke:#181818;stroke-width:0.5;" x1="1684.5" x2="2211.5" y1="624.8828" y2="624.8828"/><text fill="#000000" font-family="sans-serif" font-size="20" lengthAdjust="spacing" textLength="505" x="1689.5" y="648.2188">+filterAnnouncementAvailable(business,type,rooms)</text><text fill="#000000" font-family="sans-serif" font-size="20" lengthAdjust="spacing" textLength="517" x="1689.5" y="671.7734">+filterAnnouncementAvailable(business, type, rooms)</text><text fill="#000000" font-family="sans-serif" font-size="20" lengthAdjust="spacing" textLength="175" x="1689.5" y="695.3281">+addOrder(order)</text><text fill="#000000" font-family="sans-serif" font-size="20" lengthAdjust="spacing" textLength="257" x="1689.5" y="718.8828">+isValueHigherThanPrice()</text><text fill="#000000" font-family="sans-serif" font-size="20" lengthAdjust="spacing" textLength="256" x="1689.5" y="742.4375">+isAnotherOrderByClient()</text><text fill="#000000" font-family="sans-serif" font-size="20" lengthAdjust="spacing" textLength="325" x="1689.5" y="765.9922">+isAnotherOrderWithSameValue()</text><text fill="#000000" font-family="sans-serif" font-size="20" lengthAdjust="spacing" textLength="385" x="1689.5" y="789.5469">+create(announcementAvailable, Order)</text></g><!--class appSession--><g id="elem_appSession"><rect codeLine="35" fill="#F1F1F1" height="97.1094" id="appSession" rx="2.5" ry="2.5" style="stroke:#181818;stroke-width:0.5;" width="216" x="1030" y="224"/><ellipse cx="1046" cy="241" fill="#ADD1B2" rx="12" ry="12" style="stroke:#181818;stroke-width:1.0;"/><path d="M1048.8066,248.0801 Q1048.123,248.4316 1047.3711,248.6074 Q1046.6191,248.7832 1045.7891,248.7832 Q1042.8398,248.7832 1041.2871,246.8398 Q1039.7344,244.8965 1039.7344,241.2246 Q1039.7344,237.543 1041.2871,235.5996 Q1042.8398,233.6563 1045.7891,233.6563 Q1046.6191,233.6563 1047.3809,233.832 Q1048.1426,234.0078 1048.8066,234.3594 L1048.8066,237.5625 Q1048.0645,236.8789 1047.3662,236.5615 Q1046.668,236.2441 1045.9258,236.2441 Q1044.3438,236.2441 1043.5381,237.499 Q1042.7324,238.7539 1042.7324,241.2246 Q1042.7324,243.6855 1043.5381,244.9404 Q1044.3438,246.1953 1045.9258,246.1953 Q1046.668,246.1953 1047.3662,245.8779 Q1048.0645,245.5605 1048.8066,244.877 Z " fill="#000000"/><text fill="#000000" font-family="sans-serif" font-size="20" lengthAdjust="spacing" textLength="182" x="1061" y="248.5586">ApplicationSession</text><line style="stroke:#181818;stroke-width:0.5;" x1="1031" x2="1245" y1="258" y2="258"/><line style="stroke:#181818;stroke-width:0.5;" x1="1031" x2="1245" y1="266" y2="266"/><text fill="#000000" font-family="sans-serif" font-size="20" lengthAdjust="spacing" textLength="139" x="1036" y="289.3359">+getInstance()</text><text fill="#000000" font-family="sans-serif" font-size="20" lengthAdjust="spacing" textLength="204" x="1036" y="312.8906">+getCurrentSession()</text></g><!--class Property--><g id="elem_Property"><rect codeLine="41" fill="#F1F1F1" height="261.9922" id="Property" rx="2.5" ry="2.5" style="stroke:#181818;stroke-width:0.5;" width="198" x="1544" y="883"/><ellipse cx="1598.5" cy="900" fill="#ADD1B2" rx="12" ry="12" style="stroke:#181818;stroke-width:1.0;"/><path d="M1601.3066,907.0801 Q1600.623,907.4316 1599.8711,907.6074 Q1599.1191,907.7832 1598.2891,907.7832 Q1595.3398,907.7832 1593.7871,905.8398 Q1592.2344,903.8965 1592.2344,900.2246 Q1592.2344,896.543 1593.7871,894.5996 Q1595.3398,892.6563 1598.2891,892.6563 Q1599.1191,892.6563 1599.8809,892.832 Q1600.6426,893.0078 1601.3066,893.3594 L1601.3066,896.5625 Q1600.5645,895.8789 1599.8662,895.5615 Q1599.168,895.2441 1598.4258,895.2441 Q1596.8438,895.2441 1596.0381,896.499 Q1595.2324,897.7539 1595.2324,900.2246 Q1595.2324,902.6855 1596.0381,903.9404 Q1596.8438,905.1953 1598.4258,905.1953 Q1599.168,905.1953 1599.8662,904.8779 Q1600.5645,904.5605 1601.3066,903.877 Z " fill="#000000"/><text fill="#000000" font-family="sans-serif" font-size="20" lengthAdjust="spacing" textLength="80" x="1620.5" y="907.5586">Property</text><line style="stroke:#181818;stroke-width:0.5;" x1="1545" x2="1741" y1="917" y2="917"/><text fill="#000000" font-family="sans-serif" font-size="20" lengthAdjust="spacing" textLength="62" x="1550" y="940.3359">-Int id</text><text fill="#000000" font-family="sans-serif" font-size="20" lengthAdjust="spacing" textLength="115" x="1550" y="963.8906">-String type</text><text fill="#000000" font-family="sans-serif" font-size="20" lengthAdjust="spacing" textLength="150" x="1550" y="987.4453">-String location</text><text fill="#000000" font-family="sans-serif" font-size="20" lengthAdjust="spacing" textLength="84" x="1550" y="1011">-Int area</text><text fill="#000000" font-family="sans-serif" font-size="20" lengthAdjust="spacing" textLength="186" x="1550" y="1034.5547">-Int distanceCenter</text><text fill="#000000" font-family="sans-serif" font-size="20" lengthAdjust="spacing" textLength="182" x="1550" y="1058.1094">-String description</text><text fill="#000000" font-family="sans-serif" font-size="20" lengthAdjust="spacing" textLength="124" x="1550" y="1081.6641">-photograph</text><text fill="#000000" font-family="sans-serif" font-size="20" lengthAdjust="spacing" textLength="138" x="1550" y="1105.2188">-Owner owner</text><line style="stroke:#181818;stroke-width:0.5;" x1="1545" x2="1741" y1="1113.4375" y2="1113.4375"/><text fill="#000000" font-family="sans-serif" font-size="20" lengthAdjust="spacing" textLength="134" x="1550" y="1136.7734">+isType(type)</text></g><!--class Apartment--><g id="elem_Apartment"><rect codeLine="146" fill="#F1F1F1" height="167.7734" id="Apartment" rx="2.5" ry="2.5" style="stroke:#181818;stroke-width:0.5;" width="244" x="1242" y="1241"/><ellipse cx="1308.5" cy="1258" fill="#ADD1B2" rx="12" ry="12" style="stroke:#181818;stroke-width:1.0;"/><path d="M1311.3066,1265.0801 Q1310.623,1265.4316 1309.8711,1265.6074 Q1309.1191,1265.7832 1308.2891,1265.7832 Q1305.3398,1265.7832 1303.7871,1263.8398 Q1302.2344,1261.8965 1302.2344,1258.2246 Q1302.2344,1254.543 1303.7871,1252.5996 Q1305.3398,1250.6563 1308.2891,1250.6563 Q1309.1191,1250.6563 1309.8809,1250.832 Q1310.6426,1251.0078 1311.3066,1251.3594 L1311.3066,1254.5625 Q1310.5645,1253.8789 1309.8662,1253.5615 Q1309.168,1253.2441 1308.4258,1253.2441 Q1306.8438,1253.2441 1306.0381,1254.499 Q1305.2324,1255.7539 1305.2324,1258.2246 Q1305.2324,1260.6855 1306.0381,1261.9404 Q1306.8438,1263.1953 1308.4258,1263.1953 Q1309.168,1263.1953 1309.8662,1262.8779 Q1310.5645,1262.5605 1311.3066,1261.877 Z " fill="#000000"/><text fill="#000000" font-family="sans-serif" font-size="20" lengthAdjust="spacing" textLength="102" x="1330.5" y="1265.5586">Apartment</text><line style="stroke:#181818;stroke-width:0.5;" x1="1243" x2="1485" y1="1275" y2="1275"/><text fill="#000000" font-family="sans-serif" font-size="20" lengthAdjust="spacing" textLength="184" x="1248" y="1298.3359">-Int numberRooms</text><text fill="#000000" font-family="sans-serif" font-size="20" lengthAdjust="spacing" textLength="221" x="1248" y="1321.8906">-Int numberBathrooms</text><text fill="#000000" font-family="sans-serif" font-size="20" lengthAdjust="spacing" textLength="190" x="1248" y="1345.4453">-Int numberParking</text><text fill="#000000" font-family="sans-serif" font-size="20" lengthAdjust="spacing" textLength="178" x="1248" y="1369">-String equipment</text><line style="stroke:#181818;stroke-width:0.5;" x1="1243" x2="1485" y1="1377.2188" y2="1377.2188"/><text fill="#000000" font-family="sans-serif" font-size="20" lengthAdjust="spacing" textLength="232" x="1248" y="1400.5547">+numberRooms(rooms)</text></g><!--class House--><g id="elem_House"><rect codeLine="147" fill="#F1F1F1" height="238.4375" id="House" rx="2.5" ry="2.5" style="stroke:#181818;stroke-width:0.5;" width="244" x="1521" y="1206"/><ellipse cx="1608.5" cy="1223" fill="#ADD1B2" rx="12" ry="12" style="stroke:#181818;stroke-width:1.0;"/><path d="M1611.3066,1230.0801 Q1610.623,1230.4316 1609.8711,1230.6074 Q1609.1191,1230.7832 1608.2891,1230.7832 Q1605.3398,1230.7832 1603.7871,1228.8398 Q1602.2344,1226.8965 1602.2344,1223.2246 Q1602.2344,1219.543 1603.7871,1217.5996 Q1605.3398,1215.6563 1608.2891,1215.6563 Q1609.1191,1215.6563 1609.8809,1215.832 Q1610.6426,1216.0078 1611.3066,1216.3594 L1611.3066,1219.5625 Q1610.5645,1218.8789 1609.8662,1218.5615 Q1609.168,1218.2441 1608.4258,1218.2441 Q1606.8438,1218.2441 1606.0381,1219.499 Q1605.2324,1220.7539 1605.2324,1223.2246 Q1605.2324,1225.6855 1606.0381,1226.9404 Q1606.8438,1228.1953 1608.4258,1228.1953 Q1609.168,1228.1953 1609.8662,1227.8779 Q1610.5645,1227.5605 1611.3066,1226.877 Z " fill="#000000"/><text fill="#000000" font-family="sans-serif" font-size="20" lengthAdjust="spacing" textLength="60" x="1630.5" y="1230.5586">House</text><line style="stroke:#181818;stroke-width:0.5;" x1="1522" x2="1764" y1="1240" y2="1240"/><text fill="#000000" font-family="sans-serif" font-size="20" lengthAdjust="spacing" textLength="184" x="1527" y="1263.3359">-Int numberRooms</text><text fill="#000000" font-family="sans-serif" font-size="20" lengthAdjust="spacing" textLength="221" x="1527" y="1286.8906">-Int numberBathrooms</text><text fill="#000000" font-family="sans-serif" font-size="20" lengthAdjust="spacing" textLength="190" x="1527" y="1310.4453">-Int numberParking</text><text fill="#000000" font-family="sans-serif" font-size="20" lengthAdjust="spacing" textLength="178" x="1527" y="1334">-String equipment</text><text fill="#000000" font-family="sans-serif" font-size="20" lengthAdjust="spacing" textLength="106" x="1527" y="1357.5547">-basement</text><text fill="#000000" font-family="sans-serif" font-size="20" lengthAdjust="spacing" textLength="44" x="1527" y="1381.1094">-loft</text><text fill="#000000" font-family="sans-serif" font-size="20" lengthAdjust="spacing" textLength="135" x="1527" y="1404.6641">-sunExposure</text><line style="stroke:#181818;stroke-width:0.5;" x1="1522" x2="1764" y1="1412.8828" y2="1412.8828"/><text fill="#000000" font-family="sans-serif" font-size="20" lengthAdjust="spacing" textLength="232" x="1527" y="1436.2188">+numberRooms(rooms)</text></g><!--class Land--><g id="elem_Land"><rect codeLine="148" fill="#F1F1F1" height="50" id="Land" rx="2.5" ry="2.5" style="stroke:#181818;stroke-width:0.5;" width="81" x="1800.5" y="1300"/><ellipse cx="1816.5" cy="1317" fill="#ADD1B2" rx="12" ry="12" style="stroke:#181818;stroke-width:1.0;"/><path d="M1819.3066,1324.0801 Q1818.623,1324.4316 1817.8711,1324.6074 Q1817.1191,1324.7832 1816.2891,1324.7832 Q1813.3398,1324.7832 1811.7871,1322.8398 Q1810.2344,1320.8965 1810.2344,1317.2246 Q1810.2344,1313.543 1811.7871,1311.5996 Q1813.3398,1309.6563 1816.2891,1309.6563 Q1817.1191,1309.6563 1817.8809,1309.832 Q1818.6426,1310.0078 1819.3066,1310.3594 L1819.3066,1313.5625 Q1818.5645,1312.8789 1817.8662,1312.5615 Q1817.168,1312.2441 1816.4258,1312.2441 Q1814.8438,1312.2441 1814.0381,1313.499 Q1813.2324,1314.7539 1813.2324,1317.2246 Q1813.2324,1319.6855 1814.0381,1320.9404 Q1814.8438,1322.1953 1816.4258,1322.1953 Q1817.168,1322.1953 1817.8662,1321.8779 Q1818.5645,1321.5605 1819.3066,1320.877 Z " fill="#000000"/><text fill="#000000" font-family="sans-serif" font-size="20" lengthAdjust="spacing" textLength="47" x="1831.5" y="1324.5586">Land</text><line style="stroke:#181818;stroke-width:0.5;" x1="1801.5" x2="1880.5" y1="1334" y2="1334"/><line style="stroke:#181818;stroke-width:0.5;" x1="1801.5" x2="1880.5" y1="1342" y2="1342"/></g><!--class userSession--><g id="elem_userSession"><rect codeLine="81" fill="#F1F1F1" height="73.5547" id="userSession" rx="2.5" ry="2.5" style="stroke:#181818;stroke-width:0.5;" width="181" x="1395.5" y="235.5"/><ellipse cx="1425.9" cy="252.5" fill="#ADD1B2" rx="12" ry="12" style="stroke:#181818;stroke-width:1.0;"/><path d="M1428.7066,259.5801 Q1428.023,259.9316 1427.2711,260.1074 Q1426.5191,260.2832 1425.6891,260.2832 Q1422.7398,260.2832 1421.1871,258.3398 Q1419.6344,256.3965 1419.6344,252.7246 Q1419.6344,249.043 1421.1871,247.0996 Q1422.7398,245.1563 1425.6891,245.1563 Q1426.5191,245.1563 1427.2809,245.332 Q1428.0426,245.5078 1428.7066,245.8594 L1428.7066,249.0625 Q1427.9645,248.3789 1427.2662,248.0615 Q1426.568,247.7441 1425.8258,247.7441 Q1424.2438,247.7441 1423.4381,248.999 Q1422.6324,250.2539 1422.6324,252.7246 Q1422.6324,255.1855 1423.4381,256.4404 Q1424.2438,257.6953 1425.8258,257.6953 Q1426.568,257.6953 1427.2662,257.3779 Q1427.9645,257.0605 1428.7066,256.377 Z " fill="#000000"/><text fill="#000000" font-family="sans-serif" font-size="20" lengthAdjust="spacing" textLength="115" x="1444.1" y="260.0586">UserSession</text><line style="stroke:#181818;stroke-width:0.5;" x1="1396.5" x2="1575.5" y1="269.5" y2="269.5"/><line style="stroke:#181818;stroke-width:0.5;" x1="1396.5" x2="1575.5" y1="277.5" y2="277.5"/><text fill="#000000" font-family="sans-serif" font-size="20" lengthAdjust="spacing" textLength="169" x="1401.5" y="300.8359">+getClientEmail()</text></g><!--class SearchUI--><g id="elem_SearchUI"><rect codeLine="106" fill="#F1F1F1" height="50" id="SearchUI" rx="2.5" ry="2.5" style="stroke:#181818;stroke-width:0.5;" width="117" x="375.5" y="54"/><ellipse cx="391.5" cy="71" fill="#ADD1B2" rx="12" ry="12" style="stroke:#181818;stroke-width:1.0;"/><path d="M394.3066,78.0801 Q393.623,78.4316 392.8711,78.6074 Q392.1191,78.7832 391.2891,78.7832 Q388.3398,78.7832 386.7871,76.8398 Q385.2344,74.8965 385.2344,71.2246 Q385.2344,67.543 386.7871,65.5996 Q388.3398,63.6563 391.2891,63.6563 Q392.1191,63.6563 392.8809,63.832 Q393.6426,64.0078 394.3066,64.3594 L394.3066,67.5625 Q393.5645,66.8789 392.8662,66.5615 Q392.168,66.2441 391.4258,66.2441 Q389.8438,66.2441 389.0381,67.499 Q388.2324,68.7539 388.2324,71.2246 Q388.2324,73.6855 389.0381,74.9404 Q389.8438,76.1953 391.4258,76.1953 Q392.168,76.1953 392.8662,75.8779 Q393.5645,75.5605 394.3066,74.877 Z " fill="#000000"/><text fill="#000000" font-family="sans-serif" font-size="20" lengthAdjust="spacing" textLength="83" x="406.5" y="78.5586">SearchUI</text><line style="stroke:#181818;stroke-width:0.5;" x1="376.5" x2="491.5" y1="88" y2="88"/><line style="stroke:#181818;stroke-width:0.5;" x1="376.5" x2="491.5" y1="96" y2="96"/></g><!--class order--><g id="elem_order"><rect codeLine="111" fill="#F1F1F1" height="120.6641" id="order" rx="2.5" ry="2.5" style="stroke:#181818;stroke-width:0.5;" width="317" x="1789.5" y="953.5"/><ellipse cx="1917.5" cy="970.5" fill="#ADD1B2" rx="12" ry="12" style="stroke:#181818;stroke-width:1.0;"/><path d="M1920.3066,977.5801 Q1919.623,977.9316 1918.8711,978.1074 Q1918.1191,978.2832 1917.2891,978.2832 Q1914.3398,978.2832 1912.7871,976.3398 Q1911.2344,974.3965 1911.2344,970.7246 Q1911.2344,967.043 1912.7871,965.0996 Q1914.3398,963.1563 1917.2891,963.1563 Q1918.1191,963.1563 1918.8809,963.332 Q1919.6426,963.5078 1920.3066,963.8594 L1920.3066,967.0625 Q1919.5645,966.3789 1918.8662,966.0615 Q1918.168,965.7441 1917.4258,965.7441 Q1915.8438,965.7441 1915.0381,966.999 Q1914.2324,968.2539 1914.2324,970.7246 Q1914.2324,973.1855 1915.0381,974.4404 Q1915.8438,975.6953 1917.4258,975.6953 Q1918.168,975.6953 1918.8662,975.3779 Q1919.5645,975.0605 1920.3066,974.377 Z " fill="#000000"/><text fill="#000000" font-family="sans-serif" font-size="20" lengthAdjust="spacing" textLength="52" x="1939.5" y="978.0586">order</text><line style="stroke:#181818;stroke-width:0.5;" x1="1790.5" x2="2105.5" y1="987.5" y2="987.5"/><text fill="#000000" font-family="sans-serif" font-size="20" lengthAdjust="spacing" textLength="117" x="1795.5" y="1010.8359">-clientEmail</text><text fill="#000000" font-family="sans-serif" font-size="20" lengthAdjust="spacing" textLength="62" x="1795.5" y="1034.3906">-value</text><line style="stroke:#181818;stroke-width:0.5;" x1="1790.5" x2="2105.5" y1="1042.6094" y2="1042.6094"/><text fill="#000000" font-family="sans-serif" font-size="20" lengthAdjust="spacing" textLength="305" x="1795.5" y="1065.9453">+createOrder(clientEmail,value)</text></g><!--class AnnouncementDTO--><g id="elem_AnnouncementDTO"><rect codeLine="118" fill="#F1F1F1" height="214.8828" id="AnnouncementDTO" rx="2.5" ry="2.5" style="stroke:#181818;stroke-width:0.5;" width="222" x="7" y="500.5"/><ellipse cx="23" cy="517.5" fill="#ADD1B2" rx="12" ry="12" style="stroke:#181818;stroke-width:1.0;"/><path d="M25.8066,524.5801 Q25.123,524.9316 24.3711,525.1074 Q23.6191,525.2832 22.7891,525.2832 Q19.8398,525.2832 18.2871,523.3398 Q16.7344,521.3965 16.7344,517.7246 Q16.7344,514.043 18.2871,512.0996 Q19.8398,510.1563 22.7891,510.1563 Q23.6191,510.1563 24.3809,510.332 Q25.1426,510.5078 25.8066,510.8594 L25.8066,514.0625 Q25.0645,513.3789 24.3662,513.0615 Q23.668,512.7441 22.9258,512.7441 Q21.3438,512.7441 20.5381,513.999 Q19.7324,515.2539 19.7324,517.7246 Q19.7324,520.1855 20.5381,521.4404 Q21.3438,522.6953 22.9258,522.6953 Q23.668,522.6953 24.3662,522.3779 Q25.0645,522.0605 25.8066,521.377 Z " fill="#000000"/><text fill="#000000" font-family="sans-serif" font-size="20" lengthAdjust="spacing" textLength="188" x="38" y="525.0586">AnnouncementDTO</text><line style="stroke:#181818;stroke-width:0.5;" x1="8" x2="228" y1="534.5" y2="534.5"/><text fill="#000000" font-family="sans-serif" font-size="20" lengthAdjust="spacing" textLength="62" x="13" y="557.8359">-Int id</text><text fill="#000000" font-family="sans-serif" font-size="20" lengthAdjust="spacing" textLength="104" x="13" y="581.3906">-Date date</text><text fill="#000000" font-family="sans-serif" font-size="20" lengthAdjust="spacing" textLength="184" x="13" y="604.9453">-Double comission</text><text fill="#000000" font-family="sans-serif" font-size="20" lengthAdjust="spacing" textLength="135" x="13" y="628.5">-Double price</text><text fill="#000000" font-family="sans-serif" font-size="20" lengthAdjust="spacing" textLength="178" x="13" y="652.0547">-Property Property</text><text fill="#000000" font-family="sans-serif" font-size="20" lengthAdjust="spacing" textLength="127" x="13" y="675.6094">-Agent agent</text><text fill="#000000" font-family="sans-serif" font-size="20" lengthAdjust="spacing" textLength="196" x="13" y="699.1641">-List&lt;Order&gt; Order</text><line style="stroke:#181818;stroke-width:0.5;" x1="8" x2="228" y1="707.3828" y2="707.3828"/></g><!--class AnnouncementMapper--><g id="elem_AnnouncementMapper"><rect codeLine="128" fill="#F1F1F1" height="97.1094" id="AnnouncementMapper" rx="2.5" ry="2.5" style="stroke:#181818;stroke-width:0.5;" width="361" x="171.5" y="224"/><ellipse cx="239" cy="241" fill="#ADD1B2" rx="12" ry="12" style="stroke:#181818;stroke-width:1.0;"/><path d="M241.8066,248.0801 Q241.123,248.4316 240.3711,248.6074 Q239.6191,248.7832 238.7891,248.7832 Q235.8398,248.7832 234.2871,246.8398 Q232.7344,244.8965 232.7344,241.2246 Q232.7344,237.543 234.2871,235.5996 Q235.8398,233.6563 238.7891,233.6563 Q239.6191,233.6563 240.3809,233.832 Q241.1426,234.0078 241.8066,234.3594 L241.8066,237.5625 Q241.0645,236.8789 240.3662,236.5615 Q239.668,236.2441 238.9258,236.2441 Q237.3438,236.2441 236.5381,237.499 Q235.7324,238.7539 235.7324,241.2246 Q235.7324,243.6855 236.5381,244.9404 Q237.3438,246.1953 238.9258,246.1953 Q239.668,246.1953 240.3662,245.8779 Q241.0645,245.5605 241.8066,244.877 Z " fill="#000000"/><text fill="#000000" font-family="sans-serif" font-size="20" lengthAdjust="spacing" textLength="217" x="261" y="248.5586">AnnouncementMapper</text><line style="stroke:#181818;stroke-width:0.5;" x1="172.5" x2="531.5" y1="258" y2="258"/><line style="stroke:#181818;stroke-width:0.5;" x1="172.5" x2="531.5" y1="266" y2="266"/><text fill="#000000" font-family="sans-serif" font-size="20" lengthAdjust="spacing" textLength="349" x="177.5" y="289.3359">+toDto(ListAnnouncementAvailable)</text><text fill="#000000" font-family="sans-serif" font-size="20" lengthAdjust="spacing" textLength="315" x="177.5" y="312.8906">+toDto(AnnouncementAvailable)</text></g><!--link SearchUI to ctrl--><g id="link_SearchUI_ctrl"><path codeLine="133" d="M492.61,79 C562.12,79 668.67,79 668.67,79 C668.67,79 903.33,79 903.33,79 C903.33,79 905.12,79 908.38,79 " fill="none" id="SearchUI-to-ctrl" style="stroke:#181818;stroke-width:1.0;stroke-dasharray:7.0,7.0;"/><polygon fill="#181818" points="913.72,79,904.72,75,908.72,79,904.72,83,913.72,79" style="stroke:#181818;stroke-width:1.0;"/></g><!--link ctrl to AnnouncementRepository--><g id="link_ctrl_AnnouncementRepository"><path codeLine="135" d="M1362.27,117.75 C1532.69,146.44 1738,181 1738,181 C1738,181 1817.17,208.88 1887.63,233.69 " fill="none" id="ctrl-to-AnnouncementRepository" style="stroke:#181818;stroke-width:1.0;stroke-dasharray:7.0,7.0;"/><polygon fill="#181818" points="1892.69,235.47,1885.5258,228.7117,1887.9729,233.8119,1882.8728,236.259,1892.69,235.47" style="stroke:#181818;stroke-width:1.0;"/></g><!--link ctrl to Repositories--><g id="link_ctrl_Repositories"><path codeLine="136" d="M985.54,151.04 C944.27,170.27 899.94,190.92 859.84,209.61 " fill="none" id="ctrl-to-Repositories" style="stroke:#181818;stroke-width:1.0;stroke-dasharray:7.0,7.0;"/><polygon fill="#181818" points="854.97,211.87,864.8172,211.6871,859.5006,209.7548,861.4328,204.4382,854.97,211.87" style="stroke:#181818;stroke-width:1.0;"/></g><!--link ctrl to Property--><g id="link_ctrl_Property"><path codeLine="137" d="M1362.33,144.94 C1477.54,178.29 1594,212 1594,212 C1594,212 1620.77,649.65 1634.74,877.95 " fill="none" id="ctrl-to-Property" style="stroke:#181818;stroke-width:1.0;stroke-dasharray:7.0,7.0;"/><polygon fill="#181818" points="1635.05,882.97,1638.4775,873.7368,1634.7363,877.9798,1630.4933,874.2387,1635.05,882.97" style="stroke:#181818;stroke-width:1.0;"/></g><!--link ctrl to appSession--><g id="link_ctrl_appSession"><path codeLine="138" d="M1138,151.04 C1138,173.41 1138,197.71 1138,218.59 " fill="none" id="ctrl-to-appSession" style="stroke:#181818;stroke-width:1.0;stroke-dasharray:7.0,7.0;"/><polygon fill="#181818" points="1138,223.83,1142,214.83,1138,218.83,1134,214.83,1138,223.83" style="stroke:#181818;stroke-width:1.0;"/></g><!--link ctrl to AnnouncementAvailable--><g id="link_ctrl_AnnouncementAvailable"><path codeLine="139" d="M1362.19,123.71 C1502.19,151.01 1656,181 1656,181 C1656,181 1748,333 1748,333 C1748,333 1773.82,368.37 1806.9,413.69 " fill="none" id="ctrl-to-AnnouncementAvailable" style="stroke:#181818;stroke-width:1.0;stroke-dasharray:7.0,7.0;"/><polygon fill="#181818" points="1809.91,417.82,1807.8474,408.1896,1806.9674,413.7776,1801.3794,412.8976,1809.91,417.82" style="stroke:#181818;stroke-width:1.0;"/></g><!--link ctrl to userSession--><g id="link_ctrl_userSession"><path codeLine="140" d="M1267.09,151.04 C1317.48,178.76 1373.26,209.46 1415.91,232.93 " fill="none" id="ctrl-to-userSession" style="stroke:#181818;stroke-width:1.0;stroke-dasharray:7.0,7.0;"/><polygon fill="#181818" points="1420.52,235.47,1414.5647,227.6256,1416.1398,233.0588,1410.7067,234.6339,1420.52,235.47" style="stroke:#181818;stroke-width:1.0;"/></g><!--link ctrl to AnnouncementMapper--><g id="link_ctrl_AnnouncementMapper"><path codeLine="141" d="M913.99,130.37 C748.19,167.66 551,212 551,212 C551,212 536.82,216.24 516.03,222.45 " fill="none" id="ctrl-to-AnnouncementMapper" style="stroke:#181818;stroke-width:1.0;stroke-dasharray:7.0,7.0;"/><polygon fill="#181818" points="511.21,223.9,520.9781,225.1586,516.0011,222.4698,518.6898,217.4928,511.21,223.9" style="stroke:#181818;stroke-width:1.0;"/></g><!--link ctrl to AnnouncementDTO--><g id="link_ctrl_AnnouncementDTO"><path codeLine="142" d="M913.79,110.08 C623.4,149.03 154,212 154,212 C154,212 138.83,378.4 128.19,495.19 " fill="none" id="ctrl-to-AnnouncementDTO" style="stroke:#181818;stroke-width:1.0;stroke-dasharray:7.0,7.0;"/><polygon fill="#181818" points="127.72,500.37,132.5251,491.7728,128.1765,495.3909,124.5585,491.0424,127.72,500.37" style="stroke:#181818;stroke-width:1.0;"/></g><!--link SearchUI to AnnouncementDTO--><g id="link_SearchUI_AnnouncementDTO"><path codeLine="143" d="M375.21,97.36 C277.43,126.24 92,181 92,181 C92,181 92,388 92,388 C92,388 98.32,441.2 104.72,495.16 " fill="none" id="SearchUI-to-AnnouncementDTO" style="stroke:#181818;stroke-width:1.0;stroke-dasharray:7.0,7.0;"/><polygon fill="#181818" points="105.34,500.39,108.2563,490.9828,104.7533,495.4245,100.3116,491.9215,105.34,500.39" style="stroke:#181818;stroke-width:1.0;"/></g><!--reverse link Property to Apartment--><g id="link_Property_Apartment"><path d="M1530.37,1139.75 C1499.68,1173.73 1467.19,1209.71 1439.15,1240.77 " fill="none" id="Property-backto-Apartment" style="stroke:#181818;stroke-width:1.0;"/><polygon fill="none" points="1525.25,1134.97,1543.85,1124.81,1535.64,1144.35,1525.25,1134.97" style="stroke:#181818;stroke-width:1.0;"/></g><!--reverse link Property to House--><g id="link_Property_House"><path d="M1643,1165.57 C1643,1179.07 1643,1192.62 1643,1205.8 " fill="none" id="Property-backto-House" style="stroke:#181818;stroke-width:1.0;"/><polygon fill="none" points="1636,1165.15,1643,1145.15,1650,1165.15,1636,1165.15" style="stroke:#181818;stroke-width:1.0;"/></g><!--reverse link Property to Land--><g id="link_Property_Land"><path d="M1750.32,1161.42 C1769.23,1187.21 1783,1206 1783,1206 C1783,1206 1812.15,1265.31 1829.12,1299.84 " fill="none" id="Property-backto-Land" style="stroke:#181818;stroke-width:1.0;"/><polygon fill="none" points="1744.5,1165.31,1738.32,1145.04,1755.79,1157.03,1744.5,1165.31" style="stroke:#181818;stroke-width:1.0;"/></g><!--link Repositories to Repositories--><g id="link_Repositories_Repositories"><path codeLine="151" d="M886.08,257.45 C907.08,260.02 921,265.04 921,272.5 C921,279.32 909.37,284.1 891.33,286.83 " fill="none" id="Repositories-to-Repositories" style="stroke:#181818;stroke-width:1.0;"/><polygon fill="#181818" points="886.08,287.55,895.5365,290.3022,891.0345,286.877,894.4597,282.375,886.08,287.55" style="stroke:#181818;stroke-width:1.0;"/><text fill="#000000" font-family="sans-serif" font-size="20" lengthAdjust="spacing" textLength="79" x="927" y="280.3359">instance</text></g><!--link AnnouncementRepository to AnnouncementAvailable--><g id="link_AnnouncementRepository_AnnouncementAvailable"><path codeLine="153" d="M1989.93,309.51 C1986.26,335.54 1980.98,372.97 1975.41,412.53 " fill="none" id="AnnouncementRepository-to-AnnouncementAvailable" style="stroke:#181818;stroke-width:1.0;"/><polygon fill="#181818" points="1974.65,417.87,1979.8725,409.5198,1975.3511,412.9194,1971.9515,408.398,1974.65,417.87" style="stroke:#181818;stroke-width:1.0;"/><text fill="#000000" font-family="sans-serif" font-size="20" lengthAdjust="spacing" textLength="232" x="1982" y="383.3359">AnnouncementAvailable</text><text fill="#000000" font-family="sans-serif" font-size="20" lengthAdjust="spacing" textLength="13" x="1975.1583" y="336.3506">1</text><text fill="#000000" font-family="sans-serif" font-size="20" lengthAdjust="spacing" textLength="10" x="1965.5634" y="405.7163">*</text></g><!--link AnnouncementAvailable to Property--><g id="link_AnnouncementAvailable_Property"><path codeLine="154" d="M1805.1,798.28 C1784.59,825.45 1763.84,852.93 1744.36,878.74 " fill="none" id="AnnouncementAvailable-to-Property" style="stroke:#181818;stroke-width:1.0;"/><polygon fill="#181818" points="1741.24,882.87,1749.8591,878.1045,1744.256,878.882,1743.4784,873.2789,1741.24,882.87" style="stroke:#181818;stroke-width:1.0;"/><text fill="#000000" font-family="sans-serif" font-size="20" lengthAdjust="spacing" textLength="77" x="1778" y="848.3359">is about</text><text fill="#000000" font-family="sans-serif" font-size="20" lengthAdjust="spacing" textLength="13" x="1786.7309" y="824.8816">1</text><text fill="#000000" font-family="sans-serif" font-size="20" lengthAdjust="spacing" textLength="13" x="1733.5437" y="870.9764">1</text></g><!--link AnnouncementAvailable to order--><g id="link_AnnouncementAvailable_order"><path codeLine="156" d="M1948,798.28 C1948,852.09 1948,907.1 1948,947.97 " fill="none" id="AnnouncementAvailable-to-order" style="stroke:#181818;stroke-width:1.0;"/><polygon fill="#181818" points="1948,953.39,1952,944.39,1948,948.39,1944,944.39,1948,953.39" style="stroke:#181818;stroke-width:1.0;"/><text fill="#000000" font-family="sans-serif" font-size="20" lengthAdjust="spacing" textLength="80" x="1949" y="848.3359">contains</text><text fill="#000000" font-family="sans-serif" font-size="20" lengthAdjust="spacing" textLength="13" x="1934.7664" y="824.8816">1</text><text fill="#000000" font-family="sans-serif" font-size="20" lengthAdjust="spacing" textLength="10" x="1937.4219" y="941.4397">*</text></g><!--link appSession to userSession--><g id="link_appSession_userSession"><path codeLine="157" d="M1246.2,272.5 C1292.31,272.5 1345.65,272.5 1390.3,272.5 " fill="none" id="appSession-to-userSession" style="stroke:#181818;stroke-width:1.0;"/><polygon fill="#181818" points="1395.42,272.5,1386.42,268.5,1390.42,272.5,1386.42,276.5,1395.42,272.5" style="stroke:#181818;stroke-width:1.0;"/><text fill="#000000" font-family="sans-serif" font-size="20" lengthAdjust="spacing" textLength="113" x="1264.25" y="264.8359">userSession</text></g><!--link AnnouncementMapper to AnnouncementAvailable--><g id="link_AnnouncementMapper_AnnouncementAvailable"><path codeLine="159" d="M511.21,321.1 C534.6,328.1 551,333 551,333 C551,333 1272.07,474.43 1678.12,554.07 " fill="none" id="AnnouncementMapper-to-AnnouncementAvailable" style="stroke:#181818;stroke-width:1.0;stroke-dasharray:7.0,7.0;"/><polygon fill="#181818" points="1683.18,555.06,1675.1138,549.4088,1678.2727,554.1014,1673.5801,557.2604,1683.18,555.06" style="stroke:#181818;stroke-width:1.0;"/></g><!--link AnnouncementMapper to AnnouncementDTO--><g id="link_AnnouncementMapper_AnnouncementDTO"><path codeLine="160" d="M318.47,321.28 C286.57,366.75 237.39,436.84 195.73,496.22 " fill="none" id="AnnouncementMapper-to-AnnouncementDTO" style="stroke:#181818;stroke-width:1.0;stroke-dasharray:7.0,7.0;"/><polygon fill="#181818" points="192.74,500.47,201.1793,495.3927,195.6083,496.3745,194.6265,490.8035,192.74,500.47" style="stroke:#181818;stroke-width:1.0;"/></g><!--SRC=[pLRVJzim47xtNs7rXR2rYErncYgLmaGb9X25xTbDhec5OsUs0tGJ__lEZfiuRGgyJ5eValZkk_Fd- -MQ1ouhfbafLFe06SrWpMfXlobfb_mtqC-dvCXiCRHKKgM5LYLGgsiWdQPYwGFBOMat0gY6r3APYnXW2fQf9ovpkcR2n1h19TXD1RHIOkCMyOwjKcchI6IL2cRCp5hDLxM5HQgavtjAo960jQLMKStpmjACEpfSIKAy3HtDf5IrJA44QUTuKAs403sYpD3KQl67KFnzpC76m2jkRBAg3V8nPkmeZRLIfJa-YBxM6MZ84eSTHfrj5bd2iw1CDJ0BtYfX4Uhyxdhyo4GDumprnuIyR4zo2vKot2hDmT26zgGdJ89hYXilfC6af90SqoyzK0U9kRM83JffTnn6XBttVFHZHdtGQ8ZQiC_P8-E2hGG4ZsikBEX1n70oq6kRvgeIF6KkzKk4uSkdc5LLMD8kqrrmMj6yrXht2zWaPdoZLGNQRiyzMKXBUTPyBx4YiSWTfvu0-yjJwImOvhjRPRnXCCSzGVTCCp2fvbLdNHNAgbopgcZMrqyID5NkIK8ckBb31g7skb1ZxrWNnPYvhCiLw5iNlrtX6RE57bBSC8sTcFTemg-QLyxvbaFaEDbBpwMg3VnR6bwwOWQwbL3hy6LgUV6C1LnhU1VVAoOpfDl5SdHlGCU5LNVhgBBcWkFk5oLMRQWXychX3zNKEVOzTSqVbgfsm5ILtE_MarQQfm7Nbkdsen7FSbS0B6-3ujhqgvyxK-fV8HxlQhv-Ltj3bcND55Fk6OJS_70px19dCkYxWiaRHpHfjJEfB6gyuTccYTgmzYUtnPALuFqblU7PcvijsN5pghY3by1qMjmlCDelNK8ytn3_jCjR8_0ZU7zIHxXcIXyQRJZ6_vVKlZGLly_nEmx7RGJyIQqwjofnNWRBu7WN-GOADsuZVpBrjos62f_qP38zSBbq-jwbrKhR2BIIRi8F-sw9TUgeTuTjciWCwp2plMFjwlQdBpnRa9c9k4SpyO3I3w0z7I6zFm4xKSARdeURZP03T_VeqsWocOu-Z0xCeoy7OZUCHcyKtVbtMwJ80k_TbQejUSiCQVWkH1lyIsSPqYVHZTrF5OBYn97zXBsI-tU0c-Jz1G00]--></g></svg>