<?xml version="1.0" encoding="UTF-8" standalone="no"?><svg xmlns="http://www.w3.org/2000/svg" xmlns:xlink="http://www.w3.org/1999/xlink" contentStyleType="text/css" height="1358px" preserveAspectRatio="none" style="width:3811px;height:1358px;background:#FFFFFF;" version="1.1" viewBox="0 0 3811 1358" width="3811px" zoomAndPan="magnify"><defs/><g><!--class Listctrl--><g id="elem_Listctrl"><rect codeLine="11" fill="#F1F1F1" height="97.1094" id="Listctrl" rx="2.5" ry="2.5" style="stroke:#181818;stroke-width:0.5;" width="445" x="249.5" y="42.5"/><ellipse cx="387.5" cy="59.5" fill="#ADD1B2" rx="12" ry="12" style="stroke:#181818;stroke-width:1.0;"/><path d="M390.3066,66.5801 Q389.623,66.9316 388.8711,67.1074 Q388.1191,67.2832 387.2891,67.2832 Q384.3398,67.2832 382.7871,65.3398 Q381.2344,63.3965 381.2344,59.7246 Q381.2344,56.043 382.7871,54.0996 Q384.3398,52.1563 387.2891,52.1563 Q388.1191,52.1563 388.8809,52.332 Q389.6426,52.5078 390.3066,52.8594 L390.3066,56.0625 Q389.5645,55.3789 388.8662,55.0615 Q388.168,54.7441 387.4258,54.7441 Q385.8438,54.7441 385.0381,55.999 Q384.2324,57.2539 384.2324,59.7246 Q384.2324,62.1855 385.0381,63.4404 Q385.8438,64.6953 387.4258,64.6953 Q388.168,64.6953 388.8662,64.3779 Q389.5645,64.0605 390.3066,63.377 Z " fill="#000000"/><text fill="#000000" font-family="sans-serif" font-size="20" lengthAdjust="spacing" textLength="160" x="409.5" y="67.0586">ListingController</text><line style="stroke:#181818;stroke-width:0.5;" x1="250.5" x2="693.5" y1="76.5" y2="76.5"/><line style="stroke:#181818;stroke-width:0.5;" x1="250.5" x2="693.5" y1="84.5" y2="84.5"/><text fill="#000000" font-family="sans-serif" font-size="20" lengthAdjust="spacing" textLength="433" x="255.5" y="107.8359">+ListingController(announcementRepository)</text><text fill="#000000" font-family="sans-serif" font-size="20" lengthAdjust="spacing" textLength="174" x="255.5" y="131.3906">+getPropertyList()</text></g><!--class AnnouncementRepository--><g id="elem_AnnouncementRepository"><rect codeLine="21" fill="#F1F1F1" height="167.7734" id="AnnouncementRepository" rx="2.5" ry="2.5" style="stroke:#181818;stroke-width:0.5;" width="396" x="730" y="7"/><ellipse cx="800.5" cy="24" fill="#ADD1B2" rx="12" ry="12" style="stroke:#181818;stroke-width:1.0;"/><path d="M803.3066,31.0801 Q802.623,31.4316 801.8711,31.6074 Q801.1191,31.7832 800.2891,31.7832 Q797.3398,31.7832 795.7871,29.8398 Q794.2344,27.8965 794.2344,24.2246 Q794.2344,20.543 795.7871,18.5996 Q797.3398,16.6563 800.2891,16.6563 Q801.1191,16.6563 801.8809,16.832 Q802.6426,17.0078 803.3066,17.3594 L803.3066,20.5625 Q802.5645,19.8789 801.8662,19.5615 Q801.168,19.2441 800.4258,19.2441 Q798.8438,19.2441 798.0381,20.499 Q797.2324,21.7539 797.2324,24.2246 Q797.2324,26.6855 798.0381,27.9404 Q798.8438,29.1953 800.4258,29.1953 Q801.168,29.1953 801.8662,28.8779 Q802.5645,28.5605 803.3066,27.877 Z " fill="#000000"/><text fill="#000000" font-family="sans-serif" font-size="20" lengthAdjust="spacing" textLength="246" x="822.5" y="31.5586">AnnouncementRepository</text><line style="stroke:#181818;stroke-width:0.5;" x1="731" x2="1125" y1="41" y2="41"/><line style="stroke:#181818;stroke-width:0.5;" x1="731" x2="1125" y1="49" y2="49"/><text fill="#000000" font-family="sans-serif" font-size="20" lengthAdjust="spacing" textLength="384" x="736" y="72.3359">+getPropertyList(business, type, rooms)</text><text fill="#000000" font-family="sans-serif" font-size="20" lengthAdjust="spacing" textLength="283" x="736" y="95.8906">+sortByPriceAsc(PropertyList)</text><text fill="#000000" font-family="sans-serif" font-size="20" lengthAdjust="spacing" textLength="295" x="736" y="119.4453">+sortByPriceDesc(PropertyList)</text><text fill="#000000" font-family="sans-serif" font-size="20" lengthAdjust="spacing" textLength="307" x="736" y="143">+sortByPriceParish(PropertyList)</text><text fill="#000000" font-family="sans-serif" font-size="20" lengthAdjust="spacing" textLength="267" x="736" y="166.5547">+sortByRecent(PropertyList)</text></g><!--class Property--><g id="elem_Property"><rect codeLine="29" fill="#F1F1F1" height="285.5469" id="Property" rx="2.5" ry="2.5" style="stroke:#181818;stroke-width:0.5;" width="244" x="237" y="583"/><ellipse cx="314.5" cy="600" fill="#ADD1B2" rx="12" ry="12" style="stroke:#181818;stroke-width:1.0;"/><path d="M317.3066,607.0801 Q316.623,607.4316 315.8711,607.6074 Q315.1191,607.7832 314.2891,607.7832 Q311.3398,607.7832 309.7871,605.8398 Q308.2344,603.8965 308.2344,600.2246 Q308.2344,596.543 309.7871,594.5996 Q311.3398,592.6563 314.2891,592.6563 Q315.1191,592.6563 315.8809,592.832 Q316.6426,593.0078 317.3066,593.3594 L317.3066,596.5625 Q316.5645,595.8789 315.8662,595.5615 Q315.168,595.2441 314.4258,595.2441 Q312.8438,595.2441 312.0381,596.499 Q311.2324,597.7539 311.2324,600.2246 Q311.2324,602.6855 312.0381,603.9404 Q312.8438,605.1953 314.4258,605.1953 Q315.168,605.1953 315.8662,604.8779 Q316.5645,604.5605 317.3066,603.877 Z " fill="#000000"/><text fill="#000000" font-family="sans-serif" font-size="20" lengthAdjust="spacing" textLength="80" x="336.5" y="607.5586">Property</text><line style="stroke:#181818;stroke-width:0.5;" x1="238" x2="480" y1="617" y2="617"/><text fill="#000000" font-family="sans-serif" font-size="20" lengthAdjust="spacing" textLength="62" x="243" y="640.3359">-Int id</text><text fill="#000000" font-family="sans-serif" font-size="20" lengthAdjust="spacing" textLength="115" x="243" y="663.8906">-String type</text><text fill="#000000" font-family="sans-serif" font-size="20" lengthAdjust="spacing" textLength="150" x="243" y="687.4453">-String location</text><text fill="#000000" font-family="sans-serif" font-size="20" lengthAdjust="spacing" textLength="84" x="243" y="711">-Int area</text><text fill="#000000" font-family="sans-serif" font-size="20" lengthAdjust="spacing" textLength="186" x="243" y="734.5547">-Int distanceCenter</text><text fill="#000000" font-family="sans-serif" font-size="20" lengthAdjust="spacing" textLength="182" x="243" y="758.1094">-String description</text><text fill="#000000" font-family="sans-serif" font-size="20" lengthAdjust="spacing" textLength="124" x="243" y="781.6641">-photograph</text><text fill="#000000" font-family="sans-serif" font-size="20" lengthAdjust="spacing" textLength="138" x="243" y="805.2188">-Owner owner</text><line style="stroke:#181818;stroke-width:0.5;" x1="238" x2="480" y1="813.4375" y2="813.4375"/><text fill="#000000" font-family="sans-serif" font-size="20" lengthAdjust="spacing" textLength="134" x="243" y="836.7734">+isType(type)</text><text fill="#000000" font-family="sans-serif" font-size="20" lengthAdjust="spacing" textLength="232" x="243" y="860.3281">+numberRooms(rooms)</text></g><!--class Apartment--><g id="elem_Apartment"><rect codeLine="195" fill="#F1F1F1" height="167.7734" id="Apartment" rx="2.5" ry="2.5" style="stroke:#181818;stroke-width:0.5;" width="244" x="403" y="1001"/><ellipse cx="469.5" cy="1018" fill="#ADD1B2" rx="12" ry="12" style="stroke:#181818;stroke-width:1.0;"/><path d="M472.3066,1025.0801 Q471.623,1025.4316 470.8711,1025.6074 Q470.1191,1025.7832 469.2891,1025.7832 Q466.3398,1025.7832 464.7871,1023.8398 Q463.2344,1021.8965 463.2344,1018.2246 Q463.2344,1014.543 464.7871,1012.5996 Q466.3398,1010.6563 469.2891,1010.6563 Q470.1191,1010.6563 470.8809,1010.832 Q471.6426,1011.0078 472.3066,1011.3594 L472.3066,1014.5625 Q471.5645,1013.8789 470.8662,1013.5615 Q470.168,1013.2441 469.4258,1013.2441 Q467.8438,1013.2441 467.0381,1014.499 Q466.2324,1015.7539 466.2324,1018.2246 Q466.2324,1020.6855 467.0381,1021.9404 Q467.8438,1023.1953 469.4258,1023.1953 Q470.168,1023.1953 470.8662,1022.8779 Q471.5645,1022.5605 472.3066,1021.877 Z " fill="#000000"/><text fill="#000000" font-family="sans-serif" font-size="20" lengthAdjust="spacing" textLength="102" x="491.5" y="1025.5586">Apartment</text><line style="stroke:#181818;stroke-width:0.5;" x1="404" x2="646" y1="1035" y2="1035"/><text fill="#000000" font-family="sans-serif" font-size="20" lengthAdjust="spacing" textLength="184" x="409" y="1058.3359">-Int numberRooms</text><text fill="#000000" font-family="sans-serif" font-size="20" lengthAdjust="spacing" textLength="221" x="409" y="1081.8906">-Int numberBathrooms</text><text fill="#000000" font-family="sans-serif" font-size="20" lengthAdjust="spacing" textLength="190" x="409" y="1105.4453">-Int numberParking</text><text fill="#000000" font-family="sans-serif" font-size="20" lengthAdjust="spacing" textLength="178" x="409" y="1129">-String equipment</text><line style="stroke:#181818;stroke-width:0.5;" x1="404" x2="646" y1="1137.2188" y2="1137.2188"/><text fill="#000000" font-family="sans-serif" font-size="20" lengthAdjust="spacing" textLength="232" x="409" y="1160.5547">+numberRooms(rooms)</text></g><!--class House--><g id="elem_House"><rect codeLine="196" fill="#F1F1F1" height="238.4375" id="House" rx="2.5" ry="2.5" style="stroke:#181818;stroke-width:0.5;" width="244" x="7" y="966"/><ellipse cx="94.5" cy="983" fill="#ADD1B2" rx="12" ry="12" style="stroke:#181818;stroke-width:1.0;"/><path d="M97.3066,990.0801 Q96.623,990.4316 95.8711,990.6074 Q95.1191,990.7832 94.2891,990.7832 Q91.3398,990.7832 89.7871,988.8398 Q88.2344,986.8965 88.2344,983.2246 Q88.2344,979.543 89.7871,977.5996 Q91.3398,975.6563 94.2891,975.6563 Q95.1191,975.6563 95.8809,975.832 Q96.6426,976.0078 97.3066,976.3594 L97.3066,979.5625 Q96.5645,978.8789 95.8662,978.5615 Q95.168,978.2441 94.4258,978.2441 Q92.8438,978.2441 92.0381,979.499 Q91.2324,980.7539 91.2324,983.2246 Q91.2324,985.6855 92.0381,986.9404 Q92.8438,988.1953 94.4258,988.1953 Q95.168,988.1953 95.8662,987.8779 Q96.5645,987.5605 97.3066,986.877 Z " fill="#000000"/><text fill="#000000" font-family="sans-serif" font-size="20" lengthAdjust="spacing" textLength="60" x="116.5" y="990.5586">House</text><line style="stroke:#181818;stroke-width:0.5;" x1="8" x2="250" y1="1000" y2="1000"/><text fill="#000000" font-family="sans-serif" font-size="20" lengthAdjust="spacing" textLength="184" x="13" y="1023.3359">-Int numberRooms</text><text fill="#000000" font-family="sans-serif" font-size="20" lengthAdjust="spacing" textLength="221" x="13" y="1046.8906">-Int numberBathrooms</text><text fill="#000000" font-family="sans-serif" font-size="20" lengthAdjust="spacing" textLength="190" x="13" y="1070.4453">-Int numberParking</text><text fill="#000000" font-family="sans-serif" font-size="20" lengthAdjust="spacing" textLength="178" x="13" y="1094">-String equipment</text><text fill="#000000" font-family="sans-serif" font-size="20" lengthAdjust="spacing" textLength="106" x="13" y="1117.5547">-basement</text><text fill="#000000" font-family="sans-serif" font-size="20" lengthAdjust="spacing" textLength="44" x="13" y="1141.1094">-loft</text><text fill="#000000" font-family="sans-serif" font-size="20" lengthAdjust="spacing" textLength="135" x="13" y="1164.6641">-sunExposure</text><line style="stroke:#181818;stroke-width:0.5;" x1="8" x2="250" y1="1172.8828" y2="1172.8828"/><text fill="#000000" font-family="sans-serif" font-size="20" lengthAdjust="spacing" textLength="232" x="13" y="1196.2188">+numberRooms(rooms)</text></g><!--class Land--><g id="elem_Land"><rect codeLine="197" fill="#F1F1F1" height="50" id="Land" rx="2.5" ry="2.5" style="stroke:#181818;stroke-width:0.5;" width="81" x="286.5" y="1060"/><ellipse cx="302.5" cy="1077" fill="#ADD1B2" rx="12" ry="12" style="stroke:#181818;stroke-width:1.0;"/><path d="M305.3066,1084.0801 Q304.623,1084.4316 303.8711,1084.6074 Q303.1191,1084.7832 302.2891,1084.7832 Q299.3398,1084.7832 297.7871,1082.8398 Q296.2344,1080.8965 296.2344,1077.2246 Q296.2344,1073.543 297.7871,1071.5996 Q299.3398,1069.6563 302.2891,1069.6563 Q303.1191,1069.6563 303.8809,1069.832 Q304.6426,1070.0078 305.3066,1070.3594 L305.3066,1073.5625 Q304.5645,1072.8789 303.8662,1072.5615 Q303.168,1072.2441 302.4258,1072.2441 Q300.8438,1072.2441 300.0381,1073.499 Q299.2324,1074.7539 299.2324,1077.2246 Q299.2324,1079.6855 300.0381,1080.9404 Q300.8438,1082.1953 302.4258,1082.1953 Q303.168,1082.1953 303.8662,1081.8779 Q304.5645,1081.5605 305.3066,1080.877 Z " fill="#000000"/><text fill="#000000" font-family="sans-serif" font-size="20" lengthAdjust="spacing" textLength="47" x="317.5" y="1084.5586">Land</text><line style="stroke:#181818;stroke-width:0.5;" x1="287.5" x2="366.5" y1="1094" y2="1094"/><line style="stroke:#181818;stroke-width:0.5;" x1="287.5" x2="366.5" y1="1102" y2="1102"/></g><!--class Announcement--><g id="elem_Announcement"><rect codeLine="70" fill="#F1F1F1" height="238.4375" id="Announcement" rx="2.5" ry="2.5" style="stroke:#181818;stroke-width:0.5;" width="377" x="739.5" y="260"/><ellipse cx="851.5" cy="277" fill="#ADD1B2" rx="12" ry="12" style="stroke:#181818;stroke-width:1.0;"/><path d="M854.3066,284.0801 Q853.623,284.4316 852.8711,284.6074 Q852.1191,284.7832 851.2891,284.7832 Q848.3398,284.7832 846.7871,282.8398 Q845.2344,280.8965 845.2344,277.2246 Q845.2344,273.543 846.7871,271.5996 Q848.3398,269.6563 851.2891,269.6563 Q852.1191,269.6563 852.8809,269.832 Q853.6426,270.0078 854.3066,270.3594 L854.3066,273.5625 Q853.5645,272.8789 852.8662,272.5615 Q852.168,272.2441 851.4258,272.2441 Q849.8438,272.2441 849.0381,273.499 Q848.2324,274.7539 848.2324,277.2246 Q848.2324,279.6855 849.0381,280.9404 Q849.8438,282.1953 851.4258,282.1953 Q852.168,282.1953 852.8662,281.8779 Q853.5645,281.5605 854.3066,280.877 Z " fill="#000000"/><text fill="#000000" font-family="sans-serif" font-size="20" lengthAdjust="spacing" textLength="144" x="873.5" y="284.5586">Announcement</text><line style="stroke:#181818;stroke-width:0.5;" x1="740.5" x2="1115.5" y1="294" y2="294"/><text fill="#000000" font-family="sans-serif" font-size="20" lengthAdjust="spacing" textLength="62" x="745.5" y="317.3359">-Int id</text><text fill="#000000" font-family="sans-serif" font-size="20" lengthAdjust="spacing" textLength="104" x="745.5" y="340.8906">-Date date</text><text fill="#000000" font-family="sans-serif" font-size="20" lengthAdjust="spacing" textLength="184" x="745.5" y="364.4453">-Double comission</text><text fill="#000000" font-family="sans-serif" font-size="20" lengthAdjust="spacing" textLength="135" x="745.5" y="388">-Double price</text><text fill="#000000" font-family="sans-serif" font-size="20" lengthAdjust="spacing" textLength="212" x="745.5" y="411.5547">-Property PropertyList</text><text fill="#000000" font-family="sans-serif" font-size="20" lengthAdjust="spacing" textLength="127" x="745.5" y="435.1094">-Agent agent</text><line style="stroke:#181818;stroke-width:0.5;" x1="740.5" x2="1115.5" y1="443.3281" y2="443.3281"/><text fill="#000000" font-family="sans-serif" font-size="20" lengthAdjust="spacing" textLength="365" x="745.5" y="466.6641">+filterProperty(business, type, rooms)</text><text fill="#000000" font-family="sans-serif" font-size="20" lengthAdjust="spacing" textLength="213" x="745.5" y="490.2188">+isBusiness(business)</text></g><!--class SearchUI--><g id="elem_SearchUI"><rect codeLine="81" fill="#F1F1F1" height="50" id="SearchUI" rx="2.5" ry="2.5" style="stroke:#181818;stroke-width:0.5;" width="117" x="97.5" y="66"/><ellipse cx="113.5" cy="83" fill="#ADD1B2" rx="12" ry="12" style="stroke:#181818;stroke-width:1.0;"/><path d="M116.3066,90.0801 Q115.623,90.4316 114.8711,90.6074 Q114.1191,90.7832 113.2891,90.7832 Q110.3398,90.7832 108.7871,88.8398 Q107.2344,86.8965 107.2344,83.2246 Q107.2344,79.543 108.7871,77.5996 Q110.3398,75.6563 113.2891,75.6563 Q114.1191,75.6563 114.8809,75.832 Q115.6426,76.0078 116.3066,76.3594 L116.3066,79.5625 Q115.5645,78.8789 114.8662,78.5615 Q114.168,78.2441 113.4258,78.2441 Q111.8438,78.2441 111.0381,79.499 Q110.2324,80.7539 110.2324,83.2246 Q110.2324,85.6855 111.0381,86.9404 Q111.8438,88.1953 113.4258,88.1953 Q114.168,88.1953 114.8662,87.8779 Q115.5645,87.5605 116.3066,86.877 Z " fill="#000000"/><text fill="#000000" font-family="sans-serif" font-size="20" lengthAdjust="spacing" textLength="83" x="128.5" y="90.5586">SearchUI</text><line style="stroke:#181818;stroke-width:0.5;" x1="98.5" x2="213.5" y1="100" y2="100"/><line style="stroke:#181818;stroke-width:0.5;" x1="98.5" x2="213.5" y1="108" y2="108"/></g><!--class Repositories--><g id="elem_Repositories"><rect codeLine="138" fill="#F1F1F1" height="261.9922" id="Repositories" rx="2.5" ry="2.5" style="stroke:#181818;stroke-width:0.5;" width="318" x="730" y="954"/><ellipse cx="825" cy="971" fill="#ADD1B2" rx="12" ry="12" style="stroke:#181818;stroke-width:1.0;"/><path d="M827.8066,978.0801 Q827.123,978.4316 826.3711,978.6074 Q825.6191,978.7832 824.7891,978.7832 Q821.8398,978.7832 820.2871,976.8398 Q818.7344,974.8965 818.7344,971.2246 Q818.7344,967.543 820.2871,965.5996 Q821.8398,963.6563 824.7891,963.6563 Q825.6191,963.6563 826.3809,963.832 Q827.1426,964.0078 827.8066,964.3594 L827.8066,967.5625 Q827.0645,966.8789 826.3662,966.5615 Q825.668,966.2441 824.9258,966.2441 Q823.3438,966.2441 822.5381,967.499 Q821.7324,968.7539 821.7324,971.2246 Q821.7324,973.6855 822.5381,974.9404 Q823.3438,976.1953 824.9258,976.1953 Q825.668,976.1953 826.3662,975.8779 Q827.0645,975.5605 827.8066,974.877 Z " fill="#000000"/><text fill="#000000" font-family="sans-serif" font-size="20" lengthAdjust="spacing" textLength="119" x="847" y="978.5586">Repositories</text><line style="stroke:#181818;stroke-width:0.5;" x1="731" x2="1047" y1="988" y2="988"/><line style="stroke:#181818;stroke-width:0.5;" x1="731" x2="1047" y1="996" y2="996"/><text fill="#000000" font-family="sans-serif" font-size="20" lengthAdjust="spacing" textLength="145" x="736" y="1019.3359">-Repositories()</text><text fill="#000000" font-family="sans-serif" font-size="20" lengthAdjust="spacing" textLength="276" x="736" y="1042.8906">+getInstance() : Repositories</text><text fill="#000000" font-family="sans-serif" font-size="20" lengthAdjust="spacing" textLength="306" x="736" y="1066.4453">+getAnnouncementRepository()</text><text fill="#000000" font-family="sans-serif" font-size="20" lengthAdjust="spacing" textLength="145" x="736" y="1090">-Repositories()</text><text fill="#000000" font-family="sans-serif" font-size="20" lengthAdjust="spacing" textLength="276" x="736" y="1113.5547">+getInstance() : Repositories</text><text fill="#000000" font-family="sans-serif" font-size="20" lengthAdjust="spacing" textLength="205" x="736" y="1137.1094">+getUserRepository()</text><text fill="#000000" font-family="sans-serif" font-size="20" lengthAdjust="spacing" textLength="145" x="736" y="1160.6641">-Repositories()</text><text fill="#000000" font-family="sans-serif" font-size="20" lengthAdjust="spacing" textLength="276" x="736" y="1184.2188">+getInstance() : Repositories</text><text fill="#000000" font-family="sans-serif" font-size="20" lengthAdjust="spacing" textLength="211" x="736" y="1207.7734">+getStoreRepository()</text></g><!--class UU--><g id="elem_UU"><rect codeLine="90" fill="#F1F1F1" height="50" id="UU" rx="2.5" ry="2.5" style="stroke:#181818;stroke-width:0.5;" width="204" x="1206" y="701"/><ellipse cx="1222" cy="718" fill="#ADD1B2" rx="12" ry="12" style="stroke:#181818;stroke-width:1.0;"/><path d="M1224.8066,725.0801 Q1224.123,725.4316 1223.3711,725.6074 Q1222.6191,725.7832 1221.7891,725.7832 Q1218.8398,725.7832 1217.2871,723.8398 Q1215.7344,721.8965 1215.7344,718.2246 Q1215.7344,714.543 1217.2871,712.5996 Q1218.8398,710.6563 1221.7891,710.6563 Q1222.6191,710.6563 1223.3809,710.832 Q1224.1426,711.0078 1224.8066,711.3594 L1224.8066,714.5625 Q1224.0645,713.8789 1223.3662,713.5615 Q1222.668,713.2441 1221.9258,713.2441 Q1220.3438,713.2441 1219.5381,714.499 Q1218.7324,715.7539 1218.7324,718.2246 Q1218.7324,720.6855 1219.5381,721.9404 Q1220.3438,723.1953 1221.9258,723.1953 Q1222.668,723.1953 1223.3662,722.8779 Q1224.0645,722.5605 1224.8066,721.877 Z " fill="#000000"/><text fill="#000000" font-family="sans-serif" font-size="20" lengthAdjust="spacing" textLength="170" x="1237" y="725.5586">Unregistered user</text><line style="stroke:#181818;stroke-width:0.5;" x1="1207" x2="1409" y1="735" y2="735"/><line style="stroke:#181818;stroke-width:0.5;" x1="1207" x2="1409" y1="743" y2="743"/></g><!--class Userctrl--><g id="elem_Userctrl"><rect codeLine="96" fill="#F1F1F1" height="73.5547" id="Userctrl" rx="2.5" ry="2.5" style="stroke:#181818;stroke-width:0.5;" width="373" x="797.5" y="689"/><ellipse cx="871" cy="706" fill="#ADD1B2" rx="12" ry="12" style="stroke:#181818;stroke-width:1.0;"/><path d="M873.8066,713.0801 Q873.123,713.4316 872.3711,713.6074 Q871.6191,713.7832 870.7891,713.7832 Q867.8398,713.7832 866.2871,711.8398 Q864.7344,709.8965 864.7344,706.2246 Q864.7344,702.543 866.2871,700.5996 Q867.8398,698.6563 870.7891,698.6563 Q871.6191,698.6563 872.3809,698.832 Q873.1426,699.0078 873.8066,699.3594 L873.8066,702.5625 Q873.0645,701.8789 872.3662,701.5615 Q871.668,701.2441 870.9258,701.2441 Q869.3438,701.2441 868.5381,702.499 Q867.7324,703.7539 867.7324,706.2246 Q867.7324,708.6855 868.5381,709.9404 Q869.3438,711.1953 870.9258,711.1953 Q871.668,711.1953 872.3662,710.8779 Q873.0645,710.5605 873.8066,709.877 Z " fill="#000000"/><text fill="#000000" font-family="sans-serif" font-size="20" lengthAdjust="spacing" textLength="217" x="893" y="713.5586">RegisterUserController</text><line style="stroke:#181818;stroke-width:0.5;" x1="798.5" x2="1169.5" y1="723" y2="723"/><line style="stroke:#181818;stroke-width:0.5;" x1="798.5" x2="1169.5" y1="731" y2="731"/><text fill="#000000" font-family="sans-serif" font-size="20" lengthAdjust="spacing" textLength="361" x="803.5" y="754.3359">+RegisterUser(name,email,password)</text></g><!--class UserRepository--><g id="elem_UserRepository"><rect codeLine="103" fill="#F1F1F1" height="120.6641" id="UserRepository" rx="2.5" ry="2.5" style="stroke:#181818;stroke-width:0.5;" width="404" x="1445" y="665.5"/><ellipse cx="1570" cy="682.5" fill="#ADD1B2" rx="12" ry="12" style="stroke:#181818;stroke-width:1.0;"/><path d="M1572.8066,689.5801 Q1572.123,689.9316 1571.3711,690.1074 Q1570.6191,690.2832 1569.7891,690.2832 Q1566.8398,690.2832 1565.2871,688.3398 Q1563.7344,686.3965 1563.7344,682.7246 Q1563.7344,679.043 1565.2871,677.0996 Q1566.8398,675.1563 1569.7891,675.1563 Q1570.6191,675.1563 1571.3809,675.332 Q1572.1426,675.5078 1572.8066,675.8594 L1572.8066,679.0625 Q1572.0645,678.3789 1571.3662,678.0615 Q1570.668,677.7441 1569.9258,677.7441 Q1568.3438,677.7441 1567.5381,678.999 Q1566.7324,680.2539 1566.7324,682.7246 Q1566.7324,685.1855 1567.5381,686.4404 Q1568.3438,687.6953 1569.9258,687.6953 Q1570.668,687.6953 1571.3662,687.3779 Q1572.0645,687.0605 1572.8066,686.377 Z " fill="#000000"/><text fill="#000000" font-family="sans-serif" font-size="20" lengthAdjust="spacing" textLength="145" x="1592" y="690.0586">UserRepository</text><line style="stroke:#181818;stroke-width:0.5;" x1="1446" x2="1848" y1="699.5" y2="699.5"/><line style="stroke:#181818;stroke-width:0.5;" x1="1446" x2="1848" y1="707.5" y2="707.5"/><text fill="#000000" font-family="sans-serif" font-size="20" lengthAdjust="spacing" textLength="392" x="1451" y="730.8359">+isAccountAlreadyRegistered(userEmail)</text><text fill="#000000" font-family="sans-serif" font-size="20" lengthAdjust="spacing" textLength="320" x="1451" y="754.3906">+addUser(name,email,password)</text><text fill="#000000" font-family="sans-serif" font-size="20" lengthAdjust="spacing" textLength="189" x="1451" y="777.9453">+validateUser(user)</text></g><!--class User--><g id="elem_User"><rect codeLine="112" fill="#F1F1F1" height="144.2188" id="User" rx="2.5" ry="2.5" style="stroke:#181818;stroke-width:0.5;" width="295" x="1192.5" y="1013"/><ellipse cx="1314" cy="1030" fill="#ADD1B2" rx="12" ry="12" style="stroke:#181818;stroke-width:1.0;"/><path d="M1316.8066,1037.0801 Q1316.123,1037.4316 1315.3711,1037.6074 Q1314.6191,1037.7832 1313.7891,1037.7832 Q1310.8398,1037.7832 1309.2871,1035.8398 Q1307.7344,1033.8965 1307.7344,1030.2246 Q1307.7344,1026.543 1309.2871,1024.5996 Q1310.8398,1022.6563 1313.7891,1022.6563 Q1314.6191,1022.6563 1315.3809,1022.832 Q1316.1426,1023.0078 1316.8066,1023.3594 L1316.8066,1026.5625 Q1316.0645,1025.8789 1315.3662,1025.5615 Q1314.668,1025.2441 1313.9258,1025.2441 Q1312.3438,1025.2441 1311.5381,1026.499 Q1310.7324,1027.7539 1310.7324,1030.2246 Q1310.7324,1032.6855 1311.5381,1033.9404 Q1312.3438,1035.1953 1313.9258,1035.1953 Q1314.668,1035.1953 1315.3662,1034.8779 Q1316.0645,1034.5605 1316.8066,1033.877 Z " fill="#000000"/><text fill="#000000" font-family="sans-serif" font-size="20" lengthAdjust="spacing" textLength="43" x="1336" y="1037.5586">User</text><line style="stroke:#181818;stroke-width:0.5;" x1="1193.5" x2="1486.5" y1="1047" y2="1047"/><text fill="#000000" font-family="sans-serif" font-size="20" lengthAdjust="spacing" textLength="127" x="1198.5" y="1070.3359">-String name</text><text fill="#000000" font-family="sans-serif" font-size="20" lengthAdjust="spacing" textLength="127" x="1198.5" y="1093.8906">-String email</text><text fill="#000000" font-family="sans-serif" font-size="20" lengthAdjust="spacing" textLength="166" x="1198.5" y="1117.4453">-String password</text><line style="stroke:#181818;stroke-width:0.5;" x1="1193.5" x2="1486.5" y1="1125.6641" y2="1125.6641"/><text fill="#000000" font-family="sans-serif" font-size="20" lengthAdjust="spacing" textLength="283" x="1198.5" y="1149">+User(name,email,password)</text></g><!--class RegisterUserIU--><g id="elem_RegisterUserIU"><rect codeLine="121" fill="#F1F1F1" height="50" id="RegisterUserIU" rx="2.5" ry="2.5" style="stroke:#181818;stroke-width:0.5;" width="175" x="587.5" y="701"/><ellipse cx="603.5" cy="718" fill="#ADD1B2" rx="12" ry="12" style="stroke:#181818;stroke-width:1.0;"/><path d="M606.3066,725.0801 Q605.623,725.4316 604.8711,725.6074 Q604.1191,725.7832 603.2891,725.7832 Q600.3398,725.7832 598.7871,723.8398 Q597.2344,721.8965 597.2344,718.2246 Q597.2344,714.543 598.7871,712.5996 Q600.3398,710.6563 603.2891,710.6563 Q604.1191,710.6563 604.8809,710.832 Q605.6426,711.0078 606.3066,711.3594 L606.3066,714.5625 Q605.5645,713.8789 604.8662,713.5615 Q604.168,713.2441 603.4258,713.2441 Q601.8438,713.2441 601.0381,714.499 Q600.2324,715.7539 600.2324,718.2246 Q600.2324,720.6855 601.0381,721.9404 Q601.8438,723.1953 603.4258,723.1953 Q604.168,723.1953 604.8662,722.8779 Q605.5645,722.5605 606.3066,721.877 Z " fill="#000000"/><text fill="#000000" font-family="sans-serif" font-size="20" lengthAdjust="spacing" textLength="141" x="618.5" y="725.5586">RegisterUserIU</text><line style="stroke:#181818;stroke-width:0.5;" x1="588.5" x2="761.5" y1="735" y2="735"/><line style="stroke:#181818;stroke-width:0.5;" x1="588.5" x2="761.5" y1="743" y2="743"/></g><!--class RegisterStoreUI--><g id="elem_RegisterStoreUI"><rect codeLine="132" fill="#F1F1F1" height="50" id="RegisterStoreUI" rx="2.5" ry="2.5" style="stroke:#181818;stroke-width:0.5;" width="181" x="1884.5" y="701"/><ellipse cx="1900.5" cy="718" fill="#ADD1B2" rx="12" ry="12" style="stroke:#181818;stroke-width:1.0;"/><path d="M1903.3066,725.0801 Q1902.623,725.4316 1901.8711,725.6074 Q1901.1191,725.7832 1900.2891,725.7832 Q1897.3398,725.7832 1895.7871,723.8398 Q1894.2344,721.8965 1894.2344,718.2246 Q1894.2344,714.543 1895.7871,712.5996 Q1897.3398,710.6563 1900.2891,710.6563 Q1901.1191,710.6563 1901.8809,710.832 Q1902.6426,711.0078 1903.3066,711.3594 L1903.3066,714.5625 Q1902.5645,713.8789 1901.8662,713.5615 Q1901.168,713.2441 1900.4258,713.2441 Q1898.8438,713.2441 1898.0381,714.499 Q1897.2324,715.7539 1897.2324,718.2246 Q1897.2324,720.6855 1898.0381,721.9404 Q1898.8438,723.1953 1900.4258,723.1953 Q1901.168,723.1953 1901.8662,722.8779 Q1902.5645,722.5605 1903.3066,721.877 Z " fill="#000000"/><text fill="#000000" font-family="sans-serif" font-size="20" lengthAdjust="spacing" textLength="147" x="1915.5" y="725.5586">RegisterStoreUI</text><line style="stroke:#181818;stroke-width:0.5;" x1="1885.5" x2="2064.5" y1="735" y2="735"/><line style="stroke:#181818;stroke-width:0.5;" x1="1885.5" x2="2064.5" y1="743" y2="743"/></g><!--class RegisterStoreController--><g id="elem_RegisterStoreController"><rect codeLine="134" fill="#F1F1F1" height="73.5547" id="RegisterStoreController" rx="2.5" ry="2.5" style="stroke:#181818;stroke-width:0.5;" width="836" x="2101" y="689"/><ellipse cx="2403" cy="706" fill="#ADD1B2" rx="12" ry="12" style="stroke:#181818;stroke-width:1.0;"/><path d="M2405.8066,713.0801 Q2405.123,713.4316 2404.3711,713.6074 Q2403.6191,713.7832 2402.7891,713.7832 Q2399.8398,713.7832 2398.2871,711.8398 Q2396.7344,709.8965 2396.7344,706.2246 Q2396.7344,702.543 2398.2871,700.5996 Q2399.8398,698.6563 2402.7891,698.6563 Q2403.6191,698.6563 2404.3809,698.832 Q2405.1426,699.0078 2405.8066,699.3594 L2405.8066,702.5625 Q2405.0645,701.8789 2404.3662,701.5615 Q2403.668,701.2441 2402.9258,701.2441 Q2401.3438,701.2441 2400.5381,702.499 Q2399.7324,703.7539 2399.7324,706.2246 Q2399.7324,708.6855 2400.5381,709.9404 Q2401.3438,711.1953 2402.9258,711.1953 Q2403.668,711.1953 2404.3662,710.8779 Q2405.0645,710.5605 2405.8066,709.877 Z " fill="#000000"/><text fill="#000000" font-family="sans-serif" font-size="20" lengthAdjust="spacing" textLength="223" x="2425" y="713.5586">RegisterStoreController</text><line style="stroke:#181818;stroke-width:0.5;" x1="2102" x2="2936" y1="723" y2="723"/><line style="stroke:#181818;stroke-width:0.5;" x1="2102" x2="2936" y1="731" y2="731"/><text fill="#000000" font-family="sans-serif" font-size="20" lengthAdjust="spacing" textLength="824" x="2107" y="754.3359">+registerstore (ID;designation;location;localmanager;emailaddress;telephonenumber)</text></g><!--class Agency--><g id="elem_Agency"><rect codeLine="144" fill="#F1F1F1" height="50" id="Agency" rx="2.5" ry="2.5" style="stroke:#181818;stroke-width:0.5;" width="103" x="2572.5" y="1060"/><ellipse cx="2588.5" cy="1077" fill="#ADD1B2" rx="12" ry="12" style="stroke:#181818;stroke-width:1.0;"/><path d="M2591.3066,1084.0801 Q2590.623,1084.4316 2589.8711,1084.6074 Q2589.1191,1084.7832 2588.2891,1084.7832 Q2585.3398,1084.7832 2583.7871,1082.8398 Q2582.2344,1080.8965 2582.2344,1077.2246 Q2582.2344,1073.543 2583.7871,1071.5996 Q2585.3398,1069.6563 2588.2891,1069.6563 Q2589.1191,1069.6563 2589.8809,1069.832 Q2590.6426,1070.0078 2591.3066,1070.3594 L2591.3066,1073.5625 Q2590.5645,1072.8789 2589.8662,1072.5615 Q2589.168,1072.2441 2588.4258,1072.2441 Q2586.8438,1072.2441 2586.0381,1073.499 Q2585.2324,1074.7539 2585.2324,1077.2246 Q2585.2324,1079.6855 2586.0381,1080.9404 Q2586.8438,1082.1953 2588.4258,1082.1953 Q2589.168,1082.1953 2589.8662,1081.8779 Q2590.5645,1081.5605 2591.3066,1080.877 Z " fill="#000000"/><text fill="#000000" font-family="sans-serif" font-size="20" lengthAdjust="spacing" textLength="69" x="2603.5" y="1084.5586">Agency</text><line style="stroke:#181818;stroke-width:0.5;" x1="2573.5" x2="2674.5" y1="1094" y2="1094"/><line style="stroke:#181818;stroke-width:0.5;" x1="2573.5" x2="2674.5" y1="1102" y2="1102"/></g><!--class AgencyRepository--><g id="elem_AgencyRepository"><rect codeLine="146" fill="#F1F1F1" height="238.4375" id="AgencyRepository" rx="2.5" ry="2.5" style="stroke:#181818;stroke-width:0.5;" width="832" x="2972" y="607"/><ellipse cx="3298" cy="624" fill="#ADD1B2" rx="12" ry="12" style="stroke:#181818;stroke-width:1.0;"/><path d="M3300.8066,631.0801 Q3300.123,631.4316 3299.3711,631.6074 Q3298.6191,631.7832 3297.7891,631.7832 Q3294.8398,631.7832 3293.2871,629.8398 Q3291.7344,627.8965 3291.7344,624.2246 Q3291.7344,620.543 3293.2871,618.5996 Q3294.8398,616.6563 3297.7891,616.6563 Q3298.6191,616.6563 3299.3809,616.832 Q3300.1426,617.0078 3300.8066,617.3594 L3300.8066,620.5625 Q3300.0645,619.8789 3299.3662,619.5615 Q3298.668,619.2441 3297.9258,619.2441 Q3296.3438,619.2441 3295.5381,620.499 Q3294.7324,621.7539 3294.7324,624.2246 Q3294.7324,626.6855 3295.5381,627.9404 Q3296.3438,629.1953 3297.9258,629.1953 Q3298.668,629.1953 3299.3662,628.8779 Q3300.0645,628.5605 3300.8066,627.877 Z " fill="#000000"/><text fill="#000000" font-family="sans-serif" font-size="20" lengthAdjust="spacing" textLength="171" x="3320" y="631.5586">AgencyRepository</text><line style="stroke:#181818;stroke-width:0.5;" x1="2973" x2="3803" y1="641" y2="641"/><text fill="#000000" font-family="sans-serif" font-size="20" lengthAdjust="spacing" textLength="33" x="2978" y="664.3359">-ID</text><text fill="#000000" font-family="sans-serif" font-size="20" lengthAdjust="spacing" textLength="124" x="2978" y="687.8906">-designation</text><text fill="#000000" font-family="sans-serif" font-size="20" lengthAdjust="spacing" textLength="88" x="2978" y="711.4453">-location</text><text fill="#000000" font-family="sans-serif" font-size="20" lengthAdjust="spacing" textLength="141" x="2978" y="735">-localmanager</text><text fill="#000000" font-family="sans-serif" font-size="20" lengthAdjust="spacing" textLength="182" x="2978" y="758.5547">-telephonenumber</text><text fill="#000000" font-family="sans-serif" font-size="20" lengthAdjust="spacing" textLength="141" x="2978" y="782.1094">-emailaddress</text><line style="stroke:#181818;stroke-width:0.5;" x1="2973" x2="3803" y1="790.3281" y2="790.3281"/><text fill="#000000" font-family="sans-serif" font-size="20" lengthAdjust="spacing" textLength="820" x="2978" y="813.6641">+validatestore(ID;designation;location;localmanager;emailaddress;telephonenumber)</text><text fill="#000000" font-family="sans-serif" font-size="20" lengthAdjust="spacing" textLength="782" x="2978" y="837.2188">+addstore(ID;designation;location;localmanager;emailaddress;telephonenumber)</text></g><!--class Store--><g id="elem_Store"><rect fill="#F1F1F1" height="50" id="Store" rx="2.5" ry="2.5" style="stroke:#181818;stroke-width:0.5;" width="83" x="2506.5" y="1301"/><ellipse cx="2522.5" cy="1318" fill="#ADD1B2" rx="12" ry="12" style="stroke:#181818;stroke-width:1.0;"/><path d="M2525.3066,1325.0801 Q2524.623,1325.4316 2523.8711,1325.6074 Q2523.1191,1325.7832 2522.2891,1325.7832 Q2519.3398,1325.7832 2517.7871,1323.8398 Q2516.2344,1321.8965 2516.2344,1318.2246 Q2516.2344,1314.543 2517.7871,1312.5996 Q2519.3398,1310.6563 2522.2891,1310.6563 Q2523.1191,1310.6563 2523.8809,1310.832 Q2524.6426,1311.0078 2525.3066,1311.3594 L2525.3066,1314.5625 Q2524.5645,1313.8789 2523.8662,1313.5615 Q2523.168,1313.2441 2522.4258,1313.2441 Q2520.8438,1313.2441 2520.0381,1314.499 Q2519.2324,1315.7539 2519.2324,1318.2246 Q2519.2324,1320.6855 2520.0381,1321.9404 Q2520.8438,1323.1953 2522.4258,1323.1953 Q2523.168,1323.1953 2523.8662,1322.8779 Q2524.5645,1322.5605 2525.3066,1321.877 Z " fill="#000000"/><text fill="#000000" font-family="sans-serif" font-size="20" lengthAdjust="spacing" textLength="49" x="2537.5" y="1325.5586">Store</text><line style="stroke:#181818;stroke-width:0.5;" x1="2507.5" x2="2588.5" y1="1335" y2="1335"/><line style="stroke:#181818;stroke-width:0.5;" x1="2507.5" x2="2588.5" y1="1343" y2="1343"/></g><!--link RegisterStoreController to Store--><g id="link_RegisterStoreController_Store"><path codeLine="159" d="M2520.75,763.06 C2525.79,866.99 2540.33,1166.93 2545.85,1280.61 " fill="none" id="RegisterStoreController-to-Store" style="stroke:#181818;stroke-width:1.0;"/><polygon fill="none" points="2552.85,1280.43,2546.82,1300.75,2538.86,1281.11,2552.85,1280.43" style="stroke:#181818;stroke-width:1.0;"/></g><!--link RegisterStoreUI to RegisterStoreController--><g id="link_RegisterStoreUI_RegisterStoreController"><path codeLine="161" d="M2065.67,726 C2075.92,726 2086.18,726 2095.9,726 " fill="none" id="RegisterStoreUI-to-RegisterStoreController" style="stroke:#181818;stroke-width:1.0;stroke-dasharray:7.0,7.0;"/><polygon fill="#181818" points="2100.94,726,2091.94,722,2095.94,726,2091.94,730,2100.94,726" style="stroke:#181818;stroke-width:1.0;"/></g><!--link RegisterStoreController to AgencyRepository--><g id="link_RegisterStoreController_AgencyRepository"><path codeLine="163" d="M2937.41,726 C2947.18,726 2957.06,726 2966.86,726 " fill="none" id="RegisterStoreController-to-AgencyRepository" style="stroke:#181818;stroke-width:1.0;stroke-dasharray:7.0,7.0;"/><polygon fill="#181818" points="2971.97,726,2962.97,722,2966.97,726,2962.97,730,2971.97,726" style="stroke:#181818;stroke-width:1.0;"/></g><!--link RegisterStoreController to Repositories--><g id="link_RegisterStoreController_Repositories"><path codeLine="164" d="M2408.42,763.02 C2279.25,805.09 2083,869 2083,869 C2083,869 1546,924 1546,924 C1546,924 1175,954 1175,954 C1175,954 1116.8,980.45 1052.92,1009.49 " fill="none" id="RegisterStoreController-to-Repositories" style="stroke:#181818;stroke-width:1.0;stroke-dasharray:7.0,7.0;"/><polygon fill="#181818" points="1048.31,1011.59,1058.1584,1011.4956,1052.8594,1009.5156,1054.8394,1004.2166,1048.31,1011.59" style="stroke:#181818;stroke-width:1.0;"/></g><!--link RegisterStoreController to Agency--><g id="link_RegisterStoreController_Agency"><path codeLine="165" d="M2529.65,763.2 C2550.53,834.2 2596.49,990.46 2615.5,1055.12 " fill="none" id="RegisterStoreController-to-Agency" style="stroke:#181818;stroke-width:1.0;stroke-dasharray:7.0,7.0;"/><polygon fill="#181818" points="2616.94,1059.98,2618.2253,1050.2154,2615.523,1055.185,2610.5533,1052.4826,2616.94,1059.98" style="stroke:#181818;stroke-width:1.0;"/></g><!--link AgencyRepository to Agency--><g id="link_AgencyRepository_Agency"><path codeLine="168" d="M3135.46,845.01 C2973.06,920.89 2775.26,1013.32 2680.25,1057.72 " fill="none" id="AgencyRepository-to-Agency" style="stroke:#181818;stroke-width:1.0;"/><polygon fill="#181818" points="2675.53,1059.92,2685.3772,1059.7371,2680.0606,1057.8048,2681.9928,1052.4882,2675.53,1059.92" style="stroke:#181818;stroke-width:1.0;"/></g><!--link Agency to Store--><g id="link_Agency_Store"><path codeLine="170" d="M2616.29,1110.23 C2602.24,1154.43 2572.5,1247.96 2557.32,1295.68 " fill="none" id="Agency-to-Store" style="stroke:#181818;stroke-width:1.0;"/><polygon fill="#181818" points="2555.73,1300.7,2562.2651,1293.3316,2557.2425,1295.9342,2554.6399,1290.9117,2555.73,1300.7" style="stroke:#181818;stroke-width:1.0;"/><text fill="#000000" font-family="sans-serif" font-size="20" lengthAdjust="spacing" textLength="83" x="2573" y="1266.3359">registers</text></g><!--link RegisterUserIU to Userctrl--><g id="link_RegisterUserIU_Userctrl"><path codeLine="174" d="M762.8,726 C771.96,726 778,726 778,726 C778,726 783.64,726 792.28,726 " fill="none" id="RegisterUserIU-to-Userctrl" style="stroke:#181818;stroke-width:1.0;stroke-dasharray:7.0,7.0;"/><polygon fill="#181818" points="797.37,726,788.37,722,792.37,726,788.37,730,797.37,726" style="stroke:#181818;stroke-width:1.0;"/></g><!--link Userctrl to UserRepository--><g id="link_Userctrl_UserRepository"><path codeLine="176" d="M1028.49,688.91 C1093.42,634.77 1206.5,540.5 1206.5,540.5 C1206.5,540.5 1410.5,540.5 1410.5,540.5 C1410.5,540.5 1497.1,608.43 1565.5,662.07 " fill="none" id="Userctrl-to-UserRepository" style="stroke:#181818;stroke-width:1.0;stroke-dasharray:7.0,7.0;"/><polygon fill="#181818" points="1569.56,665.26,1564.953,656.5551,1565.6279,662.1715,1560.0115,662.8464,1569.56,665.26" style="stroke:#181818;stroke-width:1.0;"/></g><!--link Userctrl to Repositories--><g id="link_Userctrl_Repositories"><path codeLine="177" d="M974.37,763.2 C962.81,806.65 942.75,882.02 924.98,948.79 " fill="none" id="Userctrl-to-Repositories" style="stroke:#181818;stroke-width:1.0;stroke-dasharray:7.0,7.0;"/><polygon fill="#181818" points="923.6,953.99,929.7811,946.3223,924.8865,949.1584,922.0504,944.2638,923.6,953.99" style="stroke:#181818;stroke-width:1.0;"/></g><!--link Userctrl to User--><g id="link_Userctrl_User"><path codeLine="178" d="M1020.09,763.2 C1077.34,820.6 1190.16,933.74 1265.35,1009.14 " fill="none" id="Userctrl-to-User" style="stroke:#181818;stroke-width:1.0;stroke-dasharray:7.0,7.0;"/><polygon fill="#181818" points="1268.9,1012.7,1265.383,1003.5005,1265.3716,1009.1573,1259.7148,1009.1459,1268.9,1012.7" style="stroke:#181818;stroke-width:1.0;"/></g><!--link Repositories to Repositories--><g id="link_Repositories_Repositories"><path codeLine="181" d="M1048.08,1056.31 C1069.08,1061.21 1083,1070.77 1083,1085 C1083,1098.01 1071.37,1107.12 1053.33,1112.32 " fill="none" id="Repositories-to-Repositories" style="stroke:#181818;stroke-width:1.0;"/><polygon fill="#181818" points="1048.08,1113.69,1057.7975,1115.2934,1052.9187,1112.4302,1055.7818,1107.5514,1048.08,1113.69" style="stroke:#181818;stroke-width:1.0;"/><text fill="#000000" font-family="sans-serif" font-size="20" lengthAdjust="spacing" textLength="79" x="1089" y="1092.8359">instance</text></g><!--link UserRepository to User--><g id="link_UserRepository_User"><path codeLine="183" d="M1595.62,786.75 C1543.06,847.86 1461.29,942.96 1404.44,1009.07 " fill="none" id="UserRepository-to-User" style="stroke:#181818;stroke-width:1.0;"/><polygon fill="#181818" points="1401.07,1012.98,1409.9641,1008.7499,1404.324,1009.1837,1403.8901,1003.5435,1401.07,1012.98" style="stroke:#181818;stroke-width:1.0;"/><text fill="#000000" font-family="sans-serif" font-size="20" lengthAdjust="spacing" textLength="43" x="1494" y="919.3359">User</text></g><!--link UU to User--><g id="link_UU_User"><path codeLine="185" d="M1310.17,751.26 C1314.82,803.09 1325.88,926.49 1333.15,1007.57 " fill="none" id="UU-to-User" style="stroke:#181818;stroke-width:1.0;"/><polygon fill="#181818" points="1333.62,1012.85,1336.7815,1003.5224,1333.1635,1007.8709,1328.8149,1004.2528,1333.62,1012.85" style="stroke:#181818;stroke-width:1.0;"/><text fill="#000000" font-family="sans-serif" font-size="20" lengthAdjust="spacing" textLength="105" x="1325" y="919.3359">become an</text></g><!--link SearchUI to Listctrl--><g id="link_SearchUI_Listctrl"><path codeLine="189" d="M214.52,91 C225.29,91 235.73,91 244.01,91 " fill="none" id="SearchUI-to-Listctrl" style="stroke:#181818;stroke-width:1.0;stroke-dasharray:7.0,7.0;"/><polygon fill="#181818" points="249.38,91,240.38,87,244.38,91,240.38,95,249.38,91" style="stroke:#181818;stroke-width:1.0;"/></g><!--link Listctrl to AnnouncementRepository--><g id="link_Listctrl_AnnouncementRepository"><path codeLine="191" d="M694.66,91 C704.83,91 715.12,91 724.81,91 " fill="none" id="Listctrl-to-AnnouncementRepository" style="stroke:#181818;stroke-width:1.0;stroke-dasharray:7.0,7.0;"/><polygon fill="#181818" points="729.82,91,720.82,87,724.82,91,720.82,95,729.82,91" style="stroke:#181818;stroke-width:1.0;"/></g><!--link Listctrl to Repositories--><g id="link_Listctrl_Repositories"><path codeLine="192" d="M478.02,139.73 C499.34,308.78 570,869 570,869 C570,869 647.27,921.08 725.75,973.98 " fill="none" id="Listctrl-to-Repositories" style="stroke:#181818;stroke-width:1.0;stroke-dasharray:7.0,7.0;"/><polygon fill="#181818" points="729.97,976.81,724.7532,968.4563,725.8274,974.0102,720.2735,975.0844,729.97,976.81" style="stroke:#181818;stroke-width:1.0;"/></g><!--link Listctrl to Property--><g id="link_Listctrl_Property"><path codeLine="193" d="M463.51,139.58 C447.11,231.43 410.49,436.57 385.26,577.87 " fill="none" id="Listctrl-to-Property" style="stroke:#181818;stroke-width:1.0;stroke-dasharray:7.0,7.0;"/><polygon fill="#181818" points="384.37,582.87,389.9029,574.7222,385.2569,577.9493,382.0298,573.3032,384.37,582.87" style="stroke:#181818;stroke-width:1.0;"/></g><!--reverse link Property to Apartment--><g id="link_Property_Apartment"><path d="M433.56,887.35 C451.81,926.6 470.61,967.03 486.38,1000.95 " fill="none" id="Property-backto-Apartment" style="stroke:#181818;stroke-width:1.0;"/><polygon fill="none" points="427.17,890.21,425.08,869.12,439.86,884.31,427.17,890.21" style="stroke:#181818;stroke-width:1.0;"/></g><!--reverse link Property to House--><g id="link_Property_House"><path d="M256.45,886.17 C239.18,912.98 221.53,940.37 205.09,965.9 " fill="none" id="Property-backto-House" style="stroke:#181818;stroke-width:1.0;"/><polygon fill="none" points="250.72,882.14,267.44,869.12,262.49,889.73,250.72,882.14" style="stroke:#181818;stroke-width:1.0;"/></g><!--reverse link Property to Land--><g id="link_Property_Land"><path d="M344.47,889.05 C338.54,955.2 332.34,1024.4 329.16,1059.87 " fill="none" id="Property-backto-Land" style="stroke:#181818;stroke-width:1.0;"/><polygon fill="none" points="337.5,888.42,346.26,869.12,351.45,889.67,337.5,888.42" style="stroke:#181818;stroke-width:1.0;"/></g><!--link AnnouncementRepository to Announcement--><g id="link_AnnouncementRepository_Announcement"><path codeLine="201" d="M928,175.11 C928,200.03 928,227.91 928,254.83 " fill="none" id="AnnouncementRepository-to-Announcement" style="stroke:#181818;stroke-width:1.0;"/><polygon fill="#181818" points="928,259.85,932,250.85,928,254.85,924,250.85,928,259.85" style="stroke:#181818;stroke-width:1.0;"/><text fill="#000000" font-family="sans-serif" font-size="20" lengthAdjust="spacing" textLength="144" x="929" y="225.3359">Announcement</text></g><!--link Announcement to Property--><g id="link_Announcement_Property"><path codeLine="202" d="M739.3,487 C653.15,535.85 570,583 570,583 C570,583 530.39,609.66 485.49,639.87 " fill="none" id="Announcement-to-Property" style="stroke:#181818;stroke-width:1.0;"/><polygon fill="#181818" points="481.13,642.81,490.8306,641.1074,485.2792,640.02,486.3666,634.4687,481.13,642.81" style="stroke:#181818;stroke-width:1.0;"/><text fill="#000000" font-family="sans-serif" font-size="20" lengthAdjust="spacing" textLength="77" x="668" y="548.3359">is about</text></g><!--link Announcement to UU--><g id="link_Announcement_UU"><path codeLine="204" d="M1079.24,498.09 C1136.44,542.74 1188,583 1188,583 C1188,583 1249.38,655.64 1284.35,697.01 " fill="none" id="Announcement-to-UU" style="stroke:#181818;stroke-width:1.0;"/><polygon fill="#181818" points="1287.64,700.91,1284.8785,691.4562,1284.4096,697.0936,1278.7723,696.6248,1287.64,700.91" style="stroke:#181818;stroke-width:1.0;"/><text fill="#000000" font-family="sans-serif" font-size="20" lengthAdjust="spacing" textLength="93" x="1145" y="548.3359">is view by</text></g><!--SRC=[jLRDRjiu4BxpAOXSgY19KUmn0G8uJHSrK603U_q0D3MMYL2abgIQQhFxxZkaH8cKvNGFZG-oEFFDS7u-ZcYVXMgOORNK_1bAMiA1jTBzhfNRYh-1_lQ9VB0HGskjD3yQNGDrfWKoQHh6dra5MzT9e0QuOwgIAS0UMQbVXAheWKcRQgHGuBe6QADbvnVfZgDI6wT9OiKbitRbd17xri6QQnNY_KJ81ma7HvscHbH7HqlXmn5Q4H9iwCKtOHq6yXbpD5fAC1UKMUgbt1dvIWYX-BiwWHLCATqg3ZKeju56M-6qwIvxEAt0FHdTW76TDoqkqH7vD-wwMhIbhsUCzwt5pAszfZxxQsgqhctSoM8n7hed8pYiB2zImmN88_mSyyICiCStK1lW6FWCC2ONnKCwDslbg2Zxzoss2BlkqyW4I3WMsZ9QC0DiMfMu1SE2VSPzmMIc9MPaH3DPDqVjT6LOS-pNVxmeC5Jxvz1CAkoV647XmnWoKssz1xFnXIs6yaxTGf8vtweqeyHWBdnWxcYM55XOf6oLXGz_jQBnpcDiov4CeNpLhONt3ID8zyp2j9BwCBpPLdtvWNnj3VolUBynLMAuoynV8iWZSq1BV0nBtUvnXd1T2sl73W_InfErbuoSIpdPgrQLtufLCPihUX0IIHIHRvukOHy6xGXBYB45PlXnjyP4Hjbud0NOc60cB98HiLOzhOjBUfk19iZog2YIA2vsoa25-OB1cOtyw4VORkSBd_JYOZEWTWYPpJilwkTTs3X55ehLS0qr4_AwGJylsfJvDFEeqoacx8fp3Dsj91xbijkCCHO-nY_UuL0ALfRdTmg8xqmApue0y-OzoT88Oh47GdjVESEztqmIznYO_4QoINUdmgntxzdtlAZ5a6yUnHPLi5ilYgS6lvAho0_hDRHOFzxXr1IL2ZFtBWxVy29hfl2mcBjG1EoCGSxVEP20SrL1Vzelto_l4FmoqVr9vfslURgUi76SFFR_IOfnZF7PAYRRIsP9ziAq32GdOwZchoXcF0I_rA7donb6q9j_xccGpI0uoZxUd-FHUNTeC-_5UUpDVTxvju2zLqnaxfxU9Dh-FuY24uha6XbFaZ8CfnR3ZVEEaFWMfKaAaseUSwRnYx19SX1c1XYG6AZVxpZB9Colsy4J3kvHXi8zS7_5PifdCdvnCDfuHoKaleL6B7ul4iWybqmJFugdLn_uuK2Lq-qkkv2SKOQl_udEjtFv_XkQcbuGRhDbPXR0usSVwsifs-lMaLCK5ZJelmjueVkE_0S0]--></g></svg>