<?xml version="1.0" encoding="UTF-8" standalone="no"?><svg xmlns="http://www.w3.org/2000/svg" xmlns:xlink="http://www.w3.org/1999/xlink" contentStyleType="text/css" height="1033px" preserveAspectRatio="none" style="width:1989px;height:1033px;background:#FFFFFF;" version="1.1" viewBox="0 0 1989 1033" width="1989px" zoomAndPan="magnify"><defs/><g><!--class Actrl--><g id="elem_Actrl"><rect codeLine="11" fill="#F1F1F1" height="73.5547" id="Actrl" rx="2.5" ry="2.5" style="stroke:#181818;stroke-width:0.5;" width="451" x="7" y="940.5"/><ellipse cx="108" cy="957.5" fill="#ADD1B2" rx="12" ry="12" style="stroke:#181818;stroke-width:1.0;"/><path d="M110.8066,964.5801 Q110.123,964.9316 109.3711,965.1074 Q108.6191,965.2832 107.7891,965.2832 Q104.8398,965.2832 103.2871,963.3398 Q101.7344,961.3965 101.7344,957.7246 Q101.7344,954.043 103.2871,952.0996 Q104.8398,950.1563 107.7891,950.1563 Q108.6191,950.1563 109.3809,950.332 Q110.1426,950.5078 110.8066,950.8594 L110.8066,954.0625 Q110.0645,953.3789 109.3662,953.0615 Q108.668,952.7441 107.9258,952.7441 Q106.3438,952.7441 105.5381,953.999 Q104.7324,955.2539 104.7324,957.7246 Q104.7324,960.1855 105.5381,961.4404 Q106.3438,962.6953 107.9258,962.6953 Q108.668,962.6953 109.3662,962.3779 Q110.0645,962.0605 110.8066,961.377 Z " fill="#000000"/><text fill="#000000" font-family="sans-serif" font-size="20" lengthAdjust="spacing" textLength="240" x="130" y="965.0586">AnnouncementController</text><line style="stroke:#181818;stroke-width:0.5;" x1="8" x2="457" y1="974.5" y2="974.5"/><line style="stroke:#181818;stroke-width:0.5;" x1="8" x2="457" y1="982.5" y2="982.5"/><text fill="#000000" font-family="sans-serif" font-size="20" lengthAdjust="spacing" textLength="439" x="13" y="1005.8359">+addAnnouncementSold(AnnouncementSold)</text></g><!--class ctrl--><g id="elem_ctrl"><rect codeLine="16" fill="#F1F1F1" height="144.2188" id="ctrl" rx="2.5" ry="2.5" style="stroke:#181818;stroke-width:0.5;" width="291" x="1461" y="118"/><ellipse cx="1521.5" cy="135" fill="#ADD1B2" rx="12" ry="12" style="stroke:#181818;stroke-width:1.0;"/><path d="M1524.3066,142.0801 Q1523.623,142.4316 1522.8711,142.6074 Q1522.1191,142.7832 1521.2891,142.7832 Q1518.3398,142.7832 1516.7871,140.8398 Q1515.2344,138.8965 1515.2344,135.2246 Q1515.2344,131.543 1516.7871,129.5996 Q1518.3398,127.6563 1521.2891,127.6563 Q1522.1191,127.6563 1522.8809,127.832 Q1523.6426,128.0078 1524.3066,128.3594 L1524.3066,131.5625 Q1523.5645,130.8789 1522.8662,130.5615 Q1522.168,130.2441 1521.4258,130.2441 Q1519.8438,130.2441 1519.0381,131.499 Q1518.2324,132.7539 1518.2324,135.2246 Q1518.2324,137.6855 1519.0381,138.9404 Q1519.8438,140.1953 1521.4258,140.1953 Q1522.168,140.1953 1522.8662,139.8779 Q1523.5645,139.5605 1524.3066,138.877 Z " fill="#000000"/><text fill="#000000" font-family="sans-serif" font-size="20" lengthAdjust="spacing" textLength="161" x="1543.5" y="142.5586">ImportController</text><line style="stroke:#181818;stroke-width:0.5;" x1="1462" x2="1751" y1="152" y2="152"/><line style="stroke:#181818;stroke-width:0.5;" x1="1462" x2="1751" y1="160" y2="160"/><text fill="#000000" font-family="sans-serif" font-size="20" lengthAdjust="spacing" textLength="149" x="1467" y="183.3359">+JFileChooser()</text><text fill="#000000" font-family="sans-serif" font-size="20" lengthAdjust="spacing" textLength="279" x="1467" y="206.8906">+addLegacyFile(file, filePath)</text><text fill="#000000" font-family="sans-serif" font-size="20" lengthAdjust="spacing" textLength="169" x="1467" y="230.4453">-validateCSV(file)</text><text fill="#000000" font-family="sans-serif" font-size="20" lengthAdjust="spacing" textLength="191" x="1467" y="254">-validateEmpty(file)</text></g><!--class UI--><g id="elem_UI"><rect codeLine="24" fill="#F1F1F1" height="50" id="UI" rx="2.5" ry="2.5" style="stroke:#181818;stroke-width:0.5;" width="119" x="1547" y="7"/><ellipse cx="1563" cy="24" fill="#ADD1B2" rx="12" ry="12" style="stroke:#181818;stroke-width:1.0;"/><path d="M1565.8066,31.0801 Q1565.123,31.4316 1564.3711,31.6074 Q1563.6191,31.7832 1562.7891,31.7832 Q1559.8398,31.7832 1558.2871,29.8398 Q1556.7344,27.8965 1556.7344,24.2246 Q1556.7344,20.543 1558.2871,18.5996 Q1559.8398,16.6563 1562.7891,16.6563 Q1563.6191,16.6563 1564.3809,16.832 Q1565.1426,17.0078 1565.8066,17.3594 L1565.8066,20.5625 Q1565.0645,19.8789 1564.3662,19.5615 Q1563.668,19.2441 1562.9258,19.2441 Q1561.3438,19.2441 1560.5381,20.499 Q1559.7324,21.7539 1559.7324,24.2246 Q1559.7324,26.6855 1560.5381,27.9404 Q1561.3438,29.1953 1562.9258,29.1953 Q1563.668,29.1953 1564.3662,28.8779 Q1565.0645,28.5605 1565.8066,27.877 Z " fill="#000000"/><text fill="#000000" font-family="sans-serif" font-size="20" lengthAdjust="spacing" textLength="85" x="1578" y="31.5586">ImportUI</text><line style="stroke:#181818;stroke-width:0.5;" x1="1548" x2="1665" y1="41" y2="41"/><line style="stroke:#181818;stroke-width:0.5;" x1="1548" x2="1665" y1="49" y2="49"/></g><!--class AnnouncementRepository--><g id="elem_AnnouncementRepository"><rect codeLine="29" fill="#F1F1F1" height="97.1094" id="AnnouncementRepository" rx="2.5" ry="2.5" style="stroke:#181818;stroke-width:0.5;" width="451" x="611" y="929"/><ellipse cx="709" cy="946" fill="#ADD1B2" rx="12" ry="12" style="stroke:#181818;stroke-width:1.0;"/><path d="M711.8066,953.0801 Q711.123,953.4316 710.3711,953.6074 Q709.6191,953.7832 708.7891,953.7832 Q705.8398,953.7832 704.2871,951.8398 Q702.7344,949.8965 702.7344,946.2246 Q702.7344,942.543 704.2871,940.5996 Q705.8398,938.6563 708.7891,938.6563 Q709.6191,938.6563 710.3809,938.832 Q711.1426,939.0078 711.8066,939.3594 L711.8066,942.5625 Q711.0645,941.8789 710.3662,941.5615 Q709.668,941.2441 708.9258,941.2441 Q707.3438,941.2441 706.5381,942.499 Q705.7324,943.7539 705.7324,946.2246 Q705.7324,948.6855 706.5381,949.9404 Q707.3438,951.1953 708.9258,951.1953 Q709.668,951.1953 710.3662,950.8779 Q711.0645,950.5605 711.8066,949.877 Z " fill="#000000"/><text fill="#000000" font-family="sans-serif" font-size="20" lengthAdjust="spacing" textLength="246" x="731" y="953.5586">AnnouncementRepository</text><line style="stroke:#181818;stroke-width:0.5;" x1="612" x2="1061" y1="963" y2="963"/><text fill="#000000" font-family="sans-serif" font-size="20" lengthAdjust="spacing" textLength="264" x="617" y="986.3359">-List&lt;AnnouncementSold&gt;</text><line style="stroke:#181818;stroke-width:0.5;" x1="612" x2="1061" y1="994.5547" y2="994.5547"/><text fill="#000000" font-family="sans-serif" font-size="20" lengthAdjust="spacing" textLength="439" x="617" y="1017.8906">+addAnnouncementSold(AnnouncementSold)</text></g><!--class announcement--><g id="elem_announcement"><rect codeLine="35" fill="#F1F1F1" height="332.6563" id="announcement" rx="2.5" ry="2.5" style="stroke:#181818;stroke-width:0.5;" width="238" x="1487.5" y="417"/><ellipse cx="1511.6" cy="434" fill="#ADD1B2" rx="12" ry="12" style="stroke:#181818;stroke-width:1.0;"/><path d="M1514.4066,441.0801 Q1513.723,441.4316 1512.9711,441.6074 Q1512.2191,441.7832 1511.3891,441.7832 Q1508.4398,441.7832 1506.8871,439.8398 Q1505.3344,437.8965 1505.3344,434.2246 Q1505.3344,430.543 1506.8871,428.5996 Q1508.4398,426.6563 1511.3891,426.6563 Q1512.2191,426.6563 1512.9809,426.832 Q1513.7426,427.0078 1514.4066,427.3594 L1514.4066,430.5625 Q1513.6645,429.8789 1512.9662,429.5615 Q1512.268,429.2441 1511.5258,429.2441 Q1509.9438,429.2441 1509.1381,430.499 Q1508.3324,431.7539 1508.3324,434.2246 Q1508.3324,436.6855 1509.1381,437.9404 Q1509.9438,439.1953 1511.5258,439.1953 Q1512.268,439.1953 1512.9662,438.8779 Q1513.6645,438.5605 1514.4066,437.877 Z " fill="#000000"/><text fill="#000000" font-family="sans-serif" font-size="20" lengthAdjust="spacing" textLength="186" x="1528.4" y="441.5586">AnnouncementSold</text><line style="stroke:#181818;stroke-width:0.5;" x1="1488.5" x2="1724.5" y1="451" y2="451"/><text fill="#000000" font-family="sans-serif" font-size="20" lengthAdjust="spacing" textLength="31" x="1493.5" y="474.3359">-id</text><text fill="#000000" font-family="sans-serif" font-size="20" lengthAdjust="spacing" textLength="109" x="1493.5" y="497.8906">-comission</text><text fill="#000000" font-family="sans-serif" font-size="20" lengthAdjust="spacing" textLength="60" x="1493.5" y="521.4453">-price</text><text fill="#000000" font-family="sans-serif" font-size="20" lengthAdjust="spacing" textLength="54" x="1493.5" y="545">-date</text><text fill="#000000" font-family="sans-serif" font-size="20" lengthAdjust="spacing" textLength="143" x="1493.5" y="568.5547">-businessType</text><text fill="#000000" font-family="sans-serif" font-size="20" lengthAdjust="spacing" textLength="94" x="1493.5" y="592.1094">-property</text><text fill="#000000" font-family="sans-serif" font-size="20" lengthAdjust="spacing" textLength="65" x="1493.5" y="615.6641">-agent</text><text fill="#000000" font-family="sans-serif" font-size="20" lengthAdjust="spacing" textLength="226" x="1493.5" y="639.2188">-List&lt;Order&gt; orderList</text><text fill="#000000" font-family="sans-serif" font-size="20" lengthAdjust="spacing" textLength="215" x="1493.5" y="662.7734">-ContractDuraction=0</text><text fill="#000000" font-family="sans-serif" font-size="20" lengthAdjust="spacing" textLength="96" x="1493.5" y="686.3281">-salePrice</text><text fill="#000000" font-family="sans-serif" font-size="20" lengthAdjust="spacing" textLength="94" x="1493.5" y="709.8828">-saleDate</text><text fill="#000000" font-family="sans-serif" font-size="20" lengthAdjust="spacing" textLength="78" x="1493.5" y="733.4375">-agency</text><line style="stroke:#181818;stroke-width:0.5;" x1="1488.5" x2="1724.5" y1="741.6563" y2="741.6563"/></g><!--class csv--><g id="elem_csv"><rect codeLine="50" fill="#F1F1F1" height="521.0938" id="csv" rx="2.5" ry="2.5" style="stroke:#181818;stroke-width:0.5;" width="366" x="996.5" y="323"/><ellipse cx="1081.5" cy="340" fill="#ADD1B2" rx="12" ry="12" style="stroke:#181818;stroke-width:1.0;"/><path d="M1084.3066,347.0801 Q1083.623,347.4316 1082.8711,347.6074 Q1082.1191,347.7832 1081.2891,347.7832 Q1078.3398,347.7832 1076.7871,345.8398 Q1075.2344,343.8965 1075.2344,340.2246 Q1075.2344,336.543 1076.7871,334.5996 Q1078.3398,332.6563 1081.2891,332.6563 Q1082.1191,332.6563 1082.8809,332.832 Q1083.6426,333.0078 1084.3066,333.3594 L1084.3066,336.5625 Q1083.5645,335.8789 1082.8662,335.5615 Q1082.168,335.2441 1081.4258,335.2441 Q1079.8438,335.2441 1079.0381,336.499 Q1078.2324,337.7539 1078.2324,340.2246 Q1078.2324,342.6855 1079.0381,343.9404 Q1079.8438,345.1953 1081.4258,345.1953 Q1082.168,345.1953 1082.8662,344.8779 Q1083.5645,344.5605 1084.3066,343.877 Z " fill="#000000"/><text fill="#000000" font-family="sans-serif" font-size="20" lengthAdjust="spacing" textLength="187" x="1103.5" y="347.5586">ExternalModuleCSV</text><line style="stroke:#181818;stroke-width:0.5;" x1="997.5" x2="1361.5" y1="357" y2="357"/><text fill="#000000" font-family="sans-serif" font-size="20" lengthAdjust="spacing" textLength="41" x="1002.5" y="380.3359">-sid</text><text fill="#000000" font-family="sans-serif" font-size="20" lengthAdjust="spacing" textLength="133" x="1002.5" y="403.8906">-owner_name</text><text fill="#000000" font-family="sans-serif" font-size="20" lengthAdjust="spacing" textLength="210" x="1002.5" y="427.4453">-owner_passportNum</text><text fill="#000000" font-family="sans-serif" font-size="20" lengthAdjust="spacing" textLength="114" x="1002.5" y="451">-owner_TIN</text><text fill="#000000" font-family="sans-serif" font-size="20" lengthAdjust="spacing" textLength="133" x="1002.5" y="474.5547">-owner_email</text><text fill="#000000" font-family="sans-serif" font-size="20" lengthAdjust="spacing" textLength="140" x="1002.5" y="498.1094">-owner_phone</text><text fill="#000000" font-family="sans-serif" font-size="20" lengthAdjust="spacing" textLength="145" x="1002.5" y="521.6641">-property_type</text><text fill="#000000" font-family="sans-serif" font-size="20" lengthAdjust="spacing" textLength="145" x="1002.5" y="545.2188">-property_area</text><text fill="#000000" font-family="sans-serif" font-size="20" lengthAdjust="spacing" textLength="180" x="1002.5" y="568.7734">-property_location</text><text fill="#000000" font-family="sans-serif" font-size="20" lengthAdjust="spacing" textLength="297" x="1002.5" y="592.3281">-property_distanceFromCenter</text><text fill="#000000" font-family="sans-serif" font-size="20" lengthAdjust="spacing" textLength="276" x="1002.5" y="615.8828">-property_numberBedrooms</text><text fill="#000000" font-family="sans-serif" font-size="20" lengthAdjust="spacing" textLength="282" x="1002.5" y="639.4375">-property_numberBathrooms</text><text fill="#000000" font-family="sans-serif" font-size="20" lengthAdjust="spacing" textLength="232" x="1002.5" y="662.9922">-property_pnumParking</text><text fill="#000000" font-family="sans-serif" font-size="20" lengthAdjust="spacing" textLength="243" x="1002.5" y="686.5469">-property_centralHeating</text><text fill="#000000" font-family="sans-serif" font-size="20" lengthAdjust="spacing" textLength="243" x="1002.5" y="710.1016">-property_airconditioned</text><text fill="#000000" font-family="sans-serif" font-size="20" lengthAdjust="spacing" textLength="198" x="1002.5" y="733.6563">-property_basement</text><text fill="#000000" font-family="sans-serif" font-size="20" lengthAdjust="spacing" textLength="136" x="1002.5" y="757.2109">-property_loft</text><text fill="#000000" font-family="sans-serif" font-size="20" lengthAdjust="spacing" textLength="227" x="1002.5" y="780.7656">-property_sunExposure</text><text fill="#000000" font-family="sans-serif" font-size="20" lengthAdjust="spacing" textLength="354" x="1002.5" y="804.3203">-property_requested_sale_rent_price</text><text fill="#000000" font-family="sans-serif" font-size="20" lengthAdjust="spacing" textLength="248" x="1002.5" y="827.875">-property_sale_rent_price</text><line style="stroke:#181818;stroke-width:0.5;" x1="997.5" x2="1361.5" y1="836.0938" y2="836.0938"/></g><!--class adapter--><g id="elem_adapter"><rect codeLine="73" fill="#F1F1F1" height="144.2188" id="adapter" rx="2.5" ry="2.5" style="stroke:#181818;stroke-width:0.5;" width="298" x="561.5" y="511.5"/><ellipse cx="577.5" cy="528.5" fill="#ADD1B2" rx="12" ry="12" style="stroke:#181818;stroke-width:1.0;"/><path d="M580.3066,535.5801 Q579.623,535.9316 578.8711,536.1074 Q578.1191,536.2832 577.2891,536.2832 Q574.3398,536.2832 572.7871,534.3398 Q571.2344,532.3965 571.2344,528.7246 Q571.2344,525.043 572.7871,523.0996 Q574.3398,521.1563 577.2891,521.1563 Q578.1191,521.1563 578.8809,521.332 Q579.6426,521.5078 580.3066,521.8594 L580.3066,525.0625 Q579.5645,524.3789 578.8662,524.0615 Q578.168,523.7441 577.4258,523.7441 Q575.8438,523.7441 575.0381,524.999 Q574.2324,526.2539 574.2324,528.7246 Q574.2324,531.1855 575.0381,532.4404 Q575.8438,533.6953 577.4258,533.6953 Q578.168,533.6953 578.8662,533.3779 Q579.5645,533.0605 580.3066,532.377 Z " fill="#000000"/><text fill="#000000" font-family="sans-serif" font-size="20" lengthAdjust="spacing" textLength="264" x="592.5" y="536.0586">ExternalModuleAdapterCSV</text><line style="stroke:#181818;stroke-width:0.5;" x1="562.5" x2="858.5" y1="545.5" y2="545.5"/><text fill="#000000" font-family="sans-serif" font-size="20" lengthAdjust="spacing" textLength="265" x="567.5" y="568.8359">-List&lt;ExternalModuleCSV&gt;</text><line style="stroke:#181818;stroke-width:0.5;" x1="562.5" x2="858.5" y1="577.0547" y2="577.0547"/><text fill="#000000" font-family="sans-serif" font-size="20" lengthAdjust="spacing" textLength="180" x="567.5" y="600.3906">+readFile(filepath)</text><text fill="#000000" font-family="sans-serif" font-size="20" lengthAdjust="spacing" textLength="250" x="567.5" y="623.9453">-add(ExternalModuleCSV)</text><text fill="#000000" font-family="sans-serif" font-size="20" lengthAdjust="spacing" textLength="253" x="567.5" y="647.5">+add(AnnouncementSold)</text></g><!--class ExternalModule--><g id="elem_ExternalModule"><rect codeLine="81" fill="#F1F1F1" height="73.5547" id="ExternalModule" rx="2.5" ry="2.5" style="stroke:#181818;stroke-width:0.5;" width="183" x="1097" y="940.5"/><ellipse cx="1113" cy="957.5" fill="#B4A7E5" rx="12" ry="12" style="stroke:#181818;stroke-width:1.0;"/><path d="M1108.6797,952.959 L1108.6797,950.4199 L1117.3613,950.4199 L1117.3613,952.959 L1114.4609,952.959 L1114.4609,962.4609 L1117.3613,962.4609 L1117.3613,965 L1108.6797,965 L1108.6797,962.4609 L1111.5801,962.4609 L1111.5801,952.959 Z " fill="#000000"/><text fill="#000000" font-family="sans-serif" font-size="20" font-style="italic" lengthAdjust="spacing" textLength="149" x="1128" y="965.0586">ExternalModule</text><line style="stroke:#181818;stroke-width:0.5;" x1="1098" x2="1279" y1="974.5" y2="974.5"/><line style="stroke:#181818;stroke-width:0.5;" x1="1098" x2="1279" y1="982.5" y2="982.5"/><text fill="#000000" font-family="sans-serif" font-size="20" lengthAdjust="spacing" textLength="164" x="1103" y="1005.8359">readFile(filepath)</text></g><!--class ExternalModuleCSV--><g id="elem_ExternalModuleCSV"><rect fill="#F1F1F1" height="50" id="ExternalModuleCSV" rx="2.5" ry="2.5" style="stroke:#181818;stroke-width:0.5;" width="221" x="1761" y="558.5"/><ellipse cx="1777" cy="575.5" fill="#ADD1B2" rx="12" ry="12" style="stroke:#181818;stroke-width:1.0;"/><path d="M1779.8066,582.5801 Q1779.123,582.9316 1778.3711,583.1074 Q1777.6191,583.2832 1776.7891,583.2832 Q1773.8398,583.2832 1772.2871,581.3398 Q1770.7344,579.3965 1770.7344,575.7246 Q1770.7344,572.043 1772.2871,570.0996 Q1773.8398,568.1563 1776.7891,568.1563 Q1777.6191,568.1563 1778.3809,568.332 Q1779.1426,568.5078 1779.8066,568.8594 L1779.8066,572.0625 Q1779.0645,571.3789 1778.3662,571.0615 Q1777.668,570.7441 1776.9258,570.7441 Q1775.3438,570.7441 1774.5381,571.999 Q1773.7324,573.2539 1773.7324,575.7246 Q1773.7324,578.1855 1774.5381,579.4404 Q1775.3438,580.6953 1776.9258,580.6953 Q1777.668,580.6953 1778.3662,580.3779 Q1779.0645,580.0605 1779.8066,579.377 Z " fill="#000000"/><text fill="#000000" font-family="sans-serif" font-size="20" lengthAdjust="spacing" textLength="187" x="1792" y="583.0586">ExternalModuleCSV</text><line style="stroke:#181818;stroke-width:0.5;" x1="1762" x2="1981" y1="592.5" y2="592.5"/><line style="stroke:#181818;stroke-width:0.5;" x1="1762" x2="1981" y1="600.5" y2="600.5"/></g><!--link UI to ctrl--><g id="link_UI_ctrl"><path codeLine="85" d="M1606.5,57.03 C1606.5,72.08 1606.5,92.39 1606.5,112.55 " fill="none" id="UI-to-ctrl" style="stroke:#181818;stroke-width:1.0;stroke-dasharray:7.0,7.0;"/><polygon fill="#181818" points="1606.5,117.68,1610.5,108.68,1606.5,112.68,1602.5,108.68,1606.5,117.68" style="stroke:#181818;stroke-width:1.0;"/></g><!--link ctrl to adapter--><g id="link_ctrl_adapter"><path codeLine="86" d="M1460.85,221.62 C1275.33,260.61 978.5,323 978.5,323 C978.5,323 866.99,430.97 787.83,507.62 " fill="none" id="ctrl-to-adapter" style="stroke:#181818;stroke-width:1.0;stroke-dasharray:7.0,7.0;"/><polygon fill="#181818" points="784.09,511.25,793.3382,507.8632,787.6821,507.7719,787.7733,502.1158,784.09,511.25" style="stroke:#181818;stroke-width:1.0;"/></g><!--link ctrl to ExternalModuleCSV--><g id="link_ctrl_ExternalModuleCSV"><path codeLine="87" d="M1680.21,262.02 C1712.64,293.27 1743.5,323 1743.5,323 C1743.5,323 1823.7,485.59 1857.13,553.37 " fill="none" id="ctrl-to-ExternalModuleCSV" style="stroke:#181818;stroke-width:1.0;stroke-dasharray:7.0,7.0;"/><polygon fill="#181818" points="1859.46,558.09,1859.0631,548.2491,1857.2468,553.6065,1851.8895,551.7903,1859.46,558.09" style="stroke:#181818;stroke-width:1.0;"/></g><!--link ctrl to announcement--><g id="link_ctrl_announcement"><path codeLine="88" d="M1606.5,262.35 C1606.5,304.34 1606.5,359.36 1606.5,411.91 " fill="none" id="ctrl-to-announcement" style="stroke:#181818;stroke-width:1.0;stroke-dasharray:7.0,7.0;"/><polygon fill="#181818" points="1606.5,416.99,1610.5,407.99,1606.5,411.99,1602.5,407.99,1606.5,416.99" style="stroke:#181818;stroke-width:1.0;"/></g><!--link adapter to csv--><g id="link_adapter_csv"><path codeLine="91" d="M859.54,583.5 C901.38,583.5 947.42,583.5 991.23,583.5 " fill="none" id="adapter-to-csv" style="stroke:#181818;stroke-width:1.0;"/><polygon fill="#181818" points="996.28,583.5,987.28,579.5,991.28,583.5,987.28,587.5,996.28,583.5" style="stroke:#181818;stroke-width:1.0;"/><polygon fill="#000000" points="893,568.2773,878.5279,563.5751,878.5279,572.9796,893,568.2773" style="stroke:#000000;stroke-width:1.0;"/><text fill="#000000" font-family="sans-serif" font-size="20" lengthAdjust="spacing" textLength="80" x="898" y="575.8359">contains</text></g><!--link csv to announcement--><g id="link_csv_announcement"><path codeLine="92" d="M1362.75,583.5 C1403.13,583.5 1444.97,583.5 1482.36,583.5 " fill="none" id="csv-to-announcement" style="stroke:#181818;stroke-width:1.0;"/><polygon fill="#181818" points="1487.37,583.5,1478.37,579.5,1482.37,583.5,1478.37,587.5,1487.37,583.5" style="stroke:#181818;stroke-width:1.0;"/><polygon fill="#000000" points="1396,568.2773,1381.5279,563.5751,1381.5279,572.9796,1396,568.2773" style="stroke:#000000;stroke-width:1.0;"/><text fill="#000000" font-family="sans-serif" font-size="20" lengthAdjust="spacing" textLength="68" x="1401" y="575.8359">creates</text></g><!--link adapter to Actrl--><g id="link_adapter_Actrl"><path codeLine="93" d="M623.66,655.72 C523.18,738.12 361.27,870.9 280.93,936.78 " fill="none" id="adapter-to-Actrl" style="stroke:#181818;stroke-width:1.0;"/><polygon fill="#181818" points="276.7,940.25,286.197,937.641,280.5679,937.0815,281.1274,931.4524,276.7,940.25" style="stroke:#181818;stroke-width:1.0;"/><polygon fill="#000000" points="350.314,891.8502,364.4863,886.3093,358.5228,879.0373,350.314,891.8502" style="stroke:#000000;stroke-width:1.0;"/><text fill="#000000" font-family="sans-serif" font-size="20" lengthAdjust="spacing" textLength="137" x="369.5" y="894.3359">makes uses of</text></g><!--link Actrl to AnnouncementRepository--><g id="link_Actrl_AnnouncementRepository"><path codeLine="94" d="M458.27,977.5 C506.36,977.5 557.21,977.5 605.49,977.5 " fill="none" id="Actrl-to-AnnouncementRepository" style="stroke:#181818;stroke-width:1.0;"/><polygon fill="#181818" points="610.76,977.5,601.76,973.5,605.76,977.5,601.76,981.5,610.76,977.5" style="stroke:#181818;stroke-width:1.0;"/><polygon fill="#000000" points="491.5,962.2773,477.0279,957.5751,477.0279,966.9796,491.5,962.2773" style="stroke:#000000;stroke-width:1.0;"/><text fill="#000000" font-family="sans-serif" font-size="20" lengthAdjust="spacing" textLength="96" x="496.5" y="969.8359">records in</text></g><!--reverse link adapter to ExternalModule--><g id="link_adapter_ExternalModule"><path codeLine="95" d="M798.86,670.05 C876.94,745.66 978.5,844 978.5,844 C978.5,844 1069.21,901.23 1131.39,940.47 " fill="none" id="adapter-backto-ExternalModule" style="stroke:#181818;stroke-width:1.0;stroke-dasharray:7.0,7.0;"/><polygon fill="none" points="793.59,674.69,784.09,655.75,803.32,664.64,793.59,674.69" style="stroke:#181818;stroke-width:1.0;"/></g><!--SRC=[bLNDRXen4BxlKrYvXAW5HJr6AH8bYKgLfb49lQB17i32Qs_jsIJRDE_UyR81iqiEvM0yyysCvt_3Hji2FEJ6oGqgeN09fQ4RPscg_w3uT9wTXZSPaJlhvDgx70Nv4hCzKe3Sm0gdL1aK7YM1NPbK8An1kITjLs899gI8qHQfAb0KpbIHI5_SWSwJon8jQI244P7NYv9m8fsj_JtFibE3InBaXDUhDGcbeplQsIohTSJ9o5fNMeavMXfpeDuPW_v4G10ZITwyP89_7q2fL7BgZEgr6MTPzhgpEyaBzh9bCJ7uxKOR7A-T2-XxPxj7Rd45iefORyd7Hn7FUw3rLgJ_24Oh81nFVzK2BVPrNb3L01rdPfFQYTda9Kl0D8gVMBYWoVbARDtit-f0b-r0Xzd_9ENrQAuZLhi32RDvL6ZLNAJBTGYnNbkwy5fYSu_nDjT56RWrGdZWvjX9kW8zLGt9xMYfkTSn_V0A_P0xYVyYey7gWe6agpAU_F3dymO9m8L8de_qrTw5-82iac2ldmcz1VFTgTB4Ucqx83msGOPTaEx9efzRoF60KR2PMBQxCZ_WFqpk3cZCGPj3pRMpxJpCgPkRENY4Dezd7oZDUCDNd2JWEjtmn8yvcUZR4hRC5-Y_eFBEvU4Tb5lvA5mmVW-UHthLXYJ6cfYlo7vrKT2Uvrtfw3EgDhg0K7TMDyfbXnTAU_tC0r3wJg8y_Yun4AfvB3kJbkPfB-vjjE3t-c6ae63whIrWIwP3r-cVuNRek6Hgjn-A_MRWOUnrTFQBvPrjfMCXbo1H7EfkFJdo5klC9c8m6DRBB8j7JJKHx1aTNnBPn1LUHOsgw0_ZU8WBddfBe6qGmomo-eSQKO0T8upuJfU5wdrz8NBOC5G6FjoIHMfsD79yqrt4BnIlWI2qJGnU_XqCMZ5a_m00]--></g></svg>