<?xml version="1.0" encoding="UTF-8" standalone="no"?><svg xmlns="http://www.w3.org/2000/svg" xmlns:xlink="http://www.w3.org/1999/xlink" contentStyleType="text/css" height="1045px" preserveAspectRatio="none" style="width:1987px;height:1045px;background:#FFFFFF;" version="1.1" viewBox="0 0 1987 1045" width="1987px" zoomAndPan="magnify"><defs/><g><rect fill="#FFFFFF" height="849.2031" style="stroke:#181818;stroke-width:1.0;" width="10" x="103" y="98.5547"/><rect fill="#FFFFFF" height="86.1094" style="stroke:#181818;stroke-width:1.0;" width="10" x="672" y="128.1094"/><rect fill="#FFFFFF" height="680.9844" style="stroke:#181818;stroke-width:1.0;" width="10" x="672" y="251.7734"/><rect fill="#FFFFFF" height="605.875" style="stroke:#181818;stroke-width:1.0;" width="10" x="1063" y="289.3281"/><rect fill="#FFFFFF" height="37.5547" style="stroke:#181818;stroke-width:1.0;" width="10" x="1261" y="326.8828"/><rect fill="#FFFFFF" height="37.5547" style="stroke:#181818;stroke-width:1.0;" width="10" x="1410" y="401.9922"/><rect fill="#FFFFFF" height="37.5547" style="stroke:#181818;stroke-width:1.0;" width="10" x="1572" y="477.1016"/><rect fill="#FFFFFF" height="187.2188" style="stroke:#181818;stroke-width:1.0;" width="10" x="1572" y="552.2109"/><rect fill="#FFFFFF" height="48.5547" style="stroke:#181818;stroke-width:1.0;" width="10" x="1577" y="646.3203"/><rect fill="none" height="186.3281" style="stroke:#000000;stroke-width:1.5;" width="1186.5" x="10" y="754.4297"/><line style="stroke:#181818;stroke-width:0.5;stroke-dasharray:5.0,5.0;" x1="108" x2="108" y1="88.5547" y2="957.7578"/><line style="stroke:#181818;stroke-width:0.5;stroke-dasharray:5.0,5.0;" x1="676.5" x2="676.5" y1="88.5547" y2="957.7578"/><line style="stroke:#181818;stroke-width:0.5;stroke-dasharray:5.0,5.0;" x1="1067.5" x2="1067.5" y1="170.3867" y2="957.7578"/><line style="stroke:#181818;stroke-width:0.5;stroke-dasharray:5.0,5.0;" x1="1265.5" x2="1265.5" y1="88.5547" y2="957.7578"/><line style="stroke:#181818;stroke-width:0.5;stroke-dasharray:5.0,5.0;" x1="1414.5" x2="1414.5" y1="88.5547" y2="957.7578"/><line style="stroke:#181818;stroke-width:0.5;stroke-dasharray:5.0,5.0;" x1="1576.5" x2="1576.5" y1="88.5547" y2="957.7578"/><line style="stroke:#181818;stroke-width:0.5;stroke-dasharray:5.0,5.0;" x1="1949" x2="1949" y1="594.4883" y2="957.7578"/><text fill="#000000" font-family="sans-serif" font-size="20" lengthAdjust="spacing" textLength="170" x="20" y="84.3359">Unregistered user</text><ellipse cx="108" cy="13.5" fill="#E3E3E3" rx="8" ry="8" style="stroke:#181818;stroke-width:0.5;"/><path d="M108,21.5 L108,48.5 M95,29.5 L121,29.5 M108,48.5 L95,63.5 M108,48.5 L121,63.5 " fill="none" style="stroke:#181818;stroke-width:0.5;"/><text fill="#000000" font-family="sans-serif" font-size="20" lengthAdjust="spacing" textLength="170" x="20" y="976.0938">Unregistered user</text><ellipse cx="108" cy="988.8125" fill="#E3E3E3" rx="8" ry="8" style="stroke:#181818;stroke-width:0.5;"/><path d="M108,996.8125 L108,1023.8125 M95,1004.8125 L121,1004.8125 M108,1023.8125 L95,1038.8125 M108,1023.8125 L121,1038.8125 " fill="none" style="stroke:#181818;stroke-width:0.5;"/><rect fill="#E3E3E3" height="37.5547" rx="2.5" ry="2.5" style="stroke:#181818;stroke-width:0.5;" width="161" x="596.5" y="50"/><text fill="#000000" font-family="sans-serif" font-size="20" lengthAdjust="spacing" textLength="147" x="603.5" y="76.3359">:RegisterUserUI</text><rect fill="#E3E3E3" height="37.5547" rx="2.5" ry="2.5" style="stroke:#181818;stroke-width:0.5;" width="161" x="596.5" y="956.7578"/><text fill="#000000" font-family="sans-serif" font-size="20" lengthAdjust="spacing" textLength="147" x="603.5" y="983.0938">:RegisterUserUI</text><rect fill="#E3E3E3" height="37.5547" rx="2.5" ry="2.5" style="stroke:#181818;stroke-width:0.5;" width="237" x="949.5" y="956.7578"/><text fill="#000000" font-family="sans-serif" font-size="20" lengthAdjust="spacing" textLength="223" x="956.5" y="983.0938">:RegisterUserController</text><rect fill="#E3E3E3" height="37.5547" rx="2.5" ry="2.5" style="stroke:#181818;stroke-width:0.5;" width="139" x="1196.5" y="50"/><text fill="#000000" font-family="sans-serif" font-size="20" lengthAdjust="spacing" textLength="125" x="1203.5" y="76.3359">:Repositories</text><rect fill="#E3E3E3" height="37.5547" rx="2.5" ry="2.5" style="stroke:#181818;stroke-width:0.5;" width="139" x="1196.5" y="956.7578"/><text fill="#000000" font-family="sans-serif" font-size="20" lengthAdjust="spacing" textLength="125" x="1203.5" y="983.0938">:Repositories</text><rect fill="#E3E3E3" height="61.1094" rx="2.5" ry="2.5" style="stroke:#181818;stroke-width:0.5;" width="139" x="1345.5" y="26.4453"/><text fill="#000000" font-family="sans-serif" font-size="20" lengthAdjust="spacing" textLength="114" x="1358" y="52.7813">repositories</text><text fill="#000000" font-family="sans-serif" font-size="20" lengthAdjust="spacing" textLength="125" x="1352.5" y="76.3359">:Repositories</text><rect fill="#E3E3E3" height="61.1094" rx="2.5" ry="2.5" style="stroke:#181818;stroke-width:0.5;" width="139" x="1345.5" y="956.7578"/><text fill="#000000" font-family="sans-serif" font-size="20" lengthAdjust="spacing" textLength="114" x="1358" y="983.0938">repositories</text><text fill="#000000" font-family="sans-serif" font-size="20" lengthAdjust="spacing" textLength="125" x="1352.5" y="1006.6484">:Repositories</text><rect fill="#E3E3E3" height="61.1094" rx="2.5" ry="2.5" style="stroke:#181818;stroke-width:0.5;" width="165" x="1494.5" y="26.4453"/><text fill="#000000" font-family="sans-serif" font-size="20" lengthAdjust="spacing" textLength="151" x="1501.5" y="52.7813">UserRepository:</text><text fill="#000000" font-family="sans-serif" font-size="20" lengthAdjust="spacing" textLength="145" x="1504.5" y="76.3359">UserRepository</text><rect fill="#E3E3E3" height="61.1094" rx="2.5" ry="2.5" style="stroke:#181818;stroke-width:0.5;" width="165" x="1494.5" y="956.7578"/><text fill="#000000" font-family="sans-serif" font-size="20" lengthAdjust="spacing" textLength="151" x="1501.5" y="983.0938">UserRepository:</text><text fill="#000000" font-family="sans-serif" font-size="20" lengthAdjust="spacing" textLength="145" x="1504.5" y="1006.6484">UserRepository</text><rect fill="#E3E3E3" height="37.5547" rx="2.5" ry="2.5" style="stroke:#181818;stroke-width:0.5;" width="63" x="1918" y="956.7578"/><text fill="#000000" font-family="sans-serif" font-size="20" lengthAdjust="spacing" textLength="49" x="1925" y="983.0938">User:</text><rect fill="#FFFFFF" height="849.2031" style="stroke:#181818;stroke-width:1.0;" width="10" x="103" y="98.5547"/><rect fill="#FFFFFF" height="86.1094" style="stroke:#181818;stroke-width:1.0;" width="10" x="672" y="128.1094"/><rect fill="#FFFFFF" height="680.9844" style="stroke:#181818;stroke-width:1.0;" width="10" x="672" y="251.7734"/><rect fill="#FFFFFF" height="605.875" style="stroke:#181818;stroke-width:1.0;" width="10" x="1063" y="289.3281"/><rect fill="#FFFFFF" height="37.5547" style="stroke:#181818;stroke-width:1.0;" width="10" x="1261" y="326.8828"/><rect fill="#FFFFFF" height="37.5547" style="stroke:#181818;stroke-width:1.0;" width="10" x="1410" y="401.9922"/><rect fill="#FFFFFF" height="37.5547" style="stroke:#181818;stroke-width:1.0;" width="10" x="1572" y="477.1016"/><rect fill="#FFFFFF" height="187.2188" style="stroke:#181818;stroke-width:1.0;" width="10" x="1572" y="552.2109"/><rect fill="#FFFFFF" height="48.5547" style="stroke:#181818;stroke-width:1.0;" width="10" x="1577" y="646.3203"/><polygon fill="#181818" points="660,124.1094,670,128.1094,660,132.1094,664,128.1094" style="stroke:#181818;stroke-width:1.0;"/><line style="stroke:#181818;stroke-width:1.0;" x1="113" x2="666" y1="128.1094" y2="128.1094"/><text fill="#000000" font-family="sans-serif" font-size="20" font-weight="bold" lengthAdjust="spacing" textLength="13" x="120" y="121.8906">1</text><text fill="#000000" font-family="sans-serif" font-size="20" lengthAdjust="spacing" textLength="211" x="137" y="121.8906">asks to register a user</text><polygon fill="#181818" points="937.5,161.6641,947.5,165.6641,937.5,169.6641,941.5,165.6641" style="stroke:#181818;stroke-width:1.0;"/><line style="stroke:#181818;stroke-width:1.0;" x1="682" x2="943.5" y1="165.6641" y2="165.6641"/><text fill="#000000" font-family="sans-serif" font-size="20" font-weight="bold" lengthAdjust="spacing" textLength="13" x="689" y="159.4453">2</text><text fill="#000000" font-family="sans-serif" font-size="20" lengthAdjust="spacing" textLength="62" x="706" y="159.4453">Create</text><rect fill="#E3E3E3" height="37.5547" rx="2.5" ry="2.5" style="stroke:#181818;stroke-width:0.5;" width="237" x="949.5" y="136.1094"/><text fill="#000000" font-family="sans-serif" font-size="20" lengthAdjust="spacing" textLength="223" x="956.5" y="162.4453">:RegisterUserController</text><polygon fill="#181818" points="124,210.2188,114,214.2188,124,218.2188,120,214.2188" style="stroke:#181818;stroke-width:1.0;"/><line style="stroke:#181818;stroke-width:1.0;stroke-dasharray:2.0,2.0;" x1="118" x2="676" y1="214.2188" y2="214.2188"/><text fill="#000000" font-family="sans-serif" font-size="20" font-weight="bold" lengthAdjust="spacing" textLength="13" x="130" y="208">3</text><text fill="#000000" font-family="sans-serif" font-size="20" lengthAdjust="spacing" textLength="432" x="147" y="208">requests the data(name,email and password)</text><polygon fill="#181818" points="660,247.7734,670,251.7734,660,255.7734,664,251.7734" style="stroke:#181818;stroke-width:1.0;"/><line style="stroke:#181818;stroke-width:1.0;" x1="113" x2="666" y1="251.7734" y2="251.7734"/><text fill="#000000" font-family="sans-serif" font-size="20" font-weight="bold" lengthAdjust="spacing" textLength="13" x="120" y="245.5547">4</text><text fill="#000000" font-family="sans-serif" font-size="20" lengthAdjust="spacing" textLength="523" x="137" y="245.5547">types the data(name,email and password) and confirm</text><polygon fill="#181818" points="1051,285.3281,1061,289.3281,1051,293.3281,1055,289.3281" style="stroke:#181818;stroke-width:1.0;"/><line style="stroke:#181818;stroke-width:1.0;" x1="682" x2="1057" y1="289.3281" y2="289.3281"/><text fill="#000000" font-family="sans-serif" font-size="20" font-weight="bold" lengthAdjust="spacing" textLength="13" x="689" y="283.1094">5</text><text fill="#000000" font-family="sans-serif" font-size="20" lengthAdjust="spacing" textLength="345" x="706" y="283.1094">RegisterUser(name,email,password)</text><polygon fill="#181818" points="1249,322.8828,1259,326.8828,1249,330.8828,1253,326.8828" style="stroke:#181818;stroke-width:1.0;"/><line style="stroke:#181818;stroke-width:1.0;" x1="1073" x2="1255" y1="326.8828" y2="326.8828"/><text fill="#000000" font-family="sans-serif" font-size="20" font-weight="bold" lengthAdjust="spacing" textLength="13" x="1080" y="320.6641">6</text><text fill="#000000" font-family="sans-serif" font-size="20" lengthAdjust="spacing" textLength="123" x="1097" y="320.6641">getInstance()</text><polygon fill="#181818" points="1084,360.4375,1074,364.4375,1084,368.4375,1080,364.4375" style="stroke:#181818;stroke-width:1.0;"/><line style="stroke:#181818;stroke-width:1.0;stroke-dasharray:2.0,2.0;" x1="1078" x2="1265" y1="364.4375" y2="364.4375"/><text fill="#000000" font-family="sans-serif" font-size="20" font-weight="bold" lengthAdjust="spacing" textLength="13" x="1090" y="358.2188">7</text><text fill="#000000" font-family="sans-serif" font-size="20" lengthAdjust="spacing" textLength="114" x="1107" y="358.2188">repositories</text><polygon fill="#181818" points="1398,397.9922,1408,401.9922,1398,405.9922,1402,401.9922" style="stroke:#181818;stroke-width:1.0;"/><line style="stroke:#181818;stroke-width:1.0;" x1="1073" x2="1404" y1="401.9922" y2="401.9922"/><text fill="#000000" font-family="sans-serif" font-size="20" font-weight="bold" lengthAdjust="spacing" textLength="13" x="1080" y="395.7734">8</text><text fill="#000000" font-family="sans-serif" font-size="20" lengthAdjust="spacing" textLength="189" x="1097" y="395.7734">getUserRepository()</text><polygon fill="#181818" points="1084,435.5469,1074,439.5469,1084,443.5469,1080,439.5469" style="stroke:#181818;stroke-width:1.0;"/><line style="stroke:#181818;stroke-width:1.0;stroke-dasharray:2.0,2.0;" x1="1078" x2="1414" y1="439.5469" y2="439.5469"/><text fill="#000000" font-family="sans-serif" font-size="20" font-weight="bold" lengthAdjust="spacing" textLength="13" x="1090" y="433.3281">9</text><text fill="#000000" font-family="sans-serif" font-size="20" lengthAdjust="spacing" textLength="145" x="1107" y="433.3281">UserRepository</text><polygon fill="#181818" points="1560,473.1016,1570,477.1016,1560,481.1016,1564,477.1016" style="stroke:#181818;stroke-width:1.0;"/><line style="stroke:#181818;stroke-width:1.0;" x1="1073" x2="1566" y1="477.1016" y2="477.1016"/><text fill="#000000" font-family="sans-serif" font-size="20" font-weight="bold" lengthAdjust="spacing" textLength="26" x="1080" y="470.8828">10</text><text fill="#000000" font-family="sans-serif" font-size="20" lengthAdjust="spacing" textLength="365" x="1110" y="470.8828">isAccountAlredyRegistered(userEmail)</text><polygon fill="#181818" points="1084,510.6563,1074,514.6563,1084,518.6563,1080,514.6563" style="stroke:#181818;stroke-width:1.0;"/><line style="stroke:#181818;stroke-width:1.0;" x1="1078" x2="1576" y1="514.6563" y2="514.6563"/><text fill="#000000" font-family="sans-serif" font-size="20" font-weight="bold" lengthAdjust="spacing" textLength="26" x="1090" y="508.4375">11</text><text fill="#000000" font-family="sans-serif" font-size="20" lengthAdjust="spacing" textLength="93" x="1120" y="508.4375">true/false</text><polygon fill="#181818" points="1560,548.2109,1570,552.2109,1560,556.2109,1564,552.2109" style="stroke:#181818;stroke-width:1.0;"/><line style="stroke:#181818;stroke-width:1.0;" x1="1073" x2="1566" y1="552.2109" y2="552.2109"/><text fill="#000000" font-family="sans-serif" font-size="20" font-weight="bold" lengthAdjust="spacing" textLength="26" x="1080" y="545.9922">12</text><text fill="#000000" font-family="sans-serif" font-size="20" lengthAdjust="spacing" textLength="304" x="1110" y="545.9922">addUser(name,email,password)</text><polygon fill="#181818" points="1906,585.7656,1916,589.7656,1906,593.7656,1910,589.7656" style="stroke:#181818;stroke-width:1.0;"/><line style="stroke:#181818;stroke-width:1.0;" x1="1582" x2="1912" y1="589.7656" y2="589.7656"/><text fill="#000000" font-family="sans-serif" font-size="20" font-weight="bold" lengthAdjust="spacing" textLength="26" x="1589" y="583.5469">13</text><text fill="#000000" font-family="sans-serif" font-size="20" lengthAdjust="spacing" textLength="282" x="1619" y="583.5469">create(name,email,password)</text><rect fill="#E3E3E3" height="37.5547" rx="2.5" ry="2.5" style="stroke:#181818;stroke-width:0.5;" width="63" x="1918" y="560.2109"/><text fill="#000000" font-family="sans-serif" font-size="20" lengthAdjust="spacing" textLength="49" x="1925" y="586.5469">User:</text><line style="stroke:#181818;stroke-width:1.0;" x1="1582" x2="1629" y1="633.3203" y2="633.3203"/><line style="stroke:#181818;stroke-width:1.0;" x1="1629" x2="1629" y1="633.3203" y2="646.3203"/><line style="stroke:#181818;stroke-width:1.0;" x1="1588" x2="1629" y1="646.3203" y2="646.3203"/><polygon fill="#181818" points="1598,642.3203,1588,646.3203,1598,650.3203,1594,646.3203" style="stroke:#181818;stroke-width:1.0;"/><text fill="#000000" font-family="sans-serif" font-size="20" font-weight="bold" lengthAdjust="spacing" textLength="26" x="1594" y="627.1016">14</text><text fill="#000000" font-family="sans-serif" font-size="20" lengthAdjust="spacing" textLength="141" x="1624" y="627.1016">addUser (user)</text><line style="stroke:#181818;stroke-width:1.0;" x1="1587" x2="1629" y1="693.875" y2="693.875"/><line style="stroke:#181818;stroke-width:1.0;" x1="1629" x2="1629" y1="693.875" y2="706.875"/><line style="stroke:#181818;stroke-width:1.0;" x1="1582" x2="1629" y1="706.875" y2="706.875"/><polygon fill="#181818" points="1592,702.875,1582,706.875,1592,710.875,1588,706.875" style="stroke:#181818;stroke-width:1.0;"/><text fill="#000000" font-family="sans-serif" font-size="20" font-weight="bold" lengthAdjust="spacing" textLength="26" x="1594" y="687.6563">15</text><text fill="#000000" font-family="sans-serif" font-size="20" lengthAdjust="spacing" textLength="173" x="1624" y="687.6563">validateUser(user)</text><polygon fill="#181818" points="1084,735.4297,1074,739.4297,1084,743.4297,1080,739.4297" style="stroke:#181818;stroke-width:1.0;"/><line style="stroke:#181818;stroke-width:1.0;stroke-dasharray:2.0,2.0;" x1="1078" x2="1576" y1="739.4297" y2="739.4297"/><text fill="#000000" font-family="sans-serif" font-size="20" font-weight="bold" lengthAdjust="spacing" textLength="26" x="1090" y="733.2109">16</text><text fill="#000000" font-family="sans-serif" font-size="20" lengthAdjust="spacing" textLength="276" x="1120" y="733.2109">isUserRegisteredSuccessfully</text><path d="M10,754.4297 L82,754.4297 L82,769.9844 L72,779.9844 L10,779.9844 L10,754.4297 " fill="#EEEEEE" style="stroke:#000000;stroke-width:1.5;"/><rect fill="none" height="186.3281" style="stroke:#000000;stroke-width:1.5;" width="1186.5" x="10" y="754.4297"/><text fill="#000000" font-family="sans-serif" font-size="20" font-weight="bold" lengthAdjust="spacing" textLength="27" x="25" y="774.7656">alt</text><text fill="#000000" font-family="sans-serif" font-size="20" font-weight="bold" lengthAdjust="spacing" textLength="389" x="97" y="775.7656">[isUserRegisteredSuccessfully = true]</text><polygon fill="#181818" points="693,814.0938,683,818.0938,693,822.0938,689,818.0938" style="stroke:#181818;stroke-width:1.0;"/><line style="stroke:#181818;stroke-width:1.0;stroke-dasharray:2.0,2.0;" x1="687" x2="1062" y1="818.0938" y2="818.0938"/><text fill="#000000" font-family="sans-serif" font-size="20" font-weight="bold" lengthAdjust="spacing" textLength="26" x="699" y="811.875">17</text><text fill="#000000" font-family="sans-serif" font-size="20" lengthAdjust="spacing" textLength="198" x="729" y="811.875">registrationSuccess()</text><polygon fill="#181818" points="124,851.6484,114,855.6484,124,859.6484,120,855.6484" style="stroke:#181818;stroke-width:1.0;"/><line style="stroke:#181818;stroke-width:1.0;" x1="118" x2="671" y1="855.6484" y2="855.6484"/><text fill="#000000" font-family="sans-serif" font-size="20" font-weight="bold" lengthAdjust="spacing" textLength="26" x="130" y="849.4297">18</text><text fill="#000000" font-family="sans-serif" font-size="20" lengthAdjust="spacing" textLength="427" x="160" y="849.4297">Account successfuly registered in the system</text><line style="stroke:#000000;stroke-width:1.0;stroke-dasharray:2.0,2.0;" x1="10" x2="1196.5" y1="864.6484" y2="864.6484"/><polygon fill="#181818" points="693,891.2031,683,895.2031,693,899.2031,689,895.2031" style="stroke:#181818;stroke-width:1.0;"/><line style="stroke:#181818;stroke-width:1.0;stroke-dasharray:2.0,2.0;" x1="687" x2="1067" y1="895.2031" y2="895.2031"/><text fill="#000000" font-family="sans-serif" font-size="20" font-weight="bold" lengthAdjust="spacing" textLength="26" x="699" y="888.9844">19</text><text fill="#000000" font-family="sans-serif" font-size="20" lengthAdjust="spacing" textLength="182" x="729" y="888.9844">registrationFailed()</text><polygon fill="#181818" points="124,928.7578,114,932.7578,124,936.7578,120,932.7578" style="stroke:#181818;stroke-width:1.0;"/><line style="stroke:#181818;stroke-width:1.0;" x1="118" x2="676" y1="932.7578" y2="932.7578"/><text fill="#000000" font-family="sans-serif" font-size="20" font-weight="bold" lengthAdjust="spacing" textLength="26" x="130" y="926.5391">20</text><text fill="#000000" font-family="sans-serif" font-size="20" lengthAdjust="spacing" textLength="389" x="160" y="926.5391">Account already registered in the system</text><!--SRC=[dLLDZzem4BtxLuouB8iMjUenKf5Mg2iXzGJDRIzUPm0BnwQsizlqrzVE5tOI0jkS4dlyvitpcuavSNccckP2iHDcaE6U5iA-A6bt_2_2jw_4j26GAwdOKQiSmUe2WvqpPITwm9qj1O96PgayY33076ccFhWym9uAWuJGmYfPv6-e2NauyWnXhvHzKty8PLPfcALIuu4RYzhHAWpg6L03QKeSeEMCdwcqC4ksJL3g8j9D7REPY5cxohGIei5R_zh-74IVbU6E0qTJnNGBvOxxiXpn-8WEJhpA8O3RZmzu8XVKv5N62tKLqTBmVD954U8ru-_KejU7GFEaAInNJWr8NEJ9W5NGIWgqalGIUm7Oa8TkjKBPU1IlqsBXaDOQNHWPXFXCAIGQVnTeh4jsHCYefND9Stp2d781L6REASPyA9qzTWWPXib9ZxajptW7MlN5bDnpdPD-GJNcPhdoLIGGsY40V8gfTG2LHQeb_-Q9ZHZ2CJsWtKZZdCzm_ZWKTin5aOfZgCj6-WH2ZqN70lbkfcWBS60ruTXa0Us8klTlkE6FNvZrZ3hERPH6hms0csV6L27jit1DNswx_fzxi_xmbnGp36xvEebugpM17s1VwbbqXV4Tb7rdPTbr7v5xkCOLzPvUleR1Of40gnhnkdy_XnXUGrCILAgx8YRXxhc1_wFnJWLtFO-Ll3MLISHhLtShSsDayFwhzrhRxGh6q9Xz8KJPa-5Qid2OzQuvZAF2JcQ3x_KVTb18xSFbgfgDzJJNr78bczFpeKX-yFdH34rpWUaIbH3yOxcingmftNS-GC5-fqooUN5-T6qx91FeKytLcsIf6mKqco0QQJJoBsdvoupu9un8oJy0]--></g></svg>