<?xml version="1.0" encoding="UTF-8" standalone="no"?><svg xmlns="http://www.w3.org/2000/svg" xmlns:xlink="http://www.w3.org/1999/xlink" contentStyleType="text/css" height="1309px" preserveAspectRatio="none" style="width:1791px;height:1309px;background:#FFFFFF;" version="1.1" viewBox="0 0 1791 1309" width="1791px" zoomAndPan="magnify"><defs/><g><!--class ctrl--><g id="elem_ctrl"><rect codeLine="11" fill="#F1F1F1" height="144.2188" id="ctrl" rx="2.5" ry="2.5" style="stroke:#181818;stroke-width:0.5;" width="274" x="29" y="224"/><ellipse cx="45" cy="241" fill="#ADD1B2" rx="12" ry="12" style="stroke:#181818;stroke-width:1.0;"/><path d="M47.8066,248.0801 Q47.123,248.4316 46.3711,248.6074 Q45.6191,248.7832 44.7891,248.7832 Q41.8398,248.7832 40.2871,246.8398 Q38.7344,244.8965 38.7344,241.2246 Q38.7344,237.543 40.2871,235.5996 Q41.8398,233.6563 44.7891,233.6563 Q45.6191,233.6563 46.3809,233.832 Q47.1426,234.0078 47.8066,234.3594 L47.8066,237.5625 Q47.0645,236.8789 46.3662,236.5615 Q45.668,236.2441 44.9258,236.2441 Q43.3438,236.2441 42.5381,237.499 Q41.7324,238.7539 41.7324,241.2246 Q41.7324,243.6855 42.5381,244.9404 Q43.3438,246.1953 44.9258,246.1953 Q45.668,246.1953 46.3662,245.8779 Q47.0645,245.5605 47.8066,244.877 Z " fill="#000000"/><text fill="#000000" font-family="sans-serif" font-size="20" lengthAdjust="spacing" textLength="240" x="60" y="248.5586">AnnouncementController</text><line style="stroke:#181818;stroke-width:0.5;" x1="30" x2="302" y1="258" y2="258"/><line style="stroke:#181818;stroke-width:0.5;" x1="30" x2="302" y1="266" y2="266"/><text fill="#000000" font-family="sans-serif" font-size="20" lengthAdjust="spacing" textLength="207" x="35" y="289.3359">+createVisitRequest()</text><text fill="#000000" font-family="sans-serif" font-size="20" lengthAdjust="spacing" textLength="174" x="35" y="312.8906">+getPropertyList()</text><text fill="#000000" font-family="sans-serif" font-size="20" lengthAdjust="spacing" textLength="113" x="35" y="336.4453">+getEmail()</text><text fill="#000000" font-family="sans-serif" font-size="20" lengthAdjust="spacing" textLength="159" x="35" y="360">+getUserName()</text></g><!--class repo--><g id="elem_repo"><rect codeLine="18" fill="#F1F1F1" height="97.1094" id="repo" rx="2.5" ry="2.5" style="stroke:#181818;stroke-width:0.5;" width="275" x="697.5" y="629.5"/><ellipse cx="713.5" cy="646.5" fill="#ADD1B2" rx="12" ry="12" style="stroke:#181818;stroke-width:1.0;"/><path d="M716.3066,653.5801 Q715.623,653.9316 714.8711,654.1074 Q714.1191,654.2832 713.2891,654.2832 Q710.3398,654.2832 708.7871,652.3398 Q707.2344,650.3965 707.2344,646.7246 Q707.2344,643.043 708.7871,641.0996 Q710.3398,639.1563 713.2891,639.1563 Q714.1191,639.1563 714.8809,639.332 Q715.6426,639.5078 716.3066,639.8594 L716.3066,643.0625 Q715.5645,642.3789 714.8662,642.0615 Q714.168,641.7441 713.4258,641.7441 Q711.8438,641.7441 711.0381,642.999 Q710.2324,644.2539 710.2324,646.7246 Q710.2324,649.1855 711.0381,650.4404 Q711.8438,651.6953 713.4258,651.6953 Q714.168,651.6953 714.8662,651.3779 Q715.5645,651.0605 716.3066,650.377 Z " fill="#000000"/><text fill="#000000" font-family="sans-serif" font-size="20" lengthAdjust="spacing" textLength="241" x="728.5" y="654.0586">AuthenticationRepository</text><line style="stroke:#181818;stroke-width:0.5;" x1="698.5" x2="971.5" y1="663.5" y2="663.5"/><line style="stroke:#181818;stroke-width:0.5;" x1="698.5" x2="971.5" y1="671.5" y2="671.5"/><text fill="#000000" font-family="sans-serif" font-size="20" lengthAdjust="spacing" textLength="139" x="703.5" y="694.8359">+getInstance()</text><text fill="#000000" font-family="sans-serif" font-size="20" lengthAdjust="spacing" textLength="204" x="703.5" y="718.3906">+getCurrentSession()</text></g><!--class userSession--><g id="elem_userSession"><rect codeLine="23" fill="#F1F1F1" height="73.5547" id="userSession" rx="2.5" ry="2.5" style="stroke:#181818;stroke-width:0.5;" width="149" x="760.5" y="940.5"/><ellipse cx="776.5" cy="957.5" fill="#ADD1B2" rx="12" ry="12" style="stroke:#181818;stroke-width:1.0;"/><path d="M779.3066,964.5801 Q778.623,964.9316 777.8711,965.1074 Q777.1191,965.2832 776.2891,965.2832 Q773.3398,965.2832 771.7871,963.3398 Q770.2344,961.3965 770.2344,957.7246 Q770.2344,954.043 771.7871,952.0996 Q773.3398,950.1563 776.2891,950.1563 Q777.1191,950.1563 777.8809,950.332 Q778.6426,950.5078 779.3066,950.8594 L779.3066,954.0625 Q778.5645,953.3789 777.8662,953.0615 Q777.168,952.7441 776.4258,952.7441 Q774.8438,952.7441 774.0381,953.999 Q773.2324,955.2539 773.2324,957.7246 Q773.2324,960.1855 774.0381,961.4404 Q774.8438,962.6953 776.4258,962.6953 Q777.168,962.6953 777.8662,962.3779 Q778.5645,962.0605 779.3066,961.377 Z " fill="#000000"/><text fill="#000000" font-family="sans-serif" font-size="20" lengthAdjust="spacing" textLength="115" x="791.5" y="965.0586">UserSession</text><line style="stroke:#181818;stroke-width:0.5;" x1="761.5" x2="908.5" y1="974.5" y2="974.5"/><line style="stroke:#181818;stroke-width:0.5;" x1="761.5" x2="908.5" y1="982.5" y2="982.5"/><text fill="#000000" font-family="sans-serif" font-size="20" lengthAdjust="spacing" textLength="122" x="766.5" y="1005.8359">+getUserId()</text></g><!--class facade--><g id="elem_facade"><rect codeLine="27" fill="#F1F1F1" height="73.5547" id="facade" rx="2.5" ry="2.5" style="stroke:#181818;stroke-width:0.5;" width="259" x="944.5" y="940.5"/><ellipse cx="969.05" cy="957.5" fill="#ADD1B2" rx="12" ry="12" style="stroke:#181818;stroke-width:1.0;"/><path d="M971.8566,964.5801 Q971.173,964.9316 970.4211,965.1074 Q969.6691,965.2832 968.8391,965.2832 Q965.8898,965.2832 964.3371,963.3398 Q962.7844,961.3965 962.7844,957.7246 Q962.7844,954.043 964.3371,952.0996 Q965.8898,950.1563 968.8391,950.1563 Q969.6691,950.1563 970.4309,950.332 Q971.1926,950.5078 971.8566,950.8594 L971.8566,954.0625 Q971.1145,953.3789 970.4162,953.0615 Q969.718,952.7441 968.9758,952.7441 Q967.3938,952.7441 966.5881,953.999 Q965.7824,955.2539 965.7824,957.7246 Q965.7824,960.1855 966.5881,961.4404 Q967.3938,962.6953 968.9758,962.6953 Q969.718,962.6953 970.4162,962.3779 Q971.1145,962.0605 971.8566,961.377 Z " fill="#000000"/><text fill="#000000" font-family="sans-serif" font-size="20" lengthAdjust="spacing" textLength="206" x="985.95" y="965.0586">AuthenticationFacade</text><line style="stroke:#181818;stroke-width:0.5;" x1="945.5" x2="1202.5" y1="974.5" y2="974.5"/><line style="stroke:#181818;stroke-width:0.5;" x1="945.5" x2="1202.5" y1="982.5" y2="982.5"/><text fill="#000000" font-family="sans-serif" font-size="20" lengthAdjust="spacing" textLength="247" x="950.5" y="1005.8359">+getCurrentUserSession()</text></g><!--class repo2--><g id="elem_repo2"><rect codeLine="31" fill="#F1F1F1" height="167.7734" id="repo2" rx="2.5" ry="2.5" style="stroke:#181818;stroke-width:0.5;" width="396" x="1388" y="212"/><ellipse cx="1458.5" cy="229" fill="#ADD1B2" rx="12" ry="12" style="stroke:#181818;stroke-width:1.0;"/><path d="M1461.3066,236.0801 Q1460.623,236.4316 1459.8711,236.6074 Q1459.1191,236.7832 1458.2891,236.7832 Q1455.3398,236.7832 1453.7871,234.8398 Q1452.2344,232.8965 1452.2344,229.2246 Q1452.2344,225.543 1453.7871,223.5996 Q1455.3398,221.6563 1458.2891,221.6563 Q1459.1191,221.6563 1459.8809,221.832 Q1460.6426,222.0078 1461.3066,222.3594 L1461.3066,225.5625 Q1460.5645,224.8789 1459.8662,224.5615 Q1459.168,224.2441 1458.4258,224.2441 Q1456.8438,224.2441 1456.0381,225.499 Q1455.2324,226.7539 1455.2324,229.2246 Q1455.2324,231.6855 1456.0381,232.9404 Q1456.8438,234.1953 1458.4258,234.1953 Q1459.168,234.1953 1459.8662,233.8779 Q1460.5645,233.5605 1461.3066,232.877 Z " fill="#000000"/><text fill="#000000" font-family="sans-serif" font-size="20" lengthAdjust="spacing" textLength="246" x="1480.5" y="236.5586">AnnouncementRepository</text><line style="stroke:#181818;stroke-width:0.5;" x1="1389" x2="1783" y1="246" y2="246"/><line style="stroke:#181818;stroke-width:0.5;" x1="1389" x2="1783" y1="254" y2="254"/><text fill="#000000" font-family="sans-serif" font-size="20" lengthAdjust="spacing" textLength="384" x="1394" y="277.3359">+getPropertyList(business, type, rooms)</text><text fill="#000000" font-family="sans-serif" font-size="20" lengthAdjust="spacing" textLength="283" x="1394" y="300.8906">+sortByPriceAsc(PropertyList)</text><text fill="#000000" font-family="sans-serif" font-size="20" lengthAdjust="spacing" textLength="295" x="1394" y="324.4453">+sortByPriceDesc(PropertyList)</text><text fill="#000000" font-family="sans-serif" font-size="20" lengthAdjust="spacing" textLength="307" x="1394" y="348">+sortByPriceParish(PropertyList)</text><text fill="#000000" font-family="sans-serif" font-size="20" lengthAdjust="spacing" textLength="267" x="1394" y="371.5547">+sortByRecent(PropertyList)</text></g><!--class announcement--><g id="elem_announcement"><rect codeLine="39" fill="#F1F1F1" height="285.5469" id="announcement" rx="2.5" ry="2.5" style="stroke:#181818;stroke-width:0.5;" width="379" x="1352.5" y="535"/><ellipse cx="1465.5" cy="552" fill="#ADD1B2" rx="12" ry="12" style="stroke:#181818;stroke-width:1.0;"/><path d="M1468.3066,559.0801 Q1467.623,559.4316 1466.8711,559.6074 Q1466.1191,559.7832 1465.2891,559.7832 Q1462.3398,559.7832 1460.7871,557.8398 Q1459.2344,555.8965 1459.2344,552.2246 Q1459.2344,548.543 1460.7871,546.5996 Q1462.3398,544.6563 1465.2891,544.6563 Q1466.1191,544.6563 1466.8809,544.832 Q1467.6426,545.0078 1468.3066,545.3594 L1468.3066,548.5625 Q1467.5645,547.8789 1466.8662,547.5615 Q1466.168,547.2441 1465.4258,547.2441 Q1463.8438,547.2441 1463.0381,548.499 Q1462.2324,549.7539 1462.2324,552.2246 Q1462.2324,554.6855 1463.0381,555.9404 Q1463.8438,557.1953 1465.4258,557.1953 Q1466.168,557.1953 1466.8662,556.8779 Q1467.5645,556.5605 1468.3066,555.877 Z " fill="#000000"/><text fill="#000000" font-family="sans-serif" font-size="20" lengthAdjust="spacing" textLength="144" x="1487.5" y="559.5586">Announcement</text><line style="stroke:#181818;stroke-width:0.5;" x1="1353.5" x2="1730.5" y1="569" y2="569"/><text fill="#000000" font-family="sans-serif" font-size="20" lengthAdjust="spacing" textLength="62" x="1358.5" y="592.3359">-Int id</text><text fill="#000000" font-family="sans-serif" font-size="20" lengthAdjust="spacing" textLength="104" x="1358.5" y="615.8906">-Date date</text><text fill="#000000" font-family="sans-serif" font-size="20" lengthAdjust="spacing" textLength="184" x="1358.5" y="639.4453">-Double comission</text><text fill="#000000" font-family="sans-serif" font-size="20" lengthAdjust="spacing" textLength="135" x="1358.5" y="663">-Double price</text><text fill="#000000" font-family="sans-serif" font-size="20" lengthAdjust="spacing" textLength="212" x="1358.5" y="686.5547">-Property PropertyList</text><text fill="#000000" font-family="sans-serif" font-size="20" lengthAdjust="spacing" textLength="127" x="1358.5" y="710.1094">-Agent agent</text><text fill="#000000" font-family="sans-serif" font-size="20" lengthAdjust="spacing" textLength="197" x="1358.5" y="733.6641">-List&lt;VisitRequest&gt;</text><line style="stroke:#181818;stroke-width:0.5;" x1="1353.5" x2="1730.5" y1="741.8828" y2="741.8828"/><text fill="#000000" font-family="sans-serif" font-size="20" lengthAdjust="spacing" textLength="367" x="1358.5" y="765.2188">+createVisitRequest(visitRequestDTO)</text><text fill="#000000" font-family="sans-serif" font-size="20" lengthAdjust="spacing" textLength="302" x="1358.5" y="788.7734">+addVisitRequest(visitRequest)</text><text fill="#000000" font-family="sans-serif" font-size="20" lengthAdjust="spacing" textLength="336" x="1358.5" y="812.3281">-validateVisitRequest(visitRequest)</text></g><!--class AnnouncementUI--><g id="elem_AnnouncementUI"><rect codeLine="52" fill="#F1F1F1" height="50" id="AnnouncementUI" rx="2.5" ry="2.5" style="stroke:#181818;stroke-width:0.5;" width="198" x="67" y="7"/><ellipse cx="83" cy="24" fill="#ADD1B2" rx="12" ry="12" style="stroke:#181818;stroke-width:1.0;"/><path d="M85.8066,31.0801 Q85.123,31.4316 84.3711,31.6074 Q83.6191,31.7832 82.7891,31.7832 Q79.8398,31.7832 78.2871,29.8398 Q76.7344,27.8965 76.7344,24.2246 Q76.7344,20.543 78.2871,18.5996 Q79.8398,16.6563 82.7891,16.6563 Q83.6191,16.6563 84.3809,16.832 Q85.1426,17.0078 85.8066,17.3594 L85.8066,20.5625 Q85.0645,19.8789 84.3662,19.5615 Q83.668,19.2441 82.9258,19.2441 Q81.3438,19.2441 80.5381,20.499 Q79.7324,21.7539 79.7324,24.2246 Q79.7324,26.6855 80.5381,27.9404 Q81.3438,29.1953 82.9258,29.1953 Q83.668,29.1953 84.3662,28.8779 Q85.0645,28.5605 85.8066,27.877 Z " fill="#000000"/><text fill="#000000" font-family="sans-serif" font-size="20" lengthAdjust="spacing" textLength="164" x="98" y="31.5586">AnnouncementUI</text><line style="stroke:#181818;stroke-width:0.5;" x1="68" x2="264" y1="41" y2="41"/><line style="stroke:#181818;stroke-width:0.5;" x1="68" x2="264" y1="49" y2="49"/></g><!--class Repositories--><g id="elem_Repositories"><rect codeLine="55" fill="#F1F1F1" height="120.6641" id="Repositories" rx="2.5" ry="2.5" style="stroke:#181818;stroke-width:0.5;" width="318" x="7" y="617.5"/><ellipse cx="102" cy="634.5" fill="#ADD1B2" rx="12" ry="12" style="stroke:#181818;stroke-width:1.0;"/><path d="M104.8066,641.5801 Q104.123,641.9316 103.3711,642.1074 Q102.6191,642.2832 101.7891,642.2832 Q98.8398,642.2832 97.2871,640.3398 Q95.7344,638.3965 95.7344,634.7246 Q95.7344,631.043 97.2871,629.0996 Q98.8398,627.1563 101.7891,627.1563 Q102.6191,627.1563 103.3809,627.332 Q104.1426,627.5078 104.8066,627.8594 L104.8066,631.0625 Q104.0645,630.3789 103.3662,630.0615 Q102.668,629.7441 101.9258,629.7441 Q100.3438,629.7441 99.5381,630.999 Q98.7324,632.2539 98.7324,634.7246 Q98.7324,637.1855 99.5381,638.4404 Q100.3438,639.6953 101.9258,639.6953 Q102.668,639.6953 103.3662,639.3779 Q104.0645,639.0605 104.8066,638.377 Z " fill="#000000"/><text fill="#000000" font-family="sans-serif" font-size="20" lengthAdjust="spacing" textLength="119" x="124" y="642.0586">Repositories</text><line style="stroke:#181818;stroke-width:0.5;" x1="8" x2="324" y1="651.5" y2="651.5"/><line style="stroke:#181818;stroke-width:0.5;" x1="8" x2="324" y1="659.5" y2="659.5"/><text fill="#000000" font-family="sans-serif" font-size="20" lengthAdjust="spacing" textLength="145" x="13" y="682.8359">-Repositories()</text><text fill="#000000" font-family="sans-serif" font-size="20" lengthAdjust="spacing" textLength="276" x="13" y="706.3906">+getInstance() : Repositories</text><text fill="#000000" font-family="sans-serif" font-size="20" lengthAdjust="spacing" textLength="306" x="13" y="729.9453">+getAnnouncementRepository()</text></g><!--class aMapper--><g id="elem_aMapper"><rect codeLine="75" fill="#F1F1F1" height="97.1094" id="aMapper" rx="2.5" ry="2.5" style="stroke:#181818;stroke-width:0.5;" width="361" x="338.5" y="247.5"/><ellipse cx="406" cy="264.5" fill="#ADD1B2" rx="12" ry="12" style="stroke:#181818;stroke-width:1.0;"/><path d="M408.8066,271.5801 Q408.123,271.9316 407.3711,272.1074 Q406.6191,272.2832 405.7891,272.2832 Q402.8398,272.2832 401.2871,270.3398 Q399.7344,268.3965 399.7344,264.7246 Q399.7344,261.043 401.2871,259.0996 Q402.8398,257.1563 405.7891,257.1563 Q406.6191,257.1563 407.3809,257.332 Q408.1426,257.5078 408.8066,257.8594 L408.8066,261.0625 Q408.0645,260.3789 407.3662,260.0615 Q406.668,259.7441 405.9258,259.7441 Q404.3438,259.7441 403.5381,260.999 Q402.7324,262.2539 402.7324,264.7246 Q402.7324,267.1855 403.5381,268.4404 Q404.3438,269.6953 405.9258,269.6953 Q406.668,269.6953 407.3662,269.3779 Q408.0645,269.0605 408.8066,268.377 Z " fill="#000000"/><text fill="#000000" font-family="sans-serif" font-size="20" lengthAdjust="spacing" textLength="217" x="428" y="272.0586">AnnouncementMapper</text><line style="stroke:#181818;stroke-width:0.5;" x1="339.5" x2="698.5" y1="281.5" y2="281.5"/><line style="stroke:#181818;stroke-width:0.5;" x1="339.5" x2="698.5" y1="289.5" y2="289.5"/><text fill="#000000" font-family="sans-serif" font-size="20" lengthAdjust="spacing" textLength="349" x="344.5" y="312.8359">+toDto(ListAnnouncementAvailable)</text><text fill="#000000" font-family="sans-serif" font-size="20" lengthAdjust="spacing" textLength="315" x="344.5" y="336.3906">+toDto(AnnouncementAvailable)</text></g><!--class aDTO--><g id="elem_aDTO"><rect codeLine="79" fill="#F1F1F1" height="356.2109" id="aDTO" rx="2.5" ry="2.5" style="stroke:#181818;stroke-width:0.5;" width="618" x="735" y="118"/><ellipse cx="945.5" cy="135" fill="#ADD1B2" rx="12" ry="12" style="stroke:#181818;stroke-width:1.0;"/><path d="M948.3066,142.0801 Q947.623,142.4316 946.8711,142.6074 Q946.1191,142.7832 945.2891,142.7832 Q942.3398,142.7832 940.7871,140.8398 Q939.2344,138.8965 939.2344,135.2246 Q939.2344,131.543 940.7871,129.5996 Q942.3398,127.6563 945.2891,127.6563 Q946.1191,127.6563 946.8809,127.832 Q947.6426,128.0078 948.3066,128.3594 L948.3066,131.5625 Q947.5645,130.8789 946.8662,130.5615 Q946.168,130.2441 945.4258,130.2441 Q943.8438,130.2441 943.0381,131.499 Q942.2324,132.7539 942.2324,135.2246 Q942.2324,137.6855 943.0381,138.9404 Q943.8438,140.1953 945.4258,140.1953 Q946.168,140.1953 946.8662,139.8779 Q947.5645,139.5605 948.3066,138.877 Z " fill="#000000"/><text fill="#000000" font-family="sans-serif" font-size="20" lengthAdjust="spacing" textLength="188" x="967.5" y="142.5586">AnnouncementDTO</text><line style="stroke:#181818;stroke-width:0.5;" x1="736" x2="1352" y1="152" y2="152"/><text fill="#000000" font-family="sans-serif" font-size="20" lengthAdjust="spacing" textLength="128" x="741" y="175.3359">private int id;</text><text fill="#000000" font-family="sans-serif" font-size="20" lengthAdjust="spacing" textLength="188" x="741" y="198.8906">-double comission;</text><text fill="#000000" font-family="sans-serif" font-size="20" lengthAdjust="spacing" textLength="139" x="741" y="222.4453">-double price;</text><text fill="#000000" font-family="sans-serif" font-size="20" lengthAdjust="spacing" textLength="110" x="741" y="246">-Date date;</text><text fill="#000000" font-family="sans-serif" font-size="20" lengthAdjust="spacing" textLength="211" x="741" y="269.5547">-String businessType;</text><text fill="#000000" font-family="sans-serif" font-size="20" lengthAdjust="spacing" textLength="230" x="741" y="293.1094">-PropertyDTO property;</text><text fill="#000000" font-family="sans-serif" font-size="20" lengthAdjust="spacing" textLength="177" x="741" y="316.6641">-AgentDTO agent;</text><text fill="#000000" font-family="sans-serif" font-size="20" lengthAdjust="spacing" textLength="251" x="741" y="340.2188">-Integer contractDuration;</text><text fill="#000000" font-family="sans-serif" font-size="20" lengthAdjust="spacing" textLength="177" x="741" y="363.7734">-Double salePrice;</text><text fill="#000000" font-family="sans-serif" font-size="20" lengthAdjust="spacing" textLength="150" x="741" y="387.3281">-Date saleDate;</text><text fill="#000000" font-family="sans-serif" font-size="20" lengthAdjust="spacing" textLength="203" x="741" y="410.8828">-AgencyDTO agency;</text><line style="stroke:#181818;stroke-width:0.5;" x1="736" x2="1352" y1="419.1016" y2="419.1016"/><text fill="#000000" font-family="sans-serif" font-size="20" lengthAdjust="spacing" textLength="606" x="741" y="442.4375">-List&lt;VisitRequestDTO&gt; visitRequestList = new ArrayList&lt;&gt;();</text><text fill="#000000" font-family="sans-serif" font-size="20" lengthAdjust="spacing" textLength="479" x="741" y="465.9922">-List&lt;OrderDTO&gt; orderList = new ArrayList&lt;&gt;();</text></g><!--class UU--><g id="elem_UU"><rect codeLine="97" fill="#F1F1F1" height="144.2188" id="UU" rx="2.5" ry="2.5" style="stroke:#181818;stroke-width:0.5;" width="185" x="1002.5" y="1158"/><ellipse cx="1018.5" cy="1175" fill="#ADD1B2" rx="12" ry="12" style="stroke:#181818;stroke-width:1.0;"/><path d="M1021.3066,1182.0801 Q1020.623,1182.4316 1019.8711,1182.6074 Q1019.1191,1182.7832 1018.2891,1182.7832 Q1015.3398,1182.7832 1013.7871,1180.8398 Q1012.2344,1178.8965 1012.2344,1175.2246 Q1012.2344,1171.543 1013.7871,1169.5996 Q1015.3398,1167.6563 1018.2891,1167.6563 Q1019.1191,1167.6563 1019.8809,1167.832 Q1020.6426,1168.0078 1021.3066,1168.3594 L1021.3066,1171.5625 Q1020.5645,1170.8789 1019.8662,1170.5615 Q1019.168,1170.2441 1018.4258,1170.2441 Q1016.8438,1170.2441 1016.0381,1171.499 Q1015.2324,1172.7539 1015.2324,1175.2246 Q1015.2324,1177.6855 1016.0381,1178.9404 Q1016.8438,1180.1953 1018.4258,1180.1953 Q1019.168,1180.1953 1019.8662,1179.8779 Q1020.5645,1179.5605 1021.3066,1178.877 Z " fill="#000000"/><text fill="#000000" font-family="sans-serif" font-size="20" lengthAdjust="spacing" textLength="151" x="1033.5" y="1182.5586">Registered User</text><line style="stroke:#181818;stroke-width:0.5;" x1="1003.5" x2="1186.5" y1="1192" y2="1192"/><text fill="#000000" font-family="sans-serif" font-size="20" lengthAdjust="spacing" textLength="31" x="1008.5" y="1215.3359">-id</text><text fill="#000000" font-family="sans-serif" font-size="20" lengthAdjust="spacing" textLength="150" x="1008.5" y="1238.8906">-phoneNumber</text><text fill="#000000" font-family="sans-serif" font-size="20" lengthAdjust="spacing" textLength="65" x="1008.5" y="1262.4453">-email</text><text fill="#000000" font-family="sans-serif" font-size="20" lengthAdjust="spacing" textLength="65" x="1008.5" y="1286">-name</text><line style="stroke:#181818;stroke-width:0.5;" x1="1003.5" x2="1186.5" y1="1294.2188" y2="1294.2188"/></g><!--class visitRequest--><g id="elem_visitRequest"><rect codeLine="103" fill="#F1F1F1" height="191.3281" id="visitRequest" rx="2.5" ry="2.5" style="stroke:#181818;stroke-width:0.5;" width="237" x="1295.5" y="882"/><ellipse cx="1350" cy="899" fill="#ADD1B2" rx="12" ry="12" style="stroke:#181818;stroke-width:1.0;"/><path d="M1352.8066,906.0801 Q1352.123,906.4316 1351.3711,906.6074 Q1350.6191,906.7832 1349.7891,906.7832 Q1346.8398,906.7832 1345.2871,904.8398 Q1343.7344,902.8965 1343.7344,899.2246 Q1343.7344,895.543 1345.2871,893.5996 Q1346.8398,891.6563 1349.7891,891.6563 Q1350.6191,891.6563 1351.3809,891.832 Q1352.1426,892.0078 1352.8066,892.3594 L1352.8066,895.5625 Q1352.0645,894.8789 1351.3662,894.5615 Q1350.668,894.2441 1349.9258,894.2441 Q1348.3438,894.2441 1347.5381,895.499 Q1346.7324,896.7539 1346.7324,899.2246 Q1346.7324,901.6855 1347.5381,902.9404 Q1348.3438,904.1953 1349.9258,904.1953 Q1350.668,904.1953 1351.3662,903.8779 Q1352.0645,903.5605 1352.8066,902.877 Z " fill="#000000"/><text fill="#000000" font-family="sans-serif" font-size="20" lengthAdjust="spacing" textLength="119" x="1372" y="906.5586">VisitRequest</text><line style="stroke:#181818;stroke-width:0.5;" x1="1296.5" x2="1531.5" y1="916" y2="916"/><text fill="#000000" font-family="sans-serif" font-size="20" lengthAdjust="spacing" textLength="122" x="1301.5" y="939.3359">-String date;</text><text fill="#000000" font-family="sans-serif" font-size="20" lengthAdjust="spacing" textLength="137" x="1301.5" y="962.8906">-String status;</text><text fill="#000000" font-family="sans-serif" font-size="20" lengthAdjust="spacing" textLength="225" x="1301.5" y="986.4453">-List&lt;String&gt; timeSlot;</text><text fill="#000000" font-family="sans-serif" font-size="20" lengthAdjust="spacing" textLength="177" x="1301.5" y="1010">-String userName;</text><text fill="#000000" font-family="sans-serif" font-size="20" lengthAdjust="spacing" textLength="133" x="1301.5" y="1033.5547">-String email;</text><text fill="#000000" font-family="sans-serif" font-size="20" lengthAdjust="spacing" textLength="133" x="1301.5" y="1057.1094">-Agent agent;</text><line style="stroke:#181818;stroke-width:0.5;" x1="1296.5" x2="1531.5" y1="1065.3281" y2="1065.3281"/></g><!--link ctrl to repo2--><g id="link_ctrl_repo2"><path codeLine="116" d="M225.61,223.95 C275.47,163.69 338.5,87.5 338.5,87.5 C338.5,87.5 1353.5,87.5 1353.5,87.5 C1353.5,87.5 1424.71,151.36 1488.31,208.4 " fill="none" id="ctrl-to-repo2" style="stroke:#181818;stroke-width:1.0;stroke-dasharray:7.0,7.0;"/><polygon fill="#181818" points="1492.1,211.8,1488.0691,202.8138,1488.3772,208.4623,1482.7287,208.7704,1492.1,211.8" style="stroke:#181818;stroke-width:1.0;"/></g><!--link ctrl to Repositories--><g id="link_ctrl_Repositories"><path codeLine="117" d="M166,368.03 C166,438.06 166,544.17 166,612.03 " fill="none" id="ctrl-to-Repositories" style="stroke:#181818;stroke-width:1.0;stroke-dasharray:7.0,7.0;"/><polygon fill="#181818" points="166,617.25,170,608.25,166,612.25,162,608.25,166,617.25" style="stroke:#181818;stroke-width:1.0;"/></g><!--link ctrl to repo--><g id="link_ctrl_repo"><path codeLine="118" d="M228.37,368.23 C271.44,417.41 321,474 321,474 C321,474 557.4,567.37 709.56,627.46 " fill="none" id="ctrl-to-repo" style="stroke:#181818;stroke-width:1.0;stroke-dasharray:7.0,7.0;"/><polygon fill="#181818" points="714.49,629.41,707.5745,622.3974,709.8359,627.5826,704.6507,629.844,714.49,629.41" style="stroke:#181818;stroke-width:1.0;"/></g><!--link repo to facade--><g id="link_repo_facade"><path codeLine="119" d="M873.4,726.8 C919.95,784.75 997.6,881.4 1041.38,935.9 " fill="none" id="repo-to-facade" style="stroke:#181818;stroke-width:1.0;stroke-dasharray:7.0,7.0;"/><polygon fill="#181818" points="1044.74,940.07,1042.2285,930.5468,1041.6113,936.1698,1035.9882,935.5527,1044.74,940.07" style="stroke:#181818;stroke-width:1.0;"/></g><!--reverse link repo to userSession--><g id="link_repo_userSession"><path codeLine="120" d="M835,739.91 C835,800.12 835,890.23 835,940.07 " fill="none" id="repo-backto-userSession" style="stroke:#181818;stroke-width:1.0;"/><polygon fill="none" points="835,726.8,831,732.8,835,738.8,839,732.8,835,726.8" style="stroke:#181818;stroke-width:1.0;"/></g><!--reverse link announcement to visitRequest--><g id="link_announcement_visitRequest"><path codeLine="121" d="M1475.61,833.3 C1468.47,849.9 1461.37,866.4 1454.67,881.98 " fill="none" id="announcement-backto-visitRequest" style="stroke:#181818;stroke-width:1.0;"/><polygon fill="none" points="1480.81,821.22,1474.7671,825.1548,1476.075,832.2463,1482.1179,828.3115,1480.81,821.22" style="stroke:#181818;stroke-width:1.0;"/></g><!--reverse link repo2 to announcement--><g id="link_repo2_announcement"><path codeLine="122" d="M1574.84,393.41 C1569.87,436.29 1563.93,487.63 1558.47,534.78 " fill="none" id="repo2-backto-announcement" style="stroke:#181818;stroke-width:1.0;"/><polygon fill="none" points="1576.34,380.39,1571.6745,385.8884,1574.9555,392.3099,1579.621,386.8114,1576.34,380.39" style="stroke:#181818;stroke-width:1.0;"/></g><!--reverse link userSession to UU--><g id="link_userSession_UU"><path codeLine="123" d="M873.98,1018.54 C899.07,1044.31 927,1073 927,1073 C927,1073 974.07,1116.7 1018.37,1157.85 " fill="none" id="userSession-backto-UU" style="stroke:#181818;stroke-width:1.0;"/><polygon fill="#181818" points="870.31,1014.77,873.7152,1024.0115,873.7952,1018.3552,879.4515,1018.4352,870.31,1014.77" style="stroke:#181818;stroke-width:1.0;"/><text fill="#000000" font-family="sans-serif" font-size="20" lengthAdjust="spacing" textLength="33" x="987" y="1123.3359">has</text></g><!--link Repositories to Repositories--><g id="link_Repositories_Repositories"><path codeLine="126" d="M325.08,649.31 C346.08,654.21 360,663.77 360,678 C360,691.01 348.37,700.12 330.33,705.32 " fill="none" id="Repositories-to-Repositories" style="stroke:#181818;stroke-width:1.0;"/><polygon fill="#181818" points="325.08,706.69,334.7975,708.2934,329.9187,705.4302,332.7818,700.5514,325.08,706.69" style="stroke:#181818;stroke-width:1.0;"/><text fill="#000000" font-family="sans-serif" font-size="20" lengthAdjust="spacing" textLength="79" x="366" y="685.8359">instance</text></g><!--link AnnouncementUI to ctrl--><g id="link_AnnouncementUI_ctrl"><path codeLine="127" d="M166,57.18 C166,93.5 166,163.74 166,218.5 " fill="none" id="AnnouncementUI-to-ctrl" style="stroke:#181818;stroke-width:1.0;stroke-dasharray:7.0,7.0;"/><polygon fill="#181818" points="166,223.75,170,214.75,166,218.75,162,214.75,166,223.75" style="stroke:#181818;stroke-width:1.0;"/></g><!--link visitRequest to UU--><g id="link_visitRequest_UU"><path codeLine="128" d="M1295.22,1071.78 C1260.32,1099.18 1222.64,1128.77 1189.48,1154.81 " fill="none" id="visitRequest-to-UU" style="stroke:#181818;stroke-width:1.0;"/><polygon fill="#181818" points="1185.46,1157.97,1195.0085,1155.5564,1189.3921,1154.8815,1190.067,1149.2651,1185.46,1157.97" style="stroke:#181818;stroke-width:1.0;"/><text fill="#000000" font-family="sans-serif" font-size="20" lengthAdjust="spacing" textLength="83" x="1255" y="1123.3359">made by</text></g><!--link ctrl to aMapper--><g id="link_ctrl_aMapper"><path codeLine="129" d="M303.1,296 C311.64,296 322.25,296 333.29,296 " fill="none" id="ctrl-to-aMapper" style="stroke:#181818;stroke-width:1.0;stroke-dasharray:7.0,7.0;"/><polygon fill="#181818" points="338.39,296,329.39,292,333.39,296,329.39,300,338.39,296" style="stroke:#181818;stroke-width:1.0;"/></g><!--link ctrl to aDTO--><g id="link_ctrl_aDTO"><path codeLine="130" d="M225.61,223.95 C275.47,163.69 338.5,87.5 338.5,87.5 C338.5,87.5 699.5,87.5 699.5,87.5 C699.5,87.5 717.41,98.34 745.07,115.08 " fill="none" id="ctrl-to-aDTO" style="stroke:#181818;stroke-width:1.0;stroke-dasharray:7.0,7.0;"/><polygon fill="#181818" points="749.59,117.82,743.9503,109.7457,745.3088,115.237,739.8175,116.5956,749.59,117.82" style="stroke:#181818;stroke-width:1.0;"/></g><!--link aMapper to aDTO--><g id="link_aMapper_aDTO"><path codeLine="131" d="M699.82,296 C705.95,296 716.49,296 729.41,296 " fill="none" id="aMapper-to-aDTO" style="stroke:#181818;stroke-width:1.0;stroke-dasharray:7.0,7.0;"/><polygon fill="#181818" points="734.68,296,725.68,292,729.68,296,725.68,300,734.68,296" style="stroke:#181818;stroke-width:1.0;"/></g><!--SRC=[XLR9Rjim4BtpAmQzs46hfkYnIGsuTGiOw1B4IUyqDRQ9IA9AKYxK8F_UuQPGZfBw870Mpl9ceSsTR5gkULqfSOSbbBZZNMM_giPkv5-4z-_Op2GTg5MZn46h6i7g3jcZfENYZkznO_iAGQEmlDbNkO8vy5BzaSqUThmokQII3Tg-HMXLrJiYzpW8bRQAPRT4nOrPMglbjhEu5ghnyRvZR5RXpe9LeEN-OA6KBXof6iRy7NYrR1hLDG9hREndIbIhgaBz2hW1ONLrpu1-huL6Rl6NDD9Uu-yEZPsV1SaUxPLMBMhRVvCZzfUQoogZRmtg7xn6Oh67mNrd3-HP2kwYkiPMaGkbUn-09XBk1mFhnX2I0ZERdpkjwVe6ZQ7h8ylENUHxOzqZVJ-AQLtIlGSs7T5NBdY9ti3E7xDuelFCqTXGXkn4OkyXcO9J3BUTeKeRymPSjT-0LgesCMamLFnF_PMM0fT6pFEB4oeh_B_E5TVI75xGkaP1EPmeJ2Vgq-CP8oPPhEaeot1UKIz1IPz8gcvBWo9KBJsA8sxh8WoSv1_oG89ekNUkkFi6XXDTvlswUBQHZncnklaPK-Tb-QnMK2cEl9BbIzOoa7ACRjS4oY0PMaEYIM2DcAdTOJG2y66azAWotNQ-CyzdiM9vnDzvsyQ1F-f0nBxSqMuZGEQ_JW5Y3xDpDcsDvD4KdOATaD66bXFjEuVNnLCsPMKxamjyHSb6A2eTSg6lRhYw02jht5JAJfZjuigP4A7RJXSnbOb6pc3X8rIiMbarTn7awiiZcUFKi6UvrZCQ3rCE4tBS0qTjVtHJ8ltONCIsA4ycvOJlPoNnXY5BZ9XuMYutj5gIA0sKmxkDvoHxCacaj82ypPq6V8G6_y1IQ-x7yd8nFqiMngKSsVsfIzJUe7Ad_rcY9O9xr0G0FLHSs5Md_POUSWuu65xXrHCi77ULuU724dsAI_Ik6TZG2zUu9-UewM-0M_2-DBUtQK3J9ciFgi4VNRr57HY-hSAneSPxB7MEO9YGZ17DGl5qIegf2IbU6e1YklcBSUF3wTwCwHC0zEp3sqLuf29LBCRRPk0w9URVQKU59pBGgYZoDvUD7WKdp05WuKLqx5oFPGRWaeHKWGzmu8R27EtDa_X8ISPDoKushmlJHSz6-1V4zRPhzyHlUvyWOH17Vo2fMrZaGQBFPsblEfPVV6FZBt33lTdvFm00]--></g></svg>