<?xml version="1.0" encoding="UTF-8" standalone="no"?><svg xmlns="http://www.w3.org/2000/svg" xmlns:xlink="http://www.w3.org/1999/xlink" contentStyleType="text/css" height="474px" preserveAspectRatio="none" style="width:1036px;height:474px;background:#FFFFFF;" version="1.1" viewBox="0 0 1036 474" width="1036px" zoomAndPan="magnify"><defs/><g><rect fill="#FFFFFF" height="292.9922" style="stroke:#181818;stroke-width:1.0;" width="10" x="297" y="106.6641"/><rect fill="#FFFFFF" height="194.8828" style="stroke:#181818;stroke-width:1.0;" width="10" x="622" y="144.2188"/><rect fill="#FFFFFF" height="37.5547" style="stroke:#181818;stroke-width:1.0;" width="10" x="911" y="222.8828"/><rect fill="none" height="194.8828" style="stroke:#000000;stroke-width:1.5;" width="878" x="152" y="159.2188"/><rect fill="none" height="71.6641" style="stroke:#000000;stroke-width:1.5;" width="648" x="162" y="275.4375"/><line style="stroke:#181818;stroke-width:0.5;stroke-dasharray:5.0,5.0;" x1="302" x2="302" y1="67.1094" y2="408.6563"/><line style="stroke:#181818;stroke-width:0.5;stroke-dasharray:5.0,5.0;" x1="627" x2="627" y1="67.1094" y2="408.6563"/><line style="stroke:#181818;stroke-width:0.5;stroke-dasharray:5.0,5.0;" x1="916" x2="916" y1="67.1094" y2="408.6563"/><rect fill="#E3E3E3" height="37.5547" rx="2.5" ry="2.5" style="stroke:#181818;stroke-width:0.5;" width="260" x="172" y="28.5547"/><text fill="#000000" font-family="sans-serif" font-size="20" lengthAdjust="spacing" textLength="246" x="179" y="54.8906">:AnnouncementController</text><rect fill="#E3E3E3" height="37.5547" rx="2.5" ry="2.5" style="stroke:#181818;stroke-width:0.5;" width="260" x="172" y="407.6563"/><text fill="#000000" font-family="sans-serif" font-size="20" lengthAdjust="spacing" textLength="246" x="179" y="433.9922">:AnnouncementController</text><rect fill="#E3E3E3" height="61.1094" rx="2.5" ry="2.5" style="stroke:#181818;stroke-width:0.5;" width="346" x="454" y="5"/><text fill="#000000" font-family="sans-serif" font-size="20" lengthAdjust="spacing" textLength="310" x="472" y="31.3359">ListAnnouncementAvailableDTO</text><text fill="#000000" font-family="sans-serif" font-size="20" lengthAdjust="spacing" textLength="332" x="461" y="54.8906">:List&lt;AnnouncementAvailableDTO</text><rect fill="#E3E3E3" height="61.1094" rx="2.5" ry="2.5" style="stroke:#181818;stroke-width:0.5;" width="346" x="454" y="407.6563"/><text fill="#000000" font-family="sans-serif" font-size="20" lengthAdjust="spacing" textLength="310" x="472" y="433.9922">ListAnnouncementAvailableDTO</text><text fill="#000000" font-family="sans-serif" font-size="20" lengthAdjust="spacing" textLength="332" x="461" y="457.5469">:List&lt;AnnouncementAvailableDTO</text><rect fill="#E3E3E3" height="61.1094" rx="2.5" ry="2.5" style="stroke:#181818;stroke-width:0.5;" width="208" x="812" y="5"/><text fill="#000000" font-family="sans-serif" font-size="20" lengthAdjust="spacing" textLength="185" x="823.5" y="31.3359">announcementDTO</text><text fill="#000000" font-family="sans-serif" font-size="20" lengthAdjust="spacing" textLength="194" x="819" y="54.8906">:AnnouncementDTO</text><rect fill="#E3E3E3" height="61.1094" rx="2.5" ry="2.5" style="stroke:#181818;stroke-width:0.5;" width="208" x="812" y="407.6563"/><text fill="#000000" font-family="sans-serif" font-size="20" lengthAdjust="spacing" textLength="185" x="823.5" y="433.9922">announcementDTO</text><text fill="#000000" font-family="sans-serif" font-size="20" lengthAdjust="spacing" textLength="194" x="819" y="457.5469">:AnnouncementDTO</text><rect fill="#FFFFFF" height="292.9922" style="stroke:#181818;stroke-width:1.0;" width="10" x="297" y="106.6641"/><rect fill="#FFFFFF" height="194.8828" style="stroke:#181818;stroke-width:1.0;" width="10" x="622" y="144.2188"/><rect fill="#FFFFFF" height="37.5547" style="stroke:#181818;stroke-width:1.0;" width="10" x="911" y="222.8828"/><polygon fill="#181818" points="285,102.6641,295,106.6641,285,110.6641,289,106.6641" style="stroke:#181818;stroke-width:1.0;"/><line style="stroke:#181818;stroke-width:1.0;" x1="0" x2="291" y1="106.6641" y2="106.6641"/><text fill="#000000" font-family="sans-serif" font-size="20" font-weight="bold" lengthAdjust="spacing" textLength="26" x="7" y="100.4453">19</text><text fill="#000000" font-family="sans-serif" font-size="20" lengthAdjust="spacing" textLength="248" x="37" y="100.4453">getAnnouncementById(id)</text><polygon fill="#181818" points="610,140.2188,620,144.2188,610,148.2188,614,144.2188" style="stroke:#181818;stroke-width:1.0;"/><line style="stroke:#181818;stroke-width:1.0;" x1="307" x2="616" y1="144.2188" y2="144.2188"/><text fill="#000000" font-family="sans-serif" font-size="20" font-weight="bold" lengthAdjust="spacing" textLength="44" x="314" y="138">19.1</text><text fill="#000000" font-family="sans-serif" font-size="20" lengthAdjust="spacing" textLength="248" x="362" y="138">getAnnouncementById(id)</text><path d="M152,159.2188 L243,159.2188 L243,174.7734 L233,184.7734 L152,184.7734 L152,159.2188 " fill="#EEEEEE" style="stroke:#000000;stroke-width:1.5;"/><rect fill="none" height="194.8828" style="stroke:#000000;stroke-width:1.5;" width="878" x="152" y="159.2188"/><text fill="#000000" font-family="sans-serif" font-size="20" font-weight="bold" lengthAdjust="spacing" textLength="46" x="167" y="179.5547">loop</text><text fill="#000000" font-family="sans-serif" font-size="20" font-weight="bold" lengthAdjust="spacing" textLength="258" x="258" y="180.5547">[for each announcement]</text><polygon fill="#181818" points="899,218.8828,909,222.8828,899,226.8828,903,222.8828" style="stroke:#181818;stroke-width:1.0;"/><line style="stroke:#181818;stroke-width:1.0;" x1="632" x2="905" y1="222.8828" y2="222.8828"/><text fill="#000000" font-family="sans-serif" font-size="20" font-weight="bold" lengthAdjust="spacing" textLength="44" x="639" y="216.6641">19.2</text><text fill="#000000" font-family="sans-serif" font-size="20" lengthAdjust="spacing" textLength="212" x="687" y="216.6641">isAnnouncementId(id)</text><polygon fill="#181818" points="643,256.4375,633,260.4375,643,264.4375,639,260.4375" style="stroke:#181818;stroke-width:1.0;"/><line style="stroke:#181818;stroke-width:1.0;stroke-dasharray:2.0,2.0;" x1="637" x2="915" y1="260.4375" y2="260.4375"/><text fill="#000000" font-family="sans-serif" font-size="20" font-weight="bold" lengthAdjust="spacing" textLength="44" x="649" y="254.2188">19.3</text><text fill="#000000" font-family="sans-serif" font-size="20" lengthAdjust="spacing" textLength="93" x="697" y="254.2188">true/false</text><path d="M162,275.4375 L234,275.4375 L234,290.9922 L224,300.9922 L162,300.9922 L162,275.4375 " fill="#EEEEEE" style="stroke:#000000;stroke-width:1.5;"/><rect fill="none" height="71.6641" style="stroke:#000000;stroke-width:1.5;" width="648" x="162" y="275.4375"/><text fill="#000000" font-family="sans-serif" font-size="20" font-weight="bold" lengthAdjust="spacing" textLength="27" x="177" y="295.7734">alt</text><text fill="#000000" font-family="sans-serif" font-size="20" font-weight="bold" lengthAdjust="spacing" textLength="56" x="249" y="296.7734">[true]</text><polygon fill="#181818" points="318,335.1016,308,339.1016,318,343.1016,314,339.1016" style="stroke:#181818;stroke-width:1.0;"/><line style="stroke:#181818;stroke-width:1.0;stroke-dasharray:2.0,2.0;" x1="312" x2="626" y1="339.1016" y2="339.1016"/><text fill="#000000" font-family="sans-serif" font-size="20" font-weight="bold" lengthAdjust="spacing" textLength="44" x="324" y="332.8828">19.4</text><text fill="#000000" font-family="sans-serif" font-size="20" lengthAdjust="spacing" textLength="188" x="372" y="332.8828">AnnouncementDTO</text><polygon fill="#181818" points="11,386.6563,1,390.6563,11,394.6563,7,390.6563" style="stroke:#181818;stroke-width:1.0;"/><line style="stroke:#181818;stroke-width:1.0;stroke-dasharray:2.0,2.0;" x1="5" x2="296" y1="390.6563" y2="390.6563"/><text fill="#000000" font-family="sans-serif" font-size="20" font-weight="bold" lengthAdjust="spacing" textLength="26" x="17" y="384.4375">20</text><text fill="#000000" font-family="sans-serif" font-size="20" lengthAdjust="spacing" textLength="188" x="47" y="384.4375">AnnouncementDTO</text><!--SRC=[bLF1JiCm3BtdAwoTu51WtAWcf364X3G9YUt8nKkyDbgQL6awDBwUB5r5qdKWV8hydlsUNRVPILsZnKePlYC1WhROAlTYj5l9BuBxEzRq5AYCDhoqfY9mjgK8gP7liA2LEoW2IzoXBbHCQ4eKvbFg0hQe6cBCfvtaiaRjO9BFjJQjvbIHTWklROrIP2U03IpMxykKlPIDYmlcUvGADugUrsyVEZ_2iqjuQ7ba-7VQ5QEAhj4ypOJI0OinR9tHRRKX2zC7bZq6lpaKb5XyEhoAAock6KI1tCazEkf6J92uwSsK9U2H3LxeD0NyKwmV7WQXZAbXQomGyZAPavrnG_JwtifWApd89ZOqOkVSrzbcn-af2xAVHUJXA6zFzpLQBQYNkz1TkUwoVnlOIuPFaCFWGFxK72UG5YD8o8Q8Zi7_ZJq-oxBEnS34Dm00]--></g></svg>