<?xml version="1.0" encoding="UTF-8" standalone="no"?><svg xmlns="http://www.w3.org/2000/svg" xmlns:xlink="http://www.w3.org/1999/xlink" contentStyleType="text/css" height="941px" preserveAspectRatio="none" style="width:1477px;height:941px;background:#FFFFFF;" version="1.1" viewBox="0 0 1477 941" width="1477px" zoomAndPan="magnify"><defs/><g><!--class ctrl--><g id="elem_ctrl"><rect codeLine="11" fill="#F1F1F1" height="144.2188" id="ctrl" rx="2.5" ry="2.5" style="stroke:#181818;stroke-width:0.5;" width="773" x="398" y="7"/><ellipse cx="646.5" cy="24" fill="#ADD1B2" rx="12" ry="12" style="stroke:#181818;stroke-width:1.0;"/><path d="M649.3066,31.0801 Q648.623,31.4316 647.8711,31.6074 Q647.1191,31.7832 646.2891,31.7832 Q643.3398,31.7832 641.7871,29.8398 Q640.2344,27.8965 640.2344,24.2246 Q640.2344,20.543 641.7871,18.5996 Q643.3398,16.6563 646.2891,16.6563 Q647.1191,16.6563 647.8809,16.832 Q648.6426,17.0078 649.3066,17.3594 L649.3066,20.5625 Q648.5645,19.8789 647.8662,19.5615 Q647.168,19.2441 646.4258,19.2441 Q644.8438,19.2441 644.0381,20.499 Q643.2324,21.7539 643.2324,24.2246 Q643.2324,26.6855 644.0381,27.9404 Q644.8438,29.1953 646.4258,29.1953 Q647.168,29.1953 647.8662,28.8779 Q648.5645,28.5605 649.3066,27.877 Z " fill="#000000"/><text fill="#000000" font-family="sans-serif" font-size="20" lengthAdjust="spacing" textLength="267" x="668.5" y="31.5586">RegisterEmployeeController</text><line style="stroke:#181818;stroke-width:0.5;" x1="399" x2="1170" y1="41" y2="41"/><line style="stroke:#181818;stroke-width:0.5;" x1="399" x2="1170" y1="49" y2="49"/><text fill="#000000" font-family="sans-serif" font-size="20" lengthAdjust="spacing" textLength="721" x="404" y="72.3359">+RegisterEmployeeController(AgencyRepository, AuthenticationRepository)</text><text fill="#000000" font-family="sans-serif" font-size="20" lengthAdjust="spacing" textLength="285" x="404" y="95.8906">+getAgencysFromController()</text><text fill="#000000" font-family="sans-serif" font-size="20" lengthAdjust="spacing" textLength="761" x="404" y="119.4453">+addEmployeeToSystem(String name, String mail, String password, String role)</text><text fill="#000000" font-family="sans-serif" font-size="20" lengthAdjust="spacing" textLength="203" x="404" y="143">+generatePassword()</text></g><!--class AgencyRepository--><g id="elem_AgencyRepository"><rect codeLine="23" fill="#F1F1F1" height="73.5547" id="AgencyRepository" rx="2.5" ry="2.5" style="stroke:#181818;stroke-width:0.5;" width="205" x="1206" y="42"/><ellipse cx="1222" cy="59" fill="#ADD1B2" rx="12" ry="12" style="stroke:#181818;stroke-width:1.0;"/><path d="M1224.8066,66.0801 Q1224.123,66.4316 1223.3711,66.6074 Q1222.6191,66.7832 1221.7891,66.7832 Q1218.8398,66.7832 1217.2871,64.8398 Q1215.7344,62.8965 1215.7344,59.2246 Q1215.7344,55.543 1217.2871,53.5996 Q1218.8398,51.6563 1221.7891,51.6563 Q1222.6191,51.6563 1223.3809,51.832 Q1224.1426,52.0078 1224.8066,52.3594 L1224.8066,55.5625 Q1224.0645,54.8789 1223.3662,54.5615 Q1222.668,54.2441 1221.9258,54.2441 Q1220.3438,54.2441 1219.5381,55.499 Q1218.7324,56.7539 1218.7324,59.2246 Q1218.7324,61.6855 1219.5381,62.9404 Q1220.3438,64.1953 1221.9258,64.1953 Q1222.668,64.1953 1223.3662,63.8779 Q1224.0645,63.5605 1224.8066,62.877 Z " fill="#000000"/><text fill="#000000" font-family="sans-serif" font-size="20" lengthAdjust="spacing" textLength="171" x="1237" y="66.5586">AgencyRepository</text><line style="stroke:#181818;stroke-width:0.5;" x1="1207" x2="1410" y1="76" y2="76"/><line style="stroke:#181818;stroke-width:0.5;" x1="1207" x2="1410" y1="84" y2="84"/><text fill="#000000" font-family="sans-serif" font-size="20" lengthAdjust="spacing" textLength="163" x="1212" y="107.3359">+getAgencyList()</text></g><!--class AuthenticationRepository--><g id="elem_AuthenticationRepository"><rect codeLine="26" fill="#F1F1F1" height="73.5547" id="AuthenticationRepository" rx="2.5" ry="2.5" style="stroke:#181818;stroke-width:0.5;" width="677" x="7" y="181"/><ellipse cx="220.5" cy="198" fill="#ADD1B2" rx="12" ry="12" style="stroke:#181818;stroke-width:1.0;"/><path d="M223.3066,205.0801 Q222.623,205.4316 221.8711,205.6074 Q221.1191,205.7832 220.2891,205.7832 Q217.3398,205.7832 215.7871,203.8398 Q214.2344,201.8965 214.2344,198.2246 Q214.2344,194.543 215.7871,192.5996 Q217.3398,190.6563 220.2891,190.6563 Q221.1191,190.6563 221.8809,190.832 Q222.6426,191.0078 223.3066,191.3594 L223.3066,194.5625 Q222.5645,193.8789 221.8662,193.5615 Q221.168,193.2441 220.4258,193.2441 Q218.8438,193.2441 218.0381,194.499 Q217.2324,195.7539 217.2324,198.2246 Q217.2324,200.6855 218.0381,201.9404 Q218.8438,203.1953 220.4258,203.1953 Q221.168,203.1953 221.8662,202.8779 Q222.5645,202.5605 223.3066,201.877 Z " fill="#000000"/><text fill="#000000" font-family="sans-serif" font-size="20" lengthAdjust="spacing" textLength="241" x="242.5" y="205.5586">AuthenticationRepository</text><line style="stroke:#181818;stroke-width:0.5;" x1="8" x2="683" y1="215" y2="215"/><line style="stroke:#181818;stroke-width:0.5;" x1="8" x2="683" y1="223" y2="223"/><text fill="#000000" font-family="sans-serif" font-size="20" lengthAdjust="spacing" textLength="665" x="13" y="246.3359">addUserWithRole(String name, String email, String pwd, String roleId)</text></g><!--class StoreNetworkManager--><g id="elem_StoreNetworkManager"><rect codeLine="85" fill="#F1F1F1" height="73.5547" id="StoreNetworkManager" rx="2.5" ry="2.5" style="stroke:#181818;stroke-width:0.5;" width="245" x="579" y="848.5"/><ellipse cx="595" cy="865.5" fill="#ADD1B2" rx="12" ry="12" style="stroke:#181818;stroke-width:1.0;"/><path d="M597.8066,872.5801 Q597.123,872.9316 596.3711,873.1074 Q595.6191,873.2832 594.7891,873.2832 Q591.8398,873.2832 590.2871,871.3398 Q588.7344,869.3965 588.7344,865.7246 Q588.7344,862.043 590.2871,860.0996 Q591.8398,858.1563 594.7891,858.1563 Q595.6191,858.1563 596.3809,858.332 Q597.1426,858.5078 597.8066,858.8594 L597.8066,862.0625 Q597.0645,861.3789 596.3662,861.0615 Q595.668,860.7441 594.9258,860.7441 Q593.3438,860.7441 592.5381,861.999 Q591.7324,863.2539 591.7324,865.7246 Q591.7324,868.1855 592.5381,869.4404 Q593.3438,870.6953 594.9258,870.6953 Q595.668,870.6953 596.3662,870.3779 Q597.0645,870.0605 597.8066,869.377 Z " fill="#000000"/><text fill="#000000" font-family="sans-serif" font-size="20" lengthAdjust="spacing" textLength="211" x="610" y="873.0586">StoreNetworkManager</text><line style="stroke:#181818;stroke-width:0.5;" x1="580" x2="823" y1="882.5" y2="882.5"/><text fill="#000000" font-family="sans-serif" font-size="20" lengthAdjust="spacing" textLength="54" x="585" y="905.8359">-Role</text><line style="stroke:#181818;stroke-width:0.5;" x1="580" x2="823" y1="914.0547" y2="914.0547"/></g><!--class Agent--><g id="elem_Agent"><rect codeLine="83" fill="#F1F1F1" height="97.1094" id="Agent" rx="2.5" ry="2.5" style="stroke:#181818;stroke-width:0.5;" width="178" x="859.5" y="837"/><ellipse cx="916" cy="854" fill="#ADD1B2" rx="12" ry="12" style="stroke:#181818;stroke-width:1.0;"/><path d="M918.8066,861.0801 Q918.123,861.4316 917.3711,861.6074 Q916.6191,861.7832 915.7891,861.7832 Q912.8398,861.7832 911.2871,859.8398 Q909.7344,857.8965 909.7344,854.2246 Q909.7344,850.543 911.2871,848.5996 Q912.8398,846.6563 915.7891,846.6563 Q916.6191,846.6563 917.3809,846.832 Q918.1426,847.0078 918.8066,847.3594 L918.8066,850.5625 Q918.0645,849.8789 917.3662,849.5615 Q916.668,849.2441 915.9258,849.2441 Q914.3438,849.2441 913.5381,850.499 Q912.7324,851.7539 912.7324,854.2246 Q912.7324,856.6855 913.5381,857.9404 Q914.3438,859.1953 915.9258,859.1953 Q916.668,859.1953 917.3662,858.8779 Q918.0645,858.5605 918.8066,857.877 Z " fill="#000000"/><text fill="#000000" font-family="sans-serif" font-size="20" lengthAdjust="spacing" textLength="56" x="938" y="861.5586">Agent</text><line style="stroke:#181818;stroke-width:0.5;" x1="860.5" x2="1036.5" y1="871" y2="871"/><text fill="#000000" font-family="sans-serif" font-size="20" lengthAdjust="spacing" textLength="166" x="865.5" y="894.3359">-Agency agencia;</text><text fill="#000000" font-family="sans-serif" font-size="20" lengthAdjust="spacing" textLength="125" x="865.5" y="917.8906">-String ROLE</text><line style="stroke:#181818;stroke-width:0.5;" x1="860.5" x2="1036.5" y1="926.1094" y2="926.1094"/></g><!--class StoreManager--><g id="elem_StoreManager"><rect codeLine="84" fill="#F1F1F1" height="73.5547" id="StoreManager" rx="2.5" ry="2.5" style="stroke:#181818;stroke-width:0.5;" width="165" x="1073" y="848.5"/><ellipse cx="1089" cy="865.5" fill="#ADD1B2" rx="12" ry="12" style="stroke:#181818;stroke-width:1.0;"/><path d="M1091.8066,872.5801 Q1091.123,872.9316 1090.3711,873.1074 Q1089.6191,873.2832 1088.7891,873.2832 Q1085.8398,873.2832 1084.2871,871.3398 Q1082.7344,869.3965 1082.7344,865.7246 Q1082.7344,862.043 1084.2871,860.0996 Q1085.8398,858.1563 1088.7891,858.1563 Q1089.6191,858.1563 1090.3809,858.332 Q1091.1426,858.5078 1091.8066,858.8594 L1091.8066,862.0625 Q1091.0645,861.3789 1090.3662,861.0615 Q1089.668,860.7441 1088.9258,860.7441 Q1087.3438,860.7441 1086.5381,861.999 Q1085.7324,863.2539 1085.7324,865.7246 Q1085.7324,868.1855 1086.5381,869.4404 Q1087.3438,870.6953 1088.9258,870.6953 Q1089.668,870.6953 1090.3662,870.3779 Q1091.0645,870.0605 1091.8066,869.377 Z " fill="#000000"/><text fill="#000000" font-family="sans-serif" font-size="20" lengthAdjust="spacing" textLength="131" x="1104" y="873.0586">StoreManager</text><line style="stroke:#181818;stroke-width:0.5;" x1="1074" x2="1237" y1="882.5" y2="882.5"/><text fill="#000000" font-family="sans-serif" font-size="20" lengthAdjust="spacing" textLength="54" x="1079" y="905.8359">-Role</text><line style="stroke:#181818;stroke-width:0.5;" x1="1074" x2="1237" y1="914.0547" y2="914.0547"/></g><!--class SystemAdmin--><g id="elem_SystemAdmin"><rect codeLine="86" fill="#F1F1F1" height="73.5547" id="SystemAdmin" rx="2.5" ry="2.5" style="stroke:#181818;stroke-width:0.5;" width="166" x="1273.5" y="848.5"/><ellipse cx="1289.5" cy="865.5" fill="#ADD1B2" rx="12" ry="12" style="stroke:#181818;stroke-width:1.0;"/><path d="M1292.3066,872.5801 Q1291.623,872.9316 1290.8711,873.1074 Q1290.1191,873.2832 1289.2891,873.2832 Q1286.3398,873.2832 1284.7871,871.3398 Q1283.2344,869.3965 1283.2344,865.7246 Q1283.2344,862.043 1284.7871,860.0996 Q1286.3398,858.1563 1289.2891,858.1563 Q1290.1191,858.1563 1290.8809,858.332 Q1291.6426,858.5078 1292.3066,858.8594 L1292.3066,862.0625 Q1291.5645,861.3789 1290.8662,861.0615 Q1290.168,860.7441 1289.4258,860.7441 Q1287.8438,860.7441 1287.0381,861.999 Q1286.2324,863.2539 1286.2324,865.7246 Q1286.2324,868.1855 1287.0381,869.4404 Q1287.8438,870.6953 1289.4258,870.6953 Q1290.168,870.6953 1290.8662,870.3779 Q1291.5645,870.0605 1292.3066,869.377 Z " fill="#000000"/><text fill="#000000" font-family="sans-serif" font-size="20" lengthAdjust="spacing" textLength="132" x="1304.5" y="873.0586">SystemAdmin</text><line style="stroke:#181818;stroke-width:0.5;" x1="1274.5" x2="1438.5" y1="882.5" y2="882.5"/><text fill="#000000" font-family="sans-serif" font-size="20" lengthAdjust="spacing" textLength="54" x="1279.5" y="905.8359">-Role</text><line style="stroke:#181818;stroke-width:0.5;" x1="1274.5" x2="1438.5" y1="914.0547" y2="914.0547"/></g><!--class Employee--><g id="elem_Employee"><rect codeLine="53" fill="#F1F1F1" height="238.4375" id="Employee" rx="2.5" ry="2.5" style="stroke:#181818;stroke-width:0.5;" width="193" x="1059" y="514"/><ellipse cx="1104.7" cy="531" fill="#ADD1B2" rx="12" ry="12" style="stroke:#181818;stroke-width:1.0;"/><path d="M1107.5066,538.0801 Q1106.823,538.4316 1106.0711,538.6074 Q1105.3191,538.7832 1104.4891,538.7832 Q1101.5398,538.7832 1099.9871,536.8398 Q1098.4344,534.8965 1098.4344,531.2246 Q1098.4344,527.543 1099.9871,525.5996 Q1101.5398,523.6563 1104.4891,523.6563 Q1105.3191,523.6563 1106.0809,523.832 Q1106.8426,524.0078 1107.5066,524.3594 L1107.5066,527.5625 Q1106.7645,526.8789 1106.0662,526.5615 Q1105.368,526.2441 1104.6258,526.2441 Q1103.0438,526.2441 1102.2381,527.499 Q1101.4324,528.7539 1101.4324,531.2246 Q1101.4324,533.6855 1102.2381,534.9404 Q1103.0438,536.1953 1104.6258,536.1953 Q1105.368,536.1953 1106.0662,535.8779 Q1106.7645,535.5605 1107.5066,534.877 Z " fill="#000000"/><text fill="#000000" font-family="sans-serif" font-size="20" lengthAdjust="spacing" textLength="93" x="1126.3" y="538.5586">Employee</text><line style="stroke:#181818;stroke-width:0.5;" x1="1060" x2="1251" y1="548" y2="548"/><text fill="#000000" font-family="sans-serif" font-size="20" lengthAdjust="spacing" textLength="62" x="1065" y="571.3359">-int id</text><text fill="#000000" font-family="sans-serif" font-size="20" lengthAdjust="spacing" textLength="127" x="1065" y="594.8906">-String name</text><text fill="#000000" font-family="sans-serif" font-size="20" lengthAdjust="spacing" textLength="181" x="1065" y="618.4453">-int phoneNumber</text><text fill="#000000" font-family="sans-serif" font-size="20" lengthAdjust="spacing" textLength="151" x="1065" y="642">-int taxNumber</text><text fill="#000000" font-family="sans-serif" font-size="20" lengthAdjust="spacing" textLength="166" x="1065" y="665.5547">-String password</text><text fill="#000000" font-family="sans-serif" font-size="20" lengthAdjust="spacing" textLength="159" x="1065" y="689.1094">-int civilNumber</text><text fill="#000000" font-family="sans-serif" font-size="20" lengthAdjust="spacing" textLength="156" x="1065" y="712.6641">-String address;</text><text fill="#000000" font-family="sans-serif" font-size="20" lengthAdjust="spacing" textLength="122" x="1065" y="736.2188">-String mail;</text><line style="stroke:#181818;stroke-width:0.5;" x1="1060" x2="1251" y1="744.4375" y2="744.4375"/></g><!--class RegisterEmployeeUI--><g id="elem_RegisterEmployeeUI"><rect codeLine="64" fill="#F1F1F1" height="50" id="RegisterEmployeeUI" rx="2.5" ry="2.5" style="stroke:#181818;stroke-width:0.5;" width="225" x="138" y="54"/><ellipse cx="154" cy="71" fill="#ADD1B2" rx="12" ry="12" style="stroke:#181818;stroke-width:1.0;"/><path d="M156.8066,78.0801 Q156.123,78.4316 155.3711,78.6074 Q154.6191,78.7832 153.7891,78.7832 Q150.8398,78.7832 149.2871,76.8398 Q147.7344,74.8965 147.7344,71.2246 Q147.7344,67.543 149.2871,65.5996 Q150.8398,63.6563 153.7891,63.6563 Q154.6191,63.6563 155.3809,63.832 Q156.1426,64.0078 156.8066,64.3594 L156.8066,67.5625 Q156.0645,66.8789 155.3662,66.5615 Q154.668,66.2441 153.9258,66.2441 Q152.3438,66.2441 151.5381,67.499 Q150.7324,68.7539 150.7324,71.2246 Q150.7324,73.6855 151.5381,74.9404 Q152.3438,76.1953 153.9258,76.1953 Q154.668,76.1953 155.3662,75.8779 Q156.0645,75.5605 156.8066,74.877 Z " fill="#000000"/><text fill="#000000" font-family="sans-serif" font-size="20" lengthAdjust="spacing" textLength="191" x="169" y="78.5586">RegisterEmployeeUI</text><line style="stroke:#181818;stroke-width:0.5;" x1="139" x2="362" y1="88" y2="88"/><line style="stroke:#181818;stroke-width:0.5;" x1="139" x2="362" y1="96" y2="96"/></g><!--class Repositories--><g id="elem_Repositories"><rect codeLine="67" fill="#F1F1F1" height="144.2188" id="Repositories" rx="2.5" ry="2.5" style="stroke:#181818;stroke-width:0.5;" width="313" x="680" y="285"/><ellipse cx="772.5" cy="302" fill="#ADD1B2" rx="12" ry="12" style="stroke:#181818;stroke-width:1.0;"/><path d="M775.3066,309.0801 Q774.623,309.4316 773.8711,309.6074 Q773.1191,309.7832 772.2891,309.7832 Q769.3398,309.7832 767.7871,307.8398 Q766.2344,305.8965 766.2344,302.2246 Q766.2344,298.543 767.7871,296.5996 Q769.3398,294.6563 772.2891,294.6563 Q773.1191,294.6563 773.8809,294.832 Q774.6426,295.0078 775.3066,295.3594 L775.3066,298.5625 Q774.5645,297.8789 773.8662,297.5615 Q773.168,297.2441 772.4258,297.2441 Q770.8438,297.2441 770.0381,298.499 Q769.2324,299.7539 769.2324,302.2246 Q769.2324,304.6855 770.0381,305.9404 Q770.8438,307.1953 772.4258,307.1953 Q773.168,307.1953 773.8662,306.8779 Q774.5645,306.5605 775.3066,305.877 Z " fill="#000000"/><text fill="#000000" font-family="sans-serif" font-size="20" lengthAdjust="spacing" textLength="119" x="794.5" y="309.5586">Repositories</text><line style="stroke:#181818;stroke-width:0.5;" x1="681" x2="992" y1="319" y2="319"/><line style="stroke:#181818;stroke-width:0.5;" x1="681" x2="992" y1="327" y2="327"/><text fill="#000000" font-family="sans-serif" font-size="20" lengthAdjust="spacing" textLength="145" x="686" y="350.3359">-Repositories()</text><text fill="#000000" font-family="sans-serif" font-size="20" lengthAdjust="spacing" textLength="276" x="686" y="373.8906">+getInstance() : Repositories</text><text fill="#000000" font-family="sans-serif" font-size="20" lengthAdjust="spacing" textLength="231" x="686" y="397.4453">+getAgencyRepository()</text><text fill="#000000" font-family="sans-serif" font-size="20" lengthAdjust="spacing" textLength="301" x="686" y="421">+getAuthenticationRepository()</text></g><!--class Agencies--><g id="elem_Agencies"><rect fill="#F1F1F1" height="50" id="Agencies" rx="2.5" ry="2.5" style="stroke:#181818;stroke-width:0.5;" width="120" x="1219.5" y="332"/><ellipse cx="1235.5" cy="349" fill="#ADD1B2" rx="12" ry="12" style="stroke:#181818;stroke-width:1.0;"/><path d="M1238.3066,356.0801 Q1237.623,356.4316 1236.8711,356.6074 Q1236.1191,356.7832 1235.2891,356.7832 Q1232.3398,356.7832 1230.7871,354.8398 Q1229.2344,352.8965 1229.2344,349.2246 Q1229.2344,345.543 1230.7871,343.5996 Q1232.3398,341.6563 1235.2891,341.6563 Q1236.1191,341.6563 1236.8809,341.832 Q1237.6426,342.0078 1238.3066,342.3594 L1238.3066,345.5625 Q1237.5645,344.8789 1236.8662,344.5615 Q1236.168,344.2441 1235.4258,344.2441 Q1233.8438,344.2441 1233.0381,345.499 Q1232.2324,346.7539 1232.2324,349.2246 Q1232.2324,351.6855 1233.0381,352.9404 Q1233.8438,354.1953 1235.4258,354.1953 Q1236.168,354.1953 1236.8662,353.8779 Q1237.5645,353.5605 1238.3066,352.877 Z " fill="#000000"/><text fill="#000000" font-family="sans-serif" font-size="20" lengthAdjust="spacing" textLength="86" x="1250.5" y="356.5586">Agencies</text><line style="stroke:#181818;stroke-width:0.5;" x1="1220.5" x2="1338.5" y1="366" y2="366"/><line style="stroke:#181818;stroke-width:0.5;" x1="1220.5" x2="1338.5" y1="374" y2="374"/></g><!--link RegisterEmployeeUI to ctrl--><g id="link_RegisterEmployeeUI_ctrl"><path codeLine="76" d="M363.23,79 C373.63,79 383.56,79 392.4,79 " fill="none" id="RegisterEmployeeUI-to-ctrl" style="stroke:#181818;stroke-width:1.0;stroke-dasharray:7.0,7.0;"/><polygon fill="#181818" points="397.76,79,388.76,75,392.76,79,388.76,83,397.76,79" style="stroke:#181818;stroke-width:1.0;"/></g><!--link ctrl to AuthenticationRepository--><g id="link_ctrl_AuthenticationRepository"><path codeLine="78" d="M556.96,151.01 C525.55,160.81 494.36,170.55 465.96,179.41 " fill="none" id="ctrl-to-AuthenticationRepository" style="stroke:#181818;stroke-width:1.0;stroke-dasharray:7.0,7.0;"/><polygon fill="#181818" points="461.06,180.94,470.8453,182.0568,465.8299,179.4405,468.4461,174.425,461.06,180.94" style="stroke:#181818;stroke-width:1.0;"/></g><!--link ctrl to AgencyRepository--><g id="link_ctrl_AgencyRepository"><path codeLine="79" d="M1171.3,79 C1180.26,79 1190.27,79 1200.7,79 " fill="none" id="ctrl-to-AgencyRepository" style="stroke:#181818;stroke-width:1.0;stroke-dasharray:7.0,7.0;"/><polygon fill="#181818" points="1205.85,79,1196.85,75,1200.85,79,1196.85,83,1205.85,79" style="stroke:#181818;stroke-width:1.0;"/></g><!--link ctrl to Repositories--><g id="link_ctrl_Repositories"><path codeLine="80" d="M797.89,151.08 C805.29,190.36 814.49,239.19 822.06,279.33 " fill="none" id="ctrl-to-Repositories" style="stroke:#181818;stroke-width:1.0;stroke-dasharray:7.0,7.0;"/><polygon fill="#181818" points="823.06,284.68,825.3194,275.0938,822.1317,279.7669,817.4585,276.5792,823.06,284.68" style="stroke:#181818;stroke-width:1.0;"/></g><!--link ctrl to Employee--><g id="link_ctrl_Employee"><path codeLine="81" d="M900.73,151.12 C997.48,210.33 1119.5,285 1119.5,285 C1119.5,285 1132.35,408.81 1142.69,508.52 " fill="none" id="ctrl-to-Employee" style="stroke:#181818;stroke-width:1.0;stroke-dasharray:7.0,7.0;"/><polygon fill="#181818" points="1143.21,513.55,1146.2654,504.1871,1142.697,508.5764,1138.3076,505.0079,1143.21,513.55" style="stroke:#181818;stroke-width:1.0;"/></g><!--reverse link Employee to Agent--><g id="link_Employee_Agent"><path d="M1046.02,766.49 C1025.23,791.64 1004.77,816.41 988,836.7 " fill="none" id="Employee-backto-Agent" style="stroke:#181818;stroke-width:1.0;"/><polygon fill="none" points="1040.83,761.77,1058.97,750.82,1051.63,770.69,1040.83,761.77" style="stroke:#181818;stroke-width:1.0;"/></g><!--reverse link Employee to StoreManager--><g id="link_Employee_StoreManager"><path d="M1155.5,772.36 C1155.5,800.53 1155.5,827.81 1155.5,848.41 " fill="none" id="Employee-backto-StoreManager" style="stroke:#181818;stroke-width:1.0;"/><polygon fill="none" points="1148.5,772.28,1155.5,752.28,1162.5,772.28,1148.5,772.28" style="stroke:#181818;stroke-width:1.0;"/></g><!--reverse link Employee to StoreNetworkManager--><g id="link_Employee_StoreNetworkManager"><path d="M1041.18,697.08 C954.46,744.92 838.34,808.99 766.8,848.47 " fill="none" id="Employee-backto-StoreNetworkManager" style="stroke:#181818;stroke-width:1.0;"/><polygon fill="none" points="1038.05,690.81,1058.94,687.28,1044.81,703.07,1038.05,690.81" style="stroke:#181818;stroke-width:1.0;"/></g><!--reverse link Employee to SystemAdmin--><g id="link_Employee_SystemAdmin"><path d="M1257.96,768.28 C1275.13,790.78 1287.5,807 1287.5,807 C1287.5,807 1306.41,828.23 1324.42,848.47 " fill="none" id="Employee-backto-SystemAdmin" style="stroke:#181818;stroke-width:1.0;"/><polygon fill="none" points="1252.3,772.41,1245.73,752.26,1263.43,763.92,1252.3,772.41" style="stroke:#181818;stroke-width:1.0;"/></g><!--link Employee to SystemAdmin--><g id="link_Employee_SystemAdmin"><path codeLine="95" d="M1252.16,739.19 C1274.32,763.3 1291.5,782 1291.5,782 C1291.5,782 1312.56,815.2 1330.7,843.82 " fill="none" id="Employee-to-SystemAdmin" style="stroke:#181818;stroke-width:1.0;"/><polygon fill="#181818" points="1333.58,848.36,1332.1164,838.6205,1330.8928,844.1435,1325.3699,842.9199,1333.58,848.36" style="stroke:#181818;stroke-width:1.0;"/><text fill="#000000" font-family="sans-serif" font-size="20" lengthAdjust="spacing" textLength="162" x="1307.5" y="802.3359">are registered by</text></g><!--link Repositories to Repositories--><g id="link_Repositories_Repositories"><path codeLine="89" d="M993.16,338.01 C1014.09,341.22 1028,347.55 1028,357 C1028,365.64 1016.38,371.67 998.39,375.09 " fill="none" id="Repositories-to-Repositories" style="stroke:#181818;stroke-width:1.0;"/><polygon fill="#181818" points="993.16,375.99,1002.7055,378.4157,998.0885,375.1472,1001.3569,370.5301,993.16,375.99" style="stroke:#181818;stroke-width:1.0;"/><text fill="#000000" font-family="sans-serif" font-size="20" lengthAdjust="spacing" textLength="79" x="1034" y="364.8359">instance</text></g><!--link AgencyRepository to Agencies--><g id="link_AgencyRepository_Agencies"><path codeLine="91" d="M1304.71,116.08 C1298.91,171.32 1287.93,275.77 1282.58,326.66 " fill="none" id="AgencyRepository-to-Agencies" style="stroke:#181818;stroke-width:1.0;"/><polygon fill="#181818" points="1282.05,331.71,1286.9765,323.1819,1282.5771,326.7379,1279.0211,322.3385,1282.05,331.71" style="stroke:#181818;stroke-width:1.0;"/><text fill="#000000" font-family="sans-serif" font-size="20" lengthAdjust="spacing" textLength="33" x="1297.5" y="225.8359">has</text></g><!--link Agencies to Employee--><g id="link_Agencies_Employee"><path codeLine="92" d="M1268.5,382.32 C1255.43,411.18 1232.68,461.46 1211,509.37 " fill="none" id="Agencies-to-Employee" style="stroke:#181818;stroke-width:1.0;"/><polygon fill="#181818" points="1208.9,514,1216.2487,507.4428,1210.9572,509.4428,1208.9571,504.1513,1208.9,514" style="stroke:#181818;stroke-width:1.0;"/><text fill="#000000" font-family="sans-serif" font-size="20" lengthAdjust="spacing" textLength="191" x="1232.5" y="479.3359">are workstations for</text></g><!--link AuthenticationRepository to Employee--><g id="link_AuthenticationRepository_Employee"><path codeLine="93" d="M309.41,255.09 C294,270.5 279.5,285 279.5,285 C279.5,285 279.5,429 279.5,429 C279.5,429 822.96,554.94 1053.77,608.43 " fill="none" id="AuthenticationRepository-to-Employee" style="stroke:#181818;stroke-width:1.0;"/><polygon fill="#181818" points="1058.83,609.6,1050.965,603.672,1053.959,608.4715,1049.1594,611.4655,1058.83,609.6" style="stroke:#181818;stroke-width:1.0;"/><text fill="#000000" font-family="sans-serif" font-size="20" lengthAdjust="spacing" textLength="381" x="280.5" y="364.8359">needs to be authenticated in the system</text></g><!--SRC=[VLN1Rjim3BthAuHUccBDKEou0WM2eGK2TDsGhDXPiHbRY2mP4hFKA_hlespPbfLuFYIGoCVt7iauxY1rBQoebCaEaFCSzkAeyCbetCg_mB_SiMlNv_3AQ9ELrbJ0qHw1ZP5QP0THm1OR1Tn2Xa8NAavmfSZDIUg2xuLoSKH93TZKm6kZ6d-86OUWiMXOXCgKS6w5QENkYB3EZ6xrtZ5shM2F70stiYYHvzBBaKOprcBurGOAwH3iOrKhqm1y8xFMA0NsYWl7CxJgdJ76wVd4vvCNgm9qrcoWDawYiSqjNnsn18qo4vvmZDo4OWLW1t9FrCIeL9yWyhmd-cMs3H5NYorvfBPfKS4j3uTAI3KSQd9rCZOVBgWeZ9GQh43u6PA8YfwFlXcf1_wUIdqc-mJww04p5WEG3BmwiBybbXjISL4yJDMVfiBNkIVpJqUufUhm0aZY3z-5fYMpWMlf6ThSqGlsiKuy5_vBYllkCj1iVZm_HhYMOIpTbHqCTrDOvPNKSJ14-sa5slPPIf8Xy-WYwaAILfT6myknse5D8YZUpkwJWIU8JFwHQWv3Wx7WtFrvn4_ZVdIKBlphchn5qJ1m2QvlzUHo4UtwMZjw3sImkE5V9qdfZerh5CFdLcqH5kI2qiyFxS-NrDAdFytL61CI0I6mV9WA7cvxikdImHk2piTrkBHP_yj9zdikDLh5inJVZsWsYG4QW0pJOEpiHxzSXaPqcQLmR3Wk8zCK4nQubqgrV4STtnlBPbyA2LW3a6HwDU-0Yn53_plaY8xSjGuP6p2-G6ox4s33v0cuQzW_]--></g></svg>