<?xml version="1.0" encoding="UTF-8" standalone="no"?><svg xmlns="http://www.w3.org/2000/svg" xmlns:xlink="http://www.w3.org/1999/xlink" contentStyleType="text/css" height="806px" preserveAspectRatio="none" style="width:1439px;height:806px;background:#FFFFFF;" version="1.1" viewBox="0 0 1439 806" width="1439px" zoomAndPan="magnify"><defs/><g><rect fill="#FFFFFF" height="624.5391" style="stroke:#181818;stroke-width:1.0;" width="10" x="373" y="106.6641"/><rect fill="#FFFFFF" height="361.6563" style="stroke:#181818;stroke-width:1.0;" width="10" x="748" y="257.4375"/><rect fill="#FFFFFF" height="37.5547" style="stroke:#181818;stroke-width:1.0;" width="10" x="933" y="294.9922"/><rect fill="#FFFFFF" height="129.2188" style="stroke:#181818;stroke-width:1.0;" width="10" x="1050.5" y="452.3203"/><rect fill="none" height="491.875" style="stroke:#000000;stroke-width:1.5;" width="1228" x="205" y="193.7734"/><rect fill="none" height="331.1016" style="stroke:#000000;stroke-width:1.5;" width="1208" x="215" y="347.5469"/><rect fill="none" height="282.9922" style="stroke:#000000;stroke-width:1.5;" width="1188" x="225" y="388.6563"/><rect fill="none" height="146.7734" style="stroke:#000000;stroke-width:1.5;" width="1168" x="235" y="517.875"/><line style="stroke:#181818;stroke-width:0.5;stroke-dasharray:5.0,5.0;" x1="378" x2="378" y1="67.1094" y2="740.2031"/><line style="stroke:#181818;stroke-width:0.5;stroke-dasharray:5.0,5.0;" x1="753" x2="753" y1="67.1094" y2="740.2031"/><line style="stroke:#181818;stroke-width:0.5;stroke-dasharray:5.0,5.0;" x1="938" x2="938" y1="67.1094" y2="740.2031"/><line style="stroke:#181818;stroke-width:0.5;stroke-dasharray:5.0,5.0;" x1="1055" x2="1055" y1="67.1094" y2="740.2031"/><line style="stroke:#181818;stroke-width:0.5;stroke-dasharray:5.0,5.0;" x1="1290" x2="1290" y1="160.7188" y2="740.2031"/><rect fill="#E3E3E3" height="61.1094" rx="2.5" ry="2.5" style="stroke:#181818;stroke-width:0.5;" width="266" x="245" y="5"/><text fill="#000000" font-family="sans-serif" font-size="20" lengthAdjust="spacing" textLength="243" x="256.5" y="31.3359">announcementRepository</text><text fill="#000000" font-family="sans-serif" font-size="20" lengthAdjust="spacing" textLength="252" x="252" y="54.8906">:AnnouncementRepository</text><rect fill="#E3E3E3" height="61.1094" rx="2.5" ry="2.5" style="stroke:#181818;stroke-width:0.5;" width="266" x="245" y="739.2031"/><text fill="#000000" font-family="sans-serif" font-size="20" lengthAdjust="spacing" textLength="243" x="256.5" y="765.5391">announcementRepository</text><text fill="#000000" font-family="sans-serif" font-size="20" lengthAdjust="spacing" textLength="252" x="252" y="789.0938">:AnnouncementRepository</text><rect fill="#E3E3E3" height="61.1094" rx="2.5" ry="2.5" style="stroke:#181818;stroke-width:0.5;" width="252" x="627" y="5"/><text fill="#000000" font-family="sans-serif" font-size="20" lengthAdjust="spacing" textLength="229" x="638.5" y="31.3359">announcementAvailable</text><text fill="#000000" font-family="sans-serif" font-size="20" lengthAdjust="spacing" textLength="238" x="634" y="54.8906">:AnnouncementAvailable</text><rect fill="#E3E3E3" height="61.1094" rx="2.5" ry="2.5" style="stroke:#181818;stroke-width:0.5;" width="252" x="627" y="739.2031"/><text fill="#000000" font-family="sans-serif" font-size="20" lengthAdjust="spacing" textLength="229" x="638.5" y="765.5391">announcementAvailable</text><text fill="#000000" font-family="sans-serif" font-size="20" lengthAdjust="spacing" textLength="238" x="634" y="789.0938">:AnnouncementAvailable</text><rect fill="#E3E3E3" height="61.1094" rx="2.5" ry="2.5" style="stroke:#181818;stroke-width:0.5;" width="76" x="900" y="5"/><text fill="#000000" font-family="sans-serif" font-size="20" lengthAdjust="spacing" textLength="53" x="911.5" y="31.3359">agent</text><text fill="#000000" font-family="sans-serif" font-size="20" lengthAdjust="spacing" textLength="62" x="907" y="54.8906">:Agent</text><rect fill="#E3E3E3" height="61.1094" rx="2.5" ry="2.5" style="stroke:#181818;stroke-width:0.5;" width="76" x="900" y="739.2031"/><text fill="#000000" font-family="sans-serif" font-size="20" lengthAdjust="spacing" textLength="53" x="911.5" y="765.5391">agent</text><text fill="#000000" font-family="sans-serif" font-size="20" lengthAdjust="spacing" textLength="62" x="907" y="789.0938">:Agent</text><rect fill="#E3E3E3" height="61.1094" rx="2.5" ry="2.5" style="stroke:#181818;stroke-width:0.5;" width="139" x="986" y="5"/><text fill="#000000" font-family="sans-serif" font-size="20" lengthAdjust="spacing" textLength="116" x="997.5" y="31.3359">visitRequest</text><text fill="#000000" font-family="sans-serif" font-size="20" lengthAdjust="spacing" textLength="125" x="993" y="54.8906">:VisitRequest</text><rect fill="#E3E3E3" height="61.1094" rx="2.5" ry="2.5" style="stroke:#181818;stroke-width:0.5;" width="139" x="986" y="739.2031"/><text fill="#000000" font-family="sans-serif" font-size="20" lengthAdjust="spacing" textLength="116" x="997.5" y="765.5391">visitRequest</text><text fill="#000000" font-family="sans-serif" font-size="20" lengthAdjust="spacing" textLength="125" x="993" y="789.0938">:VisitRequest</text><rect fill="#E3E3E3" height="61.1094" rx="2.5" ry="2.5" style="stroke:#181818;stroke-width:0.5;" width="205" x="1188" y="739.2031"/><text fill="#000000" font-family="sans-serif" font-size="20" lengthAdjust="spacing" textLength="153" x="1214" y="765.5391">ListVisitRequest</text><text fill="#000000" font-family="sans-serif" font-size="20" lengthAdjust="spacing" textLength="191" x="1195" y="789.0938">:List&lt;VisitRequest&gt;</text><rect fill="#FFFFFF" height="624.5391" style="stroke:#181818;stroke-width:1.0;" width="10" x="373" y="106.6641"/><rect fill="#FFFFFF" height="361.6563" style="stroke:#181818;stroke-width:1.0;" width="10" x="748" y="257.4375"/><rect fill="#FFFFFF" height="37.5547" style="stroke:#181818;stroke-width:1.0;" width="10" x="933" y="294.9922"/><rect fill="#FFFFFF" height="129.2188" style="stroke:#181818;stroke-width:1.0;" width="10" x="1050.5" y="452.3203"/><polygon fill="#181818" points="361,102.6641,371,106.6641,361,110.6641,365,106.6641" style="stroke:#181818;stroke-width:1.0;"/><line style="stroke:#181818;stroke-width:1.0;" x1="0" x2="367" y1="106.6641" y2="106.6641"/><text fill="#000000" font-family="sans-serif" font-size="20" font-weight="bold" lengthAdjust="spacing" textLength="13" x="7" y="100.4453">1</text><text fill="#000000" font-family="sans-serif" font-size="20" lengthAdjust="spacing" textLength="337" x="24" y="100.4453">getVisitRequestListForAgent(email)</text><polygon fill="#181818" points="1176,140.2188,1186,144.2188,1176,148.2188,1180,144.2188" style="stroke:#181818;stroke-width:1.0;"/><line style="stroke:#181818;stroke-width:1.0;" x1="383" x2="1182" y1="144.2188" y2="144.2188"/><text fill="#000000" font-family="sans-serif" font-size="20" font-weight="bold" lengthAdjust="spacing" textLength="13" x="390" y="138">2</text><text fill="#000000" font-family="sans-serif" font-size="20" lengthAdjust="spacing" textLength="58" x="407" y="138">create</text><rect fill="#E3E3E3" height="61.1094" rx="2.5" ry="2.5" style="stroke:#181818;stroke-width:0.5;" width="205" x="1188" y="114.6641"/><text fill="#000000" font-family="sans-serif" font-size="20" lengthAdjust="spacing" textLength="153" x="1214" y="141">ListVisitRequest</text><text fill="#000000" font-family="sans-serif" font-size="20" lengthAdjust="spacing" textLength="191" x="1195" y="164.5547">:List&lt;VisitRequest&gt;</text><path d="M205,193.7734 L296,193.7734 L296,209.3281 L286,219.3281 L205,219.3281 L205,193.7734 " fill="#EEEEEE" style="stroke:#000000;stroke-width:1.5;"/><rect fill="none" height="491.875" style="stroke:#000000;stroke-width:1.5;" width="1228" x="205" y="193.7734"/><text fill="#000000" font-family="sans-serif" font-size="20" font-weight="bold" lengthAdjust="spacing" textLength="46" x="220" y="214.1094">loop</text><text fill="#000000" font-family="sans-serif" font-size="20" font-weight="bold" lengthAdjust="spacing" textLength="261" x="311" y="215.1094">[for each Announcement]</text><polygon fill="#181818" points="736,253.4375,746,257.4375,736,261.4375,740,257.4375" style="stroke:#181818;stroke-width:1.0;"/><line style="stroke:#181818;stroke-width:1.0;" x1="383" x2="742" y1="257.4375" y2="257.4375"/><text fill="#000000" font-family="sans-serif" font-size="20" font-weight="bold" lengthAdjust="spacing" textLength="13" x="390" y="251.2188">3</text><text fill="#000000" font-family="sans-serif" font-size="20" lengthAdjust="spacing" textLength="329" x="407" y="251.2188">getAllVisitRequestForAgent(email)</text><polygon fill="#181818" points="921,290.9922,931,294.9922,921,298.9922,925,294.9922" style="stroke:#181818;stroke-width:1.0;"/><line style="stroke:#181818;stroke-width:1.0;" x1="758" x2="927" y1="294.9922" y2="294.9922"/><text fill="#000000" font-family="sans-serif" font-size="20" font-weight="bold" lengthAdjust="spacing" textLength="13" x="765" y="288.7734">4</text><text fill="#000000" font-family="sans-serif" font-size="20" lengthAdjust="spacing" textLength="139" x="782" y="288.7734">isAgent(email)</text><polygon fill="#181818" points="769,328.5469,759,332.5469,769,336.5469,765,332.5469" style="stroke:#181818;stroke-width:1.0;"/><line style="stroke:#181818;stroke-width:1.0;stroke-dasharray:2.0,2.0;" x1="763" x2="937" y1="332.5469" y2="332.5469"/><text fill="#000000" font-family="sans-serif" font-size="20" font-weight="bold" lengthAdjust="spacing" textLength="13" x="775" y="326.3281">5</text><text fill="#000000" font-family="sans-serif" font-size="20" lengthAdjust="spacing" textLength="93" x="792" y="326.3281">true/false</text><path d="M215,347.5469 L287,347.5469 L287,363.1016 L277,373.1016 L215,373.1016 L215,347.5469 " fill="#EEEEEE" style="stroke:#000000;stroke-width:1.5;"/><rect fill="none" height="331.1016" style="stroke:#000000;stroke-width:1.5;" width="1208" x="215" y="347.5469"/><text fill="#000000" font-family="sans-serif" font-size="20" font-weight="bold" lengthAdjust="spacing" textLength="27" x="230" y="367.8828">alt</text><text fill="#000000" font-family="sans-serif" font-size="20" font-weight="bold" lengthAdjust="spacing" textLength="252" x="302" y="368.8828">[isAgent(email) == true]</text><path d="M225,388.6563 L316,388.6563 L316,404.2109 L306,414.2109 L225,414.2109 L225,388.6563 " fill="#EEEEEE" style="stroke:#000000;stroke-width:1.5;"/><rect fill="none" height="282.9922" style="stroke:#000000;stroke-width:1.5;" width="1188" x="225" y="388.6563"/><text fill="#000000" font-family="sans-serif" font-size="20" font-weight="bold" lengthAdjust="spacing" textLength="46" x="240" y="408.9922">loop</text><text fill="#000000" font-family="sans-serif" font-size="20" font-weight="bold" lengthAdjust="spacing" textLength="227" x="331" y="409.9922">[foreach visitRequest]</text><polygon fill="#181818" points="1038.5,448.3203,1048.5,452.3203,1038.5,456.3203,1042.5,452.3203" style="stroke:#181818;stroke-width:1.0;"/><line style="stroke:#181818;stroke-width:1.0;" x1="758" x2="1044.5" y1="452.3203" y2="452.3203"/><text fill="#000000" font-family="sans-serif" font-size="20" font-weight="bold" lengthAdjust="spacing" textLength="13" x="765" y="446.1016">6</text><text fill="#000000" font-family="sans-serif" font-size="20" lengthAdjust="spacing" textLength="148" x="782" y="446.1016">isStateWaiting()</text><line style="stroke:#181818;stroke-width:1.0;" x1="1060.5" x2="1102.5" y1="489.875" y2="489.875"/><line style="stroke:#181818;stroke-width:1.0;" x1="1102.5" x2="1102.5" y1="489.875" y2="502.875"/><line style="stroke:#181818;stroke-width:1.0;" x1="1061.5" x2="1102.5" y1="502.875" y2="502.875"/><polygon fill="#181818" points="1071.5,498.875,1061.5,502.875,1071.5,506.875,1067.5,502.875" style="stroke:#181818;stroke-width:1.0;"/><text fill="#000000" font-family="sans-serif" font-size="20" font-weight="bold" lengthAdjust="spacing" textLength="13" x="1067.5" y="483.6563">7</text><text fill="#000000" font-family="sans-serif" font-size="20" lengthAdjust="spacing" textLength="194" x="1084.5" y="483.6563">isDateBeforeToday()</text><path d="M235,517.875 L307,517.875 L307,533.4297 L297,543.4297 L235,543.4297 L235,517.875 " fill="#EEEEEE" style="stroke:#000000;stroke-width:1.5;"/><rect fill="none" height="146.7734" style="stroke:#000000;stroke-width:1.5;" width="1168" x="235" y="517.875"/><text fill="#000000" font-family="sans-serif" font-size="20" font-weight="bold" lengthAdjust="spacing" textLength="27" x="250" y="538.2109">alt</text><text fill="#000000" font-family="sans-serif" font-size="20" font-weight="bold" lengthAdjust="spacing" textLength="578" x="322" y="539.2109">[isStateWaiting == true &amp;&amp; isDateBeforeToday == true]</text><polygon fill="#181818" points="769,577.5391,759,581.5391,769,585.5391,765,581.5391" style="stroke:#181818;stroke-width:1.0;"/><line style="stroke:#181818;stroke-width:1.0;stroke-dasharray:2.0,2.0;" x1="763" x2="1054.5" y1="581.5391" y2="581.5391"/><text fill="#000000" font-family="sans-serif" font-size="20" font-weight="bold" lengthAdjust="spacing" textLength="13" x="775" y="575.3203">8</text><text fill="#000000" font-family="sans-serif" font-size="20" lengthAdjust="spacing" textLength="116" x="792" y="575.3203">visitRequest</text><polygon fill="#181818" points="394,615.0938,384,619.0938,394,623.0938,390,619.0938" style="stroke:#181818;stroke-width:1.0;"/><line style="stroke:#181818;stroke-width:1.0;stroke-dasharray:2.0,2.0;" x1="388" x2="752" y1="619.0938" y2="619.0938"/><text fill="#000000" font-family="sans-serif" font-size="20" font-weight="bold" lengthAdjust="spacing" textLength="13" x="400" y="612.875">9</text><text fill="#000000" font-family="sans-serif" font-size="20" lengthAdjust="spacing" textLength="116" x="417" y="612.875">visitRequest</text><polygon fill="#181818" points="1278.5,652.6484,1288.5,656.6484,1278.5,660.6484,1282.5,656.6484" style="stroke:#181818;stroke-width:1.0;"/><line style="stroke:#181818;stroke-width:1.0;" x1="383" x2="1284.5" y1="656.6484" y2="656.6484"/><text fill="#000000" font-family="sans-serif" font-size="20" font-weight="bold" lengthAdjust="spacing" textLength="26" x="390" y="650.4297">10</text><text fill="#000000" font-family="sans-serif" font-size="20" lengthAdjust="spacing" textLength="167" x="420" y="650.4297">add(visitRequest)</text><polygon fill="#181818" points="11,718.2031,1,722.2031,11,726.2031,7,722.2031" style="stroke:#181818;stroke-width:1.0;"/><line style="stroke:#181818;stroke-width:1.0;stroke-dasharray:2.0,2.0;" x1="5" x2="372" y1="722.2031" y2="722.2031"/><text fill="#000000" font-family="sans-serif" font-size="20" font-weight="bold" lengthAdjust="spacing" textLength="26" x="17" y="715.9844">11</text><text fill="#000000" font-family="sans-serif" font-size="20" lengthAdjust="spacing" textLength="153" x="47" y="715.9844">ListVisitRequest</text><!--SRC=[lLJ1Rjim3BthAuWUkgH0i657emsGekXffwReBhim4kC8aINNbjDbNpz9XWjPjfEqX_8IXEHx91zDrNkfIwomK8RlIO2WBJRAFXfjr_8VmSyVhEvIe33Qy5rb2W9RDHH5IkHxp6bjZugW8cvHvofEg7Sep9lKEMnHrSGODjRefjXGnTYtdHG4MsFinlnbpXp6IYvBr1QkK6lJQ4u5QVj4fQcbDTNnZyvMeu4hm1hIq3JZwe1IuKPHGlZk7_0bNBbpUQp_3Rd1aynmaAwv9tfjgFR9Bz7VW0dnFkINhErB7-PTjx5l6S3UxLM3s1RBWGYGGKuzJezyD5NeVKQ5ctZUPt66tCe3MXfg2YEM9YsMliRDJSOhSYHi5AICATtwAo3akxxMC663sP9vCpVfIgbus7E3dXpueaPy4s7x6SZwOxNQZsOoBG_ioOnkd_uClxSNDOKLr1MPfbSsQHZkxjeJXnFMhIriBVx2JwB6H0jWyAgjhMlqDqhhdehP_2pHktxj0PrBR-lq2Zuuz3tvAPwDmECbDODQSQETMd1zFMIyICfUWsxFoPe_9Ew5Iv_QHrBT7rVsbVMxQ_RlHWOen2okFcTd2KaBzjduL6pAVxjOZBoowTFDs7y0]--></g></svg>