<?xml version="1.0" encoding="UTF-8" standalone="no"?><svg xmlns="http://www.w3.org/2000/svg" xmlns:xlink="http://www.w3.org/1999/xlink" contentStyleType="text/css" height="613px" preserveAspectRatio="none" style="width:1058px;height:613px;background:#FFFFFF;" version="1.1" viewBox="0 0 1058 613" width="1058px" zoomAndPan="magnify"><defs/><g><rect fill="#FFFFFF" height="423.1016" style="stroke:#181818;stroke-width:1.0;" width="10" x="256" y="106.6641"/><rect fill="#FFFFFF" height="42.5547" style="stroke:#181818;stroke-width:1.0;" width="10" x="261" y="340.5469"/><rect fill="#FFFFFF" height="37.5547" style="stroke:#181818;stroke-width:1.0;" width="10" x="483" y="257.4375"/><rect fill="#FFFFFF" height="30" style="stroke:#181818;stroke-width:1.0;" width="10" x="720" y="455.2109"/><rect fill="none" height="299.4375" style="stroke:#000000;stroke-width:1.5;" width="907.5" x="145" y="193.7734"/><line style="stroke:#181818;stroke-width:0.5;stroke-dasharray:5.0,5.0;" x1="261" x2="261" y1="67.1094" y2="547.7656"/><line style="stroke:#181818;stroke-width:0.5;stroke-dasharray:5.0,5.0;" x1="487.5" x2="487.5" y1="67.1094" y2="547.7656"/><line style="stroke:#181818;stroke-width:0.5;stroke-dasharray:5.0,5.0;" x1="724.5" x2="724.5" y1="160.7188" y2="547.7656"/><line style="stroke:#181818;stroke-width:0.5;stroke-dasharray:5.0,5.0;" x1="950.5" x2="950.5" y1="399.6016" y2="547.7656"/><rect fill="#E3E3E3" height="61.1094" rx="2.5" ry="2.5" style="stroke:#181818;stroke-width:0.5;" width="212" x="155" y="5"/><text fill="#000000" font-family="sans-serif" font-size="20" lengthAdjust="spacing" textLength="189" x="166.5" y="31.3359">visitRequestMapper</text><text fill="#000000" font-family="sans-serif" font-size="20" lengthAdjust="spacing" textLength="198" x="162" y="54.8906">:VisitRequestMapper</text><rect fill="#E3E3E3" height="61.1094" rx="2.5" ry="2.5" style="stroke:#181818;stroke-width:0.5;" width="212" x="155" y="546.7656"/><text fill="#000000" font-family="sans-serif" font-size="20" lengthAdjust="spacing" textLength="189" x="166.5" y="573.1016">visitRequestMapper</text><text fill="#000000" font-family="sans-serif" font-size="20" lengthAdjust="spacing" textLength="198" x="162" y="596.6563">:VisitRequestMapper</text><rect fill="#E3E3E3" height="61.1094" rx="2.5" ry="2.5" style="stroke:#181818;stroke-width:0.5;" width="205" x="385.5" y="5"/><text fill="#000000" font-family="sans-serif" font-size="20" lengthAdjust="spacing" textLength="153" x="411.5" y="31.3359">ListVisitRequest</text><text fill="#000000" font-family="sans-serif" font-size="20" lengthAdjust="spacing" textLength="191" x="392.5" y="54.8906">:List&lt;VisitRequest&gt;</text><rect fill="#E3E3E3" height="61.1094" rx="2.5" ry="2.5" style="stroke:#181818;stroke-width:0.5;" width="205" x="385.5" y="546.7656"/><text fill="#000000" font-family="sans-serif" font-size="20" lengthAdjust="spacing" textLength="153" x="411.5" y="573.1016">ListVisitRequest</text><text fill="#000000" font-family="sans-serif" font-size="20" lengthAdjust="spacing" textLength="191" x="392.5" y="596.6563">:List&lt;VisitRequest&gt;</text><rect fill="#E3E3E3" height="61.1094" rx="2.5" ry="2.5" style="stroke:#181818;stroke-width:0.5;" width="249" x="600.5" y="546.7656"/><text fill="#000000" font-family="sans-serif" font-size="20" lengthAdjust="spacing" textLength="197" x="626.5" y="573.1016">ListVisitRequestDTO</text><text fill="#000000" font-family="sans-serif" font-size="20" lengthAdjust="spacing" textLength="235" x="607.5" y="596.6563">:List&lt;VisitRequestDTO&gt;</text><rect fill="#E3E3E3" height="61.1094" rx="2.5" ry="2.5" style="stroke:#181818;stroke-width:0.5;" width="183" x="859.5" y="546.7656"/><text fill="#000000" font-family="sans-serif" font-size="20" lengthAdjust="spacing" textLength="160" x="871" y="573.1016">visitRequestDTO</text><text fill="#000000" font-family="sans-serif" font-size="20" lengthAdjust="spacing" textLength="169" x="866.5" y="596.6563">:VisitRequestDTO</text><rect fill="#FFFFFF" height="423.1016" style="stroke:#181818;stroke-width:1.0;" width="10" x="256" y="106.6641"/><rect fill="#FFFFFF" height="42.5547" style="stroke:#181818;stroke-width:1.0;" width="10" x="261" y="340.5469"/><rect fill="#FFFFFF" height="37.5547" style="stroke:#181818;stroke-width:1.0;" width="10" x="483" y="257.4375"/><rect fill="#FFFFFF" height="30" style="stroke:#181818;stroke-width:1.0;" width="10" x="720" y="455.2109"/><polygon fill="#181818" points="244,102.6641,254,106.6641,244,110.6641,248,106.6641" style="stroke:#181818;stroke-width:1.0;"/><line style="stroke:#181818;stroke-width:1.0;" x1="0" x2="250" y1="106.6641" y2="106.6641"/><text fill="#000000" font-family="sans-serif" font-size="20" font-weight="bold" lengthAdjust="spacing" textLength="13" x="7" y="100.4453">1</text><text fill="#000000" font-family="sans-serif" font-size="20" lengthAdjust="spacing" textLength="220" x="24" y="100.4453">toDto(ListVisitRequest)</text><polygon fill="#181818" points="588.5,140.2188,598.5,144.2188,588.5,148.2188,592.5,144.2188" style="stroke:#181818;stroke-width:1.0;"/><line style="stroke:#181818;stroke-width:1.0;" x1="266" x2="594.5" y1="144.2188" y2="144.2188"/><text fill="#000000" font-family="sans-serif" font-size="20" font-weight="bold" lengthAdjust="spacing" textLength="13" x="273" y="138">2</text><text fill="#000000" font-family="sans-serif" font-size="20" lengthAdjust="spacing" textLength="102" x="290" y="138">createDTO</text><rect fill="#E3E3E3" height="61.1094" rx="2.5" ry="2.5" style="stroke:#181818;stroke-width:0.5;" width="249" x="600.5" y="114.6641"/><text fill="#000000" font-family="sans-serif" font-size="20" lengthAdjust="spacing" textLength="197" x="626.5" y="141">ListVisitRequestDTO</text><text fill="#000000" font-family="sans-serif" font-size="20" lengthAdjust="spacing" textLength="235" x="607.5" y="164.5547">:List&lt;VisitRequestDTO&gt;</text><path d="M145,193.7734 L236,193.7734 L236,209.3281 L226,219.3281 L145,219.3281 L145,193.7734 " fill="#EEEEEE" style="stroke:#000000;stroke-width:1.5;"/><rect fill="none" height="299.4375" style="stroke:#000000;stroke-width:1.5;" width="907.5" x="145" y="193.7734"/><text fill="#000000" font-family="sans-serif" font-size="20" font-weight="bold" lengthAdjust="spacing" textLength="46" x="160" y="214.1094">loop</text><text fill="#000000" font-family="sans-serif" font-size="20" font-weight="bold" lengthAdjust="spacing" textLength="276" x="251" y="215.1094">[foreach object of the List]</text><polygon fill="#181818" points="471,253.4375,481,257.4375,471,261.4375,475,257.4375" style="stroke:#181818;stroke-width:1.0;"/><line style="stroke:#181818;stroke-width:1.0;" x1="266" x2="477" y1="257.4375" y2="257.4375"/><text fill="#000000" font-family="sans-serif" font-size="20" font-weight="bold" lengthAdjust="spacing" textLength="13" x="273" y="251.2188">3</text><text fill="#000000" font-family="sans-serif" font-size="20" lengthAdjust="spacing" textLength="50" x="290" y="251.2188">get(i)</text><polygon fill="#181818" points="277,290.9922,267,294.9922,277,298.9922,273,294.9922" style="stroke:#181818;stroke-width:1.0;"/><line style="stroke:#181818;stroke-width:1.0;stroke-dasharray:2.0,2.0;" x1="271" x2="487" y1="294.9922" y2="294.9922"/><text fill="#000000" font-family="sans-serif" font-size="20" font-weight="bold" lengthAdjust="spacing" textLength="13" x="283" y="288.7734">4</text><text fill="#000000" font-family="sans-serif" font-size="20" lengthAdjust="spacing" textLength="119" x="300" y="288.7734">VisitRequest</text><line style="stroke:#181818;stroke-width:1.0;" x1="266" x2="313" y1="327.5469" y2="327.5469"/><line style="stroke:#181818;stroke-width:1.0;" x1="313" x2="313" y1="327.5469" y2="340.5469"/><line style="stroke:#181818;stroke-width:1.0;" x1="272" x2="313" y1="340.5469" y2="340.5469"/><polygon fill="#181818" points="282,336.5469,272,340.5469,282,344.5469,278,340.5469" style="stroke:#181818;stroke-width:1.0;"/><text fill="#000000" font-family="sans-serif" font-size="20" font-weight="bold" lengthAdjust="spacing" textLength="13" x="278" y="321.3281">5</text><text fill="#000000" font-family="sans-serif" font-size="20" lengthAdjust="spacing" textLength="186" x="295" y="321.3281">toDto(VisitRequest)</text><polygon fill="#181818" points="847.5,379.1016,857.5,383.1016,847.5,387.1016,851.5,383.1016" style="stroke:#181818;stroke-width:1.0;"/><line style="stroke:#181818;stroke-width:1.0;" x1="266" x2="853.5" y1="383.1016" y2="383.1016"/><text fill="#000000" font-family="sans-serif" font-size="20" font-weight="bold" lengthAdjust="spacing" textLength="13" x="273" y="376.8828">6</text><text fill="#000000" font-family="sans-serif" font-size="20" lengthAdjust="spacing" textLength="191" x="290" y="376.8828">create(VisitRequest)</text><rect fill="#E3E3E3" height="61.1094" rx="2.5" ry="2.5" style="stroke:#181818;stroke-width:0.5;" width="183" x="859.5" y="353.5469"/><text fill="#000000" font-family="sans-serif" font-size="20" lengthAdjust="spacing" textLength="160" x="871" y="379.8828">visitRequestDTO</text><text fill="#000000" font-family="sans-serif" font-size="20" lengthAdjust="spacing" textLength="169" x="866.5" y="403.4375">:VisitRequestDTO</text><polygon fill="#181818" points="708,451.2109,718,455.2109,708,459.2109,712,455.2109" style="stroke:#181818;stroke-width:1.0;"/><line style="stroke:#181818;stroke-width:1.0;stroke-dasharray:2.0,2.0;" x1="266" x2="714" y1="455.2109" y2="455.2109"/><text fill="#000000" font-family="sans-serif" font-size="20" font-weight="bold" lengthAdjust="spacing" textLength="13" x="273" y="448.9922">7</text><text fill="#000000" font-family="sans-serif" font-size="20" lengthAdjust="spacing" textLength="214" x="290" y="448.9922">add(VisitRequestDTO)</text><polygon fill="#181818" points="11,525.7656,1,529.7656,11,533.7656,7,529.7656" style="stroke:#181818;stroke-width:1.0;"/><line style="stroke:#181818;stroke-width:1.0;stroke-dasharray:2.0,2.0;" x1="5" x2="260" y1="529.7656" y2="529.7656"/><text fill="#000000" font-family="sans-serif" font-size="20" font-weight="bold" lengthAdjust="spacing" textLength="13" x="17" y="523.5469">8</text><text fill="#000000" font-family="sans-serif" font-size="20" lengthAdjust="spacing" textLength="197" x="34" y="523.5469">ListVisitRequestDTO</text><!--SRC=[VLBBReCm4Bpp5QjScaP2gdf4KKvHJwqgDLLFlJZs0cx0I_6IFhw-1b9YdZx1xCvuTjRsf4qXIf5d94-eG64igemVoF11_oBStmNslmLoCYJJad84BYlqAeMG9v7WWNyoX18b2vDaVeDDXQ8lRHA8HMOn24J5PAhyY6KGtAHQ8SH4VAJlm1t7OIrr8Gp3wgojvXVyhD3oaoWABDzDz3O2Lo0ivCtdGE1HM_Rx7Rs6jZwsQ-WrlCpTlpvFqHryLN0_ynEq0WDkGwrfxi3eXBlBN17Jdcazz7GxmH6IzLamTedunHOBTnUpcqqaItJDjGE_BoCgt5fSJQP0nm-tLw0OECKsgR5cxRKkGGG9ybhthNMcHko64tQ3Ehe_OAzLOLzcnaKdr6OsdzSmgQcWe4d9YRKvBQXTtKtwkiJZv9oOK6ezU0WBUGsNuztKmz6euJFQXc4NnyI3dfFz0m00]--></g></svg>