<?xml version="1.0" encoding="UTF-8" standalone="no"?><svg xmlns="http://www.w3.org/2000/svg" xmlns:xlink="http://www.w3.org/1999/xlink" contentStyleType="text/css" height="534px" preserveAspectRatio="none" style="width:1390px;height:534px;background:#FFFFFF;" version="1.1" viewBox="0 0 1390 534" width="1390px" zoomAndPan="magnify"><defs/><g><rect fill="#FFFFFF" height="372.9922" style="stroke:#181818;stroke-width:1.0;" width="10" x="199" y="77.1094"/><rect fill="#FFFFFF" height="112.6641" style="stroke:#181818;stroke-width:1.0;" width="10" x="509" y="106.6641"/><rect fill="#FFFFFF" height="37.5547" style="stroke:#181818;stroke-width:1.0;" width="10" x="790" y="144.2188"/><rect fill="#FFFFFF" height="155.6641" style="stroke:#181818;stroke-width:1.0;" width="10" x="790" y="256.8828"/><rect fill="#FFFFFF" height="30" style="stroke:#181818;stroke-width:1.0;" width="10" x="1271" y="294.4375"/><line style="stroke:#181818;stroke-width:0.5;stroke-dasharray:5.0,5.0;" x1="204" x2="204" y1="67.1094" y2="468.1016"/><line style="stroke:#181818;stroke-width:0.5;stroke-dasharray:5.0,5.0;" x1="514" x2="514" y1="67.1094" y2="468.1016"/><line style="stroke:#181818;stroke-width:0.5;stroke-dasharray:5.0,5.0;" x1="794.5" x2="794.5" y1="67.1094" y2="468.1016"/><line style="stroke:#181818;stroke-width:0.5;stroke-dasharray:5.0,5.0;" x1="1276" x2="1276" y1="67.1094" y2="468.1016"/><rect fill="#E3E3E3" height="37.5547" rx="2.5" ry="2.5" style="stroke:#181818;stroke-width:0.5;" width="260" x="74" y="28.5547"/><text fill="#000000" font-family="sans-serif" font-size="20" lengthAdjust="spacing" textLength="246" x="81" y="54.8906">:AnnouncementController</text><rect fill="#E3E3E3" height="37.5547" rx="2.5" ry="2.5" style="stroke:#181818;stroke-width:0.5;" width="260" x="74" y="467.1016"/><text fill="#000000" font-family="sans-serif" font-size="20" lengthAdjust="spacing" textLength="246" x="81" y="493.4375">:AnnouncementController</text><rect fill="#E3E3E3" height="61.1094" rx="2.5" ry="2.5" style="stroke:#181818;stroke-width:0.5;" width="212" x="408" y="5"/><text fill="#000000" font-family="sans-serif" font-size="20" lengthAdjust="spacing" textLength="189" x="419.5" y="31.3359">visitRequestMapper</text><text fill="#000000" font-family="sans-serif" font-size="20" lengthAdjust="spacing" textLength="198" x="415" y="54.8906">:VisitRequestMapper</text><rect fill="#E3E3E3" height="61.1094" rx="2.5" ry="2.5" style="stroke:#181818;stroke-width:0.5;" width="212" x="408" y="467.1016"/><text fill="#000000" font-family="sans-serif" font-size="20" lengthAdjust="spacing" textLength="189" x="419.5" y="493.4375">visitRequestMapper</text><text fill="#000000" font-family="sans-serif" font-size="20" lengthAdjust="spacing" textLength="198" x="415" y="516.9922">:VisitRequestMapper</text><rect fill="#E3E3E3" height="61.1094" rx="2.5" ry="2.5" style="stroke:#181818;stroke-width:0.5;" width="139" x="725.5" y="5"/><text fill="#000000" font-family="sans-serif" font-size="20" lengthAdjust="spacing" textLength="116" x="737" y="31.3359">visitRequest</text><text fill="#000000" font-family="sans-serif" font-size="20" lengthAdjust="spacing" textLength="125" x="732.5" y="54.8906">:VisitRequest</text><rect fill="#E3E3E3" height="61.1094" rx="2.5" ry="2.5" style="stroke:#181818;stroke-width:0.5;" width="139" x="725.5" y="467.1016"/><text fill="#000000" font-family="sans-serif" font-size="20" lengthAdjust="spacing" textLength="116" x="737" y="493.4375">visitRequest</text><text fill="#000000" font-family="sans-serif" font-size="20" lengthAdjust="spacing" textLength="125" x="732.5" y="516.9922">:VisitRequest</text><rect fill="#E3E3E3" height="61.1094" rx="2.5" ry="2.5" style="stroke:#181818;stroke-width:0.5;" width="216" x="1168" y="5"/><text fill="#000000" font-family="sans-serif" font-size="20" lengthAdjust="spacing" textLength="193" x="1179.5" y="31.3359">visitRequestOpinion</text><text fill="#000000" font-family="sans-serif" font-size="20" lengthAdjust="spacing" textLength="202" x="1175" y="54.8906">:VisitRequestOpinion</text><rect fill="#E3E3E3" height="61.1094" rx="2.5" ry="2.5" style="stroke:#181818;stroke-width:0.5;" width="216" x="1168" y="467.1016"/><text fill="#000000" font-family="sans-serif" font-size="20" lengthAdjust="spacing" textLength="193" x="1179.5" y="493.4375">visitRequestOpinion</text><text fill="#000000" font-family="sans-serif" font-size="20" lengthAdjust="spacing" textLength="202" x="1175" y="516.9922">:VisitRequestOpinion</text><rect fill="#FFFFFF" height="372.9922" style="stroke:#181818;stroke-width:1.0;" width="10" x="199" y="77.1094"/><rect fill="#FFFFFF" height="112.6641" style="stroke:#181818;stroke-width:1.0;" width="10" x="509" y="106.6641"/><rect fill="#FFFFFF" height="37.5547" style="stroke:#181818;stroke-width:1.0;" width="10" x="790" y="144.2188"/><rect fill="#FFFFFF" height="155.6641" style="stroke:#181818;stroke-width:1.0;" width="10" x="790" y="256.8828"/><rect fill="#FFFFFF" height="30" style="stroke:#181818;stroke-width:1.0;" width="10" x="1271" y="294.4375"/><polygon fill="#181818" points="497,102.6641,507,106.6641,497,110.6641,501,106.6641" style="stroke:#181818;stroke-width:1.0;"/><line style="stroke:#181818;stroke-width:1.0;" x1="209" x2="503" y1="106.6641" y2="106.6641"/><text fill="#000000" font-family="sans-serif" font-size="20" font-weight="bold" lengthAdjust="spacing" textLength="13" x="216" y="100.4453">1</text><text fill="#000000" font-family="sans-serif" font-size="20" lengthAdjust="spacing" textLength="264" x="233" y="100.4453">fromDTO(visitRequestDTO)</text><polygon fill="#181818" points="778,140.2188,788,144.2188,778,148.2188,782,144.2188" style="stroke:#181818;stroke-width:1.0;"/><line style="stroke:#181818;stroke-width:1.0;" x1="519" x2="784" y1="144.2188" y2="144.2188"/><text fill="#000000" font-family="sans-serif" font-size="20" font-weight="bold" lengthAdjust="spacing" textLength="13" x="526" y="138">2</text><text fill="#000000" font-family="sans-serif" font-size="20" lengthAdjust="spacing" textLength="235" x="543" y="138">create(VisitRequestDTO)</text><polygon fill="#181818" points="530,177.7734,520,181.7734,530,185.7734,526,181.7734" style="stroke:#181818;stroke-width:1.0;"/><line style="stroke:#181818;stroke-width:1.0;stroke-dasharray:2.0,2.0;" x1="524" x2="794" y1="181.7734" y2="181.7734"/><text fill="#000000" font-family="sans-serif" font-size="20" font-weight="bold" lengthAdjust="spacing" textLength="13" x="536" y="175.5547">3</text><text fill="#000000" font-family="sans-serif" font-size="20" lengthAdjust="spacing" textLength="133" x="553" y="175.5547">(VisitRequest)</text><polygon fill="#181818" points="220,215.3281,210,219.3281,220,223.3281,216,219.3281" style="stroke:#181818;stroke-width:1.0;"/><line style="stroke:#181818;stroke-width:1.0;stroke-dasharray:2.0,2.0;" x1="214" x2="513" y1="219.3281" y2="219.3281"/><text fill="#000000" font-family="sans-serif" font-size="20" font-weight="bold" lengthAdjust="spacing" textLength="13" x="226" y="213.1094">4</text><text fill="#000000" font-family="sans-serif" font-size="20" lengthAdjust="spacing" textLength="116" x="243" y="213.1094">visitRequest</text><polygon fill="#181818" points="778,252.8828,788,256.8828,778,260.8828,782,256.8828" style="stroke:#181818;stroke-width:1.0;"/><line style="stroke:#181818;stroke-width:1.0;" x1="209" x2="784" y1="256.8828" y2="256.8828"/><text fill="#000000" font-family="sans-serif" font-size="20" font-weight="bold" lengthAdjust="spacing" textLength="13" x="216" y="250.6641">5</text><text fill="#000000" font-family="sans-serif" font-size="20" lengthAdjust="spacing" textLength="275" x="233" y="250.6641">create(opinion,classification)</text><polygon fill="#181818" points="1259,290.4375,1269,294.4375,1259,298.4375,1263,294.4375" style="stroke:#181818;stroke-width:1.0;"/><line style="stroke:#181818;stroke-width:1.0;" x1="800" x2="1265" y1="294.4375" y2="294.4375"/><text fill="#000000" font-family="sans-serif" font-size="20" font-weight="bold" lengthAdjust="spacing" textLength="13" x="807" y="288.2188">6</text><text fill="#000000" font-family="sans-serif" font-size="20" lengthAdjust="spacing" textLength="275" x="824" y="288.2188">create(opinion,classification)</text><line style="stroke:#181818;stroke-width:1.0;" x1="800" x2="842" y1="361.9922" y2="361.9922"/><line style="stroke:#181818;stroke-width:1.0;" x1="842" x2="842" y1="361.9922" y2="374.9922"/><line style="stroke:#181818;stroke-width:1.0;" x1="801" x2="842" y1="374.9922" y2="374.9922"/><polygon fill="#181818" points="811,370.9922,801,374.9922,811,378.9922,807,374.9922" style="stroke:#181818;stroke-width:1.0;"/><text fill="#000000" font-family="sans-serif" font-size="20" font-weight="bold" lengthAdjust="spacing" textLength="13" x="807" y="355.7734">7</text><text fill="#000000" font-family="sans-serif" font-size="20" lengthAdjust="spacing" textLength="440" x="824" y="355.7734">addVisitRequestOpinion(visitRequestOpinion)</text><polygon fill="#181818" points="220,408.5469,210,412.5469,220,416.5469,216,412.5469" style="stroke:#181818;stroke-width:1.0;"/><line style="stroke:#181818;stroke-width:1.0;" x1="214" x2="794" y1="412.5469" y2="412.5469"/><text fill="#000000" font-family="sans-serif" font-size="20" font-weight="bold" lengthAdjust="spacing" textLength="13" x="226" y="406.3281">8</text><text fill="#000000" font-family="sans-serif" font-size="20" lengthAdjust="spacing" textLength="73" x="243" y="406.3281">success</text><polygon fill="#181818" points="11,446.1016,1,450.1016,11,454.1016,7,450.1016" style="stroke:#181818;stroke-width:1.0;"/><line style="stroke:#181818;stroke-width:1.0;stroke-dasharray:2.0,2.0;" x1="5" x2="203" y1="450.1016" y2="450.1016"/><text fill="#000000" font-family="sans-serif" font-size="20" font-weight="bold" lengthAdjust="spacing" textLength="13" x="17" y="443.8828">9</text><text fill="#000000" font-family="sans-serif" font-size="20" lengthAdjust="spacing" textLength="163" x="34" y="443.8828">success message</text><!--SRC=[bLDDQyCm3BtxLuXTri82OySm0cDZjr5OHq-xg8xIcZfsPYlTnw-VvwHjcfgEwX0aI-z5UfRzHfa67TRQoWsLK5A5hUPdQtYkVWZkReNVbK1jZPLhPsi2TYqDCWtA3Qvepj-Qm95aD2izBF1hBEsdCYkeK7iI0bksfgsNv8IuNgkIeBAMb_PB214WhAHgq31SvG_6sDP8gidmO-ZBMQt9NG5waFjm1Degh_YLFbho_89DG-xTv8kJmqXIH_SCmGWQGJ5_1ZDhb57MZA3zQMImdH-KaAoso3IS1e8TmgpeUioX2k8_lSqcmr-5U1e1OziJznEcQhfKLaJ2N3eAzPF5HUoT5AcIcCaEtHyHfrbBsl6UQpSh3kBaGot-unm92ra1HvFtbt8ZDNglAYMHGzYrcXWuUdyaFGvok8HejmA9mJlf-cl1ianiqIInRzCXUA2HRwKaxqLAZliiEws4Edp2YnuXZbvSi5y0]--></g></svg>