<?xml version="1.0" encoding="UTF-8" standalone="no"?><svg xmlns="http://www.w3.org/2000/svg" xmlns:xlink="http://www.w3.org/1999/xlink" contentStyleType="text/css" height="1141px" preserveAspectRatio="none" style="width:1423px;height:1141px;background:#FFFFFF;" version="1.1" viewBox="0 0 1423 1141" width="1423px" zoomAndPan="magnify"><defs/><g><!--class UI--><g id="elem_UI"><rect codeLine="22" fill="#F1F1F1" height="50" id="UI" rx="2.5" ry="2.5" style="stroke:#181818;stroke-width:0.5;" width="344" x="7" y="89.5"/><ellipse cx="23" cy="106.5" fill="#ADD1B2" rx="12" ry="12" style="stroke:#181818;stroke-width:1.0;"/><path d="M25.8066,113.5801 Q25.123,113.9316 24.3711,114.1074 Q23.6191,114.2832 22.7891,114.2832 Q19.8398,114.2832 18.2871,112.3398 Q16.7344,110.3965 16.7344,106.7246 Q16.7344,103.043 18.2871,101.0996 Q19.8398,99.1563 22.7891,99.1563 Q23.6191,99.1563 24.3809,99.332 Q25.1426,99.5078 25.8066,99.8594 L25.8066,103.0625 Q25.0645,102.3789 24.3662,102.0615 Q23.668,101.7441 22.9258,101.7441 Q21.3438,101.7441 20.5381,102.999 Q19.7324,104.2539 19.7324,106.7246 Q19.7324,109.1855 20.5381,110.4404 Q21.3438,111.6953 22.9258,111.6953 Q23.668,111.6953 24.3662,111.3779 Q25.0645,111.0605 25.8066,110.377 Z " fill="#000000"/><text fill="#000000" font-family="sans-serif" font-size="20" lengthAdjust="spacing" textLength="310" x="38" y="114.0586">RespondsVisitRequestOpinionUI</text><line style="stroke:#181818;stroke-width:0.5;" x1="8" x2="350" y1="123.5" y2="123.5"/><line style="stroke:#181818;stroke-width:0.5;" x1="8" x2="350" y1="131.5" y2="131.5"/></g><!--class repo--><g id="elem_repo"><rect codeLine="15" fill="#F1F1F1" height="120.6641" id="repo" rx="2.5" ry="2.5" style="stroke:#181818;stroke-width:0.5;" width="318" x="972" y="54"/><ellipse cx="1067" cy="71" fill="#ADD1B2" rx="12" ry="12" style="stroke:#181818;stroke-width:1.0;"/><path d="M1069.8066,78.0801 Q1069.123,78.4316 1068.3711,78.6074 Q1067.6191,78.7832 1066.7891,78.7832 Q1063.8398,78.7832 1062.2871,76.8398 Q1060.7344,74.8965 1060.7344,71.2246 Q1060.7344,67.543 1062.2871,65.5996 Q1063.8398,63.6563 1066.7891,63.6563 Q1067.6191,63.6563 1068.3809,63.832 Q1069.1426,64.0078 1069.8066,64.3594 L1069.8066,67.5625 Q1069.0645,66.8789 1068.3662,66.5615 Q1067.668,66.2441 1066.9258,66.2441 Q1065.3438,66.2441 1064.5381,67.499 Q1063.7324,68.7539 1063.7324,71.2246 Q1063.7324,73.6855 1064.5381,74.9404 Q1065.3438,76.1953 1066.9258,76.1953 Q1067.668,76.1953 1068.3662,75.8779 Q1069.0645,75.5605 1069.8066,74.877 Z " fill="#000000"/><text fill="#000000" font-family="sans-serif" font-size="20" lengthAdjust="spacing" textLength="119" x="1089" y="78.5586">Repositories</text><line style="stroke:#181818;stroke-width:0.5;" x1="973" x2="1289" y1="88" y2="88"/><line style="stroke:#181818;stroke-width:0.5;" x1="973" x2="1289" y1="96" y2="96"/><text fill="#000000" font-family="sans-serif" font-size="20" lengthAdjust="spacing" textLength="145" x="978" y="119.3359">-Repositories()</text><text fill="#000000" font-family="sans-serif" font-size="20" lengthAdjust="spacing" textLength="276" x="978" y="142.8906">+getInstance() : Repositories</text><text fill="#000000" font-family="sans-serif" font-size="20" lengthAdjust="spacing" textLength="306" x="978" y="166.4453">+getAnnouncementRepository()</text></g><!--class controller--><g id="elem_controller"><rect codeLine="24" fill="#F1F1F1" height="214.8828" id="controller" rx="2.5" ry="2.5" style="stroke:#181818;stroke-width:0.5;" width="514" x="386" y="7"/><ellipse cx="518.5" cy="24" fill="#ADD1B2" rx="12" ry="12" style="stroke:#181818;stroke-width:1.0;"/><path d="M521.3066,31.0801 Q520.623,31.4316 519.8711,31.6074 Q519.1191,31.7832 518.2891,31.7832 Q515.3398,31.7832 513.7871,29.8398 Q512.2344,27.8965 512.2344,24.2246 Q512.2344,20.543 513.7871,18.5996 Q515.3398,16.6563 518.2891,16.6563 Q519.1191,16.6563 519.8809,16.832 Q520.6426,17.0078 521.3066,17.3594 L521.3066,20.5625 Q520.5645,19.8789 519.8662,19.5615 Q519.168,19.2441 518.4258,19.2441 Q516.8438,19.2441 516.0381,20.499 Q515.2324,21.7539 515.2324,24.2246 Q515.2324,26.6855 516.0381,27.9404 Q516.8438,29.1953 518.4258,29.1953 Q519.168,29.1953 519.8662,28.8779 Q520.5645,28.5605 521.3066,27.877 Z " fill="#000000"/><text fill="#000000" font-family="sans-serif" font-size="20" lengthAdjust="spacing" textLength="240" x="540.5" y="31.5586">AnnouncementController</text><line style="stroke:#181818;stroke-width:0.5;" x1="387" x2="899" y1="41" y2="41"/><text fill="#000000" font-family="sans-serif" font-size="20" lengthAdjust="spacing" textLength="174" x="392" y="64.3359">+isOpinionLenght</text><line style="stroke:#181818;stroke-width:0.5;" x1="387" x2="899" y1="72.5547" y2="72.5547"/><text fill="#000000" font-family="sans-serif" font-size="20" lengthAdjust="spacing" textLength="326" x="392" y="95.8906">+getAllVisitRequestListForAgent()</text><text fill="#000000" font-family="sans-serif" font-size="20" lengthAdjust="spacing" textLength="238" x="392" y="119.4453">+getClientFromSession()</text><text fill="#000000" font-family="sans-serif" font-size="20" lengthAdjust="spacing" textLength="306" x="392" y="143">+getAnnouncementRepository()</text><text fill="#000000" font-family="sans-serif" font-size="20" lengthAdjust="spacing" textLength="304" x="392" y="166.5547">+sortComboVisitItemsByDate();</text><text fill="#000000" font-family="sans-serif" font-size="20" lengthAdjust="spacing" textLength="222" x="392" y="190.1094">+getClassificationList()</text><text fill="#000000" font-family="sans-serif" font-size="20" lengthAdjust="spacing" textLength="502" x="392" y="213.6641">+setVisitRequest(opinion,classification,visitRequest)</text></g><!--class appSession--><g id="elem_appSession"><rect codeLine="34" fill="#F1F1F1" height="97.1094" id="appSession" rx="2.5" ry="2.5" style="stroke:#181818;stroke-width:0.5;" width="216" x="234" y="252"/><ellipse cx="250" cy="269" fill="#ADD1B2" rx="12" ry="12" style="stroke:#181818;stroke-width:1.0;"/><path d="M252.8066,276.0801 Q252.123,276.4316 251.3711,276.6074 Q250.6191,276.7832 249.7891,276.7832 Q246.8398,276.7832 245.2871,274.8398 Q243.7344,272.8965 243.7344,269.2246 Q243.7344,265.543 245.2871,263.5996 Q246.8398,261.6563 249.7891,261.6563 Q250.6191,261.6563 251.3809,261.832 Q252.1426,262.0078 252.8066,262.3594 L252.8066,265.5625 Q252.0645,264.8789 251.3662,264.5615 Q250.668,264.2441 249.9258,264.2441 Q248.3438,264.2441 247.5381,265.499 Q246.7324,266.7539 246.7324,269.2246 Q246.7324,271.6855 247.5381,272.9404 Q248.3438,274.1953 249.9258,274.1953 Q250.668,274.1953 251.3662,273.8779 Q252.0645,273.5605 252.8066,272.877 Z " fill="#000000"/><text fill="#000000" font-family="sans-serif" font-size="20" lengthAdjust="spacing" textLength="182" x="265" y="276.5586">ApplicationSession</text><line style="stroke:#181818;stroke-width:0.5;" x1="235" x2="449" y1="286" y2="286"/><line style="stroke:#181818;stroke-width:0.5;" x1="235" x2="449" y1="294" y2="294"/><text fill="#000000" font-family="sans-serif" font-size="20" lengthAdjust="spacing" textLength="139" x="240" y="317.3359">+getInstance()</text><text fill="#000000" font-family="sans-serif" font-size="20" lengthAdjust="spacing" textLength="204" x="240" y="340.8906">+getCurrentSession()</text></g><!--class session--><g id="elem_session"><rect codeLine="39" fill="#F1F1F1" height="73.5547" id="session" rx="2.5" ry="2.5" style="stroke:#181818;stroke-width:0.5;" width="165" x="292.5" y="390.5"/><ellipse cx="315.7" cy="407.5" fill="#ADD1B2" rx="12" ry="12" style="stroke:#181818;stroke-width:1.0;"/><path d="M318.5066,414.5801 Q317.823,414.9316 317.0711,415.1074 Q316.3191,415.2832 315.4891,415.2832 Q312.5398,415.2832 310.9871,413.3398 Q309.4344,411.3965 309.4344,407.7246 Q309.4344,404.043 310.9871,402.0996 Q312.5398,400.1563 315.4891,400.1563 Q316.3191,400.1563 317.0809,400.332 Q317.8426,400.5078 318.5066,400.8594 L318.5066,404.0625 Q317.7645,403.3789 317.0662,403.0615 Q316.368,402.7441 315.6258,402.7441 Q314.0438,402.7441 313.2381,403.999 Q312.4324,405.2539 312.4324,407.7246 Q312.4324,410.1855 313.2381,411.4404 Q314.0438,412.6953 315.6258,412.6953 Q316.368,412.6953 317.0662,412.3779 Q317.7645,412.0605 318.5066,411.377 Z " fill="#000000"/><text fill="#000000" font-family="sans-serif" font-size="20" lengthAdjust="spacing" textLength="115" x="332.3" y="415.0586">UserSession</text><line style="stroke:#181818;stroke-width:0.5;" x1="293.5" x2="456.5" y1="424.5" y2="424.5"/><line style="stroke:#181818;stroke-width:0.5;" x1="293.5" x2="456.5" y1="432.5" y2="432.5"/><text fill="#000000" font-family="sans-serif" font-size="20" lengthAdjust="spacing" textLength="153" x="298.5" y="455.8359">getClientEmail()</text></g><!--class AnnouncementRepo--><g id="elem_AnnouncementRepo"><rect codeLine="45" fill="#F1F1F1" height="97.1094" id="AnnouncementRepo" rx="2.5" ry="2.5" style="stroke:#181818;stroke-width:0.5;" width="365" x="717.5" y="379"/><ellipse cx="772.5" cy="396" fill="#ADD1B2" rx="12" ry="12" style="stroke:#181818;stroke-width:1.0;"/><path d="M775.3066,403.0801 Q774.623,403.4316 773.8711,403.6074 Q773.1191,403.7832 772.2891,403.7832 Q769.3398,403.7832 767.7871,401.8398 Q766.2344,399.8965 766.2344,396.2246 Q766.2344,392.543 767.7871,390.5996 Q769.3398,388.6563 772.2891,388.6563 Q773.1191,388.6563 773.8809,388.832 Q774.6426,389.0078 775.3066,389.3594 L775.3066,392.5625 Q774.5645,391.8789 773.8662,391.5615 Q773.168,391.2441 772.4258,391.2441 Q770.8438,391.2441 770.0381,392.499 Q769.2324,393.7539 769.2324,396.2246 Q769.2324,398.6855 770.0381,399.9404 Q770.8438,401.1953 772.4258,401.1953 Q773.168,401.1953 773.8662,400.8779 Q774.5645,400.5605 775.3066,399.877 Z " fill="#000000"/><text fill="#000000" font-family="sans-serif" font-size="20" lengthAdjust="spacing" textLength="246" x="794.5" y="403.5586">AnnouncementRepository</text><line style="stroke:#181818;stroke-width:0.5;" x1="718.5" x2="1081.5" y1="413" y2="413"/><text fill="#000000" font-family="sans-serif" font-size="20" lengthAdjust="spacing" textLength="197" x="723.5" y="436.3359">-List&lt;VisitRequest&gt;</text><line style="stroke:#181818;stroke-width:0.5;" x1="718.5" x2="1081.5" y1="444.5547" y2="444.5547"/><text fill="#000000" font-family="sans-serif" font-size="20" lengthAdjust="spacing" textLength="353" x="723.5" y="467.8906">+getVisitRequestListForAgent(email)</text></g><!--class Announcement--><g id="elem_Announcement"><rect codeLine="50" fill="#F1F1F1" height="73.5547" id="Announcement" rx="2.5" ry="2.5" style="stroke:#181818;stroke-width:0.5;" width="365" x="575.5" y="561"/><ellipse cx="637.5" cy="578" fill="#ADD1B2" rx="12" ry="12" style="stroke:#181818;stroke-width:1.0;"/><path d="M640.3066,585.0801 Q639.623,585.4316 638.8711,585.6074 Q638.1191,585.7832 637.2891,585.7832 Q634.3398,585.7832 632.7871,583.8398 Q631.2344,581.8965 631.2344,578.2246 Q631.2344,574.543 632.7871,572.5996 Q634.3398,570.6563 637.2891,570.6563 Q638.1191,570.6563 638.8809,570.832 Q639.6426,571.0078 640.3066,571.3594 L640.3066,574.5625 Q639.5645,573.8789 638.8662,573.5615 Q638.168,573.2441 637.4258,573.2441 Q635.8438,573.2441 635.0381,574.499 Q634.2324,575.7539 634.2324,578.2246 Q634.2324,580.6855 635.0381,581.9404 Q635.8438,583.1953 637.4258,583.1953 Q638.168,583.1953 638.8662,582.8779 Q639.5645,582.5605 640.3066,581.877 Z " fill="#000000"/><text fill="#000000" font-family="sans-serif" font-size="20" lengthAdjust="spacing" textLength="232" x="659.5" y="585.5586">AnnouncementAvailable</text><line style="stroke:#181818;stroke-width:0.5;" x1="576.5" x2="939.5" y1="595" y2="595"/><line style="stroke:#181818;stroke-width:0.5;" x1="576.5" x2="939.5" y1="603" y2="603"/><text fill="#000000" font-family="sans-serif" font-size="20" lengthAdjust="spacing" textLength="353" x="581.5" y="626.3359">+getVisitRequestListForAgent(email)</text></g><!--class agent--><g id="elem_agent"><rect codeLine="54" fill="#F1F1F1" height="73.5547" id="agent" rx="2.5" ry="2.5" style="stroke:#181818;stroke-width:0.5;" width="167" x="432.5" y="743.5"/><ellipse cx="483.5" cy="760.5" fill="#ADD1B2" rx="12" ry="12" style="stroke:#181818;stroke-width:1.0;"/><path d="M486.3066,767.5801 Q485.623,767.9316 484.8711,768.1074 Q484.1191,768.2832 483.2891,768.2832 Q480.3398,768.2832 478.7871,766.3398 Q477.2344,764.3965 477.2344,760.7246 Q477.2344,757.043 478.7871,755.0996 Q480.3398,753.1563 483.2891,753.1563 Q484.1191,753.1563 484.8809,753.332 Q485.6426,753.5078 486.3066,753.8594 L486.3066,757.0625 Q485.5645,756.3789 484.8662,756.0615 Q484.168,755.7441 483.4258,755.7441 Q481.8438,755.7441 481.0381,756.999 Q480.2324,758.2539 480.2324,760.7246 Q480.2324,763.1855 481.0381,764.4404 Q481.8438,765.6953 483.4258,765.6953 Q484.168,765.6953 484.8662,765.3779 Q485.5645,765.0605 486.3066,764.377 Z " fill="#000000"/><text fill="#000000" font-family="sans-serif" font-size="20" lengthAdjust="spacing" textLength="56" x="505.5" y="768.0586">Agent</text><line style="stroke:#181818;stroke-width:0.5;" x1="433.5" x2="598.5" y1="777.5" y2="777.5"/><line style="stroke:#181818;stroke-width:0.5;" x1="433.5" x2="598.5" y1="785.5" y2="785.5"/><text fill="#000000" font-family="sans-serif" font-size="20" lengthAdjust="spacing" textLength="155" x="438.5" y="808.8359">+isAgent(email)</text></g><!--class visit--><g id="elem_visit"><rect codeLine="58" fill="#F1F1F1" height="120.6641" id="visit" rx="2.5" ry="2.5" style="stroke:#181818;stroke-width:0.5;" width="459" x="634.5" y="720"/><ellipse cx="800" cy="737" fill="#ADD1B2" rx="12" ry="12" style="stroke:#181818;stroke-width:1.0;"/><path d="M802.8066,744.0801 Q802.123,744.4316 801.3711,744.6074 Q800.6191,744.7832 799.7891,744.7832 Q796.8398,744.7832 795.2871,742.8398 Q793.7344,740.8965 793.7344,737.2246 Q793.7344,733.543 795.2871,731.5996 Q796.8398,729.6563 799.7891,729.6563 Q800.6191,729.6563 801.3809,729.832 Q802.1426,730.0078 802.8066,730.3594 L802.8066,733.5625 Q802.0645,732.8789 801.3662,732.5615 Q800.668,732.2441 799.9258,732.2441 Q798.3438,732.2441 797.5381,733.499 Q796.7324,734.7539 796.7324,737.2246 Q796.7324,739.6855 797.5381,740.9404 Q798.3438,742.1953 799.9258,742.1953 Q800.668,742.1953 801.3662,741.8779 Q802.0645,741.5605 802.8066,740.877 Z " fill="#000000"/><text fill="#000000" font-family="sans-serif" font-size="20" lengthAdjust="spacing" textLength="119" x="822" y="744.5586">VisitRequest</text><line style="stroke:#181818;stroke-width:0.5;" x1="635.5" x2="1092.5" y1="754" y2="754"/><line style="stroke:#181818;stroke-width:0.5;" x1="635.5" x2="1092.5" y1="762" y2="762"/><text fill="#000000" font-family="sans-serif" font-size="20" lengthAdjust="spacing" textLength="164" x="640.5" y="785.3359">+isStateWaiting()</text><text fill="#000000" font-family="sans-serif" font-size="20" lengthAdjust="spacing" textLength="210" x="640.5" y="808.8906">+isDateBeforeToday()</text><text fill="#000000" font-family="sans-serif" font-size="20" lengthAdjust="spacing" textLength="447" x="640.5" y="832.4453">+setVisitRequestOpinion(visitRequestOpinion)</text></g><!--class mapper--><g id="elem_mapper"><rect codeLine="64" fill="#F1F1F1" height="120.6641" id="mapper" rx="2.5" ry="2.5" style="stroke:#181818;stroke-width:0.5;" width="253" x="390.5" y="902"/><ellipse cx="418.65" cy="919" fill="#ADD1B2" rx="12" ry="12" style="stroke:#181818;stroke-width:1.0;"/><path d="M421.4566,926.0801 Q420.773,926.4316 420.0211,926.6074 Q419.2691,926.7832 418.4391,926.7832 Q415.4898,926.7832 413.9371,924.8398 Q412.3844,922.8965 412.3844,919.2246 Q412.3844,915.543 413.9371,913.5996 Q415.4898,911.6563 418.4391,911.6563 Q419.2691,911.6563 420.0309,911.832 Q420.7926,912.0078 421.4566,912.3594 L421.4566,915.5625 Q420.7145,914.8789 420.0162,914.5615 Q419.318,914.2441 418.5758,914.2441 Q416.9938,914.2441 416.1881,915.499 Q415.3824,916.7539 415.3824,919.2246 Q415.3824,921.6855 416.1881,922.9404 Q416.9938,924.1953 418.5758,924.1953 Q419.318,924.1953 420.0162,923.8779 Q420.7145,923.5605 421.4566,922.877 Z " fill="#000000"/><text fill="#000000" font-family="sans-serif" font-size="20" lengthAdjust="spacing" textLength="192" x="436.35" y="926.5586">VisitRequestMapper</text><line style="stroke:#181818;stroke-width:0.5;" x1="391.5" x2="642.5" y1="936" y2="936"/><text fill="#000000" font-family="sans-serif" font-size="20" lengthAdjust="spacing" textLength="241" x="396.5" y="959.3359">-List&lt;VisitRequestDTO&gt;</text><line style="stroke:#181818;stroke-width:0.5;" x1="391.5" x2="642.5" y1="967.5547" y2="967.5547"/><text fill="#000000" font-family="sans-serif" font-size="20" lengthAdjust="spacing" textLength="236" x="396.5" y="990.8906">+toDto(ListVisitRequest)</text><text fill="#000000" font-family="sans-serif" font-size="20" lengthAdjust="spacing" textLength="199" x="396.5" y="1014.4453">+toDto(visitRequest)</text></g><!--class DTO--><g id="elem_DTO"><rect codeLine="72" fill="#F1F1F1" height="50" id="DTO" rx="2.5" ry="2.5" style="stroke:#181818;stroke-width:0.5;" width="197" x="418.5" y="1084"/><ellipse cx="434.5" cy="1101" fill="#ADD1B2" rx="12" ry="12" style="stroke:#181818;stroke-width:1.0;"/><path d="M437.3066,1108.0801 Q436.623,1108.4316 435.8711,1108.6074 Q435.1191,1108.7832 434.2891,1108.7832 Q431.3398,1108.7832 429.7871,1106.8398 Q428.2344,1104.8965 428.2344,1101.2246 Q428.2344,1097.543 429.7871,1095.5996 Q431.3398,1093.6563 434.2891,1093.6563 Q435.1191,1093.6563 435.8809,1093.832 Q436.6426,1094.0078 437.3066,1094.3594 L437.3066,1097.5625 Q436.5645,1096.8789 435.8662,1096.5615 Q435.168,1096.2441 434.4258,1096.2441 Q432.8438,1096.2441 432.0381,1097.499 Q431.2324,1098.7539 431.2324,1101.2246 Q431.2324,1103.6855 432.0381,1104.9404 Q432.8438,1106.1953 434.4258,1106.1953 Q435.168,1106.1953 435.8662,1105.8779 Q436.5645,1105.5605 437.3066,1104.877 Z " fill="#000000"/><text fill="#000000" font-family="sans-serif" font-size="20" lengthAdjust="spacing" textLength="163" x="449.5" y="1108.5586">VisitRequestDTO</text><line style="stroke:#181818;stroke-width:0.5;" x1="419.5" x2="614.5" y1="1118" y2="1118"/><line style="stroke:#181818;stroke-width:0.5;" x1="419.5" x2="614.5" y1="1126" y2="1126"/></g><!--class opinion--><g id="elem_opinion"><rect codeLine="74" fill="#F1F1F1" height="73.5547" id="opinion" rx="2.5" ry="2.5" style="stroke:#181818;stroke-width:0.5;" width="234" x="949" y="925.5"/><ellipse cx="966.8" cy="942.5" fill="#ADD1B2" rx="12" ry="12" style="stroke:#181818;stroke-width:1.0;"/><path d="M969.6066,949.5801 Q968.923,949.9316 968.1711,950.1074 Q967.4191,950.2832 966.5891,950.2832 Q963.6398,950.2832 962.0871,948.3398 Q960.5344,946.3965 960.5344,942.7246 Q960.5344,939.043 962.0871,937.0996 Q963.6398,935.1563 966.5891,935.1563 Q967.4191,935.1563 968.1809,935.332 Q968.9426,935.5078 969.6066,935.8594 L969.6066,939.0625 Q968.8645,938.3789 968.1662,938.0615 Q967.468,937.7441 966.7258,937.7441 Q965.1438,937.7441 964.3381,938.999 Q963.5324,940.2539 963.5324,942.7246 Q963.5324,945.1855 964.3381,946.4404 Q965.1438,947.6953 966.7258,947.6953 Q967.468,947.6953 968.1662,947.3779 Q968.8645,947.0605 969.6066,946.377 Z " fill="#000000"/><text fill="#000000" font-family="sans-serif" font-size="20" lengthAdjust="spacing" textLength="196" x="982.2" y="950.0586">VisitRequestOpinion</text><line style="stroke:#181818;stroke-width:0.5;" x1="950" x2="1182" y1="959.5" y2="959.5"/><line style="stroke:#181818;stroke-width:0.5;" x1="950" x2="1182" y1="967.5" y2="967.5"/><text fill="#000000" font-family="sans-serif" font-size="20" lengthAdjust="spacing" textLength="222" x="955" y="990.8359">+getClassificationList()</text></g><!--link UI to controller--><g id="link_UI_controller"><path codeLine="79" d="M351.11,114.5 C359.12,114.5 369.35,114.5 380.6,114.5 " fill="none" id="UI-to-controller" style="stroke:#181818;stroke-width:1.0;stroke-dasharray:7.0,7.0;"/><polygon fill="#181818" points="385.84,114.5,376.84,110.5,380.84,114.5,376.84,118.5,385.84,114.5" style="stroke:#181818;stroke-width:1.0;"/></g><!--link controller to repo--><g id="link_controller_repo"><path codeLine="80" d="M900.29,114.5 C929.09,114.5 955.6,114.5 966.63,114.5 " fill="none" id="controller-to-repo" style="stroke:#181818;stroke-width:1.0;stroke-dasharray:7.0,7.0;"/><polygon fill="#181818" points="971.73,114.5,962.73,110.5,966.73,114.5,962.73,118.5,971.73,114.5" style="stroke:#181818;stroke-width:1.0;"/></g><!--link controller to appSession--><g id="link_controller_appSession"><path codeLine="81" d="M468.78,222 C453.34,231.44 438.25,240.66 424.17,249.27 " fill="none" id="controller-to-appSession" style="stroke:#181818;stroke-width:1.0;stroke-dasharray:7.0,7.0;"/><polygon fill="#181818" points="419.83,251.92,429.5976,250.6573,424.101,249.3203,425.438,243.8237,419.83,251.92" style="stroke:#181818;stroke-width:1.0;"/></g><!--link appSession to appSession--><g id="link_appSession_appSession"><path codeLine="82" d="M450.19,277.87 C470.6,280.62 485,288.16 485,300.5 C485,311.78 472.97,319.05 455.31,322.32 " fill="none" id="appSession-to-appSession" style="stroke:#181818;stroke-width:1.0;"/><polygon fill="#181818" points="450.19,323.13,459.7075,325.6632,455.1276,322.3428,458.448,317.763,450.19,323.13" style="stroke:#181818;stroke-width:1.0;"/><text fill="#000000" font-family="sans-serif" font-size="20" lengthAdjust="spacing" textLength="79" x="491" y="308.3359">instance</text></g><!--link appSession to session--><g id="link_appSession_session"><path codeLine="83" d="M354.57,349.11 C357.73,361.07 361.08,373.79 364.15,385.4 " fill="none" id="appSession-to-session" style="stroke:#181818;stroke-width:1.0;"/><polygon fill="#181818" points="365.44,390.3,367.0235,380.5793,364.1703,385.4639,359.2857,382.6107,365.44,390.3" style="stroke:#181818;stroke-width:1.0;"/><text fill="#000000" font-family="sans-serif" font-size="20" lengthAdjust="spacing" textLength="121" x="237.36" y="387.5959">User Session</text></g><!--link controller to session--><g id="link_controller_session"><path codeLine="84" d="M605.14,222 C583.25,283.58 560,349 560,349 C560,349 510.28,369.83 462.39,389.89 " fill="none" id="controller-to-session" style="stroke:#181818;stroke-width:1.0;stroke-dasharray:7.0,7.0;"/><polygon fill="#181818" points="457.76,391.83,467.6064,392.05,462.3733,389.9019,464.5214,384.6687,457.76,391.83" style="stroke:#181818;stroke-width:1.0;"/></g><!--link controller to AnnouncementRepo--><g id="link_controller_AnnouncementRepo"><path codeLine="85" d="M731.09,222.09 C773.74,273.71 823,333.32 857.28,374.8 " fill="none" id="controller-to-AnnouncementRepo" style="stroke:#181818;stroke-width:1.0;stroke-dasharray:7.0,7.0;"/><polygon fill="#181818" points="860.55,378.76,857.9028,369.2736,857.366,374.9049,851.7346,374.368,860.55,378.76" style="stroke:#181818;stroke-width:1.0;"/><text fill="#000000" font-family="sans-serif" font-size="20" lengthAdjust="spacing" textLength="246" x="833" y="308.3359">AnnouncementRepository</text></g><!--link repo to AnnouncementRepo--><g id="link_repo_AnnouncementRepo"><path codeLine="86" d="M1113.15,175.03 C1092.42,244.21 1061,349 1061,349 C1061,349 1034.73,361.65 1003.41,376.72 " fill="none" id="repo-to-AnnouncementRepo" style="stroke:#181818;stroke-width:1.0;"/><polygon fill="#181818" points="998.75,378.96,1008.594,378.6512,1003.2531,376.7871,1005.1173,371.4462,998.75,378.96" style="stroke:#181818;stroke-width:1.0;"/></g><!--link repo to repo--><g id="link_repo_repo"><path codeLine="87" d="M1290.08,83.75 C1311.08,88.99 1325,99.24 1325,114.5 C1325,128.45 1313.37,138.21 1295.33,143.79 " fill="none" id="repo-to-repo" style="stroke:#181818;stroke-width:1.0;"/><polygon fill="#181818" points="1290.08,145.25,1299.8238,146.6848,1294.8962,143.9066,1297.6744,138.979,1290.08,145.25" style="stroke:#181818;stroke-width:1.0;"/><text fill="#000000" font-family="sans-serif" font-size="20" lengthAdjust="spacing" textLength="79" x="1331" y="122.3359">instance</text></g><!--link AnnouncementRepo to Announcement--><g id="link_AnnouncementRepo_Announcement"><path codeLine="88" d="M859.69,476.33 C838.3,501.72 812.3,532.57 791.95,556.72 " fill="none" id="AnnouncementRepo-to-Announcement" style="stroke:#181818;stroke-width:1.0;"/><polygon fill="#181818" points="788.47,560.84,797.3284,556.5354,791.692,557.0166,791.2108,551.3802,788.47,560.84" style="stroke:#181818;stroke-width:1.0;"/><text fill="#000000" font-family="sans-serif" font-size="20" lengthAdjust="spacing" textLength="242" x="835" y="526.3359">AnnouncementAvailables</text><text fill="#000000" font-family="sans-serif" font-size="20" lengthAdjust="spacing" textLength="13" x="840.6925" y="503.4242">1</text><text fill="#000000" font-family="sans-serif" font-size="20" lengthAdjust="spacing" textLength="10" x="782.8477" y="548.8984">*</text></g><!--link Announcement to agent--><g id="link_Announcement_agent"><path codeLine="89" d="M709.61,635.09 C668.72,665.59 610.28,709.18 568.32,740.48 " fill="none" id="Announcement-to-agent" style="stroke:#181818;stroke-width:1.0;"/><polygon fill="#181818" points="564.31,743.47,573.915,741.292,568.3169,740.4792,569.1297,734.881,564.31,743.47" style="stroke:#181818;stroke-width:1.0;"/><text fill="#000000" font-family="sans-serif" font-size="20" lengthAdjust="spacing" textLength="33" x="667" y="685.3359">has</text><text fill="#000000" font-family="sans-serif" font-size="20" lengthAdjust="spacing" textLength="13" x="688.205" y="661.9428">1</text><text fill="#000000" font-family="sans-serif" font-size="20" lengthAdjust="spacing" textLength="13" x="558.7574" y="731.2506">1</text></g><!--link Announcement to visit--><g id="link_Announcement_visit"><path codeLine="90" d="M779.2,635.09 C792.62,657.95 810.36,688.16 826.14,715.03 " fill="none" id="Announcement-to-visit" style="stroke:#181818;stroke-width:1.0;"/><polygon fill="#181818" points="828.86,719.66,827.7361,709.8755,826.3212,715.3525,820.8441,713.9376,828.86,719.66" style="stroke:#181818;stroke-width:1.0;"/><text fill="#000000" font-family="sans-serif" font-size="20" lengthAdjust="spacing" textLength="33" x="812" y="685.3359">has</text><text fill="#000000" font-family="sans-serif" font-size="20" lengthAdjust="spacing" textLength="13" x="768.4509" y="661.9428">1</text><text fill="#000000" font-family="sans-serif" font-size="20" lengthAdjust="spacing" textLength="10" x="814.2188" y="707.6831">*</text></g><!--link visit to opinion--><g id="link_visit_opinion"><path codeLine="91" d="M930.98,841.19 C960.76,867.72 994.99,898.23 1021.54,921.89 " fill="none" id="visit-to-opinion" style="stroke:#181818;stroke-width:1.0;"/><polygon fill="#181818" points="1025.4,925.32,1021.3308,916.3511,1021.663,921.9982,1016.0159,922.3304,1025.4,925.32" style="stroke:#181818;stroke-width:1.0;"/><text fill="#000000" font-family="sans-serif" font-size="20" lengthAdjust="spacing" textLength="13" x="924.217" y="868.0165">1</text><text fill="#000000" font-family="sans-serif" font-size="20" lengthAdjust="spacing" textLength="13" x="1004.3047" y="913.375">1</text></g><!--link controller to Announcement--><g id="link_controller_Announcement"><path codeLine="92" d="M659.87,222.2 C676.68,328.5 700,476 700,476 C700,476 721.54,520.93 738.36,556.03 " fill="none" id="controller-to-Announcement" style="stroke:#181818;stroke-width:1.0;stroke-dasharray:7.0,7.0;"/><polygon fill="#181818" points="740.6,560.7,740.3166,550.8552,738.4387,556.1913,733.1026,554.3133,740.6,560.7" style="stroke:#181818;stroke-width:1.0;"/></g><!--link controller to opinion--><g id="link_controller_opinion"><path codeLine="93" d="M900.3,203.33 C932.82,214.43 955,222 955,222 C955,222 1088,252 1088,252 C1088,252 1147,426.5 1147,426.5 C1147,426.5 1147,426.5 1147,781.5 C1147,781.5 1108.42,867.23 1084.51,920.36 " fill="none" id="controller-to-opinion" style="stroke:#181818;stroke-width:1.0;stroke-dasharray:7.0,7.0;"/><polygon fill="#181818" points="1082.39,925.07,1089.7215,918.4936,1084.4353,920.5075,1082.4215,915.2212,1082.39,925.07" style="stroke:#181818;stroke-width:1.0;"/></g><!--link controller to DTO--><g id="link_controller_DTO"><path codeLine="95" d="M385.62,215.18 C374.55,219.46 368,222 368,222 C368,222 233,252 233,252 C233,252 211,426.5 211,426.5 C211,426.5 211,426.5 211,963.5 C211,963.5 373.26,1040.12 461.46,1081.77 " fill="none" id="controller-to-DTO" style="stroke:#181818;stroke-width:1.0;stroke-dasharray:7.0,7.0;"/><polygon fill="#181818" points="466.13,1083.98,459.6955,1076.5236,461.6075,1081.8476,456.2836,1083.7596,466.13,1083.98" style="stroke:#181818;stroke-width:1.0;"/></g><!--link controller to mapper--><g id="link_controller_mapper"><path codeLine="96" d="M623.84,222 C612.77,283.58 601,349 601,349 C601,349 415,720 415,720 C415,720 415,841 415,841 C415,841 438.72,869.02 463.29,898.04 " fill="none" id="controller-to-mapper" style="stroke:#181818;stroke-width:1.0;stroke-dasharray:7.0,7.0;"/><polygon fill="#181818" points="466.6,901.96,463.8385,892.5062,463.3696,898.1436,457.7323,897.6748,466.6,901.96" style="stroke:#181818;stroke-width:1.0;"/></g><!--link mapper to DTO--><g id="link_mapper_DTO"><path codeLine="97" d="M517,1023.11 C517,1042.25 517,1062.61 517,1078.59 " fill="none" id="mapper-to-DTO" style="stroke:#181818;stroke-width:1.0;"/><polygon fill="#181818" points="517,1083.83,521,1074.83,517,1078.83,513,1074.83,517,1083.83" style="stroke:#181818;stroke-width:1.0;"/></g><!--link visit to mapper--><g id="link_visit_mapper"><path codeLine="98" d="M748.94,841.19 C712.87,859.89 673,880.58 636.63,899.44 " fill="none" id="visit-to-mapper" style="stroke:#181818;stroke-width:1.0;"/><polygon fill="#181818" points="631.75,901.97,641.5814,901.3846,636.1903,899.6713,637.9036,894.2802,631.75,901.97" style="stroke:#181818;stroke-width:1.0;"/></g><!--link visit to DTO--><g id="link_visit_DTO"><path codeLine="99" d="M813.82,841.2 C753.71,912.71 661,1023 661,1023 C661,1023 604.63,1056.27 562.43,1081.18 " fill="none" id="visit-to-DTO" style="stroke:#181818;stroke-width:1.0;stroke-dasharray:7.0,7.0;"/><polygon fill="#181818" points="557.88,1083.87,567.6673,1082.7701,562.1937,1081.3418,563.6221,1075.8682,557.88,1083.87" style="stroke:#181818;stroke-width:1.0;"/></g><!--SRC=[bLJ1Rk8m4BtxAwnScfQ2sZtI5HA5hHIfgqgbTCyc3C72iREswOgDzjztx1ZYf70e5-APDpFFyrvYTbnMJBDIg7m7Qxg63TiB-wIaNV2_GB_TaIjpnD1IIPLljIg1Mhq7qcOgbkzO0Gjx440rv9R9GiG0isLhzOVBWcwOC756S0dsK06jb3YuGppnb5JQAX9LvO8PCxLMyzNUGfOhwVdU4N8bO6EfLLJpOclfcZiwN4b2V0rDNi5KIgxDEpVSliBlFHZxKd69c6MMK6ReCgi9-HSLL0gXIdCmFgynG6j2yJUaSJQzzi41BS1cqk0MSaYlwRW3QY5JATKU8IL8Uq8Si0dE_XBRbclSSeOgQYK4Q8_BJyUQ3Dnq8UAcpzoWxdfQO2LIS8YPu7XuGi4NO0nE3F6Bl0S6TPgfSgLyvyn2QHuFSsPn2m-X9TBa6vupfucRwSl0nbHIrLpmDk-WRpyY35Pn4nRn31AbZXIRLfK8HO6vtm2hgd1iDj1Ar73RQuqtQk_QDbmQq74dSsnpsjAFad4Hf3idHhidtw2VgidGBUDxl8Q9PtLH8t0JOv9np-a79jbAmATfzLUxkd2plg8fv-O2D6xgAxnWlc9XqGI_6BVu2KYzTiuLZx1H6jxKcXtEs22ectvyZbsQ-XCb3dOl_UEvlSxVNd2rLisjIbtolMkh9j7rMgnghvKVXl_rUKQ1i4S5MzUNtmGtPvcD9ksxIjh7qSHzU3g1rj6aVHmEe_YO1vF7W4dmxzZvcXuxH8r7HqGts7Vjc9wtE754aKO_syJzDLfUVL1ods1fSfDqcjFkh9E_JQS-rDudtgjOisLd0JU9rpS0_FEfDAZKkVbeqfdUpnrB-d6qHJVaWeqnIVE78psgULM6av1iZWwEoVy0]--></g></svg>