<?xml version="1.0" encoding="UTF-8" standalone="no"?><svg xmlns="http://www.w3.org/2000/svg" xmlns:xlink="http://www.w3.org/1999/xlink" contentStyleType="text/css" height="1694px" preserveAspectRatio="none" style="width:2416px;height:1694px;background:#FFFFFF;" version="1.1" viewBox="0 0 2416 1694" width="2416px" zoomAndPan="magnify"><defs/><g><rect fill="#FFFFFF" height="1498.7422" style="stroke:#181818;stroke-width:1.0;" width="10" x="46" y="98.5547"/><rect fill="#FFFFFF" height="799.6484" style="stroke:#181818;stroke-width:1.0;" width="10" x="664" y="128.1094"/><rect fill="#FFFFFF" height="187.7734" style="stroke:#181818;stroke-width:1.0;" width="10" x="664" y="965.3125"/><rect fill="#FFFFFF" height="37.5547" style="stroke:#181818;stroke-width:1.0;" width="10" x="664" y="1190.6406"/><rect fill="#FFFFFF" height="315.5469" style="stroke:#181818;stroke-width:1.0;" width="10" x="664" y="1265.75"/><rect fill="#FFFFFF" height="675.9844" style="stroke:#181818;stroke-width:1.0;" width="10" x="1086" y="214.2188"/><rect fill="#FFFFFF" height="198.7734" style="stroke:#181818;stroke-width:1.0;" width="10" x="1091" y="321.8828"/><rect fill="#FFFFFF" height="112.6641" style="stroke:#181818;stroke-width:1.0;" width="10" x="1086" y="1002.8672"/><rect fill="#FFFFFF" height="216.8828" style="stroke:#181818;stroke-width:1.0;" width="10" x="1086" y="1326.8594"/><rect fill="#FFFFFF" height="37.5547" style="stroke:#181818;stroke-width:1.0;" width="10" x="1428" y="364.4375"/><rect fill="#FFFFFF" height="37.5547" style="stroke:#181818;stroke-width:1.0;" width="10" x="1577" y="439.5469"/><rect fill="#FFFFFF" height="99.6641" style="stroke:#181818;stroke-width:1.0;" width="10" x="1789.5" y="565.2109"/><rect fill="#FFFFFF" height="99.6641" style="stroke:#181818;stroke-width:1.0;" width="10" x="2073.5" y="702.4297"/><rect fill="#FFFFFF" height="37.5547" style="stroke:#181818;stroke-width:1.0;" width="10" x="2297.5" y="1040.4219"/><rect fill="none" height="196.8828" style="stroke:#000000;stroke-width:1.5;" width="1221" x="10" y="1392.4141"/><line style="stroke:#181818;stroke-width:0.5;stroke-dasharray:5.0,5.0;" x1="51" x2="51" y1="88.5547" y2="1606.2969"/><line style="stroke:#181818;stroke-width:0.5;stroke-dasharray:5.0,5.0;" x1="669" x2="669" y1="88.5547" y2="1606.2969"/><line style="stroke:#181818;stroke-width:0.5;stroke-dasharray:5.0,5.0;" x1="1091" x2="1091" y1="170.3867" y2="1606.2969"/><line style="stroke:#181818;stroke-width:0.5;stroke-dasharray:5.0,5.0;" x1="1432.5" x2="1432.5" y1="88.5547" y2="1606.2969"/><line style="stroke:#181818;stroke-width:0.5;stroke-dasharray:5.0,5.0;" x1="1581.5" x2="1581.5" y1="88.5547" y2="1606.2969"/><line style="stroke:#181818;stroke-width:0.5;stroke-dasharray:5.0,5.0;" x1="1794.5" x2="1794.5" y1="88.5547" y2="1606.2969"/><line style="stroke:#181818;stroke-width:0.5;stroke-dasharray:5.0,5.0;" x1="2078.5" x2="2078.5" y1="88.5547" y2="1606.2969"/><line style="stroke:#181818;stroke-width:0.5;stroke-dasharray:5.0,5.0;" x1="2302.5" x2="2302.5" y1="88.5547" y2="1606.2969"/><text fill="#000000" font-family="sans-serif" font-size="20" lengthAdjust="spacing" textLength="56" x="20" y="84.3359">Agent</text><ellipse cx="51" cy="13.5" fill="#E3E3E3" rx="8" ry="8" style="stroke:#181818;stroke-width:0.5;"/><path d="M51,21.5 L51,48.5 M38,29.5 L64,29.5 M51,48.5 L38,63.5 M51,48.5 L64,63.5 " fill="none" style="stroke:#181818;stroke-width:0.5;"/><text fill="#000000" font-family="sans-serif" font-size="20" lengthAdjust="spacing" textLength="56" x="20" y="1624.6328">Agent</text><ellipse cx="51" cy="1637.3516" fill="#E3E3E3" rx="8" ry="8" style="stroke:#181818;stroke-width:0.5;"/><path d="M51,1645.3516 L51,1672.3516 M38,1653.3516 L64,1653.3516 M51,1672.3516 L38,1687.3516 M51,1672.3516 L64,1687.3516 " fill="none" style="stroke:#181818;stroke-width:0.5;"/><rect fill="#E3E3E3" height="37.5547" rx="2.5" ry="2.5" style="stroke:#181818;stroke-width:0.5;" width="330" x="504" y="50"/><text fill="#000000" font-family="sans-serif" font-size="20" lengthAdjust="spacing" textLength="316" x="511" y="76.3359">:RespondsVisitRequestOpinionUI</text><rect fill="#E3E3E3" height="37.5547" rx="2.5" ry="2.5" style="stroke:#181818;stroke-width:0.5;" width="330" x="504" y="1605.2969"/><text fill="#000000" font-family="sans-serif" font-size="20" lengthAdjust="spacing" textLength="316" x="511" y="1631.6328">:RespondsVisitRequestOpinionUI</text><rect fill="#E3E3E3" height="37.5547" rx="2.5" ry="2.5" style="stroke:#181818;stroke-width:0.5;" width="260" x="961" y="1605.2969"/><text fill="#000000" font-family="sans-serif" font-size="20" lengthAdjust="spacing" textLength="246" x="968" y="1631.6328">:AnnouncementController</text><rect fill="#E3E3E3" height="37.5547" rx="2.5" ry="2.5" style="stroke:#181818;stroke-width:0.5;" width="139" x="1363.5" y="50"/><text fill="#000000" font-family="sans-serif" font-size="20" lengthAdjust="spacing" textLength="125" x="1370.5" y="76.3359">:Repositories</text><rect fill="#E3E3E3" height="37.5547" rx="2.5" ry="2.5" style="stroke:#181818;stroke-width:0.5;" width="139" x="1363.5" y="1605.2969"/><text fill="#000000" font-family="sans-serif" font-size="20" lengthAdjust="spacing" textLength="125" x="1370.5" y="1631.6328">:Repositories</text><rect fill="#E3E3E3" height="61.1094" rx="2.5" ry="2.5" style="stroke:#181818;stroke-width:0.5;" width="139" x="1512.5" y="26.4453"/><text fill="#000000" font-family="sans-serif" font-size="20" lengthAdjust="spacing" textLength="114" x="1525" y="52.7813">repositories</text><text fill="#000000" font-family="sans-serif" font-size="20" lengthAdjust="spacing" textLength="125" x="1519.5" y="76.3359">:Repositories</text><rect fill="#E3E3E3" height="61.1094" rx="2.5" ry="2.5" style="stroke:#181818;stroke-width:0.5;" width="139" x="1512.5" y="1605.2969"/><text fill="#000000" font-family="sans-serif" font-size="20" lengthAdjust="spacing" textLength="114" x="1525" y="1631.6328">repositories</text><text fill="#000000" font-family="sans-serif" font-size="20" lengthAdjust="spacing" textLength="125" x="1519.5" y="1655.1875">:Repositories</text><rect fill="#E3E3E3" height="61.1094" rx="2.5" ry="2.5" style="stroke:#181818;stroke-width:0.5;" width="266" x="1661.5" y="26.4453"/><text fill="#000000" font-family="sans-serif" font-size="20" lengthAdjust="spacing" textLength="243" x="1673" y="52.7813">announcementRepository</text><text fill="#000000" font-family="sans-serif" font-size="20" lengthAdjust="spacing" textLength="252" x="1668.5" y="76.3359">:AnnouncementRepository</text><rect fill="#E3E3E3" height="61.1094" rx="2.5" ry="2.5" style="stroke:#181818;stroke-width:0.5;" width="266" x="1661.5" y="1605.2969"/><text fill="#000000" font-family="sans-serif" font-size="20" lengthAdjust="spacing" textLength="243" x="1673" y="1631.6328">announcementRepository</text><text fill="#000000" font-family="sans-serif" font-size="20" lengthAdjust="spacing" textLength="252" x="1668.5" y="1655.1875">:AnnouncementRepository</text><rect fill="#E3E3E3" height="61.1094" rx="2.5" ry="2.5" style="stroke:#181818;stroke-width:0.5;" width="212" x="1972.5" y="26.4453"/><text fill="#000000" font-family="sans-serif" font-size="20" lengthAdjust="spacing" textLength="189" x="1984" y="52.7813">visitRequestMapper</text><text fill="#000000" font-family="sans-serif" font-size="20" lengthAdjust="spacing" textLength="198" x="1979.5" y="76.3359">:VisitRequestMapper</text><rect fill="#E3E3E3" height="61.1094" rx="2.5" ry="2.5" style="stroke:#181818;stroke-width:0.5;" width="212" x="1972.5" y="1605.2969"/><text fill="#000000" font-family="sans-serif" font-size="20" lengthAdjust="spacing" textLength="189" x="1984" y="1631.6328">visitRequestMapper</text><text fill="#000000" font-family="sans-serif" font-size="20" lengthAdjust="spacing" textLength="198" x="1979.5" y="1655.1875">:VisitRequestMapper</text><rect fill="#E3E3E3" height="61.1094" rx="2.5" ry="2.5" style="stroke:#181818;stroke-width:0.5;" width="216" x="2194.5" y="26.4453"/><text fill="#000000" font-family="sans-serif" font-size="20" lengthAdjust="spacing" textLength="193" x="2206" y="52.7813">visitRequestOpinion</text><text fill="#000000" font-family="sans-serif" font-size="20" lengthAdjust="spacing" textLength="202" x="2201.5" y="76.3359">:VisitRequestOpinion</text><rect fill="#E3E3E3" height="61.1094" rx="2.5" ry="2.5" style="stroke:#181818;stroke-width:0.5;" width="216" x="2194.5" y="1605.2969"/><text fill="#000000" font-family="sans-serif" font-size="20" lengthAdjust="spacing" textLength="193" x="2206" y="1631.6328">visitRequestOpinion</text><text fill="#000000" font-family="sans-serif" font-size="20" lengthAdjust="spacing" textLength="202" x="2201.5" y="1655.1875">:VisitRequestOpinion</text><rect fill="#FFFFFF" height="1498.7422" style="stroke:#181818;stroke-width:1.0;" width="10" x="46" y="98.5547"/><rect fill="#FFFFFF" height="799.6484" style="stroke:#181818;stroke-width:1.0;" width="10" x="664" y="128.1094"/><rect fill="#FFFFFF" height="187.7734" style="stroke:#181818;stroke-width:1.0;" width="10" x="664" y="965.3125"/><rect fill="#FFFFFF" height="37.5547" style="stroke:#181818;stroke-width:1.0;" width="10" x="664" y="1190.6406"/><rect fill="#FFFFFF" height="315.5469" style="stroke:#181818;stroke-width:1.0;" width="10" x="664" y="1265.75"/><rect fill="#FFFFFF" height="675.9844" style="stroke:#181818;stroke-width:1.0;" width="10" x="1086" y="214.2188"/><rect fill="#FFFFFF" height="198.7734" style="stroke:#181818;stroke-width:1.0;" width="10" x="1091" y="321.8828"/><rect fill="#FFFFFF" height="112.6641" style="stroke:#181818;stroke-width:1.0;" width="10" x="1086" y="1002.8672"/><rect fill="#FFFFFF" height="216.8828" style="stroke:#181818;stroke-width:1.0;" width="10" x="1086" y="1326.8594"/><rect fill="#FFFFFF" height="37.5547" style="stroke:#181818;stroke-width:1.0;" width="10" x="1428" y="364.4375"/><rect fill="#FFFFFF" height="37.5547" style="stroke:#181818;stroke-width:1.0;" width="10" x="1577" y="439.5469"/><rect fill="#FFFFFF" height="99.6641" style="stroke:#181818;stroke-width:1.0;" width="10" x="1789.5" y="565.2109"/><rect fill="#FFFFFF" height="99.6641" style="stroke:#181818;stroke-width:1.0;" width="10" x="2073.5" y="702.4297"/><rect fill="#FFFFFF" height="37.5547" style="stroke:#181818;stroke-width:1.0;" width="10" x="2297.5" y="1040.4219"/><polygon fill="#181818" points="652,124.1094,662,128.1094,652,132.1094,656,128.1094" style="stroke:#181818;stroke-width:1.0;"/><line style="stroke:#181818;stroke-width:1.0;" x1="56" x2="658" y1="128.1094" y2="128.1094"/><text fill="#000000" font-family="sans-serif" font-size="20" font-weight="bold" lengthAdjust="spacing" textLength="13" x="63" y="121.8906">1</text><text fill="#000000" font-family="sans-serif" font-size="20" lengthAdjust="spacing" textLength="572" x="80" y="121.8906">asks to register the visit and the opinion about the business</text><polygon fill="#181818" points="949,161.6641,959,165.6641,949,169.6641,953,165.6641" style="stroke:#181818;stroke-width:1.0;"/><line style="stroke:#181818;stroke-width:1.0;" x1="674" x2="955" y1="165.6641" y2="165.6641"/><text fill="#000000" font-family="sans-serif" font-size="20" font-weight="bold" lengthAdjust="spacing" textLength="13" x="681" y="159.4453">2</text><text fill="#000000" font-family="sans-serif" font-size="20" lengthAdjust="spacing" textLength="58" x="698" y="159.4453">create</text><rect fill="#E3E3E3" height="37.5547" rx="2.5" ry="2.5" style="stroke:#181818;stroke-width:0.5;" width="260" x="961" y="136.1094"/><text fill="#000000" font-family="sans-serif" font-size="20" lengthAdjust="spacing" textLength="246" x="968" y="162.4453">:AnnouncementController</text><polygon fill="#181818" points="1074,210.2188,1084,214.2188,1074,218.2188,1078,214.2188" style="stroke:#181818;stroke-width:1.0;"/><line style="stroke:#181818;stroke-width:1.0;" x1="674" x2="1080" y1="214.2188" y2="214.2188"/><text fill="#000000" font-family="sans-serif" font-size="20" font-weight="bold" lengthAdjust="spacing" textLength="13" x="681" y="208">3</text><text fill="#000000" font-family="sans-serif" font-size="20" lengthAdjust="spacing" textLength="310" x="698" y="208">getAllVisitRequestListForAgent()</text><rect fill="none" height="57.1094" style="stroke:#000000;stroke-width:1.5;" width="266" x="958" y="222.2188"/><path d="M958,222.2188 L1032,222.2188 L1032,237.2188 L1022,247.2188 L958,247.2188 L958,222.2188 " fill="#EEEEEE" style="stroke:#000000;stroke-width:2.0;"/><text fill="#000000" font-family="sans-serif" font-size="20" font-weight="bold" lengthAdjust="spacing" textLength="29" x="971" y="243.5547">ref</text><text fill="#000000" font-family="sans-serif" font-size="20" lengthAdjust="spacing" textLength="150" x="1016" y="270.5547">Get agent Email</text><line style="stroke:#181818;stroke-width:1.0;" x1="1096" x2="1143" y1="308.8828" y2="308.8828"/><line style="stroke:#181818;stroke-width:1.0;" x1="1143" x2="1143" y1="308.8828" y2="321.8828"/><line style="stroke:#181818;stroke-width:1.0;" x1="1102" x2="1143" y1="321.8828" y2="321.8828"/><polygon fill="#181818" points="1112,317.8828,1102,321.8828,1112,325.8828,1108,321.8828" style="stroke:#181818;stroke-width:1.0;"/><text fill="#000000" font-family="sans-serif" font-size="20" font-weight="bold" lengthAdjust="spacing" textLength="13" x="1108" y="302.6641">4</text><text fill="#000000" font-family="sans-serif" font-size="20" lengthAdjust="spacing" textLength="290" x="1125" y="302.6641">getAnnouncementRepository()</text><polygon fill="#181818" points="1416,360.4375,1426,364.4375,1416,368.4375,1420,364.4375" style="stroke:#181818;stroke-width:1.0;"/><line style="stroke:#181818;stroke-width:1.0;" x1="1101" x2="1422" y1="364.4375" y2="364.4375"/><text fill="#000000" font-family="sans-serif" font-size="20" font-weight="bold" lengthAdjust="spacing" textLength="13" x="1108" y="358.2188">5</text><text fill="#000000" font-family="sans-serif" font-size="20" lengthAdjust="spacing" textLength="123" x="1125" y="358.2188">getInstance()</text><polygon fill="#181818" points="1112,397.9922,1102,401.9922,1112,405.9922,1108,401.9922" style="stroke:#181818;stroke-width:1.0;"/><line style="stroke:#181818;stroke-width:1.0;stroke-dasharray:2.0,2.0;" x1="1106" x2="1432" y1="401.9922" y2="401.9922"/><text fill="#000000" font-family="sans-serif" font-size="20" font-weight="bold" lengthAdjust="spacing" textLength="13" x="1118" y="395.7734">6</text><text fill="#000000" font-family="sans-serif" font-size="20" lengthAdjust="spacing" textLength="119" x="1135" y="395.7734">Repositories</text><polygon fill="#181818" points="1565,435.5469,1575,439.5469,1565,443.5469,1569,439.5469" style="stroke:#181818;stroke-width:1.0;"/><line style="stroke:#181818;stroke-width:1.0;" x1="1101" x2="1571" y1="439.5469" y2="439.5469"/><text fill="#000000" font-family="sans-serif" font-size="20" font-weight="bold" lengthAdjust="spacing" textLength="13" x="1108" y="433.3281">7</text><text fill="#000000" font-family="sans-serif" font-size="20" lengthAdjust="spacing" textLength="290" x="1125" y="433.3281">getAnnouncementRepository()</text><polygon fill="#181818" points="1112,473.1016,1102,477.1016,1112,481.1016,1108,477.1016" style="stroke:#181818;stroke-width:1.0;"/><line style="stroke:#181818;stroke-width:1.0;stroke-dasharray:2.0,2.0;" x1="1106" x2="1581" y1="477.1016" y2="477.1016"/><text fill="#000000" font-family="sans-serif" font-size="20" font-weight="bold" lengthAdjust="spacing" textLength="13" x="1118" y="470.8828">8</text><text fill="#000000" font-family="sans-serif" font-size="20" lengthAdjust="spacing" textLength="246" x="1135" y="470.8828">AnnouncementRepository</text><line style="stroke:#181818;stroke-width:1.0;" x1="1101" x2="1143" y1="519.6563" y2="519.6563"/><line style="stroke:#181818;stroke-width:1.0;" x1="1143" x2="1143" y1="519.6563" y2="532.6563"/><line style="stroke:#181818;stroke-width:1.0;" x1="1096" x2="1143" y1="532.6563" y2="532.6563"/><polygon fill="#181818" points="1106,528.6563,1096,532.6563,1106,536.6563,1102,532.6563" style="stroke:#181818;stroke-width:1.0;"/><text fill="#000000" font-family="sans-serif" font-size="20" font-weight="bold" lengthAdjust="spacing" textLength="13" x="1108" y="513.4375">9</text><text fill="#000000" font-family="sans-serif" font-size="20" lengthAdjust="spacing" textLength="246" x="1125" y="513.4375">AnnouncementRepository</text><polygon fill="#181818" points="1777.5,561.2109,1787.5,565.2109,1777.5,569.2109,1781.5,565.2109" style="stroke:#181818;stroke-width:1.0;"/><line style="stroke:#181818;stroke-width:1.0;" x1="1096" x2="1783.5" y1="565.2109" y2="565.2109"/><text fill="#000000" font-family="sans-serif" font-size="20" font-weight="bold" lengthAdjust="spacing" textLength="26" x="1103" y="558.9922">10</text><text fill="#000000" font-family="sans-serif" font-size="20" lengthAdjust="spacing" textLength="337" x="1133" y="558.9922">getVisitRequestListForAgent(email)</text><rect fill="none" height="57.1094" style="stroke:#000000;stroke-width:1.5;" width="546" x="1658.5" y="573.2109"/><path d="M1658.5,573.2109 L1732.5,573.2109 L1732.5,588.2109 L1722.5,598.2109 L1658.5,598.2109 L1658.5,573.2109 " fill="#EEEEEE" style="stroke:#000000;stroke-width:2.0;"/><text fill="#000000" font-family="sans-serif" font-size="20" font-weight="bold" lengthAdjust="spacing" textLength="29" x="1671.5" y="594.5469">ref</text><text fill="#000000" font-family="sans-serif" font-size="20" lengthAdjust="spacing" textLength="538" x="1662.5" y="621.5469">Get List of VisitRequest for Agent that already happened</text><polygon fill="#181818" points="1107,660.875,1097,664.875,1107,668.875,1103,664.875" style="stroke:#181818;stroke-width:1.0;"/><line style="stroke:#181818;stroke-width:1.0;stroke-dasharray:2.0,2.0;" x1="1101" x2="1793.5" y1="664.875" y2="664.875"/><text fill="#000000" font-family="sans-serif" font-size="20" font-weight="bold" lengthAdjust="spacing" textLength="26" x="1113" y="658.6563">11</text><text fill="#000000" font-family="sans-serif" font-size="20" lengthAdjust="spacing" textLength="153" x="1143" y="658.6563">ListVisitRequest</text><polygon fill="#181818" points="2061.5,698.4297,2071.5,702.4297,2061.5,706.4297,2065.5,702.4297" style="stroke:#181818;stroke-width:1.0;"/><line style="stroke:#181818;stroke-width:1.0;" x1="1096" x2="2067.5" y1="702.4297" y2="702.4297"/><text fill="#000000" font-family="sans-serif" font-size="20" font-weight="bold" lengthAdjust="spacing" textLength="26" x="1103" y="696.2109">12</text><text fill="#000000" font-family="sans-serif" font-size="20" lengthAdjust="spacing" textLength="220" x="1133" y="696.2109">toDto(ListVisitRequest)</text><rect fill="none" height="57.1094" style="stroke:#000000;stroke-width:1.5;" width="218" x="1969.5" y="710.4297"/><path d="M1969.5,710.4297 L2043.5,710.4297 L2043.5,725.4297 L2033.5,735.4297 L1969.5,735.4297 L1969.5,710.4297 " fill="#EEEEEE" style="stroke:#000000;stroke-width:2.0;"/><text fill="#000000" font-family="sans-serif" font-size="20" font-weight="bold" lengthAdjust="spacing" textLength="29" x="1982.5" y="731.7656">ref</text><text fill="#000000" font-family="sans-serif" font-size="20" lengthAdjust="spacing" textLength="189" x="1984" y="758.7656">Convert List to DTO</text><polygon fill="#181818" points="1107,798.0938,1097,802.0938,1107,806.0938,1103,802.0938" style="stroke:#181818;stroke-width:1.0;"/><line style="stroke:#181818;stroke-width:1.0;stroke-dasharray:2.0,2.0;" x1="1101" x2="2077.5" y1="802.0938" y2="802.0938"/><text fill="#000000" font-family="sans-serif" font-size="20" font-weight="bold" lengthAdjust="spacing" textLength="26" x="1113" y="795.875">13</text><text fill="#000000" font-family="sans-serif" font-size="20" lengthAdjust="spacing" textLength="197" x="1143" y="795.875">ListVisitRequestDTO</text><line style="stroke:#181818;stroke-width:1.0;" x1="1096" x2="1138" y1="839.6484" y2="839.6484"/><line style="stroke:#181818;stroke-width:1.0;" x1="1138" x2="1138" y1="839.6484" y2="852.6484"/><line style="stroke:#181818;stroke-width:1.0;" x1="1097" x2="1138" y1="852.6484" y2="852.6484"/><polygon fill="#181818" points="1107,848.6484,1097,852.6484,1107,856.6484,1103,852.6484" style="stroke:#181818;stroke-width:1.0;"/><text fill="#000000" font-family="sans-serif" font-size="20" font-weight="bold" lengthAdjust="spacing" textLength="26" x="1103" y="833.4297">14</text><text fill="#000000" font-family="sans-serif" font-size="20" lengthAdjust="spacing" textLength="288" x="1133" y="833.4297">sortComboVisitItemsByDate();</text><polygon fill="#181818" points="685,886.2031,675,890.2031,685,894.2031,681,890.2031" style="stroke:#181818;stroke-width:1.0;"/><line style="stroke:#181818;stroke-width:1.0;stroke-dasharray:2.0,2.0;" x1="679" x2="1090" y1="890.2031" y2="890.2031"/><text fill="#000000" font-family="sans-serif" font-size="20" font-weight="bold" lengthAdjust="spacing" textLength="26" x="691" y="883.9844">15</text><text fill="#000000" font-family="sans-serif" font-size="20" lengthAdjust="spacing" textLength="197" x="721" y="883.9844">ListVisitRequestDTO</text><polygon fill="#181818" points="67,923.7578,57,927.7578,67,931.7578,63,927.7578" style="stroke:#181818;stroke-width:1.0;"/><line style="stroke:#181818;stroke-width:1.0;stroke-dasharray:2.0,2.0;" x1="61" x2="668" y1="927.7578" y2="927.7578"/><text fill="#000000" font-family="sans-serif" font-size="20" font-weight="bold" lengthAdjust="spacing" textLength="26" x="73" y="921.5391">16</text><text fill="#000000" font-family="sans-serif" font-size="20" lengthAdjust="spacing" textLength="470" x="103" y="921.5391">shows a Visit Requests list and asks to select one</text><polygon fill="#181818" points="652,961.3125,662,965.3125,652,969.3125,656,965.3125" style="stroke:#181818;stroke-width:1.0;"/><line style="stroke:#181818;stroke-width:1.0;" x1="56" x2="658" y1="965.3125" y2="965.3125"/><text fill="#000000" font-family="sans-serif" font-size="20" font-weight="bold" lengthAdjust="spacing" textLength="26" x="63" y="959.0938">17</text><text fill="#000000" font-family="sans-serif" font-size="20" lengthAdjust="spacing" textLength="205" x="93" y="959.0938">selects a visit request</text><polygon fill="#181818" points="1074,998.8672,1084,1002.8672,1074,1006.8672,1078,1002.8672" style="stroke:#181818;stroke-width:1.0;"/><line style="stroke:#181818;stroke-width:1.0;" x1="674" x2="1080" y1="1002.8672" y2="1002.8672"/><text fill="#000000" font-family="sans-serif" font-size="20" font-weight="bold" lengthAdjust="spacing" textLength="26" x="681" y="996.6484">18</text><text fill="#000000" font-family="sans-serif" font-size="20" lengthAdjust="spacing" textLength="206" x="711" y="996.6484">getClassificationList()</text><polygon fill="#181818" points="2285.5,1036.4219,2295.5,1040.4219,2285.5,1044.4219,2289.5,1040.4219" style="stroke:#181818;stroke-width:1.0;"/><line style="stroke:#181818;stroke-width:1.0;" x1="1096" x2="2291.5" y1="1040.4219" y2="1040.4219"/><text fill="#000000" font-family="sans-serif" font-size="20" font-weight="bold" lengthAdjust="spacing" textLength="26" x="1103" y="1034.2031">19</text><text fill="#000000" font-family="sans-serif" font-size="20" lengthAdjust="spacing" textLength="206" x="1133" y="1034.2031">getClassificationList()</text><polygon fill="#181818" points="1107,1073.9766,1097,1077.9766,1107,1081.9766,1103,1077.9766" style="stroke:#181818;stroke-width:1.0;"/><line style="stroke:#181818;stroke-width:1.0;stroke-dasharray:2.0,2.0;" x1="1101" x2="2301.5" y1="1077.9766" y2="1077.9766"/><text fill="#000000" font-family="sans-serif" font-size="20" font-weight="bold" lengthAdjust="spacing" textLength="26" x="1113" y="1071.7578">20</text><text fill="#000000" font-family="sans-serif" font-size="20" lengthAdjust="spacing" textLength="162" x="1143" y="1071.7578">ClassificationList</text><polygon fill="#181818" points="685,1111.5313,675,1115.5313,685,1119.5313,681,1115.5313" style="stroke:#181818;stroke-width:1.0;"/><line style="stroke:#181818;stroke-width:1.0;stroke-dasharray:2.0,2.0;" x1="679" x2="1090" y1="1115.5313" y2="1115.5313"/><text fill="#000000" font-family="sans-serif" font-size="20" font-weight="bold" lengthAdjust="spacing" textLength="26" x="691" y="1109.3125">21</text><text fill="#000000" font-family="sans-serif" font-size="20" lengthAdjust="spacing" textLength="162" x="721" y="1109.3125">ClassificationList</text><polygon fill="#181818" points="67,1149.0859,57,1153.0859,67,1157.0859,63,1153.0859" style="stroke:#181818;stroke-width:1.0;"/><line style="stroke:#181818;stroke-width:1.0;stroke-dasharray:2.0,2.0;" x1="61" x2="668" y1="1153.0859" y2="1153.0859"/><text fill="#000000" font-family="sans-serif" font-size="20" font-weight="bold" lengthAdjust="spacing" textLength="26" x="73" y="1146.8672">22</text><text fill="#000000" font-family="sans-serif" font-size="20" lengthAdjust="spacing" textLength="463" x="103" y="1146.8672">shows a Classification list and asks to select one</text><polygon fill="#181818" points="652,1186.6406,662,1190.6406,652,1194.6406,656,1190.6406" style="stroke:#181818;stroke-width:1.0;"/><line style="stroke:#181818;stroke-width:1.0;" x1="56" x2="658" y1="1190.6406" y2="1190.6406"/><text fill="#000000" font-family="sans-serif" font-size="20" font-weight="bold" lengthAdjust="spacing" textLength="26" x="63" y="1184.4219">23</text><text fill="#000000" font-family="sans-serif" font-size="20" lengthAdjust="spacing" textLength="216" x="93" y="1184.4219">selects a Classification</text><polygon fill="#181818" points="67,1224.1953,57,1228.1953,67,1232.1953,63,1228.1953" style="stroke:#181818;stroke-width:1.0;"/><line style="stroke:#181818;stroke-width:1.0;stroke-dasharray:2.0,2.0;" x1="61" x2="668" y1="1228.1953" y2="1228.1953"/><text fill="#000000" font-family="sans-serif" font-size="20" font-weight="bold" lengthAdjust="spacing" textLength="26" x="73" y="1221.9766">24</text><text fill="#000000" font-family="sans-serif" font-size="20" lengthAdjust="spacing" textLength="313" x="103" y="1221.9766">requests a Visit Request Opinion</text><polygon fill="#181818" points="652,1261.75,662,1265.75,652,1269.75,656,1265.75" style="stroke:#181818;stroke-width:1.0;"/><line style="stroke:#181818;stroke-width:1.0;" x1="56" x2="658" y1="1265.75" y2="1265.75"/><text fill="#000000" font-family="sans-serif" font-size="20" font-weight="bold" lengthAdjust="spacing" textLength="26" x="63" y="1259.5313">25</text><text fill="#000000" font-family="sans-serif" font-size="20" lengthAdjust="spacing" textLength="281" x="93" y="1259.5313">types the opinion and submit</text><polygon fill="#181818" points="1074,1322.8594,1084,1326.8594,1074,1330.8594,1078,1326.8594" style="stroke:#181818;stroke-width:1.0;"/><line style="stroke:#181818;stroke-width:1.0;" x1="674" x2="1080" y1="1326.8594" y2="1326.8594"/><text fill="#000000" font-family="sans-serif" font-size="20" font-weight="bold" lengthAdjust="spacing" textLength="26" x="681" y="1308.8633">26</text><text fill="#000000" font-family="sans-serif" font-size="20" lengthAdjust="spacing" textLength="363" x="711" y="1297.0859">setVisitRequest(opinion,classification,</text><text fill="#000000" font-family="sans-serif" font-size="20" lengthAdjust="spacing" textLength="123" x="711" y="1320.6406">visitRequest)</text><line style="stroke:#181818;stroke-width:1.0;" x1="1096" x2="1138" y1="1364.4141" y2="1364.4141"/><line style="stroke:#181818;stroke-width:1.0;" x1="1138" x2="1138" y1="1364.4141" y2="1377.4141"/><line style="stroke:#181818;stroke-width:1.0;" x1="1097" x2="1138" y1="1377.4141" y2="1377.4141"/><polygon fill="#181818" points="1107,1373.4141,1097,1377.4141,1107,1381.4141,1103,1377.4141" style="stroke:#181818;stroke-width:1.0;"/><text fill="#000000" font-family="sans-serif" font-size="20" font-weight="bold" lengthAdjust="spacing" textLength="26" x="1103" y="1358.1953">27</text><text fill="#000000" font-family="sans-serif" font-size="20" lengthAdjust="spacing" textLength="172" x="1133" y="1358.1953">isOpinionLenght()</text><path d="M10,1392.4141 L82,1392.4141 L82,1407.9688 L72,1417.9688 L10,1417.9688 L10,1392.4141 " fill="#EEEEEE" style="stroke:#000000;stroke-width:1.5;"/><rect fill="none" height="196.8828" style="stroke:#000000;stroke-width:1.5;" width="1221" x="10" y="1392.4141"/><text fill="#000000" font-family="sans-serif" font-size="20" font-weight="bold" lengthAdjust="spacing" textLength="27" x="25" y="1412.75">alt</text><text fill="#000000" font-family="sans-serif" font-size="20" font-weight="bold" lengthAdjust="spacing" textLength="259" x="97" y="1413.75">[isOpinionLenght==true]</text><rect fill="none" height="80.6641" style="stroke:#000000;stroke-width:1.5;" width="504" x="958" y="1426.5234"/><path d="M958,1426.5234 L1032,1426.5234 L1032,1441.5234 L1022,1451.5234 L958,1451.5234 L958,1426.5234 " fill="#EEEEEE" style="stroke:#000000;stroke-width:2.0;"/><text fill="#000000" font-family="sans-serif" font-size="20" font-weight="bold" lengthAdjust="spacing" textLength="29" x="971" y="1447.8594">ref</text><text fill="#000000" font-family="sans-serif" font-size="20" lengthAdjust="spacing" textLength="496" x="962" y="1474.8594">Create visitRequestOpinion and add to VisitRequest</text><text fill="#000000" font-family="sans-serif" font-size="20" lengthAdjust="spacing" textLength="6" x="1207" y="1498.4141"> </text><line style="stroke:#000000;stroke-width:1.0;stroke-dasharray:2.0,2.0;" x1="10" x2="1231" y1="1513.1875" y2="1513.1875"/><polygon fill="#181818" points="685,1539.7422,675,1543.7422,685,1547.7422,681,1543.7422" style="stroke:#181818;stroke-width:1.0;"/><line style="stroke:#181818;stroke-width:1.0;stroke-dasharray:2.0,2.0;" x1="679" x2="1090" y1="1543.7422" y2="1543.7422"/><text fill="#000000" font-family="sans-serif" font-size="20" font-weight="bold" lengthAdjust="spacing" textLength="26" x="691" y="1537.5234">28</text><text fill="#000000" font-family="sans-serif" font-size="20" lengthAdjust="spacing" textLength="181" x="721" y="1537.5234">insuccess message</text><polygon fill="#181818" points="67,1577.2969,57,1581.2969,67,1585.2969,63,1581.2969" style="stroke:#181818;stroke-width:1.0;"/><line style="stroke:#181818;stroke-width:1.0;stroke-dasharray:2.0,2.0;" x1="61" x2="668" y1="1581.2969" y2="1581.2969"/><text fill="#000000" font-family="sans-serif" font-size="20" font-weight="bold" lengthAdjust="spacing" textLength="26" x="73" y="1575.0781">29</text><text fill="#000000" font-family="sans-serif" font-size="20" lengthAdjust="spacing" textLength="275" x="103" y="1575.0781">shows an insuccess message</text><!--SRC=[hLTDRzim3BthLn2zB1qQODWnGmja_HW2TEZGhZtrejXC8iIMF4bkb_twKRAJIBQSPC1oA1A9UdmY7qdLh8MikEPbeR8rvf3ZWjU5lLFIFea_29y_CRCrWL99bQsqAX6ihZ7OgNYsvajyifi2GMDckLmMeO5PyLoz2xc41IyCCiPhgsHTpb4pzc4bSeI5KdQkVZFQowpIS3PTehHdm0tu1KP8LcIYujB2sUGHJQLaRbw44VOHVzLex4Cbf53oUUPFFSywHwPIgbfcM1BkDTrGgw90xMsptK_MyrCfyg2qGEDD7sz_FCGsEZ1vbVqJj1yVu06HdVM6ZawJ6nwaknKZlWLH-Cwh2ZMXlVGMFLBflmwVRwFO0MXNFO9glZUf4c_SOfkY9dFZAuezJCXoRS0gklzI68iQx0h1Um8kS_-hHG8-LxNrA_FQ28d6CA3F3fvowHS8bz3tsVhuSGAPHZ9XQOC9BD5EYoAyoZsnkLFQwsjq7ZiAX031H-C2r1jTOM3VVRuXtSjXmct9HH7jeynPjB37YVb2GpYfWvRhzdECS-p2oTPZpwIXyiomWnRWUOL7csu5nbsYeT0ZynmFOCMqg3PElt6IhQkkJgwgFjSq_X1hXvdcFBuAjFLle2UbgGlPw65GlUYKrW_IpcUlQwH2kHFtITPRgJiUe1OGSgCcJYY-1koAKpaKL9lv1bQkvKZCau2kDbBhlL2Cm-1JO1o3q7iFPH_yleCux4rFd5XrOzMeYviMuIx6RJyT2DOkkAtPK4Xf895L6rPgcZS_7mPiK_5gmFkoxrubXNeWIaDTQW96QPgXvLnvz9d5qdpTt136wFmBsySYA9pnbHyAXnW5J9XhvEJJJnHojrBlz0ven0RjKGE52vQR9TjHOx2WrmSeYIoeF3Szuj7Ks3d4PXxfLa7XaIshvrb7TrIGrmKtHYn4nYsDBtUde5KTg_XKLzaEmkFeIGrk9tBAgDthLa_VIV9qc9E1h1x42iwdKngV_HyfZH5PbDIOWzuAgQCiQ5yxWSUEDxkfqCHF6E9iwdaf-YgA5UIeHYKmQY4kieZunQjyItQXqoTANBJ2jDUwHxbSTJN52miTYyjB_yvdWptjYC2l_SiC4e_B9iDvxX8SjN1shDkX-_TXuBPUZ4AQEile1Gab_Q47sGdpE399obJ2gRZzTrzNj-ml]--></g></svg>