<?xml version="1.0" encoding="UTF-8" standalone="no"?><svg xmlns="http://www.w3.org/2000/svg" xmlns:xlink="http://www.w3.org/1999/xlink" contentStyleType="text/css" height="697px" preserveAspectRatio="none" style="width:916px;height:697px;background:#FFFFFF;" version="1.1" viewBox="0 0 916 697" width="916px" zoomAndPan="magnify"><defs/><g><text fill="#000000" font-family="sans-serif" font-size="14" font-weight="bold" lengthAdjust="spacing" textLength="295" x="312.5" y="28.5352">US002 - System Sequence Diagram (SSD)</text><rect fill="#FFFFFF" height="464.6563" style="stroke:#181818;stroke-width:1.0;" width="10" x="34" y="136.043"/><rect fill="#FFFFFF" height="464.6563" style="stroke:#181818;stroke-width:1.0;" width="10" x="260" y="136.043"/><rect fill="#FFFFFF" height="464.6563" style="stroke:#181818;stroke-width:1.0;" width="10" x="725" y="136.043"/><line style="stroke:#181818;stroke-width:0.5;stroke-dasharray:5.0,5.0;" x1="39" x2="39" y1="126.043" y2="609.6992"/><line style="stroke:#181818;stroke-width:0.5;stroke-dasharray:5.0,5.0;" x1="265" x2="265" y1="126.043" y2="609.6992"/><line style="stroke:#181818;stroke-width:0.5;stroke-dasharray:5.0,5.0;" x1="730" x2="730" y1="126.043" y2="609.6992"/><text fill="#000000" font-family="sans-serif" font-size="20" lengthAdjust="spacing" textLength="62" x="5" y="121.8242">Owner</text><ellipse cx="39" cy="50.9883" fill="#E3E3E3" rx="8" ry="8" style="stroke:#181818;stroke-width:0.5;"/><path d="M39,58.9883 L39,85.9883 M26,66.9883 L52,66.9883 M39,85.9883 L26,100.9883 M39,85.9883 L52,100.9883 " fill="none" style="stroke:#181818;stroke-width:0.5;"/><text fill="#000000" font-family="sans-serif" font-size="20" lengthAdjust="spacing" textLength="62" x="5" y="628.0352">Owner</text><ellipse cx="39" cy="640.7539" fill="#E3E3E3" rx="8" ry="8" style="stroke:#181818;stroke-width:0.5;"/><path d="M39,648.7539 L39,675.7539 M26,656.7539 L52,656.7539 M39,675.7539 L26,690.7539 M39,675.7539 L52,690.7539 " fill="none" style="stroke:#181818;stroke-width:0.5;"/><text fill="#000000" font-family="sans-serif" font-size="20" lengthAdjust="spacing" textLength="56" x="234" y="121.8242">Agent</text><ellipse cx="265" cy="50.9883" fill="#E3E3E3" rx="8" ry="8" style="stroke:#181818;stroke-width:0.5;"/><path d="M265,58.9883 L265,85.9883 M252,66.9883 L278,66.9883 M265,85.9883 L252,100.9883 M265,85.9883 L278,100.9883 " fill="none" style="stroke:#181818;stroke-width:0.5;"/><text fill="#000000" font-family="sans-serif" font-size="20" lengthAdjust="spacing" textLength="56" x="234" y="628.0352">Agent</text><ellipse cx="265" cy="640.7539" fill="#E3E3E3" rx="8" ry="8" style="stroke:#181818;stroke-width:0.5;"/><path d="M265,648.7539 L265,675.7539 M252,656.7539 L278,656.7539 M265,675.7539 L252,690.7539 M265,675.7539 L278,690.7539 " fill="none" style="stroke:#181818;stroke-width:0.5;"/><rect fill="#E3E3E3" height="37.5547" rx="2.5" ry="2.5" style="stroke:#181818;stroke-width:0.5;" width="82" x="689" y="87.4883"/><text fill="#000000" font-family="sans-serif" font-size="20" lengthAdjust="spacing" textLength="68" x="696" y="113.8242">System</text><rect fill="#E3E3E3" height="37.5547" rx="2.5" ry="2.5" style="stroke:#181818;stroke-width:0.5;" width="82" x="689" y="608.6992"/><text fill="#000000" font-family="sans-serif" font-size="20" lengthAdjust="spacing" textLength="68" x="696" y="635.0352">System</text><rect fill="#FFFFFF" height="464.6563" style="stroke:#181818;stroke-width:1.0;" width="10" x="34" y="136.043"/><rect fill="#FFFFFF" height="464.6563" style="stroke:#181818;stroke-width:1.0;" width="10" x="260" y="136.043"/><rect fill="#FFFFFF" height="464.6563" style="stroke:#181818;stroke-width:1.0;" width="10" x="725" y="136.043"/><polygon fill="#181818" points="248,161.5977,258,165.5977,248,169.5977,252,165.5977" style="stroke:#181818;stroke-width:1.0;"/><line style="stroke:#181818;stroke-width:1.0;" x1="44" x2="254" y1="165.5977" y2="165.5977"/><text fill="#000000" font-family="sans-serif" font-size="20" font-weight="bold" lengthAdjust="spacing" textLength="13" x="51" y="159.3789">1</text><text fill="#000000" font-family="sans-serif" font-size="20" lengthAdjust="spacing" textLength="175" x="68" y="159.3789">provides sale data</text><polygon fill="#181818" points="713,199.1523,723,203.1523,713,207.1523,717,203.1523" style="stroke:#181818;stroke-width:1.0;"/><line style="stroke:#181818;stroke-width:1.0;" x1="270" x2="719" y1="203.1523" y2="203.1523"/><text fill="#000000" font-family="sans-serif" font-size="20" font-weight="bold" lengthAdjust="spacing" textLength="13" x="277" y="196.9336">2</text><text fill="#000000" font-family="sans-serif" font-size="20" lengthAdjust="spacing" textLength="207" x="294" y="196.9336">asks to publish a sale</text><polygon fill="#181818" points="281,236.707,271,240.707,281,244.707,277,240.707" style="stroke:#181818;stroke-width:1.0;"/><line style="stroke:#181818;stroke-width:1.0;stroke-dasharray:2.0,2.0;" x1="275" x2="724" y1="240.707" y2="240.707"/><text fill="#000000" font-family="sans-serif" font-size="20" font-weight="bold" lengthAdjust="spacing" textLength="13" x="287" y="234.4883">3</text><text fill="#000000" font-family="sans-serif" font-size="20" lengthAdjust="spacing" textLength="414" x="304" y="234.4883">requests necessary data about the property</text><polygon fill="#181818" points="713,274.2617,723,278.2617,713,282.2617,717,278.2617" style="stroke:#181818;stroke-width:1.0;"/><line style="stroke:#181818;stroke-width:1.0;" x1="270" x2="719" y1="278.2617" y2="278.2617"/><text fill="#000000" font-family="sans-serif" font-size="20" font-weight="bold" lengthAdjust="spacing" textLength="13" x="277" y="272.043">4</text><text fill="#000000" font-family="sans-serif" font-size="20" lengthAdjust="spacing" textLength="266" x="294" y="272.043">provides the necessary data</text><polygon fill="#181818" points="281,311.8164,271,315.8164,281,319.8164,277,315.8164" style="stroke:#181818;stroke-width:1.0;"/><line style="stroke:#181818;stroke-width:1.0;stroke-dasharray:2.0,2.0;" x1="275" x2="724" y1="315.8164" y2="315.8164"/><text fill="#000000" font-family="sans-serif" font-size="20" font-weight="bold" lengthAdjust="spacing" textLength="13" x="287" y="309.5977">5</text><text fill="#000000" font-family="sans-serif" font-size="20" lengthAdjust="spacing" textLength="274" x="304" y="309.5977">requests a type of comission</text><polygon fill="#181818" points="713,349.3711,723,353.3711,713,357.3711,717,353.3711" style="stroke:#181818;stroke-width:1.0;"/><line style="stroke:#181818;stroke-width:1.0;" x1="270" x2="719" y1="353.3711" y2="353.3711"/><text fill="#000000" font-family="sans-serif" font-size="20" font-weight="bold" lengthAdjust="spacing" textLength="13" x="277" y="347.1523">6</text><text fill="#000000" font-family="sans-serif" font-size="20" lengthAdjust="spacing" textLength="148" x="294" y="347.1523">selects the type</text><polygon fill="#181818" points="281,386.9258,271,390.9258,281,394.9258,277,390.9258" style="stroke:#181818;stroke-width:1.0;"/><line style="stroke:#181818;stroke-width:1.0;stroke-dasharray:2.0,2.0;" x1="275" x2="724" y1="390.9258" y2="390.9258"/><text fill="#000000" font-family="sans-serif" font-size="20" font-weight="bold" lengthAdjust="spacing" textLength="13" x="287" y="384.707">7</text><text fill="#000000" font-family="sans-serif" font-size="20" lengthAdjust="spacing" textLength="291" x="304" y="384.707">requests a value for comission</text><polygon fill="#181818" points="713,424.4805,723,428.4805,713,432.4805,717,428.4805" style="stroke:#181818;stroke-width:1.0;"/><line style="stroke:#181818;stroke-width:1.0;" x1="270" x2="719" y1="428.4805" y2="428.4805"/><text fill="#000000" font-family="sans-serif" font-size="20" font-weight="bold" lengthAdjust="spacing" textLength="13" x="277" y="422.2617">8</text><text fill="#000000" font-family="sans-serif" font-size="20" lengthAdjust="spacing" textLength="265" x="294" y="422.2617">types the value and confirm</text><polygon fill="#181818" points="281,462.0352,271,466.0352,281,470.0352,277,466.0352" style="stroke:#181818;stroke-width:1.0;"/><line style="stroke:#181818;stroke-width:1.0;stroke-dasharray:2.0,2.0;" x1="275" x2="724" y1="466.0352" y2="466.0352"/><text fill="#000000" font-family="sans-serif" font-size="20" font-weight="bold" lengthAdjust="spacing" textLength="13" x="287" y="459.8164">9</text><text fill="#000000" font-family="sans-serif" font-size="20" lengthAdjust="spacing" textLength="395" x="304" y="459.8164">Shows all data and requests confirmation</text><polygon fill="#181818" points="713,499.5898,723,503.5898,713,507.5898,717,503.5898" style="stroke:#181818;stroke-width:1.0;"/><line style="stroke:#181818;stroke-width:1.0;" x1="270" x2="719" y1="503.5898" y2="503.5898"/><text fill="#000000" font-family="sans-serif" font-size="20" font-weight="bold" lengthAdjust="spacing" textLength="26" x="277" y="497.3711">10</text><text fill="#000000" font-family="sans-serif" font-size="20" lengthAdjust="spacing" textLength="168" x="307" y="497.3711">confirms the data</text><line style="stroke:#181818;stroke-width:1.0;stroke-dasharray:2.0,2.0;" x1="735" x2="777" y1="541.1445" y2="541.1445"/><line style="stroke:#181818;stroke-width:1.0;stroke-dasharray:2.0,2.0;" x1="777" x2="777" y1="541.1445" y2="554.1445"/><line style="stroke:#181818;stroke-width:1.0;stroke-dasharray:2.0,2.0;" x1="736" x2="777" y1="554.1445" y2="554.1445"/><polygon fill="#181818" points="746,550.1445,736,554.1445,746,558.1445,742,554.1445" style="stroke:#181818;stroke-width:1.0;"/><text fill="#000000" font-family="sans-serif" font-size="20" font-weight="bold" lengthAdjust="spacing" textLength="26" x="742" y="534.9258">11</text><text fill="#000000" font-family="sans-serif" font-size="20" lengthAdjust="spacing" textLength="137" x="772" y="534.9258">publishes sale</text><polygon fill="#181818" points="281,587.6992,271,591.6992,281,595.6992,277,591.6992" style="stroke:#181818;stroke-width:1.0;"/><line style="stroke:#181818;stroke-width:1.0;stroke-dasharray:2.0,2.0;" x1="275" x2="724" y1="591.6992" y2="591.6992"/><text fill="#000000" font-family="sans-serif" font-size="20" font-weight="bold" lengthAdjust="spacing" textLength="26" x="287" y="585.4805">12</text><text fill="#000000" font-family="sans-serif" font-size="20" lengthAdjust="spacing" textLength="251" x="317" y="585.4805">informs operation success</text><!--SRC=[XP8zRiCm38LtduB8r0u1WemP2XG8kdOmUW16fcqXikIAL0BtzDMFaxY0aMwK-FWzaHIVjHtHus2SEbC33RKOZ7muAxN-8TZlAhv9O73MgTwxWK1ye4LcH7N6ZcgP384d9MWxinHmZusxQjj1YuQfgZ28is4uaQz4IwpwgdUxFMoXdbXeW9g-0rb5SDJO9S9BNHzVOvqIvs7pURNaDu0CERfTltTa9L_dg8hcefKUqGfi2ZbdIrXbdBwWq0DJZgNyVhpfimgsRoKF1nYzk-Y661XZ3mqALYKLDNCdXsXuPX07OpWPpJrWLbTpVhl0-TGr2uCbHSpefym4FBaW83qbmv6yJ2iszxSatL_0Koy4cKO2ru9oWsRMpgxGcKpSQu4d_J_82vf0qCQbF8CcK44MFTecwcsh_R36htjtZN1Zvgb4zTroBaDPTvhJnIoFP6dmc65PqRpGjJTe6vkAdBI6R0OSL9fr_4s_]--></g></svg>