<?xml version="1.0" encoding="UTF-8" standalone="no"?><svg xmlns="http://www.w3.org/2000/svg" xmlns:xlink="http://www.w3.org/1999/xlink" contentStyleType="text/css" height="1531px" preserveAspectRatio="none" style="width:2643px;height:1531px;background:#FFFFFF;" version="1.1" viewBox="0 0 2643 1531" width="2643px" zoomAndPan="magnify"><defs/><g><rect fill="#FFFFFF" height="1336.0781" style="stroke:#181818;stroke-width:1.0;" width="10" x="50" y="98.5547"/><rect fill="#FFFFFF" height="112.6641" style="stroke:#181818;stroke-width:1.0;" width="10" x="597" y="128.1094"/><rect fill="#FFFFFF" height="1147.3047" style="stroke:#181818;stroke-width:1.0;" width="10" x="597" y="278.3281"/><rect fill="#FFFFFF" height="37.5547" style="stroke:#181818;stroke-width:1.0;" width="10" x="900" y="165.6641"/><rect fill="#FFFFFF" height="1011.0859" style="stroke:#181818;stroke-width:1.0;" width="10" x="900" y="315.8828"/><rect fill="#FFFFFF" height="541.3203" style="stroke:#181818;stroke-width:1.0;" width="10" x="1139.5" y="748.0938"/><rect fill="#FFFFFF" height="80.1094" style="stroke:#181818;stroke-width:1.0;" width="10" x="1144.5" y="1164.75"/><rect fill="#FFFFFF" height="109.6641" style="stroke:#181818;stroke-width:1.0;" width="10" x="1674.5" y="1009.5313"/><rect fill="#FFFFFF" height="37.5547" style="stroke:#181818;stroke-width:1.0;" width="10" x="2151.5" y="1207.3047"/><rect fill="none" height="132.7734" style="stroke:#000000;stroke-width:1.5;" width="995.5" x="10" y="381.4375"/><rect fill="none" height="132.7734" style="stroke:#000000;stroke-width:1.5;" width="995.5" x="10" y="578.7656"/><rect fill="none" height="120.2188" style="stroke:#000000;stroke-width:1.5;" width="794.5" x="995.5" y="811.6484"/><rect fill="none" height="306.9922" style="stroke:#000000;stroke-width:1.5;" width="1642" x="995.5" y="945.8672"/><line style="stroke:#181818;stroke-width:0.5;stroke-dasharray:5.0,5.0;" x1="55" x2="55" y1="88.5547" y2="1443.6328"/><line style="stroke:#181818;stroke-width:0.5;stroke-dasharray:5.0,5.0;" x1="601.5" x2="601.5" y1="88.5547" y2="1443.6328"/><line style="stroke:#181818;stroke-width:0.5;stroke-dasharray:5.0,5.0;" x1="904.5" x2="904.5" y1="88.5547" y2="1443.6328"/><line style="stroke:#181818;stroke-width:0.5;stroke-dasharray:5.0,5.0;" x1="1144.5" x2="1144.5" y1="88.5547" y2="1443.6328"/><line style="stroke:#181818;stroke-width:0.5;stroke-dasharray:5.0,5.0;" x1="1435" x2="1435" y1="790.3711" y2="1443.6328"/><line style="stroke:#181818;stroke-width:0.5;stroke-dasharray:5.0,5.0;" x1="1679" x2="1679" y1="880.0352" y2="1443.6328"/><line style="stroke:#181818;stroke-width:0.5;stroke-dasharray:5.0,5.0;" x1="1913.5" x2="1913.5" y1="1063.5859" y2="1443.6328"/><line style="stroke:#181818;stroke-width:0.5;stroke-dasharray:5.0,5.0;" x1="2156.5" x2="2156.5" y1="88.5547" y2="1443.6328"/><line style="stroke:#181818;stroke-width:0.5;stroke-dasharray:5.0,5.0;" x1="2494.5" x2="2494.5" y1="88.5547" y2="1443.6328"/><text fill="#000000" font-family="sans-serif" font-size="20" lengthAdjust="spacing" textLength="64" x="20" y="84.3359">Admin</text><ellipse cx="55" cy="13.5" fill="#E3E3E3" rx="8" ry="8" style="stroke:#181818;stroke-width:0.5;"/><path d="M55,21.5 L55,48.5 M42,29.5 L68,29.5 M55,48.5 L42,63.5 M55,48.5 L68,63.5 " fill="none" style="stroke:#181818;stroke-width:0.5;"/><text fill="#000000" font-family="sans-serif" font-size="20" lengthAdjust="spacing" textLength="64" x="20" y="1461.9688">Admin</text><ellipse cx="55" cy="1474.6875" fill="#E3E3E3" rx="8" ry="8" style="stroke:#181818;stroke-width:0.5;"/><path d="M55,1482.6875 L55,1509.6875 M42,1490.6875 L68,1490.6875 M55,1509.6875 L42,1524.6875 M55,1509.6875 L68,1524.6875 " fill="none" style="stroke:#181818;stroke-width:0.5;"/><rect fill="#E3E3E3" height="37.5547" rx="2.5" ry="2.5" style="stroke:#181818;stroke-width:0.5;" width="139" x="532.5" y="50"/><text fill="#000000" font-family="sans-serif" font-size="20" lengthAdjust="spacing" textLength="125" x="539.5" y="76.3359">:ImportFileUI</text><rect fill="#E3E3E3" height="37.5547" rx="2.5" ry="2.5" style="stroke:#181818;stroke-width:0.5;" width="139" x="532.5" y="1442.6328"/><text fill="#000000" font-family="sans-serif" font-size="20" lengthAdjust="spacing" textLength="125" x="539.5" y="1468.9688">:ImportFileUI</text><rect fill="#E3E3E3" height="37.5547" rx="2.5" ry="2.5" style="stroke:#181818;stroke-width:0.5;" width="181" x="814.5" y="50"/><text fill="#000000" font-family="sans-serif" font-size="20" lengthAdjust="spacing" textLength="167" x="821.5" y="76.3359">:ImportController</text><rect fill="#E3E3E3" height="37.5547" rx="2.5" ry="2.5" style="stroke:#181818;stroke-width:0.5;" width="181" x="814.5" y="1442.6328"/><text fill="#000000" font-family="sans-serif" font-size="20" lengthAdjust="spacing" textLength="167" x="821.5" y="1468.9688">:ImportController</text><rect fill="#E3E3E3" height="37.5547" rx="2.5" ry="2.5" style="stroke:#181818;stroke-width:0.5;" width="278" x="1005.5" y="50"/><text fill="#000000" font-family="sans-serif" font-size="20" lengthAdjust="spacing" textLength="264" x="1012.5" y="76.3359">ExternalModuleAdapterCSV</text><rect fill="#E3E3E3" height="37.5547" rx="2.5" ry="2.5" style="stroke:#181818;stroke-width:0.5;" width="278" x="1005.5" y="1442.6328"/><text fill="#000000" font-family="sans-serif" font-size="20" lengthAdjust="spacing" textLength="264" x="1012.5" y="1468.9688">ExternalModuleAdapterCSV</text><rect fill="#E3E3E3" height="37.5547" rx="2.5" ry="2.5" style="stroke:#181818;stroke-width:0.5;" width="267" x="1302" y="1442.6328"/><text fill="#000000" font-family="sans-serif" font-size="20" lengthAdjust="spacing" textLength="253" x="1309" y="1468.9688">List&lt;ExternalModuleCSV&gt;</text><rect fill="#E3E3E3" height="37.5547" rx="2.5" ry="2.5" style="stroke:#181818;stroke-width:0.5;" width="201" x="1579" y="1442.6328"/><text fill="#000000" font-family="sans-serif" font-size="20" lengthAdjust="spacing" textLength="187" x="1586" y="1468.9688">ExternalModuleCSV</text><rect fill="#E3E3E3" height="61.1094" rx="2.5" ry="2.5" style="stroke:#181818;stroke-width:0.5;" width="206" x="1810.5" y="1442.6328"/><text fill="#000000" font-family="sans-serif" font-size="20" lengthAdjust="spacing" textLength="183" x="1822" y="1468.9688">announcementSold</text><text fill="#000000" font-family="sans-serif" font-size="20" lengthAdjust="spacing" textLength="192" x="1817.5" y="1492.5234">:AnnouncementSold</text><rect fill="#E3E3E3" height="37.5547" rx="2.5" ry="2.5" style="stroke:#181818;stroke-width:0.5;" width="260" x="2026.5" y="50"/><text fill="#000000" font-family="sans-serif" font-size="20" lengthAdjust="spacing" textLength="246" x="2033.5" y="76.3359">:AnnouncementController</text><rect fill="#E3E3E3" height="37.5547" rx="2.5" ry="2.5" style="stroke:#181818;stroke-width:0.5;" width="260" x="2026.5" y="1442.6328"/><text fill="#000000" font-family="sans-serif" font-size="20" lengthAdjust="spacing" textLength="246" x="2033.5" y="1468.9688">:AnnouncementController</text><rect fill="#E3E3E3" height="61.1094" rx="2.5" ry="2.5" style="stroke:#181818;stroke-width:0.5;" width="266" x="2361.5" y="26.4453"/><text fill="#000000" font-family="sans-serif" font-size="20" lengthAdjust="spacing" textLength="243" x="2373" y="52.7813">announcementRepository</text><text fill="#000000" font-family="sans-serif" font-size="20" lengthAdjust="spacing" textLength="252" x="2368.5" y="76.3359">:AnnouncementRepository</text><rect fill="#E3E3E3" height="61.1094" rx="2.5" ry="2.5" style="stroke:#181818;stroke-width:0.5;" width="266" x="2361.5" y="1442.6328"/><text fill="#000000" font-family="sans-serif" font-size="20" lengthAdjust="spacing" textLength="243" x="2373" y="1468.9688">announcementRepository</text><text fill="#000000" font-family="sans-serif" font-size="20" lengthAdjust="spacing" textLength="252" x="2368.5" y="1492.5234">:AnnouncementRepository</text><rect fill="#FFFFFF" height="1336.0781" style="stroke:#181818;stroke-width:1.0;" width="10" x="50" y="98.5547"/><rect fill="#FFFFFF" height="112.6641" style="stroke:#181818;stroke-width:1.0;" width="10" x="597" y="128.1094"/><rect fill="#FFFFFF" height="1147.3047" style="stroke:#181818;stroke-width:1.0;" width="10" x="597" y="278.3281"/><rect fill="#FFFFFF" height="37.5547" style="stroke:#181818;stroke-width:1.0;" width="10" x="900" y="165.6641"/><rect fill="#FFFFFF" height="1011.0859" style="stroke:#181818;stroke-width:1.0;" width="10" x="900" y="315.8828"/><rect fill="#FFFFFF" height="541.3203" style="stroke:#181818;stroke-width:1.0;" width="10" x="1139.5" y="748.0938"/><rect fill="#FFFFFF" height="80.1094" style="stroke:#181818;stroke-width:1.0;" width="10" x="1144.5" y="1164.75"/><rect fill="#FFFFFF" height="109.6641" style="stroke:#181818;stroke-width:1.0;" width="10" x="1674.5" y="1009.5313"/><rect fill="#FFFFFF" height="37.5547" style="stroke:#181818;stroke-width:1.0;" width="10" x="2151.5" y="1207.3047"/><polygon fill="#181818" points="585,124.1094,595,128.1094,585,132.1094,589,128.1094" style="stroke:#181818;stroke-width:1.0;"/><line style="stroke:#181818;stroke-width:1.0;" x1="60" x2="591" y1="128.1094" y2="128.1094"/><text fill="#000000" font-family="sans-serif" font-size="20" font-weight="bold" lengthAdjust="spacing" textLength="13" x="67" y="121.8906">1</text><text fill="#000000" font-family="sans-serif" font-size="20" lengthAdjust="spacing" textLength="258" x="84" y="121.8906">asks to import a legacy file</text><polygon fill="#181818" points="888,161.6641,898,165.6641,888,169.6641,892,165.6641" style="stroke:#181818;stroke-width:1.0;"/><line style="stroke:#181818;stroke-width:1.0;" x1="607" x2="894" y1="165.6641" y2="165.6641"/><text fill="#000000" font-family="sans-serif" font-size="20" font-weight="bold" lengthAdjust="spacing" textLength="13" x="614" y="159.4453">2</text><text fill="#000000" font-family="sans-serif" font-size="20" lengthAdjust="spacing" textLength="133" x="631" y="159.4453">JFileChooser()</text><polygon fill="#181818" points="618,199.2188,608,203.2188,618,207.2188,614,203.2188" style="stroke:#181818;stroke-width:1.0;"/><line style="stroke:#181818;stroke-width:1.0;" x1="612" x2="904" y1="203.2188" y2="203.2188"/><text fill="#000000" font-family="sans-serif" font-size="20" font-weight="bold" lengthAdjust="spacing" textLength="13" x="624" y="197">3</text><text fill="#000000" font-family="sans-serif" font-size="20" lengthAdjust="spacing" textLength="54" x="641" y="197">menu</text><polygon fill="#181818" points="71,236.7734,61,240.7734,71,244.7734,67,240.7734" style="stroke:#181818;stroke-width:1.0;"/><line style="stroke:#181818;stroke-width:1.0;stroke-dasharray:2.0,2.0;" x1="65" x2="601" y1="240.7734" y2="240.7734"/><text fill="#000000" font-family="sans-serif" font-size="20" font-weight="bold" lengthAdjust="spacing" textLength="13" x="77" y="234.5547">4</text><text fill="#000000" font-family="sans-serif" font-size="20" lengthAdjust="spacing" textLength="496" x="94" y="234.5547">shows the menu to choose a file from local machine</text><polygon fill="#181818" points="585,274.3281,595,278.3281,585,282.3281,589,278.3281" style="stroke:#181818;stroke-width:1.0;"/><line style="stroke:#181818;stroke-width:1.0;" x1="60" x2="591" y1="278.3281" y2="278.3281"/><text fill="#000000" font-family="sans-serif" font-size="20" font-weight="bold" lengthAdjust="spacing" textLength="13" x="67" y="272.1094">5</text><text fill="#000000" font-family="sans-serif" font-size="20" lengthAdjust="spacing" textLength="234" x="84" y="272.1094">Selects a file and submit</text><polygon fill="#181818" points="888,311.8828,898,315.8828,888,319.8828,892,315.8828" style="stroke:#181818;stroke-width:1.0;"/><line style="stroke:#181818;stroke-width:1.0;" x1="607" x2="894" y1="315.8828" y2="315.8828"/><text fill="#000000" font-family="sans-serif" font-size="20" font-weight="bold" lengthAdjust="spacing" textLength="13" x="614" y="309.6641">6</text><text fill="#000000" font-family="sans-serif" font-size="20" lengthAdjust="spacing" textLength="257" x="631" y="309.6641">addLegacyFile(file,filePath)</text><line style="stroke:#181818;stroke-width:1.0;" x1="910" x2="952" y1="353.4375" y2="353.4375"/><line style="stroke:#181818;stroke-width:1.0;" x1="952" x2="952" y1="353.4375" y2="366.4375"/><line style="stroke:#181818;stroke-width:1.0;" x1="911" x2="952" y1="366.4375" y2="366.4375"/><polygon fill="#181818" points="921,362.4375,911,366.4375,921,370.4375,917,366.4375" style="stroke:#181818;stroke-width:1.0;"/><text fill="#000000" font-family="sans-serif" font-size="20" font-weight="bold" lengthAdjust="spacing" textLength="13" x="917" y="347.2188">7</text><text fill="#000000" font-family="sans-serif" font-size="20" lengthAdjust="spacing" textLength="157" x="934" y="347.2188">validateCSV(file)</text><path d="M10,381.4375 L82,381.4375 L82,396.9922 L72,406.9922 L10,406.9922 L10,381.4375 " fill="#EEEEEE" style="stroke:#000000;stroke-width:1.5;"/><rect fill="none" height="132.7734" style="stroke:#000000;stroke-width:1.5;" width="995.5" x="10" y="381.4375"/><text fill="#000000" font-family="sans-serif" font-size="20" font-weight="bold" lengthAdjust="spacing" textLength="27" x="25" y="401.7734">alt</text><text fill="#000000" font-family="sans-serif" font-size="20" font-weight="bold" lengthAdjust="spacing" textLength="258" x="97" y="402.7734">[validateCSV(file)==true]</text><polygon fill="#181818" points="618,441.1016,608,445.1016,618,449.1016,614,445.1016" style="stroke:#181818;stroke-width:1.0;"/><line style="stroke:#181818;stroke-width:1.0;stroke-dasharray:2.0,2.0;" x1="612" x2="899" y1="445.1016" y2="445.1016"/><text fill="#000000" font-family="sans-serif" font-size="20" font-weight="bold" lengthAdjust="spacing" textLength="13" x="624" y="438.8828">8</text><text fill="#000000" font-family="sans-serif" font-size="20" lengthAdjust="spacing" textLength="181" x="641" y="438.8828">insuccess message</text><polygon fill="#181818" points="71,502.2109,61,506.2109,71,510.2109,67,506.2109" style="stroke:#181818;stroke-width:1.0;"/><line style="stroke:#181818;stroke-width:1.0;stroke-dasharray:2.0,2.0;" x1="65" x2="596" y1="506.2109" y2="506.2109"/><text fill="#000000" font-family="sans-serif" font-size="20" font-weight="bold" lengthAdjust="spacing" textLength="13" x="77" y="488.2148">9</text><text fill="#000000" font-family="sans-serif" font-size="20" lengthAdjust="spacing" textLength="275" x="94" y="476.4375">shows an insuccess message</text><text fill="#000000" font-family="sans-serif" font-size="20" lengthAdjust="spacing" textLength="215" x="100" y="499.9922">and the error message</text><line style="stroke:#181818;stroke-width:1.0;" x1="910" x2="952" y1="550.7656" y2="550.7656"/><line style="stroke:#181818;stroke-width:1.0;" x1="952" x2="952" y1="550.7656" y2="563.7656"/><line style="stroke:#181818;stroke-width:1.0;" x1="911" x2="952" y1="563.7656" y2="563.7656"/><polygon fill="#181818" points="921,559.7656,911,563.7656,921,567.7656,917,563.7656" style="stroke:#181818;stroke-width:1.0;"/><text fill="#000000" font-family="sans-serif" font-size="20" font-weight="bold" lengthAdjust="spacing" textLength="26" x="917" y="544.5469">10</text><text fill="#000000" font-family="sans-serif" font-size="20" lengthAdjust="spacing" textLength="179" x="947" y="544.5469">validateEmpty(file)</text><path d="M10,578.7656 L82,578.7656 L82,594.3203 L72,604.3203 L10,604.3203 L10,578.7656 " fill="#EEEEEE" style="stroke:#000000;stroke-width:1.5;"/><rect fill="none" height="132.7734" style="stroke:#000000;stroke-width:1.5;" width="995.5" x="10" y="578.7656"/><text fill="#000000" font-family="sans-serif" font-size="20" font-weight="bold" lengthAdjust="spacing" textLength="27" x="25" y="599.1016">alt</text><text fill="#000000" font-family="sans-serif" font-size="20" font-weight="bold" lengthAdjust="spacing" textLength="283" x="97" y="600.1016">[validateEmpty(file)==true]</text><polygon fill="#181818" points="618,638.4297,608,642.4297,618,646.4297,614,642.4297" style="stroke:#181818;stroke-width:1.0;"/><line style="stroke:#181818;stroke-width:1.0;stroke-dasharray:2.0,2.0;" x1="612" x2="899" y1="642.4297" y2="642.4297"/><text fill="#000000" font-family="sans-serif" font-size="20" font-weight="bold" lengthAdjust="spacing" textLength="26" x="624" y="636.2109">11</text><text fill="#000000" font-family="sans-serif" font-size="20" lengthAdjust="spacing" textLength="181" x="654" y="636.2109">insuccess message</text><polygon fill="#181818" points="71,699.5391,61,703.5391,71,707.5391,67,703.5391" style="stroke:#181818;stroke-width:1.0;"/><line style="stroke:#181818;stroke-width:1.0;stroke-dasharray:2.0,2.0;" x1="65" x2="596" y1="703.5391" y2="703.5391"/><text fill="#000000" font-family="sans-serif" font-size="20" font-weight="bold" lengthAdjust="spacing" textLength="26" x="77" y="685.543">12</text><text fill="#000000" font-family="sans-serif" font-size="20" lengthAdjust="spacing" textLength="275" x="107" y="673.7656">shows an insuccess message</text><text fill="#000000" font-family="sans-serif" font-size="20" lengthAdjust="spacing" textLength="215" x="113" y="697.3203">and the error message</text><polygon fill="#181818" points="1127.5,744.0938,1137.5,748.0938,1127.5,752.0938,1131.5,748.0938" style="stroke:#181818;stroke-width:1.0;"/><line style="stroke:#181818;stroke-width:1.0;" x1="910" x2="1133.5" y1="748.0938" y2="748.0938"/><text fill="#000000" font-family="sans-serif" font-size="20" font-weight="bold" lengthAdjust="spacing" textLength="26" x="917" y="741.875">13</text><text fill="#000000" font-family="sans-serif" font-size="20" lengthAdjust="spacing" textLength="162" x="947" y="741.875">readFile(filePath)</text><polygon fill="#181818" points="1290,781.6484,1300,785.6484,1290,789.6484,1294,785.6484" style="stroke:#181818;stroke-width:1.0;"/><line style="stroke:#181818;stroke-width:1.0;" x1="1149.5" x2="1296" y1="785.6484" y2="785.6484"/><text fill="#000000" font-family="sans-serif" font-size="20" font-weight="bold" lengthAdjust="spacing" textLength="26" x="1156.5" y="779.4297">14</text><text fill="#000000" font-family="sans-serif" font-size="20" lengthAdjust="spacing" textLength="72" x="1186.5" y="779.4297">create()</text><rect fill="#E3E3E3" height="37.5547" rx="2.5" ry="2.5" style="stroke:#181818;stroke-width:0.5;" width="267" x="1302" y="756.0938"/><text fill="#000000" font-family="sans-serif" font-size="20" lengthAdjust="spacing" textLength="253" x="1309" y="782.4297">List&lt;ExternalModuleCSV&gt;</text><path d="M995.5,811.6484 L1086.5,811.6484 L1086.5,827.2031 L1076.5,837.2031 L995.5,837.2031 L995.5,811.6484 " fill="#EEEEEE" style="stroke:#000000;stroke-width:1.5;"/><rect fill="none" height="120.2188" style="stroke:#000000;stroke-width:1.5;" width="794.5" x="995.5" y="811.6484"/><text fill="#000000" font-family="sans-serif" font-size="20" font-weight="bold" lengthAdjust="spacing" textLength="46" x="1010.5" y="831.9844">loop</text><text fill="#000000" font-family="sans-serif" font-size="20" font-weight="bold" lengthAdjust="spacing" textLength="248" x="1101.5" y="832.9844">[foreach line of csv file]</text><polygon fill="#181818" points="1567,871.3125,1577,875.3125,1567,879.3125,1571,875.3125" style="stroke:#181818;stroke-width:1.0;"/><line style="stroke:#181818;stroke-width:1.0;" x1="1149.5" x2="1573" y1="875.3125" y2="875.3125"/><text fill="#000000" font-family="sans-serif" font-size="20" font-weight="bold" lengthAdjust="spacing" textLength="26" x="1156.5" y="869.0938">15</text><text fill="#000000" font-family="sans-serif" font-size="20" lengthAdjust="spacing" textLength="72" x="1186.5" y="869.0938">create()</text><rect fill="#E3E3E3" height="37.5547" rx="2.5" ry="2.5" style="stroke:#181818;stroke-width:0.5;" width="201" x="1579" y="845.7578"/><text fill="#000000" font-family="sans-serif" font-size="20" lengthAdjust="spacing" textLength="187" x="1586" y="872.0938">ExternalModuleCSV</text><polygon fill="#181818" points="1423.5,919.8672,1433.5,923.8672,1423.5,927.8672,1427.5,923.8672" style="stroke:#181818;stroke-width:1.0;"/><line style="stroke:#181818;stroke-width:1.0;" x1="1149.5" x2="1429.5" y1="923.8672" y2="923.8672"/><text fill="#000000" font-family="sans-serif" font-size="20" font-weight="bold" lengthAdjust="spacing" textLength="26" x="1156.5" y="917.6484">16</text><text fill="#000000" font-family="sans-serif" font-size="20" lengthAdjust="spacing" textLength="200" x="1186.5" y="917.6484">add(externalModule)</text><path d="M995.5,945.8672 L1086.5,945.8672 L1086.5,961.4219 L1076.5,971.4219 L995.5,971.4219 L995.5,945.8672 " fill="#EEEEEE" style="stroke:#000000;stroke-width:1.5;"/><rect fill="none" height="306.9922" style="stroke:#000000;stroke-width:1.5;" width="1642" x="995.5" y="945.8672"/><text fill="#000000" font-family="sans-serif" font-size="20" font-weight="bold" lengthAdjust="spacing" textLength="46" x="1010.5" y="966.2031">loop</text><text fill="#000000" font-family="sans-serif" font-size="20" font-weight="bold" lengthAdjust="spacing" textLength="494" x="1101.5" y="967.2031">[for each element of List&lt;ExternalModuleCSV&gt;]</text><polygon fill="#181818" points="1662.5,1005.5313,1672.5,1009.5313,1662.5,1013.5313,1666.5,1009.5313" style="stroke:#181818;stroke-width:1.0;"/><line style="stroke:#181818;stroke-width:1.0;" x1="1149.5" x2="1668.5" y1="1009.5313" y2="1009.5313"/><text fill="#000000" font-family="sans-serif" font-size="20" font-weight="bold" lengthAdjust="spacing" textLength="26" x="1156.5" y="1003.3125">17</text><text fill="#000000" font-family="sans-serif" font-size="20" lengthAdjust="spacing" textLength="188" x="1186.5" y="1003.3125">getAnnouncement()</text><polygon fill="#181818" points="1798.5,1043.0859,1808.5,1047.0859,1798.5,1051.0859,1802.5,1047.0859" style="stroke:#181818;stroke-width:1.0;"/><line style="stroke:#181818;stroke-width:1.0;" x1="1684.5" x2="1804.5" y1="1047.0859" y2="1047.0859"/><text fill="#000000" font-family="sans-serif" font-size="20" font-weight="bold" lengthAdjust="spacing" textLength="26" x="1691.5" y="1040.8672">18</text><text fill="#000000" font-family="sans-serif" font-size="20" lengthAdjust="spacing" textLength="72" x="1721.5" y="1040.8672">create()</text><rect fill="#E3E3E3" height="61.1094" rx="2.5" ry="2.5" style="stroke:#181818;stroke-width:0.5;" width="206" x="1810.5" y="1017.5313"/><text fill="#000000" font-family="sans-serif" font-size="20" lengthAdjust="spacing" textLength="183" x="1822" y="1043.8672">announcementSold</text><text fill="#000000" font-family="sans-serif" font-size="20" lengthAdjust="spacing" textLength="192" x="1817.5" y="1067.4219">:AnnouncementSold</text><polygon fill="#181818" points="1160.5,1115.1953,1150.5,1119.1953,1160.5,1123.1953,1156.5,1119.1953" style="stroke:#181818;stroke-width:1.0;"/><line style="stroke:#181818;stroke-width:1.0;stroke-dasharray:2.0,2.0;" x1="1154.5" x2="1678.5" y1="1119.1953" y2="1119.1953"/><text fill="#000000" font-family="sans-serif" font-size="20" font-weight="bold" lengthAdjust="spacing" textLength="26" x="1166.5" y="1112.9766">19</text><text fill="#000000" font-family="sans-serif" font-size="20" lengthAdjust="spacing" textLength="186" x="1196.5" y="1112.9766">AnnouncementSold</text><line style="stroke:#181818;stroke-width:1.0;" x1="1149.5" x2="1196.5" y1="1151.75" y2="1151.75"/><line style="stroke:#181818;stroke-width:1.0;" x1="1196.5" x2="1196.5" y1="1151.75" y2="1164.75"/><line style="stroke:#181818;stroke-width:1.0;" x1="1155.5" x2="1196.5" y1="1164.75" y2="1164.75"/><polygon fill="#181818" points="1165.5,1160.75,1155.5,1164.75,1165.5,1168.75,1161.5,1164.75" style="stroke:#181818;stroke-width:1.0;"/><text fill="#000000" font-family="sans-serif" font-size="20" font-weight="bold" lengthAdjust="spacing" textLength="26" x="1161.5" y="1145.5313">20</text><text fill="#000000" font-family="sans-serif" font-size="20" lengthAdjust="spacing" textLength="237" x="1191.5" y="1145.5313">add(AnnouncementSold)</text><polygon fill="#181818" points="2139.5,1203.3047,2149.5,1207.3047,2139.5,1211.3047,2143.5,1207.3047" style="stroke:#181818;stroke-width:1.0;"/><line style="stroke:#181818;stroke-width:1.0;" x1="1154.5" x2="2145.5" y1="1207.3047" y2="1207.3047"/><text fill="#000000" font-family="sans-serif" font-size="20" font-weight="bold" lengthAdjust="spacing" textLength="26" x="1161.5" y="1201.0859">21</text><text fill="#000000" font-family="sans-serif" font-size="20" lengthAdjust="spacing" textLength="423" x="1191.5" y="1201.0859">addAnnouncementSold(AnnouncementSold)</text><polygon fill="#181818" points="2482.5,1240.8594,2492.5,1244.8594,2482.5,1248.8594,2486.5,1244.8594" style="stroke:#181818;stroke-width:1.0;"/><line style="stroke:#181818;stroke-width:1.0;" x1="2156.5" x2="2488.5" y1="1244.8594" y2="1244.8594"/><text fill="#000000" font-family="sans-serif" font-size="20" font-weight="bold" lengthAdjust="spacing" textLength="26" x="2163.5" y="1238.6406">22</text><text fill="#000000" font-family="sans-serif" font-size="20" lengthAdjust="spacing" textLength="279" x="2193.5" y="1238.6406">addSold(AnnouncementSold)</text><polygon fill="#181818" points="921,1285.4141,911,1289.4141,921,1293.4141,917,1289.4141" style="stroke:#181818;stroke-width:1.0;"/><line style="stroke:#181818;stroke-width:1.0;" x1="915" x2="1143.5" y1="1289.4141" y2="1289.4141"/><text fill="#000000" font-family="sans-serif" font-size="20" font-weight="bold" lengthAdjust="spacing" textLength="26" x="927" y="1283.1953">23</text><text fill="#000000" font-family="sans-serif" font-size="20" lengthAdjust="spacing" textLength="63" x="957" y="1283.1953">succes</text><polygon fill="#181818" points="618,1322.9688,608,1326.9688,618,1330.9688,614,1326.9688" style="stroke:#181818;stroke-width:1.0;"/><line style="stroke:#181818;stroke-width:1.0;" x1="612" x2="904" y1="1326.9688" y2="1326.9688"/><text fill="#000000" font-family="sans-serif" font-size="20" font-weight="bold" lengthAdjust="spacing" textLength="26" x="624" y="1320.75">24</text><text fill="#000000" font-family="sans-serif" font-size="20" lengthAdjust="spacing" textLength="73" x="654" y="1320.75">success</text><polygon fill="#181818" points="71,1360.5234,61,1364.5234,71,1368.5234,67,1364.5234" style="stroke:#181818;stroke-width:1.0;"/><line style="stroke:#181818;stroke-width:1.0;stroke-dasharray:2.0,2.0;" x1="65" x2="596" y1="1364.5234" y2="1364.5234"/><text fill="#000000" font-family="sans-serif" font-size="20" font-weight="bold" lengthAdjust="spacing" textLength="26" x="77" y="1358.3047">25</text><text fill="#000000" font-family="sans-serif" font-size="20" lengthAdjust="spacing" textLength="245" x="107" y="1358.3047">shows a success message</text><polygon fill="#181818" points="71,1421.6328,61,1425.6328,71,1429.6328,67,1425.6328" style="stroke:#181818;stroke-width:1.0;"/><line style="stroke:#181818;stroke-width:1.0;stroke-dasharray:2.0,2.0;" x1="65" x2="601" y1="1425.6328" y2="1425.6328"/><text fill="#000000" font-family="sans-serif" font-size="20" font-weight="bold" lengthAdjust="spacing" textLength="26" x="77" y="1407.6367">26</text><text fill="#000000" font-family="sans-serif" font-size="20" lengthAdjust="spacing" textLength="275" x="107" y="1395.8594">shows an insuccess message</text><text fill="#000000" font-family="sans-serif" font-size="20" lengthAdjust="spacing" textLength="215" x="113" y="1419.4141">and the error message</text><!--SRC=[pLPDRzim3BtxLn0zfS4233iQQu0YQ84E7J0qwqwzg38J2v4bGvBRPRz-bFmH-QlDXXtcGs1BZu_a8qN57eGgcM65rFo06MIuOvLqjrgvhVY5yEbZObi855ffdXjT83XJORHJCdvWUzoweqGmo1rJUna3RCuo_IhK7dPCMamILZcjgk8P3RrpfmrSN6U5K1V0B33_bf2b4roKJ3cuIE-AKXjtAoG-tWNGuzqaOaEX6oqbce3QV7-ux-DkVZeqYiclEgiaNcUifE_DzaVZENpsBUw5TP_xPeHV1mE_znP_IuozrRu5KqfNYcE1fBgMsPDAhmTBTN3HuY3t63zGWAp68iHK3rXgAwW4nu7ZqqOWClIPX6g95-QmgL82z8HNMAsfA90Izc31QH2X8C10ufxn8-oeU3MyfQ0QrWJ-8LjYyB6cNtoTDxdM5itYiaDqTY6XRjb_1TyfKDXLjvvXQv0qRhmBGePmKsfA_Kg1vXZCVCGykAI8VQYmerO7EXXCGi5uBbGT_Oasn3_EVukIZe1jQPZAm5RFXN3Zv64YUMBBxeDYNeM5v_ZWVxunbv-qcDPak5jB4sXVc1GP0QaZ0-TbCkQI3aQmgwjms2UPLsiINIXRSOxMaepMqXWOOMFPeTMTAHXPFgcWbYy96aD3eMKSKQBApadsfYZTyPnq8-3_c_1CnktK8ay6MTPrpNJ3z9gcdNUJe7gF-FsGMow9dXE_myKqgTIwX9qc2Cz1qca1lGDkNqxdVjv3Vpo-xwlDk0akd9b5dsJQS5B6E7e8uTC9zXFGPp0p_IT91g7r0qfXZowUhpEvzGeqk3Tc3VeuxpmUySjbsibv9iMgrrV3-sYU9HgwPoZKlDRr6pevGvwt-hVVOSqrc9AZeP-_SjpSghF8WAv1gxM_EhtdF_GMNs3lOpenPXl_dMBKjqyzeP9fbZUg6zt2pP1Bph2UdfGm7B2JqVo3APiaepyAlm40]--></g></svg>