<?xml version="1.0" encoding="UTF-8" standalone="no"?><svg xmlns="http://www.w3.org/2000/svg" xmlns:xlink="http://www.w3.org/1999/xlink" contentStyleType="text/css" height="2561px" preserveAspectRatio="none" style="width:3664px;height:2561px;background:#FFFFFF;" version="1.1" viewBox="0 0 3664 2561" width="3664px" zoomAndPan="magnify"><defs/><g><rect fill="#FFFFFF" height="2356.5" style="stroke:#181818;stroke-width:1.0;" width="10" x="46" y="98.5547"/><rect fill="#FFFFFF" height="1073.6406" style="stroke:#181818;stroke-width:1.0;" width="10" x="749" y="128.1094"/><rect fill="#FFFFFF" height="180.2188" style="stroke:#181818;stroke-width:1.0;" width="10" x="749" y="1239.3047"/><rect fill="#FFFFFF" height="326.9922" style="stroke:#181818;stroke-width:1.0;" width="10" x="749" y="1498.1875"/><rect fill="#FFFFFF" height="469.6563" style="stroke:#181818;stroke-width:1.0;" width="10" x="749" y="1910.8438"/><rect fill="#FFFFFF" height="30" style="stroke:#181818;stroke-width:1.0;" width="10" x="749" y="2425.0547"/><rect fill="#FFFFFF" height="949.9766" style="stroke:#181818;stroke-width:1.0;" width="10" x="1135" y="214.2188"/><rect fill="#FFFFFF" height="105.1094" style="stroke:#181818;stroke-width:1.0;" width="10" x="1135" y="1276.8594"/><rect fill="#FFFFFF" height="289.4375" style="stroke:#181818;stroke-width:1.0;" width="10" x="1135" y="1535.7422"/><rect fill="#FFFFFF" height="289.4375" style="stroke:#181818;stroke-width:1.0;" width="10" x="1135" y="1948.3984"/><rect fill="#FFFFFF" height="105.1094" style="stroke:#181818;stroke-width:1.0;" width="10" x="1135" y="2275.3906"/><rect fill="#FFFFFF" height="37.5547" style="stroke:#181818;stroke-width:1.0;" width="10" x="1381.5" y="251.7734"/><rect fill="#FFFFFF" height="37.5547" style="stroke:#181818;stroke-width:1.0;" width="10" x="1530" y="326.8828"/><rect fill="#FFFFFF" height="724.6484" style="stroke:#181818;stroke-width:1.0;" width="10" x="1769.5" y="401.9922"/><rect fill="#FFFFFF" height="67.5547" style="stroke:#181818;stroke-width:1.0;" width="10" x="1769.5" y="1314.4141"/><rect fill="#FFFFFF" height="251.8828" style="stroke:#181818;stroke-width:1.0;" width="10" x="1769.5" y="1573.2969"/><rect fill="#FFFFFF" height="251.8828" style="stroke:#181818;stroke-width:1.0;" width="10" x="1769.5" y="1985.9531"/><rect fill="#FFFFFF" height="67.5547" style="stroke:#181818;stroke-width:1.0;" width="10" x="1769.5" y="2312.9453"/><rect fill="#FFFFFF" height="37.5547" style="stroke:#181818;stroke-width:1.0;" width="10" x="2121.5" y="644.4297"/><rect fill="#FFFFFF" height="355.5469" style="stroke:#181818;stroke-width:1.0;" width="10" x="2430.5" y="733.5391"/><rect fill="#FFFFFF" height="37.5547" style="stroke:#181818;stroke-width:1.0;" width="10" x="2816.5" y="1006.9766"/><rect fill="#FFFFFF" height="30" style="stroke:#181818;stroke-width:1.0;" width="10" x="3341" y="1351.9688"/><rect fill="#FFFFFF" height="30" style="stroke:#181818;stroke-width:1.0;" width="10" x="3341" y="2350.5"/><rect fill="#FFFFFF" height="30" style="stroke:#181818;stroke-width:1.0;" width="10" x="3532" y="1795.1797"/><rect fill="#FFFFFF" height="30" style="stroke:#181818;stroke-width:1.0;" width="10" x="3532" y="2207.8359"/><rect fill="none" height="157.3281" style="stroke:#000000;stroke-width:1.5;" width="708.5" x="1589" y="539.6563"/><rect fill="none" height="109.2188" style="stroke:#000000;stroke-width:1.5;" width="688.5" x="1599" y="580.7656"/><rect fill="none" height="231.8828" style="stroke:#000000;stroke-width:1.5;" width="999" x="2277.5" y="820.6484"/><rect fill="none" height="398.6563" style="stroke:#000000;stroke-width:1.5;" width="3648.5" x="10" y="1434.5234"/><rect fill="none" height="119.7734" style="stroke:#000000;stroke-width:1.5;" width="1006.5" x="953.5" y="1638.8516"/><rect fill="none" height="71.6641" style="stroke:#000000;stroke-width:1.5;" width="986.5" x="963.5" y="1679.9609"/><rect fill="none" height="541.3203" style="stroke:#000000;stroke-width:1.5;" width="3648.5" x="10" y="1847.1797"/><rect fill="none" height="119.7734" style="stroke:#000000;stroke-width:1.5;" width="1006.5" x="953.5" y="2051.5078"/><rect fill="none" height="71.6641" style="stroke:#000000;stroke-width:1.5;" width="986.5" x="963.5" y="2092.6172"/><line style="stroke:#181818;stroke-width:0.5;stroke-dasharray:5.0,5.0;" x1="51" x2="51" y1="88.5547" y2="2473.0547"/><line style="stroke:#181818;stroke-width:0.5;stroke-dasharray:5.0,5.0;" x1="753.5" x2="753.5" y1="88.5547" y2="2473.0547"/><line style="stroke:#181818;stroke-width:0.5;stroke-dasharray:5.0,5.0;" x1="1139.5" x2="1139.5" y1="170.3867" y2="2473.0547"/><line style="stroke:#181818;stroke-width:0.5;stroke-dasharray:5.0,5.0;" x1="1386.5" x2="1386.5" y1="88.5547" y2="2473.0547"/><line style="stroke:#181818;stroke-width:0.5;stroke-dasharray:5.0,5.0;" x1="1535" x2="1535" y1="88.5547" y2="2473.0547"/><line style="stroke:#181818;stroke-width:0.5;stroke-dasharray:5.0,5.0;" x1="1774" x2="1774" y1="88.5547" y2="2473.0547"/><line style="stroke:#181818;stroke-width:0.5;stroke-dasharray:5.0,5.0;" x1="2126.5" x2="2126.5" y1="456.0469" y2="2473.0547"/><line style="stroke:#181818;stroke-width:0.5;stroke-dasharray:5.0,5.0;" x1="2435.5" x2="2435.5" y1="88.5547" y2="2473.0547"/><line style="stroke:#181818;stroke-width:0.5;stroke-dasharray:5.0,5.0;" x1="2821.5" x2="2821.5" y1="787.5938" y2="2473.0547"/><line style="stroke:#181818;stroke-width:0.5;stroke-dasharray:5.0,5.0;" x1="3132.5" x2="3132.5" y1="951.3672" y2="2473.0547"/><line style="stroke:#181818;stroke-width:0.5;stroke-dasharray:5.0,5.0;" x1="3345.5" x2="3345.5" y1="88.5547" y2="2473.0547"/><line style="stroke:#181818;stroke-width:0.5;stroke-dasharray:5.0,5.0;" x1="3536.5" x2="3536.5" y1="88.5547" y2="2473.0547"/><text fill="#000000" font-family="sans-serif" font-size="20" lengthAdjust="spacing" textLength="56" x="20" y="84.3359">Client</text><ellipse cx="51" cy="13.5" fill="#E3E3E3" rx="8" ry="8" style="stroke:#181818;stroke-width:0.5;"/><path d="M51,21.5 L51,48.5 M38,29.5 L64,29.5 M51,48.5 L38,63.5 M51,48.5 L64,63.5 " fill="none" style="stroke:#181818;stroke-width:0.5;"/><text fill="#000000" font-family="sans-serif" font-size="20" lengthAdjust="spacing" textLength="56" x="20" y="2491.3906">Client</text><ellipse cx="51" cy="2504.1094" fill="#E3E3E3" rx="8" ry="8" style="stroke:#181818;stroke-width:0.5;"/><path d="M51,2512.1094 L51,2539.1094 M38,2520.1094 L64,2520.1094 M51,2539.1094 L38,2554.1094 M51,2539.1094 L64,2554.1094 " fill="none" style="stroke:#181818;stroke-width:0.5;"/><rect fill="#E3E3E3" height="37.5547" rx="2.5" ry="2.5" style="stroke:#181818;stroke-width:0.5;" width="257" x="625.5" y="50"/><text fill="#000000" font-family="sans-serif" font-size="20" lengthAdjust="spacing" textLength="243" x="632.5" y="76.3359">:AnswearAppointmentsUI</text><rect fill="#E3E3E3" height="37.5547" rx="2.5" ry="2.5" style="stroke:#181818;stroke-width:0.5;" width="257" x="625.5" y="2472.0547"/><text fill="#000000" font-family="sans-serif" font-size="20" lengthAdjust="spacing" textLength="243" x="632.5" y="2498.3906">:AnswearAppointmentsUI</text><rect fill="#E3E3E3" height="37.5547" rx="2.5" ry="2.5" style="stroke:#181818;stroke-width:0.5;" width="333" x="973.5" y="2472.0547"/><text fill="#000000" font-family="sans-serif" font-size="20" lengthAdjust="spacing" textLength="319" x="980.5" y="2498.3906">:AnswearAppointmentsController</text><rect fill="#E3E3E3" height="37.5547" rx="2.5" ry="2.5" style="stroke:#181818;stroke-width:0.5;" width="140" x="1316.5" y="50"/><text fill="#000000" font-family="sans-serif" font-size="20" lengthAdjust="spacing" textLength="126" x="1323.5" y="76.3359">:repositories:</text><rect fill="#E3E3E3" height="37.5547" rx="2.5" ry="2.5" style="stroke:#181818;stroke-width:0.5;" width="140" x="1316.5" y="2472.0547"/><text fill="#000000" font-family="sans-serif" font-size="20" lengthAdjust="spacing" textLength="126" x="1323.5" y="2498.3906">:repositories:</text><rect fill="#E3E3E3" height="61.1094" rx="2.5" ry="2.5" style="stroke:#181818;stroke-width:0.5;" width="128" x="1471" y="26.4453"/><text fill="#000000" font-family="sans-serif" font-size="20" lengthAdjust="spacing" textLength="102" x="1484" y="52.7813">Repository</text><text fill="#000000" font-family="sans-serif" font-size="20" lengthAdjust="spacing" textLength="114" x="1478" y="76.3359">:Repository:</text><rect fill="#E3E3E3" height="61.1094" rx="2.5" ry="2.5" style="stroke:#181818;stroke-width:0.5;" width="128" x="1471" y="2472.0547"/><text fill="#000000" font-family="sans-serif" font-size="20" lengthAdjust="spacing" textLength="102" x="1484" y="2498.3906">Repository</text><text fill="#000000" font-family="sans-serif" font-size="20" lengthAdjust="spacing" textLength="114" x="1478" y="2521.9453">:Repository:</text><rect fill="#E3E3E3" height="61.1094" rx="2.5" ry="2.5" style="stroke:#181818;stroke-width:0.5;" width="331" x="1609" y="26.4453"/><text fill="#000000" font-family="sans-serif" font-size="20" lengthAdjust="spacing" textLength="302" x="1623.5" y="52.7813">appointmentRequestRepository</text><text fill="#000000" font-family="sans-serif" font-size="20" lengthAdjust="spacing" textLength="317" x="1616" y="76.3359">:AppointmentRequestRepository:</text><rect fill="#E3E3E3" height="61.1094" rx="2.5" ry="2.5" style="stroke:#181818;stroke-width:0.5;" width="331" x="1609" y="2472.0547"/><text fill="#000000" font-family="sans-serif" font-size="20" lengthAdjust="spacing" textLength="302" x="1623.5" y="2498.3906">appointmentRequestRepository</text><text fill="#000000" font-family="sans-serif" font-size="20" lengthAdjust="spacing" textLength="317" x="1616" y="2521.9453">:AppointmentRequestRepository:</text><rect fill="#E3E3E3" height="61.1094" rx="2.5" ry="2.5" style="stroke:#181818;stroke-width:0.5;" width="302" x="1975.5" y="2472.0547"/><text fill="#000000" font-family="sans-serif" font-size="20" lengthAdjust="spacing" textLength="288" x="1982.5" y="2498.3906">usersAppointmentRequestList</text><text fill="#000000" font-family="sans-serif" font-size="20" lengthAdjust="spacing" textLength="275" x="1989" y="2521.9453">:List&lt;AppointmentRequest&gt;</text><rect fill="#E3E3E3" height="61.1094" rx="2.5" ry="2.5" style="stroke:#181818;stroke-width:0.5;" width="296" x="2287.5" y="26.4453"/><text fill="#000000" font-family="sans-serif" font-size="20" lengthAdjust="spacing" textLength="273" x="2299" y="52.7813">appointmentRequestMapper</text><text fill="#000000" font-family="sans-serif" font-size="20" lengthAdjust="spacing" textLength="282" x="2294.5" y="76.3359">:AppointmentRequestMapper</text><rect fill="#E3E3E3" height="61.1094" rx="2.5" ry="2.5" style="stroke:#181818;stroke-width:0.5;" width="296" x="2287.5" y="2472.0547"/><text fill="#000000" font-family="sans-serif" font-size="20" lengthAdjust="spacing" textLength="273" x="2299" y="2498.3906">appointmentRequestMapper</text><text fill="#000000" font-family="sans-serif" font-size="20" lengthAdjust="spacing" textLength="282" x="2294.5" y="2521.9453">:AppointmentRequestMapper</text><rect fill="#E3E3E3" height="61.1094" rx="2.5" ry="2.5" style="stroke:#181818;stroke-width:0.5;" width="336" x="2653.5" y="2472.0547"/><text fill="#000000" font-family="sans-serif" font-size="20" lengthAdjust="spacing" textLength="322" x="2660.5" y="2498.3906">userAppointmentRequestListDTO</text><text fill="#000000" font-family="sans-serif" font-size="20" lengthAdjust="spacing" textLength="319" x="2662" y="2521.9453">:List&lt;AppointmentRequestDTO&gt;</text><rect fill="#E3E3E3" height="61.1094" rx="2.5" ry="2.5" style="stroke:#181818;stroke-width:0.5;" width="267" x="2999.5" y="2472.0547"/><text fill="#000000" font-family="sans-serif" font-size="20" lengthAdjust="spacing" textLength="244" x="3011" y="2498.3906">appointmentRequestDTO</text><text fill="#000000" font-family="sans-serif" font-size="20" lengthAdjust="spacing" textLength="253" x="3006.5" y="2521.9453">:AppointmentRequestDTO</text><rect fill="#E3E3E3" height="61.1094" rx="2.5" ry="2.5" style="stroke:#181818;stroke-width:0.5;" width="139" x="3276.5" y="26.4453"/><text fill="#000000" font-family="sans-serif" font-size="20" lengthAdjust="spacing" textLength="119" x="3286.5" y="52.7813">emailSender</text><text fill="#000000" font-family="sans-serif" font-size="20" lengthAdjust="spacing" textLength="125" x="3283.5" y="76.3359">:EmailSender</text><rect fill="#E3E3E3" height="61.1094" rx="2.5" ry="2.5" style="stroke:#181818;stroke-width:0.5;" width="139" x="3276.5" y="2472.0547"/><text fill="#000000" font-family="sans-serif" font-size="20" lengthAdjust="spacing" textLength="119" x="3286.5" y="2498.3906">emailSender</text><text fill="#000000" font-family="sans-serif" font-size="20" lengthAdjust="spacing" textLength="125" x="3283.5" y="2521.9453">:EmailSender</text><rect fill="#E3E3E3" height="61.1094" rx="2.5" ry="2.5" style="stroke:#181818;stroke-width:0.5;" width="223" x="3425.5" y="26.4453"/><text fill="#000000" font-family="sans-serif" font-size="20" lengthAdjust="spacing" textLength="200" x="3437" y="52.7813">appointmentRequest</text><text fill="#000000" font-family="sans-serif" font-size="20" lengthAdjust="spacing" textLength="209" x="3432.5" y="76.3359">:AppointmentRequest</text><rect fill="#E3E3E3" height="61.1094" rx="2.5" ry="2.5" style="stroke:#181818;stroke-width:0.5;" width="223" x="3425.5" y="2472.0547"/><text fill="#000000" font-family="sans-serif" font-size="20" lengthAdjust="spacing" textLength="200" x="3437" y="2498.3906">appointmentRequest</text><text fill="#000000" font-family="sans-serif" font-size="20" lengthAdjust="spacing" textLength="209" x="3432.5" y="2521.9453">:AppointmentRequest</text><rect fill="#FFFFFF" height="2356.5" style="stroke:#181818;stroke-width:1.0;" width="10" x="46" y="98.5547"/><rect fill="#FFFFFF" height="1073.6406" style="stroke:#181818;stroke-width:1.0;" width="10" x="749" y="128.1094"/><rect fill="#FFFFFF" height="180.2188" style="stroke:#181818;stroke-width:1.0;" width="10" x="749" y="1239.3047"/><rect fill="#FFFFFF" height="326.9922" style="stroke:#181818;stroke-width:1.0;" width="10" x="749" y="1498.1875"/><rect fill="#FFFFFF" height="469.6563" style="stroke:#181818;stroke-width:1.0;" width="10" x="749" y="1910.8438"/><rect fill="#FFFFFF" height="30" style="stroke:#181818;stroke-width:1.0;" width="10" x="749" y="2425.0547"/><rect fill="#FFFFFF" height="949.9766" style="stroke:#181818;stroke-width:1.0;" width="10" x="1135" y="214.2188"/><rect fill="#FFFFFF" height="105.1094" style="stroke:#181818;stroke-width:1.0;" width="10" x="1135" y="1276.8594"/><rect fill="#FFFFFF" height="289.4375" style="stroke:#181818;stroke-width:1.0;" width="10" x="1135" y="1535.7422"/><rect fill="#FFFFFF" height="289.4375" style="stroke:#181818;stroke-width:1.0;" width="10" x="1135" y="1948.3984"/><rect fill="#FFFFFF" height="105.1094" style="stroke:#181818;stroke-width:1.0;" width="10" x="1135" y="2275.3906"/><rect fill="#FFFFFF" height="37.5547" style="stroke:#181818;stroke-width:1.0;" width="10" x="1381.5" y="251.7734"/><rect fill="#FFFFFF" height="37.5547" style="stroke:#181818;stroke-width:1.0;" width="10" x="1530" y="326.8828"/><rect fill="#FFFFFF" height="724.6484" style="stroke:#181818;stroke-width:1.0;" width="10" x="1769.5" y="401.9922"/><rect fill="#FFFFFF" height="67.5547" style="stroke:#181818;stroke-width:1.0;" width="10" x="1769.5" y="1314.4141"/><rect fill="#FFFFFF" height="251.8828" style="stroke:#181818;stroke-width:1.0;" width="10" x="1769.5" y="1573.2969"/><rect fill="#FFFFFF" height="251.8828" style="stroke:#181818;stroke-width:1.0;" width="10" x="1769.5" y="1985.9531"/><rect fill="#FFFFFF" height="67.5547" style="stroke:#181818;stroke-width:1.0;" width="10" x="1769.5" y="2312.9453"/><rect fill="#FFFFFF" height="37.5547" style="stroke:#181818;stroke-width:1.0;" width="10" x="2121.5" y="644.4297"/><rect fill="#FFFFFF" height="355.5469" style="stroke:#181818;stroke-width:1.0;" width="10" x="2430.5" y="733.5391"/><rect fill="#FFFFFF" height="37.5547" style="stroke:#181818;stroke-width:1.0;" width="10" x="2816.5" y="1006.9766"/><rect fill="#FFFFFF" height="30" style="stroke:#181818;stroke-width:1.0;" width="10" x="3341" y="1351.9688"/><rect fill="#FFFFFF" height="30" style="stroke:#181818;stroke-width:1.0;" width="10" x="3341" y="2350.5"/><rect fill="#FFFFFF" height="30" style="stroke:#181818;stroke-width:1.0;" width="10" x="3532" y="1795.1797"/><rect fill="#FFFFFF" height="30" style="stroke:#181818;stroke-width:1.0;" width="10" x="3532" y="2207.8359"/><polygon fill="#181818" points="737,124.1094,747,128.1094,737,132.1094,741,128.1094" style="stroke:#181818;stroke-width:1.0;"/><line style="stroke:#181818;stroke-width:1.0;" x1="56" x2="743" y1="128.1094" y2="128.1094"/><text fill="#000000" font-family="sans-serif" font-size="20" font-weight="bold" lengthAdjust="spacing" textLength="13" x="63" y="121.8906">1</text><text fill="#000000" font-family="sans-serif" font-size="20" lengthAdjust="spacing" textLength="467" x="80" y="121.8906">requests to read appointment requests answears</text><polygon fill="#181818" points="961.5,161.6641,971.5,165.6641,961.5,169.6641,965.5,165.6641" style="stroke:#181818;stroke-width:1.0;"/><line style="stroke:#181818;stroke-width:1.0;" x1="759" x2="967.5" y1="165.6641" y2="165.6641"/><text fill="#000000" font-family="sans-serif" font-size="20" font-weight="bold" lengthAdjust="spacing" textLength="13" x="766" y="159.4453">2</text><text fill="#000000" font-family="sans-serif" font-size="20" lengthAdjust="spacing" textLength="72" x="783" y="159.4453">create()</text><rect fill="#E3E3E3" height="37.5547" rx="2.5" ry="2.5" style="stroke:#181818;stroke-width:0.5;" width="333" x="973.5" y="136.1094"/><text fill="#000000" font-family="sans-serif" font-size="20" lengthAdjust="spacing" textLength="319" x="980.5" y="162.4453">:AnswearAppointmentsController</text><polygon fill="#181818" points="1123,210.2188,1133,214.2188,1123,218.2188,1127,214.2188" style="stroke:#181818;stroke-width:1.0;"/><line style="stroke:#181818;stroke-width:1.0;" x1="759" x2="1129" y1="214.2188" y2="214.2188"/><text fill="#000000" font-family="sans-serif" font-size="20" font-weight="bold" lengthAdjust="spacing" textLength="13" x="766" y="208">3</text><text fill="#000000" font-family="sans-serif" font-size="20" lengthAdjust="spacing" textLength="281" x="783" y="208">getAppointmentRequestList()</text><polygon fill="#181818" points="1369.5,247.7734,1379.5,251.7734,1369.5,255.7734,1373.5,251.7734" style="stroke:#181818;stroke-width:1.0;"/><line style="stroke:#181818;stroke-width:1.0;" x1="1145" x2="1375.5" y1="251.7734" y2="251.7734"/><text fill="#000000" font-family="sans-serif" font-size="20" font-weight="bold" lengthAdjust="spacing" textLength="13" x="1152" y="245.5547">4</text><text fill="#000000" font-family="sans-serif" font-size="20" lengthAdjust="spacing" textLength="123" x="1169" y="245.5547">getInstance()</text><polygon fill="#181818" points="1156,285.3281,1146,289.3281,1156,293.3281,1152,289.3281" style="stroke:#181818;stroke-width:1.0;"/><line style="stroke:#181818;stroke-width:1.0;stroke-dasharray:2.0,2.0;" x1="1150" x2="1385.5" y1="289.3281" y2="289.3281"/><text fill="#000000" font-family="sans-serif" font-size="20" font-weight="bold" lengthAdjust="spacing" textLength="13" x="1162" y="283.1094">5</text><text fill="#000000" font-family="sans-serif" font-size="20" lengthAdjust="spacing" textLength="114" x="1179" y="283.1094">repositories</text><polygon fill="#181818" points="1518,322.8828,1528,326.8828,1518,330.8828,1522,326.8828" style="stroke:#181818;stroke-width:1.0;"/><line style="stroke:#181818;stroke-width:1.0;" x1="1145" x2="1524" y1="326.8828" y2="326.8828"/><text fill="#000000" font-family="sans-serif" font-size="20" font-weight="bold" lengthAdjust="spacing" textLength="13" x="1152" y="320.6641">6</text><text fill="#000000" font-family="sans-serif" font-size="20" lengthAdjust="spacing" textLength="349" x="1169" y="320.6641">getAppointmentRequestRepository()</text><polygon fill="#181818" points="1156,360.4375,1146,364.4375,1156,368.4375,1152,364.4375" style="stroke:#181818;stroke-width:1.0;"/><line style="stroke:#181818;stroke-width:1.0;stroke-dasharray:2.0,2.0;" x1="1150" x2="1534" y1="364.4375" y2="364.4375"/><text fill="#000000" font-family="sans-serif" font-size="20" font-weight="bold" lengthAdjust="spacing" textLength="13" x="1162" y="358.2188">7</text><text fill="#000000" font-family="sans-serif" font-size="20" lengthAdjust="spacing" textLength="305" x="1179" y="358.2188">AppointmentRequestRepository</text><polygon fill="#181818" points="1757.5,397.9922,1767.5,401.9922,1757.5,405.9922,1761.5,401.9922" style="stroke:#181818;stroke-width:1.0;"/><line style="stroke:#181818;stroke-width:1.0;" x1="1145" x2="1763.5" y1="401.9922" y2="401.9922"/><text fill="#000000" font-family="sans-serif" font-size="20" font-weight="bold" lengthAdjust="spacing" textLength="13" x="1152" y="395.7734">8</text><text fill="#000000" font-family="sans-serif" font-size="20" lengthAdjust="spacing" textLength="174" x="1169" y="395.7734">getUserRequests()</text><polygon fill="#181818" points="1963.5,435.5469,1973.5,439.5469,1963.5,443.5469,1967.5,439.5469" style="stroke:#181818;stroke-width:1.0;"/><line style="stroke:#181818;stroke-width:1.0;" x1="1779.5" x2="1969.5" y1="439.5469" y2="439.5469"/><text fill="#000000" font-family="sans-serif" font-size="20" font-weight="bold" lengthAdjust="spacing" textLength="13" x="1786.5" y="433.3281">9</text><text fill="#000000" font-family="sans-serif" font-size="20" lengthAdjust="spacing" textLength="72" x="1803.5" y="433.3281">create()</text><rect fill="#E3E3E3" height="61.1094" rx="2.5" ry="2.5" style="stroke:#181818;stroke-width:0.5;" width="302" x="1975.5" y="409.9922"/><text fill="#000000" font-family="sans-serif" font-size="20" lengthAdjust="spacing" textLength="288" x="1982.5" y="436.3281">usersAppointmentRequestList</text><text fill="#000000" font-family="sans-serif" font-size="20" lengthAdjust="spacing" textLength="275" x="1989" y="459.8828">:List&lt;AppointmentRequest&gt;</text><line style="stroke:#181818;stroke-width:1.0;" x1="1779.5" x2="1821.5" y1="511.6563" y2="511.6563"/><line style="stroke:#181818;stroke-width:1.0;" x1="1821.5" x2="1821.5" y1="511.6563" y2="524.6563"/><line style="stroke:#181818;stroke-width:1.0;" x1="1780.5" x2="1821.5" y1="524.6563" y2="524.6563"/><polygon fill="#181818" points="1790.5,520.6563,1780.5,524.6563,1790.5,528.6563,1786.5,524.6563" style="stroke:#181818;stroke-width:1.0;"/><text fill="#000000" font-family="sans-serif" font-size="20" font-weight="bold" lengthAdjust="spacing" textLength="26" x="1786.5" y="505.4375">10</text><text fill="#000000" font-family="sans-serif" font-size="20" lengthAdjust="spacing" textLength="257" x="1816.5" y="505.4375">getAppointmentRequests()</text><path d="M1589,539.6563 L1680,539.6563 L1680,555.2109 L1670,565.2109 L1589,565.2109 L1589,539.6563 " fill="#EEEEEE" style="stroke:#000000;stroke-width:1.5;"/><rect fill="none" height="157.3281" style="stroke:#000000;stroke-width:1.5;" width="708.5" x="1589" y="539.6563"/><text fill="#000000" font-family="sans-serif" font-size="20" font-weight="bold" lengthAdjust="spacing" textLength="46" x="1604" y="559.9922">loop</text><text fill="#000000" font-family="sans-serif" font-size="20" font-weight="bold" lengthAdjust="spacing" textLength="322" x="1695" y="560.9922">[for each appointment request]</text><path d="M1599,580.7656 L1671,580.7656 L1671,596.3203 L1661,606.3203 L1599,606.3203 L1599,580.7656 " fill="#EEEEEE" style="stroke:#000000;stroke-width:1.5;"/><rect fill="none" height="109.2188" style="stroke:#000000;stroke-width:1.5;" width="688.5" x="1599" y="580.7656"/><text fill="#000000" font-family="sans-serif" font-size="20" font-weight="bold" lengthAdjust="spacing" textLength="27" x="1614" y="601.1016">alt</text><text fill="#000000" font-family="sans-serif" font-size="20" font-weight="bold" lengthAdjust="spacing" textLength="377" x="1686" y="602.1016">[if appointmentRequest user = user]</text><polygon fill="#181818" points="2109.5,640.4297,2119.5,644.4297,2109.5,648.4297,2113.5,644.4297" style="stroke:#181818;stroke-width:1.0;"/><line style="stroke:#181818;stroke-width:1.0;" x1="1779.5" x2="2115.5" y1="644.4297" y2="644.4297"/><text fill="#000000" font-family="sans-serif" font-size="20" font-weight="bold" lengthAdjust="spacing" textLength="26" x="1786.5" y="638.2109">11</text><text fill="#000000" font-family="sans-serif" font-size="20" lengthAdjust="spacing" textLength="254" x="1816.5" y="638.2109">add(AppointmentRequest)</text><polygon fill="#181818" points="1790.5,677.9844,1780.5,681.9844,1790.5,685.9844,1786.5,681.9844" style="stroke:#181818;stroke-width:1.0;"/><line style="stroke:#181818;stroke-width:1.0;stroke-dasharray:2.0,2.0;" x1="1784.5" x2="2125.5" y1="681.9844" y2="681.9844"/><text fill="#000000" font-family="sans-serif" font-size="20" font-weight="bold" lengthAdjust="spacing" textLength="26" x="1796.5" y="675.7656">12</text><text fill="#000000" font-family="sans-serif" font-size="20" lengthAdjust="spacing" textLength="288" x="1826.5" y="675.7656">usersAppointmentRequestList</text><polygon fill="#181818" points="2418.5,729.5391,2428.5,733.5391,2418.5,737.5391,2422.5,733.5391" style="stroke:#181818;stroke-width:1.0;"/><line style="stroke:#181818;stroke-width:1.0;" x1="1779.5" x2="2424.5" y1="733.5391" y2="733.5391"/><text fill="#000000" font-family="sans-serif" font-size="20" font-weight="bold" lengthAdjust="spacing" textLength="26" x="1786.5" y="727.3203">13</text><text fill="#000000" font-family="sans-serif" font-size="20" lengthAdjust="spacing" textLength="365" x="1816.5" y="727.3203">toDTO(usersAppointmentRequestList)</text><polygon fill="#181818" points="2641.5,767.0938,2651.5,771.0938,2641.5,775.0938,2645.5,771.0938" style="stroke:#181818;stroke-width:1.0;"/><line style="stroke:#181818;stroke-width:1.0;" x1="2440.5" x2="2647.5" y1="771.0938" y2="771.0938"/><text fill="#000000" font-family="sans-serif" font-size="20" font-weight="bold" lengthAdjust="spacing" textLength="26" x="2447.5" y="764.875">14</text><text fill="#000000" font-family="sans-serif" font-size="20" lengthAdjust="spacing" textLength="72" x="2477.5" y="764.875">create()</text><rect fill="#E3E3E3" height="61.1094" rx="2.5" ry="2.5" style="stroke:#181818;stroke-width:0.5;" width="336" x="2653.5" y="741.5391"/><text fill="#000000" font-family="sans-serif" font-size="20" lengthAdjust="spacing" textLength="322" x="2660.5" y="767.875">userAppointmentRequestListDTO</text><text fill="#000000" font-family="sans-serif" font-size="20" lengthAdjust="spacing" textLength="319" x="2662" y="791.4297">:List&lt;AppointmentRequestDTO&gt;</text><path d="M2277.5,820.6484 L2368.5,820.6484 L2368.5,836.2031 L2358.5,846.2031 L2277.5,846.2031 L2277.5,820.6484 " fill="#EEEEEE" style="stroke:#000000;stroke-width:1.5;"/><rect fill="none" height="231.8828" style="stroke:#000000;stroke-width:1.5;" width="999" x="2277.5" y="820.6484"/><text fill="#000000" font-family="sans-serif" font-size="20" font-weight="bold" lengthAdjust="spacing" textLength="46" x="2292.5" y="840.9844">loop</text><text fill="#000000" font-family="sans-serif" font-size="20" font-weight="bold" lengthAdjust="spacing" textLength="323" x="2383.5" y="841.9844">[for each AppointmentRequest]</text><line style="stroke:#181818;stroke-width:1.0;" x1="2440.5" x2="2482.5" y1="884.3125" y2="884.3125"/><line style="stroke:#181818;stroke-width:1.0;" x1="2482.5" x2="2482.5" y1="884.3125" y2="897.3125"/><line style="stroke:#181818;stroke-width:1.0;" x1="2441.5" x2="2482.5" y1="897.3125" y2="897.3125"/><polygon fill="#181818" points="2451.5,893.3125,2441.5,897.3125,2451.5,901.3125,2447.5,897.3125" style="stroke:#181818;stroke-width:1.0;"/><text fill="#000000" font-family="sans-serif" font-size="20" font-weight="bold" lengthAdjust="spacing" textLength="26" x="2447.5" y="878.0938">15</text><text fill="#000000" font-family="sans-serif" font-size="20" lengthAdjust="spacing" textLength="321" x="2477.5" y="878.0938">toDTO(userAppointmentRequest)</text><polygon fill="#181818" points="2987.5,930.8672,2997.5,934.8672,2987.5,938.8672,2991.5,934.8672" style="stroke:#181818;stroke-width:1.0;"/><line style="stroke:#181818;stroke-width:1.0;" x1="2440.5" x2="2993.5" y1="934.8672" y2="934.8672"/><text fill="#000000" font-family="sans-serif" font-size="20" font-weight="bold" lengthAdjust="spacing" textLength="26" x="2447.5" y="928.6484">16</text><text fill="#000000" font-family="sans-serif" font-size="20" lengthAdjust="spacing" textLength="72" x="2477.5" y="928.6484">create()</text><rect fill="#E3E3E3" height="61.1094" rx="2.5" ry="2.5" style="stroke:#181818;stroke-width:0.5;" width="267" x="2999.5" y="905.3125"/><text fill="#000000" font-family="sans-serif" font-size="20" lengthAdjust="spacing" textLength="244" x="3011" y="931.6484">appointmentRequestDTO</text><text fill="#000000" font-family="sans-serif" font-size="20" lengthAdjust="spacing" textLength="253" x="3006.5" y="955.2031">:AppointmentRequestDTO</text><polygon fill="#181818" points="2804.5,1002.9766,2814.5,1006.9766,2804.5,1010.9766,2808.5,1006.9766" style="stroke:#181818;stroke-width:1.0;"/><line style="stroke:#181818;stroke-width:1.0;" x1="2440.5" x2="2810.5" y1="1006.9766" y2="1006.9766"/><text fill="#000000" font-family="sans-serif" font-size="20" font-weight="bold" lengthAdjust="spacing" textLength="26" x="2447.5" y="1000.7578">17</text><text fill="#000000" font-family="sans-serif" font-size="20" lengthAdjust="spacing" textLength="298" x="2477.5" y="1000.7578">add(AppointmentRequestDTO)</text><polygon fill="#181818" points="2451.5,1040.5313,2441.5,1044.5313,2451.5,1048.5313,2447.5,1044.5313" style="stroke:#181818;stroke-width:1.0;"/><line style="stroke:#181818;stroke-width:1.0;stroke-dasharray:2.0,2.0;" x1="2445.5" x2="2820.5" y1="1044.5313" y2="1044.5313"/><text fill="#000000" font-family="sans-serif" font-size="20" font-weight="bold" lengthAdjust="spacing" textLength="26" x="2457.5" y="1038.3125">18</text><text fill="#000000" font-family="sans-serif" font-size="20" lengthAdjust="spacing" textLength="322" x="2487.5" y="1038.3125">userAppointmentRequestListDTO</text><polygon fill="#181818" points="1790.5,1085.0859,1780.5,1089.0859,1790.5,1093.0859,1786.5,1089.0859" style="stroke:#181818;stroke-width:1.0;"/><line style="stroke:#181818;stroke-width:1.0;stroke-dasharray:2.0,2.0;" x1="1784.5" x2="2434.5" y1="1089.0859" y2="1089.0859"/><text fill="#000000" font-family="sans-serif" font-size="20" font-weight="bold" lengthAdjust="spacing" textLength="26" x="1796.5" y="1082.8672">19</text><text fill="#000000" font-family="sans-serif" font-size="20" lengthAdjust="spacing" textLength="322" x="1826.5" y="1082.8672">userAppointmentRequestListDTO</text><polygon fill="#181818" points="1156,1122.6406,1146,1126.6406,1156,1130.6406,1152,1126.6406" style="stroke:#181818;stroke-width:1.0;"/><line style="stroke:#181818;stroke-width:1.0;stroke-dasharray:2.0,2.0;" x1="1150" x2="1773.5" y1="1126.6406" y2="1126.6406"/><text fill="#000000" font-family="sans-serif" font-size="20" font-weight="bold" lengthAdjust="spacing" textLength="26" x="1162" y="1120.4219">20</text><text fill="#000000" font-family="sans-serif" font-size="20" lengthAdjust="spacing" textLength="322" x="1192" y="1120.4219">userAppointmentRequestListDTO</text><polygon fill="#181818" points="770,1160.1953,760,1164.1953,770,1168.1953,766,1164.1953" style="stroke:#181818;stroke-width:1.0;"/><line style="stroke:#181818;stroke-width:1.0;stroke-dasharray:2.0,2.0;" x1="764" x2="1139" y1="1164.1953" y2="1164.1953"/><text fill="#000000" font-family="sans-serif" font-size="20" font-weight="bold" lengthAdjust="spacing" textLength="26" x="776" y="1157.9766">21</text><text fill="#000000" font-family="sans-serif" font-size="20" lengthAdjust="spacing" textLength="322" x="806" y="1157.9766">userAppointmentRequestListDTO</text><polygon fill="#181818" points="67,1197.75,57,1201.75,67,1205.75,63,1201.75" style="stroke:#181818;stroke-width:1.0;"/><line style="stroke:#181818;stroke-width:1.0;stroke-dasharray:2.0,2.0;" x1="61" x2="753" y1="1201.75" y2="1201.75"/><text fill="#000000" font-family="sans-serif" font-size="20" font-weight="bold" lengthAdjust="spacing" textLength="26" x="73" y="1195.5313">22</text><text fill="#000000" font-family="sans-serif" font-size="20" lengthAdjust="spacing" textLength="258" x="103" y="1195.5313">shows list of appointments</text><polygon fill="#181818" points="737,1235.3047,747,1239.3047,737,1243.3047,741,1239.3047" style="stroke:#181818;stroke-width:1.0;"/><line style="stroke:#181818;stroke-width:1.0;" x1="56" x2="743" y1="1239.3047" y2="1239.3047"/><text fill="#000000" font-family="sans-serif" font-size="20" font-weight="bold" lengthAdjust="spacing" textLength="26" x="63" y="1233.0859">23</text><text fill="#000000" font-family="sans-serif" font-size="20" lengthAdjust="spacing" textLength="194" x="93" y="1233.0859">selects appointment</text><polygon fill="#181818" points="1123,1272.8594,1133,1276.8594,1123,1280.8594,1127,1276.8594" style="stroke:#181818;stroke-width:1.0;"/><line style="stroke:#181818;stroke-width:1.0;" x1="759" x2="1129" y1="1276.8594" y2="1276.8594"/><text fill="#000000" font-family="sans-serif" font-size="20" font-weight="bold" lengthAdjust="spacing" textLength="26" x="766" y="1270.6406">24</text><text fill="#000000" font-family="sans-serif" font-size="20" lengthAdjust="spacing" textLength="213" x="796" y="1270.6406">sendEmail(agent,user)</text><polygon fill="#181818" points="1757.5,1310.4141,1767.5,1314.4141,1757.5,1318.4141,1761.5,1314.4141" style="stroke:#181818;stroke-width:1.0;"/><line style="stroke:#181818;stroke-width:1.0;" x1="1145" x2="1763.5" y1="1314.4141" y2="1314.4141"/><text fill="#000000" font-family="sans-serif" font-size="20" font-weight="bold" lengthAdjust="spacing" textLength="26" x="1152" y="1308.1953">25</text><text fill="#000000" font-family="sans-serif" font-size="20" lengthAdjust="spacing" textLength="213" x="1182" y="1308.1953">sendEmail(agent,user)</text><polygon fill="#181818" points="3329,1347.9688,3339,1351.9688,3329,1355.9688,3333,1351.9688" style="stroke:#181818;stroke-width:1.0;"/><line style="stroke:#181818;stroke-width:1.0;" x1="1779.5" x2="3335" y1="1351.9688" y2="1351.9688"/><text fill="#000000" font-family="sans-serif" font-size="20" font-weight="bold" lengthAdjust="spacing" textLength="26" x="1786.5" y="1345.75">26</text><text fill="#000000" font-family="sans-serif" font-size="20" lengthAdjust="spacing" textLength="213" x="1816.5" y="1345.75">sendEmail(agent,user)</text><polygon fill="#181818" points="67,1415.5234,57,1419.5234,67,1423.5234,63,1419.5234" style="stroke:#181818;stroke-width:1.0;"/><line style="stroke:#181818;stroke-width:1.0;stroke-dasharray:2.0,2.0;" x1="61" x2="753" y1="1419.5234" y2="1419.5234"/><text fill="#000000" font-family="sans-serif" font-size="20" font-weight="bold" lengthAdjust="spacing" textLength="26" x="73" y="1413.3047">27</text><text fill="#000000" font-family="sans-serif" font-size="20" lengthAdjust="spacing" textLength="639" x="103" y="1413.3047">shows appointment information(property, date, agent information)</text><path d="M10,1434.5234 L82,1434.5234 L82,1450.0781 L72,1460.0781 L10,1460.0781 L10,1434.5234 " fill="#EEEEEE" style="stroke:#000000;stroke-width:1.5;"/><rect fill="none" height="398.6563" style="stroke:#000000;stroke-width:1.5;" width="3648.5" x="10" y="1434.5234"/><text fill="#000000" font-family="sans-serif" font-size="20" font-weight="bold" lengthAdjust="spacing" textLength="27" x="25" y="1454.8594">alt</text><text fill="#000000" font-family="sans-serif" font-size="20" font-weight="bold" lengthAdjust="spacing" textLength="230" x="97" y="1455.8594">[accepts appointment]</text><polygon fill="#181818" points="737,1494.1875,747,1498.1875,737,1502.1875,741,1498.1875" style="stroke:#181818;stroke-width:1.0;"/><line style="stroke:#181818;stroke-width:1.0;" x1="56" x2="743" y1="1498.1875" y2="1498.1875"/><text fill="#000000" font-family="sans-serif" font-size="20" font-weight="bold" lengthAdjust="spacing" textLength="26" x="63" y="1491.9688">28</text><text fill="#000000" font-family="sans-serif" font-size="20" lengthAdjust="spacing" textLength="201" x="93" y="1491.9688">accepts appointment</text><polygon fill="#181818" points="1123,1531.7422,1133,1535.7422,1123,1539.7422,1127,1535.7422" style="stroke:#181818;stroke-width:1.0;"/><line style="stroke:#181818;stroke-width:1.0;" x1="759" x2="1129" y1="1535.7422" y2="1535.7422"/><text fill="#000000" font-family="sans-serif" font-size="20" font-weight="bold" lengthAdjust="spacing" textLength="26" x="766" y="1529.5234">29</text><text fill="#000000" font-family="sans-serif" font-size="20" lengthAdjust="spacing" textLength="243" x="796" y="1529.5234">accept(appointmentDTO)</text><polygon fill="#181818" points="1757.5,1569.2969,1767.5,1573.2969,1757.5,1577.2969,1761.5,1573.2969" style="stroke:#181818;stroke-width:1.0;"/><line style="stroke:#181818;stroke-width:1.0;" x1="1145" x2="1763.5" y1="1573.2969" y2="1573.2969"/><text fill="#000000" font-family="sans-serif" font-size="20" font-weight="bold" lengthAdjust="spacing" textLength="26" x="1152" y="1567.0781">30</text><text fill="#000000" font-family="sans-serif" font-size="20" lengthAdjust="spacing" textLength="345" x="1182" y="1567.0781">findAppointment(appointmentDTO)</text><line style="stroke:#181818;stroke-width:1.0;" x1="1779.5" x2="1821.5" y1="1610.8516" y2="1610.8516"/><line style="stroke:#181818;stroke-width:1.0;" x1="1821.5" x2="1821.5" y1="1610.8516" y2="1623.8516"/><line style="stroke:#181818;stroke-width:1.0;" x1="1780.5" x2="1821.5" y1="1623.8516" y2="1623.8516"/><polygon fill="#181818" points="1790.5,1619.8516,1780.5,1623.8516,1790.5,1627.8516,1786.5,1623.8516" style="stroke:#181818;stroke-width:1.0;"/><text fill="#000000" font-family="sans-serif" font-size="20" font-weight="bold" lengthAdjust="spacing" textLength="26" x="1786.5" y="1604.6328">31</text><text fill="#000000" font-family="sans-serif" font-size="20" lengthAdjust="spacing" textLength="281" x="1816.5" y="1604.6328">getAppointmentRequestList()</text><path d="M953.5,1638.8516 L1044.5,1638.8516 L1044.5,1654.4063 L1034.5,1664.4063 L953.5,1664.4063 L953.5,1638.8516 " fill="#EEEEEE" style="stroke:#000000;stroke-width:1.5;"/><rect fill="none" height="119.7734" style="stroke:#000000;stroke-width:1.5;" width="1006.5" x="953.5" y="1638.8516"/><text fill="#000000" font-family="sans-serif" font-size="20" font-weight="bold" lengthAdjust="spacing" textLength="46" x="968.5" y="1659.1875">loop</text><text fill="#000000" font-family="sans-serif" font-size="20" font-weight="bold" lengthAdjust="spacing" textLength="237" x="1059.5" y="1660.1875">[for each appointment]</text><path d="M963.5,1679.9609 L1035.5,1679.9609 L1035.5,1695.5156 L1025.5,1705.5156 L963.5,1705.5156 L963.5,1679.9609 " fill="#EEEEEE" style="stroke:#000000;stroke-width:1.5;"/><rect fill="none" height="71.6641" style="stroke:#000000;stroke-width:1.5;" width="986.5" x="963.5" y="1679.9609"/><text fill="#000000" font-family="sans-serif" font-size="20" font-weight="bold" lengthAdjust="spacing" textLength="27" x="978.5" y="1700.2969">alt</text><text fill="#000000" font-family="sans-serif" font-size="20" font-weight="bold" lengthAdjust="spacing" textLength="374" x="1050.5" y="1701.2969">[if appointment = appointmentDTO]</text><polygon fill="#181818" points="1156,1739.625,1146,1743.625,1156,1747.625,1152,1743.625" style="stroke:#181818;stroke-width:1.0;"/><line style="stroke:#181818;stroke-width:1.0;stroke-dasharray:2.0,2.0;" x1="1150" x2="1768.5" y1="1743.625" y2="1743.625"/><text fill="#000000" font-family="sans-serif" font-size="20" font-weight="bold" lengthAdjust="spacing" textLength="26" x="1162" y="1737.4063">32</text><text fill="#000000" font-family="sans-serif" font-size="20" lengthAdjust="spacing" textLength="123" x="1192" y="1737.4063">appointment</text><polygon fill="#181818" points="3520,1791.1797,3530,1795.1797,3520,1799.1797,3524,1795.1797" style="stroke:#181818;stroke-width:1.0;"/><line style="stroke:#181818;stroke-width:1.0;" x1="1779.5" x2="3526" y1="1795.1797" y2="1795.1797"/><text fill="#000000" font-family="sans-serif" font-size="20" font-weight="bold" lengthAdjust="spacing" textLength="26" x="1786.5" y="1788.9609">33</text><text fill="#000000" font-family="sans-serif" font-size="20" lengthAdjust="spacing" textLength="186" x="1816.5" y="1788.9609">setStatus(accepted)</text><path d="M10,1847.1797 L82,1847.1797 L82,1862.7344 L72,1872.7344 L10,1872.7344 L10,1847.1797 " fill="#EEEEEE" style="stroke:#000000;stroke-width:1.5;"/><rect fill="none" height="541.3203" style="stroke:#000000;stroke-width:1.5;" width="3648.5" x="10" y="1847.1797"/><text fill="#000000" font-family="sans-serif" font-size="20" font-weight="bold" lengthAdjust="spacing" textLength="27" x="25" y="1867.5156">alt</text><text fill="#000000" font-family="sans-serif" font-size="20" font-weight="bold" lengthAdjust="spacing" textLength="211" x="97" y="1868.5156">[reject appointment]</text><polygon fill="#181818" points="737,1906.8438,747,1910.8438,737,1914.8438,741,1910.8438" style="stroke:#181818;stroke-width:1.0;"/><line style="stroke:#181818;stroke-width:1.0;" x1="56" x2="743" y1="1910.8438" y2="1910.8438"/><text fill="#000000" font-family="sans-serif" font-size="20" font-weight="bold" lengthAdjust="spacing" textLength="26" x="63" y="1904.625">34</text><text fill="#000000" font-family="sans-serif" font-size="20" lengthAdjust="spacing" textLength="182" x="93" y="1904.625">reject appointment</text><polygon fill="#181818" points="1123,1944.3984,1133,1948.3984,1123,1952.3984,1127,1948.3984" style="stroke:#181818;stroke-width:1.0;"/><line style="stroke:#181818;stroke-width:1.0;" x1="759" x2="1129" y1="1948.3984" y2="1948.3984"/><text fill="#000000" font-family="sans-serif" font-size="20" font-weight="bold" lengthAdjust="spacing" textLength="26" x="766" y="1942.1797">35</text><text fill="#000000" font-family="sans-serif" font-size="20" lengthAdjust="spacing" textLength="234" x="796" y="1942.1797">reject(appointmentDTO)</text><polygon fill="#181818" points="1757.5,1981.9531,1767.5,1985.9531,1757.5,1989.9531,1761.5,1985.9531" style="stroke:#181818;stroke-width:1.0;"/><line style="stroke:#181818;stroke-width:1.0;" x1="1145" x2="1763.5" y1="1985.9531" y2="1985.9531"/><text fill="#000000" font-family="sans-serif" font-size="20" font-weight="bold" lengthAdjust="spacing" textLength="26" x="1152" y="1979.7344">36</text><text fill="#000000" font-family="sans-serif" font-size="20" lengthAdjust="spacing" textLength="345" x="1182" y="1979.7344">findAppointment(appointmentDTO)</text><line style="stroke:#181818;stroke-width:1.0;" x1="1779.5" x2="1821.5" y1="2023.5078" y2="2023.5078"/><line style="stroke:#181818;stroke-width:1.0;" x1="1821.5" x2="1821.5" y1="2023.5078" y2="2036.5078"/><line style="stroke:#181818;stroke-width:1.0;" x1="1780.5" x2="1821.5" y1="2036.5078" y2="2036.5078"/><polygon fill="#181818" points="1790.5,2032.5078,1780.5,2036.5078,1790.5,2040.5078,1786.5,2036.5078" style="stroke:#181818;stroke-width:1.0;"/><text fill="#000000" font-family="sans-serif" font-size="20" font-weight="bold" lengthAdjust="spacing" textLength="26" x="1786.5" y="2017.2891">37</text><text fill="#000000" font-family="sans-serif" font-size="20" lengthAdjust="spacing" textLength="281" x="1816.5" y="2017.2891">getAppointmentRequestList()</text><path d="M953.5,2051.5078 L1044.5,2051.5078 L1044.5,2067.0625 L1034.5,2077.0625 L953.5,2077.0625 L953.5,2051.5078 " fill="#EEEEEE" style="stroke:#000000;stroke-width:1.5;"/><rect fill="none" height="119.7734" style="stroke:#000000;stroke-width:1.5;" width="1006.5" x="953.5" y="2051.5078"/><text fill="#000000" font-family="sans-serif" font-size="20" font-weight="bold" lengthAdjust="spacing" textLength="46" x="968.5" y="2071.8438">loop</text><text fill="#000000" font-family="sans-serif" font-size="20" font-weight="bold" lengthAdjust="spacing" textLength="237" x="1059.5" y="2072.8438">[for each appointment]</text><path d="M963.5,2092.6172 L1035.5,2092.6172 L1035.5,2108.1719 L1025.5,2118.1719 L963.5,2118.1719 L963.5,2092.6172 " fill="#EEEEEE" style="stroke:#000000;stroke-width:1.5;"/><rect fill="none" height="71.6641" style="stroke:#000000;stroke-width:1.5;" width="986.5" x="963.5" y="2092.6172"/><text fill="#000000" font-family="sans-serif" font-size="20" font-weight="bold" lengthAdjust="spacing" textLength="27" x="978.5" y="2112.9531">alt</text><text fill="#000000" font-family="sans-serif" font-size="20" font-weight="bold" lengthAdjust="spacing" textLength="374" x="1050.5" y="2113.9531">[if appointment = appointmentDTO]</text><polygon fill="#181818" points="1156,2152.2813,1146,2156.2813,1156,2160.2813,1152,2156.2813" style="stroke:#181818;stroke-width:1.0;"/><line style="stroke:#181818;stroke-width:1.0;stroke-dasharray:2.0,2.0;" x1="1150" x2="1768.5" y1="2156.2813" y2="2156.2813"/><text fill="#000000" font-family="sans-serif" font-size="20" font-weight="bold" lengthAdjust="spacing" textLength="26" x="1162" y="2150.0625">38</text><text fill="#000000" font-family="sans-serif" font-size="20" lengthAdjust="spacing" textLength="123" x="1192" y="2150.0625">appointment</text><polygon fill="#181818" points="3520,2203.8359,3530,2207.8359,3520,2211.8359,3524,2207.8359" style="stroke:#181818;stroke-width:1.0;"/><line style="stroke:#181818;stroke-width:1.0;" x1="1779.5" x2="3526" y1="2207.8359" y2="2207.8359"/><text fill="#000000" font-family="sans-serif" font-size="20" font-weight="bold" lengthAdjust="spacing" textLength="26" x="1786.5" y="2201.6172">39</text><text fill="#000000" font-family="sans-serif" font-size="20" lengthAdjust="spacing" textLength="177" x="1816.5" y="2201.6172">setStatus(rejected)</text><polygon fill="#181818" points="1123,2271.3906,1133,2275.3906,1123,2279.3906,1127,2275.3906" style="stroke:#181818;stroke-width:1.0;"/><line style="stroke:#181818;stroke-width:1.0;" x1="759" x2="1129" y1="2275.3906" y2="2275.3906"/><text fill="#000000" font-family="sans-serif" font-size="20" font-weight="bold" lengthAdjust="spacing" textLength="26" x="766" y="2269.1719">40</text><text fill="#000000" font-family="sans-serif" font-size="20" lengthAdjust="spacing" textLength="213" x="796" y="2269.1719">sendEmail(agent,user)</text><polygon fill="#181818" points="1757.5,2308.9453,1767.5,2312.9453,1757.5,2316.9453,1761.5,2312.9453" style="stroke:#181818;stroke-width:1.0;"/><line style="stroke:#181818;stroke-width:1.0;" x1="1145" x2="1763.5" y1="2312.9453" y2="2312.9453"/><text fill="#000000" font-family="sans-serif" font-size="20" font-weight="bold" lengthAdjust="spacing" textLength="26" x="1152" y="2306.7266">41</text><text fill="#000000" font-family="sans-serif" font-size="20" lengthAdjust="spacing" textLength="213" x="1182" y="2306.7266">sendEmail(agent,user)</text><polygon fill="#181818" points="3329,2346.5,3339,2350.5,3329,2354.5,3333,2350.5" style="stroke:#181818;stroke-width:1.0;"/><line style="stroke:#181818;stroke-width:1.0;" x1="1779.5" x2="3335" y1="2350.5" y2="2350.5"/><text fill="#000000" font-family="sans-serif" font-size="20" font-weight="bold" lengthAdjust="spacing" textLength="26" x="1786.5" y="2344.2813">42</text><text fill="#000000" font-family="sans-serif" font-size="20" lengthAdjust="spacing" textLength="213" x="1816.5" y="2344.2813">sendEmail(agent,user)</text><polygon fill="#181818" points="67,2421.0547,57,2425.0547,67,2429.0547,63,2425.0547" style="stroke:#181818;stroke-width:1.0;"/><line style="stroke:#181818;stroke-width:1.0;" x1="61" x2="748" y1="2425.0547" y2="2425.0547"/><text fill="#000000" font-family="sans-serif" font-size="20" font-weight="bold" lengthAdjust="spacing" textLength="26" x="73" y="2418.8359">43</text><text fill="#000000" font-family="sans-serif" font-size="20" lengthAdjust="spacing" textLength="251" x="103" y="2418.8359">informs operation success</text><!--SRC=[xLNBRjim4BppAuXSwXWHKFGej0QCD0KCE8ZXnwqNHbhRR6HI5QccwTTt-L14IhALjjSUB5dYxEnoEBjIJroKh6AdGcPFaDCSzgmkz1Sfz8R_0lhXFL4DX9waaDcnaYUWkgeXM2bPziGEiD4l1T0ACit4eGW1wiXo-Sp5WUvPeO0GLcifwjCZL8IyE_8Sw5vA_IX_4fPfMT6hsuA3q5UKAIf04wJHFECb4vfUfNEXde5LyxAKNEWJ0jLkOR6xnJZq5dTNoQA0oeRSRjVBJb05fLGSw-2WKWl2Dp5ctK1UlegqVN3epJO6ipRx6hxNe7GKFh-mt10-hEzYpbf1fVgHIwuqKfhRn_xgpB8j5-C5tkChg0QBSqkMQNu_N_NB6gxgy_RXV66usDQ63sFbER917bTOZmDEZ1SR4BdTrLtxPF5tz_F5SYpfO4QNRhKYn5YN_s0Qh6C9NcWoGqVI5ErZiOfgYVzPJWFoTf4vhwg02VsC14XZN3gT8bM6yHecrmGN_FkK7a0FYuwuLovhT4BCpJ2YfLECMmY5xPf1Y3Hknr-Ip2nzs0uaXmZMi6ssPwfehHncG0DkjWt_fQ0m7mOPV3ApxM2Atw7RV8YAwKs_s2lMPZmLQ-TNNddw5HYwGieIvr95iOJZq94HLcZAzxHl5MhwW7wojoQRAIDbUJxfPmjAjyrfBabJtuLE3zMnWUXe-_CfJN-cMc8pJ2wm1DbjGvkBAnS3fzEqjLoiI9_DXtRI3ktN0pi9eindjCALZbocr_qzySalZg6kQkQL4Ssb3sL_2uNNsdlvpL7MoSbijtXxYEduP8Pp9LL7-QneWH0g8_lXx0WsXzC3qJQ9WWA_ooh4TgQCtu129UnqdE0NNUWRKrrtY8HTE8AFEj5EsR48Dug3RG__xMWHTYSNQD4JqroAILb9_5ZfbnkQOzGDjIb3n7Mai6bebcLGTgIYb3PAdbaEnSJ7LpqTV1AWhO732AiflWXbtNEH1wQu6EyqnZVZOyr_4mpux7IptBt1XiCihg5DsEmqfZ0TrTwQWRHQuVdhZMQwLXEd3UJnTip759-3O_cZ9v_GxA22RsZwSmSvl7hk71tw_paEdQFJvj_ECH9xU4ICQJqUrLNuqa0AuznC-ajJUYVPBupPeHbQVW8fQgQJdKDKrTWDIaLJEIQ9PZko_0O0]--></g></svg>