<?xml version="1.0" encoding="UTF-8" standalone="no"?><svg xmlns="http://www.w3.org/2000/svg" xmlns:xlink="http://www.w3.org/1999/xlink" contentStyleType="text/css" height="904px" preserveAspectRatio="none" style="width:1432px;height:904px;background:#FFFFFF;" version="1.1" viewBox="0 0 1432 904" width="1432px" zoomAndPan="magnify"><defs/><g><!--class AnswearAppointmentController--><g id="elem_AnswearAppointmentController"><rect codeLine="11" fill="#F1F1F1" height="97.1094" id="AnswearAppointmentController" rx="2.5" ry="2.5" style="stroke:#181818;stroke-width:0.5;" width="365" x="521.5" y="117"/><ellipse cx="550.1" cy="134" fill="#ADD1B2" rx="12" ry="12" style="stroke:#181818;stroke-width:1.0;"/><path d="M552.9066,141.0801 Q552.223,141.4316 551.4711,141.6074 Q550.7191,141.7832 549.8891,141.7832 Q546.9398,141.7832 545.3871,139.8398 Q543.8344,137.8965 543.8344,134.2246 Q543.8344,130.543 545.3871,128.5996 Q546.9398,126.6563 549.8891,126.6563 Q550.7191,126.6563 551.4809,126.832 Q552.2426,127.0078 552.9066,127.3594 L552.9066,130.5625 Q552.1645,129.8789 551.4662,129.5615 Q550.768,129.2441 550.0258,129.2441 Q548.4438,129.2441 547.6381,130.499 Q546.8324,131.7539 546.8324,134.2246 Q546.8324,136.6855 547.6381,137.9404 Q548.4438,139.1953 550.0258,139.1953 Q550.768,139.1953 551.4662,138.8779 Q552.1645,138.5605 552.9066,137.877 Z " fill="#000000"/><text fill="#000000" font-family="sans-serif" font-size="20" lengthAdjust="spacing" textLength="303" x="567.9" y="141.5586">AnswearAppointmentController</text><line style="stroke:#181818;stroke-width:0.5;" x1="522.5" x2="885.5" y1="151" y2="151"/><line style="stroke:#181818;stroke-width:0.5;" x1="522.5" x2="885.5" y1="159" y2="159"/><text fill="#000000" font-family="sans-serif" font-size="20" lengthAdjust="spacing" textLength="297" x="527.5" y="182.3359">+getAppointmentRequestList()</text><text fill="#000000" font-family="sans-serif" font-size="20" lengthAdjust="spacing" textLength="353" x="527.5" y="205.8906">+sendEmail(Agent agent,Client user)</text></g><!--class Repositories--><g id="elem_Repositories"><rect codeLine="17" fill="#F1F1F1" height="144.2188" id="Repositories" rx="2.5" ry="2.5" style="stroke:#181818;stroke-width:0.5;" width="626" x="7" y="274"/><ellipse cx="256" cy="291" fill="#ADD1B2" rx="12" ry="12" style="stroke:#181818;stroke-width:1.0;"/><path d="M258.8066,298.0801 Q258.123,298.4316 257.3711,298.6074 Q256.6191,298.7832 255.7891,298.7832 Q252.8398,298.7832 251.2871,296.8398 Q249.7344,294.8965 249.7344,291.2246 Q249.7344,287.543 251.2871,285.5996 Q252.8398,283.6563 255.7891,283.6563 Q256.6191,283.6563 257.3809,283.832 Q258.1426,284.0078 258.8066,284.3594 L258.8066,287.5625 Q258.0645,286.8789 257.3662,286.5615 Q256.668,286.2441 255.9258,286.2441 Q254.3438,286.2441 253.5381,287.499 Q252.7324,288.7539 252.7324,291.2246 Q252.7324,293.6855 253.5381,294.9404 Q254.3438,296.1953 255.9258,296.1953 Q256.668,296.1953 257.3662,295.8779 Q258.0645,295.5605 258.8066,294.877 Z " fill="#000000"/><text fill="#000000" font-family="sans-serif" font-size="20" lengthAdjust="spacing" textLength="119" x="278" y="298.5586">Repositories</text><line style="stroke:#181818;stroke-width:0.5;" x1="8" x2="632" y1="308" y2="308"/><line style="stroke:#181818;stroke-width:0.5;" x1="8" x2="632" y1="316" y2="316"/><text fill="#000000" font-family="sans-serif" font-size="20" lengthAdjust="spacing" textLength="145" x="13" y="339.3359">-Repositories()</text><text fill="#000000" font-family="sans-serif" font-size="20" lengthAdjust="spacing" textLength="139" x="13" y="362.8906">+getInstance()</text><text fill="#000000" font-family="sans-serif" font-size="20" lengthAdjust="spacing" textLength="365" x="13" y="386.4453">+getAppointmentRequestRepository()</text><text fill="#000000" font-family="sans-serif" font-size="20" lengthAdjust="spacing" textLength="614" x="13" y="410">+findAppointment(AppointmentRequestDTO appointmentDTO)</text></g><!--class AppointmentRequestRepository--><g id="elem_AppointmentRequestRepository"><rect codeLine="24" fill="#F1F1F1" height="144.2188" id="AppointmentRequestRepository" rx="2.5" ry="2.5" style="stroke:#181818;stroke-width:0.5;" width="365" x="329.5" y="490"/><ellipse cx="357.2" cy="507" fill="#ADD1B2" rx="12" ry="12" style="stroke:#181818;stroke-width:1.0;"/><path d="M360.0066,514.0801 Q359.323,514.4316 358.5711,514.6074 Q357.8191,514.7832 356.9891,514.7832 Q354.0398,514.7832 352.4871,512.8398 Q350.9344,510.8965 350.9344,507.2246 Q350.9344,503.543 352.4871,501.5996 Q354.0398,499.6563 356.9891,499.6563 Q357.8191,499.6563 358.5809,499.832 Q359.3426,500.0078 360.0066,500.3594 L360.0066,503.5625 Q359.2645,502.8789 358.5662,502.5615 Q357.868,502.2441 357.1258,502.2441 Q355.5438,502.2441 354.7381,503.499 Q353.9324,504.7539 353.9324,507.2246 Q353.9324,509.6855 354.7381,510.9404 Q355.5438,512.1953 357.1258,512.1953 Q357.868,512.1953 358.5662,511.8779 Q359.2645,511.5605 360.0066,510.877 Z " fill="#000000"/><text fill="#000000" font-family="sans-serif" font-size="20" lengthAdjust="spacing" textLength="305" x="374.8" y="514.5586">AppointmentRequestRepository</text><line style="stroke:#181818;stroke-width:0.5;" x1="330.5" x2="693.5" y1="524" y2="524"/><text fill="#000000" font-family="sans-serif" font-size="20" lengthAdjust="spacing" textLength="300" x="335.5" y="547.3359">-usersAppointmentRequestList</text><line style="stroke:#181818;stroke-width:0.5;" x1="330.5" x2="693.5" y1="555.5547" y2="555.5547"/><text fill="#000000" font-family="sans-serif" font-size="20" lengthAdjust="spacing" textLength="190" x="335.5" y="578.8906">+getUserRequests()</text><text fill="#000000" font-family="sans-serif" font-size="20" lengthAdjust="spacing" textLength="269" x="335.5" y="602.4453">-getAppointmentRequests()</text><text fill="#000000" font-family="sans-serif" font-size="20" lengthAdjust="spacing" textLength="353" x="335.5" y="626">+sendEmail(Agent agent,Client user)</text></g><!--class AppointmentRequest--><g id="elem_AppointmentRequest"><rect codeLine="33" fill="#F1F1F1" height="191.3281" id="AppointmentRequest" rx="2.5" ry="2.5" style="stroke:#181818;stroke-width:0.5;" width="237" x="225.5" y="706"/><ellipse cx="241.5" cy="723" fill="#ADD1B2" rx="12" ry="12" style="stroke:#181818;stroke-width:1.0;"/><path d="M244.3066,730.0801 Q243.623,730.4316 242.8711,730.6074 Q242.1191,730.7832 241.2891,730.7832 Q238.3398,730.7832 236.7871,728.8398 Q235.2344,726.8965 235.2344,723.2246 Q235.2344,719.543 236.7871,717.5996 Q238.3398,715.6563 241.2891,715.6563 Q242.1191,715.6563 242.8809,715.832 Q243.6426,716.0078 244.3066,716.3594 L244.3066,719.5625 Q243.5645,718.8789 242.8662,718.5615 Q242.168,718.2441 241.4258,718.2441 Q239.8438,718.2441 239.0381,719.499 Q238.2324,720.7539 238.2324,723.2246 Q238.2324,725.6855 239.0381,726.9404 Q239.8438,728.1953 241.4258,728.1953 Q242.168,728.1953 242.8662,727.8779 Q243.5645,727.5605 244.3066,726.877 Z " fill="#000000"/><text fill="#000000" font-family="sans-serif" font-size="20" lengthAdjust="spacing" textLength="203" x="256.5" y="730.5586">AppointmentRequest</text><line style="stroke:#181818;stroke-width:0.5;" x1="226.5" x2="461.5" y1="740" y2="740"/><text fill="#000000" font-family="sans-serif" font-size="20" lengthAdjust="spacing" textLength="65" x="231.5" y="763.3359">-agent</text><text fill="#000000" font-family="sans-serif" font-size="20" lengthAdjust="spacing" textLength="54" x="231.5" y="786.8906">-date</text><text fill="#000000" font-family="sans-serif" font-size="20" lengthAdjust="spacing" textLength="153" x="231.5" y="810.4453">-announcement</text><text fill="#000000" font-family="sans-serif" font-size="20" lengthAdjust="spacing" textLength="69" x="231.5" y="834">-status</text><text fill="#000000" font-family="sans-serif" font-size="20" lengthAdjust="spacing" textLength="68" x="231.5" y="857.5547">-Client</text><line style="stroke:#181818;stroke-width:0.5;" x1="226.5" x2="461.5" y1="865.7734" y2="865.7734"/><text fill="#000000" font-family="sans-serif" font-size="20" lengthAdjust="spacing" textLength="116" x="231.5" y="889.1094">+setStatus()</text></g><!--class EmailSender--><g id="elem_EmailSender"><rect codeLine="42" fill="#F1F1F1" height="73.5547" id="EmailSender" rx="2.5" ry="2.5" style="stroke:#181818;stroke-width:0.5;" width="365" x="497.5" y="764.5"/><ellipse cx="616" cy="781.5" fill="#ADD1B2" rx="12" ry="12" style="stroke:#181818;stroke-width:1.0;"/><path d="M618.8066,788.5801 Q618.123,788.9316 617.3711,789.1074 Q616.6191,789.2832 615.7891,789.2832 Q612.8398,789.2832 611.2871,787.3398 Q609.7344,785.3965 609.7344,781.7246 Q609.7344,778.043 611.2871,776.0996 Q612.8398,774.1563 615.7891,774.1563 Q616.6191,774.1563 617.3809,774.332 Q618.1426,774.5078 618.8066,774.8594 L618.8066,778.0625 Q618.0645,777.3789 617.3662,777.0615 Q616.668,776.7441 615.9258,776.7441 Q614.3438,776.7441 613.5381,777.999 Q612.7324,779.2539 612.7324,781.7246 Q612.7324,784.1855 613.5381,785.4404 Q614.3438,786.6953 615.9258,786.6953 Q616.668,786.6953 617.3662,786.3779 Q618.0645,786.0605 618.8066,785.377 Z " fill="#000000"/><text fill="#000000" font-family="sans-serif" font-size="20" lengthAdjust="spacing" textLength="119" x="638" y="789.0586">EmailSender</text><line style="stroke:#181818;stroke-width:0.5;" x1="498.5" x2="861.5" y1="798.5" y2="798.5"/><line style="stroke:#181818;stroke-width:0.5;" x1="498.5" x2="861.5" y1="806.5" y2="806.5"/><text fill="#000000" font-family="sans-serif" font-size="20" lengthAdjust="spacing" textLength="353" x="503.5" y="829.8359">+sendEmail(Agent agent,Client user)</text></g><!--class AnswearAppointmentUI--><g id="elem_AnswearAppointmentUI"><rect codeLine="46" fill="#F1F1F1" height="50" id="AnswearAppointmentUI" rx="2.5" ry="2.5" style="stroke:#181818;stroke-width:0.5;" width="261" x="573.5" y="7"/><ellipse cx="589.5" cy="24" fill="#ADD1B2" rx="12" ry="12" style="stroke:#181818;stroke-width:1.0;"/><path d="M592.3066,31.0801 Q591.623,31.4316 590.8711,31.6074 Q590.1191,31.7832 589.2891,31.7832 Q586.3398,31.7832 584.7871,29.8398 Q583.2344,27.8965 583.2344,24.2246 Q583.2344,20.543 584.7871,18.5996 Q586.3398,16.6563 589.2891,16.6563 Q590.1191,16.6563 590.8809,16.832 Q591.6426,17.0078 592.3066,17.3594 L592.3066,20.5625 Q591.5645,19.8789 590.8662,19.5615 Q590.168,19.2441 589.4258,19.2441 Q587.8438,19.2441 587.0381,20.499 Q586.2324,21.7539 586.2324,24.2246 Q586.2324,26.6855 587.0381,27.9404 Q587.8438,29.1953 589.4258,29.1953 Q590.168,29.1953 590.8662,28.8779 Q591.5645,28.5605 592.3066,27.877 Z " fill="#000000"/><text fill="#000000" font-family="sans-serif" font-size="20" lengthAdjust="spacing" textLength="227" x="604.5" y="31.5586">AnswearAppointmentUI</text><line style="stroke:#181818;stroke-width:0.5;" x1="574.5" x2="833.5" y1="41" y2="41"/><line style="stroke:#181818;stroke-width:0.5;" x1="574.5" x2="833.5" y1="49" y2="49"/></g><!--class AppointmentRequestDTO--><g id="elem_AppointmentRequestDTO"><rect codeLine="49" fill="#F1F1F1" height="167.7734" id="AppointmentRequestDTO" rx="2.5" ry="2.5" style="stroke:#181818;stroke-width:0.5;" width="281" x="950.5" y="478"/><ellipse cx="966.5" cy="495" fill="#ADD1B2" rx="12" ry="12" style="stroke:#181818;stroke-width:1.0;"/><path d="M969.3066,502.0801 Q968.623,502.4316 967.8711,502.6074 Q967.1191,502.7832 966.2891,502.7832 Q963.3398,502.7832 961.7871,500.8398 Q960.2344,498.8965 960.2344,495.2246 Q960.2344,491.543 961.7871,489.5996 Q963.3398,487.6563 966.2891,487.6563 Q967.1191,487.6563 967.8809,487.832 Q968.6426,488.0078 969.3066,488.3594 L969.3066,491.5625 Q968.5645,490.8789 967.8662,490.5615 Q967.168,490.2441 966.4258,490.2441 Q964.8438,490.2441 964.0381,491.499 Q963.2324,492.7539 963.2324,495.2246 Q963.2324,497.6855 964.0381,498.9404 Q964.8438,500.1953 966.4258,500.1953 Q967.168,500.1953 967.8662,499.8779 Q968.5645,499.5605 969.3066,498.877 Z " fill="#000000"/><text fill="#000000" font-family="sans-serif" font-size="20" lengthAdjust="spacing" textLength="247" x="981.5" y="502.5586">AppointmentRequestDTO</text><line style="stroke:#181818;stroke-width:0.5;" x1="951.5" x2="1230.5" y1="512" y2="512"/><text fill="#000000" font-family="sans-serif" font-size="20" lengthAdjust="spacing" textLength="65" x="956.5" y="535.3359">-agent</text><text fill="#000000" font-family="sans-serif" font-size="20" lengthAdjust="spacing" textLength="54" x="956.5" y="558.8906">-date</text><text fill="#000000" font-family="sans-serif" font-size="20" lengthAdjust="spacing" textLength="153" x="956.5" y="582.4453">-announcement</text><text fill="#000000" font-family="sans-serif" font-size="20" lengthAdjust="spacing" textLength="69" x="956.5" y="606">-status</text><text fill="#000000" font-family="sans-serif" font-size="20" lengthAdjust="spacing" textLength="68" x="956.5" y="629.5547">-Client</text><line style="stroke:#181818;stroke-width:0.5;" x1="951.5" x2="1230.5" y1="637.7734" y2="637.7734"/></g><!--class AppointmentRequestMapper--><g id="elem_AppointmentRequestMapper"><rect codeLine="57" fill="#F1F1F1" height="120.6641" id="AppointmentRequestMapper" rx="2.5" ry="2.5" style="stroke:#181818;stroke-width:0.5;" width="668" x="757" y="285.5"/><ellipse cx="948.5" cy="302.5" fill="#ADD1B2" rx="12" ry="12" style="stroke:#181818;stroke-width:1.0;"/><path d="M951.3066,309.5801 Q950.623,309.9316 949.8711,310.1074 Q949.1191,310.2832 948.2891,310.2832 Q945.3398,310.2832 943.7871,308.3398 Q942.2344,306.3965 942.2344,302.7246 Q942.2344,299.043 943.7871,297.0996 Q945.3398,295.1563 948.2891,295.1563 Q949.1191,295.1563 949.8809,295.332 Q950.6426,295.5078 951.3066,295.8594 L951.3066,299.0625 Q950.5645,298.3789 949.8662,298.0615 Q949.168,297.7441 948.4258,297.7441 Q946.8438,297.7441 946.0381,298.999 Q945.2324,300.2539 945.2324,302.7246 Q945.2324,305.1855 946.0381,306.4404 Q946.8438,307.6953 948.4258,307.6953 Q949.168,307.6953 949.8662,307.3779 Q950.5645,307.0605 951.3066,306.377 Z " fill="#000000"/><text fill="#000000" font-family="sans-serif" font-size="20" lengthAdjust="spacing" textLength="276" x="970.5" y="310.0586">AppointmentRequestMapper</text><line style="stroke:#181818;stroke-width:0.5;" x1="758" x2="1424" y1="319.5" y2="319.5"/><text fill="#000000" font-family="sans-serif" font-size="20" lengthAdjust="spacing" textLength="344" x="763" y="342.8359">-usersAppointmentRequestListDTO</text><line style="stroke:#181818;stroke-width:0.5;" x1="758" x2="1424" y1="351.0547" y2="351.0547"/><text fill="#000000" font-family="sans-serif" font-size="20" lengthAdjust="spacing" textLength="656" x="763" y="374.3906">+toDTO(List&lt;AppointmentRequest&gt; usersAppointmentRequestList)</text><text fill="#000000" font-family="sans-serif" font-size="20" lengthAdjust="spacing" textLength="498" x="763" y="397.9453">-toDTO(AppointmentRequest appointmentRequest)</text></g><!--link AnswearAppointmentUI to AnswearAppointmentController--><g id="link_AnswearAppointmentUI_AnswearAppointmentController"><path codeLine="66" d="M704,57.12 C704,72.37 704,92.69 704,111.55 " fill="none" id="AnswearAppointmentUI-to-AnswearAppointmentController" style="stroke:#181818;stroke-width:1.0;stroke-dasharray:7.0,7.0;"/><polygon fill="#181818" points="704,116.83,708,107.83,704,111.83,700,107.83,704,116.83" style="stroke:#181818;stroke-width:1.0;"/></g><!--link AnswearAppointmentController to Repositories--><g id="link_AnswearAppointmentController_Repositories"><path codeLine="67" d="M601.6,214.1 C563.55,231.79 519.45,252.29 477.6,271.74 " fill="none" id="AnswearAppointmentController-to-Repositories" style="stroke:#181818;stroke-width:1.0;stroke-dasharray:7.0,7.0;"/><polygon fill="#181818" points="473.03,273.86,482.8772,273.6771,477.5606,271.7448,479.4928,266.4282,473.03,273.86" style="stroke:#181818;stroke-width:1.0;"/></g><!--link Repositories to AppointmentRequestRepository--><g id="link_Repositories_AppointmentRequestRepository"><path codeLine="68" d="M383.93,418.26 C403.42,439.98 424.91,463.93 444.62,485.9 " fill="none" id="Repositories-to-AppointmentRequestRepository" style="stroke:#181818;stroke-width:1.0;"/><polygon fill="#181818" points="448.02,489.69,444.9924,480.318,444.6831,485.9664,439.0347,485.6571,448.02,489.69" style="stroke:#181818;stroke-width:1.0;"/></g><!--link AppointmentRequestRepository to AppointmentRequest--><g id="link_AppointmentRequestRepository_AppointmentRequest"><path codeLine="70" d="M461.59,634.26 C446.58,655.48 429.85,679.13 413.83,701.78 " fill="none" id="AppointmentRequestRepository-to-AppointmentRequest" style="stroke:#181818;stroke-width:1.0;"/><polygon fill="#181818" points="410.85,705.99,419.3094,700.9463,413.7345,701.906,412.7749,696.3311,410.85,705.99" style="stroke:#181818;stroke-width:1.0;"/></g><!--link Repositories to Repositories--><g id="link_Repositories_Repositories"><path codeLine="71" d="M633.19,321.43 C654.83,327.06 668,335.25 668,346 C668,355.91 656.81,363.65 638.1,369.2 " fill="none" id="Repositories-to-Repositories" style="stroke:#181818;stroke-width:1.0;"/><polygon fill="#181818" points="633.19,370.57,642.9338,372.0048,638.0062,369.2266,640.7844,364.299,633.19,370.57" style="stroke:#181818;stroke-width:1.0;"/></g><!--link AnswearAppointmentController to AppointmentRequestRepository--><g id="link_AnswearAppointmentController_AppointmentRequestRepository"><path codeLine="74" d="M697.19,214.1 C686.75,287.01 668,418 668,418 C668,418 631.41,451.54 593.67,486.13 " fill="none" id="AnswearAppointmentController-to-AppointmentRequestRepository" style="stroke:#181818;stroke-width:1.0;stroke-dasharray:7.0,7.0;"/><polygon fill="#181818" points="589.54,489.92,598.8806,486.7969,593.2293,486.5453,593.481,480.894,589.54,489.92" style="stroke:#181818;stroke-width:1.0;"/></g><!--link AnswearAppointmentController to AppointmentRequestMapper--><g id="link_AnswearAppointmentController_AppointmentRequestMapper"><path codeLine="75" d="M807.2,214.1 C853.19,235.31 907.94,260.57 957.04,283.21 " fill="none" id="AnswearAppointmentController-to-AppointmentRequestMapper" style="stroke:#181818;stroke-width:1.0;stroke-dasharray:7.0,7.0;"/><polygon fill="#181818" points="961.77,285.39,955.2598,277.9996,957.226,283.3038,951.9219,285.27,961.77,285.39" style="stroke:#181818;stroke-width:1.0;"/></g><!--link AppointmentRequestMapper to AppointmentRequestDTO--><g id="link_AppointmentRequestMapper_AppointmentRequestDTO"><path codeLine="76" d="M1091,406.61 C1091,427.08 1091,450.44 1091,472.69 " fill="none" id="AppointmentRequestMapper-to-AppointmentRequestDTO" style="stroke:#181818;stroke-width:1.0;stroke-dasharray:7.0,7.0;"/><polygon fill="#181818" points="1091,477.72,1095,468.72,1091,472.72,1087,468.72,1091,477.72" style="stroke:#181818;stroke-width:1.0;"/></g><!--link AppointmentRequestRepository to EmailSender--><g id="link_AppointmentRequestRepository_EmailSender"><path codeLine="77" d="M562.41,634.26 C591.57,675.49 627.2,725.86 651.55,760.28 " fill="none" id="AppointmentRequestRepository-to-EmailSender" style="stroke:#181818;stroke-width:1.0;stroke-dasharray:7.0,7.0;"/><polygon fill="#181818" points="654.46,764.39,652.5351,754.7311,651.5755,760.306,646.0006,759.3463,654.46,764.39" style="stroke:#181818;stroke-width:1.0;"/></g><!--SRC=[bLF1Rjim3BtpAtIhYyn5qVCG8EWs8C2A0itw0QhDE49aqPLe55cmVozb9wswE4ARWmFowP5FZrJO6jTfhrjBrHPhLUDQzvP_aUEL-OlgvXekml6CQibHjV7KecBV8xmZdQwski4LxomgZnLhrzZqGDZecbwCQzHQsv0YrZZaNOUg8xkBGThn3IJF10chiZg41RCtJptZiY8twBq6kB2uPiMal6ash6eJvHXo00D7BLnuGUqNNKV6SOkER-Msdgn5h_OmQv0Jx06VUmpysmGkBc4MqDK_MsriiMW4LJf-lzrQ4uC-eB-4Vt3iz80T1SFa3OOzAFcL7t9IC2PdIbekNH3FAanpfpBUsBlZkRLnTNAkEENy-7Elz7jMma7ZmOnCYz6BHxdK0Og2oqbTuPFUbF4lJDix67TMrXxAeHwKjMQKm3dgnQzso8btt0SensPH2g-6L97STT2s4f7ezv-TvBcLULpAgcHS59U_f3XJwaw6DoXcagf5jEhxwQcvobWhne_aKpXTZKCgFoOfCquA9bsvkffdNnXadrzafoy4qg0ivxbr5K4PT9ByV_aFhI4hLPHcnNoPEuuPpW6Jd3YBd0eX9KiFy0e0]--></g></svg>