<?xml version="1.0" encoding="UTF-8" standalone="no"?><svg xmlns="http://www.w3.org/2000/svg" xmlns:xlink="http://www.w3.org/1999/xlink" contentStyleType="text/css" height="485px" preserveAspectRatio="none" style="width:893px;height:485px;background:#FFFFFF;" version="1.1" viewBox="0 0 893 485" width="893px" zoomAndPan="magnify"><defs/><g><text fill="#000000" font-family="sans-serif" font-size="14" font-weight="bold" lengthAdjust="spacing" textLength="295" x="301" y="28.5352">US007 - System Sequence Diagram (SSD)</text><rect fill="#FFFFFF" height="252.3281" style="stroke:#181818;stroke-width:1.0;" width="10" x="105" y="136.043"/><rect fill="#FFFFFF" height="37.5547" style="stroke:#181818;stroke-width:1.0;" width="10" x="683" y="165.5977"/><rect fill="#FFFFFF" height="138.6641" style="stroke:#181818;stroke-width:1.0;" width="10" x="683" y="240.707"/><line style="stroke:#181818;stroke-width:0.5;stroke-dasharray:5.0,5.0;" x1="110" x2="110" y1="126.043" y2="397.3711"/><line style="stroke:#181818;stroke-width:0.5;stroke-dasharray:5.0,5.0;" x1="688" x2="688" y1="126.043" y2="397.3711"/><text fill="#000000" font-family="sans-serif" font-size="20" lengthAdjust="spacing" textLength="204" x="5" y="121.8242">System administrator</text><ellipse cx="110" cy="50.9883" fill="#E3E3E3" rx="8" ry="8" style="stroke:#181818;stroke-width:0.5;"/><path d="M110,58.9883 L110,85.9883 M97,66.9883 L123,66.9883 M110,85.9883 L97,100.9883 M110,85.9883 L123,100.9883 " fill="none" style="stroke:#181818;stroke-width:0.5;"/><text fill="#000000" font-family="sans-serif" font-size="20" lengthAdjust="spacing" textLength="204" x="5" y="415.707">System administrator</text><ellipse cx="110" cy="428.4258" fill="#E3E3E3" rx="8" ry="8" style="stroke:#181818;stroke-width:0.5;"/><path d="M110,436.4258 L110,463.4258 M97,444.4258 L123,444.4258 M110,463.4258 L97,478.4258 M110,463.4258 L123,478.4258 " fill="none" style="stroke:#181818;stroke-width:0.5;"/><rect fill="#E3E3E3" height="37.5547" rx="2.5" ry="2.5" style="stroke:#181818;stroke-width:0.5;" width="88" x="644" y="87.4883"/><text fill="#000000" font-family="sans-serif" font-size="20" lengthAdjust="spacing" textLength="74" x="651" y="113.8242">:System</text><rect fill="#E3E3E3" height="37.5547" rx="2.5" ry="2.5" style="stroke:#181818;stroke-width:0.5;" width="88" x="644" y="396.3711"/><text fill="#000000" font-family="sans-serif" font-size="20" lengthAdjust="spacing" textLength="74" x="651" y="422.707">:System</text><rect fill="#FFFFFF" height="252.3281" style="stroke:#181818;stroke-width:1.0;" width="10" x="105" y="136.043"/><rect fill="#FFFFFF" height="37.5547" style="stroke:#181818;stroke-width:1.0;" width="10" x="683" y="165.5977"/><rect fill="#FFFFFF" height="138.6641" style="stroke:#181818;stroke-width:1.0;" width="10" x="683" y="240.707"/><polygon fill="#181818" points="671,161.5977,681,165.5977,671,169.5977,675,165.5977" style="stroke:#181818;stroke-width:1.0;"/><line style="stroke:#181818;stroke-width:1.0;" x1="115" x2="677" y1="165.5977" y2="165.5977"/><text fill="#000000" font-family="sans-serif" font-size="20" font-weight="bold" lengthAdjust="spacing" textLength="13" x="122" y="159.3789">1</text><text fill="#000000" font-family="sans-serif" font-size="20" lengthAdjust="spacing" textLength="280" x="139" y="159.3789">asks to register in the system</text><polygon fill="#181818" points="126,199.1523,116,203.1523,126,207.1523,122,203.1523" style="stroke:#181818;stroke-width:1.0;"/><line style="stroke:#181818;stroke-width:1.0;stroke-dasharray:2.0,2.0;" x1="120" x2="687" y1="203.1523" y2="203.1523"/><text fill="#000000" font-family="sans-serif" font-size="20" font-weight="bold" lengthAdjust="spacing" textLength="13" x="132" y="196.9336">2</text><text fill="#000000" font-family="sans-serif" font-size="20" lengthAdjust="spacing" textLength="422" x="149" y="196.9336">shows a registration form and requests data</text><polygon fill="#181818" points="671,236.707,681,240.707,671,244.707,675,240.707" style="stroke:#181818;stroke-width:1.0;"/><line style="stroke:#181818;stroke-width:1.0;" x1="115" x2="677" y1="240.707" y2="240.707"/><text fill="#000000" font-family="sans-serif" font-size="20" font-weight="bold" lengthAdjust="spacing" textLength="13" x="122" y="234.4883">3</text><text fill="#000000" font-family="sans-serif" font-size="20" lengthAdjust="spacing" textLength="532" x="139" y="234.4883">types the data(Name, email and password) and confirm</text><line style="stroke:#181818;stroke-width:1.0;" x1="693" x2="735" y1="278.2617" y2="278.2617"/><line style="stroke:#181818;stroke-width:1.0;" x1="735" x2="735" y1="278.2617" y2="291.2617"/><line style="stroke:#181818;stroke-width:1.0;" x1="694" x2="735" y1="291.2617" y2="291.2617"/><polygon fill="#181818" points="704,287.2617,694,291.2617,704,295.2617,700,291.2617" style="stroke:#181818;stroke-width:1.0;"/><text fill="#000000" font-family="sans-serif" font-size="20" font-weight="bold" lengthAdjust="spacing" textLength="13" x="700" y="272.043">4</text><text fill="#000000" font-family="sans-serif" font-size="20" lengthAdjust="spacing" textLength="169" x="717" y="272.043">validates the data</text><line style="stroke:#181818;stroke-width:1.0;" x1="693" x2="735" y1="328.8164" y2="328.8164"/><line style="stroke:#181818;stroke-width:1.0;" x1="735" x2="735" y1="328.8164" y2="341.8164"/><line style="stroke:#181818;stroke-width:1.0;" x1="694" x2="735" y1="341.8164" y2="341.8164"/><polygon fill="#181818" points="704,337.8164,694,341.8164,704,345.8164,700,341.8164" style="stroke:#181818;stroke-width:1.0;"/><text fill="#000000" font-family="sans-serif" font-size="20" font-weight="bold" lengthAdjust="spacing" textLength="13" x="700" y="322.5977">5</text><text fill="#000000" font-family="sans-serif" font-size="20" lengthAdjust="spacing" textLength="87" x="717" y="322.5977">Add user</text><polygon fill="#181818" points="126,375.3711,116,379.3711,126,383.3711,122,379.3711" style="stroke:#181818;stroke-width:1.0;"/><line style="stroke:#181818;stroke-width:1.0;stroke-dasharray:2.0,2.0;" x1="120" x2="687" y1="379.3711" y2="379.3711"/><text fill="#000000" font-family="sans-serif" font-size="20" font-weight="bold" lengthAdjust="spacing" textLength="13" x="132" y="373.1523">6</text><text fill="#000000" font-family="sans-serif" font-size="20" lengthAdjust="spacing" textLength="236" x="149" y="373.1523">Show a success message</text><!--SRC=[XPB1QiCm38RlVWhHKmiBb5q6EHG6PSTTmXv0ivNK9BOpIsdfddwAqux20iiXSQHVdtufuTx74JE68TcU73XgSHhaBKLf_3V1yzxmNG8XnMHFEGK2oHCzP4QqFNRKo7KWo6G5OpSy2lY4BbryxA35WSaOyQBIZsQ_Vu4AcYiB1MZeQw9e2OuUkxbispJ7dS59Kfp29sLZq4hAiBaLe0i-UfQC6jq0yX8nsbIyzID6WKszY4jwEHQCFwFGJMz0htA4wd1tKsj1po199-gq2MNGl9m8UA6KeZleJfw3Dq2bh0AjTVvqKNCtajhrAKARieuGdKPrRXO6Xu9cOJXQHVyrATUHkDYQgxVl6EW9AA0V2dj4valARbVUR8gjp_zQhmxBiuOp3bwv3nrMPQ_EmSJp1ohfjIMerKQte4lWoLfYXg0t_Mj-ArP6_W40]--></g></svg>