<?xml version="1.0" encoding="UTF-8" standalone="no"?><svg xmlns="http://www.w3.org/2000/svg" xmlns:xlink="http://www.w3.org/1999/xlink" contentStyleType="text/css" height="1629px" preserveAspectRatio="none" style="width:2562px;height:1629px;background:#FFFFFF;" version="1.1" viewBox="0 0 2562 1629" width="2562px" zoomAndPan="magnify"><defs/><g><text fill="#000000" font-family="sans-serif" font-size="14" font-weight="bold" lengthAdjust="spacing" textLength="295" x="1132.75" y="28.5352">US016 - System Sequence Diagram (SSD)</text><rect fill="#FFFFFF" height="1396.3047" style="stroke:#181818;stroke-width:1.0;" width="10" x="31" y="136.043"/><rect fill="#FFFFFF" height="418.1016" style="stroke:#181818;stroke-width:1.0;" width="10" x="571" y="136.043"/><rect fill="#FFFFFF" height="30" style="stroke:#181818;stroke-width:1.0;" width="10" x="571" y="639.8086"/><rect fill="#FFFFFF" height="67.5547" style="stroke:#181818;stroke-width:1.0;" width="10" x="571" y="1455.793"/><rect fill="#FFFFFF" height="135.1094" style="stroke:#181818;stroke-width:1.0;" width="10" x="931" y="419.0352"/><rect fill="#FFFFFF" height="239.6641" style="stroke:#181818;stroke-width:1.0;" width="10" x="931" y="639.8086"/><rect fill="#FFFFFF" height="37.5547" style="stroke:#181818;stroke-width:1.0;" width="10" x="931" y="992.1367"/><rect fill="#FFFFFF" height="380.9922" style="stroke:#181818;stroke-width:1.0;" width="10" x="931" y="1104.8008"/><rect fill="#FFFFFF" height="30" style="stroke:#181818;stroke-width:1.0;" width="10" x="1921" y="456.5898"/><rect fill="#FFFFFF" height="30" style="stroke:#181818;stroke-width:1.0;" width="10" x="1921" y="707.3633"/><rect fill="#FFFFFF" height="142.6641" style="stroke:#181818;stroke-width:1.0;" width="10" x="1921" y="849.4727"/><rect fill="#FFFFFF" height="112.6641" style="stroke:#181818;stroke-width:1.0;" width="10" x="1921" y="1179.9102"/><rect fill="#FFFFFF" height="37.5547" style="stroke:#181818;stroke-width:1.0;" width="10" x="2054.5" y="1380.6836"/><rect fill="#FFFFFF" height="37.5547" style="stroke:#181818;stroke-width:1.0;" width="10" x="2156.5" y="917.0273"/><rect fill="#FFFFFF" height="30" style="stroke:#181818;stroke-width:1.0;" width="10" x="2324.5" y="524.1445"/><rect fill="#FFFFFF" height="30" style="stroke:#181818;stroke-width:1.0;" width="10" x="2324.5" y="774.918"/><rect fill="#FFFFFF" height="112.6641" style="stroke:#181818;stroke-width:1.0;" width="10" x="2324.5" y="1029.6914"/><rect fill="#FFFFFF" height="37.5547" style="stroke:#181818;stroke-width:1.0;" width="10" x="2504.5" y="1067.2461"/><rect fill="none" height="206.7734" style="stroke:#000000;stroke-width:1.5;" width="2023" x="439.5" y="355.3711"/><rect fill="none" height="236.7734" style="stroke:#000000;stroke-width:1.5;" width="2023" x="439.5" y="576.1445"/><line style="stroke:#181818;stroke-width:0.5;stroke-dasharray:5.0,5.0;" x1="36" x2="36" y1="126.043" y2="1541.3477"/><line style="stroke:#181818;stroke-width:0.5;stroke-dasharray:5.0,5.0;" x1="575.5" x2="575.5" y1="126.043" y2="1541.3477"/><line style="stroke:#181818;stroke-width:0.5;stroke-dasharray:5.0,5.0;" x1="935.5" x2="935.5" y1="126.043" y2="1541.3477"/><line style="stroke:#181818;stroke-width:0.5;stroke-dasharray:5.0,5.0;" x1="1635.5" x2="1635.5" y1="126.043" y2="1541.3477"/><line style="stroke:#181818;stroke-width:0.5;stroke-dasharray:5.0,5.0;" x1="1782.5" x2="1782.5" y1="126.043" y2="1541.3477"/><line style="stroke:#181818;stroke-width:0.5;stroke-dasharray:5.0,5.0;" x1="1925.5" x2="1925.5" y1="126.043" y2="1541.3477"/><line style="stroke:#181818;stroke-width:0.5;stroke-dasharray:5.0,5.0;" x1="2059.5" x2="2059.5" y1="126.043" y2="1541.3477"/><line style="stroke:#181818;stroke-width:0.5;stroke-dasharray:5.0,5.0;" x1="2161.5" x2="2161.5" y1="126.043" y2="1541.3477"/><line style="stroke:#181818;stroke-width:0.5;stroke-dasharray:5.0,5.0;" x1="2329.5" x2="2329.5" y1="126.043" y2="1541.3477"/><line style="stroke:#181818;stroke-width:0.5;stroke-dasharray:5.0,5.0;" x1="2509.5" x2="2509.5" y1="126.043" y2="1541.3477"/><text fill="#000000" font-family="sans-serif" font-size="20" lengthAdjust="spacing" textLength="56" x="5" y="121.8242">Agent</text><ellipse cx="36" cy="50.9883" fill="#E3E3E3" rx="8" ry="8" style="stroke:#181818;stroke-width:0.5;"/><path d="M36,58.9883 L36,85.9883 M23,66.9883 L49,66.9883 M36,85.9883 L23,100.9883 M36,85.9883 L49,100.9883 " fill="none" style="stroke:#181818;stroke-width:0.5;"/><text fill="#000000" font-family="sans-serif" font-size="20" lengthAdjust="spacing" textLength="56" x="5" y="1559.6836">Agent</text><ellipse cx="36" cy="1572.4023" fill="#E3E3E3" rx="8" ry="8" style="stroke:#181818;stroke-width:0.5;"/><path d="M36,1580.4023 L36,1607.4023 M23,1588.4023 L49,1588.4023 M36,1607.4023 L23,1622.4023 M36,1607.4023 L49,1622.4023 " fill="none" style="stroke:#181818;stroke-width:0.5;"/><rect fill="#E3E3E3" height="37.5547" rx="2.5" ry="2.5" style="stroke:#181818;stroke-width:0.5;" width="253" x="449.5" y="87.4883"/><text fill="#000000" font-family="sans-serif" font-size="20" lengthAdjust="spacing" textLength="239" x="456.5" y="113.8242">:RespondsVisitRequestUI</text><rect fill="#E3E3E3" height="37.5547" rx="2.5" ry="2.5" style="stroke:#181818;stroke-width:0.5;" width="253" x="449.5" y="1540.3477"/><text fill="#000000" font-family="sans-serif" font-size="20" lengthAdjust="spacing" textLength="239" x="456.5" y="1566.6836">:RespondsVisitRequestUI</text><rect fill="#E3E3E3" height="37.5547" rx="2.5" ry="2.5" style="stroke:#181818;stroke-width:0.5;" width="199" x="836.5" y="87.4883"/><text fill="#000000" font-family="sans-serif" font-size="20" lengthAdjust="spacing" textLength="185" x="843.5" y="113.8242">:AnnouncementCtrl</text><rect fill="#E3E3E3" height="37.5547" rx="2.5" ry="2.5" style="stroke:#181818;stroke-width:0.5;" width="199" x="836.5" y="1540.3477"/><text fill="#000000" font-family="sans-serif" font-size="20" lengthAdjust="spacing" textLength="185" x="843.5" y="1566.6836">:AnnouncementCtrl</text><rect fill="#E3E3E3" height="37.5547" rx="2.5" ry="2.5" style="stroke:#181818;stroke-width:0.5;" width="139" x="1566.5" y="87.4883"/><text fill="#000000" font-family="sans-serif" font-size="20" lengthAdjust="spacing" textLength="125" x="1573.5" y="113.8242">:Repositories</text><rect fill="#E3E3E3" height="37.5547" rx="2.5" ry="2.5" style="stroke:#181818;stroke-width:0.5;" width="139" x="1566.5" y="1540.3477"/><text fill="#000000" font-family="sans-serif" font-size="20" lengthAdjust="spacing" textLength="125" x="1573.5" y="1566.6836">:Repositories</text><rect fill="#E3E3E3" height="61.1094" rx="2.5" ry="2.5" style="stroke:#181818;stroke-width:0.5;" width="134" x="1715.5" y="63.9336"/><text fill="#000000" font-family="sans-serif" font-size="20" lengthAdjust="spacing" textLength="120" x="1722.5" y="90.2695">repositories:</text><text fill="#000000" font-family="sans-serif" font-size="20" lengthAdjust="spacing" textLength="119" x="1723" y="113.8242">Repositories</text><rect fill="#E3E3E3" height="61.1094" rx="2.5" ry="2.5" style="stroke:#181818;stroke-width:0.5;" width="134" x="1715.5" y="1540.3477"/><text fill="#000000" font-family="sans-serif" font-size="20" lengthAdjust="spacing" textLength="120" x="1722.5" y="1566.6836">repositories:</text><text fill="#000000" font-family="sans-serif" font-size="20" lengthAdjust="spacing" textLength="119" x="1723" y="1590.2383">Repositories</text><rect fill="#E3E3E3" height="37.5547" rx="2.5" ry="2.5" style="stroke:#181818;stroke-width:0.5;" width="133" x="1859.5" y="87.4883"/><text fill="#000000" font-family="sans-serif" font-size="20" lengthAdjust="spacing" textLength="119" x="1866.5" y="113.8242">VisitRequest</text><rect fill="#E3E3E3" height="37.5547" rx="2.5" ry="2.5" style="stroke:#181818;stroke-width:0.5;" width="133" x="1859.5" y="1540.3477"/><text fill="#000000" font-family="sans-serif" font-size="20" lengthAdjust="spacing" textLength="119" x="1866.5" y="1566.6836">VisitRequest</text><rect fill="#E3E3E3" height="37.5547" rx="2.5" ry="2.5" style="stroke:#181818;stroke-width:0.5;" width="114" x="2002.5" y="87.4883"/><text fill="#000000" font-family="sans-serif" font-size="20" lengthAdjust="spacing" textLength="100" x="2009.5" y="113.8242">SendEmail</text><rect fill="#E3E3E3" height="37.5547" rx="2.5" ry="2.5" style="stroke:#181818;stroke-width:0.5;" width="114" x="2002.5" y="1540.3477"/><text fill="#000000" font-family="sans-serif" font-size="20" lengthAdjust="spacing" textLength="100" x="2009.5" y="1566.6836">SendEmail</text><rect fill="#E3E3E3" height="37.5547" rx="2.5" ry="2.5" style="stroke:#181818;stroke-width:0.5;" width="70" x="2126.5" y="87.4883"/><text fill="#000000" font-family="sans-serif" font-size="20" lengthAdjust="spacing" textLength="56" x="2133.5" y="113.8242">Agent</text><rect fill="#E3E3E3" height="37.5547" rx="2.5" ry="2.5" style="stroke:#181818;stroke-width:0.5;" width="70" x="2126.5" y="1540.3477"/><text fill="#000000" font-family="sans-serif" font-size="20" lengthAdjust="spacing" textLength="56" x="2133.5" y="1566.6836">Agent</text><rect fill="#E3E3E3" height="37.5547" rx="2.5" ry="2.5" style="stroke:#181818;stroke-width:0.5;" width="246" x="2206.5" y="87.4883"/><text fill="#000000" font-family="sans-serif" font-size="20" lengthAdjust="spacing" textLength="232" x="2213.5" y="113.8242">AnnouncementAvailable</text><rect fill="#E3E3E3" height="37.5547" rx="2.5" ry="2.5" style="stroke:#181818;stroke-width:0.5;" width="246" x="2206.5" y="1540.3477"/><text fill="#000000" font-family="sans-serif" font-size="20" lengthAdjust="spacing" textLength="232" x="2213.5" y="1566.6836">AnnouncementAvailable</text><rect fill="#E3E3E3" height="37.5547" rx="2.5" ry="2.5" style="stroke:#181818;stroke-width:0.5;" width="94" x="2462.5" y="87.4883"/><text fill="#000000" font-family="sans-serif" font-size="20" lengthAdjust="spacing" textLength="80" x="2469.5" y="113.8242">Property</text><rect fill="#E3E3E3" height="37.5547" rx="2.5" ry="2.5" style="stroke:#181818;stroke-width:0.5;" width="94" x="2462.5" y="1540.3477"/><text fill="#000000" font-family="sans-serif" font-size="20" lengthAdjust="spacing" textLength="80" x="2469.5" y="1566.6836">Property</text><rect fill="#FFFFFF" height="1396.3047" style="stroke:#181818;stroke-width:1.0;" width="10" x="31" y="136.043"/><rect fill="#FFFFFF" height="418.1016" style="stroke:#181818;stroke-width:1.0;" width="10" x="571" y="136.043"/><rect fill="#FFFFFF" height="30" style="stroke:#181818;stroke-width:1.0;" width="10" x="571" y="639.8086"/><rect fill="#FFFFFF" height="67.5547" style="stroke:#181818;stroke-width:1.0;" width="10" x="571" y="1455.793"/><rect fill="#FFFFFF" height="135.1094" style="stroke:#181818;stroke-width:1.0;" width="10" x="931" y="419.0352"/><rect fill="#FFFFFF" height="239.6641" style="stroke:#181818;stroke-width:1.0;" width="10" x="931" y="639.8086"/><rect fill="#FFFFFF" height="37.5547" style="stroke:#181818;stroke-width:1.0;" width="10" x="931" y="992.1367"/><rect fill="#FFFFFF" height="380.9922" style="stroke:#181818;stroke-width:1.0;" width="10" x="931" y="1104.8008"/><rect fill="#FFFFFF" height="30" style="stroke:#181818;stroke-width:1.0;" width="10" x="1921" y="456.5898"/><rect fill="#FFFFFF" height="30" style="stroke:#181818;stroke-width:1.0;" width="10" x="1921" y="707.3633"/><rect fill="#FFFFFF" height="142.6641" style="stroke:#181818;stroke-width:1.0;" width="10" x="1921" y="849.4727"/><rect fill="#FFFFFF" height="112.6641" style="stroke:#181818;stroke-width:1.0;" width="10" x="1921" y="1179.9102"/><rect fill="#FFFFFF" height="37.5547" style="stroke:#181818;stroke-width:1.0;" width="10" x="2054.5" y="1380.6836"/><rect fill="#FFFFFF" height="37.5547" style="stroke:#181818;stroke-width:1.0;" width="10" x="2156.5" y="917.0273"/><rect fill="#FFFFFF" height="30" style="stroke:#181818;stroke-width:1.0;" width="10" x="2324.5" y="524.1445"/><rect fill="#FFFFFF" height="30" style="stroke:#181818;stroke-width:1.0;" width="10" x="2324.5" y="774.918"/><rect fill="#FFFFFF" height="112.6641" style="stroke:#181818;stroke-width:1.0;" width="10" x="2324.5" y="1029.6914"/><rect fill="#FFFFFF" height="37.5547" style="stroke:#181818;stroke-width:1.0;" width="10" x="2504.5" y="1067.2461"/><rect fill="none" height="57.1094" style="stroke:#000000;stroke-width:1.5;" width="192" x="2" y="136.043"/><path d="M2,136.043 L76,136.043 L76,151.043 L66,161.043 L2,161.043 L2,136.043 " fill="#EEEEEE" style="stroke:#000000;stroke-width:2.0;"/><text fill="#000000" font-family="sans-serif" font-size="20" font-weight="bold" lengthAdjust="spacing" textLength="29" x="15" y="157.3789">ref</text><text fill="#000000" font-family="sans-serif" font-size="20" lengthAdjust="spacing" textLength="184" x="6" y="184.3789">listAllVisitRequests</text><polygon fill="#181818" points="559,223.707,569,227.707,559,231.707,563,227.707" style="stroke:#181818;stroke-width:1.0;"/><line style="stroke:#181818;stroke-width:1.0;" x1="41" x2="565" y1="227.707" y2="227.707"/><text fill="#000000" font-family="sans-serif" font-size="20" font-weight="bold" lengthAdjust="spacing" textLength="13" x="48" y="221.4883">1</text><text fill="#000000" font-family="sans-serif" font-size="20" lengthAdjust="spacing" textLength="489" x="65" y="221.4883">asks to respond to a visit request sendind an email</text><polygon fill="#181818" points="52,261.2617,42,265.2617,52,269.2617,48,265.2617" style="stroke:#181818;stroke-width:1.0;"/><line style="stroke:#181818;stroke-width:1.0;" x1="46" x2="570" y1="265.2617" y2="265.2617"/><text fill="#000000" font-family="sans-serif" font-size="20" font-weight="bold" lengthAdjust="spacing" textLength="13" x="58" y="259.043">2</text><text fill="#000000" font-family="sans-serif" font-size="20" lengthAdjust="spacing" textLength="460" x="75" y="259.043">asks if wants to accept or reject the visit request</text><polygon fill="#181818" points="559,298.8164,569,302.8164,559,306.8164,563,302.8164" style="stroke:#181818;stroke-width:1.0;"/><line style="stroke:#181818;stroke-width:1.0;" x1="41" x2="565" y1="302.8164" y2="302.8164"/><text fill="#000000" font-family="sans-serif" font-size="20" font-weight="bold" lengthAdjust="spacing" textLength="13" x="48" y="296.5977">3</text><text fill="#000000" font-family="sans-serif" font-size="20" lengthAdjust="spacing" textLength="133" x="65" y="296.5977">selects option</text><polygon fill="#181818" points="924,336.3711,934,340.3711,924,344.3711,928,340.3711" style="stroke:#181818;stroke-width:1.0;"/><line style="stroke:#181818;stroke-width:1.0;stroke-dasharray:2.0,2.0;" x1="581" x2="930" y1="340.3711" y2="340.3711"/><text fill="#000000" font-family="sans-serif" font-size="20" font-weight="bold" lengthAdjust="spacing" textLength="13" x="588" y="334.1523">4</text><text fill="#000000" font-family="sans-serif" font-size="20" lengthAdjust="spacing" textLength="58" x="605" y="334.1523">create</text><path d="M439.5,355.3711 L518.5,355.3711 L518.5,370.9258 L508.5,380.9258 L439.5,380.9258 L439.5,355.3711 " fill="#EEEEEE" style="stroke:#000000;stroke-width:1.5;"/><rect fill="none" height="206.7734" style="stroke:#000000;stroke-width:1.5;" width="2023" x="439.5" y="355.3711"/><text fill="#000000" font-family="sans-serif" font-size="20" font-weight="bold" lengthAdjust="spacing" textLength="34" x="454.5" y="375.707">opt</text><text fill="#000000" font-family="sans-serif" font-size="20" font-weight="bold" lengthAdjust="spacing" textLength="81" x="533.5" y="376.707">[accept]</text><polygon fill="#181818" points="919,415.0352,929,419.0352,919,423.0352,923,419.0352" style="stroke:#181818;stroke-width:1.0;"/><line style="stroke:#181818;stroke-width:1.0;" x1="581" x2="925" y1="419.0352" y2="419.0352"/><text fill="#000000" font-family="sans-serif" font-size="20" font-weight="bold" lengthAdjust="spacing" textLength="13" x="588" y="412.8164">5</text><text fill="#000000" font-family="sans-serif" font-size="20" lengthAdjust="spacing" textLength="314" x="605" y="412.8164">acceptVisitRequest(VisitRequest)</text><polygon fill="#181818" points="1909,452.5898,1919,456.5898,1909,460.5898,1913,456.5898" style="stroke:#181818;stroke-width:1.0;"/><line style="stroke:#181818;stroke-width:1.0;" x1="941" x2="1915" y1="456.5898" y2="456.5898"/><text fill="#000000" font-family="sans-serif" font-size="20" font-weight="bold" lengthAdjust="spacing" textLength="13" x="948" y="450.3711">6</text><text fill="#000000" font-family="sans-serif" font-size="20" lengthAdjust="spacing" textLength="200" x="965" y="450.3711">setStatus("accepted")</text><polygon fill="#181818" points="2312.5,520.1445,2322.5,524.1445,2312.5,528.1445,2316.5,524.1445" style="stroke:#181818;stroke-width:1.0;"/><line style="stroke:#181818;stroke-width:1.0;" x1="941" x2="2318.5" y1="524.1445" y2="524.1445"/><text fill="#000000" font-family="sans-serif" font-size="20" font-weight="bold" lengthAdjust="spacing" textLength="13" x="948" y="517.9258">7</text><text fill="#000000" font-family="sans-serif" font-size="20" lengthAdjust="spacing" textLength="229" x="965" y="517.9258">updatingVisitRequests()</text><path d="M439.5,576.1445 L518.5,576.1445 L518.5,591.6992 L508.5,601.6992 L439.5,601.6992 L439.5,576.1445 " fill="#EEEEEE" style="stroke:#000000;stroke-width:1.5;"/><rect fill="none" height="236.7734" style="stroke:#000000;stroke-width:1.5;" width="2023" x="439.5" y="576.1445"/><text fill="#000000" font-family="sans-serif" font-size="20" font-weight="bold" lengthAdjust="spacing" textLength="34" x="454.5" y="596.4805">opt</text><text fill="#000000" font-family="sans-serif" font-size="20" font-weight="bold" lengthAdjust="spacing" textLength="73" x="533.5" y="597.4805">[reject]</text><polygon fill="#181818" points="919,635.8086,929,639.8086,919,643.8086,923,639.8086" style="stroke:#181818;stroke-width:1.0;"/><line style="stroke:#181818;stroke-width:1.0;" x1="581" x2="925" y1="639.8086" y2="639.8086"/><text fill="#000000" font-family="sans-serif" font-size="20" font-weight="bold" lengthAdjust="spacing" textLength="13" x="588" y="633.5898">8</text><text fill="#000000" font-family="sans-serif" font-size="20" lengthAdjust="spacing" textLength="305" x="605" y="633.5898">rejectVisitRequest(VisitRequest)</text><polygon fill="#181818" points="1909,703.3633,1919,707.3633,1909,711.3633,1913,707.3633" style="stroke:#181818;stroke-width:1.0;"/><line style="stroke:#181818;stroke-width:1.0;" x1="941" x2="1915" y1="707.3633" y2="707.3633"/><text fill="#000000" font-family="sans-serif" font-size="20" font-weight="bold" lengthAdjust="spacing" textLength="13" x="948" y="701.1445">9</text><text fill="#000000" font-family="sans-serif" font-size="20" lengthAdjust="spacing" textLength="191" x="965" y="701.1445">setStatus("rejected")</text><polygon fill="#181818" points="2312.5,770.918,2322.5,774.918,2312.5,778.918,2316.5,774.918" style="stroke:#181818;stroke-width:1.0;"/><line style="stroke:#181818;stroke-width:1.0;" x1="941" x2="2318.5" y1="774.918" y2="774.918"/><text fill="#000000" font-family="sans-serif" font-size="20" font-weight="bold" lengthAdjust="spacing" textLength="26" x="948" y="768.6992">10</text><text fill="#000000" font-family="sans-serif" font-size="20" lengthAdjust="spacing" textLength="229" x="978" y="768.6992">updatingVisitRequests()</text><polygon fill="#181818" points="1909,845.4727,1919,849.4727,1909,853.4727,1913,849.4727" style="stroke:#181818;stroke-width:1.0;"/><line style="stroke:#181818;stroke-width:1.0;" x1="941" x2="1915" y1="849.4727" y2="849.4727"/><text fill="#000000" font-family="sans-serif" font-size="20" font-weight="bold" lengthAdjust="spacing" textLength="26" x="948" y="843.2539">11</text><text fill="#000000" font-family="sans-serif" font-size="20" lengthAdjust="spacing" textLength="156" x="978" y="843.2539">getAgentName()</text><polygon fill="#181818" points="2144.5,913.0273,2154.5,917.0273,2144.5,921.0273,2148.5,917.0273" style="stroke:#181818;stroke-width:1.0;"/><line style="stroke:#181818;stroke-width:1.0;" x1="1931" x2="2150.5" y1="917.0273" y2="917.0273"/><text fill="#000000" font-family="sans-serif" font-size="20" font-weight="bold" lengthAdjust="spacing" textLength="26" x="1938" y="910.8086">12</text><text fill="#000000" font-family="sans-serif" font-size="20" lengthAdjust="spacing" textLength="100" x="1968" y="910.8086">getName()</text><polygon fill="#181818" points="1942,950.582,1932,954.582,1942,958.582,1938,954.582" style="stroke:#181818;stroke-width:1.0;"/><line style="stroke:#181818;stroke-width:1.0;" x1="1936" x2="2160.5" y1="954.582" y2="954.582"/><text fill="#000000" font-family="sans-serif" font-size="20" font-weight="bold" lengthAdjust="spacing" textLength="26" x="1948" y="948.3633">13</text><text fill="#000000" font-family="sans-serif" font-size="20" lengthAdjust="spacing" textLength="109" x="1978" y="948.3633">agentName</text><polygon fill="#181818" points="952,988.1367,942,992.1367,952,996.1367,948,992.1367" style="stroke:#181818;stroke-width:1.0;"/><line style="stroke:#181818;stroke-width:1.0;" x1="946" x2="1925" y1="992.1367" y2="992.1367"/><text fill="#000000" font-family="sans-serif" font-size="20" font-weight="bold" lengthAdjust="spacing" textLength="26" x="958" y="985.918">14</text><text fill="#000000" font-family="sans-serif" font-size="20" lengthAdjust="spacing" textLength="109" x="988" y="985.918">agentName</text><polygon fill="#181818" points="2312.5,1025.6914,2322.5,1029.6914,2312.5,1033.6914,2316.5,1029.6914" style="stroke:#181818;stroke-width:1.0;"/><line style="stroke:#181818;stroke-width:1.0;" x1="936" x2="2318.5" y1="1029.6914" y2="1029.6914"/><text fill="#000000" font-family="sans-serif" font-size="20" font-weight="bold" lengthAdjust="spacing" textLength="26" x="943" y="1023.4727">15</text><text fill="#000000" font-family="sans-serif" font-size="20" lengthAdjust="spacing" textLength="161" x="973" y="1023.4727">getPropertyInfo()</text><polygon fill="#181818" points="2492.5,1063.2461,2502.5,1067.2461,2492.5,1071.2461,2496.5,1067.2461" style="stroke:#181818;stroke-width:1.0;"/><line style="stroke:#181818;stroke-width:1.0;" x1="2334.5" x2="2498.5" y1="1067.2461" y2="1067.2461"/><text fill="#000000" font-family="sans-serif" font-size="20" font-weight="bold" lengthAdjust="spacing" textLength="26" x="2341.5" y="1061.0273">16</text><text fill="#000000" font-family="sans-serif" font-size="20" lengthAdjust="spacing" textLength="81" x="2371.5" y="1061.0273">getInfo()</text><polygon fill="#181818" points="2345.5,1100.8008,2335.5,1104.8008,2345.5,1108.8008,2341.5,1104.8008" style="stroke:#181818;stroke-width:1.0;"/><line style="stroke:#181818;stroke-width:1.0;" x1="2339.5" x2="2508.5" y1="1104.8008" y2="1104.8008"/><text fill="#000000" font-family="sans-serif" font-size="20" font-weight="bold" lengthAdjust="spacing" textLength="26" x="2351.5" y="1098.582">17</text><text fill="#000000" font-family="sans-serif" font-size="20" lengthAdjust="spacing" textLength="37" x="2381.5" y="1098.582">info</text><polygon fill="#181818" points="952,1138.3555,942,1142.3555,952,1146.3555,948,1142.3555" style="stroke:#181818;stroke-width:1.0;"/><line style="stroke:#181818;stroke-width:1.0;" x1="946" x2="2328.5" y1="1142.3555" y2="1142.3555"/><text fill="#000000" font-family="sans-serif" font-size="20" font-weight="bold" lengthAdjust="spacing" textLength="26" x="958" y="1136.1367">18</text><text fill="#000000" font-family="sans-serif" font-size="20" lengthAdjust="spacing" textLength="37" x="988" y="1136.1367">info</text><polygon fill="#181818" points="1909,1175.9102,1919,1179.9102,1909,1183.9102,1913,1179.9102" style="stroke:#181818;stroke-width:1.0;"/><line style="stroke:#181818;stroke-width:1.0;" x1="941" x2="1915" y1="1179.9102" y2="1179.9102"/><text fill="#000000" font-family="sans-serif" font-size="20" font-weight="bold" lengthAdjust="spacing" textLength="26" x="948" y="1173.6914">19</text><text fill="#000000" font-family="sans-serif" font-size="20" lengthAdjust="spacing" textLength="237" x="978" y="1173.6914">getEmailToSendMessage</text><polygon fill="#181818" points="952,1213.4648,942,1217.4648,952,1221.4648,948,1217.4648" style="stroke:#181818;stroke-width:1.0;"/><line style="stroke:#181818;stroke-width:1.0;" x1="946" x2="1920" y1="1217.4648" y2="1217.4648"/><text fill="#000000" font-family="sans-serif" font-size="20" font-weight="bold" lengthAdjust="spacing" textLength="26" x="958" y="1211.2461">20</text><text fill="#000000" font-family="sans-serif" font-size="20" lengthAdjust="spacing" textLength="207" x="988" y="1211.2461">emailToSendMessage</text><polygon fill="#181818" points="1909,1251.0195,1919,1255.0195,1909,1259.0195,1913,1255.0195" style="stroke:#181818;stroke-width:1.0;"/><line style="stroke:#181818;stroke-width:1.0;" x1="941" x2="1915" y1="1255.0195" y2="1255.0195"/><text fill="#000000" font-family="sans-serif" font-size="20" font-weight="bold" lengthAdjust="spacing" textLength="26" x="948" y="1248.8008">21</text><text fill="#000000" font-family="sans-serif" font-size="20" lengthAdjust="spacing" textLength="241" x="978" y="1248.8008">getVisitRequestResponse</text><polygon fill="#181818" points="952,1288.5742,942,1292.5742,952,1296.5742,948,1292.5742" style="stroke:#181818;stroke-width:1.0;"/><line style="stroke:#181818;stroke-width:1.0;" x1="946" x2="1925" y1="1292.5742" y2="1292.5742"/><text fill="#000000" font-family="sans-serif" font-size="20" font-weight="bold" lengthAdjust="spacing" textLength="26" x="958" y="1286.3555">22</text><text fill="#000000" font-family="sans-serif" font-size="20" lengthAdjust="spacing" textLength="208" x="988" y="1286.3555">visitRequestResponse</text><line style="stroke:#181818;stroke-width:1.0;" x1="941" x2="983" y1="1330.1289" y2="1330.1289"/><line style="stroke:#181818;stroke-width:1.0;" x1="983" x2="983" y1="1330.1289" y2="1343.1289"/><line style="stroke:#181818;stroke-width:1.0;" x1="942" x2="983" y1="1343.1289" y2="1343.1289"/><polygon fill="#181818" points="952,1339.1289,942,1343.1289,952,1347.1289,948,1343.1289" style="stroke:#181818;stroke-width:1.0;"/><text fill="#000000" font-family="sans-serif" font-size="20" font-weight="bold" lengthAdjust="spacing" textLength="26" x="948" y="1323.9102">23</text><text fill="#000000" font-family="sans-serif" font-size="20" lengthAdjust="spacing" textLength="646" x="978" y="1323.9102">message = visitRequestResponse(accept/rejected),ownerName,info</text><polygon fill="#181818" points="2042.5,1376.6836,2052.5,1380.6836,2042.5,1384.6836,2046.5,1380.6836" style="stroke:#181818;stroke-width:1.0;"/><line style="stroke:#181818;stroke-width:1.0;" x1="941" x2="2048.5" y1="1380.6836" y2="1380.6836"/><text fill="#000000" font-family="sans-serif" font-size="20" font-weight="bold" lengthAdjust="spacing" textLength="26" x="948" y="1374.4648">24</text><text fill="#000000" font-family="sans-serif" font-size="20" lengthAdjust="spacing" textLength="475" x="978" y="1374.4648">sendMail(emailToSendMessage, messageToSend)</text><polygon fill="#181818" points="952,1414.2383,942,1418.2383,952,1422.2383,948,1418.2383" style="stroke:#181818;stroke-width:1.0;"/><line style="stroke:#181818;stroke-width:1.0;" x1="946" x2="2058.5" y1="1418.2383" y2="1418.2383"/><text fill="#000000" font-family="sans-serif" font-size="20" font-weight="bold" lengthAdjust="spacing" textLength="26" x="958" y="1412.0195">25</text><text fill="#000000" font-family="sans-serif" font-size="20" lengthAdjust="spacing" textLength="166" x="988" y="1412.0195">operationSuccess</text><polygon fill="#181818" points="592,1451.793,582,1455.793,592,1459.793,588,1455.793" style="stroke:#181818;stroke-width:1.0;"/><line style="stroke:#181818;stroke-width:1.0;" x1="586" x2="930" y1="1455.793" y2="1455.793"/><text fill="#000000" font-family="sans-serif" font-size="20" font-weight="bold" lengthAdjust="spacing" textLength="26" x="598" y="1449.5742">26</text><text fill="#000000" font-family="sans-serif" font-size="20" lengthAdjust="spacing" textLength="166" x="628" y="1449.5742">operationSuccess</text><polygon fill="#181818" points="52,1519.3477,42,1523.3477,52,1527.3477,48,1523.3477" style="stroke:#181818;stroke-width:1.0;"/><line style="stroke:#181818;stroke-width:1.0;" x1="46" x2="575" y1="1523.3477" y2="1523.3477"/><text fill="#000000" font-family="sans-serif" font-size="20" font-weight="bold" lengthAdjust="spacing" textLength="26" x="58" y="1517.1289">27</text><text fill="#000000" font-family="sans-serif" font-size="20" lengthAdjust="spacing" textLength="231" x="88" y="1517.1289">shows operationSuccess</text><!--SRC=[hLMnRjim4Dtv5OGd1KZGj4C70orWE2aGe6a3A-dKXP7EDck9L4bAHlhrFHv5bPIJDaCNGoJVUtVtxaZRWrITCA9jT7M0cjUm5NtZFcdbIlaB-BjBPYE4jrhfQczq2zoP7fAJJbG7iOFIFJN03LHEg5sJ0knUrFeerOvlHME1CISTGX_AoxVl-GKldwo3bfVmimTL0R-IOkTfHLbUdJ7HEwtwzX4COw9osl35QWVABRYmNFWlXb6Sh6GdbEEBvGPifrLjlqahtSQBMlTmG_27cnbsfPJkCMQBCcjd6aAjxpUVJpGxZMhQIB24sLpVVSqn9e4ilwiJ1fxdX3G_GWmc1vIWwkjMo92LnTKjBdBCp8fr8woT8P8ILmCAYCS60iClS_2TqHqOzqJdtRXWPBmSX0Fle84jrmCOFhhVIEjMJPEMOnaccx02a7xvnKSKuKiCSB3SQVI5skK_1H-y26wH2fKiyKWe3ju7XaIaayue8BVyY9cJagWgw1p72J7m0yUGkptaYhCKB3G8irntJcf5wdZasu-7bG5CdU7PA3n67u_3NbfqaIxE_XHFuqGiP0-6uhhI2TVROX5ae5ua19o36jBLnAQEeK3VrSBXVSeyBnA9qDf49MoaEvHMiiREKjCObHmSP7dDOVCrDQDOBlqwDqA0Vxdn_-nWOybPFZjmTAk-Y1QA5nEXEX0Vvv5kNc3FYSdDJA0nd8Ynikuad10aZjs4parvtjze42OLR_QDscfCRbx9p9b0H8Nu1WIHaJo1fnTYWYL19OApcYRqB7ICDPP8lDDUpNj4B-Ezze_aBLYBncIjobo3K-nSBfsTy0-2VrI92AA6vo0ltDGnS1kYyG_Faejm-z_4iJyxrqS5nhVtd5o8Ql7jNqvVnMb9vp5Qs4tQDFrrn8yaGzyIuP-_iiTaSDoIWYPUp8DUpHF62xUUcfkysFwgx_NH_ZKaIh3V]--></g></svg>