<?xml version="1.0" encoding="UTF-8" standalone="no"?><svg xmlns="http://www.w3.org/2000/svg" xmlns:xlink="http://www.w3.org/1999/xlink" contentStyleType="text/css" height="662px" preserveAspectRatio="none" style="width:1204px;height:662px;background:#FFFFFF;" version="1.1" viewBox="0 0 1204 662" width="1204px" zoomAndPan="magnify"><defs/><g><!--class ctrl--><g id="elem_ctrl"><rect codeLine="11" fill="#F1F1F1" height="144.2188" id="ctrl" rx="2.5" ry="2.5" style="stroke:#181818;stroke-width:0.5;" width="274" x="445.5" y="7"/><ellipse cx="461.5" cy="24" fill="#ADD1B2" rx="12" ry="12" style="stroke:#181818;stroke-width:1.0;"/><path d="M464.3066,31.0801 Q463.623,31.4316 462.8711,31.6074 Q462.1191,31.7832 461.2891,31.7832 Q458.3398,31.7832 456.7871,29.8398 Q455.2344,27.8965 455.2344,24.2246 Q455.2344,20.543 456.7871,18.5996 Q458.3398,16.6563 461.2891,16.6563 Q462.1191,16.6563 462.8809,16.832 Q463.6426,17.0078 464.3066,17.3594 L464.3066,20.5625 Q463.5645,19.8789 462.8662,19.5615 Q462.168,19.2441 461.4258,19.2441 Q459.8438,19.2441 459.0381,20.499 Q458.2324,21.7539 458.2324,24.2246 Q458.2324,26.6855 459.0381,27.9404 Q459.8438,29.1953 461.4258,29.1953 Q462.168,29.1953 462.8662,28.8779 Q463.5645,28.5605 464.3066,27.877 Z " fill="#000000"/><text fill="#000000" font-family="sans-serif" font-size="20" lengthAdjust="spacing" textLength="240" x="476.5" y="31.5586">AnnouncementController</text><line style="stroke:#181818;stroke-width:0.5;" x1="446.5" x2="718.5" y1="41" y2="41"/><text fill="#000000" font-family="sans-serif" font-size="20" lengthAdjust="spacing" textLength="197" x="451.5" y="64.3359">+acceptVisitRequest</text><text fill="#000000" font-family="sans-serif" font-size="20" lengthAdjust="spacing" textLength="188" x="451.5" y="87.8906">+rejectVisitRequest</text><text fill="#000000" font-family="sans-serif" font-size="20" lengthAdjust="spacing" textLength="206" x="451.5" y="111.4453">+removeVisitRequest</text><text fill="#000000" font-family="sans-serif" font-size="20" lengthAdjust="spacing" textLength="115" x="451.5" y="135">+sendEmail</text><line style="stroke:#181818;stroke-width:0.5;" x1="446.5" x2="718.5" y1="143.2188" y2="143.2188"/></g><!--class UI--><g id="elem_UI"><rect codeLine="18" fill="#F1F1F1" height="50" id="UI" rx="2.5" ry="2.5" style="stroke:#181818;stroke-width:0.5;" width="257" x="153" y="54"/><ellipse cx="169" cy="71" fill="#ADD1B2" rx="12" ry="12" style="stroke:#181818;stroke-width:1.0;"/><path d="M171.8066,78.0801 Q171.123,78.4316 170.3711,78.6074 Q169.6191,78.7832 168.7891,78.7832 Q165.8398,78.7832 164.2871,76.8398 Q162.7344,74.8965 162.7344,71.2246 Q162.7344,67.543 164.2871,65.5996 Q165.8398,63.6563 168.7891,63.6563 Q169.6191,63.6563 170.3809,63.832 Q171.1426,64.0078 171.8066,64.3594 L171.8066,67.5625 Q171.0645,66.8789 170.3662,66.5615 Q169.668,66.2441 168.9258,66.2441 Q167.3438,66.2441 166.5381,67.499 Q165.7324,68.7539 165.7324,71.2246 Q165.7324,73.6855 166.5381,74.9404 Q167.3438,76.1953 168.9258,76.1953 Q169.668,76.1953 170.3662,75.8779 Q171.0645,75.5605 171.8066,74.877 Z " fill="#000000"/><text fill="#000000" font-family="sans-serif" font-size="20" lengthAdjust="spacing" textLength="223" x="184" y="78.5586">RespondVisitRequestUI</text><line style="stroke:#181818;stroke-width:0.5;" x1="154" x2="409" y1="88" y2="88"/><line style="stroke:#181818;stroke-width:0.5;" x1="154" x2="409" y1="96" y2="96"/></g><!--class Agent--><g id="elem_Agent"><rect codeLine="23" fill="#F1F1F1" height="97.1094" id="Agent" rx="2.5" ry="2.5" style="stroke:#181818;stroke-width:0.5;" width="128" x="741.5" y="476.5"/><ellipse cx="774.6" cy="493.5" fill="#ADD1B2" rx="12" ry="12" style="stroke:#181818;stroke-width:1.0;"/><path d="M777.4066,500.5801 Q776.723,500.9316 775.9711,501.1074 Q775.2191,501.2832 774.3891,501.2832 Q771.4398,501.2832 769.8871,499.3398 Q768.3344,497.3965 768.3344,493.7246 Q768.3344,490.043 769.8871,488.0996 Q771.4398,486.1563 774.3891,486.1563 Q775.2191,486.1563 775.9809,486.332 Q776.7426,486.5078 777.4066,486.8594 L777.4066,490.0625 Q776.6645,489.3789 775.9662,489.0615 Q775.268,488.7441 774.5258,488.7441 Q772.9438,488.7441 772.1381,489.999 Q771.3324,491.2539 771.3324,493.7246 Q771.3324,496.1855 772.1381,497.4404 Q772.9438,498.6953 774.5258,498.6953 Q775.268,498.6953 775.9662,498.3779 Q776.6645,498.0605 777.4066,497.377 Z " fill="#000000"/><text fill="#000000" font-family="sans-serif" font-size="20" lengthAdjust="spacing" textLength="56" x="793.4" y="501.0586">Agent</text><line style="stroke:#181818;stroke-width:0.5;" x1="742.5" x2="868.5" y1="510.5" y2="510.5"/><text fill="#000000" font-family="sans-serif" font-size="20" lengthAdjust="spacing" textLength="65" x="747.5" y="533.8359">-name</text><line style="stroke:#181818;stroke-width:0.5;" x1="742.5" x2="868.5" y1="542.0547" y2="542.0547"/><text fill="#000000" font-family="sans-serif" font-size="20" lengthAdjust="spacing" textLength="116" x="747.5" y="565.3906">+getName()</text></g><!--class SendEmail--><g id="elem_SendEmail"><rect codeLine="27" fill="#F1F1F1" height="73.5547" id="SendEmail" rx="2.5" ry="2.5" style="stroke:#181818;stroke-width:0.5;" width="433" x="7" y="223.5"/><ellipse cx="169" cy="240.5" fill="#ADD1B2" rx="12" ry="12" style="stroke:#181818;stroke-width:1.0;"/><path d="M171.8066,247.5801 Q171.123,247.9316 170.3711,248.1074 Q169.6191,248.2832 168.7891,248.2832 Q165.8398,248.2832 164.2871,246.3398 Q162.7344,244.3965 162.7344,240.7246 Q162.7344,237.043 164.2871,235.0996 Q165.8398,233.1563 168.7891,233.1563 Q169.6191,233.1563 170.3809,233.332 Q171.1426,233.5078 171.8066,233.8594 L171.8066,237.0625 Q171.0645,236.3789 170.3662,236.0615 Q169.668,235.7441 168.9258,235.7441 Q167.3438,235.7441 166.5381,236.999 Q165.7324,238.2539 165.7324,240.7246 Q165.7324,243.1855 166.5381,244.4404 Q167.3438,245.6953 168.9258,245.6953 Q169.668,245.6953 170.3662,245.3779 Q171.0645,245.0605 171.8066,244.377 Z " fill="#000000"/><text fill="#000000" font-family="sans-serif" font-size="20" lengthAdjust="spacing" textLength="100" x="191" y="248.0586">SendEmail</text><line style="stroke:#181818;stroke-width:0.5;" x1="8" x2="439" y1="257.5" y2="257.5"/><line style="stroke:#181818;stroke-width:0.5;" x1="8" x2="439" y1="265.5" y2="265.5"/><text fill="#000000" font-family="sans-serif" font-size="20" lengthAdjust="spacing" textLength="421" x="13" y="288.8359">+sendEmail(String message, String toEmail)</text></g><!--class AnnouncementAvailable--><g id="elem_AnnouncementAvailable"><rect codeLine="32" fill="#F1F1F1" height="97.1094" id="AnnouncementAvailable" rx="2.5" ry="2.5" style="stroke:#181818;stroke-width:0.5;" width="517" x="547" y="212"/><ellipse cx="685" cy="229" fill="#ADD1B2" rx="12" ry="12" style="stroke:#181818;stroke-width:1.0;"/><path d="M687.8066,236.0801 Q687.123,236.4316 686.3711,236.6074 Q685.6191,236.7832 684.7891,236.7832 Q681.8398,236.7832 680.2871,234.8398 Q678.7344,232.8965 678.7344,229.2246 Q678.7344,225.543 680.2871,223.5996 Q681.8398,221.6563 684.7891,221.6563 Q685.6191,221.6563 686.3809,221.832 Q687.1426,222.0078 687.8066,222.3594 L687.8066,225.5625 Q687.0645,224.8789 686.3662,224.5615 Q685.668,224.2441 684.9258,224.2441 Q683.3438,224.2441 682.5381,225.499 Q681.7324,226.7539 681.7324,229.2246 Q681.7324,231.6855 682.5381,232.9404 Q683.3438,234.1953 684.9258,234.1953 Q685.668,234.1953 686.3662,233.8779 Q687.0645,233.5605 687.8066,232.877 Z " fill="#000000"/><text fill="#000000" font-family="sans-serif" font-size="20" lengthAdjust="spacing" textLength="232" x="707" y="236.5586">AnnouncementAvailable</text><line style="stroke:#181818;stroke-width:0.5;" x1="548" x2="1063" y1="246" y2="246"/><line style="stroke:#181818;stroke-width:0.5;" x1="548" x2="1063" y1="254" y2="254"/><text fill="#000000" font-family="sans-serif" font-size="20" lengthAdjust="spacing" textLength="505" x="553" y="277.3359">+filterAnnouncementAvailable(business,type,rooms)</text><text fill="#000000" font-family="sans-serif" font-size="20" lengthAdjust="spacing" textLength="140" x="553" y="300.8906">+getProperty()</text></g><!--class VisitRequest--><g id="elem_VisitRequest"><rect codeLine="36" fill="#F1F1F1" height="120.6641" id="VisitRequest" rx="2.5" ry="2.5" style="stroke:#181818;stroke-width:0.5;" width="247" x="950" y="464.5"/><ellipse cx="1009.5" cy="481.5" fill="#ADD1B2" rx="12" ry="12" style="stroke:#181818;stroke-width:1.0;"/><path d="M1012.3066,488.5801 Q1011.623,488.9316 1010.8711,489.1074 Q1010.1191,489.2832 1009.2891,489.2832 Q1006.3398,489.2832 1004.7871,487.3398 Q1003.2344,485.3965 1003.2344,481.7246 Q1003.2344,478.043 1004.7871,476.0996 Q1006.3398,474.1563 1009.2891,474.1563 Q1010.1191,474.1563 1010.8809,474.332 Q1011.6426,474.5078 1012.3066,474.8594 L1012.3066,478.0625 Q1011.5645,477.3789 1010.8662,477.0615 Q1010.168,476.7441 1009.4258,476.7441 Q1007.8438,476.7441 1007.0381,477.999 Q1006.2324,479.2539 1006.2324,481.7246 Q1006.2324,484.1855 1007.0381,485.4404 Q1007.8438,486.6953 1009.4258,486.6953 Q1010.168,486.6953 1010.8662,486.3779 Q1011.5645,486.0605 1012.3066,485.377 Z " fill="#000000"/><text fill="#000000" font-family="sans-serif" font-size="20" lengthAdjust="spacing" textLength="119" x="1031.5" y="489.0586">VisitRequest</text><line style="stroke:#181818;stroke-width:0.5;" x1="951" x2="1196" y1="498.5" y2="498.5"/><line style="stroke:#181818;stroke-width:0.5;" x1="951" x2="1196" y1="506.5" y2="506.5"/><text fill="#000000" font-family="sans-serif" font-size="20" lengthAdjust="spacing" textLength="235" x="956" y="529.8359">+setStatus(String status)</text><text fill="#000000" font-family="sans-serif" font-size="20" lengthAdjust="spacing" textLength="116" x="956" y="553.3906">+getAgent()</text><text fill="#000000" font-family="sans-serif" font-size="20" lengthAdjust="spacing" textLength="122" x="956" y="576.9453">+getOwner()</text></g><!--class Property--><g id="elem_Property"><rect codeLine="42" fill="#F1F1F1" height="261.9922" id="Property" rx="2.5" ry="2.5" style="stroke:#181818;stroke-width:0.5;" width="198" x="451.5" y="394"/><ellipse cx="506" cy="411" fill="#ADD1B2" rx="12" ry="12" style="stroke:#181818;stroke-width:1.0;"/><path d="M508.8066,418.0801 Q508.123,418.4316 507.3711,418.6074 Q506.6191,418.7832 505.7891,418.7832 Q502.8398,418.7832 501.2871,416.8398 Q499.7344,414.8965 499.7344,411.2246 Q499.7344,407.543 501.2871,405.5996 Q502.8398,403.6563 505.7891,403.6563 Q506.6191,403.6563 507.3809,403.832 Q508.1426,404.0078 508.8066,404.3594 L508.8066,407.5625 Q508.0645,406.8789 507.3662,406.5615 Q506.668,406.2441 505.9258,406.2441 Q504.3438,406.2441 503.5381,407.499 Q502.7324,408.7539 502.7324,411.2246 Q502.7324,413.6855 503.5381,414.9404 Q504.3438,416.1953 505.9258,416.1953 Q506.668,416.1953 507.3662,415.8779 Q508.0645,415.5605 508.8066,414.877 Z " fill="#000000"/><text fill="#000000" font-family="sans-serif" font-size="20" lengthAdjust="spacing" textLength="80" x="528" y="418.5586">Property</text><line style="stroke:#181818;stroke-width:0.5;" x1="452.5" x2="648.5" y1="428" y2="428"/><text fill="#000000" font-family="sans-serif" font-size="20" lengthAdjust="spacing" textLength="62" x="457.5" y="451.3359">-Int id</text><text fill="#000000" font-family="sans-serif" font-size="20" lengthAdjust="spacing" textLength="115" x="457.5" y="474.8906">-String type</text><text fill="#000000" font-family="sans-serif" font-size="20" lengthAdjust="spacing" textLength="150" x="457.5" y="498.4453">-String location</text><text fill="#000000" font-family="sans-serif" font-size="20" lengthAdjust="spacing" textLength="84" x="457.5" y="522">-Int area</text><text fill="#000000" font-family="sans-serif" font-size="20" lengthAdjust="spacing" textLength="186" x="457.5" y="545.5547">-Int distanceCenter</text><text fill="#000000" font-family="sans-serif" font-size="20" lengthAdjust="spacing" textLength="182" x="457.5" y="569.1094">-String description</text><text fill="#000000" font-family="sans-serif" font-size="20" lengthAdjust="spacing" textLength="124" x="457.5" y="592.6641">-photograph</text><text fill="#000000" font-family="sans-serif" font-size="20" lengthAdjust="spacing" textLength="138" x="457.5" y="616.2188">-Owner owner</text><line style="stroke:#181818;stroke-width:0.5;" x1="452.5" x2="648.5" y1="624.4375" y2="624.4375"/><text fill="#000000" font-family="sans-serif" font-size="20" lengthAdjust="spacing" textLength="97" x="457.5" y="647.7734">+getInfo()</text></g><!--link UI to ctrl--><g id="link_UI_ctrl"><path codeLine="59" d="M410.05,79 C419.33,79 429.86,79 439.94,79 " fill="none" id="UI-to-ctrl" style="stroke:#181818;stroke-width:1.0;stroke-dasharray:7.0,7.0;"/><polygon fill="#181818" points="445.17,79,436.17,75,440.17,79,436.17,83,445.17,79" style="stroke:#181818;stroke-width:1.0;"/></g><!--link ctrl to Property--><g id="link_ctrl_Property"><path codeLine="62" d="M553.98,151.02 C541.44,182.27 529.5,212 529.5,212 C529.5,212 529.5,309 529.5,309 C529.5,309 533.09,345.8 537.31,388.96 " fill="none" id="ctrl-to-Property" style="stroke:#181818;stroke-width:1.0;stroke-dasharray:7.0,7.0;"/><polygon fill="#181818" points="537.8,393.97,540.9085,384.6246,537.3152,388.9936,532.9462,385.4003,537.8,393.97" style="stroke:#181818;stroke-width:1.0;"/></g><!--link ctrl to VisitRequest--><g id="link_ctrl_VisitRequest"><path codeLine="63" d="M719.51,116.24 C867.24,155.32 1081.5,212 1081.5,212 C1081.5,212 1081.5,309 1081.5,309 C1081.5,309 1078.27,395.82 1075.91,459.12 " fill="none" id="ctrl-to-VisitRequest" style="stroke:#181818;stroke-width:1.0;stroke-dasharray:7.0,7.0;"/><polygon fill="#181818" points="1075.72,464.4,1080.0522,455.5551,1075.9061,459.4035,1072.0578,455.2573,1075.72,464.4" style="stroke:#181818;stroke-width:1.0;"/></g><!--link ctrl to AnnouncementAvailable--><g id="link_ctrl_AnnouncementAvailable"><path codeLine="64" d="M670.96,151.2 C694.77,170.37 720.04,190.71 742.18,208.53 " fill="none" id="ctrl-to-AnnouncementAvailable" style="stroke:#181818;stroke-width:1.0;stroke-dasharray:7.0,7.0;"/><polygon fill="#181818" points="746.28,211.83,741.7627,203.0782,742.3798,208.7013,736.7568,209.3185,746.28,211.83" style="stroke:#181818;stroke-width:1.0;"/></g><!--link ctrl to SendEmail--><g id="link_ctrl_SendEmail"><path codeLine="65" d="M445.5,148.5 C396.29,173.1 342.57,199.97 300.3,221.1 " fill="none" id="ctrl-to-SendEmail" style="stroke:#181818;stroke-width:1.0;stroke-dasharray:7.0,7.0;"/><polygon fill="#181818" points="295.72,223.39,305.5581,222.9302,300.1893,221.1482,301.9713,215.7794,295.72,223.39" style="stroke:#181818;stroke-width:1.0;"/></g><!--reverse link AnnouncementAvailable to Agent--><g id="link_AnnouncementAvailable_Agent"><path codeLine="66" d="M805.5,322.09 C805.5,369.01 805.5,433.09 805.5,476.37 " fill="none" id="AnnouncementAvailable-backto-Agent" style="stroke:#181818;stroke-width:1.0;"/><polygon fill="none" points="805.5,309.04,801.5,315.04,805.5,321.04,809.5,315.04,805.5,309.04" style="stroke:#181818;stroke-width:1.0;"/><text fill="#000000" font-family="sans-serif" font-size="20" lengthAdjust="spacing" textLength="13" x="791.6266" y="336.4737">1</text><text fill="#000000" font-family="sans-serif" font-size="20" lengthAdjust="spacing" textLength="13" x="791.5859" y="464.2815">1</text></g><!--link AnnouncementAvailable to Property--><g id="link_AnnouncementAvailable_Property"><path codeLine="67" d="M751.89,309.26 C733.98,325.21 718.5,339 718.5,339 C718.5,339 688.05,372.53 653.08,411.04 " fill="none" id="AnnouncementAvailable-to-Property" style="stroke:#181818;stroke-width:1.0;"/><polygon fill="#181818" points="649.68,414.78,658.6984,410.8216,653.0476,411.0842,652.7851,405.4334,649.68,414.78" style="stroke:#181818;stroke-width:1.0;"/><text fill="#000000" font-family="sans-serif" font-size="20" lengthAdjust="spacing" textLength="77" x="719.5" y="359.3359">is about</text><text fill="#000000" font-family="sans-serif" font-size="20" lengthAdjust="spacing" textLength="13" x="731.1884" y="336.3453">1</text><text fill="#000000" font-family="sans-serif" font-size="20" lengthAdjust="spacing" textLength="13" x="657.4409" y="402.1978">1</text></g><!--reverse link AnnouncementAvailable to VisitRequest--><g id="link_AnnouncementAvailable_VisitRequest"><path codeLine="68" d="M863.45,318.26 C907.48,361.39 967.89,420.56 1012.63,464.38 " fill="none" id="AnnouncementAvailable-backto-VisitRequest" style="stroke:#181818;stroke-width:1.0;"/><polygon fill="none" points="854.03,309.04,855.5211,316.0953,862.6071,317.4324,861.116,310.3772,854.03,309.04" style="stroke:#181818;stroke-width:1.0;"/><text fill="#000000" font-family="sans-serif" font-size="20" lengthAdjust="spacing" textLength="13" x="846.6778" y="336.4737">1</text><text fill="#000000" font-family="sans-serif" font-size="20" lengthAdjust="spacing" textLength="29" x="974.9153" y="452.4286">1.*</text></g><!--SRC=[XL9BRzim3BxhLn2vD5dZeDjnXm91qGA-R4E3xAx8ZAD55Zs9Rf45- - -ZvVWHBDXyC4No8_dn4O_Mrpheof4vOW45xdNZ-8KyR-mlX4yFwYxs6AZ8apa4gX0uDAX6JwtDKPUuuPD326XO-z9D0V6W2tgtleIzTd7gSTOZdsg4cjofLQOL1oS59ZM9Cax7k6OETjSmvePyulkWr9t3FGCJ15iU60hRqh7abKenC5jxJuqtMA7d9saqa7COPg0Z60xkh42-UsqCrlpTHikl-BF1o9qzu0_9TyjUqHl-RO_eY-TAMwVKxvx1AyQQV345R_D4O9kV1QPwhkjIEBQ4Cgyh57bV8d-HvtmnPDlq1GGtLfjlP3GoxGfZbCKiuQ8p9VSYLRaKcSnZ_IPElNDucSBUEiPm4p7VDL6s4-EoNT0o45LnqKK9oM-1QWnycX2TjdlkXyCRrjp4dcvCsfWc3M0-wb_VFOQKyvAqhmDTnYpt3BRetdtBGk_A8BUkqqKC4JgW7hN22WrfzqbgOxWABJ2QOEinkZuGKnbqVUZqH12e_QkEDGZjtE-fOzr-snnMZ-dMsXs8W5NsE7GoMgwEQR3UNCRe7iv1tGJ2xECCACkIJDFz1owJVAqSXlmPR0IzeuR_cttrONRTWFe3]--></g></svg>