<?xml version="1.0" encoding="UTF-8" standalone="no"?><svg xmlns="http://www.w3.org/2000/svg" xmlns:xlink="http://www.w3.org/1999/xlink" contentStyleType="text/css" height="1175px" preserveAspectRatio="none" style="width:1042px;height:1175px;background:#FFFFFF;" version="1.1" viewBox="0 0 1042 1175" width="1042px" zoomAndPan="magnify"><defs/><g><!--class ctrl--><g id="elem_ctrl"><rect codeLine="11" fill="#F1F1F1" height="97.1094" id="ctrl" rx="2.5" ry="2.5" style="stroke:#181818;stroke-width:0.5;" width="445" x="159" y="42.5"/><ellipse cx="297" cy="59.5" fill="#ADD1B2" rx="12" ry="12" style="stroke:#181818;stroke-width:1.0;"/><path d="M299.8066,66.5801 Q299.123,66.9316 298.3711,67.1074 Q297.6191,67.2832 296.7891,67.2832 Q293.8398,67.2832 292.2871,65.3398 Q290.7344,63.3965 290.7344,59.7246 Q290.7344,56.043 292.2871,54.0996 Q293.8398,52.1563 296.7891,52.1563 Q297.6191,52.1563 298.3809,52.332 Q299.1426,52.5078 299.8066,52.8594 L299.8066,56.0625 Q299.0645,55.3789 298.3662,55.0615 Q297.668,54.7441 296.9258,54.7441 Q295.3438,54.7441 294.5381,55.999 Q293.7324,57.2539 293.7324,59.7246 Q293.7324,62.1855 294.5381,63.4404 Q295.3438,64.6953 296.9258,64.6953 Q297.668,64.6953 298.3662,64.3779 Q299.0645,64.0605 299.8066,63.377 Z " fill="#000000"/><text fill="#000000" font-family="sans-serif" font-size="20" lengthAdjust="spacing" textLength="160" x="319" y="67.0586">ListingController</text><line style="stroke:#181818;stroke-width:0.5;" x1="160" x2="603" y1="76.5" y2="76.5"/><line style="stroke:#181818;stroke-width:0.5;" x1="160" x2="603" y1="84.5" y2="84.5"/><text fill="#000000" font-family="sans-serif" font-size="20" lengthAdjust="spacing" textLength="433" x="165" y="107.8359">+ListingController(announcementRepository)</text><text fill="#000000" font-family="sans-serif" font-size="20" lengthAdjust="spacing" textLength="174" x="165" y="131.3906">+getPropertyList()</text></g><!--class AnnouncementRepository--><g id="elem_AnnouncementRepository"><rect codeLine="21" fill="#F1F1F1" height="167.7734" id="AnnouncementRepository" rx="2.5" ry="2.5" style="stroke:#181818;stroke-width:0.5;" width="396" x="639.5" y="7"/><ellipse cx="710" cy="24" fill="#ADD1B2" rx="12" ry="12" style="stroke:#181818;stroke-width:1.0;"/><path d="M712.8066,31.0801 Q712.123,31.4316 711.3711,31.6074 Q710.6191,31.7832 709.7891,31.7832 Q706.8398,31.7832 705.2871,29.8398 Q703.7344,27.8965 703.7344,24.2246 Q703.7344,20.543 705.2871,18.5996 Q706.8398,16.6563 709.7891,16.6563 Q710.6191,16.6563 711.3809,16.832 Q712.1426,17.0078 712.8066,17.3594 L712.8066,20.5625 Q712.0645,19.8789 711.3662,19.5615 Q710.668,19.2441 709.9258,19.2441 Q708.3438,19.2441 707.5381,20.499 Q706.7324,21.7539 706.7324,24.2246 Q706.7324,26.6855 707.5381,27.9404 Q708.3438,29.1953 709.9258,29.1953 Q710.668,29.1953 711.3662,28.8779 Q712.0645,28.5605 712.8066,27.877 Z " fill="#000000"/><text fill="#000000" font-family="sans-serif" font-size="20" lengthAdjust="spacing" textLength="246" x="732" y="31.5586">AnnouncementRepository</text><line style="stroke:#181818;stroke-width:0.5;" x1="640.5" x2="1034.5" y1="41" y2="41"/><line style="stroke:#181818;stroke-width:0.5;" x1="640.5" x2="1034.5" y1="49" y2="49"/><text fill="#000000" font-family="sans-serif" font-size="20" lengthAdjust="spacing" textLength="384" x="645.5" y="72.3359">+getPropertyList(business, type, rooms)</text><text fill="#000000" font-family="sans-serif" font-size="20" lengthAdjust="spacing" textLength="283" x="645.5" y="95.8906">+sortByPriceAsc(PropertyList)</text><text fill="#000000" font-family="sans-serif" font-size="20" lengthAdjust="spacing" textLength="295" x="645.5" y="119.4453">+sortByPriceDesc(PropertyList)</text><text fill="#000000" font-family="sans-serif" font-size="20" lengthAdjust="spacing" textLength="307" x="645.5" y="143">+sortByPriceParish(PropertyList)</text><text fill="#000000" font-family="sans-serif" font-size="20" lengthAdjust="spacing" textLength="267" x="645.5" y="166.5547">+sortByRecent(PropertyList)</text></g><!--class Property--><g id="elem_Property"><rect codeLine="29" fill="#F1F1F1" height="285.5469" id="Property" rx="2.5" ry="2.5" style="stroke:#181818;stroke-width:0.5;" width="244" x="464.5" y="583"/><ellipse cx="542" cy="600" fill="#ADD1B2" rx="12" ry="12" style="stroke:#181818;stroke-width:1.0;"/><path d="M544.8066,607.0801 Q544.123,607.4316 543.3711,607.6074 Q542.6191,607.7832 541.7891,607.7832 Q538.8398,607.7832 537.2871,605.8398 Q535.7344,603.8965 535.7344,600.2246 Q535.7344,596.543 537.2871,594.5996 Q538.8398,592.6563 541.7891,592.6563 Q542.6191,592.6563 543.3809,592.832 Q544.1426,593.0078 544.8066,593.3594 L544.8066,596.5625 Q544.0645,595.8789 543.3662,595.5615 Q542.668,595.2441 541.9258,595.2441 Q540.3438,595.2441 539.5381,596.499 Q538.7324,597.7539 538.7324,600.2246 Q538.7324,602.6855 539.5381,603.9404 Q540.3438,605.1953 541.9258,605.1953 Q542.668,605.1953 543.3662,604.8779 Q544.0645,604.5605 544.8066,603.877 Z " fill="#000000"/><text fill="#000000" font-family="sans-serif" font-size="20" lengthAdjust="spacing" textLength="80" x="564" y="607.5586">Property</text><line style="stroke:#181818;stroke-width:0.5;" x1="465.5" x2="707.5" y1="617" y2="617"/><text fill="#000000" font-family="sans-serif" font-size="20" lengthAdjust="spacing" textLength="62" x="470.5" y="640.3359">-Int id</text><text fill="#000000" font-family="sans-serif" font-size="20" lengthAdjust="spacing" textLength="115" x="470.5" y="663.8906">-String type</text><text fill="#000000" font-family="sans-serif" font-size="20" lengthAdjust="spacing" textLength="150" x="470.5" y="687.4453">-String location</text><text fill="#000000" font-family="sans-serif" font-size="20" lengthAdjust="spacing" textLength="84" x="470.5" y="711">-Int area</text><text fill="#000000" font-family="sans-serif" font-size="20" lengthAdjust="spacing" textLength="186" x="470.5" y="734.5547">-Int distanceCenter</text><text fill="#000000" font-family="sans-serif" font-size="20" lengthAdjust="spacing" textLength="182" x="470.5" y="758.1094">-String description</text><text fill="#000000" font-family="sans-serif" font-size="20" lengthAdjust="spacing" textLength="124" x="470.5" y="781.6641">-photograph</text><text fill="#000000" font-family="sans-serif" font-size="20" lengthAdjust="spacing" textLength="138" x="470.5" y="805.2188">-Owner owner</text><line style="stroke:#181818;stroke-width:0.5;" x1="465.5" x2="707.5" y1="813.4375" y2="813.4375"/><text fill="#000000" font-family="sans-serif" font-size="20" lengthAdjust="spacing" textLength="134" x="470.5" y="836.7734">+isType(type)</text><text fill="#000000" font-family="sans-serif" font-size="20" lengthAdjust="spacing" textLength="232" x="470.5" y="860.3281">+numberRooms(rooms)</text></g><!--class Apartment--><g id="elem_Apartment"><rect codeLine="102" fill="#F1F1F1" height="167.7734" id="Apartment" rx="2.5" ry="2.5" style="stroke:#181818;stroke-width:0.5;" width="244" x="185.5" y="965"/><ellipse cx="252" cy="982" fill="#ADD1B2" rx="12" ry="12" style="stroke:#181818;stroke-width:1.0;"/><path d="M254.8066,989.0801 Q254.123,989.4316 253.3711,989.6074 Q252.6191,989.7832 251.7891,989.7832 Q248.8398,989.7832 247.2871,987.8398 Q245.7344,985.8965 245.7344,982.2246 Q245.7344,978.543 247.2871,976.5996 Q248.8398,974.6563 251.7891,974.6563 Q252.6191,974.6563 253.3809,974.832 Q254.1426,975.0078 254.8066,975.3594 L254.8066,978.5625 Q254.0645,977.8789 253.3662,977.5615 Q252.668,977.2441 251.9258,977.2441 Q250.3438,977.2441 249.5381,978.499 Q248.7324,979.7539 248.7324,982.2246 Q248.7324,984.6855 249.5381,985.9404 Q250.3438,987.1953 251.9258,987.1953 Q252.668,987.1953 253.3662,986.8779 Q254.0645,986.5605 254.8066,985.877 Z " fill="#000000"/><text fill="#000000" font-family="sans-serif" font-size="20" lengthAdjust="spacing" textLength="102" x="274" y="989.5586">Apartment</text><line style="stroke:#181818;stroke-width:0.5;" x1="186.5" x2="428.5" y1="999" y2="999"/><text fill="#000000" font-family="sans-serif" font-size="20" lengthAdjust="spacing" textLength="184" x="191.5" y="1022.3359">-Int numberRooms</text><text fill="#000000" font-family="sans-serif" font-size="20" lengthAdjust="spacing" textLength="221" x="191.5" y="1045.8906">-Int numberBathrooms</text><text fill="#000000" font-family="sans-serif" font-size="20" lengthAdjust="spacing" textLength="190" x="191.5" y="1069.4453">-Int numberParking</text><text fill="#000000" font-family="sans-serif" font-size="20" lengthAdjust="spacing" textLength="178" x="191.5" y="1093">-String equipment</text><line style="stroke:#181818;stroke-width:0.5;" x1="186.5" x2="428.5" y1="1101.2188" y2="1101.2188"/><text fill="#000000" font-family="sans-serif" font-size="20" lengthAdjust="spacing" textLength="232" x="191.5" y="1124.5547">+numberRooms(rooms)</text></g><!--class House--><g id="elem_House"><rect codeLine="103" fill="#F1F1F1" height="238.4375" id="House" rx="2.5" ry="2.5" style="stroke:#181818;stroke-width:0.5;" width="244" x="464.5" y="930"/><ellipse cx="552" cy="947" fill="#ADD1B2" rx="12" ry="12" style="stroke:#181818;stroke-width:1.0;"/><path d="M554.8066,954.0801 Q554.123,954.4316 553.3711,954.6074 Q552.6191,954.7832 551.7891,954.7832 Q548.8398,954.7832 547.2871,952.8398 Q545.7344,950.8965 545.7344,947.2246 Q545.7344,943.543 547.2871,941.5996 Q548.8398,939.6563 551.7891,939.6563 Q552.6191,939.6563 553.3809,939.832 Q554.1426,940.0078 554.8066,940.3594 L554.8066,943.5625 Q554.0645,942.8789 553.3662,942.5615 Q552.668,942.2441 551.9258,942.2441 Q550.3438,942.2441 549.5381,943.499 Q548.7324,944.7539 548.7324,947.2246 Q548.7324,949.6855 549.5381,950.9404 Q550.3438,952.1953 551.9258,952.1953 Q552.668,952.1953 553.3662,951.8779 Q554.0645,951.5605 554.8066,950.877 Z " fill="#000000"/><text fill="#000000" font-family="sans-serif" font-size="20" lengthAdjust="spacing" textLength="60" x="574" y="954.5586">House</text><line style="stroke:#181818;stroke-width:0.5;" x1="465.5" x2="707.5" y1="964" y2="964"/><text fill="#000000" font-family="sans-serif" font-size="20" lengthAdjust="spacing" textLength="184" x="470.5" y="987.3359">-Int numberRooms</text><text fill="#000000" font-family="sans-serif" font-size="20" lengthAdjust="spacing" textLength="221" x="470.5" y="1010.8906">-Int numberBathrooms</text><text fill="#000000" font-family="sans-serif" font-size="20" lengthAdjust="spacing" textLength="190" x="470.5" y="1034.4453">-Int numberParking</text><text fill="#000000" font-family="sans-serif" font-size="20" lengthAdjust="spacing" textLength="178" x="470.5" y="1058">-String equipment</text><text fill="#000000" font-family="sans-serif" font-size="20" lengthAdjust="spacing" textLength="106" x="470.5" y="1081.5547">-basement</text><text fill="#000000" font-family="sans-serif" font-size="20" lengthAdjust="spacing" textLength="44" x="470.5" y="1105.1094">-loft</text><text fill="#000000" font-family="sans-serif" font-size="20" lengthAdjust="spacing" textLength="135" x="470.5" y="1128.6641">-sunExposure</text><line style="stroke:#181818;stroke-width:0.5;" x1="465.5" x2="707.5" y1="1136.8828" y2="1136.8828"/><text fill="#000000" font-family="sans-serif" font-size="20" lengthAdjust="spacing" textLength="232" x="470.5" y="1160.2188">+numberRooms(rooms)</text></g><!--class Land--><g id="elem_Land"><rect codeLine="104" fill="#F1F1F1" height="50" id="Land" rx="2.5" ry="2.5" style="stroke:#181818;stroke-width:0.5;" width="81" x="744" y="1024"/><ellipse cx="760" cy="1041" fill="#ADD1B2" rx="12" ry="12" style="stroke:#181818;stroke-width:1.0;"/><path d="M762.8066,1048.0801 Q762.123,1048.4316 761.3711,1048.6074 Q760.6191,1048.7832 759.7891,1048.7832 Q756.8398,1048.7832 755.2871,1046.8398 Q753.7344,1044.8965 753.7344,1041.2246 Q753.7344,1037.543 755.2871,1035.5996 Q756.8398,1033.6563 759.7891,1033.6563 Q760.6191,1033.6563 761.3809,1033.832 Q762.1426,1034.0078 762.8066,1034.3594 L762.8066,1037.5625 Q762.0645,1036.8789 761.3662,1036.5615 Q760.668,1036.2441 759.9258,1036.2441 Q758.3438,1036.2441 757.5381,1037.499 Q756.7324,1038.7539 756.7324,1041.2246 Q756.7324,1043.6855 757.5381,1044.9404 Q758.3438,1046.1953 759.9258,1046.1953 Q760.668,1046.1953 761.3662,1045.8779 Q762.0645,1045.5605 762.8066,1044.877 Z " fill="#000000"/><text fill="#000000" font-family="sans-serif" font-size="20" lengthAdjust="spacing" textLength="47" x="775" y="1048.5586">Land</text><line style="stroke:#181818;stroke-width:0.5;" x1="745" x2="824" y1="1058" y2="1058"/><line style="stroke:#181818;stroke-width:0.5;" x1="745" x2="824" y1="1066" y2="1066"/></g><!--class Announcement--><g id="elem_Announcement"><rect codeLine="70" fill="#F1F1F1" height="238.4375" id="Announcement" rx="2.5" ry="2.5" style="stroke:#181818;stroke-width:0.5;" width="377" x="649" y="260"/><ellipse cx="761" cy="277" fill="#ADD1B2" rx="12" ry="12" style="stroke:#181818;stroke-width:1.0;"/><path d="M763.8066,284.0801 Q763.123,284.4316 762.3711,284.6074 Q761.6191,284.7832 760.7891,284.7832 Q757.8398,284.7832 756.2871,282.8398 Q754.7344,280.8965 754.7344,277.2246 Q754.7344,273.543 756.2871,271.5996 Q757.8398,269.6563 760.7891,269.6563 Q761.6191,269.6563 762.3809,269.832 Q763.1426,270.0078 763.8066,270.3594 L763.8066,273.5625 Q763.0645,272.8789 762.3662,272.5615 Q761.668,272.2441 760.9258,272.2441 Q759.3438,272.2441 758.5381,273.499 Q757.7324,274.7539 757.7324,277.2246 Q757.7324,279.6855 758.5381,280.9404 Q759.3438,282.1953 760.9258,282.1953 Q761.668,282.1953 762.3662,281.8779 Q763.0645,281.5605 763.8066,280.877 Z " fill="#000000"/><text fill="#000000" font-family="sans-serif" font-size="20" lengthAdjust="spacing" textLength="144" x="783" y="284.5586">Announcement</text><line style="stroke:#181818;stroke-width:0.5;" x1="650" x2="1025" y1="294" y2="294"/><text fill="#000000" font-family="sans-serif" font-size="20" lengthAdjust="spacing" textLength="62" x="655" y="317.3359">-Int id</text><text fill="#000000" font-family="sans-serif" font-size="20" lengthAdjust="spacing" textLength="104" x="655" y="340.8906">-Date date</text><text fill="#000000" font-family="sans-serif" font-size="20" lengthAdjust="spacing" textLength="184" x="655" y="364.4453">-Double comission</text><text fill="#000000" font-family="sans-serif" font-size="20" lengthAdjust="spacing" textLength="135" x="655" y="388">-Double price</text><text fill="#000000" font-family="sans-serif" font-size="20" lengthAdjust="spacing" textLength="212" x="655" y="411.5547">-Property PropertyList</text><text fill="#000000" font-family="sans-serif" font-size="20" lengthAdjust="spacing" textLength="127" x="655" y="435.1094">-Agent agent</text><line style="stroke:#181818;stroke-width:0.5;" x1="650" x2="1025" y1="443.3281" y2="443.3281"/><text fill="#000000" font-family="sans-serif" font-size="20" lengthAdjust="spacing" textLength="365" x="655" y="466.6641">+filterProperty(business, type, rooms)</text><text fill="#000000" font-family="sans-serif" font-size="20" lengthAdjust="spacing" textLength="213" x="655" y="490.2188">+isBusiness(business)</text></g><!--class SearchUI--><g id="elem_SearchUI"><rect codeLine="81" fill="#F1F1F1" height="50" id="SearchUI" rx="2.5" ry="2.5" style="stroke:#181818;stroke-width:0.5;" width="117" x="7" y="66"/><ellipse cx="23" cy="83" fill="#ADD1B2" rx="12" ry="12" style="stroke:#181818;stroke-width:1.0;"/><path d="M25.8066,90.0801 Q25.123,90.4316 24.3711,90.6074 Q23.6191,90.7832 22.7891,90.7832 Q19.8398,90.7832 18.2871,88.8398 Q16.7344,86.8965 16.7344,83.2246 Q16.7344,79.543 18.2871,77.5996 Q19.8398,75.6563 22.7891,75.6563 Q23.6191,75.6563 24.3809,75.832 Q25.1426,76.0078 25.8066,76.3594 L25.8066,79.5625 Q25.0645,78.8789 24.3662,78.5615 Q23.668,78.2441 22.9258,78.2441 Q21.3438,78.2441 20.5381,79.499 Q19.7324,80.7539 19.7324,83.2246 Q19.7324,85.6855 20.5381,86.9404 Q21.3438,88.1953 22.9258,88.1953 Q23.668,88.1953 24.3662,87.8779 Q25.0645,87.5605 25.8066,86.877 Z " fill="#000000"/><text fill="#000000" font-family="sans-serif" font-size="20" lengthAdjust="spacing" textLength="83" x="38" y="90.5586">SearchUI</text><line style="stroke:#181818;stroke-width:0.5;" x1="8" x2="123" y1="100" y2="100"/><line style="stroke:#181818;stroke-width:0.5;" x1="8" x2="123" y1="108" y2="108"/></g><!--class Repositories--><g id="elem_Repositories"><rect codeLine="84" fill="#F1F1F1" height="120.6641" id="Repositories" rx="2.5" ry="2.5" style="stroke:#181818;stroke-width:0.5;" width="318" x="106.5" y="318.5"/><ellipse cx="201.5" cy="335.5" fill="#ADD1B2" rx="12" ry="12" style="stroke:#181818;stroke-width:1.0;"/><path d="M204.3066,342.5801 Q203.623,342.9316 202.8711,343.1074 Q202.1191,343.2832 201.2891,343.2832 Q198.3398,343.2832 196.7871,341.3398 Q195.2344,339.3965 195.2344,335.7246 Q195.2344,332.043 196.7871,330.0996 Q198.3398,328.1563 201.2891,328.1563 Q202.1191,328.1563 202.8809,328.332 Q203.6426,328.5078 204.3066,328.8594 L204.3066,332.0625 Q203.5645,331.3789 202.8662,331.0615 Q202.168,330.7441 201.4258,330.7441 Q199.8438,330.7441 199.0381,331.999 Q198.2324,333.2539 198.2324,335.7246 Q198.2324,338.1855 199.0381,339.4404 Q199.8438,340.6953 201.4258,340.6953 Q202.168,340.6953 202.8662,340.3779 Q203.5645,340.0605 204.3066,339.377 Z " fill="#000000"/><text fill="#000000" font-family="sans-serif" font-size="20" lengthAdjust="spacing" textLength="119" x="223.5" y="343.0586">Repositories</text><line style="stroke:#181818;stroke-width:0.5;" x1="107.5" x2="423.5" y1="352.5" y2="352.5"/><line style="stroke:#181818;stroke-width:0.5;" x1="107.5" x2="423.5" y1="360.5" y2="360.5"/><text fill="#000000" font-family="sans-serif" font-size="20" lengthAdjust="spacing" textLength="145" x="112.5" y="383.8359">-Repositories()</text><text fill="#000000" font-family="sans-serif" font-size="20" lengthAdjust="spacing" textLength="276" x="112.5" y="407.3906">+getInstance() : Repositories</text><text fill="#000000" font-family="sans-serif" font-size="20" lengthAdjust="spacing" textLength="306" x="112.5" y="430.9453">+getAnnouncementRepository()</text></g><!--class UU--><g id="elem_UU"><rect codeLine="90" fill="#F1F1F1" height="50" id="UU" rx="2.5" ry="2.5" style="stroke:#181818;stroke-width:0.5;" width="204" x="743.5" y="701"/><ellipse cx="759.5" cy="718" fill="#ADD1B2" rx="12" ry="12" style="stroke:#181818;stroke-width:1.0;"/><path d="M762.3066,725.0801 Q761.623,725.4316 760.8711,725.6074 Q760.1191,725.7832 759.2891,725.7832 Q756.3398,725.7832 754.7871,723.8398 Q753.2344,721.8965 753.2344,718.2246 Q753.2344,714.543 754.7871,712.5996 Q756.3398,710.6563 759.2891,710.6563 Q760.1191,710.6563 760.8809,710.832 Q761.6426,711.0078 762.3066,711.3594 L762.3066,714.5625 Q761.5645,713.8789 760.8662,713.5615 Q760.168,713.2441 759.4258,713.2441 Q757.8438,713.2441 757.0381,714.499 Q756.2324,715.7539 756.2324,718.2246 Q756.2324,720.6855 757.0381,721.9404 Q757.8438,723.1953 759.4258,723.1953 Q760.168,723.1953 760.8662,722.8779 Q761.5645,722.5605 762.3066,721.877 Z " fill="#000000"/><text fill="#000000" font-family="sans-serif" font-size="20" lengthAdjust="spacing" textLength="170" x="774.5" y="725.5586">Unregistered user</text><line style="stroke:#181818;stroke-width:0.5;" x1="744.5" x2="946.5" y1="735" y2="735"/><line style="stroke:#181818;stroke-width:0.5;" x1="744.5" x2="946.5" y1="743" y2="743"/></g><!--link SearchUI to ctrl--><g id="link_SearchUI_ctrl"><path codeLine="96" d="M124.02,91 C134.79,91 145.23,91 153.51,91 " fill="none" id="SearchUI-to-ctrl" style="stroke:#181818;stroke-width:1.0;stroke-dasharray:7.0,7.0;"/><polygon fill="#181818" points="158.88,91,149.88,87,153.88,91,149.88,95,158.88,91" style="stroke:#181818;stroke-width:1.0;"/></g><!--link ctrl to AnnouncementRepository--><g id="link_ctrl_AnnouncementRepository"><path codeLine="98" d="M604.16,91 C614.33,91 624.62,91 634.31,91 " fill="none" id="ctrl-to-AnnouncementRepository" style="stroke:#181818;stroke-width:1.0;stroke-dasharray:7.0,7.0;"/><polygon fill="#181818" points="639.32,91,630.32,87,634.32,91,630.32,95,639.32,91" style="stroke:#181818;stroke-width:1.0;"/></g><!--link ctrl to Repositories--><g id="link_ctrl_Repositories"><path codeLine="99" d="M362.21,139.55 C342.89,187.19 313.02,260.85 291.58,313.69 " fill="none" id="ctrl-to-Repositories" style="stroke:#181818;stroke-width:1.0;stroke-dasharray:7.0,7.0;"/><polygon fill="#181818" points="289.67,318.42,296.7446,311.568,291.5392,313.7826,289.3247,308.5772,289.67,318.42" style="stroke:#181818;stroke-width:1.0;"/></g><!--link ctrl to Property--><g id="link_ctrl_Property"><path codeLine="100" d="M429.48,139.69 C479.44,189.36 550.5,260 550.5,260 C550.5,260 564.55,441.51 575.1,577.73 " fill="none" id="ctrl-to-Property" style="stroke:#181818;stroke-width:1.0;stroke-dasharray:7.0,7.0;"/><polygon fill="#181818" points="575.5,582.96,578.7939,573.6783,575.1143,577.9749,570.8177,574.2953,575.5,582.96" style="stroke:#181818;stroke-width:1.0;"/></g><!--reverse link Property to Apartment--><g id="link_Property_Apartment"><path d="M450.89,883.02 C426.29,911.33 401.52,939.83 379.65,964.98 " fill="none" id="Property-backto-Apartment" style="stroke:#181818;stroke-width:1.0;"/><polygon fill="none" points="445.72,878.3,464.13,867.8,456.29,887.48,445.72,878.3" style="stroke:#181818;stroke-width:1.0;"/></g><!--reverse link Property to House--><g id="link_Property_House"><path d="M586.5,889.25 C586.5,902.96 586.5,916.66 586.5,929.94 " fill="none" id="Property-backto-House" style="stroke:#181818;stroke-width:1.0;"/><polygon fill="none" points="579.5,889.2,586.5,869.2,593.5,889.2,579.5,889.2" style="stroke:#181818;stroke-width:1.0;"/></g><!--reverse link Property to Land--><g id="link_Property_Land"><path d="M695.33,885.94 C712.92,911.63 725.5,930 725.5,930 C725.5,930 755.16,989.31 772.42,1023.84 " fill="none" id="Property-backto-Land" style="stroke:#181818;stroke-width:1.0;"/><polygon fill="none" points="689.32,889.55,683.8,869.09,700.87,881.64,689.32,889.55" style="stroke:#181818;stroke-width:1.0;"/></g><!--link Repositories to Repositories--><g id="link_Repositories_Repositories"><path codeLine="107" d="M424.58,352.3 C445.58,356.85 459.5,365.75 459.5,379 C459.5,391.11 447.87,399.59 429.83,404.43 " fill="none" id="Repositories-to-Repositories" style="stroke:#181818;stroke-width:1.0;"/><polygon fill="#181818" points="424.58,405.7,434.267,407.4784,429.4406,404.5277,432.3913,399.7014,424.58,405.7" style="stroke:#181818;stroke-width:1.0;"/><text fill="#000000" font-family="sans-serif" font-size="20" lengthAdjust="spacing" textLength="79" x="465.5" y="386.8359">instance</text></g><!--link AnnouncementRepository to Announcement--><g id="link_AnnouncementRepository_Announcement"><path codeLine="109" d="M837.5,175.11 C837.5,200.03 837.5,227.91 837.5,254.83 " fill="none" id="AnnouncementRepository-to-Announcement" style="stroke:#181818;stroke-width:1.0;"/><polygon fill="#181818" points="837.5,259.85,841.5,250.85,837.5,254.85,833.5,250.85,837.5,259.85" style="stroke:#181818;stroke-width:1.0;"/><text fill="#000000" font-family="sans-serif" font-size="20" lengthAdjust="spacing" textLength="144" x="838.5" y="225.3359">Announcement</text></g><!--link Announcement to Property--><g id="link_Announcement_Property"><path codeLine="110" d="M751.47,498.25 C732.68,524.08 712.57,551.71 693.09,578.49 " fill="none" id="Announcement-to-Property" style="stroke:#181818;stroke-width:1.0;"/><polygon fill="#181818" points="689.97,582.78,698.5006,577.8576,692.9126,578.7376,692.0326,573.1496,689.97,582.78" style="stroke:#181818;stroke-width:1.0;"/><text fill="#000000" font-family="sans-serif" font-size="20" lengthAdjust="spacing" textLength="77" x="728.5" y="548.3359">is about</text></g><!--link Announcement to UU--><g id="link_Announcement_UU"><path codeLine="112" d="M840.24,498.25 C841.87,568.54 843.81,652.21 844.82,695.61 " fill="none" id="Announcement-to-UU" style="stroke:#181818;stroke-width:1.0;"/><polygon fill="#181818" points="844.94,700.69,848.7333,691.6009,844.8257,695.6913,840.7354,691.7838,844.94,700.69" style="stroke:#181818;stroke-width:1.0;"/><text fill="#000000" font-family="sans-serif" font-size="20" lengthAdjust="spacing" textLength="93" x="842.5" y="548.3359">is view by</text></g><!--SRC=[jLHDRzim3BthLmYzr4MReTXnXm9fks412YnebXyWsumjL1OzIbxg5Vlle_pjnkrscG-6IJvAZ-GptPEsfI9L64oU89Kf75Hb_1UqVgT_WVnuBSvTZv45ManomWAafmh462bLygGosFdQW2H8lBAPcG9Shb8yQfl9Wp9k6Z7QWgzBa2MQEXZJ6uSWaaSnoKgCScxjFUcuyh19q3PyhuKuDt3mqgCadULUfZhGqMY5Q7BasODsdedSSOs4nW2TIULauicy224aFvSda4XPYvLDe03h7w54fprIVT72PGP-IrW2-JgaHXTyaFZTtxXUp9KlRoJ7bUEgdRkIeV8hIOY5wszot8ZRUaiwWRLBecdY0kGU_exPAj8kVmVr20aJVmKOYklTNJchZVLIf-ttZiV34mzbp1miDjMCPCXG16gqKhv2SSFk-5wWMMhA5P4kn-moHuyPgJ9lxMz72oGnlBjXIks-CuCeqEWgirKH0ps6naPTUyTfiS1y6DMqead2Q-UjyZaj1RYnBDTiHXz-LBeCX_VSbfbqLBvYvU3_qcYyiN8mMWOFtPUhxETdrcj5y4zy7vHDcUwoyfS4Sgyyo9HVdObLpFiZmK8xDqouyvP1hArdqDnKasredOMhLDPNSoaFsh28UkIxVvTsjrrqW4s4iGD5IRxVS263R_YTDRY-m9apcgo8ZMrb7Lt8JpFG25bU5T64nTdU4cHSBn3lQzP7kxxs-z3uPXO3pmytpLRZJ7u7Q_dqBhowcNCQl7thJdyGUFPWqt47p6JxHh3Ho4bCY5adNt7XTkckTqAyiKrNgtbzd3CrPsaDU10H7-waYh7ouXJ5VMtYFpKSPLoBFm00]--></g></svg>