<?xml version="1.0" encoding="UTF-8" standalone="no"?><svg xmlns="http://www.w3.org/2000/svg" xmlns:xlink="http://www.w3.org/1999/xlink" contentStyleType="text/css" height="653px" preserveAspectRatio="none" style="width:921px;height:653px;background:#FFFFFF;" version="1.1" viewBox="0 0 921 653" width="921px" zoomAndPan="magnify"><defs/><g><rect fill="#FFFFFF" height="471.7656" style="stroke:#181818;stroke-width:1.0;" width="10" x="243" y="106.6641"/><rect fill="#FFFFFF" height="37.5547" style="stroke:#181818;stroke-width:1.0;" width="10" x="767.5" y="185.3281"/><rect fill="#FFFFFF" height="37.5547" style="stroke:#181818;stroke-width:1.0;" width="10" x="767.5" y="285.9922"/><rect fill="#FFFFFF" height="37.5547" style="stroke:#181818;stroke-width:1.0;" width="10" x="767.5" y="386.6563"/><rect fill="#FFFFFF" height="37.5547" style="stroke:#181818;stroke-width:1.0;" width="10" x="767.5" y="487.3203"/><rect fill="none" height="411.2109" style="stroke:#000000;stroke-width:1.5;" width="766" x="148" y="121.6641"/><line style="stroke:#181818;stroke-width:0.5;stroke-dasharray:5.0,5.0;" x1="248" x2="248" y1="67.1094" y2="587.4297"/><line style="stroke:#181818;stroke-width:0.5;stroke-dasharray:5.0,5.0;" x1="417" x2="417" y1="67.1094" y2="587.4297"/><line style="stroke:#181818;stroke-width:0.5;stroke-dasharray:5.0,5.0;" x1="564" x2="564" y1="67.1094" y2="587.4297"/><line style="stroke:#181818;stroke-width:0.5;stroke-dasharray:5.0,5.0;" x1="772" x2="772" y1="67.1094" y2="587.4297"/><rect fill="#E3E3E3" height="37.5547" rx="2.5" ry="2.5" style="stroke:#181818;stroke-width:0.5;" width="180" x="158" y="28.5547"/><text fill="#000000" font-family="sans-serif" font-size="20" lengthAdjust="spacing" textLength="166" x="165" y="54.8906">:ListingController</text><rect fill="#E3E3E3" height="37.5547" rx="2.5" ry="2.5" style="stroke:#181818;stroke-width:0.5;" width="180" x="158" y="586.4297"/><text fill="#000000" font-family="sans-serif" font-size="20" lengthAdjust="spacing" textLength="166" x="165" y="612.7656">:ListingController</text><rect fill="#E3E3E3" height="37.5547" rx="2.5" ry="2.5" style="stroke:#181818;stroke-width:0.5;" width="139" x="348" y="28.5547"/><text fill="#000000" font-family="sans-serif" font-size="20" lengthAdjust="spacing" textLength="125" x="355" y="54.8906">:Repositories</text><rect fill="#E3E3E3" height="37.5547" rx="2.5" ry="2.5" style="stroke:#181818;stroke-width:0.5;" width="139" x="348" y="586.4297"/><text fill="#000000" font-family="sans-serif" font-size="20" lengthAdjust="spacing" textLength="125" x="355" y="612.7656">:Repositories</text><rect fill="#E3E3E3" height="61.1094" rx="2.5" ry="2.5" style="stroke:#181818;stroke-width:0.5;" width="134" x="497" y="5"/><text fill="#000000" font-family="sans-serif" font-size="20" lengthAdjust="spacing" textLength="120" x="504" y="31.3359">repositories:</text><text fill="#000000" font-family="sans-serif" font-size="20" lengthAdjust="spacing" textLength="119" x="504.5" y="54.8906">Repositories</text><rect fill="#E3E3E3" height="61.1094" rx="2.5" ry="2.5" style="stroke:#181818;stroke-width:0.5;" width="134" x="497" y="586.4297"/><text fill="#000000" font-family="sans-serif" font-size="20" lengthAdjust="spacing" textLength="120" x="504" y="612.7656">repositories:</text><text fill="#000000" font-family="sans-serif" font-size="20" lengthAdjust="spacing" textLength="119" x="504.5" y="636.3203">Repositories</text><rect fill="#E3E3E3" height="61.1094" rx="2.5" ry="2.5" style="stroke:#181818;stroke-width:0.5;" width="263" x="641" y="5"/><text fill="#000000" font-family="sans-serif" font-size="20" lengthAdjust="spacing" textLength="249" x="648" y="31.3359">announcementRepository:</text><text fill="#000000" font-family="sans-serif" font-size="20" lengthAdjust="spacing" textLength="246" x="649.5" y="54.8906">AnnouncementRepository</text><rect fill="#E3E3E3" height="61.1094" rx="2.5" ry="2.5" style="stroke:#181818;stroke-width:0.5;" width="263" x="641" y="586.4297"/><text fill="#000000" font-family="sans-serif" font-size="20" lengthAdjust="spacing" textLength="249" x="648" y="612.7656">announcementRepository:</text><text fill="#000000" font-family="sans-serif" font-size="20" lengthAdjust="spacing" textLength="246" x="649.5" y="636.3203">AnnouncementRepository</text><rect fill="#FFFFFF" height="471.7656" style="stroke:#181818;stroke-width:1.0;" width="10" x="243" y="106.6641"/><rect fill="#FFFFFF" height="37.5547" style="stroke:#181818;stroke-width:1.0;" width="10" x="767.5" y="185.3281"/><rect fill="#FFFFFF" height="37.5547" style="stroke:#181818;stroke-width:1.0;" width="10" x="767.5" y="285.9922"/><rect fill="#FFFFFF" height="37.5547" style="stroke:#181818;stroke-width:1.0;" width="10" x="767.5" y="386.6563"/><rect fill="#FFFFFF" height="37.5547" style="stroke:#181818;stroke-width:1.0;" width="10" x="767.5" y="487.3203"/><polygon fill="#181818" points="231,102.6641,241,106.6641,231,110.6641,235,106.6641" style="stroke:#181818;stroke-width:1.0;"/><line style="stroke:#181818;stroke-width:1.0;" x1="0" x2="237" y1="106.6641" y2="106.6641"/><text fill="#000000" font-family="sans-serif" font-size="20" font-weight="bold" lengthAdjust="spacing" textLength="26" x="7" y="100.4453">27</text><text fill="#000000" font-family="sans-serif" font-size="20" lengthAdjust="spacing" textLength="158" x="37" y="100.4453">getPropertyList()</text><path d="M148,121.6641 L220,121.6641 L220,137.2188 L210,147.2188 L148,147.2188 L148,121.6641 " fill="#EEEEEE" style="stroke:#000000;stroke-width:1.5;"/><rect fill="none" height="411.2109" style="stroke:#000000;stroke-width:1.5;" width="766" x="148" y="121.6641"/><text fill="#000000" font-family="sans-serif" font-size="20" font-weight="bold" lengthAdjust="spacing" textLength="27" x="163" y="142">alt</text><text fill="#000000" font-family="sans-serif" font-size="20" font-weight="bold" lengthAdjust="spacing" textLength="180" x="235" y="143">[type==priceAsc]</text><polygon fill="#181818" points="755.5,181.3281,765.5,185.3281,755.5,189.3281,759.5,185.3281" style="stroke:#181818;stroke-width:1.0;"/><line style="stroke:#181818;stroke-width:1.0;" x1="253" x2="761.5" y1="185.3281" y2="185.3281"/><text fill="#000000" font-family="sans-serif" font-size="20" font-weight="bold" lengthAdjust="spacing" textLength="26" x="260" y="179.1094">28</text><text fill="#000000" font-family="sans-serif" font-size="20" lengthAdjust="spacing" textLength="269" x="290" y="179.1094">sortByPriceAsc(propertyList)</text><polygon fill="#181818" points="264,218.8828,254,222.8828,264,226.8828,260,222.8828" style="stroke:#181818;stroke-width:1.0;"/><line style="stroke:#181818;stroke-width:1.0;stroke-dasharray:2.0,2.0;" x1="258" x2="771.5" y1="222.8828" y2="222.8828"/><text fill="#000000" font-family="sans-serif" font-size="20" font-weight="bold" lengthAdjust="spacing" textLength="26" x="270" y="216.6641">29</text><text fill="#000000" font-family="sans-serif" font-size="20" lengthAdjust="spacing" textLength="194" x="300" y="216.6641">PropertyListOrdered</text><line style="stroke:#000000;stroke-width:1.0;stroke-dasharray:2.0,2.0;" x1="148" x2="914" y1="231.8828" y2="231.8828"/><text fill="#000000" font-family="sans-serif" font-size="20" font-weight="bold" lengthAdjust="spacing" textLength="193" x="153" y="251.2188">[type==priceDesc]</text><polygon fill="#181818" points="755.5,281.9922,765.5,285.9922,755.5,289.9922,759.5,285.9922" style="stroke:#181818;stroke-width:1.0;"/><line style="stroke:#181818;stroke-width:1.0;" x1="253" x2="761.5" y1="285.9922" y2="285.9922"/><text fill="#000000" font-family="sans-serif" font-size="20" font-weight="bold" lengthAdjust="spacing" textLength="26" x="260" y="279.7734">30</text><text fill="#000000" font-family="sans-serif" font-size="20" lengthAdjust="spacing" textLength="281" x="290" y="279.7734">sortByPriceDesc(propertyList)</text><polygon fill="#181818" points="264,319.5469,254,323.5469,264,327.5469,260,323.5469" style="stroke:#181818;stroke-width:1.0;"/><line style="stroke:#181818;stroke-width:1.0;stroke-dasharray:2.0,2.0;" x1="258" x2="771.5" y1="323.5469" y2="323.5469"/><text fill="#000000" font-family="sans-serif" font-size="20" font-weight="bold" lengthAdjust="spacing" textLength="26" x="270" y="317.3281">31</text><text fill="#000000" font-family="sans-serif" font-size="20" lengthAdjust="spacing" textLength="194" x="300" y="317.3281">PropertyListOrdered</text><line style="stroke:#000000;stroke-width:1.0;stroke-dasharray:2.0,2.0;" x1="148" x2="914" y1="332.5469" y2="332.5469"/><text fill="#000000" font-family="sans-serif" font-size="20" font-weight="bold" lengthAdjust="spacing" textLength="156" x="153" y="351.8828">[type==parish]</text><polygon fill="#181818" points="755.5,382.6563,765.5,386.6563,755.5,390.6563,759.5,386.6563" style="stroke:#181818;stroke-width:1.0;"/><line style="stroke:#181818;stroke-width:1.0;" x1="253" x2="761.5" y1="386.6563" y2="386.6563"/><text fill="#000000" font-family="sans-serif" font-size="20" font-weight="bold" lengthAdjust="spacing" textLength="26" x="260" y="380.4375">32</text><text fill="#000000" font-family="sans-serif" font-size="20" lengthAdjust="spacing" textLength="247" x="290" y="380.4375">sortByParish(propertyList)</text><polygon fill="#181818" points="264,420.2109,254,424.2109,264,428.2109,260,424.2109" style="stroke:#181818;stroke-width:1.0;"/><line style="stroke:#181818;stroke-width:1.0;stroke-dasharray:2.0,2.0;" x1="258" x2="771.5" y1="424.2109" y2="424.2109"/><text fill="#000000" font-family="sans-serif" font-size="20" font-weight="bold" lengthAdjust="spacing" textLength="26" x="270" y="417.9922">33</text><text fill="#000000" font-family="sans-serif" font-size="20" lengthAdjust="spacing" textLength="194" x="300" y="417.9922">PropertyListOrdered</text><line style="stroke:#000000;stroke-width:1.0;stroke-dasharray:2.0,2.0;" x1="148" x2="914" y1="433.2109" y2="433.2109"/><text fill="#000000" font-family="sans-serif" font-size="20" font-weight="bold" lengthAdjust="spacing" textLength="156" x="153" y="452.5469">[type==recent]</text><polygon fill="#181818" points="755.5,483.3203,765.5,487.3203,755.5,491.3203,759.5,487.3203" style="stroke:#181818;stroke-width:1.0;"/><line style="stroke:#181818;stroke-width:1.0;" x1="253" x2="761.5" y1="487.3203" y2="487.3203"/><text fill="#000000" font-family="sans-serif" font-size="20" font-weight="bold" lengthAdjust="spacing" textLength="26" x="260" y="481.1016">34</text><text fill="#000000" font-family="sans-serif" font-size="20" lengthAdjust="spacing" textLength="253" x="290" y="481.1016">sortByRecent(propertyList)</text><polygon fill="#181818" points="264,520.875,254,524.875,264,528.875,260,524.875" style="stroke:#181818;stroke-width:1.0;"/><line style="stroke:#181818;stroke-width:1.0;stroke-dasharray:2.0,2.0;" x1="258" x2="771.5" y1="524.875" y2="524.875"/><text fill="#000000" font-family="sans-serif" font-size="20" font-weight="bold" lengthAdjust="spacing" textLength="26" x="270" y="518.6563">35</text><text fill="#000000" font-family="sans-serif" font-size="20" lengthAdjust="spacing" textLength="194" x="300" y="518.6563">PropertyListOrdered</text><polygon fill="#181818" points="11,565.4297,1,569.4297,11,573.4297,7,569.4297" style="stroke:#181818;stroke-width:1.0;"/><line style="stroke:#181818;stroke-width:1.0;stroke-dasharray:2.0,2.0;" x1="5" x2="242" y1="569.4297" y2="569.4297"/><text fill="#000000" font-family="sans-serif" font-size="20" font-weight="bold" lengthAdjust="spacing" textLength="26" x="17" y="563.2109">36</text><text fill="#000000" font-family="sans-serif" font-size="20" lengthAdjust="spacing" textLength="194" x="47" y="563.2109">PropertyListOrdered</text><!--SRC=[hPHFQy904CNl-HH3Jte852-5K0lMjYT1YJtsijsCSJ7PNMOdBUcdxvfMsVn1HTnZvirx-tuiSJkbhI1H5aRkC8CCDw8g-CreNgiVXCbzv0uIA8qsSakcH62gC9XO8NSYnpNN1GAXPA7p8XIuhSZCjz8vR4JXC6gE7x6IoWhDS9Sib6ClcFjeCaM1T0V2mVmzNNI4ALhZ51jIw1fD-hfQjZKKI98FtTlmyqwyqDfKMcA9ce_osk_E1WUDItVKb18L6rsLdqWmUOZYfwP10ZdoYen5udfVT3JsoeA1QulJgIKbSUPa545mX6Jr9HZ_68IJ_GVltCrF09mXVgvN_tuZ6qIEMnQjW7uH63XT5SJ7Tc6r9ML8c0rQP7Z8R4UWVnCXYnVimhYuzdxrJEyhkj-eVvT1JnI24AJSTlWwPqaqknTWk1B53N6SUXPzAFxVukC6LUUOfCtgPKokGt8x8aD0K6T1-cCSdx3-1G00]--></g></svg>