<?xml version="1.0" encoding="UTF-8" standalone="no"?><svg xmlns="http://www.w3.org/2000/svg" xmlns:xlink="http://www.w3.org/1999/xlink" contentStyleType="text/css" height="593px" preserveAspectRatio="none" style="width:2140px;height:593px;background:#FFFFFF;" version="1.1" viewBox="0 0 2140 593" width="2140px" zoomAndPan="magnify"><defs/><g><!--class ctrl--><g id="elem_ctrl"><rect codeLine="11" fill="#F1F1F1" height="73.5547" id="ctrl" rx="2.5" ry="2.5" style="stroke:#181818;stroke-width:0.5;" width="274" x="955" y="7"/><ellipse cx="971" cy="24" fill="#ADD1B2" rx="12" ry="12" style="stroke:#181818;stroke-width:1.0;"/><path d="M973.8066,31.0801 Q973.123,31.4316 972.3711,31.6074 Q971.6191,31.7832 970.7891,31.7832 Q967.8398,31.7832 966.2871,29.8398 Q964.7344,27.8965 964.7344,24.2246 Q964.7344,20.543 966.2871,18.5996 Q967.8398,16.6563 970.7891,16.6563 Q971.6191,16.6563 972.3809,16.832 Q973.1426,17.0078 973.8066,17.3594 L973.8066,20.5625 Q973.0645,19.8789 972.3662,19.5615 Q971.668,19.2441 970.9258,19.2441 Q969.3438,19.2441 968.5381,20.499 Q967.7324,21.7539 967.7324,24.2246 Q967.7324,26.6855 968.5381,27.9404 Q969.3438,29.1953 970.9258,29.1953 Q971.668,29.1953 972.3662,28.8779 Q973.0645,28.5605 973.8066,27.877 Z " fill="#000000"/><text fill="#000000" font-family="sans-serif" font-size="20" lengthAdjust="spacing" textLength="240" x="986" y="31.5586">AnnouncementController</text><line style="stroke:#181818;stroke-width:0.5;" x1="956" x2="1228" y1="41" y2="41"/><line style="stroke:#181818;stroke-width:0.5;" x1="956" x2="1228" y1="49" y2="49"/><text fill="#000000" font-family="sans-serif" font-size="20" lengthAdjust="spacing" textLength="194" x="961" y="72.3359">getListingSoldDTO()</text></g><!--class Repositories--><g id="elem_Repositories"><rect codeLine="18" fill="#F1F1F1" height="120.6641" id="Repositories" rx="2.5" ry="2.5" style="stroke:#181818;stroke-width:0.5;" width="318" x="522" y="166"/><ellipse cx="617" cy="183" fill="#ADD1B2" rx="12" ry="12" style="stroke:#181818;stroke-width:1.0;"/><path d="M619.8066,190.0801 Q619.123,190.4316 618.3711,190.6074 Q617.6191,190.7832 616.7891,190.7832 Q613.8398,190.7832 612.2871,188.8398 Q610.7344,186.8965 610.7344,183.2246 Q610.7344,179.543 612.2871,177.5996 Q613.8398,175.6563 616.7891,175.6563 Q617.6191,175.6563 618.3809,175.832 Q619.1426,176.0078 619.8066,176.3594 L619.8066,179.5625 Q619.0645,178.8789 618.3662,178.5615 Q617.668,178.2441 616.9258,178.2441 Q615.3438,178.2441 614.5381,179.499 Q613.7324,180.7539 613.7324,183.2246 Q613.7324,185.6855 614.5381,186.9404 Q615.3438,188.1953 616.9258,188.1953 Q617.668,188.1953 618.3662,187.8779 Q619.0645,187.5605 619.8066,186.877 Z " fill="#000000"/><text fill="#000000" font-family="sans-serif" font-size="20" lengthAdjust="spacing" textLength="119" x="639" y="190.5586">Repositories</text><line style="stroke:#181818;stroke-width:0.5;" x1="523" x2="839" y1="200" y2="200"/><line style="stroke:#181818;stroke-width:0.5;" x1="523" x2="839" y1="208" y2="208"/><text fill="#000000" font-family="sans-serif" font-size="20" lengthAdjust="spacing" textLength="145" x="528" y="231.3359">-Repositories()</text><text fill="#000000" font-family="sans-serif" font-size="20" lengthAdjust="spacing" textLength="276" x="528" y="254.8906">+getInstance() : Repositories</text><text fill="#000000" font-family="sans-serif" font-size="20" lengthAdjust="spacing" textLength="306" x="528" y="278.4453">+getAnnouncementRepository()</text></g><!--class appSession--><g id="elem_appSession"><rect codeLine="30" fill="#F1F1F1" height="97.1094" id="appSession" rx="2.5" ry="2.5" style="stroke:#181818;stroke-width:0.5;" width="216" x="984" y="178"/><ellipse cx="1000" cy="195" fill="#ADD1B2" rx="12" ry="12" style="stroke:#181818;stroke-width:1.0;"/><path d="M1002.8066,202.0801 Q1002.123,202.4316 1001.3711,202.6074 Q1000.6191,202.7832 999.7891,202.7832 Q996.8398,202.7832 995.2871,200.8398 Q993.7344,198.8965 993.7344,195.2246 Q993.7344,191.543 995.2871,189.5996 Q996.8398,187.6563 999.7891,187.6563 Q1000.6191,187.6563 1001.3809,187.832 Q1002.1426,188.0078 1002.8066,188.3594 L1002.8066,191.5625 Q1002.0645,190.8789 1001.3662,190.5615 Q1000.668,190.2441 999.9258,190.2441 Q998.3438,190.2441 997.5381,191.499 Q996.7324,192.7539 996.7324,195.2246 Q996.7324,197.6855 997.5381,198.9404 Q998.3438,200.1953 999.9258,200.1953 Q1000.668,200.1953 1001.3662,199.8779 Q1002.0645,199.5605 1002.8066,198.877 Z " fill="#000000"/><text fill="#000000" font-family="sans-serif" font-size="20" lengthAdjust="spacing" textLength="182" x="1015" y="202.5586">ApplicationSession</text><line style="stroke:#181818;stroke-width:0.5;" x1="985" x2="1199" y1="212" y2="212"/><line style="stroke:#181818;stroke-width:0.5;" x1="985" x2="1199" y1="220" y2="220"/><text fill="#000000" font-family="sans-serif" font-size="20" lengthAdjust="spacing" textLength="139" x="990" y="243.3359">+getInstance()</text><text fill="#000000" font-family="sans-serif" font-size="20" lengthAdjust="spacing" textLength="204" x="990" y="266.8906">+getCurrentSession()</text></g><!--class userSession--><g id="elem_userSession"><rect codeLine="42" fill="#F1F1F1" height="73.5547" id="userSession" rx="2.5" ry="2.5" style="stroke:#181818;stroke-width:0.5;" width="149" x="1349.5" y="189.5"/><ellipse cx="1365.5" cy="206.5" fill="#ADD1B2" rx="12" ry="12" style="stroke:#181818;stroke-width:1.0;"/><path d="M1368.3066,213.5801 Q1367.623,213.9316 1366.8711,214.1074 Q1366.1191,214.2832 1365.2891,214.2832 Q1362.3398,214.2832 1360.7871,212.3398 Q1359.2344,210.3965 1359.2344,206.7246 Q1359.2344,203.043 1360.7871,201.0996 Q1362.3398,199.1563 1365.2891,199.1563 Q1366.1191,199.1563 1366.8809,199.332 Q1367.6426,199.5078 1368.3066,199.8594 L1368.3066,203.0625 Q1367.5645,202.3789 1366.8662,202.0615 Q1366.168,201.7441 1365.4258,201.7441 Q1363.8438,201.7441 1363.0381,202.999 Q1362.2324,204.2539 1362.2324,206.7246 Q1362.2324,209.1855 1363.0381,210.4404 Q1363.8438,211.6953 1365.4258,211.6953 Q1366.168,211.6953 1366.8662,211.3779 Q1367.5645,211.0605 1368.3066,210.377 Z " fill="#000000"/><text fill="#000000" font-family="sans-serif" font-size="20" lengthAdjust="spacing" textLength="115" x="1380.5" y="214.0586">UserSession</text><line style="stroke:#181818;stroke-width:0.5;" x1="1350.5" x2="1497.5" y1="223.5" y2="223.5"/><line style="stroke:#181818;stroke-width:0.5;" x1="1350.5" x2="1497.5" y1="231.5" y2="231.5"/><text fill="#000000" font-family="sans-serif" font-size="20" lengthAdjust="spacing" textLength="113" x="1355.5" y="254.8359">+getEmail()</text></g><!--class AnnouncementSold--><g id="elem_AnnouncementSold"><rect codeLine="51" fill="#F1F1F1" height="214.8828" id="AnnouncementSold" rx="2.5" ry="2.5" style="stroke:#181818;stroke-width:0.5;" width="220" x="1442" y="372"/><ellipse cx="1458" cy="389" fill="#ADD1B2" rx="12" ry="12" style="stroke:#181818;stroke-width:1.0;"/><path d="M1460.8066,396.0801 Q1460.123,396.4316 1459.3711,396.6074 Q1458.6191,396.7832 1457.7891,396.7832 Q1454.8398,396.7832 1453.2871,394.8398 Q1451.7344,392.8965 1451.7344,389.2246 Q1451.7344,385.543 1453.2871,383.5996 Q1454.8398,381.6563 1457.7891,381.6563 Q1458.6191,381.6563 1459.3809,381.832 Q1460.1426,382.0078 1460.8066,382.3594 L1460.8066,385.5625 Q1460.0645,384.8789 1459.3662,384.5615 Q1458.668,384.2441 1457.9258,384.2441 Q1456.3438,384.2441 1455.5381,385.499 Q1454.7324,386.7539 1454.7324,389.2246 Q1454.7324,391.6855 1455.5381,392.9404 Q1456.3438,394.1953 1457.9258,394.1953 Q1458.668,394.1953 1459.3662,393.8779 Q1460.0645,393.5605 1460.8066,392.877 Z " fill="#000000"/><text fill="#000000" font-family="sans-serif" font-size="20" lengthAdjust="spacing" textLength="186" x="1473" y="396.5586">AnnouncementSold</text><line style="stroke:#181818;stroke-width:0.5;" x1="1443" x2="1661" y1="406" y2="406"/><text fill="#000000" font-family="sans-serif" font-size="20" lengthAdjust="spacing" textLength="62" x="1448" y="429.3359">-Int id</text><text fill="#000000" font-family="sans-serif" font-size="20" lengthAdjust="spacing" textLength="104" x="1448" y="452.8906">-Date date</text><text fill="#000000" font-family="sans-serif" font-size="20" lengthAdjust="spacing" textLength="184" x="1448" y="476.4453">-Double comission</text><text fill="#000000" font-family="sans-serif" font-size="20" lengthAdjust="spacing" textLength="135" x="1448" y="500">-Double price</text><text fill="#000000" font-family="sans-serif" font-size="20" lengthAdjust="spacing" textLength="178" x="1448" y="523.5547">-Property Property</text><text fill="#000000" font-family="sans-serif" font-size="20" lengthAdjust="spacing" textLength="127" x="1448" y="547.1094">-Agent agent</text><text fill="#000000" font-family="sans-serif" font-size="20" lengthAdjust="spacing" textLength="196" x="1448" y="570.6641">-List&lt;Order&gt; Order</text><line style="stroke:#181818;stroke-width:0.5;" x1="1443" x2="1661" y1="578.8828" y2="578.8828"/></g><!--class NetworkManager--><g id="elem_NetworkManager"><rect codeLine="61" fill="#F1F1F1" height="73.5547" id="NetworkManager" rx="2.5" ry="2.5" style="stroke:#181818;stroke-width:0.5;" width="204" x="1920" y="189.5"/><ellipse cx="1939.6" cy="206.5" fill="#ADD1B2" rx="12" ry="12" style="stroke:#181818;stroke-width:1.0;"/><path d="M1942.4066,213.5801 Q1941.723,213.9316 1940.9711,214.1074 Q1940.2191,214.2832 1939.3891,214.2832 Q1936.4398,214.2832 1934.8871,212.3398 Q1933.3344,210.3965 1933.3344,206.7246 Q1933.3344,203.043 1934.8871,201.0996 Q1936.4398,199.1563 1939.3891,199.1563 Q1940.2191,199.1563 1940.9809,199.332 Q1941.7426,199.5078 1942.4066,199.8594 L1942.4066,203.0625 Q1941.6645,202.3789 1940.9662,202.0615 Q1940.268,201.7441 1939.5258,201.7441 Q1937.9438,201.7441 1937.1381,202.999 Q1936.3324,204.2539 1936.3324,206.7246 Q1936.3324,209.1855 1937.1381,210.4404 Q1937.9438,211.6953 1939.5258,211.6953 Q1940.268,211.6953 1940.9662,211.3779 Q1941.6645,211.0605 1942.4066,210.377 Z " fill="#000000"/><text fill="#000000" font-family="sans-serif" font-size="20" lengthAdjust="spacing" textLength="162" x="1955.4" y="214.0586">NetworkManager</text><line style="stroke:#181818;stroke-width:0.5;" x1="1921" x2="2123" y1="223.5" y2="223.5"/><line style="stroke:#181818;stroke-width:0.5;" x1="1921" x2="2123" y1="231.5" y2="231.5"/><text fill="#000000" font-family="sans-serif" font-size="20" lengthAdjust="spacing" textLength="192" x="1926" y="254.8359">isNetworkManager()</text></g><!--class DoneDealsListUI--><g id="elem_DoneDealsListUI"><rect codeLine="65" fill="#F1F1F1" height="50" id="DoneDealsListUI" rx="2.5" ry="2.5" style="stroke:#181818;stroke-width:0.5;" width="191" x="340.5" y="19"/><ellipse cx="356.5" cy="36" fill="#ADD1B2" rx="12" ry="12" style="stroke:#181818;stroke-width:1.0;"/><path d="M359.3066,43.0801 Q358.623,43.4316 357.8711,43.6074 Q357.1191,43.7832 356.2891,43.7832 Q353.3398,43.7832 351.7871,41.8398 Q350.2344,39.8965 350.2344,36.2246 Q350.2344,32.543 351.7871,30.5996 Q353.3398,28.6563 356.2891,28.6563 Q357.1191,28.6563 357.8809,28.832 Q358.6426,29.0078 359.3066,29.3594 L359.3066,32.5625 Q358.5645,31.8789 357.8662,31.5615 Q357.168,31.2441 356.4258,31.2441 Q354.8438,31.2441 354.0381,32.499 Q353.2324,33.7539 353.2324,36.2246 Q353.2324,38.6855 354.0381,39.9404 Q354.8438,41.1953 356.4258,41.1953 Q357.168,41.1953 357.8662,40.8779 Q358.5645,40.5605 359.3066,39.877 Z " fill="#000000"/><text fill="#000000" font-family="sans-serif" font-size="20" lengthAdjust="spacing" textLength="157" x="371.5" y="43.5586">DoneDealsListUI</text><line style="stroke:#181818;stroke-width:0.5;" x1="341.5" x2="530.5" y1="53" y2="53"/><line style="stroke:#181818;stroke-width:0.5;" x1="341.5" x2="530.5" y1="61" y2="61"/></g><!--class AnnouncementDTO--><g id="elem_AnnouncementDTO"><rect codeLine="72" fill="#F1F1F1" height="214.8828" id="AnnouncementDTO" rx="2.5" ry="2.5" style="stroke:#181818;stroke-width:0.5;" width="222" x="7" y="372"/><ellipse cx="23" cy="389" fill="#ADD1B2" rx="12" ry="12" style="stroke:#181818;stroke-width:1.0;"/><path d="M25.8066,396.0801 Q25.123,396.4316 24.3711,396.6074 Q23.6191,396.7832 22.7891,396.7832 Q19.8398,396.7832 18.2871,394.8398 Q16.7344,392.8965 16.7344,389.2246 Q16.7344,385.543 18.2871,383.5996 Q19.8398,381.6563 22.7891,381.6563 Q23.6191,381.6563 24.3809,381.832 Q25.1426,382.0078 25.8066,382.3594 L25.8066,385.5625 Q25.0645,384.8789 24.3662,384.5615 Q23.668,384.2441 22.9258,384.2441 Q21.3438,384.2441 20.5381,385.499 Q19.7324,386.7539 19.7324,389.2246 Q19.7324,391.6855 20.5381,392.9404 Q21.3438,394.1953 22.9258,394.1953 Q23.668,394.1953 24.3662,393.8779 Q25.0645,393.5605 25.8066,392.877 Z " fill="#000000"/><text fill="#000000" font-family="sans-serif" font-size="20" lengthAdjust="spacing" textLength="188" x="38" y="396.5586">AnnouncementDTO</text><line style="stroke:#181818;stroke-width:0.5;" x1="8" x2="228" y1="406" y2="406"/><text fill="#000000" font-family="sans-serif" font-size="20" lengthAdjust="spacing" textLength="62" x="13" y="429.3359">-Int id</text><text fill="#000000" font-family="sans-serif" font-size="20" lengthAdjust="spacing" textLength="104" x="13" y="452.8906">-Date date</text><text fill="#000000" font-family="sans-serif" font-size="20" lengthAdjust="spacing" textLength="184" x="13" y="476.4453">-Double comission</text><text fill="#000000" font-family="sans-serif" font-size="20" lengthAdjust="spacing" textLength="135" x="13" y="500">-Double price</text><text fill="#000000" font-family="sans-serif" font-size="20" lengthAdjust="spacing" textLength="178" x="13" y="523.5547">-Property Property</text><text fill="#000000" font-family="sans-serif" font-size="20" lengthAdjust="spacing" textLength="127" x="13" y="547.1094">-Agent agent</text><text fill="#000000" font-family="sans-serif" font-size="20" lengthAdjust="spacing" textLength="196" x="13" y="570.6641">-List&lt;Order&gt; Order</text><line style="stroke:#181818;stroke-width:0.5;" x1="8" x2="228" y1="578.8828" y2="578.8828"/></g><!--class AnnouncementMapper--><g id="elem_AnnouncementMapper"><rect codeLine="84" fill="#F1F1F1" height="97.1094" id="AnnouncementMapper" rx="2.5" ry="2.5" style="stroke:#181818;stroke-width:0.5;" width="315" x="171.5" y="178"/><ellipse cx="216.3" cy="195" fill="#ADD1B2" rx="12" ry="12" style="stroke:#181818;stroke-width:1.0;"/><path d="M219.1066,202.0801 Q218.423,202.4316 217.6711,202.6074 Q216.9191,202.7832 216.0891,202.7832 Q213.1398,202.7832 211.5871,200.8398 Q210.0344,198.8965 210.0344,195.2246 Q210.0344,191.543 211.5871,189.5996 Q213.1398,187.6563 216.0891,187.6563 Q216.9191,187.6563 217.6809,187.832 Q218.4426,188.0078 219.1066,188.3594 L219.1066,191.5625 Q218.3645,190.8789 217.6662,190.5615 Q216.968,190.2441 216.2258,190.2441 Q214.6438,190.2441 213.8381,191.499 Q213.0324,192.7539 213.0324,195.2246 Q213.0324,197.6855 213.8381,198.9404 Q214.6438,200.1953 216.2258,200.1953 Q216.968,200.1953 217.6662,199.8779 Q218.3645,199.5605 219.1066,198.877 Z " fill="#000000"/><text fill="#000000" font-family="sans-serif" font-size="20" lengthAdjust="spacing" textLength="217" x="237.7" y="202.5586">AnnouncementMapper</text><line style="stroke:#181818;stroke-width:0.5;" x1="172.5" x2="485.5" y1="212" y2="212"/><line style="stroke:#181818;stroke-width:0.5;" x1="172.5" x2="485.5" y1="220" y2="220"/><text fill="#000000" font-family="sans-serif" font-size="20" lengthAdjust="spacing" textLength="303" x="177.5" y="243.3359">+toDto(ListAnnouncementSold)</text><text fill="#000000" font-family="sans-serif" font-size="20" lengthAdjust="spacing" textLength="269" x="177.5" y="266.8906">+toDto(AnnouncementSold)</text></g><!--class AnnouncementRepository--><g id="elem_AnnouncementRepository"><rect fill="#F1F1F1" height="50" id="AnnouncementRepository" rx="2.5" ry="2.5" style="stroke:#181818;stroke-width:0.5;" width="280" x="1605" y="201.5"/><ellipse cx="1621" cy="218.5" fill="#ADD1B2" rx="12" ry="12" style="stroke:#181818;stroke-width:1.0;"/><path d="M1623.8066,225.5801 Q1623.123,225.9316 1622.3711,226.1074 Q1621.6191,226.2832 1620.7891,226.2832 Q1617.8398,226.2832 1616.2871,224.3398 Q1614.7344,222.3965 1614.7344,218.7246 Q1614.7344,215.043 1616.2871,213.0996 Q1617.8398,211.1563 1620.7891,211.1563 Q1621.6191,211.1563 1622.3809,211.332 Q1623.1426,211.5078 1623.8066,211.8594 L1623.8066,215.0625 Q1623.0645,214.3789 1622.3662,214.0615 Q1621.668,213.7441 1620.9258,213.7441 Q1619.3438,213.7441 1618.5381,214.999 Q1617.7324,216.2539 1617.7324,218.7246 Q1617.7324,221.1855 1618.5381,222.4404 Q1619.3438,223.6953 1620.9258,223.6953 Q1621.668,223.6953 1622.3662,223.3779 Q1623.0645,223.0605 1623.8066,222.377 Z " fill="#000000"/><text fill="#000000" font-family="sans-serif" font-size="20" lengthAdjust="spacing" textLength="246" x="1636" y="226.0586">AnnouncementRepository</text><line style="stroke:#181818;stroke-width:0.5;" x1="1606" x2="1884" y1="235.5" y2="235.5"/><line style="stroke:#181818;stroke-width:0.5;" x1="1606" x2="1884" y1="243.5" y2="243.5"/></g><!--class UserSession--><g id="elem_UserSession"><rect fill="#F1F1F1" height="50" id="UserSession" rx="2.5" ry="2.5" style="stroke:#181818;stroke-width:0.5;" width="149" x="1606.5" y="19"/><ellipse cx="1622.5" cy="36" fill="#ADD1B2" rx="12" ry="12" style="stroke:#181818;stroke-width:1.0;"/><path d="M1625.3066,43.0801 Q1624.623,43.4316 1623.8711,43.6074 Q1623.1191,43.7832 1622.2891,43.7832 Q1619.3398,43.7832 1617.7871,41.8398 Q1616.2344,39.8965 1616.2344,36.2246 Q1616.2344,32.543 1617.7871,30.5996 Q1619.3398,28.6563 1622.2891,28.6563 Q1623.1191,28.6563 1623.8809,28.832 Q1624.6426,29.0078 1625.3066,29.3594 L1625.3066,32.5625 Q1624.5645,31.8789 1623.8662,31.5615 Q1623.168,31.2441 1622.4258,31.2441 Q1620.8438,31.2441 1620.0381,32.499 Q1619.2324,33.7539 1619.2324,36.2246 Q1619.2324,38.6855 1620.0381,39.9404 Q1620.8438,41.1953 1622.4258,41.1953 Q1623.168,41.1953 1623.8662,40.8779 Q1624.5645,40.5605 1625.3066,39.877 Z " fill="#000000"/><text fill="#000000" font-family="sans-serif" font-size="20" lengthAdjust="spacing" textLength="115" x="1637.5" y="43.5586">UserSession</text><line style="stroke:#181818;stroke-width:0.5;" x1="1607.5" x2="1754.5" y1="53" y2="53"/><line style="stroke:#181818;stroke-width:0.5;" x1="1607.5" x2="1754.5" y1="61" y2="61"/></g><!--link DoneDealsListUI to ctrl--><g id="link_DoneDealsListUI_ctrl"><path codeLine="91" d="M531.59,44 C590.43,44 654.67,44 654.67,44 C654.67,44 873.33,44 873.33,44 C873.33,44 907.95,44 949.64,44 " fill="none" id="DoneDealsListUI-to-ctrl" style="stroke:#181818;stroke-width:1.0;stroke-dasharray:7.0,7.0;"/><polygon fill="#181818" points="954.76,44,945.76,40,949.76,44,945.76,48,954.76,44" style="stroke:#181818;stroke-width:1.0;"/></g><!--link ctrl to AnnouncementRepository--><g id="link_ctrl_AnnouncementRepository"><path codeLine="93" d="M1229.32,63.65 C1373.04,83.17 1578,111 1578,111 C1578,111 1656.23,164.64 1705.6,198.49 " fill="none" id="ctrl-to-AnnouncementRepository" style="stroke:#181818;stroke-width:1.0;stroke-dasharray:7.0,7.0;"/><polygon fill="#181818" points="1709.99,201.5,1704.8397,193.1051,1705.8698,198.6674,1700.3075,199.6974,1709.99,201.5" style="stroke:#181818;stroke-width:1.0;"/></g><!--link ctrl to Repositories--><g id="link_ctrl_Repositories"><path codeLine="94" d="M1009.82,81.09 C956.05,104.71 884.41,136.17 821.73,163.7 " fill="none" id="ctrl-to-Repositories" style="stroke:#181818;stroke-width:1.0;stroke-dasharray:7.0,7.0;"/><polygon fill="#181818" points="816.85,165.84,826.6988,165.8715,821.4255,163.8239,823.4731,158.5506,816.85,165.84" style="stroke:#181818;stroke-width:1.0;"/></g><!--link ctrl to appSession--><g id="link_ctrl_appSession"><path codeLine="95" d="M1092,81.09 C1092,107.35 1092,143.32 1092,172.78 " fill="none" id="ctrl-to-appSession" style="stroke:#181818;stroke-width:1.0;stroke-dasharray:7.0,7.0;"/><polygon fill="#181818" points="1092,177.83,1096,168.83,1092,172.83,1088,168.83,1092,177.83" style="stroke:#181818;stroke-width:1.0;"/></g><!--link ctrl to AnnouncementSold--><g id="link_ctrl_AnnouncementSold"><path codeLine="96" d="M1218.35,81.06 C1343.31,116.72 1516,166 1516,166 C1516,166 1528.79,277.06 1539.13,366.77 " fill="none" id="ctrl-to-AnnouncementSold" style="stroke:#181818;stroke-width:1.0;stroke-dasharray:7.0,7.0;"/><polygon fill="#181818" points="1539.71,371.83,1542.6561,362.4321,1539.139,366.8627,1534.7084,363.3456,1539.71,371.83" style="stroke:#181818;stroke-width:1.0;"/></g><!--link ctrl to userSession--><g id="link_ctrl_userSession"><path codeLine="97" d="M1158.39,81.09 C1214.82,111.77 1295.63,155.71 1353.27,187.05 " fill="none" id="ctrl-to-userSession" style="stroke:#181818;stroke-width:1.0;stroke-dasharray:7.0,7.0;"/><polygon fill="#181818" points="1357.73,189.47,1351.7248,181.6638,1353.3345,187.0867,1347.9116,188.6965,1357.73,189.47" style="stroke:#181818;stroke-width:1.0;"/></g><!--link ctrl to AnnouncementMapper--><g id="link_ctrl_AnnouncementMapper"><path codeLine="98" d="M954.88,73.22 C781.13,108.97 504,166 504,166 C504,166 491.95,170.1 474.17,176.14 " fill="none" id="ctrl-to-AnnouncementMapper" style="stroke:#181818;stroke-width:1.0;stroke-dasharray:7.0,7.0;"/><polygon fill="#181818" points="469.01,177.9,478.8173,178.8043,473.7462,176.2974,476.2531,171.2264,469.01,177.9" style="stroke:#181818;stroke-width:1.0;"/></g><!--link ctrl to AnnouncementDTO--><g id="link_ctrl_AnnouncementDTO"><path codeLine="99" d="M954.85,62.69 C694.41,96.29 154,166 154,166 C154,166 141.21,277.06 130.87,366.77 " fill="none" id="ctrl-to-AnnouncementDTO" style="stroke:#181818;stroke-width:1.0;stroke-dasharray:7.0,7.0;"/><polygon fill="#181818" points="130.29,371.83,135.2916,363.3456,130.861,366.8627,127.3439,362.4321,130.29,371.83" style="stroke:#181818;stroke-width:1.0;"/></g><!--link DoneDealsListUI to AnnouncementDTO--><g id="link_DoneDealsListUI_AnnouncementDTO"><path codeLine="100" d="M340.18,63.38 C238.39,82.91 92,111 92,111 C92,111 92,342 92,342 C92,342 93.92,352.1 96.72,366.8 " fill="none" id="DoneDealsListUI-to-AnnouncementDTO" style="stroke:#181818;stroke-width:1.0;stroke-dasharray:7.0,7.0;"/><polygon fill="#181818" points="97.71,371.96,99.9694,362.3738,96.7817,367.0469,92.1085,363.8592,97.71,371.96" style="stroke:#181818;stroke-width:1.0;"/></g><!--link Repositories to Repositories--><g id="link_Repositories_Repositories"><path codeLine="104" d="M840.08,209.47 C861.08,212.37 875,218.05 875,226.5 C875,234.22 863.37,239.63 845.33,242.72 " fill="none" id="Repositories-to-Repositories" style="stroke:#181818;stroke-width:1.0;"/><polygon fill="#181818" points="840.08,243.53,849.5892,246.0943,845.0202,242.759,848.3555,238.19,840.08,243.53" style="stroke:#181818;stroke-width:1.0;"/><text fill="#000000" font-family="sans-serif" font-size="20" lengthAdjust="spacing" textLength="79" x="881" y="234.3359">instance</text></g><!--link AnnouncementRepository to AnnouncementSold--><g id="link_AnnouncementRepository_AnnouncementSold"><path codeLine="106" d="M1726.49,251.57 C1705.75,278.55 1670.63,324.22 1637.32,367.54 " fill="none" id="AnnouncementRepository-to-AnnouncementSold" style="stroke:#181818;stroke-width:1.0;"/><polygon fill="#181818" points="1634.1,371.73,1642.7489,367.0187,1637.141,367.761,1636.3986,362.1531,1634.1,371.73" style="stroke:#181818;stroke-width:1.0;"/><text fill="#000000" font-family="sans-serif" font-size="20" lengthAdjust="spacing" textLength="186" x="1673" y="337.3359">AnnouncementSold</text><text fill="#000000" font-family="sans-serif" font-size="20" lengthAdjust="spacing" textLength="13" x="1708.0191" y="278.9663">1</text><text fill="#000000" font-family="sans-serif" font-size="20" lengthAdjust="spacing" textLength="10" x="1629.5211" y="359.7034">*</text></g><!--link appSession to userSession--><g id="link_appSession_userSession"><path codeLine="108" d="M1200.25,226.5 C1247.16,226.5 1301.11,226.5 1344.27,226.5 " fill="none" id="appSession-to-userSession" style="stroke:#181818;stroke-width:1.0;"/><polygon fill="#181818" points="1349.48,226.5,1340.48,222.5,1344.48,226.5,1340.48,230.5,1349.48,226.5" style="stroke:#181818;stroke-width:1.0;"/><text fill="#000000" font-family="sans-serif" font-size="20" lengthAdjust="spacing" textLength="113" x="1218.25" y="218.8359">userSession</text></g><!--link AnnouncementMapper to AnnouncementSold--><g id="link_AnnouncementMapper_AnnouncementSold"><path codeLine="110" d="M469.01,275.1 C489.57,282.1 504,287 504,287 C504,287 1164.29,407.65 1436.65,457.42 " fill="none" id="AnnouncementMapper-to-AnnouncementSold" style="stroke:#181818;stroke-width:1.0;stroke-dasharray:7.0,7.0;"/><polygon fill="#181818" points="1441.83,458.37,1433.6978,452.8141,1436.9118,457.4693,1432.2567,460.6833,1441.83,458.37" style="stroke:#181818;stroke-width:1.0;"/></g><!--link AnnouncementMapper to AnnouncementDTO--><g id="link_AnnouncementMapper_AnnouncementDTO"><path codeLine="111" d="M289.06,275.01 C266.91,301.36 238.36,335.33 210.95,367.93 " fill="none" id="AnnouncementMapper-to-AnnouncementDTO" style="stroke:#181818;stroke-width:1.0;stroke-dasharray:7.0,7.0;"/><polygon fill="#181818" points="207.62,371.9,216.4798,367.5984,210.8433,368.0777,210.3641,362.4411,207.62,371.9" style="stroke:#181818;stroke-width:1.0;"/></g><!--link UserSession to NetworkManager--><g id="link_UserSession_NetworkManager"><path codeLine="116" d="M1726.63,69.16 C1783.53,99.27 1881.47,151.12 1948.88,186.79 " fill="none" id="UserSession-to-NetworkManager" style="stroke:#181818;stroke-width:1.0;"/><polygon fill="#181818" points="1953.68,189.33,1947.6055,181.5775,1949.2635,186.986,1943.8551,188.6439,1953.68,189.33" style="stroke:#181818;stroke-width:1.0;"/><text fill="#000000" font-family="sans-serif" font-size="20" lengthAdjust="spacing" textLength="279" x="1853" y="131.3359">gets  Network Manager email</text><text fill="#000000" font-family="sans-serif" font-size="20" lengthAdjust="spacing" textLength="13" x="1721.7006" y="96.1143">1</text><text fill="#000000" font-family="sans-serif" font-size="20" lengthAdjust="spacing" textLength="10" x="1931.0781" y="177.3867">*</text></g><!--link ctrl to UserSession--><g id="link_ctrl_UserSession"><path codeLine="118" d="M1229.16,44 C1262.28,44 1288.33,44 1288.33,44 C1288.33,44 1484.67,44 1484.67,44 C1484.67,44 1546.88,44 1601.26,44 " fill="none" id="ctrl-to-UserSession" style="stroke:#181818;stroke-width:1.0;stroke-dasharray:7.0,7.0;"/><polygon fill="#181818" points="1606.49,44,1597.49,40,1601.49,44,1597.49,48,1606.49,44" style="stroke:#181818;stroke-width:1.0;"/></g><!--SRC=[pLHDRzim3BthLn2-D5cGejkn6084pGO4MDTXMNw0QZEE45ao91f5LlI_Z_97B3ikqEDqa2NgYNoF9kLFofJIoKBRz8GPP7YGbQRlrj1E_KNuSYTkV8U1mXgR7fqj4CXLAFgJKgOdcUEEpXh1OKhIv3e6-AFCx8ioEHoazl69LWRfN2AKLf_39evuERIEh8XkfLfwloPowhaYtARMr7plXBZHU20W2qxbHu9C1JhA6Y7gEv2iZR6LIR50Gmyir5cjqIKWFQJazAi07ZdI3-M92U-ipZP_dcPpmUEjy_8RI-iLMQVGGtDbEJ0oFXWNmTFMU4v8YhCvt0z0FIGcTK6SsScRQ4V7lYorIcLGj4Fl-LCpbsNPRbisYq7SY-cXSev3jDWWQXnWxz75dgj-7xd-LaYbe-lDvLX5o5kNcQqXK5cptaX2o7XgjxPwvff9RQ7g60DhwLJQuduvMwAZCtIBnhpEEHJ8C3U6yDU-FhaCtGhgJw3OiFk9z6BTwL4QnhjNeVpGqcIxmMwimGrogGP_-oqBULSe5yV_83EOQuvXSStoaIiaY8PsBCXkoCw2d_5Vcuz1xmFgWEDStQxgHk9SyGotonLCLtT_FkY9YxMlwMbFWKf_4jNfDBp9mFGP_yCf6MC8Zq7ZZwXpTwksvOIOrWp9vsIvN2MVakjckRzM9wA-7cfaTAnON2kTpjS7SArI4Rq4WJOmRmZ4Xrt3HFWzyD2PeRDZU2AQ8k1KxcEoxVW7]--></g></svg>