<?xml version="1.0" encoding="UTF-8" standalone="no"?><svg xmlns="http://www.w3.org/2000/svg" xmlns:xlink="http://www.w3.org/1999/xlink" contentStyleType="text/css" height="1259px" preserveAspectRatio="none" style="width:925px;height:1259px;background:#FFFFFF;" version="1.1" viewBox="0 0 925 1259" width="925px" zoomAndPan="magnify"><defs/><g><!--class NetworkManager--><g id="elem_NetworkManager"><rect codeLine="2" fill="#F1F1F1" height="73.5547" id="NetworkManager" rx="2.5" ry="2.5" style="stroke:#181818;stroke-width:0.5;" width="290" x="136.5" y="7"/><ellipse cx="196" cy="24" fill="#ADD1B2" rx="12" ry="12" style="stroke:#181818;stroke-width:1.0;"/><path d="M198.8066,31.0801 Q198.123,31.4316 197.3711,31.6074 Q196.6191,31.7832 195.7891,31.7832 Q192.8398,31.7832 191.2871,29.8398 Q189.7344,27.8965 189.7344,24.2246 Q189.7344,20.543 191.2871,18.5996 Q192.8398,16.6563 195.7891,16.6563 Q196.6191,16.6563 197.3809,16.832 Q198.1426,17.0078 198.8066,17.3594 L198.8066,20.5625 Q198.0645,19.8789 197.3662,19.5615 Q196.668,19.2441 195.9258,19.2441 Q194.3438,19.2441 193.5381,20.499 Q192.7324,21.7539 192.7324,24.2246 Q192.7324,26.6855 193.5381,27.9404 Q194.3438,29.1953 195.9258,29.1953 Q196.668,29.1953 197.3662,28.8779 Q198.0645,28.5605 198.8066,27.877 Z " fill="#000000"/><text fill="#000000" font-family="sans-serif" font-size="20" lengthAdjust="spacing" textLength="162" x="218" y="31.5586">NetworkManager</text><line style="stroke:#181818;stroke-width:0.5;" x1="137.5" x2="425.5" y1="41" y2="41"/><line style="stroke:#181818;stroke-width:0.5;" x1="137.5" x2="425.5" y1="49" y2="49"/><ellipse cx="147.5" cy="66.2773" fill="#84BE84" rx="3" ry="3" style="stroke:#038048;stroke-width:1.0;"/><text fill="#000000" font-family="sans-serif" font-size="20" lengthAdjust="spacing" textLength="263" x="157.5" y="72.3359">listEmployeesInEveryStore()</text></g><!--class ListEmployeesUI--><g id="elem_ListEmployeesUI"><rect codeLine="6" fill="#F1F1F1" height="73.5547" id="ListEmployeesUI" rx="2.5" ry="2.5" style="stroke:#181818;stroke-width:0.5;" width="497" x="33" y="141"/><ellipse cx="198.5" cy="158" fill="#ADD1B2" rx="12" ry="12" style="stroke:#181818;stroke-width:1.0;"/><path d="M201.3066,165.0801 Q200.623,165.4316 199.8711,165.6074 Q199.1191,165.7832 198.2891,165.7832 Q195.3398,165.7832 193.7871,163.8398 Q192.2344,161.8965 192.2344,158.2246 Q192.2344,154.543 193.7871,152.5996 Q195.3398,150.6563 198.2891,150.6563 Q199.1191,150.6563 199.8809,150.832 Q200.6426,151.0078 201.3066,151.3594 L201.3066,154.5625 Q200.5645,153.8789 199.8662,153.5615 Q199.168,153.2441 198.4258,153.2441 Q196.8438,153.2441 196.0381,154.499 Q195.2324,155.7539 195.2324,158.2246 Q195.2324,160.6855 196.0381,161.9404 Q196.8438,163.1953 198.4258,163.1953 Q199.168,163.1953 199.8662,162.8779 Q200.5645,162.5605 201.3066,161.877 Z " fill="#000000"/><text fill="#000000" font-family="sans-serif" font-size="20" lengthAdjust="spacing" textLength="157" x="220.5" y="165.5586">ListEmployeesUI</text><line style="stroke:#181818;stroke-width:0.5;" x1="34" x2="529" y1="175" y2="175"/><line style="stroke:#181818;stroke-width:0.5;" x1="34" x2="529" y1="183" y2="183"/><ellipse cx="44" cy="200.2773" fill="#84BE84" rx="3" ry="3" style="stroke:#038048;stroke-width:1.0;"/><text fill="#000000" font-family="sans-serif" font-size="20" lengthAdjust="spacing" textLength="470" x="54" y="206.3359">showList(agencyDTOListSort: List&lt;AgencyDTO&gt;)</text></g><!--class ListEmployeeController--><g id="elem_ListEmployeeController"><rect codeLine="10" fill="#F1F1F1" height="73.5547" id="ListEmployeeController" rx="2.5" ry="2.5" style="stroke:#181818;stroke-width:0.5;" width="427" x="68" y="275"/><ellipse cx="165.5" cy="292" fill="#ADD1B2" rx="12" ry="12" style="stroke:#181818;stroke-width:1.0;"/><path d="M168.3066,299.0801 Q167.623,299.4316 166.8711,299.6074 Q166.1191,299.7832 165.2891,299.7832 Q162.3398,299.7832 160.7871,297.8398 Q159.2344,295.8965 159.2344,292.2246 Q159.2344,288.543 160.7871,286.5996 Q162.3398,284.6563 165.2891,284.6563 Q166.1191,284.6563 166.8809,284.832 Q167.6426,285.0078 168.3066,285.3594 L168.3066,288.5625 Q167.5645,287.8789 166.8662,287.5615 Q166.168,287.2441 165.4258,287.2441 Q163.8438,287.2441 163.0381,288.499 Q162.2324,289.7539 162.2324,292.2246 Q162.2324,294.6855 163.0381,295.9404 Q163.8438,297.1953 165.4258,297.1953 Q166.168,297.1953 166.8662,296.8779 Q167.5645,296.5605 168.3066,295.877 Z " fill="#000000"/><text fill="#000000" font-family="sans-serif" font-size="20" lengthAdjust="spacing" textLength="223" x="187.5" y="299.5586">ListEmployeeController</text><line style="stroke:#181818;stroke-width:0.5;" x1="69" x2="494" y1="309" y2="309"/><line style="stroke:#181818;stroke-width:0.5;" x1="69" x2="494" y1="317" y2="317"/><ellipse cx="79" cy="334.2773" fill="#84BE84" rx="3" ry="3" style="stroke:#038048;stroke-width:1.0;"/><text fill="#000000" font-family="sans-serif" font-size="20" lengthAdjust="spacing" textLength="400" x="89" y="340.3359">getAgencyListSorted(): List&lt;AgencyDTO&gt;</text></g><!--class repositories--><g id="elem_repositories"><rect codeLine="14" fill="#F1F1F1" height="120.6641" id="repositories" rx="2.5" ry="2.5" style="stroke:#181818;stroke-width:0.5;" width="425" x="69" y="409"/><ellipse cx="220" cy="426" fill="#ADD1B2" rx="12" ry="12" style="stroke:#181818;stroke-width:1.0;"/><path d="M222.8066,433.0801 Q222.123,433.4316 221.3711,433.6074 Q220.6191,433.7832 219.7891,433.7832 Q216.8398,433.7832 215.2871,431.8398 Q213.7344,429.8965 213.7344,426.2246 Q213.7344,422.543 215.2871,420.5996 Q216.8398,418.6563 219.7891,418.6563 Q220.6191,418.6563 221.3809,418.832 Q222.1426,419.0078 222.8066,419.3594 L222.8066,422.5625 Q222.0645,421.8789 221.3662,421.5615 Q220.668,421.2441 219.9258,421.2441 Q218.3438,421.2441 217.5381,422.499 Q216.7324,423.7539 216.7324,426.2246 Q216.7324,428.6855 217.5381,429.9404 Q218.3438,431.1953 219.9258,431.1953 Q220.668,431.1953 221.3662,430.8779 Q222.0645,430.5605 222.8066,429.877 Z " fill="#000000"/><text fill="#000000" font-family="sans-serif" font-size="20" lengthAdjust="spacing" textLength="114" x="242" y="433.5586">repositories</text><line style="stroke:#181818;stroke-width:0.5;" x1="70" x2="493" y1="443" y2="443"/><rect fill="none" height="6" style="stroke:#C82930;stroke-width:1.0;" width="6" x="77" y="457.2773"/><text fill="#000000" font-family="sans-serif" font-size="20" lengthAdjust="spacing" textLength="205" x="90" y="466.3359">instance: repositories</text><line style="stroke:#181818;stroke-width:0.5;" x1="70" x2="493" y1="474.5547" y2="474.5547"/><ellipse cx="80" cy="491.832" fill="#84BE84" rx="3" ry="3" style="stroke:#038048;stroke-width:1.0;"/><text fill="#000000" font-family="sans-serif" font-size="20" lengthAdjust="spacing" textLength="249" x="90" y="497.8906">getInstance(): repositories</text><ellipse cx="80" cy="515.3867" fill="#84BE84" rx="3" ry="3" style="stroke:#038048;stroke-width:1.0;"/><text fill="#000000" font-family="sans-serif" font-size="20" lengthAdjust="spacing" textLength="398" x="90" y="521.4453">getAgencyRepository(): AgencyRepository</text></g><!--class AgencyRepository--><g id="elem_AgencyRepository"><rect codeLine="20" fill="#F1F1F1" height="144.2188" id="AgencyRepository" rx="2.5" ry="2.5" style="stroke:#181818;stroke-width:0.5;" width="549" x="7" y="590"/><ellipse cx="191.5" cy="607" fill="#ADD1B2" rx="12" ry="12" style="stroke:#181818;stroke-width:1.0;"/><path d="M194.3066,614.0801 Q193.623,614.4316 192.8711,614.6074 Q192.1191,614.7832 191.2891,614.7832 Q188.3398,614.7832 186.7871,612.8398 Q185.2344,610.8965 185.2344,607.2246 Q185.2344,603.543 186.7871,601.5996 Q188.3398,599.6563 191.2891,599.6563 Q192.1191,599.6563 192.8809,599.832 Q193.6426,600.0078 194.3066,600.3594 L194.3066,603.5625 Q193.5645,602.8789 192.8662,602.5615 Q192.168,602.2441 191.4258,602.2441 Q189.8438,602.2441 189.0381,603.499 Q188.2324,604.7539 188.2324,607.2246 Q188.2324,609.6855 189.0381,610.9404 Q189.8438,612.1953 191.4258,612.1953 Q192.168,612.1953 192.8662,611.8779 Q193.5645,611.5605 194.3066,610.877 Z " fill="#000000"/><text fill="#000000" font-family="sans-serif" font-size="20" lengthAdjust="spacing" textLength="171" x="213.5" y="614.5586">AgencyRepository</text><line style="stroke:#181818;stroke-width:0.5;" x1="8" x2="555" y1="624" y2="624"/><line style="stroke:#181818;stroke-width:0.5;" x1="8" x2="555" y1="632" y2="632"/><ellipse cx="18" cy="649.2773" fill="#84BE84" rx="3" ry="3" style="stroke:#038048;stroke-width:1.0;"/><text fill="#000000" font-family="sans-serif" font-size="20" lengthAdjust="spacing" textLength="356" x="28" y="655.3359">getAgencyListSorted(): List&lt;Agency&gt;</text><rect fill="#F24D5C" height="6" style="stroke:#C82930;stroke-width:1.0;" width="6" x="15" y="669.832"/><text fill="#000000" font-family="sans-serif" font-size="20" lengthAdjust="spacing" textLength="311" x="28" y="678.8906">getAgenciesList(): List&lt;Agency&gt;</text><rect fill="#F24D5C" height="6" style="stroke:#C82930;stroke-width:1.0;" width="6" x="15" y="693.3867"/><text fill="#000000" font-family="sans-serif" font-size="20" lengthAdjust="spacing" textLength="315" x="28" y="702.4453">sort(agenciesList: List&lt;Agency&gt;)</text><ellipse cx="18" cy="719.9414" fill="#84BE84" rx="3" ry="3" style="stroke:#038048;stroke-width:1.0;"/><text fill="#000000" font-family="sans-serif" font-size="20" lengthAdjust="spacing" textLength="522" x="28" y="726">getListOfEmployees(agency: Agency): List&lt;Employee&gt;</text></g><!--class Agency--><g id="elem_Agency"><rect codeLine="27" fill="#F1F1F1" height="73.5547" id="Agency" rx="2.5" ry="2.5" style="stroke:#181818;stroke-width:0.5;" width="186" x="42.5" y="817.5"/><ellipse cx="96.5" cy="834.5" fill="#ADD1B2" rx="12" ry="12" style="stroke:#181818;stroke-width:1.0;"/><path d="M99.3066,841.5801 Q98.623,841.9316 97.8711,842.1074 Q97.1191,842.2832 96.2891,842.2832 Q93.3398,842.2832 91.7871,840.3398 Q90.2344,838.3965 90.2344,834.7246 Q90.2344,831.043 91.7871,829.0996 Q93.3398,827.1563 96.2891,827.1563 Q97.1191,827.1563 97.8809,827.332 Q98.6426,827.5078 99.3066,827.8594 L99.3066,831.0625 Q98.5645,830.3789 97.8662,830.0615 Q97.168,829.7441 96.4258,829.7441 Q94.8438,829.7441 94.0381,830.999 Q93.2324,832.2539 93.2324,834.7246 Q93.2324,837.1855 94.0381,838.4404 Q94.8438,839.6953 96.4258,839.6953 Q97.168,839.6953 97.8662,839.3779 Q98.5645,839.0605 99.3066,838.377 Z " fill="#000000"/><text fill="#000000" font-family="sans-serif" font-size="20" lengthAdjust="spacing" textLength="69" x="118.5" y="842.0586">Agency</text><line style="stroke:#181818;stroke-width:0.5;" x1="43.5" x2="227.5" y1="851.5" y2="851.5"/><text fill="#000000" font-family="sans-serif" font-size="20" lengthAdjust="spacing" textLength="174" x="48.5" y="874.8359">// Class members</text><line style="stroke:#181818;stroke-width:0.5;" x1="43.5" x2="227.5" y1="883.0547" y2="883.0547"/></g><!--class ListOfEmployees--><g id="elem_ListOfEmployees"><rect codeLine="31" fill="#F1F1F1" height="73.5547" id="ListOfEmployees" rx="2.5" ry="2.5" style="stroke:#181818;stroke-width:0.5;" width="194" x="103.5" y="1010"/><ellipse cx="119.5" cy="1027" fill="#ADD1B2" rx="12" ry="12" style="stroke:#181818;stroke-width:1.0;"/><path d="M122.3066,1034.0801 Q121.623,1034.4316 120.8711,1034.6074 Q120.1191,1034.7832 119.2891,1034.7832 Q116.3398,1034.7832 114.7871,1032.8398 Q113.2344,1030.8965 113.2344,1027.2246 Q113.2344,1023.543 114.7871,1021.5996 Q116.3398,1019.6563 119.2891,1019.6563 Q120.1191,1019.6563 120.8809,1019.832 Q121.6426,1020.0078 122.3066,1020.3594 L122.3066,1023.5625 Q121.5645,1022.8789 120.8662,1022.5615 Q120.168,1022.2441 119.4258,1022.2441 Q117.8438,1022.2441 117.0381,1023.499 Q116.2324,1024.7539 116.2324,1027.2246 Q116.2324,1029.6855 117.0381,1030.9404 Q117.8438,1032.1953 119.4258,1032.1953 Q120.168,1032.1953 120.8662,1031.8779 Q121.5645,1031.5605 122.3066,1030.877 Z " fill="#000000"/><text fill="#000000" font-family="sans-serif" font-size="20" lengthAdjust="spacing" textLength="160" x="134.5" y="1034.5586">ListOfEmployees</text><line style="stroke:#181818;stroke-width:0.5;" x1="104.5" x2="296.5" y1="1044" y2="1044"/><text fill="#000000" font-family="sans-serif" font-size="20" lengthAdjust="spacing" textLength="174" x="109.5" y="1067.3359">// Class members</text><line style="stroke:#181818;stroke-width:0.5;" x1="104.5" x2="296.5" y1="1075.5547" y2="1075.5547"/></g><!--class AgencyMapper--><g id="elem_AgencyMapper"><rect codeLine="35" fill="#F1F1F1" height="120.6641" id="AgencyMapper" rx="2.5" ry="2.5" style="stroke:#181818;stroke-width:0.5;" width="583" x="335" y="794"/><ellipse cx="551" cy="811" fill="#ADD1B2" rx="12" ry="12" style="stroke:#181818;stroke-width:1.0;"/><path d="M553.8066,818.0801 Q553.123,818.4316 552.3711,818.6074 Q551.6191,818.7832 550.7891,818.7832 Q547.8398,818.7832 546.2871,816.8398 Q544.7344,814.8965 544.7344,811.2246 Q544.7344,807.543 546.2871,805.5996 Q547.8398,803.6563 550.7891,803.6563 Q551.6191,803.6563 552.3809,803.832 Q553.1426,804.0078 553.8066,804.3594 L553.8066,807.5625 Q553.0645,806.8789 552.3662,806.5615 Q551.668,806.2441 550.9258,806.2441 Q549.3438,806.2441 548.5381,807.499 Q547.7324,808.7539 547.7324,811.2246 Q547.7324,813.6855 548.5381,814.9404 Q549.3438,816.1953 550.9258,816.1953 Q551.668,816.1953 552.3662,815.8779 Q553.0645,815.5605 553.8066,814.877 Z " fill="#000000"/><text fill="#000000" font-family="sans-serif" font-size="20" lengthAdjust="spacing" textLength="142" x="573" y="818.5586">AgencyMapper</text><line style="stroke:#181818;stroke-width:0.5;" x1="336" x2="917" y1="828" y2="828"/><line style="stroke:#181818;stroke-width:0.5;" x1="336" x2="917" y1="836" y2="836"/><ellipse cx="346" cy="853.2773" fill="#84BE84" rx="3" ry="3" style="stroke:#038048;stroke-width:1.0;"/><text fill="#000000" font-family="sans-serif" font-size="20" lengthAdjust="spacing" textLength="515" x="356" y="859.3359">toDTO(agencyList: List&lt;Agency&gt;): List&lt;AgencyDTO&gt;</text><rect fill="#F24D5C" height="6" style="stroke:#C82930;stroke-width:1.0;" width="6" x="343" y="873.832"/><text fill="#000000" font-family="sans-serif" font-size="20" lengthAdjust="spacing" textLength="457" x="356" y="882.8906">createAgencyDTO(agency: Agency): AgencyDTO</text><rect fill="#F24D5C" height="6" style="stroke:#C82930;stroke-width:1.0;" width="6" x="343" y="897.3867"/><text fill="#000000" font-family="sans-serif" font-size="20" lengthAdjust="spacing" textLength="556" x="356" y="906.4453">createEmployeeDTO(employee: Employee): EmployeeDTO</text></g><!--class AgencyDTO--><g id="elem_AgencyDTO"><rect codeLine="41" fill="#F1F1F1" height="144.2188" id="AgencyDTO" rx="2.5" ry="2.5" style="stroke:#181818;stroke-width:0.5;" width="457" x="365" y="975"/><ellipse cx="532.5" cy="992" fill="#ADD1B2" rx="12" ry="12" style="stroke:#181818;stroke-width:1.0;"/><path d="M535.3066,999.0801 Q534.623,999.4316 533.8711,999.6074 Q533.1191,999.7832 532.2891,999.7832 Q529.3398,999.7832 527.7871,997.8398 Q526.2344,995.8965 526.2344,992.2246 Q526.2344,988.543 527.7871,986.5996 Q529.3398,984.6563 532.2891,984.6563 Q533.1191,984.6563 533.8809,984.832 Q534.6426,985.0078 535.3066,985.3594 L535.3066,988.5625 Q534.5645,987.8789 533.8662,987.5615 Q533.168,987.2441 532.4258,987.2441 Q530.8438,987.2441 530.0381,988.499 Q529.2324,989.7539 529.2324,992.2246 Q529.2324,994.6855 530.0381,995.9404 Q530.8438,997.1953 532.4258,997.1953 Q533.168,997.1953 533.8662,996.8779 Q534.5645,996.5605 535.3066,995.877 Z " fill="#000000"/><text fill="#000000" font-family="sans-serif" font-size="20" lengthAdjust="spacing" textLength="113" x="554.5" y="999.5586">AgencyDTO</text><line style="stroke:#181818;stroke-width:0.5;" x1="366" x2="821" y1="1009" y2="1009"/><rect fill="none" height="6" style="stroke:#C82930;stroke-width:1.0;" width="6" x="373" y="1023.2773"/><text fill="#000000" font-family="sans-serif" font-size="20" lengthAdjust="spacing" textLength="190" x="386" y="1032.3359">agencyName: String</text><rect fill="none" height="6" style="stroke:#C82930;stroke-width:1.0;" width="6" x="373" y="1046.832"/><text fill="#000000" font-family="sans-serif" font-size="20" lengthAdjust="spacing" textLength="318" x="386" y="1055.8906">employees: List&lt;EmployeeDTO&gt;</text><line style="stroke:#181818;stroke-width:0.5;" x1="366" x2="821" y1="1064.1094" y2="1064.1094"/><ellipse cx="376" cy="1081.3867" fill="#84BE84" rx="3" ry="3" style="stroke:#038048;stroke-width:1.0;"/><text fill="#000000" font-family="sans-serif" font-size="20" lengthAdjust="spacing" textLength="317" x="386" y="1087.4453">AgencyDTO(agencyName: String)</text><ellipse cx="376" cy="1104.9414" fill="#84BE84" rx="3" ry="3" style="stroke:#038048;stroke-width:1.0;"/><text fill="#000000" font-family="sans-serif" font-size="20" lengthAdjust="spacing" textLength="430" x="386" y="1111">addEmployee(employeeDTO: EmployeeDTO)</text></g><!--class EmployeeDTO--><g id="elem_EmployeeDTO"><rect codeLine="48" fill="#F1F1F1" height="73.5547" id="EmployeeDTO" rx="2.5" ry="2.5" style="stroke:#181818;stroke-width:0.5;" width="186" x="641.5" y="1179"/><ellipse cx="664.25" cy="1196" fill="#ADD1B2" rx="12" ry="12" style="stroke:#181818;stroke-width:1.0;"/><path d="M667.0566,1203.0801 Q666.373,1203.4316 665.6211,1203.6074 Q664.8691,1203.7832 664.0391,1203.7832 Q661.0898,1203.7832 659.5371,1201.8398 Q657.9844,1199.8965 657.9844,1196.2246 Q657.9844,1192.543 659.5371,1190.5996 Q661.0898,1188.6563 664.0391,1188.6563 Q664.8691,1188.6563 665.6309,1188.832 Q666.3926,1189.0078 667.0566,1189.3594 L667.0566,1192.5625 Q666.3145,1191.8789 665.6162,1191.5615 Q664.918,1191.2441 664.1758,1191.2441 Q662.5938,1191.2441 661.7881,1192.499 Q660.9824,1193.7539 660.9824,1196.2246 Q660.9824,1198.6855 661.7881,1199.9404 Q662.5938,1201.1953 664.1758,1201.1953 Q664.918,1201.1953 665.6162,1200.8779 Q666.3145,1200.5605 667.0566,1199.877 Z " fill="#000000"/><text fill="#000000" font-family="sans-serif" font-size="20" lengthAdjust="spacing" textLength="137" x="680.75" y="1203.5586">EmployeeDTO</text><line style="stroke:#181818;stroke-width:0.5;" x1="642.5" x2="826.5" y1="1213" y2="1213"/><text fill="#000000" font-family="sans-serif" font-size="20" lengthAdjust="spacing" textLength="174" x="647.5" y="1236.3359">// Class members</text><line style="stroke:#181818;stroke-width:0.5;" x1="642.5" x2="826.5" y1="1244.5547" y2="1244.5547"/></g><!--class Employee--><g id="elem_Employee"><rect codeLine="52" fill="#F1F1F1" height="73.5547" id="Employee" rx="2.5" ry="2.5" style="stroke:#181818;stroke-width:0.5;" width="186" x="461.5" y="7"/><ellipse cx="504.05" cy="24" fill="#ADD1B2" rx="12" ry="12" style="stroke:#181818;stroke-width:1.0;"/><path d="M506.8566,31.0801 Q506.173,31.4316 505.4211,31.6074 Q504.6691,31.7832 503.8391,31.7832 Q500.8898,31.7832 499.3371,29.8398 Q497.7844,27.8965 497.7844,24.2246 Q497.7844,20.543 499.3371,18.5996 Q500.8898,16.6563 503.8391,16.6563 Q504.6691,16.6563 505.4309,16.832 Q506.1926,17.0078 506.8566,17.3594 L506.8566,20.5625 Q506.1145,19.8789 505.4162,19.5615 Q504.718,19.2441 503.9758,19.2441 Q502.3938,19.2441 501.5881,20.499 Q500.7824,21.7539 500.7824,24.2246 Q500.7824,26.6855 501.5881,27.9404 Q502.3938,29.1953 503.9758,29.1953 Q504.718,29.1953 505.4162,28.8779 Q506.1145,28.5605 506.8566,27.877 Z " fill="#000000"/><text fill="#000000" font-family="sans-serif" font-size="20" lengthAdjust="spacing" textLength="93" x="524.95" y="31.5586">Employee</text><line style="stroke:#181818;stroke-width:0.5;" x1="462.5" x2="646.5" y1="41" y2="41"/><text fill="#000000" font-family="sans-serif" font-size="20" lengthAdjust="spacing" textLength="174" x="467.5" y="64.3359">// Class members</text><line style="stroke:#181818;stroke-width:0.5;" x1="462.5" x2="646.5" y1="72.5547" y2="72.5547"/></g><!--link NetworkManager to ListEmployeesUI--><g id="link_NetworkManager_ListEmployeesUI"><path codeLine="56" d="M281.5,81.07 C281.5,97.95 281.5,118.14 281.5,135.64 " fill="none" id="NetworkManager-to-ListEmployeesUI" style="stroke:#181818;stroke-width:1.0;"/><polygon fill="#181818" points="281.5,140.97,285.5,131.97,281.5,135.97,277.5,131.97,281.5,140.97" style="stroke:#181818;stroke-width:1.0;"/></g><!--link ListEmployeesUI to ListEmployeeController--><g id="link_ListEmployeesUI_ListEmployeeController"><path codeLine="57" d="M281.5,215.07 C281.5,231.95 281.5,252.14 281.5,269.64 " fill="none" id="ListEmployeesUI-to-ListEmployeeController" style="stroke:#181818;stroke-width:1.0;"/><polygon fill="#181818" points="281.5,274.97,285.5,265.97,281.5,269.97,277.5,265.97,281.5,274.97" style="stroke:#181818;stroke-width:1.0;"/></g><!--link repositories to repositories--><g id="link_repositories_repositories"><path codeLine="58" d="M494.05,445.32 C515.4,450.14 529,458.2 529,469.5 C529,479.92 517.44,487.59 498.91,492.49 " fill="none" id="repositories-to-repositories" style="stroke:#181818;stroke-width:1.0;"/><polygon fill="#181818" points="494.05,493.68,503.7419,495.4315,498.9074,492.4942,501.8446,487.6597,494.05,493.68" style="stroke:#181818;stroke-width:1.0;"/></g><!--link ListEmployeeController to repositories--><g id="link_ListEmployeeController_repositories"><path codeLine="59" d="M281.5,349.07 C281.5,365.3 281.5,384.99 281.5,403.65 " fill="none" id="ListEmployeeController-to-repositories" style="stroke:#181818;stroke-width:1.0;"/><polygon fill="#181818" points="281.5,408.88,285.5,399.88,281.5,403.88,277.5,399.88,281.5,408.88" style="stroke:#181818;stroke-width:1.0;"/></g><!--link repositories to AgencyRepository--><g id="link_repositories_AgencyRepository"><path codeLine="60" d="M281.5,530.25 C281.5,547.51 281.5,566.58 281.5,584.69 " fill="none" id="repositories-to-AgencyRepository" style="stroke:#181818;stroke-width:1.0;"/><polygon fill="#181818" points="281.5,589.77,285.5,580.77,281.5,584.77,277.5,580.77,281.5,589.77" style="stroke:#181818;stroke-width:1.0;"/></g><!--link AgencyRepository to Agency--><g id="link_AgencyRepository_Agency"><path codeLine="61" d="M226.93,734.21 C206.49,760.87 184,790.22 166.43,813.14 " fill="none" id="AgencyRepository-to-Agency" style="stroke:#181818;stroke-width:1.0;"/><polygon fill="#181818" points="163.21,817.34,171.8589,812.6287,166.251,813.371,165.5086,807.7631,163.21,817.34" style="stroke:#181818;stroke-width:1.0;"/></g><!--link AgencyRepository to ListOfEmployees--><g id="link_AgencyRepository_ListOfEmployees"><path codeLine="62" d="M274.98,734.01 C269.43,784.87 260.02,854.74 245.5,915 C238.11,945.68 226.47,979.34 216.88,1004.85 " fill="none" id="AgencyRepository-to-ListOfEmployees" style="stroke:#181818;stroke-width:1.0;"/><polygon fill="#181818" points="214.99,1009.84,221.9142,1002.836,216.7581,1005.1631,214.431,1000.007,214.99,1009.84" style="stroke:#181818;stroke-width:1.0;"/></g><!--link AgencyRepository to AgencyMapper--><g id="link_AgencyRepository_AgencyMapper"><path codeLine="63" d="M410.46,734.21 C444.52,753.02 481.02,773.17 514.13,791.45 " fill="none" id="AgencyRepository-to-AgencyMapper" style="stroke:#181818;stroke-width:1.0;"/><polygon fill="#181818" points="518.57,793.91,512.6255,786.0574,514.1932,791.4927,508.7579,793.0604,518.57,793.91" style="stroke:#181818;stroke-width:1.0;"/></g><!--link Agency to ListOfEmployees--><g id="link_Agency_ListOfEmployees"><path codeLine="64" d="M147.88,891.78 C158.9,924.09 175.02,971.32 186.51,1004.99 " fill="none" id="Agency-to-ListOfEmployees" style="stroke:#181818;stroke-width:1.0;"/><polygon fill="#181818" points="188.17,1009.86,189.0478,1000.0503,186.5546,1005.1281,181.4768,1002.635,188.17,1009.86" style="stroke:#181818;stroke-width:1.0;"/></g><!--link AgencyMapper to AgencyDTO--><g id="link_AgencyMapper_AgencyDTO"><path codeLine="65" d="M616.15,915.25 C613.16,932.51 609.86,951.58 606.72,969.69 " fill="none" id="AgencyMapper-to-AgencyDTO" style="stroke:#181818;stroke-width:1.0;"/><polygon fill="#181818" points="605.84,974.77,611.3229,966.5885,606.6967,969.8439,603.4412,965.2177,605.84,974.77" style="stroke:#181818;stroke-width:1.0;"/></g><!--link AgencyMapper to EmployeeDTO--><g id="link_AgencyMapper_EmployeeDTO"><path codeLine="66" d="M780.43,915 C804.03,930.91 825.25,950.67 839.5,975 C871.84,1030.23 865.31,1060.43 839.5,1119 C829.78,1141.06 812.2,1160.26 794.18,1175.57 " fill="none" id="AgencyMapper-to-EmployeeDTO" style="stroke:#181818;stroke-width:1.0;"/><polygon fill="#181818" points="790.08,1178.97,799.5557,1176.2847,793.9223,1175.7705,794.4365,1170.137,790.08,1178.97" style="stroke:#181818;stroke-width:1.0;"/></g><!--link AgencyDTO to EmployeeDTO--><g id="link_AgencyDTO_EmployeeDTO"><path codeLine="67" d="M653.71,1119.31 C669.71,1138.27 686.45,1158.09 700.5,1174.74 " fill="none" id="AgencyDTO-to-EmployeeDTO" style="stroke:#181818;stroke-width:1.0;"/><polygon fill="#181818" points="704.02,1178.9,701.2585,1169.4462,700.7896,1175.0836,695.1523,1174.6148,704.02,1178.9" style="stroke:#181818;stroke-width:1.0;"/></g><!--SRC=[ZLFTIiCm5BxlK-HoPGp5oo45cHC6RWEh3n3RirdM9YM9ZYg-kqcJixHfjtdNdkydNtBEaOU2rLJGgkJP0NAImuv-bkg9CvKMtq3kRgCeAwcKP0FgoCLXJHdTWo0_4I7Jif1gMTKbRm3aYYs_G3IfuW8cSVIBmkSkwMrbbVA37mqmqMOiQnvVj-OlvKBDMy7z0zQJCrOB7L7miiGiUr1MWqQGJ-A1cVSIK7DPwB05oDPXLZ2fACjWtiESzyg1ndC4jYUy8D0OMbZpPuV8Vs-Gc9X8quUtBpX2aLfiNzQH-fJOdMPgszsfDwuN61nz4K_2_6tgcnkoQ6iLLEyWPBzP7VShR6kvfdMD3LLSDynb6hd3iBNwufa0gk1K6zxe17as9ZHySDzpWjNOVnfLa5UNxEpOWpQqqj9KYOBjJHNjPF2KBkuq3DhLjqsYUOwQKpPDxsNgx4UdUkMvaNcM5gpxR9Q4Yno5Ynro_8P6tOtHjDu2dLbguzRZzHRMe8Fz6goLPurZmOXUCh2JwHWNn6w2lT1CpG3gZfIVf13v0m00]--></g></svg>