<?xml version="1.0" encoding="UTF-8" standalone="no"?><svg xmlns="http://www.w3.org/2000/svg" xmlns:xlink="http://www.w3.org/1999/xlink" contentStyleType="text/css" height="1518px" preserveAspectRatio="none" style="width:2389px;height:1518px;background:#FFFFFF;" version="1.1" viewBox="0 0 2389 1518" width="2389px" zoomAndPan="magnify"><defs/><g><rect fill="#FFFFFF" height="1313.8594" style="stroke:#181818;stroke-width:1.0;" width="10" x="88" y="98.5547"/><rect fill="#FFFFFF" height="1284.3047" style="stroke:#181818;stroke-width:1.0;" width="10" x="483" y="128.1094"/><rect fill="#FFFFFF" height="1160.6406" style="stroke:#181818;stroke-width:1.0;" width="10" x="738" y="214.2188"/><rect fill="#FFFFFF" height="37.5547" style="stroke:#181818;stroke-width:1.0;" width="10" x="939.5" y="251.7734"/><rect fill="#FFFFFF" height="37.5547" style="stroke:#181818;stroke-width:1.0;" width="10" x="1083.5" y="326.8828"/><rect fill="#FFFFFF" height="342.4375" style="stroke:#181818;stroke-width:1.0;" width="10" x="1256" y="401.9922"/><rect fill="#FFFFFF" height="28" style="stroke:#181818;stroke-width:1.0;" width="10" x="1261" y="447.5469"/><rect fill="#FFFFFF" height="37.5547" style="stroke:#181818;stroke-width:1.0;" width="10" x="1519" y="611.7656"/><rect fill="#FFFFFF" height="42.5547" style="stroke:#181818;stroke-width:1.0;" width="10" x="2076.5" y="1053.9766"/><rect fill="#FFFFFF" height="42.5547" style="stroke:#181818;stroke-width:1.0;" width="10" x="2231.5" y="1199.6406"/><rect fill="#FFFFFF" height="639.4297" style="stroke:#181818;stroke-width:1.0;" width="10" x="2343" y="781.9844"/><rect fill="none" height="159.7734" style="stroke:#000000;stroke-width:1.5;" width="651" x="1152.5" y="548.1016"/><rect fill="none" height="359.5469" style="stroke:#000000;stroke-width:1.5;" width="564.5" x="1748.5" y="941.2031"/><rect fill="none" height="172.7734" style="stroke:#000000;stroke-width:1.5;" width="489" x="1758.5" y="982.3125"/><line style="stroke:#181818;stroke-width:0.5;stroke-dasharray:5.0,5.0;" x1="93" x2="93" y1="88.5547" y2="1430.4141"/><line style="stroke:#181818;stroke-width:0.5;stroke-dasharray:5.0,5.0;" x1="487.5" x2="487.5" y1="88.5547" y2="1430.4141"/><line style="stroke:#181818;stroke-width:0.5;stroke-dasharray:5.0,5.0;" x1="742.5" x2="742.5" y1="170.3867" y2="1430.4141"/><line style="stroke:#181818;stroke-width:0.5;stroke-dasharray:5.0,5.0;" x1="944.5" x2="944.5" y1="88.5547" y2="1430.4141"/><line style="stroke:#181818;stroke-width:0.5;stroke-dasharray:5.0,5.0;" x1="1088.5" x2="1088.5" y1="88.5547" y2="1430.4141"/><line style="stroke:#181818;stroke-width:0.5;stroke-dasharray:5.0,5.0;" x1="1260.5" x2="1260.5" y1="88.5547" y2="1430.4141"/><line style="stroke:#181818;stroke-width:0.5;stroke-dasharray:5.0,5.0;" x1="1523.5" x2="1523.5" y1="88.5547" y2="1430.4141"/><line style="stroke:#181818;stroke-width:0.5;stroke-dasharray:5.0,5.0;" x1="1668.5" x2="1668.5" y1="88.5547" y2="1430.4141"/><line style="stroke:#181818;stroke-width:0.5;stroke-dasharray:5.0,5.0;" x1="1849.5" x2="1849.5" y1="88.5547" y2="1430.4141"/><line style="stroke:#181818;stroke-width:0.5;stroke-dasharray:5.0,5.0;" x1="2081" x2="2081" y1="836.0391" y2="1430.4141"/><line style="stroke:#181818;stroke-width:0.5;stroke-dasharray:5.0,5.0;" x1="2236" x2="2236" y1="908.1484" y2="1430.4141"/><line style="stroke:#181818;stroke-width:0.5;stroke-dasharray:5.0,5.0;" x1="2348" x2="2348" y1="88.5547" y2="1430.4141"/><text fill="#000000" font-family="sans-serif" font-size="20" lengthAdjust="spacing" textLength="170" x="5" y="84.3359">Network manager</text><ellipse cx="93" cy="13.5" fill="#E3E3E3" rx="8" ry="8" style="stroke:#181818;stroke-width:0.5;"/><path d="M93,21.5 L93,48.5 M80,29.5 L106,29.5 M93,48.5 L80,63.5 M93,48.5 L106,63.5 " fill="none" style="stroke:#181818;stroke-width:0.5;"/><text fill="#000000" font-family="sans-serif" font-size="20" lengthAdjust="spacing" textLength="170" x="5" y="1448.75">Network manager</text><ellipse cx="93" cy="1461.4688" fill="#E3E3E3" rx="8" ry="8" style="stroke:#181818;stroke-width:0.5;"/><path d="M93,1469.4688 L93,1496.4688 M80,1477.4688 L106,1477.4688 M93,1496.4688 L80,1511.4688 M93,1496.4688 L106,1511.4688 " fill="none" style="stroke:#181818;stroke-width:0.5;"/><rect fill="#E3E3E3" height="37.5547" rx="2.5" ry="2.5" style="stroke:#181818;stroke-width:0.5;" width="177" x="399.5" y="50"/><text fill="#000000" font-family="sans-serif" font-size="20" lengthAdjust="spacing" textLength="163" x="406.5" y="76.3359">:ListEmployeesUI</text><rect fill="#E3E3E3" height="37.5547" rx="2.5" ry="2.5" style="stroke:#181818;stroke-width:0.5;" width="177" x="399.5" y="1429.4141"/><text fill="#000000" font-family="sans-serif" font-size="20" lengthAdjust="spacing" textLength="163" x="406.5" y="1455.75">:ListEmployeesUI</text><rect fill="#E3E3E3" height="37.5547" rx="2.5" ry="2.5" style="stroke:#181818;stroke-width:0.5;" width="243" x="621.5" y="1429.4141"/><text fill="#000000" font-family="sans-serif" font-size="20" lengthAdjust="spacing" textLength="229" x="628.5" y="1455.75">:ListEmployeeController</text><rect fill="#E3E3E3" height="37.5547" rx="2.5" ry="2.5" style="stroke:#181818;stroke-width:0.5;" width="140" x="874.5" y="50"/><text fill="#000000" font-family="sans-serif" font-size="20" lengthAdjust="spacing" textLength="126" x="881.5" y="76.3359">:repositories:</text><rect fill="#E3E3E3" height="37.5547" rx="2.5" ry="2.5" style="stroke:#181818;stroke-width:0.5;" width="140" x="874.5" y="1429.4141"/><text fill="#000000" font-family="sans-serif" font-size="20" lengthAdjust="spacing" textLength="126" x="881.5" y="1455.75">:repositories:</text><rect fill="#E3E3E3" height="61.1094" rx="2.5" ry="2.5" style="stroke:#181818;stroke-width:0.5;" width="128" x="1024.5" y="26.4453"/><text fill="#000000" font-family="sans-serif" font-size="20" lengthAdjust="spacing" textLength="102" x="1037.5" y="52.7813">Repository</text><text fill="#000000" font-family="sans-serif" font-size="20" lengthAdjust="spacing" textLength="114" x="1031.5" y="76.3359">:Repository:</text><rect fill="#E3E3E3" height="61.1094" rx="2.5" ry="2.5" style="stroke:#181818;stroke-width:0.5;" width="128" x="1024.5" y="1429.4141"/><text fill="#000000" font-family="sans-serif" font-size="20" lengthAdjust="spacing" textLength="102" x="1037.5" y="1455.75">Repository</text><text fill="#000000" font-family="sans-serif" font-size="20" lengthAdjust="spacing" textLength="114" x="1031.5" y="1479.3047">:Repository:</text><rect fill="#E3E3E3" height="61.1094" rx="2.5" ry="2.5" style="stroke:#181818;stroke-width:0.5;" width="197" x="1162.5" y="26.4453"/><text fill="#000000" font-family="sans-serif" font-size="20" lengthAdjust="spacing" textLength="168" x="1177" y="52.7813">agencyRepository</text><text fill="#000000" font-family="sans-serif" font-size="20" lengthAdjust="spacing" textLength="183" x="1169.5" y="76.3359">:AgencyRepository:</text><rect fill="#E3E3E3" height="61.1094" rx="2.5" ry="2.5" style="stroke:#181818;stroke-width:0.5;" width="197" x="1162.5" y="1429.4141"/><text fill="#000000" font-family="sans-serif" font-size="20" lengthAdjust="spacing" textLength="168" x="1177" y="1455.75">agencyRepository</text><text fill="#000000" font-family="sans-serif" font-size="20" lengthAdjust="spacing" textLength="183" x="1169.5" y="1479.3047">:AgencyRepository:</text><rect fill="#E3E3E3" height="61.1094" rx="2.5" ry="2.5" style="stroke:#181818;stroke-width:0.5;" width="89" x="1479.5" y="26.4453"/><text fill="#000000" font-family="sans-serif" font-size="20" lengthAdjust="spacing" textLength="66" x="1491" y="52.7813">agency</text><text fill="#000000" font-family="sans-serif" font-size="20" lengthAdjust="spacing" textLength="75" x="1486.5" y="76.3359">:Agency</text><rect fill="#E3E3E3" height="61.1094" rx="2.5" ry="2.5" style="stroke:#181818;stroke-width:0.5;" width="89" x="1479.5" y="1429.4141"/><text fill="#000000" font-family="sans-serif" font-size="20" lengthAdjust="spacing" textLength="66" x="1491" y="1455.75">agency</text><text fill="#000000" font-family="sans-serif" font-size="20" lengthAdjust="spacing" textLength="75" x="1486.5" y="1479.3047">:Agency</text><rect fill="#E3E3E3" height="61.1094" rx="2.5" ry="2.5" style="stroke:#181818;stroke-width:0.5;" width="180" x="1578.5" y="26.4453"/><text fill="#000000" font-family="sans-serif" font-size="20" lengthAdjust="spacing" textLength="155" x="1591" y="52.7813">listOfEmployees</text><text fill="#000000" font-family="sans-serif" font-size="20" lengthAdjust="spacing" textLength="166" x="1585.5" y="76.3359">:ListOfEmployees</text><rect fill="#E3E3E3" height="61.1094" rx="2.5" ry="2.5" style="stroke:#181818;stroke-width:0.5;" width="180" x="1578.5" y="1429.4141"/><text fill="#000000" font-family="sans-serif" font-size="20" lengthAdjust="spacing" textLength="155" x="1591" y="1455.75">listOfEmployees</text><text fill="#000000" font-family="sans-serif" font-size="20" lengthAdjust="spacing" textLength="166" x="1585.5" y="1479.3047">:ListOfEmployees</text><rect fill="#E3E3E3" height="61.1094" rx="2.5" ry="2.5" style="stroke:#181818;stroke-width:0.5;" width="162" x="1768.5" y="26.4453"/><text fill="#000000" font-family="sans-serif" font-size="20" lengthAdjust="spacing" textLength="139" x="1780" y="52.7813">agencyMapper</text><text fill="#000000" font-family="sans-serif" font-size="20" lengthAdjust="spacing" textLength="148" x="1775.5" y="76.3359">:AgencyMapper</text><rect fill="#E3E3E3" height="61.1094" rx="2.5" ry="2.5" style="stroke:#181818;stroke-width:0.5;" width="162" x="1768.5" y="1429.4141"/><text fill="#000000" font-family="sans-serif" font-size="20" lengthAdjust="spacing" textLength="139" x="1780" y="1455.75">agencyMapper</text><text fill="#000000" font-family="sans-serif" font-size="20" lengthAdjust="spacing" textLength="148" x="1775.5" y="1479.3047">:AgencyMapper</text><rect fill="#E3E3E3" height="61.1094" rx="2.5" ry="2.5" style="stroke:#181818;stroke-width:0.5;" width="157" x="2003" y="1429.4141"/><text fill="#000000" font-family="sans-serif" font-size="20" lengthAdjust="spacing" textLength="137" x="2013" y="1455.75">employeeDTO</text><text fill="#000000" font-family="sans-serif" font-size="20" lengthAdjust="spacing" textLength="143" x="2010" y="1479.3047">:EmployeeDTO</text><rect fill="#E3E3E3" height="61.1094" rx="2.5" ry="2.5" style="stroke:#181818;stroke-width:0.5;" width="133" x="2170" y="1429.4141"/><text fill="#000000" font-family="sans-serif" font-size="20" lengthAdjust="spacing" textLength="110" x="2181.5" y="1455.75">agencyDTO</text><text fill="#000000" font-family="sans-serif" font-size="20" lengthAdjust="spacing" textLength="119" x="2177" y="1479.3047">:AgencyDTO</text><rect fill="#E3E3E3" height="37.5547" rx="2.5" ry="2.5" style="stroke:#181818;stroke-width:0.5;" width="70" x="2313" y="50"/><text fill="#000000" font-family="sans-serif" font-size="20" lengthAdjust="spacing" textLength="56" x="2320" y="76.3359">AMAP</text><rect fill="#E3E3E3" height="37.5547" rx="2.5" ry="2.5" style="stroke:#181818;stroke-width:0.5;" width="70" x="2313" y="1429.4141"/><text fill="#000000" font-family="sans-serif" font-size="20" lengthAdjust="spacing" textLength="56" x="2320" y="1455.75">AMAP</text><rect fill="#FFFFFF" height="1313.8594" style="stroke:#181818;stroke-width:1.0;" width="10" x="88" y="98.5547"/><rect fill="#FFFFFF" height="1284.3047" style="stroke:#181818;stroke-width:1.0;" width="10" x="483" y="128.1094"/><rect fill="#FFFFFF" height="1160.6406" style="stroke:#181818;stroke-width:1.0;" width="10" x="738" y="214.2188"/><rect fill="#FFFFFF" height="37.5547" style="stroke:#181818;stroke-width:1.0;" width="10" x="939.5" y="251.7734"/><rect fill="#FFFFFF" height="37.5547" style="stroke:#181818;stroke-width:1.0;" width="10" x="1083.5" y="326.8828"/><rect fill="#FFFFFF" height="342.4375" style="stroke:#181818;stroke-width:1.0;" width="10" x="1256" y="401.9922"/><rect fill="#FFFFFF" height="28" style="stroke:#181818;stroke-width:1.0;" width="10" x="1261" y="447.5469"/><rect fill="#FFFFFF" height="37.5547" style="stroke:#181818;stroke-width:1.0;" width="10" x="1519" y="611.7656"/><rect fill="#FFFFFF" height="42.5547" style="stroke:#181818;stroke-width:1.0;" width="10" x="2076.5" y="1053.9766"/><rect fill="#FFFFFF" height="42.5547" style="stroke:#181818;stroke-width:1.0;" width="10" x="2231.5" y="1199.6406"/><rect fill="#FFFFFF" height="639.4297" style="stroke:#181818;stroke-width:1.0;" width="10" x="2343" y="781.9844"/><polygon fill="#181818" points="471,124.1094,481,128.1094,471,132.1094,475,128.1094" style="stroke:#181818;stroke-width:1.0;"/><line style="stroke:#181818;stroke-width:1.0;" x1="98" x2="477" y1="128.1094" y2="128.1094"/><text fill="#000000" font-family="sans-serif" font-size="20" font-weight="bold" lengthAdjust="spacing" textLength="13" x="105" y="121.8906">1</text><text fill="#000000" font-family="sans-serif" font-size="20" lengthAdjust="spacing" textLength="349" x="122" y="121.8906">Asks to list employees in every store</text><polygon fill="#181818" points="609.5,161.6641,619.5,165.6641,609.5,169.6641,613.5,165.6641" style="stroke:#181818;stroke-width:1.0;"/><line style="stroke:#181818;stroke-width:1.0;" x1="493" x2="615.5" y1="165.6641" y2="165.6641"/><text fill="#000000" font-family="sans-serif" font-size="20" font-weight="bold" lengthAdjust="spacing" textLength="13" x="500" y="159.4453">2</text><text fill="#000000" font-family="sans-serif" font-size="20" lengthAdjust="spacing" textLength="72" x="517" y="159.4453">create()</text><rect fill="#E3E3E3" height="37.5547" rx="2.5" ry="2.5" style="stroke:#181818;stroke-width:0.5;" width="243" x="621.5" y="136.1094"/><text fill="#000000" font-family="sans-serif" font-size="20" lengthAdjust="spacing" textLength="229" x="628.5" y="162.4453">:ListEmployeeController</text><polygon fill="#181818" points="726,210.2188,736,214.2188,726,218.2188,730,214.2188" style="stroke:#181818;stroke-width:1.0;"/><line style="stroke:#181818;stroke-width:1.0;" x1="493" x2="732" y1="214.2188" y2="214.2188"/><text fill="#000000" font-family="sans-serif" font-size="20" font-weight="bold" lengthAdjust="spacing" textLength="13" x="500" y="208">3</text><text fill="#000000" font-family="sans-serif" font-size="20" lengthAdjust="spacing" textLength="209" x="517" y="208">getAgencyListSorted()</text><polygon fill="#181818" points="927.5,247.7734,937.5,251.7734,927.5,255.7734,931.5,251.7734" style="stroke:#181818;stroke-width:1.0;"/><line style="stroke:#181818;stroke-width:1.0;" x1="748" x2="933.5" y1="251.7734" y2="251.7734"/><text fill="#000000" font-family="sans-serif" font-size="20" font-weight="bold" lengthAdjust="spacing" textLength="13" x="755" y="245.5547">4</text><text fill="#000000" font-family="sans-serif" font-size="20" lengthAdjust="spacing" textLength="123" x="772" y="245.5547">getInstance()</text><polygon fill="#181818" points="759,285.3281,749,289.3281,759,293.3281,755,289.3281" style="stroke:#181818;stroke-width:1.0;"/><line style="stroke:#181818;stroke-width:1.0;stroke-dasharray:2.0,2.0;" x1="753" x2="943.5" y1="289.3281" y2="289.3281"/><text fill="#000000" font-family="sans-serif" font-size="20" font-weight="bold" lengthAdjust="spacing" textLength="13" x="765" y="283.1094">5</text><text fill="#000000" font-family="sans-serif" font-size="20" lengthAdjust="spacing" textLength="114" x="782" y="283.1094">repositories</text><polygon fill="#181818" points="1071.5,322.8828,1081.5,326.8828,1071.5,330.8828,1075.5,326.8828" style="stroke:#181818;stroke-width:1.0;"/><line style="stroke:#181818;stroke-width:1.0;" x1="748" x2="1077.5" y1="326.8828" y2="326.8828"/><text fill="#000000" font-family="sans-serif" font-size="20" font-weight="bold" lengthAdjust="spacing" textLength="13" x="755" y="320.6641">6</text><text fill="#000000" font-family="sans-serif" font-size="20" lengthAdjust="spacing" textLength="215" x="772" y="320.6641">getAgencyRepository()</text><polygon fill="#181818" points="759,360.4375,749,364.4375,759,368.4375,755,364.4375" style="stroke:#181818;stroke-width:1.0;"/><line style="stroke:#181818;stroke-width:1.0;stroke-dasharray:2.0,2.0;" x1="753" x2="1087.5" y1="364.4375" y2="364.4375"/><text fill="#000000" font-family="sans-serif" font-size="20" font-weight="bold" lengthAdjust="spacing" textLength="13" x="765" y="358.2188">7</text><text fill="#000000" font-family="sans-serif" font-size="20" lengthAdjust="spacing" textLength="168" x="782" y="358.2188">agencyRepository</text><polygon fill="#181818" points="1244,397.9922,1254,401.9922,1244,405.9922,1248,401.9922" style="stroke:#181818;stroke-width:1.0;"/><line style="stroke:#181818;stroke-width:1.0;" x1="748" x2="1250" y1="401.9922" y2="401.9922"/><text fill="#000000" font-family="sans-serif" font-size="20" font-weight="bold" lengthAdjust="spacing" textLength="13" x="755" y="395.7734">8</text><text fill="#000000" font-family="sans-serif" font-size="20" lengthAdjust="spacing" textLength="209" x="772" y="395.7734">getAgencyListSorted()</text><line style="stroke:#181818;stroke-width:1.0;" x1="1271" x2="1313" y1="439.5469" y2="439.5469"/><line style="stroke:#181818;stroke-width:1.0;" x1="1313" x2="1313" y1="439.5469" y2="452.5469"/><line style="stroke:#181818;stroke-width:1.0;" x1="1272" x2="1313" y1="452.5469" y2="452.5469"/><polygon fill="#181818" points="1282,448.5469,1272,452.5469,1282,456.5469,1278,452.5469" style="stroke:#181818;stroke-width:1.0;"/><text fill="#000000" font-family="sans-serif" font-size="20" font-weight="bold" lengthAdjust="spacing" textLength="13" x="1278" y="433.3281">9</text><text fill="#000000" font-family="sans-serif" font-size="20" lengthAdjust="spacing" textLength="164" x="1295" y="433.3281">getAgenciesList()</text><line style="stroke:#181818;stroke-width:1.0;" x1="1266" x2="1308" y1="520.1016" y2="520.1016"/><line style="stroke:#181818;stroke-width:1.0;" x1="1308" x2="1308" y1="520.1016" y2="533.1016"/><line style="stroke:#181818;stroke-width:1.0;" x1="1267" x2="1308" y1="533.1016" y2="533.1016"/><polygon fill="#181818" points="1277,529.1016,1267,533.1016,1277,537.1016,1273,533.1016" style="stroke:#181818;stroke-width:1.0;"/><text fill="#000000" font-family="sans-serif" font-size="20" font-weight="bold" lengthAdjust="spacing" textLength="26" x="1273" y="513.8828">10</text><text fill="#000000" font-family="sans-serif" font-size="20" lengthAdjust="spacing" textLength="51" x="1303" y="513.8828">sort()</text><path d="M1152.5,548.1016 L1243.5,548.1016 L1243.5,563.6563 L1233.5,573.6563 L1152.5,573.6563 L1152.5,548.1016 " fill="#EEEEEE" style="stroke:#000000;stroke-width:1.5;"/><rect fill="none" height="159.7734" style="stroke:#000000;stroke-width:1.5;" width="651" x="1152.5" y="548.1016"/><text fill="#000000" font-family="sans-serif" font-size="20" font-weight="bold" lengthAdjust="spacing" textLength="46" x="1167.5" y="568.4375">loop</text><text fill="#000000" font-family="sans-serif" font-size="20" font-weight="bold" lengthAdjust="spacing" textLength="540" x="1258.5" y="569.4375">[for each Store in AgenciesList get listOfEmployees]</text><polygon fill="#181818" points="1507,607.7656,1517,611.7656,1507,615.7656,1511,611.7656" style="stroke:#181818;stroke-width:1.0;"/><line style="stroke:#181818;stroke-width:1.0;" x1="1266" x2="1513" y1="611.7656" y2="611.7656"/><text fill="#000000" font-family="sans-serif" font-size="20" font-weight="bold" lengthAdjust="spacing" textLength="26" x="1273" y="605.5469">11</text><text fill="#000000" font-family="sans-serif" font-size="20" lengthAdjust="spacing" textLength="204" x="1303" y="605.5469">getListOfEmployees()</text><polygon fill="#181818" points="1277,645.3203,1267,649.3203,1277,653.3203,1273,649.3203" style="stroke:#181818;stroke-width:1.0;"/><line style="stroke:#181818;stroke-width:1.0;stroke-dasharray:2.0,2.0;" x1="1271" x2="1523" y1="649.3203" y2="649.3203"/><text fill="#000000" font-family="sans-serif" font-size="20" font-weight="bold" lengthAdjust="spacing" textLength="26" x="1283" y="643.1016">12</text><text fill="#000000" font-family="sans-serif" font-size="20" lengthAdjust="spacing" textLength="174" x="1313" y="643.1016">ListOfEmployees()</text><line style="stroke:#181818;stroke-width:1.0;" x1="1266" x2="1308" y1="686.875" y2="686.875"/><line style="stroke:#181818;stroke-width:1.0;" x1="1308" x2="1308" y1="686.875" y2="699.875"/><line style="stroke:#181818;stroke-width:1.0;" x1="1267" x2="1308" y1="699.875" y2="699.875"/><polygon fill="#181818" points="1277,695.875,1267,699.875,1277,703.875,1273,699.875" style="stroke:#181818;stroke-width:1.0;"/><text fill="#000000" font-family="sans-serif" font-size="20" font-weight="bold" lengthAdjust="spacing" textLength="26" x="1273" y="680.6563">13</text><text fill="#000000" font-family="sans-serif" font-size="20" lengthAdjust="spacing" textLength="51" x="1303" y="680.6563">sort()</text><polygon fill="#181818" points="759,740.4297,749,744.4297,759,748.4297,755,744.4297" style="stroke:#181818;stroke-width:1.0;"/><line style="stroke:#181818;stroke-width:1.0;stroke-dasharray:2.0,2.0;" x1="753" x2="1260" y1="744.4297" y2="744.4297"/><text fill="#000000" font-family="sans-serif" font-size="20" font-weight="bold" lengthAdjust="spacing" textLength="26" x="765" y="738.2109">14</text><text fill="#000000" font-family="sans-serif" font-size="20" lengthAdjust="spacing" textLength="138" x="795" y="738.2109">agencyListSort</text><polygon fill="#181818" points="1837.5,777.9844,1847.5,781.9844,1837.5,785.9844,1841.5,781.9844" style="stroke:#181818;stroke-width:1.0;"/><line style="stroke:#181818;stroke-width:1.0;" x1="748" x2="1843.5" y1="781.9844" y2="781.9844"/><text fill="#000000" font-family="sans-serif" font-size="20" font-weight="bold" lengthAdjust="spacing" textLength="26" x="755" y="775.7656">15</text><text fill="#000000" font-family="sans-serif" font-size="20" lengthAdjust="spacing" textLength="215" x="785" y="775.7656">toDTO(agencyListSort)</text><polygon fill="#181818" points="1991,815.5391,2001,819.5391,1991,823.5391,1995,819.5391" style="stroke:#181818;stroke-width:1.0;"/><line style="stroke:#181818;stroke-width:1.0;" x1="1849.5" x2="1997" y1="819.5391" y2="819.5391"/><text fill="#000000" font-family="sans-serif" font-size="20" font-weight="bold" lengthAdjust="spacing" textLength="26" x="1856.5" y="813.3203">16</text><text fill="#000000" font-family="sans-serif" font-size="20" lengthAdjust="spacing" textLength="72" x="1886.5" y="813.3203">create()</text><rect fill="#E3E3E3" height="61.1094" rx="2.5" ry="2.5" style="stroke:#181818;stroke-width:0.5;" width="157" x="2003" y="789.9844"/><text fill="#000000" font-family="sans-serif" font-size="20" lengthAdjust="spacing" textLength="137" x="2013" y="816.3203">employeeDTO</text><text fill="#000000" font-family="sans-serif" font-size="20" lengthAdjust="spacing" textLength="143" x="2010" y="839.875">:EmployeeDTO</text><polygon fill="#181818" points="2158,887.6484,2168,891.6484,2158,895.6484,2162,891.6484" style="stroke:#181818;stroke-width:1.0;"/><line style="stroke:#181818;stroke-width:1.0;" x1="1849.5" x2="2164" y1="891.6484" y2="891.6484"/><text fill="#000000" font-family="sans-serif" font-size="20" font-weight="bold" lengthAdjust="spacing" textLength="26" x="1856.5" y="885.4297">17</text><text fill="#000000" font-family="sans-serif" font-size="20" lengthAdjust="spacing" textLength="72" x="1886.5" y="885.4297">create()</text><rect fill="#E3E3E3" height="61.1094" rx="2.5" ry="2.5" style="stroke:#181818;stroke-width:0.5;" width="133" x="2170" y="862.0938"/><text fill="#000000" font-family="sans-serif" font-size="20" lengthAdjust="spacing" textLength="110" x="2181.5" y="888.4297">agencyDTO</text><text fill="#000000" font-family="sans-serif" font-size="20" lengthAdjust="spacing" textLength="119" x="2177" y="911.9844">:AgencyDTO</text><path d="M1748.5,941.2031 L1839.5,941.2031 L1839.5,956.7578 L1829.5,966.7578 L1748.5,966.7578 L1748.5,941.2031 " fill="#EEEEEE" style="stroke:#000000;stroke-width:1.5;"/><rect fill="none" height="359.5469" style="stroke:#000000;stroke-width:1.5;" width="564.5" x="1748.5" y="941.2031"/><text fill="#000000" font-family="sans-serif" font-size="20" font-weight="bold" lengthAdjust="spacing" textLength="46" x="1763.5" y="961.5391">loop</text><text fill="#000000" font-family="sans-serif" font-size="20" font-weight="bold" lengthAdjust="spacing" textLength="383" x="1854.5" y="962.5391">[for each agency in agenciesListSort]</text><path d="M1758.5,982.3125 L1849.5,982.3125 L1849.5,997.8672 L1839.5,1007.8672 L1758.5,1007.8672 L1758.5,982.3125 " fill="#EEEEEE" style="stroke:#000000;stroke-width:1.5;"/><rect fill="none" height="172.7734" style="stroke:#000000;stroke-width:1.5;" width="489" x="1758.5" y="982.3125"/><text fill="#000000" font-family="sans-serif" font-size="20" font-weight="bold" lengthAdjust="spacing" textLength="46" x="1773.5" y="1002.6484">loop</text><text fill="#000000" font-family="sans-serif" font-size="20" font-weight="bold" lengthAdjust="spacing" textLength="378" x="1864.5" y="1003.6484">[for each Employee in employeeList]</text><line style="stroke:#181818;stroke-width:1.0;" x1="1849.5" x2="1896.5" y1="1040.9766" y2="1040.9766"/><line style="stroke:#181818;stroke-width:1.0;" x1="1896.5" x2="1896.5" y1="1040.9766" y2="1053.9766"/><line style="stroke:#181818;stroke-width:1.0;" x1="1855.5" x2="1896.5" y1="1053.9766" y2="1053.9766"/><polygon fill="#181818" points="1865.5,1049.9766,1855.5,1053.9766,1865.5,1057.9766,1861.5,1053.9766" style="stroke:#181818;stroke-width:1.0;"/><text fill="#000000" font-family="sans-serif" font-size="20" font-weight="bold" lengthAdjust="spacing" textLength="26" x="1861.5" y="1034.7578">18</text><text fill="#000000" font-family="sans-serif" font-size="20" lengthAdjust="spacing" textLength="170" x="1891.5" y="1034.7578">toDTO(employee)</text><polygon fill="#181818" points="1860.5,1092.5313,1850.5,1096.5313,1860.5,1100.5313,1856.5,1096.5313" style="stroke:#181818;stroke-width:1.0;"/><line style="stroke:#181818;stroke-width:1.0;stroke-dasharray:2.0,2.0;" x1="1854.5" x2="2080.5" y1="1096.5313" y2="1096.5313"/><text fill="#000000" font-family="sans-serif" font-size="20" font-weight="bold" lengthAdjust="spacing" textLength="26" x="1866.5" y="1090.3125">19</text><text fill="#000000" font-family="sans-serif" font-size="20" lengthAdjust="spacing" textLength="137" x="1896.5" y="1090.3125">employeeDTO</text><line style="stroke:#181818;stroke-width:1.0;" x1="1849.5" x2="1891.5" y1="1134.0859" y2="1134.0859"/><line style="stroke:#181818;stroke-width:1.0;" x1="1891.5" x2="1891.5" y1="1134.0859" y2="1147.0859"/><line style="stroke:#181818;stroke-width:1.0;" x1="1850.5" x2="1891.5" y1="1147.0859" y2="1147.0859"/><polygon fill="#181818" points="1860.5,1143.0859,1850.5,1147.0859,1860.5,1151.0859,1856.5,1147.0859" style="stroke:#181818;stroke-width:1.0;"/><text fill="#000000" font-family="sans-serif" font-size="20" font-weight="bold" lengthAdjust="spacing" textLength="26" x="1856.5" y="1127.8672">20</text><text fill="#000000" font-family="sans-serif" font-size="20" lengthAdjust="spacing" textLength="188" x="1886.5" y="1127.8672">add(employeeDTO)</text><line style="stroke:#181818;stroke-width:1.0;" x1="1849.5" x2="1896.5" y1="1186.6406" y2="1186.6406"/><line style="stroke:#181818;stroke-width:1.0;" x1="1896.5" x2="1896.5" y1="1186.6406" y2="1199.6406"/><line style="stroke:#181818;stroke-width:1.0;" x1="1855.5" x2="1896.5" y1="1199.6406" y2="1199.6406"/><polygon fill="#181818" points="1865.5,1195.6406,1855.5,1199.6406,1865.5,1203.6406,1861.5,1199.6406" style="stroke:#181818;stroke-width:1.0;"/><text fill="#000000" font-family="sans-serif" font-size="20" font-weight="bold" lengthAdjust="spacing" textLength="26" x="1861.5" y="1180.4219">21</text><text fill="#000000" font-family="sans-serif" font-size="20" lengthAdjust="spacing" textLength="143" x="1891.5" y="1180.4219">toDTO(agency)</text><polygon fill="#181818" points="1860.5,1238.1953,1850.5,1242.1953,1860.5,1246.1953,1856.5,1242.1953" style="stroke:#181818;stroke-width:1.0;"/><line style="stroke:#181818;stroke-width:1.0;stroke-dasharray:2.0,2.0;" x1="1854.5" x2="2235.5" y1="1242.1953" y2="1242.1953"/><text fill="#000000" font-family="sans-serif" font-size="20" font-weight="bold" lengthAdjust="spacing" textLength="26" x="1866.5" y="1235.9766">22</text><text fill="#000000" font-family="sans-serif" font-size="20" lengthAdjust="spacing" textLength="110" x="1896.5" y="1235.9766">agencyDTO</text><line style="stroke:#181818;stroke-width:1.0;" x1="1849.5" x2="1891.5" y1="1279.75" y2="1279.75"/><line style="stroke:#181818;stroke-width:1.0;" x1="1891.5" x2="1891.5" y1="1279.75" y2="1292.75"/><line style="stroke:#181818;stroke-width:1.0;" x1="1850.5" x2="1891.5" y1="1292.75" y2="1292.75"/><polygon fill="#181818" points="1860.5,1288.75,1850.5,1292.75,1860.5,1296.75,1856.5,1292.75" style="stroke:#181818;stroke-width:1.0;"/><text fill="#000000" font-family="sans-serif" font-size="20" font-weight="bold" lengthAdjust="spacing" textLength="26" x="1856.5" y="1273.5313">23</text><text fill="#000000" font-family="sans-serif" font-size="20" lengthAdjust="spacing" textLength="161" x="1886.5" y="1273.5313">add(agencyDTO)</text><polygon fill="#181818" points="759,1333.3047,749,1337.3047,759,1341.3047,755,1337.3047" style="stroke:#181818;stroke-width:1.0;"/><line style="stroke:#181818;stroke-width:1.0;stroke-dasharray:2.0,2.0;" x1="753" x2="1848.5" y1="1337.3047" y2="1337.3047"/><text fill="#000000" font-family="sans-serif" font-size="20" font-weight="bold" lengthAdjust="spacing" textLength="26" x="765" y="1331.0859">24</text><text fill="#000000" font-family="sans-serif" font-size="20" lengthAdjust="spacing" textLength="182" x="795" y="1331.0859">agencyDTOListSort</text><polygon fill="#181818" points="504,1370.8594,494,1374.8594,504,1378.8594,500,1374.8594" style="stroke:#181818;stroke-width:1.0;"/><line style="stroke:#181818;stroke-width:1.0;stroke-dasharray:2.0,2.0;" x1="498" x2="742" y1="1374.8594" y2="1374.8594"/><text fill="#000000" font-family="sans-serif" font-size="20" font-weight="bold" lengthAdjust="spacing" textLength="26" x="510" y="1368.6406">25</text><text fill="#000000" font-family="sans-serif" font-size="20" lengthAdjust="spacing" textLength="182" x="540" y="1368.6406">agencyDTOListSort</text><polygon fill="#181818" points="104,1408.4141,94,1412.4141,104,1416.4141,100,1412.4141" style="stroke:#181818;stroke-width:1.0;"/><line style="stroke:#181818;stroke-width:1.0;stroke-dasharray:2.0,2.0;" x1="98" x2="487" y1="1412.4141" y2="1412.4141"/><text fill="#000000" font-family="sans-serif" font-size="20" font-weight="bold" lengthAdjust="spacing" textLength="26" x="110" y="1406.1953">26</text><text fill="#000000" font-family="sans-serif" font-size="20" lengthAdjust="spacing" textLength="94" x="140" y="1406.1953">shows list</text><!--SRC=[ZLHDZzem4BtxLupsmYvIfAh7792YBQsGO7T5s5iltcI0Y617jjaj_VKTst6m0ztsG4ZiDs_UVEf38pgk-B6LrG5hg77BJwtvBeKfczy8Nxym7I1mb49MUoMF24QTCBhfU7NWEopDkKLGM1akTcqCq7jUouz6x63BMusCyPEHudHyGyNOPD_K25ifpPlynNXbf8Ax9pGVKXtWo0KngplW6WGQHdocgPgE2mDt-RBHPdxiMdb6rAyBXtfTV09wfCYKRDkUyN6pNexG2Zkf6zBGeCuTY4vIp3f0pZz5Vldmw7AJWaczgCw9IJ4w2eRFw_ajsy72mOeKqb9mpziX1uHTfYVEw2RlYdSTge7TVteVg-BbPRvEZR1d_BPv9flvvSjxMBtGwoqt7b-4T-_WnvD5ss8txzoWAosZ1sGpAY3aKEY31YF1nWV1jOP60BwZEeEcn654G5KdExAs9PrEYQ5II1Vt3umk-lCSTcYy4fkbKYg3DI465jSFR3Bqm9dP4qjBHpaPBuIcvgumDhBzGRyicpaVSGEn6XDOO2itaPHB8yIir4Vb9d2EcoZc9M0a653K506H6pjkseNeioYtu7YiBZQnDnOn75b7sSnrOVwFDFbMTS-n1J5PcsjqelZAtAeXcojLVJZs-D85h9MoeuMXW3ZtKDfMi9qH2x3fXT5m19U5LJiQarXmmOei2Bk6HO4KDuDWLhCxWRH-8PdNkHW5-7z5x55-RW619YfKiH_Wt4Wwl4-znu4IZFNOREP7U3hDXyaPhloynbTf2Rm7MmCUrS35cW938jqWz-yM6hbAf0TC9BhVDFulknX4-obES0-_ukTrVH-PFBYg_KM53ozEdDzV_Y_IC6oyf4jwy2q5Wq7gFsaRkhtLEM59kufdizV5vt2tscWJPZDQixdUom_jEYh6q1ADFmdu1m00]--></g></svg>