<?xml version="1.0" encoding="UTF-8" standalone="no"?><svg xmlns="http://www.w3.org/2000/svg" xmlns:xlink="http://www.w3.org/1999/xlink" contentStyleType="text/css" height="1544px" preserveAspectRatio="none" style="width:3586px;height:1544px;background:#FFFFFF;" version="1.1" viewBox="0 0 3586 1544" width="3586px" zoomAndPan="magnify"><defs/><g><rect fill="#FFFFFF" height="1354.0781" style="stroke:#181818;stroke-width:1.0;" width="10" x="474" y="106.6641"/><rect fill="#FFFFFF" height="37.5547" style="stroke:#181818;stroke-width:1.0;" width="10" x="683.5" y="144.2188"/><rect fill="#FFFFFF" height="37.5547" style="stroke:#181818;stroke-width:1.0;" width="10" x="830" y="219.3281"/><rect fill="#FFFFFF" height="668.0938" style="stroke:#181818;stroke-width:1.0;" width="10" x="1038.5" y="294.4375"/><rect fill="#FFFFFF" height="592.9844" style="stroke:#181818;stroke-width:1.0;" width="10" x="1601.5" y="331.9922"/><rect fill="#FFFFFF" height="37.5547" style="stroke:#181818;stroke-width:1.0;" width="10" x="2001.5" y="533.3203"/><rect fill="#FFFFFF" height="37.5547" style="stroke:#181818;stroke-width:1.0;" width="10" x="2194" y="649.5391"/><rect fill="#FFFFFF" height="37.5547" style="stroke:#181818;stroke-width:1.0;" width="10" x="2302" y="750.2031"/><rect fill="#FFFFFF" height="423.1016" style="stroke:#181818;stroke-width:1.0;" width="10" x="2469" y="1000.0859"/><rect fill="#FFFFFF" height="42.5547" style="stroke:#181818;stroke-width:1.0;" width="10" x="2474" y="1233.9688"/><rect fill="#FFFFFF" height="37.5547" style="stroke:#181818;stroke-width:1.0;" width="10" x="2840" y="1150.8594"/><rect fill="#FFFFFF" height="30" style="stroke:#181818;stroke-width:1.0;" width="10" x="3174" y="1348.6328"/><rect fill="none" height="469.3203" style="stroke:#000000;stroke-width:1.5;" width="1554" x="1462" y="419.1016"/><rect fill="none" height="209.8828" style="stroke:#000000;stroke-width:1.5;" width="883.5" x="1472" y="585.875"/><rect fill="none" height="71.6641" style="stroke:#000000;stroke-width:1.5;" width="1534" x="1472" y="809.7578"/><rect fill="none" height="299.4375" style="stroke:#000000;stroke-width:1.5;" width="1234.5" x="2345.5" y="1087.1953"/><line style="stroke:#181818;stroke-width:0.5;stroke-dasharray:5.0,5.0;" x1="479" x2="479" y1="67.1094" y2="1478.7422"/><line style="stroke:#181818;stroke-width:0.5;stroke-dasharray:5.0,5.0;" x1="688" x2="688" y1="67.1094" y2="1478.7422"/><line style="stroke:#181818;stroke-width:0.5;stroke-dasharray:5.0,5.0;" x1="835" x2="835" y1="67.1094" y2="1478.7422"/><line style="stroke:#181818;stroke-width:0.5;stroke-dasharray:5.0,5.0;" x1="1043" x2="1043" y1="67.1094" y2="1478.7422"/><line style="stroke:#181818;stroke-width:0.5;stroke-dasharray:5.0,5.0;" x1="1606" x2="1606" y1="67.1094" y2="1478.7422"/><line style="stroke:#181818;stroke-width:0.5;stroke-dasharray:5.0,5.0;" x1="2006.5" x2="2006.5" y1="67.1094" y2="1478.7422"/><line style="stroke:#181818;stroke-width:0.5;stroke-dasharray:5.0,5.0;" x1="2098.5" x2="2098.5" y1="67.1094" y2="1478.7422"/><line style="stroke:#181818;stroke-width:0.5;stroke-dasharray:5.0,5.0;" x1="2198.5" x2="2198.5" y1="67.1094" y2="1478.7422"/><line style="stroke:#181818;stroke-width:0.5;stroke-dasharray:5.0,5.0;" x1="2306.5" x2="2306.5" y1="67.1094" y2="1478.7422"/><line style="stroke:#181818;stroke-width:0.5;stroke-dasharray:5.0,5.0;" x1="2473.5" x2="2473.5" y1="67.1094" y2="1478.7422"/><line style="stroke:#181818;stroke-width:0.5;stroke-dasharray:5.0,5.0;" x1="2845" x2="2845" y1="386.0469" y2="1478.7422"/><line style="stroke:#181818;stroke-width:0.5;stroke-dasharray:5.0,5.0;" x1="3179" x2="3179" y1="1054.1406" y2="1478.7422"/><line style="stroke:#181818;stroke-width:0.5;stroke-dasharray:5.0,5.0;" x1="3466" x2="3466" y1="1293.0234" y2="1478.7422"/><rect fill="#E3E3E3" height="37.5547" rx="2.5" ry="2.5" style="stroke:#181818;stroke-width:0.5;" width="260" x="349" y="28.5547"/><text fill="#000000" font-family="sans-serif" font-size="20" lengthAdjust="spacing" textLength="246" x="356" y="54.8906">:AnnouncementController</text><rect fill="#E3E3E3" height="37.5547" rx="2.5" ry="2.5" style="stroke:#181818;stroke-width:0.5;" width="260" x="349" y="1477.7422"/><text fill="#000000" font-family="sans-serif" font-size="20" lengthAdjust="spacing" textLength="246" x="356" y="1504.0781">:AnnouncementController</text><rect fill="#E3E3E3" height="37.5547" rx="2.5" ry="2.5" style="stroke:#181818;stroke-width:0.5;" width="139" x="619" y="28.5547"/><text fill="#000000" font-family="sans-serif" font-size="20" lengthAdjust="spacing" textLength="125" x="626" y="54.8906">:Repositories</text><rect fill="#E3E3E3" height="37.5547" rx="2.5" ry="2.5" style="stroke:#181818;stroke-width:0.5;" width="139" x="619" y="1477.7422"/><text fill="#000000" font-family="sans-serif" font-size="20" lengthAdjust="spacing" textLength="125" x="626" y="1504.0781">:Repositories</text><rect fill="#E3E3E3" height="61.1094" rx="2.5" ry="2.5" style="stroke:#181818;stroke-width:0.5;" width="134" x="768" y="5"/><text fill="#000000" font-family="sans-serif" font-size="20" lengthAdjust="spacing" textLength="120" x="775" y="31.3359">repositories:</text><text fill="#000000" font-family="sans-serif" font-size="20" lengthAdjust="spacing" textLength="119" x="775.5" y="54.8906">Repositories</text><rect fill="#E3E3E3" height="61.1094" rx="2.5" ry="2.5" style="stroke:#181818;stroke-width:0.5;" width="134" x="768" y="1477.7422"/><text fill="#000000" font-family="sans-serif" font-size="20" lengthAdjust="spacing" textLength="120" x="775" y="1504.0781">repositories:</text><text fill="#000000" font-family="sans-serif" font-size="20" lengthAdjust="spacing" textLength="119" x="775.5" y="1527.6328">Repositories</text><rect fill="#E3E3E3" height="61.1094" rx="2.5" ry="2.5" style="stroke:#181818;stroke-width:0.5;" width="263" x="912" y="5"/><text fill="#000000" font-family="sans-serif" font-size="20" lengthAdjust="spacing" textLength="249" x="919" y="31.3359">announcementRepository:</text><text fill="#000000" font-family="sans-serif" font-size="20" lengthAdjust="spacing" textLength="246" x="920.5" y="54.8906">AnnouncementRepository</text><rect fill="#E3E3E3" height="61.1094" rx="2.5" ry="2.5" style="stroke:#181818;stroke-width:0.5;" width="263" x="912" y="1477.7422"/><text fill="#000000" font-family="sans-serif" font-size="20" lengthAdjust="spacing" textLength="249" x="919" y="1504.0781">announcementRepository:</text><text fill="#000000" font-family="sans-serif" font-size="20" lengthAdjust="spacing" textLength="246" x="920.5" y="1527.6328">AnnouncementRepository</text><rect fill="#E3E3E3" height="61.1094" rx="2.5" ry="2.5" style="stroke:#181818;stroke-width:0.5;" width="249" x="1482" y="5"/><text fill="#000000" font-family="sans-serif" font-size="20" lengthAdjust="spacing" textLength="235" x="1489" y="31.3359">announcementAvailable:</text><text fill="#000000" font-family="sans-serif" font-size="20" lengthAdjust="spacing" textLength="232" x="1490.5" y="54.8906">AnnouncementAvailable</text><rect fill="#E3E3E3" height="61.1094" rx="2.5" ry="2.5" style="stroke:#181818;stroke-width:0.5;" width="249" x="1482" y="1477.7422"/><text fill="#000000" font-family="sans-serif" font-size="20" lengthAdjust="spacing" textLength="235" x="1489" y="1504.0781">announcementAvailable:</text><text fill="#000000" font-family="sans-serif" font-size="20" lengthAdjust="spacing" textLength="232" x="1490.5" y="1527.6328">AnnouncementAvailable</text><rect fill="#E3E3E3" height="61.1094" rx="2.5" ry="2.5" style="stroke:#181818;stroke-width:0.5;" width="102" x="1955.5" y="5"/><text fill="#000000" font-family="sans-serif" font-size="20" lengthAdjust="spacing" textLength="88" x="1962.5" y="31.3359">property:</text><text fill="#000000" font-family="sans-serif" font-size="20" lengthAdjust="spacing" textLength="80" x="1966.5" y="54.8906">Property</text><rect fill="#E3E3E3" height="61.1094" rx="2.5" ry="2.5" style="stroke:#181818;stroke-width:0.5;" width="102" x="1955.5" y="1477.7422"/><text fill="#000000" font-family="sans-serif" font-size="20" lengthAdjust="spacing" textLength="88" x="1962.5" y="1504.0781">property:</text><text fill="#000000" font-family="sans-serif" font-size="20" lengthAdjust="spacing" textLength="80" x="1966.5" y="1527.6328">Property</text><rect fill="#E3E3E3" height="61.1094" rx="2.5" ry="2.5" style="stroke:#181818;stroke-width:0.5;" width="62" x="2067.5" y="5"/><text fill="#000000" font-family="sans-serif" font-size="20" lengthAdjust="spacing" textLength="48" x="2074.5" y="31.3359">land:</text><text fill="#000000" font-family="sans-serif" font-size="20" lengthAdjust="spacing" textLength="47" x="2075" y="54.8906">Land</text><rect fill="#E3E3E3" height="61.1094" rx="2.5" ry="2.5" style="stroke:#181818;stroke-width:0.5;" width="62" x="2067.5" y="1477.7422"/><text fill="#000000" font-family="sans-serif" font-size="20" lengthAdjust="spacing" textLength="48" x="2074.5" y="1504.0781">land:</text><text fill="#000000" font-family="sans-serif" font-size="20" lengthAdjust="spacing" textLength="47" x="2075" y="1527.6328">Land</text><rect fill="#E3E3E3" height="61.1094" rx="2.5" ry="2.5" style="stroke:#181818;stroke-width:0.5;" width="119" x="2139.5" y="5"/><text fill="#000000" font-family="sans-serif" font-size="20" lengthAdjust="spacing" textLength="105" x="2146.5" y="31.3359">apartment:</text><text fill="#000000" font-family="sans-serif" font-size="20" lengthAdjust="spacing" textLength="102" x="2148" y="54.8906">Apartment</text><rect fill="#E3E3E3" height="61.1094" rx="2.5" ry="2.5" style="stroke:#181818;stroke-width:0.5;" width="119" x="2139.5" y="1477.7422"/><text fill="#000000" font-family="sans-serif" font-size="20" lengthAdjust="spacing" textLength="105" x="2146.5" y="1504.0781">apartment:</text><text fill="#000000" font-family="sans-serif" font-size="20" lengthAdjust="spacing" textLength="102" x="2148" y="1527.6328">Apartment</text><rect fill="#E3E3E3" height="61.1094" rx="2.5" ry="2.5" style="stroke:#181818;stroke-width:0.5;" width="77" x="2268.5" y="5"/><text fill="#000000" font-family="sans-serif" font-size="20" lengthAdjust="spacing" textLength="63" x="2275.5" y="31.3359">house:</text><text fill="#000000" font-family="sans-serif" font-size="20" lengthAdjust="spacing" textLength="60" x="2277" y="54.8906">House</text><rect fill="#E3E3E3" height="61.1094" rx="2.5" ry="2.5" style="stroke:#181818;stroke-width:0.5;" width="77" x="2268.5" y="1477.7422"/><text fill="#000000" font-family="sans-serif" font-size="20" lengthAdjust="spacing" textLength="63" x="2275.5" y="1504.0781">house:</text><text fill="#000000" font-family="sans-serif" font-size="20" lengthAdjust="spacing" textLength="60" x="2277" y="1527.6328">House</text><rect fill="#E3E3E3" height="61.1094" rx="2.5" ry="2.5" style="stroke:#181818;stroke-width:0.5;" width="237" x="2355.5" y="5"/><text fill="#000000" font-family="sans-serif" font-size="20" lengthAdjust="spacing" textLength="214" x="2367" y="31.3359">announcementMapper</text><text fill="#000000" font-family="sans-serif" font-size="20" lengthAdjust="spacing" textLength="223" x="2362.5" y="54.8906">:AnnouncementMapper</text><rect fill="#E3E3E3" height="61.1094" rx="2.5" ry="2.5" style="stroke:#181818;stroke-width:0.5;" width="237" x="2355.5" y="1477.7422"/><text fill="#000000" font-family="sans-serif" font-size="20" lengthAdjust="spacing" textLength="214" x="2367" y="1504.0781">announcementMapper</text><text fill="#000000" font-family="sans-serif" font-size="20" lengthAdjust="spacing" textLength="223" x="2362.5" y="1527.6328">:AnnouncementMapper</text><rect fill="#E3E3E3" height="61.1094" rx="2.5" ry="2.5" style="stroke:#181818;stroke-width:0.5;" width="302" x="2694" y="1477.7422"/><text fill="#000000" font-family="sans-serif" font-size="20" lengthAdjust="spacing" textLength="266" x="2712" y="1504.0781">ListAnnouncementAvailable</text><text fill="#000000" font-family="sans-serif" font-size="20" lengthAdjust="spacing" textLength="288" x="2701" y="1527.6328">:List&lt;AnnouncementAvailable</text><rect fill="#E3E3E3" height="61.1094" rx="2.5" ry="2.5" style="stroke:#181818;stroke-width:0.5;" width="346" x="3006" y="1477.7422"/><text fill="#000000" font-family="sans-serif" font-size="20" lengthAdjust="spacing" textLength="310" x="3024" y="1504.0781">ListAnnouncementAvailableDTO</text><text fill="#000000" font-family="sans-serif" font-size="20" lengthAdjust="spacing" textLength="332" x="3013" y="1527.6328">:List&lt;AnnouncementAvailableDTO</text><rect fill="#E3E3E3" height="61.1094" rx="2.5" ry="2.5" style="stroke:#181818;stroke-width:0.5;" width="208" x="3362" y="1477.7422"/><text fill="#000000" font-family="sans-serif" font-size="20" lengthAdjust="spacing" textLength="185" x="3373.5" y="1504.0781">announcementDTO</text><text fill="#000000" font-family="sans-serif" font-size="20" lengthAdjust="spacing" textLength="194" x="3369" y="1527.6328">:AnnouncementDTO</text><rect fill="#FFFFFF" height="1354.0781" style="stroke:#181818;stroke-width:1.0;" width="10" x="474" y="106.6641"/><rect fill="#FFFFFF" height="37.5547" style="stroke:#181818;stroke-width:1.0;" width="10" x="683.5" y="144.2188"/><rect fill="#FFFFFF" height="37.5547" style="stroke:#181818;stroke-width:1.0;" width="10" x="830" y="219.3281"/><rect fill="#FFFFFF" height="668.0938" style="stroke:#181818;stroke-width:1.0;" width="10" x="1038.5" y="294.4375"/><rect fill="#FFFFFF" height="592.9844" style="stroke:#181818;stroke-width:1.0;" width="10" x="1601.5" y="331.9922"/><rect fill="#FFFFFF" height="37.5547" style="stroke:#181818;stroke-width:1.0;" width="10" x="2001.5" y="533.3203"/><rect fill="#FFFFFF" height="37.5547" style="stroke:#181818;stroke-width:1.0;" width="10" x="2194" y="649.5391"/><rect fill="#FFFFFF" height="37.5547" style="stroke:#181818;stroke-width:1.0;" width="10" x="2302" y="750.2031"/><rect fill="#FFFFFF" height="423.1016" style="stroke:#181818;stroke-width:1.0;" width="10" x="2469" y="1000.0859"/><rect fill="#FFFFFF" height="42.5547" style="stroke:#181818;stroke-width:1.0;" width="10" x="2474" y="1233.9688"/><rect fill="#FFFFFF" height="37.5547" style="stroke:#181818;stroke-width:1.0;" width="10" x="2840" y="1150.8594"/><rect fill="#FFFFFF" height="30" style="stroke:#181818;stroke-width:1.0;" width="10" x="3174" y="1348.6328"/><polygon fill="#181818" points="462,102.6641,472,106.6641,462,110.6641,466,106.6641" style="stroke:#181818;stroke-width:1.0;"/><line style="stroke:#181818;stroke-width:1.0;" x1="0" x2="468" y1="106.6641" y2="106.6641"/><text fill="#000000" font-family="sans-serif" font-size="20" font-weight="bold" lengthAdjust="spacing" textLength="13" x="7" y="100.4453">9</text><text fill="#000000" font-family="sans-serif" font-size="20" lengthAdjust="spacing" textLength="438" x="24" y="100.4453">getAnnouncementList (business, type, rooms)</text><polygon fill="#181818" points="671.5,140.2188,681.5,144.2188,671.5,148.2188,675.5,144.2188" style="stroke:#181818;stroke-width:1.0;"/><line style="stroke:#181818;stroke-width:1.0;" x1="484" x2="677.5" y1="144.2188" y2="144.2188"/><text fill="#000000" font-family="sans-serif" font-size="20" font-weight="bold" lengthAdjust="spacing" textLength="31" x="491" y="138">9.1</text><text fill="#000000" font-family="sans-serif" font-size="20" lengthAdjust="spacing" textLength="123" x="526" y="138">getInstance()</text><polygon fill="#181818" points="495,177.7734,485,181.7734,495,185.7734,491,181.7734" style="stroke:#181818;stroke-width:1.0;"/><line style="stroke:#181818;stroke-width:1.0;stroke-dasharray:2.0,2.0;" x1="489" x2="687.5" y1="181.7734" y2="181.7734"/><text fill="#000000" font-family="sans-serif" font-size="20" font-weight="bold" lengthAdjust="spacing" textLength="31" x="501" y="175.5547">9.2</text><text fill="#000000" font-family="sans-serif" font-size="20" lengthAdjust="spacing" textLength="119" x="536" y="175.5547">Repositories</text><polygon fill="#181818" points="818,215.3281,828,219.3281,818,223.3281,822,219.3281" style="stroke:#181818;stroke-width:1.0;"/><line style="stroke:#181818;stroke-width:1.0;" x1="484" x2="824" y1="219.3281" y2="219.3281"/><text fill="#000000" font-family="sans-serif" font-size="20" font-weight="bold" lengthAdjust="spacing" textLength="31" x="491" y="213.1094">9.3</text><text fill="#000000" font-family="sans-serif" font-size="20" lengthAdjust="spacing" textLength="290" x="526" y="213.1094">getAnnouncementRepository()</text><polygon fill="#181818" points="495,252.8828,485,256.8828,495,260.8828,491,256.8828" style="stroke:#181818;stroke-width:1.0;"/><line style="stroke:#181818;stroke-width:1.0;stroke-dasharray:2.0,2.0;" x1="489" x2="834" y1="256.8828" y2="256.8828"/><text fill="#000000" font-family="sans-serif" font-size="20" font-weight="bold" lengthAdjust="spacing" textLength="31" x="501" y="250.6641">9.4</text><text fill="#000000" font-family="sans-serif" font-size="20" lengthAdjust="spacing" textLength="246" x="536" y="250.6641">AnnouncementRepository</text><polygon fill="#181818" points="1026.5,290.4375,1036.5,294.4375,1026.5,298.4375,1030.5,294.4375" style="stroke:#181818;stroke-width:1.0;"/><line style="stroke:#181818;stroke-width:1.0;" x1="484" x2="1032.5" y1="294.4375" y2="294.4375"/><text fill="#000000" font-family="sans-serif" font-size="20" font-weight="bold" lengthAdjust="spacing" textLength="31" x="491" y="288.2188">9.5</text><text fill="#000000" font-family="sans-serif" font-size="20" lengthAdjust="spacing" textLength="438" x="526" y="288.2188">getAnnouncementList (business, type, rooms)</text><polygon fill="#181818" points="1589.5,327.9922,1599.5,331.9922,1589.5,335.9922,1593.5,331.9922" style="stroke:#181818;stroke-width:1.0;"/><line style="stroke:#181818;stroke-width:1.0;" x1="1048.5" x2="1595.5" y1="331.9922" y2="331.9922"/><text fill="#000000" font-family="sans-serif" font-size="20" font-weight="bold" lengthAdjust="spacing" textLength="31" x="1055.5" y="325.7734">9.6</text><text fill="#000000" font-family="sans-serif" font-size="20" lengthAdjust="spacing" textLength="499" x="1090.5" y="325.7734">filterAnnouncementsAvailable(business,type,rooms)</text><polygon fill="#181818" points="2682,365.5469,2692,369.5469,2682,373.5469,2686,369.5469" style="stroke:#181818;stroke-width:1.0;"/><line style="stroke:#181818;stroke-width:1.0;" x1="1611.5" x2="2688" y1="369.5469" y2="369.5469"/><text fill="#000000" font-family="sans-serif" font-size="20" font-weight="bold" lengthAdjust="spacing" textLength="31" x="1618.5" y="363.3281">9.7</text><text fill="#000000" font-family="sans-serif" font-size="20" lengthAdjust="spacing" textLength="72" x="1653.5" y="363.3281">create()</text><rect fill="#E3E3E3" height="61.1094" rx="2.5" ry="2.5" style="stroke:#181818;stroke-width:0.5;" width="302" x="2694" y="339.9922"/><text fill="#000000" font-family="sans-serif" font-size="20" lengthAdjust="spacing" textLength="266" x="2712" y="366.3281">ListAnnouncementAvailable</text><text fill="#000000" font-family="sans-serif" font-size="20" lengthAdjust="spacing" textLength="288" x="2701" y="389.8828">:List&lt;AnnouncementAvailable</text><path d="M1462,419.1016 L1553,419.1016 L1553,434.6563 L1543,444.6563 L1462,444.6563 L1462,419.1016 " fill="#EEEEEE" style="stroke:#000000;stroke-width:1.5;"/><rect fill="none" height="469.3203" style="stroke:#000000;stroke-width:1.5;" width="1554" x="1462" y="419.1016"/><text fill="#000000" font-family="sans-serif" font-size="20" font-weight="bold" lengthAdjust="spacing" textLength="46" x="1477" y="439.4375">loop</text><text fill="#000000" font-family="sans-serif" font-size="20" font-weight="bold" lengthAdjust="spacing" textLength="351" x="1568" y="440.4375">[foreach AnnouncementAvailable]</text><line style="stroke:#181818;stroke-width:1.0;" x1="1611.5" x2="1653.5" y1="482.7656" y2="482.7656"/><line style="stroke:#181818;stroke-width:1.0;" x1="1653.5" x2="1653.5" y1="482.7656" y2="495.7656"/><line style="stroke:#181818;stroke-width:1.0;" x1="1612.5" x2="1653.5" y1="495.7656" y2="495.7656"/><polygon fill="#181818" points="1622.5,491.7656,1612.5,495.7656,1622.5,499.7656,1618.5,495.7656" style="stroke:#181818;stroke-width:1.0;"/><text fill="#000000" font-family="sans-serif" font-size="20" font-weight="bold" lengthAdjust="spacing" textLength="31" x="1618.5" y="476.5469">9.8</text><text fill="#000000" font-family="sans-serif" font-size="20" lengthAdjust="spacing" textLength="341" x="1653.5" y="476.5469">isAnnouncementBusiness(business)</text><polygon fill="#181818" points="1989.5,529.3203,1999.5,533.3203,1989.5,537.3203,1993.5,533.3203" style="stroke:#181818;stroke-width:1.0;"/><line style="stroke:#181818;stroke-width:1.0;" x1="1611.5" x2="1995.5" y1="533.3203" y2="533.3203"/><text fill="#000000" font-family="sans-serif" font-size="20" font-weight="bold" lengthAdjust="spacing" textLength="31" x="1618.5" y="527.1016">9.9</text><text fill="#000000" font-family="sans-serif" font-size="20" lengthAdjust="spacing" textLength="118" x="1653.5" y="527.1016">isType(type)</text><polygon fill="#181818" points="1622.5,566.875,1612.5,570.875,1622.5,574.875,1618.5,570.875" style="stroke:#181818;stroke-width:1.0;"/><line style="stroke:#181818;stroke-width:1.0;stroke-dasharray:2.0,2.0;" x1="1616.5" x2="2005.5" y1="570.875" y2="570.875"/><text fill="#000000" font-family="sans-serif" font-size="20" font-weight="bold" lengthAdjust="spacing" textLength="44" x="1628.5" y="564.6563">9.10</text><text fill="#000000" font-family="sans-serif" font-size="20" lengthAdjust="spacing" textLength="93" x="1676.5" y="564.6563">true/false</text><path d="M1472,585.875 L1544,585.875 L1544,601.4297 L1534,611.4297 L1472,611.4297 L1472,585.875 " fill="#EEEEEE" style="stroke:#000000;stroke-width:1.5;"/><rect fill="none" height="209.8828" style="stroke:#000000;stroke-width:1.5;" width="883.5" x="1472" y="585.875"/><text fill="#000000" font-family="sans-serif" font-size="20" font-weight="bold" lengthAdjust="spacing" textLength="27" x="1487" y="606.2109">alt</text><text fill="#000000" font-family="sans-serif" font-size="20" font-weight="bold" lengthAdjust="spacing" textLength="181" x="1559" y="607.2109">[type=apartment]</text><polygon fill="#181818" points="2182,645.5391,2192,649.5391,2182,653.5391,2186,649.5391" style="stroke:#181818;stroke-width:1.0;"/><line style="stroke:#181818;stroke-width:1.0;" x1="1611.5" x2="2188" y1="649.5391" y2="649.5391"/><text fill="#000000" font-family="sans-serif" font-size="20" font-weight="bold" lengthAdjust="spacing" textLength="44" x="1618.5" y="643.3203">9.11</text><text fill="#000000" font-family="sans-serif" font-size="20" lengthAdjust="spacing" textLength="216" x="1666.5" y="643.3203">numberRooms(rooms)</text><polygon fill="#181818" points="1622.5,683.0938,1612.5,687.0938,1622.5,691.0938,1618.5,687.0938" style="stroke:#181818;stroke-width:1.0;"/><line style="stroke:#181818;stroke-width:1.0;stroke-dasharray:2.0,2.0;" x1="1616.5" x2="2198" y1="687.0938" y2="687.0938"/><text fill="#000000" font-family="sans-serif" font-size="20" font-weight="bold" lengthAdjust="spacing" textLength="44" x="1628.5" y="680.875">9.12</text><text fill="#000000" font-family="sans-serif" font-size="20" lengthAdjust="spacing" textLength="93" x="1676.5" y="680.875">true/false</text><line style="stroke:#000000;stroke-width:1.0;stroke-dasharray:2.0,2.0;" x1="1472" x2="2355.5" y1="696.0938" y2="696.0938"/><text fill="#000000" font-family="sans-serif" font-size="20" font-weight="bold" lengthAdjust="spacing" textLength="137" x="1477" y="715.4297">[type=house]</text><polygon fill="#181818" points="2290,746.2031,2300,750.2031,2290,754.2031,2294,750.2031" style="stroke:#181818;stroke-width:1.0;"/><line style="stroke:#181818;stroke-width:1.0;" x1="1611.5" x2="2296" y1="750.2031" y2="750.2031"/><text fill="#000000" font-family="sans-serif" font-size="20" font-weight="bold" lengthAdjust="spacing" textLength="44" x="1618.5" y="743.9844">9.13</text><text fill="#000000" font-family="sans-serif" font-size="20" lengthAdjust="spacing" textLength="216" x="1666.5" y="743.9844">numberRooms(rooms)</text><polygon fill="#181818" points="1622.5,783.7578,1612.5,787.7578,1622.5,791.7578,1618.5,787.7578" style="stroke:#181818;stroke-width:1.0;"/><line style="stroke:#181818;stroke-width:1.0;stroke-dasharray:2.0,2.0;" x1="1616.5" x2="2306" y1="787.7578" y2="787.7578"/><text fill="#000000" font-family="sans-serif" font-size="20" font-weight="bold" lengthAdjust="spacing" textLength="44" x="1628.5" y="781.5391">9.14</text><text fill="#000000" font-family="sans-serif" font-size="20" lengthAdjust="spacing" textLength="93" x="1676.5" y="781.5391">true/false</text><path d="M1472,809.7578 L1544,809.7578 L1544,825.3125 L1534,835.3125 L1472,835.3125 L1472,809.7578 " fill="#EEEEEE" style="stroke:#000000;stroke-width:1.5;"/><rect fill="none" height="71.6641" style="stroke:#000000;stroke-width:1.5;" width="1534" x="1472" y="809.7578"/><text fill="#000000" font-family="sans-serif" font-size="20" font-weight="bold" lengthAdjust="spacing" textLength="27" x="1487" y="830.0938">alt</text><text fill="#000000" font-family="sans-serif" font-size="20" font-weight="bold" lengthAdjust="spacing" textLength="584" x="1559" y="831.0938">[isAnnouncementBusiness &amp;&amp; isType &amp;&amp; numberRooms]</text><polygon fill="#181818" points="2833,869.4219,2843,873.4219,2833,877.4219,2837,873.4219" style="stroke:#181818;stroke-width:1.0;"/><line style="stroke:#181818;stroke-width:1.0;" x1="1611.5" x2="2839" y1="873.4219" y2="873.4219"/><text fill="#000000" font-family="sans-serif" font-size="20" font-weight="bold" lengthAdjust="spacing" textLength="44" x="1618.5" y="867.2031">9.15</text><text fill="#000000" font-family="sans-serif" font-size="20" lengthAdjust="spacing" textLength="195" x="1666.5" y="867.2031">add(Announcement)</text><polygon fill="#181818" points="1059.5,920.9766,1049.5,924.9766,1059.5,928.9766,1055.5,924.9766" style="stroke:#181818;stroke-width:1.0;"/><line style="stroke:#181818;stroke-width:1.0;stroke-dasharray:2.0,2.0;" x1="1053.5" x2="1605.5" y1="924.9766" y2="924.9766"/><text fill="#000000" font-family="sans-serif" font-size="20" font-weight="bold" lengthAdjust="spacing" textLength="44" x="1065.5" y="918.7578">9.16</text><text fill="#000000" font-family="sans-serif" font-size="20" lengthAdjust="spacing" textLength="266" x="1113.5" y="918.7578">ListAnnouncementAvailable</text><polygon fill="#181818" points="495,958.5313,485,962.5313,495,966.5313,491,962.5313" style="stroke:#181818;stroke-width:1.0;"/><line style="stroke:#181818;stroke-width:1.0;stroke-dasharray:2.0,2.0;" x1="489" x2="1042.5" y1="962.5313" y2="962.5313"/><text fill="#000000" font-family="sans-serif" font-size="20" font-weight="bold" lengthAdjust="spacing" textLength="44" x="501" y="956.3125">9.17</text><text fill="#000000" font-family="sans-serif" font-size="20" lengthAdjust="spacing" textLength="266" x="549" y="956.3125">ListAnnouncementAvailable</text><polygon fill="#181818" points="2457,996.0859,2467,1000.0859,2457,1004.0859,2461,1000.0859" style="stroke:#181818;stroke-width:1.0;"/><line style="stroke:#181818;stroke-width:1.0;" x1="484" x2="2463" y1="1000.0859" y2="1000.0859"/><text fill="#000000" font-family="sans-serif" font-size="20" font-weight="bold" lengthAdjust="spacing" textLength="44" x="491" y="993.8672">9.18</text><text fill="#000000" font-family="sans-serif" font-size="20" lengthAdjust="spacing" textLength="333" x="539" y="993.8672">toDto(ListAnnouncementAvailable)</text><polygon fill="#181818" points="2994,1033.6406,3004,1037.6406,2994,1041.6406,2998,1037.6406" style="stroke:#181818;stroke-width:1.0;"/><line style="stroke:#181818;stroke-width:1.0;" x1="2479" x2="3000" y1="1037.6406" y2="1037.6406"/><text fill="#000000" font-family="sans-serif" font-size="20" font-weight="bold" lengthAdjust="spacing" textLength="44" x="2486" y="1031.4219">9.19</text><text fill="#000000" font-family="sans-serif" font-size="20" lengthAdjust="spacing" textLength="102" x="2534" y="1031.4219">createDTO</text><rect fill="#E3E3E3" height="61.1094" rx="2.5" ry="2.5" style="stroke:#181818;stroke-width:0.5;" width="346" x="3006" y="1008.0859"/><text fill="#000000" font-family="sans-serif" font-size="20" lengthAdjust="spacing" textLength="310" x="3024" y="1034.4219">ListAnnouncementAvailableDTO</text><text fill="#000000" font-family="sans-serif" font-size="20" lengthAdjust="spacing" textLength="332" x="3013" y="1057.9766">:List&lt;AnnouncementAvailableDTO</text><path d="M2345.5,1087.1953 L2436.5,1087.1953 L2436.5,1102.75 L2426.5,1112.75 L2345.5,1112.75 L2345.5,1087.1953 " fill="#EEEEEE" style="stroke:#000000;stroke-width:1.5;"/><rect fill="none" height="299.4375" style="stroke:#000000;stroke-width:1.5;" width="1234.5" x="2345.5" y="1087.1953"/><text fill="#000000" font-family="sans-serif" font-size="20" font-weight="bold" lengthAdjust="spacing" textLength="46" x="2360.5" y="1107.5313">loop</text><text fill="#000000" font-family="sans-serif" font-size="20" font-weight="bold" lengthAdjust="spacing" textLength="276" x="2451.5" y="1108.5313">[foreach object of the List]</text><polygon fill="#181818" points="2828,1146.8594,2838,1150.8594,2828,1154.8594,2832,1150.8594" style="stroke:#181818;stroke-width:1.0;"/><line style="stroke:#181818;stroke-width:1.0;" x1="2479" x2="2834" y1="1150.8594" y2="1150.8594"/><text fill="#000000" font-family="sans-serif" font-size="20" font-weight="bold" lengthAdjust="spacing" textLength="44" x="2486" y="1144.6406">9.20</text><text fill="#000000" font-family="sans-serif" font-size="20" lengthAdjust="spacing" textLength="50" x="2534" y="1144.6406">get(i)</text><polygon fill="#181818" points="2490,1184.4141,2480,1188.4141,2490,1192.4141,2486,1188.4141" style="stroke:#181818;stroke-width:1.0;"/><line style="stroke:#181818;stroke-width:1.0;stroke-dasharray:2.0,2.0;" x1="2484" x2="2844" y1="1188.4141" y2="1188.4141"/><text fill="#000000" font-family="sans-serif" font-size="20" font-weight="bold" lengthAdjust="spacing" textLength="44" x="2496" y="1182.1953">9.21</text><text fill="#000000" font-family="sans-serif" font-size="20" lengthAdjust="spacing" textLength="232" x="2544" y="1182.1953">AnnouncementAvailable</text><line style="stroke:#181818;stroke-width:1.0;" x1="2479" x2="2526" y1="1220.9688" y2="1220.9688"/><line style="stroke:#181818;stroke-width:1.0;" x1="2526" x2="2526" y1="1220.9688" y2="1233.9688"/><line style="stroke:#181818;stroke-width:1.0;" x1="2485" x2="2526" y1="1233.9688" y2="1233.9688"/><polygon fill="#181818" points="2495,1229.9688,2485,1233.9688,2495,1237.9688,2491,1233.9688" style="stroke:#181818;stroke-width:1.0;"/><text fill="#000000" font-family="sans-serif" font-size="20" font-weight="bold" lengthAdjust="spacing" textLength="44" x="2491" y="1214.75">9.22</text><text fill="#000000" font-family="sans-serif" font-size="20" lengthAdjust="spacing" textLength="299" x="2539" y="1214.75">toDto(AnnouncementAvailable)</text><polygon fill="#181818" points="3350,1272.5234,3360,1276.5234,3350,1280.5234,3354,1276.5234" style="stroke:#181818;stroke-width:1.0;"/><line style="stroke:#181818;stroke-width:1.0;" x1="2479" x2="3356" y1="1276.5234" y2="1276.5234"/><text fill="#000000" font-family="sans-serif" font-size="20" font-weight="bold" lengthAdjust="spacing" textLength="44" x="2486" y="1270.3047">9.23</text><text fill="#000000" font-family="sans-serif" font-size="20" lengthAdjust="spacing" textLength="304" x="2534" y="1270.3047">create(AnnouncementAvailable)</text><rect fill="#E3E3E3" height="61.1094" rx="2.5" ry="2.5" style="stroke:#181818;stroke-width:0.5;" width="208" x="3362" y="1246.9688"/><text fill="#000000" font-family="sans-serif" font-size="20" lengthAdjust="spacing" textLength="185" x="3373.5" y="1273.3047">announcementDTO</text><text fill="#000000" font-family="sans-serif" font-size="20" lengthAdjust="spacing" textLength="194" x="3369" y="1296.8594">:AnnouncementDTO</text><polygon fill="#181818" points="3162,1344.6328,3172,1348.6328,3162,1352.6328,3166,1348.6328" style="stroke:#181818;stroke-width:1.0;"/><line style="stroke:#181818;stroke-width:1.0;stroke-dasharray:2.0,2.0;" x1="2479" x2="3168" y1="1348.6328" y2="1348.6328"/><text fill="#000000" font-family="sans-serif" font-size="20" font-weight="bold" lengthAdjust="spacing" textLength="44" x="2486" y="1342.4141">9.24</text><text fill="#000000" font-family="sans-serif" font-size="20" lengthAdjust="spacing" textLength="239" x="2534" y="1342.4141">add(AnnouncementDTO)</text><polygon fill="#181818" points="495,1419.1875,485,1423.1875,495,1427.1875,491,1423.1875" style="stroke:#181818;stroke-width:1.0;"/><line style="stroke:#181818;stroke-width:1.0;stroke-dasharray:2.0,2.0;" x1="489" x2="2473" y1="1423.1875" y2="1423.1875"/><text fill="#000000" font-family="sans-serif" font-size="20" font-weight="bold" lengthAdjust="spacing" textLength="44" x="501" y="1416.9688">9.25</text><text fill="#000000" font-family="sans-serif" font-size="20" lengthAdjust="spacing" textLength="222" x="549" y="1416.9688">ListAnnouncementDTO</text><polygon fill="#181818" points="11,1456.7422,1,1460.7422,11,1464.7422,7,1460.7422" style="stroke:#181818;stroke-width:1.0;"/><line style="stroke:#181818;stroke-width:1.0;stroke-dasharray:2.0,2.0;" x1="5" x2="478" y1="1460.7422" y2="1460.7422"/><text fill="#000000" font-family="sans-serif" font-size="20" font-weight="bold" lengthAdjust="spacing" textLength="26" x="17" y="1454.5234">10</text><text fill="#000000" font-family="sans-serif" font-size="20" lengthAdjust="spacing" textLength="222" x="47" y="1454.5234">ListAnnouncementDTO</text><!--SRC=[hLTRJzim57xthx1uG6b5DjZR8eRKmQPDOWALFlBY9cwRaTgHxJ2nNpzVqjHsBax3-jBq-5m-VpctyfUSb8YXVK7J5vp136zGLOZlb8Yd_2-6dou1FwZ0FIKqtJ6wnr2m2bid9KfVq1O_YRS2GuPJWSYsi1Nu3cNqJqwsS8CAZW6GOf6dUOc8W6V9WX1QaHJlCH6tCZQZHO7P6KGStgwMzvxs4fUKvuAo77Eji_ps-E3gC4ibUIOj2tdk6Y0BGQFz9aqNdGVQYN_Kxt7nYl82hGliEMpaBNyUGoMZ9MP20Ngi7xM9ahkQ1IAPrBgNNrf3_VQ0gLygXW9pUDQw-iHLtj6AAzG_rBTMqX80-Y_x2vKIu3DntgeHcYWjiUViFkUYaoNfKvrTzrEeZaSwkriz3FgJvurB-JnmOUDfuKfQLzK-0Ae49TL-ZHdy3E8RdTumWLliW5GnORIkU4umvnTGl9Nu0Z9Aztm6eFL1gSXVaS2cJ6pd7ww0ewa-EfWCgkf5n_n9k2pL54UpbgxbMvTNIq59ONoyWbrZBUKC1xmTeCd2RB5nBBjEd1s8LNctDANGnjiTOGXvfzS3SD_Tz7VgtAJLOm3efy1Nzd4bS9CN0ZDRnfk4FsBJq6fa8CossxV6mOjl51_pUP8oB7r4Gu4AIakueL8ntS7EMWM3QU7O-9p8JCYvBVXQiz3GCHlsxZjNBLaxNKaM8qNb381nQQkx-Q2gTXwthw3cySTwj0xP7xCv0AaGEa6_DCCYG7474TfKOZCTQQdIAUf9zrv6p4GAw-jGx-35gtGJDcI0fLl3afc9SCJ79qbRJYF98QgUocDiJCXtakKH5YO0opKac7BTbGZFp-joKayMKoUbfBolQZa9H5aMsGUpz-4EAhYll6DKIEfxjvIHrUpruB5mp90upiJ_2YCuhex3ixqI9eBU2Hhr0Xgv27Jjci6QQjcOOIKNk6PUgMKkvCSPMtJzM_ujWdG3nGwRDVLq7B3EORCmHla9ZNHKHEqxxdmVti8qBZ6yvD0O9bwx4v79aGdv4SgHAIdYB_lpkKHORpSJ8LhJUWfhTRP8BB3TzQJqnFGPa_DZzukcSOAfD-lfM26GOoZjRQlWfCvd_HkxkdHjh-Dux0Mi4Fe_tZy0]--></g></svg>